  0
SECTION
  2
HEADER
  9
$ACADVER
  1
AC1032
  9
$ACADMAINTVER
 90
4
  9
$DWGCODEPAGE
  3
ANSI_1252
  9
$LASTSAVEDBY
  1
ezdxf
  9
$REQUIREDVERSIONS
160
0
  9
$INSBASE
 10
0.0
 20
0.0
 30
0.0
  9
$EXTMIN
 10
1e+20
 20
1e+20
 30
1e+20
  9
$EXTMAX
 10
-1e+20
 20
-1e+20
 30
-1e+20
  9
$LIMMIN
 10
0.0
 20
0.0
  9
$LIMMAX
 10
420.0
 20
297.0
  9
$ORTHOMODE
 70
0
  9
$REGENMODE
 70
1
  9
$FILLMODE
 70
1
  9
$QTEXTMODE
 70
0
  9
$MIRRTEXT
 70
1
  9
$LTSCALE
 40
1.0
  9
$ATTMODE
 70
1
  9
$TEXTSIZE
 40
2.5
  9
$TRACEWID
 40
1.0
  9
$TEXTSTYLE
  7
Standard
  9
$CLAYER
  8
0
  9
$CELTYPE
  6
ByLayer
  9
$CECOLOR
 62
256
  9
$CELTSCALE
 40
1.0
  9
$DISPSILH
 70
0
  9
$DIMSCALE
 40
1.0
  9
$DIMASZ
 40
2.5
  9
$DIMEXO
 40
0.625
  9
$DIMDLI
 40
3.75
  9
$DIMRND
 40
0.0
  9
$DIMDLE
 40
0.0
  9
$DIMEXE
 40
1.25
  9
$DIMTP
 40
0.0
  9
$DIMTM
 40
0.0
  9
$DIMTXT
 40
2.5
  9
$DIMCEN
 40
2.5
  9
$DIMTSZ
 40
0.0
  9
$DIMTOL
 70
0
  9
$DIMLIM
 70
0
  9
$DIMTIH
 70
0
  9
$DIMTOH
 70
0
  9
$DIMSE1
 70
0
  9
$DIMSE2
 70
0
  9
$DIMTAD
 70
1
  9
$DIMZIN
 70
8
  9
$DIMBLK
  1

  9
$DIMASO
 70
1
  9
$DIMSHO
 70
1
  9
$DIMPOST
  1

  9
$DIMAPOST
  1

  9
$DIMALT
 70
0
  9
$DIMALTD
 70
3
  9
$DIMALTF
 40
0.03937007874
  9
$DIMLFAC
 40
1.0
  9
$DIMTOFL
 70
1
  9
$DIMTVP
 40
0.0
  9
$DIMTIX
 70
0
  9
$DIMSOXD
 70
0
  9
$DIMSAH
 70
0
  9
$DIMBLK1
  1

  9
$DIMBLK2
  1

  9
$DIMSTYLE
  2
ISO-25
  9
$DIMCLRD
 70
0
  9
$DIMCLRE
 70
0
  9
$DIMCLRT
 70
0
  9
$DIMTFAC
 40
1.0
  9
$DIMGAP
 40
0.625
  9
$DIMJUST
 70
0
  9
$DIMSD1
 70
0
  9
$DIMSD2
 70
0
  9
$DIMTOLJ
 70
0
  9
$DIMTZIN
 70
8
  9
$DIMALTZ
 70
0
  9
$DIMALTTZ
 70
0
  9
$DIMUPT
 70
0
  9
$DIMDEC
 70
2
  9
$DIMTDEC
 70
2
  9
$DIMALTU
 70
2
  9
$DIMALTTD
 70
3
  9
$DIMTXSTY
  7
Standard
  9
$DIMAUNIT
 70
0
  9
$DIMADEC
 70
0
  9
$DIMALTRND
 40
0.0
  9
$DIMAZIN
 70
0
  9
$DIMDSEP
 70
44
  9
$DIMATFIT
 70
3
  9
$DIMFRAC
 70
0
  9
$DIMLDRBLK
  1

  9
$DIMLUNIT
 70
2
  9
$DIMLWD
 70
-2
  9
$DIMLWE
 70
-2
  9
$DIMTMOVE
 70
0
  9
$DIMFXL
 40
1.0
  9
$DIMFXLON
 70
0
  9
$DIMJOGANG
 40
0.785398163397
  9
$DIMTFILL
 70
0
  9
$DIMTFILLCLR
 70
0
  9
$DIMARCSYM
 70
0
  9
$DIMLTYPE
  6

  9
$DIMLTEX1
  6

  9
$DIMLTEX2
  6

  9
$DIMTXTDIRECTION
 70
0
  9
$LUNITS
 70
2
  9
$LUPREC
 70
4
  9
$SKETCHINC
 40
1.0
  9
$FILLETRAD
 40
10.0
  9
$AUNITS
 70
0
  9
$AUPREC
 70
2
  9
$MENU
  1
.
  9
$ELEVATION
 40
0.0
  9
$PELEVATION
 40
0.0
  9
$THICKNESS
 40
0.0
  9
$LIMCHECK
 70
0
  9
$CHAMFERA
 40
0.0
  9
$CHAMFERB
 40
0.0
  9
$CHAMFERC
 40
0.0
  9
$CHAMFERD
 40
0.0
  9
$SKPOLY
 70
0
  9
$TDCREATE
 40
2461309.0741782407
  9
$TDUCREATE
 40
2458532.153996898
  9
$TDUPDATE
 40
2461309.0741782407
  9
$TDUUPDATE
 40
2458532.1544311
  9
$TDINDWG
 40
0.0
  9
$TDUSRTIMER
 40
0.0
  9
$USRTIMER
 70
1
  9
$ANGBASE
 50
0.0
  9
$ANGDIR
 70
0
  9
$PDMODE
 70
0
  9
$PDSIZE
 40
0.0
  9
$PLINEWID
 40
0.0
  9
$SPLFRAME
 70
0
  9
$SPLINETYPE
 70
6
  9
$SPLINESEGS
 70
8
  9
$HANDSEED
  5
2F5
  9
$SURFTAB1
 70
6
  9
$SURFTAB2
 70
6
  9
$SURFTYPE
 70
6
  9
$SURFU
 70
6
  9
$SURFV
 70
6
  9
$UCSBASE
  2

  9
$UCSNAME
  2

  9
$UCSORG
 10
0.0
 20
0.0
 30
0.0
  9
$UCSXDIR
 10
1.0
 20
0.0
 30
0.0
  9
$UCSYDIR
 10
0.0
 20
1.0
 30
0.0
  9
$UCSORTHOREF
  2

  9
$UCSORTHOVIEW
 70
0
  9
$UCSORGTOP
 10
0.0
 20
0.0
 30
0.0
  9
$UCSORGBOTTOM
 10
0.0
 20
0.0
 30
0.0
  9
$UCSORGLEFT
 10
0.0
 20
0.0
 30
0.0
  9
$UCSORGRIGHT
 10
0.0
 20
0.0
 30
0.0
  9
$UCSORGFRONT
 10
0.0
 20
0.0
 30
0.0
  9
$UCSORGBACK
 10
0.0
 20
0.0
 30
0.0
  9
$PUCSBASE
  2

  9
$PUCSNAME
  2

  9
$PUCSORG
 10
0.0
 20
0.0
 30
0.0
  9
$PUCSXDIR
 10
1.0
 20
0.0
 30
0.0
  9
$PUCSYDIR
 10
0.0
 20
1.0
 30
0.0
  9
$PUCSORTHOREF
  2

  9
$PUCSORTHOVIEW
 70
0
  9
$PUCSORGTOP
 10
0.0
 20
0.0
 30
0.0
  9
$PUCSORGBOTTOM
 10
0.0
 20
0.0
 30
0.0
  9
$PUCSORGLEFT
 10
0.0
 20
0.0
 30
0.0
  9
$PUCSORGRIGHT
 10
0.0
 20
0.0
 30
0.0
  9
$PUCSORGFRONT
 10
0.0
 20
0.0
 30
0.0
  9
$PUCSORGBACK
 10
0.0
 20
0.0
 30
0.0
  9
$USERI1
 70
0
  9
$USERI2
 70
0
  9
$USERI3
 70
0
  9
$USERI4
 70
0
  9
$USERI5
 70
0
  9
$USERR1
 40
0.0
  9
$USERR2
 40
0.0
  9
$USERR3
 40
0.0
  9
$USERR4
 40
0.0
  9
$USERR5
 40
0.0
  9
$WORLDVIEW
 70
1
  9
$SHADEDGE
 70
3
  9
$SHADEDIF
 70
70
  9
$TILEMODE
 70
1
  9
$MAXACTVP
 70
64
  9
$PINSBASE
 10
0.0
 20
0.0
 30
0.0
  9
$PLIMCHECK
 70
0
  9
$PEXTMIN
 10
1e+20
 20
1e+20
 30
1e+20
  9
$PEXTMAX
 10
-1e+20
 20
-1e+20
 30
-1e+20
  9
$PLIMMIN
 10
-0.0
 20
-0.0
  9
$PLIMMAX
 10
891.0
 20
420.0
  9
$UNITMODE
 70
0
  9
$VISRETAIN
 70
1
  9
$PLINEGEN
 70
0
  9
$PSLTSCALE
 70
0
  9
$TREEDEPTH
 70
3020
  9
$CMLSTYLE
  2
Standard
  9
$CMLJUST
 70
0
  9
$CMLSCALE
 40
20.0
  9
$PROXYGRAPHICS
 70
1
  9
$MEASUREMENT
 70
1
  9
$CELWEIGHT
370
-1
  9
$ENDCAPS
280
0
  9
$JOINSTYLE
280
0
  9
$LWDISPLAY
290
1
  9
$INSUNITS
 70
6
  9
$HYPERLINKBASE
  1

  9
$STYLESHEET
  1

  9
$XEDIT
290
1
  9
$CEPSNTYPE
380
0
  9
$PSTYLEMODE
290
1
  9
$FINGERPRINTGUID
  2
{5245CFE3-18F3-4FB0-B124-A6512760F564}
  9
$VERSIONGUID
  2
{624FD79A-82B9-4541-82EF-9E0E8DC7FBBF}
  9
$EXTNAMES
290
1
  9
$PSVPSCALE
 40
0.0
  9
$OLESTARTUP
290
0
  9
$SORTENTS
280
127
  9
$INDEXCTL
280
0
  9
$HIDETEXT
280
1
  9
$XCLIPFRAME
280
1
  9
$HALOGAP
280
0
  9
$OBSCOLOR
 70
257
  9
$OBSLTYPE
280
0
  9
$INTERSECTIONDISPLAY
280
0
  9
$INTERSECTIONCOLOR
 70
257
  9
$DIMASSOC
280
2
  9
$PROJECTNAME
  1

  9
$CAMERADISPLAY
290
0
  9
$LENSLENGTH
 40
50.0
  9
$CAMERAHEIGHT
 40
0.0
  9
$STEPSPERSEC
 40
24.0
  9
$STEPSIZE
 40
100.0
  9
$3DDWFPREC
 40
2.0
  9
$PSOLWIDTH
 40
0.005
  9
$PSOLHEIGHT
 40
0.08
  9
$LOFTANG1
 40
1.570796326795
  9
$LOFTANG2
 40
1.570796326795
  9
$LOFTMAG1
 40
0.0
  9
$LOFTMAG2
 40
0.0
  9
$LOFTPARAM
 70
7
  9
$LOFTNORMALS
280
1
  9
$LATITUDE
 40
37.795
  9
$LONGITUDE
 40
-122.394
  9
$NORTHDIRECTION
 40
0.0
  9
$TIMEZONE
 70
-8000
  9
$LIGHTGLYPHDISPLAY
280
1
  9
$TILEMODELIGHTSYNCH
280
1
  9
$CMATERIAL
347
20
  9
$SOLIDHIST
280
0
  9
$SHOWHIST
280
1
  9
$DWFFRAME
280
2
  9
$DGNFRAME
280
2
  9
$REALWORLDSCALE
290
1
  9
$INTERFERECOLOR
 62
256
  9
$CSHADOW
280
0
  9
$SHADOWPLANELOCATION
 40
0.0
  0
ENDSEC
  0
SECTION
  2
CLASSES
  0
CLASS
  1
ACDBDICTIONARYWDFLT
  2
AcDbDictionaryWithDefault
  3
ObjectDBX Classes
 90
0
 91
0
280
0
281
0
  0
CLASS
  1
SUN
  2
AcDbSun
  3
SCENEOE
 90
1153
 91
0
280
0
281
0
  0
CLASS
  1
VISUALSTYLE
  2
AcDbVisualStyle
  3
ObjectDBX Classes
 90
4095
 91
0
280
0
281
0
  0
CLASS
  1
MATERIAL
  2
AcDbMaterial
  3
ObjectDBX Classes
 90
1153
 91
0
280
0
281
0
  0
CLASS
  1
SCALE
  2
AcDbScale
  3
ObjectDBX Classes
 90
1153
 91
0
280
0
281
0
  0
CLASS
  1
TABLESTYLE
  2
AcDbTableStyle
  3
ObjectDBX Classes
 90
4095
 91
0
280
0
281
0
  0
CLASS
  1
MLEADERSTYLE
  2
AcDbMLeaderStyle
  3
ACDB_MLEADERSTYLE_CLASS
 90
4095
 91
0
280
0
281
0
  0
CLASS
  1
DICTIONARYVAR
  2
AcDbDictionaryVar
  3
ObjectDBX Classes
 90
0
 91
0
280
0
281
0
  0
CLASS
  1
CELLSTYLEMAP
  2
AcDbCellStyleMap
  3
ObjectDBX Classes
 90
1152
 91
0
280
0
281
0
  0
CLASS
  1
MENTALRAYRENDERSETTINGS
  2
AcDbMentalRayRenderSettings
  3
SCENEOE
 90
1024
 91
0
280
0
281
0
  0
CLASS
  1
ACDBDETAILVIEWSTYLE
  2
AcDbDetailViewStyle
  3
ObjectDBX Classes
 90
1025
 91
0
280
0
281
0
  0
CLASS
  1
ACDBSECTIONVIEWSTYLE
  2
AcDbSectionViewStyle
  3
ObjectDBX Classes
 90
1025
 91
0
280
0
281
0
  0
CLASS
  1
RASTERVARIABLES
  2
AcDbRasterVariables
  3
ISM
 90
0
 91
0
280
0
281
0
  0
CLASS
  1
LAYOUT
  2
AcDbLayout
  3
ObjectDBX Classes
 90
0
 91
0
280
0
281
0
  0
CLASS
  1
ACDBPLACEHOLDER
  2
AcDbPlaceHolder
  3
ObjectDBX Classes
 90
0
 91
0
280
0
281
0
  0
ENDSEC
  0
SECTION
  2
TABLES
  0
TABLE
  2
VPORT
  5
8
330
0
100
AcDbSymbolTable
 70
1
  0
VPORT
  5
23
330
8
100
AcDbSymbolTableRecord
100
AcDbViewportTableRecord
  2
*Active
 70
0
 10
0.0
 20
0.0
 11
1.0
 21
1.0
 12
0.0
 22
0.0
 13
0.0
 23
0.0
 14
0.5
 24
0.5
 15
0.5
 25
0.5
 16
0.0
 26
0.0
 36
1.0
 17
0.0
 27
0.0
 37
0.0
 40
1000.0
 41
1.34
 42
50.0
 43
0.0
 44
0.0
 50
0.0
 51
0.0
 71
0
 72
1000
 73
1
 74
3
 75
0
 76
0
 77
0
 78
0
281
0
 65
0
146
0.0
  0
ENDTAB
  0
TABLE
  2
LTYPE
  5
2
330
0
100
AcDbSymbolTable
 70
14
  0
LTYPE
  5
24
330
2
100
AcDbSymbolTableRecord
100
AcDbLinetypeTableRecord
  2
ByBlock
 70
0
  3

 72
65
 73
0
 40
0.0
  0
LTYPE
  5
25
330
2
100
AcDbSymbolTableRecord
100
AcDbLinetypeTableRecord
  2
ByLayer
 70
0
  3

 72
65
 73
0
 40
0.0
  0
LTYPE
  5
26
330
2
100
AcDbSymbolTableRecord
100
AcDbLinetypeTableRecord
  2
Continuous
 70
0
  3

 72
65
 73
0
 40
0.0
  0
LTYPE
  5
2F
330
2
100
AcDbSymbolTableRecord
100
AcDbLinetypeTableRecord
  2
KRESKOWA
 70
0
  3
Linia kreskowa (02): krawędzie niewidoczne, elementy pod/nad płaszczyzną cięcia
 72
65
 73
2
 40
5.249999999999999
 49
4.199999999999999
 74
0
 49
-1.0499999999999998
 74
0
  0
LTYPE
  5
30
330
2
100
AcDbSymbolTableRecord
100
AcDbLinetypeTableRecord
  2
KRESKOWA_DROBNA
 70
0
  3
Linia kreskowa drobna (kreska krótka 6d)
 72
65
 73
2
 40
3.1499999999999995
 49
2.0999999999999996
 74
0
 49
-1.0499999999999998
 74
0
  0
LTYPE
  5
31
330
2
100
AcDbSymbolTableRecord
100
AcDbLinetypeTableRecord
  2
PUNKTOWA
 70
0
  3
Linia punktowa (04): osie, płaszczyzny przekroju
 72
65
 73
4
 40
10.5
 49
8.399999999999999
 74
0
 49
-1.0499999999999998
 74
0
 49
0.0
 74
0
 49
-1.0499999999999998
 74
0
  0
LTYPE
  5
32
330
2
100
AcDbSymbolTableRecord
100
AcDbLinetypeTableRecord
  2
PUNKTOWA_KROTKA
 70
0
  3
Linia punktowa z kreską zwykłą (końce przekrojów, gaz)
 72
65
 73
4
 40
6.299999999999999
 49
4.199999999999999
 74
0
 49
-1.0499999999999998
 74
0
 49
0.0
 74
0
 49
-1.0499999999999998
 74
0
  0
LTYPE
  5
33
330
2
100
AcDbSymbolTableRecord
100
AcDbLinetypeTableRecord
  2
DWUPUNKTOWA
 70
0
  3
Linia dwupunktowa (05): położenia skrajne, części przyległe
 72
65
 73
6
 40
11.55
 49
8.399999999999999
 74
0
 49
-1.0499999999999998
 74
0
 49
0.0
 74
0
 49
-1.0499999999999998
 74
0
 49
0.0
 74
0
 49
-1.0499999999999998
 74
0
  0
LTYPE
  5
34
330
2
100
AcDbSymbolTableRecord
100
AcDbLinetypeTableRecord
  2
KROPKOWA
 70
0
  3
Linia kropkowa (07): elementy nieobjęte projektem
 72
65
 73
2
 40
1.0499999999999998
 49
0.0
 74
0
 49
-1.0499999999999998
 74
0
  0
LTYPE
  5
35
330
2
100
AcDbSymbolTableRecord
100
AcDbLinetypeTableRecord
  2
KRESKA_DLUGA
 70
0
  3
Linia kreskowa długa (instalacje)
 72
65
 73
2
 40
9.45
 49
8.399999999999999
 74
0
 49
-1.0499999999999998
 74
0
  0
LTYPE
  5
36
330
2
100
AcDbSymbolTableRecord
100
AcDbLinetypeTableRecord
  2
KRESKOWA_3_1
 70
0
  3
Linia kreskowa 3/1 mm (paroizolacja, R4 pkt 3.8)
 72
65
 73
2
 40
4.0
 49
3.0
 74
0
 49
-1.0
 74
0
  0
LTYPE
  5
37
330
2
100
AcDbSymbolTableRecord
100
AcDbLinetypeTableRecord
  2
HYDRO_OKNA
 70
0
  3
Białe okna pasa izolacji przeciwwodnej (czarny 3 / biały 1,5 mm)
 72
65
 73
2
 40
4.5
 49
1.5
 74
0
 49
-3.0
 74
0
  0
LTYPE
  5
38
330
2
100
AcDbSymbolTableRecord
100
AcDbLinetypeTableRecord
  2
WIELOPUNKTOWA
 70
0
  3
Linia wielopunktowa (telekomunikacja, PN-B-01027)
 72
65
 73
8
 40
13.399999999999999
 49
9.0
 74
0
 49
-1.2
 74
0
 49
0.0
 74
0
 49
-1.0
 74
0
 49
0.0
 74
0
 49
-1.0
 74
0
 49
0.0
 74
0
 49
-1.2
 74
0
  0
LTYPE
  5
39
330
2
100
AcDbSymbolTableRecord
100
AcDbLinetypeTableRecord
  2
KABEL_E
 70
0
  3
Kabel elektroenergetyczny (PN-B-01027: kreskowa 2·9·2)
 72
65
 73
2
 40
11.0
 49
9.0
 74
0
 49
-2.0
 74
0
  0
ENDTAB
  0
TABLE
  2
LAYER
  5
1
330
0
100
AcDbSymbolTable
 70
66
  0
LAYER
  5
27
330
1
100
AcDbSymbolTableRecord
100
AcDbLayerTableRecord
  2
0
 70
0
 62
7
  6
Continuous
370
-3
390
13
347
21
  0
LAYER
  5
28
330
1
100
AcDbSymbolTableRecord
100
AcDbLayerTableRecord
  2
Defpoints
 70
0
 62
7
  6
Continuous
290
0
370
-3
390
13
347
21
  0
LAYER
  5
3E
330
1
100
AcDbSymbolTableRecord
100
AcDbLayerTableRecord
  2
R-RAMKA
 70
0
 62
7
  6
Continuous
370
50
390
13
347
21
1001
AcAecLayerStandard
1000

1000
Ramka arkusza, znaki składania i centrowania
  0
LAYER
  5
40
330
1
100
AcDbSymbolTableRecord
100
AcDbLayerTableRecord
  2
R-TABLICZKA
 70
0
 62
7
  6
Continuous
370
25
390
13
347
21
1001
AcAecLayerStandard
1000

1000
Tabliczka rysunkowa (PN-EN ISO 7200)
  0
LAYER
  5
41
330
1
100
AcDbSymbolTableRecord
100
AcDbLayerTableRecord
  2
R-OPISY
 70
0
 62
7
  6
Continuous
370
25
390
13
347
21
1001
AcAecLayerStandard
1000

1000
Opisy arkusza: tytuły rzutni, uwagi, legendy
  0
LAYER
  5
42
330
1
100
AcDbSymbolTableRecord
100
AcDbLayerTableRecord
  2
R-LEGENDA
 70
0
 62
7
  6
Continuous
370
25
390
13
347
21
1001
AcAecLayerStandard
1000

1000
Legenda oznaczeń
  0
LAYER
  5
43
330
1
100
AcDbSymbolTableRecord
100
AcDbLayerTableRecord
  2
R-RZUTNIA
 70
0
 62
8
  6
Continuous
290
0
370
18
390
13
347
21
1001
AcAecLayerStandard
1000

1000
Obrys rzutni (nie drukowany)
  0
LAYER
  5
44
330
1
100
AcDbSymbolTableRecord
100
AcDbLayerTableRecord
  2
A-SCIANY-KONSTR
 70
0
 62
7
  6
Continuous
370
50
390
13
347
21
1001
AcAecLayerStandard
1000

1000
Ściany i słupy konstrukcyjne w przekroju — kontur
  0
LAYER
  5
45
330
1
100
AcDbSymbolTableRecord
100
AcDbLayerTableRecord
  2
A-SCIANY-DZIAL
 70
0
 62
7
  6
Continuous
370
35
390
13
347
21
1001
AcAecLayerStandard
1000

1000
Ścianki działowe w przekroju — kontur
  0
LAYER
  5
46
330
1
100
AcDbSymbolTableRecord
100
AcDbLayerTableRecord
  2
A-SCIANY-IZOL
 70
0
 62
4
  6
Continuous
370
35
390
13
347
21
1001
AcAecLayerStandard
1000

1000
Warstwy izolacji termicznej ścian — kontur
  0
LAYER
  5
47
330
1
100
AcDbSymbolTableRecord
100
AcDbLayerTableRecord
  2
A-SCIANY-WYK
 70
0
 62
8
  6
Continuous
370
18
390
13
347
21
1001
AcAecLayerStandard
1000

1000
Tynki, okładziny, warstwy wykończeniowe — kontur
  0
LAYER
  5
48
330
1
100
AcDbSymbolTableRecord
100
AcDbLayerTableRecord
  2
A-STROPY
 70
0
 62
7
  6
Continuous
370
50
390
13
347
21
1001
AcAecLayerStandard
1000

1000
Stropy, płyty, stropodachy w przekroju — kontur
  0
LAYER
  5
49
330
1
100
AcDbSymbolTableRecord
100
AcDbLayerTableRecord
  2
A-WARSTWY
 70
0
 62
8
  6
Continuous
370
25
390
13
347
21
1001
AcAecLayerStandard
1000

1000
Warstwy przegród poziomych (podłogi, dachy) — kontur
  0
LAYER
  5
4A
330
1
100
AcDbSymbolTableRecord
100
AcDbLayerTableRecord
  2
A-IZOL-WODNA
 70
0
 62
5
  6
Continuous
370
100
390
13
347
21
1001
AcAecLayerStandard
1000

1000
Izolacje przeciwwodne/przeciwwilgociowe/paroizolacje
  0
LAYER
  5
4B
330
1
100
AcDbSymbolTableRecord
100
AcDbLayerTableRecord
  2
A-FUNDAMENTY
 70
0
 62
7
  6
Continuous
370
50
390
13
347
21
1001
AcAecLayerStandard
1000

1000
Fundamenty w przekroju — kontur
  0
LAYER
  5
4C
330
1
100
AcDbSymbolTableRecord
100
AcDbLayerTableRecord
  2
A-KRESKOWANIE
 70
0
 62
8
  6
Continuous
370
18
390
13
347
21
1001
AcAecLayerStandard
1000

1000
Kreskowanie materiałów (PN-B-01030)
  0
LAYER
  5
4D
330
1
100
AcDbSymbolTableRecord
100
AcDbLayerTableRecord
  2
A-WYPELNIENIA
 70
0
 62
9
  6
Continuous
370
18
390
13
347
21
1001
AcAecLayerStandard
1000

1000
Wypełnienia (zaczernienia, tła)
  0
LAYER
  5
4E
330
1
100
AcDbSymbolTableRecord
100
AcDbLayerTableRecord
  2
A-WIDOK
 70
0
 62
7
  6
Continuous
370
25
390
13
347
21
1001
AcAecLayerStandard
1000

1000
Krawędzie widoczne (poza płaszczyzną cięcia)
  0
LAYER
  5
4F
330
1
100
AcDbSymbolTableRecord
100
AcDbLayerTableRecord
  2
A-NIEWIDOCZNE
 70
0
 62
8
  6
KRESKOWA
370
25
390
13
347
21
1001
AcAecLayerStandard
1000

1000
Krawędzie niewidoczne
  0
LAYER
  5
50
330
1
100
AcDbSymbolTableRecord
100
AcDbLayerTableRecord
  2
A-NAD-CIECIEM
 70
0
 62
8
  6
KRESKOWA
370
25
390
13
347
21
1001
AcAecLayerStandard
1000

1000
Elementy nad płaszczyzną cięcia (belki, nadproża, okapy)
  0
LAYER
  5
51
330
1
100
AcDbSymbolTableRecord
100
AcDbLayerTableRecord
  2
A-OKNA
 70
0
 62
3
  6
Continuous
370
35
390
13
347
21
1001
AcAecLayerStandard
1000

1000
Stolarka okienna
  0
LAYER
  5
52
330
1
100
AcDbSymbolTableRecord
100
AcDbLayerTableRecord
  2
A-DRZWI
 70
0
 62
3
  6
Continuous
370
35
390
13
347
21
1001
AcAecLayerStandard
1000

1000
Stolarka drzwiowa
  0
LAYER
  5
53
330
1
100
AcDbSymbolTableRecord
100
AcDbLayerTableRecord
  2
A-SCHODY
 70
0
 62
6
  6
Continuous
370
25
390
13
347
21
1001
AcAecLayerStandard
1000

1000
Schody, pochylnie, balustrady
  0
LAYER
  5
54
330
1
100
AcDbSymbolTableRecord
100
AcDbLayerTableRecord
  2
A-MEBLE
 70
0
 62
8
  6
Continuous
370
18
390
13
347
21
1001
AcAecLayerStandard
1000

1000
Meble i wyposażenie ruchome
  0
LAYER
  5
55
330
1
100
AcDbSymbolTableRecord
100
AcDbLayerTableRecord
  2
A-SANITARNE
 70
0
 62
6
  6
Continuous
370
25
390
13
347
21
1001
AcAecLayerStandard
1000

1000
Wyposażenie sanitarne i kuchenne
  0
LAYER
  5
56
330
1
100
AcDbSymbolTableRecord
100
AcDbLayerTableRecord
  2
A-WYMIARY
 70
0
 62
1
  6
Continuous
370
25
390
13
347
21
1001
AcAecLayerStandard
1000

1000
Wymiarowanie (PN-B-01029)
  0
LAYER
  5
57
330
1
100
AcDbSymbolTableRecord
100
AcDbLayerTableRecord
  2
A-OPISY
 70
0
 62
2
  6
Continuous
370
25
390
13
347
21
1001
AcAecLayerStandard
1000

1000
Opisy, odnośniki, opisy warstw
  0
LAYER
  5
58
330
1
100
AcDbSymbolTableRecord
100
AcDbLayerTableRecord
  2
A-POMIESZCZENIA
 70
0
 62
2
  6
Continuous
370
25
390
13
347
21
1001
AcAecLayerStandard
1000

1000
Oznaczenia pomieszczeń (PN-EN ISO 4157)
  0
LAYER
  5
59
330
1
100
AcDbSymbolTableRecord
100
AcDbLayerTableRecord
  2
A-OSIE
 70
0
 62
1
  6
PUNKTOWA
370
25
390
13
347
21
1001
AcAecLayerStandard
1000

1000
Osie konstrukcyjne
  0
LAYER
  5
5A
330
1
100
AcDbSymbolTableRecord
100
AcDbLayerTableRecord
  2
A-RZEDNE
 70
0
 62
1
  6
Continuous
370
25
390
13
347
21
1001
AcAecLayerStandard
1000

1000
Rzędne wysokościowe
  0
LAYER
  5
5B
330
1
100
AcDbSymbolTableRecord
100
AcDbLayerTableRecord
  2
A-PRZEKROJE
 70
0
 62
1
  6
PUNKTOWA_KROTKA
370
50
390
13
347
21
1001
AcAecLayerStandard
1000

1000
Oznaczenia przekrojów i widoków
  0
LAYER
  5
5C
330
1
100
AcDbSymbolTableRecord
100
AcDbLayerTableRecord
  2
A-SYMBOLE
 70
0
 62
2
  6
Continuous
370
25
390
13
347
21
1001
AcAecLayerStandard
1000

1000
Symbole ogólne (północ, spadki, odnośniki)
  0
LAYER
  5
5D
330
1
100
AcDbSymbolTableRecord
100
AcDbLayerTableRecord
  2
A-TEREN
 70
0
 62
32
  6
Continuous
370
50
390
13
347
21
1001
AcAecLayerStandard
1000

1000
Linia terenu, grunt
  0
LAYER
  5
5E
330
1
100
AcDbSymbolTableRecord
100
AcDbLayerTableRecord
  2
A-ELEWACJE
 70
0
 62
7
  6
Continuous
370
35
390
13
347
21
1001
AcAecLayerStandard
1000

1000
Elewacje — krawędzie
  0
LAYER
  5
5F
330
1
100
AcDbSymbolTableRecord
100
AcDbLayerTableRecord
  2
A-MASKA
 70
0
 62
7
  6
Continuous
370
18
390
13
347
21
1001
AcAecLayerStandard
1000

1000
Maski (tło napisów)
  0
LAYER
  5
60
330
1
100
AcDbSymbolTableRecord
100
AcDbLayerTableRecord
  2
K-KONSTR
 70
0
 62
7
  6
Continuous
370
50
390
13
347
21
1001
AcAecLayerStandard
1000

1000
Konstrukcja — kontury elementów
  0
LAYER
  5
61
330
1
100
AcDbSymbolTableRecord
100
AcDbLayerTableRecord
  2
K-ZBROJENIE
 70
0
 62
1
  6
Continuous
370
100
390
13
347
21
1001
AcAecLayerStandard
1000

1000
Zbrojenie — pręty (PN-EN ISO 3766)
  0
LAYER
  5
62
330
1
100
AcDbSymbolTableRecord
100
AcDbLayerTableRecord
  2
K-ZBROJENIE-OPIS
 70
0
 62
2
  6
Continuous
370
25
390
13
347
21
1001
AcAecLayerStandard
1000

1000
Zbrojenie — opisy pozycji
  0
LAYER
  5
63
330
1
100
AcDbSymbolTableRecord
100
AcDbLayerTableRecord
  2
K-WYMIARY
 70
0
 62
1
  6
Continuous
370
25
390
13
347
21
1001
AcAecLayerStandard
1000

1000
Konstrukcja — wymiary
  0
LAYER
  5
64
330
1
100
AcDbSymbolTableRecord
100
AcDbLayerTableRecord
  2
K-OSIE
 70
0
 62
1
  6
PUNKTOWA
370
25
390
13
347
21
1001
AcAecLayerStandard
1000

1000
Konstrukcja — osie
  0
LAYER
  5
65
330
1
100
AcDbSymbolTableRecord
100
AcDbLayerTableRecord
  2
S-WODA
 70
0
 62
5
420
20680
  6
Continuous
370
35
390
13
347
21
1001
AcAecLayerStandard
1000

1000
Instalacja wody zimnej
  0
LAYER
  5
66
330
1
100
AcDbSymbolTableRecord
100
AcDbLayerTableRecord
  2
S-CWU
 70
0
 62
1
420
13631488
  6
KRESKOWA
370
35
390
13
347
21
1001
AcAecLayerStandard
1000

1000
Instalacja ciepłej wody użytkowej
  0
LAYER
  5
67
330
1
100
AcDbSymbolTableRecord
100
AcDbLayerTableRecord
  2
S-CYRK
 70
0
 62
6
420
11534512
  6
PUNKTOWA_KROTKA
370
25
390
13
347
21
1001
AcAecLayerStandard
1000

1000
Instalacja cyrkulacji CWU
  0
LAYER
  5
68
330
1
100
AcDbSymbolTableRecord
100
AcDbLayerTableRecord
  2
S-KANAL
 70
0
 62
34
420
8013056
  6
Continuous
370
50
390
13
347
21
1001
AcAecLayerStandard
1000

1000
Kanalizacja sanitarna
  0
LAYER
  5
69
330
1
100
AcDbSymbolTableRecord
100
AcDbLayerTableRecord
  2
S-DESZCZ
 70
0
 62
150
420
32906
  6
KRESKA_DLUGA
370
35
390
13
347
21
1001
AcAecLayerStandard
1000

1000
Kanalizacja deszczowa / odwodnienie
  0
LAYER
  5
6A
330
1
100
AcDbSymbolTableRecord
100
AcDbLayerTableRecord
  2
S-OGRZ
 70
0
 62
1
420
14700544
  6
Continuous
370
25
390
13
347
21
1001
AcAecLayerStandard
1000

1000
Ogrzewanie (zasilanie/powrót, pętle podłogowe)
  0
LAYER
  5
6B
330
1
100
AcDbSymbolTableRecord
100
AcDbLayerTableRecord
  2
S-WENT
 70
0
 62
3
420
35328
  6
Continuous
370
35
390
13
347
21
1001
AcAecLayerStandard
1000

1000
Wentylacja mechaniczna
  0
LAYER
  5
6C
330
1
100
AcDbSymbolTableRecord
100
AcDbLayerTableRecord
  2
S-URZADZENIA
 70
0
 62
2
420
3158064
  6
Continuous
370
35
390
13
347
21
1001
AcAecLayerStandard
1000

1000
Urządzenia i armatura instalacji sanitarnych
  0
LAYER
  5
6D
330
1
100
AcDbSymbolTableRecord
100
AcDbLayerTableRecord
  2
S-OPISY
 70
0
 62
2
  6
Continuous
370
25
390
13
347
21
1001
AcAecLayerStandard
1000

1000
Instalacje sanitarne — opisy
  0
LAYER
  5
6E
330
1
100
AcDbSymbolTableRecord
100
AcDbLayerTableRecord
  2
E-GNIAZDA
 70
0
 62
1
420
12582912
  6
Continuous
370
35
390
13
347
21
1001
AcAecLayerStandard
1000

1000
Gniazda wtyczkowe (PN-EN 60617)
  0
LAYER
  5
6F
330
1
100
AcDbSymbolTableRecord
100
AcDbLayerTableRecord
  2
E-OSWIETLENIE
 70
0
 62
30
420
13656064
  6
Continuous
370
35
390
13
347
21
1001
AcAecLayerStandard
1000

1000
Oprawy oświetleniowe
  0
LAYER
  5
70
330
1
100
AcDbSymbolTableRecord
100
AcDbLayerTableRecord
  2
E-LACZNIKI
 70
0
 62
30
420
13656064
  6
Continuous
370
35
390
13
347
21
1001
AcAecLayerStandard
1000

1000
Łączniki, czujniki
  0
LAYER
  5
71
330
1
100
AcDbSymbolTableRecord
100
AcDbLayerTableRecord
  2
E-TRASY
 70
0
 62
8
420
6316128
  6
Continuous
370
25
390
13
347
21
1001
AcAecLayerStandard
1000

1000
Trasy przewodów
  0
LAYER
  5
72
330
1
100
AcDbSymbolTableRecord
100
AcDbLayerTableRecord
  2
E-ROZDZIELNICE
 70
0
 62
1
420
12582912
  6
Continuous
370
35
390
13
347
21
1001
AcAecLayerStandard
1000

1000
Rozdzielnice, złącza, puszki
  0
LAYER
  5
73
330
1
100
AcDbSymbolTableRecord
100
AcDbLayerTableRecord
  2
E-TELETECH
 70
0
 62
5
420
20680
  6
Continuous
370
35
390
13
347
21
1001
AcAecLayerStandard
1000

1000
Instalacje teletechniczne (LAN, TV, domofon)
  0
LAYER
  5
74
330
1
100
AcDbSymbolTableRecord
100
AcDbLayerTableRecord
  2
E-ODGROM
 70
0
 62
3
420
35328
  6
Continuous
370
35
390
13
347
21
1001
AcAecLayerStandard
1000

1000
Uziemienia, połączenia wyrównawcze, ochrona odgromowa
  0
LAYER
  5
75
330
1
100
AcDbSymbolTableRecord
100
AcDbLayerTableRecord
  2
E-OPISY
 70
0
 62
2
  6
Continuous
370
25
390
13
347
21
1001
AcAecLayerStandard
1000

1000
Instalacje elektryczne — opisy
  0
LAYER
  5
76
330
1
100
AcDbSymbolTableRecord
100
AcDbLayerTableRecord
  2
Z-GRANICE
 70
0
 62
1
  6
DWUPUNKTOWA
370
50
390
13
347
21
1001
AcAecLayerStandard
1000

1000
Granice działki, punkty graniczne
  0
LAYER
  5
77
330
1
100
AcDbSymbolTableRecord
100
AcDbLayerTableRecord
  2
Z-ZABUDOWA
 70
0
 62
7
  6
Continuous
370
50
390
13
347
21
1001
AcAecLayerStandard
1000

1000
Budynki projektowane i istniejące
  0
LAYER
  5
78
330
1
100
AcDbSymbolTableRecord
100
AcDbLayerTableRecord
  2
Z-LINIE-ZABUDOWY
 70
0
 62
1
420
12582912
  6
PUNKTOWA
370
35
390
13
347
21
1001
AcAecLayerStandard
1000

1000
Linie zabudowy (MPZP)
  0
LAYER
  5
79
330
1
100
AcDbSymbolTableRecord
100
AcDbLayerTableRecord
  2
Z-UTWARDZENIA
 70
0
 62
8
  6
Continuous
370
25
390
13
347
21
1001
AcAecLayerStandard
1000

1000
Nawierzchnie utwardzone
  0
LAYER
  5
7A
330
1
100
AcDbSymbolTableRecord
100
AcDbLayerTableRecord
  2
Z-ZIELEN
 70
0
 62
3
420
1997342
  6
Continuous
370
25
390
13
347
21
1001
AcAecLayerStandard
1000

1000
Zieleń: drzewa, krzewy, trawniki
  0
LAYER
  5
7B
330
1
100
AcDbSymbolTableRecord
100
AcDbLayerTableRecord
  2
Z-UZBROJENIE
 70
0
 62
5
  6
Continuous
370
35
390
13
347
21
1001
AcAecLayerStandard
1000

1000
Uzbrojenie terenu, sieci i przyłącza
  0
LAYER
  5
7C
330
1
100
AcDbSymbolTableRecord
100
AcDbLayerTableRecord
  2
Z-WARSTWICE
 70
0
 62
32
420
9067050
  6
Continuous
370
18
390
13
347
21
1001
AcAecLayerStandard
1000

1000
Warstwice i punkty wysokościowe
  0
LAYER
  5
7D
330
1
100
AcDbSymbolTableRecord
100
AcDbLayerTableRecord
  2
Z-OGRODZENIE
 70
0
 62
7
  6
Continuous
370
35
390
13
347
21
1001
AcAecLayerStandard
1000

1000
Ogrodzenie, bramy, furtki
  0
LAYER
  5
7E
330
1
100
AcDbSymbolTableRecord
100
AcDbLayerTableRecord
  2
Z-OPISY
 70
0
 62
2
  6
Continuous
370
25
390
13
347
21
1001
AcAecLayerStandard
1000

1000
Opisy zagospodarowania
  0
ENDTAB
  0
TABLE
  2
STYLE
  5
5
330
0
100
AcDbSymbolTable
 70
5
  0
STYLE
  5
29
330
5
100
AcDbSymbolTableRecord
100
AcDbTextStyleTableRecord
  2
Standard
 70
0
 40
0.0
 41
1.0
 50
0.0
 71
0
 42
2.5
  3
txt
  4

  0
STYLE
  5
3A
330
5
100
AcDbSymbolTableRecord
100
AcDbTextStyleTableRecord
  2
PL_ARIAL
 70
0
 40
0.0
 41
1.0
 50
0.0
 71
0
 42
2.5
  3
arial.ttf
  4

  0
STYLE
  5
3B
330
5
100
AcDbSymbolTableRecord
100
AcDbTextStyleTableRecord
  2
PL_ARIAL_B
 70
0
 40
0.0
 41
1.0
 50
0.0
 71
0
 42
2.5
  3
arialbd.ttf
  4

  0
STYLE
  5
3C
330
5
100
AcDbSymbolTableRecord
100
AcDbTextStyleTableRecord
  2
PL_ARIAL_I
 70
0
 40
0.0
 41
1.0
 50
0.0
 71
0
 42
2.5
  3
ariali.ttf
  4

  0
STYLE
  5
3D
330
5
100
AcDbSymbolTableRecord
100
AcDbTextStyleTableRecord
  2
PL_ARIAL_BI
 70
0
 40
0.0
 41
1.0
 50
0.0
 71
0
 42
2.5
  3
arialbi.ttf
  4

  0
ENDTAB
  0
TABLE
  2
VIEW
  5
7
330
0
100
AcDbSymbolTable
 70
0
  0
ENDTAB
  0
TABLE
  2
UCS
  5
6
330
0
100
AcDbSymbolTable
 70
0
  0
ENDTAB
  0
TABLE
  2
APPID
  5
3
330
0
100
AcDbSymbolTable
 70
4
  0
APPID
  5
2A
330
3
100
AcDbSymbolTableRecord
100
AcDbRegAppTableRecord
  2
ACAD
 70
0
  0
APPID
  5
3F
330
3
100
AcDbSymbolTableRecord
100
AcDbRegAppTableRecord
  2
AcAecLayerStandard
 70
0
  0
APPID
  5
2F2
330
3
100
AcDbSymbolTableRecord
100
AcDbRegAppTableRecord
  2
HATCHBACKGROUNDCOLOR
 70
0
  0
APPID
  5
2F3
330
3
100
AcDbSymbolTableRecord
100
AcDbRegAppTableRecord
  2
EZDXF
 70
0
  0
ENDTAB
  0
TABLE
  2
DIMSTYLE
  5
4
330
0
100
AcDbSymbolTable
 70
1
100
AcDbDimStyleTable
  0
DIMSTYLE
105
2B
330
4
100
AcDbSymbolTableRecord
100
AcDbDimStyleTableRecord
  2
Standard
 70
0
 40
1.0
 41
2.5
 42
0.625
 43
3.75
 44
1.25
 45
0.0
 46
0.0
 47
0.0
 48
0.0
 49
2.5
140
2.5
141
2.5
142
0.0
143
0.03937007874
144
1.0
145
0.0
146
1.0
147
0.625
148
0.0
 69
0
 70
0
 71
0
 72
0
 73
0
 74
0
 75
0
 76
0
 77
1
 78
8
 79
3
170
0
171
3
172
1
173
0
174
0
175
0
176
0
177
0
178
0
179
2
271
2
272
2
273
2
274
3
275
0
276
0
277
2
278
44
279
0
280
0
281
0
282
0
283
0
284
8
285
0
286
0
288
0
289
3
290
0
371
-2
372
-2
  0
ENDTAB
  0
TABLE
  2
BLOCK_RECORD
  5
9
330
0
100
AcDbSymbolTable
 70
2
  0
BLOCK_RECORD
  5
17
330
9
100
AcDbSymbolTableRecord
100
AcDbBlockTableRecord
  2
*Model_Space
340
1A
 70
0
280
1
281
0
  0
BLOCK_RECORD
  5
1B
330
9
100
AcDbSymbolTableRecord
100
AcDbBlockTableRecord
  2
*Paper_Space
340
1E
 70
0
280
1
281
0
  0
ENDTAB
  0
ENDSEC
  0
SECTION
  2
BLOCKS
  0
BLOCK
  5
18
330
17
100
AcDbEntity
  8
0
100
AcDbBlockBegin
  2
*Model_Space
 70
0
 10
0.0
 20
0.0
 30
0.0
  3
*Model_Space
  1

  0
ENDBLK
  5
19
330
17
100
AcDbEntity
  8
0
100
AcDbBlockEnd
  0
BLOCK
  5
1C
330
1B
100
AcDbEntity
  8
0
100
AcDbBlockBegin
  2
*Paper_Space
 70
0
 10
0.0
 20
0.0
 30
0.0
  3
*Paper_Space
  1

  0
ENDBLK
  5
1D
330
1B
100
AcDbEntity
  8
0
100
AcDbBlockEnd
  0
ENDSEC
  0
SECTION
  2
ENTITIES
  0
LWPOLYLINE
  5
17A
330
17
100
AcDbEntity
  8
A-OSIE
  6
PUNKTOWA
370
35
 48
0.050486467968482364
100
AcDbPolyline
 90
2
 70
128
 10
0.0
 20
-4.8500000000000005
 10
0.0
 20
9.887
  0
LWPOLYLINE
  5
17B
330
17
100
AcDbEntity
  8
A-OSIE
  6
PUNKTOWA
370
35
 48
0.050486467968482364
100
AcDbPolyline
 90
2
 70
128
 10
4.2
 20
-4.8500000000000005
 10
4.2
 20
9.887
  0
LWPOLYLINE
  5
17C
330
17
100
AcDbEntity
  8
A-OSIE
  6
PUNKTOWA
370
35
 48
0.050486467968482364
100
AcDbPolyline
 90
2
 70
128
 10
7.0
 20
-4.8500000000000005
 10
7.0
 20
9.887
  0
LWPOLYLINE
  5
17D
330
17
100
AcDbEntity
  8
A-OSIE
  6
PUNKTOWA
370
35
 48
0.050486467968482364
100
AcDbPolyline
 90
2
 70
128
 10
10.0
 20
-4.8500000000000005
 10
10.0
 20
9.887
  0
LWPOLYLINE
  5
17E
330
17
100
AcDbEntity
  8
A-OSIE
  6
PUNKTOWA
370
35
 48
0.04961382113821139
100
AcDbPolyline
 90
2
 70
128
 10
-1.537
 20
0.0
 10
15.55
 20
0.0
  0
LWPOLYLINE
  5
17F
330
17
100
AcDbEntity
  8
A-OSIE
  6
PUNKTOWA
370
35
 48
0.04961382113821139
100
AcDbPolyline
 90
2
 70
128
 10
-1.537
 20
3.2
 10
15.55
 20
3.2
  0
LWPOLYLINE
  5
180
330
17
100
AcDbEntity
  8
A-OSIE
  6
PUNKTOWA
370
35
 48
0.04961382113821139
100
AcDbPolyline
 90
2
 70
128
 10
-1.537
 20
4.5
 10
15.55
 20
4.5
  0
LWPOLYLINE
  5
181
330
17
100
AcDbEntity
  8
A-OSIE
  6
PUNKTOWA
370
35
 48
0.04961382113821139
100
AcDbPolyline
 90
2
 70
128
 10
-1.537
 20
8.0
 10
15.55
 20
8.0
  0
HATCH
  5
182
330
17
100
AcDbEntity
  8
A-OSIE
 62
7
420
16777215
100
AcDbHatch
 10
0.0
 20
0.0
 30
0.0
210
0.0
220
0.0
230
1.0
  2
SOLID
 70
1
 71
0
 91
1
 92
3
 72
0
 73
1
 93
48
 10
0.25
 20
-5.1000000000000005
 10
0.2478612153434526
 20
-5.067368451944987
 10
0.24148145657226708
 20
-5.035295238724371
 10
0.23096988312782168
 20
-5.004329141908728
 10
0.21650635094610968
 20
-4.9750000000000005
 10
0.19833833507280882
 20
-4.947809642747821
 10
0.1767766952966369
 20
-4.923223304703364
 10
0.15219035725218016
 20
-4.901661664927191
 10
0.12500000000000003
 20
-4.883493649053891
 10
0.09567085809127246
 20
-4.869030116872179
 10
0.06470476127563024
 20
-4.858518543427733
 10
0.03263154805501293
 20
-4.852138784656548
 10
1.5308084989341915e-17
 20
-4.8500000000000005
 10
-0.032631548055012845
 20
-4.852138784656548
 10
-0.06470476127563016
 20
-4.858518543427733
 10
-0.09567085809127238
 20
-4.869030116872179
 10
-0.12499999999999994
 20
-4.883493649053891
 10
-0.15219035725218008
 20
-4.901661664927191
 10
-0.17677669529663687
 20
-4.923223304703364
 10
-0.19833833507280876
 20
-4.947809642747821
 10
-0.21650635094610962
 20
-4.9750000000000005
 10
-0.23096988312782168
 20
-5.004329141908728
 10
-0.24148145657226705
 20
-5.035295238724371
 10
-0.2478612153434526
 20
-5.067368451944987
 10
-0.25
 20
-5.1000000000000005
 10
-0.24786121534345262
 20
-5.132631548055014
 10
-0.2414814565722671
 20
-5.1647047612756305
 10
-0.23096988312782174
 20
-5.1956708580912725
 10
-0.2165063509461097
 20
-5.2250000000000005
 10
-0.19833833507280885
 20
-5.25219035725218
 10
-0.17677669529663698
 20
-5.276776695296637
 10
-0.15219035725218022
 20
-5.29833833507281
 10
-0.1250000000000001
 20
-5.31650635094611
 10
-0.09567085809127258
 20
-5.330969883127822
 10
-0.06470476127563038
 20
-5.341481456572268
 10
-0.03263154805501312
 20
-5.347861215343453
 10
-4.592425496802574e-17
 20
-5.3500000000000005
 10
0.03263154805501282
 20
-5.347861215343453
 10
0.06470476127563007
 20
-5.341481456572268
 10
0.09567085809127229
 20
-5.330969883127822
 10
0.12499999999999983
 20
-5.31650635094611
 10
0.15219035725217997
 20
-5.29833833507281
 10
0.17677669529663684
 20
-5.276776695296637
 10
0.19833833507280874
 20
-5.25219035725218
 10
0.2165063509461096
 20
-5.2250000000000005
 10
0.23096988312782163
 20
-5.195670858091273
 10
0.24148145657226702
 20
-5.1647047612756305
 10
0.24786121534345257
 20
-5.132631548055014
 97
0
 75
0
 76
1
 98
0
  0
HATCH
  5
183
330
17
100
AcDbEntity
  8
A-OSIE
 62
7
420
16777215
100
AcDbHatch
 10
0.0
 20
0.0
 30
0.0
210
0.0
220
0.0
230
1.0
  2
SOLID
 70
1
 71
0
 91
1
 92
3
 72
0
 73
1
 93
48
 10
0.25
 20
10.137
 10
0.2478612153434526
 20
10.169631548055014
 10
0.24148145657226708
 20
10.20170476127563
 10
0.23096988312782168
 20
10.232670858091273
 10
0.21650635094610968
 20
10.262
 10
0.19833833507280882
 20
10.289190357252181
 10
0.1767766952966369
 20
10.313776695296637
 10
0.15219035725218016
 20
10.335338335072809
 10
0.12500000000000003
 20
10.35350635094611
 10
0.09567085809127246
 20
10.367969883127822
 10
0.06470476127563024
 20
10.378481456572267
 10
0.03263154805501293
 20
10.384861215343452
 10
1.5308084989341915e-17
 20
10.387
 10
-0.032631548055012845
 20
10.384861215343452
 10
-0.06470476127563016
 20
10.378481456572267
 10
-0.09567085809127238
 20
10.367969883127822
 10
-0.12499999999999994
 20
10.35350635094611
 10
-0.15219035725218008
 20
10.335338335072809
 10
-0.17677669529663687
 20
10.313776695296637
 10
-0.19833833507280876
 20
10.289190357252181
 10
-0.21650635094610962
 20
10.262
 10
-0.23096988312782168
 20
10.232670858091273
 10
-0.24148145657226705
 20
10.20170476127563
 10
-0.2478612153434526
 20
10.169631548055014
 10
-0.25
 20
10.137
 10
-0.24786121534345262
 20
10.104368451944987
 10
-0.2414814565722671
 20
10.07229523872437
 10
-0.23096988312782174
 20
10.041329141908728
 10
-0.2165063509461097
 20
10.012
 10
-0.19833833507280885
 20
9.98480964274782
 10
-0.17677669529663698
 20
9.960223304703364
 10
-0.15219035725218022
 20
9.938661664927192
 10
-0.1250000000000001
 20
9.92049364905389
 10
-0.09567085809127258
 20
9.906030116872179
 10
-0.06470476127563038
 20
9.895518543427734
 10
-0.03263154805501312
 20
9.889138784656549
 10
-4.592425496802574e-17
 20
9.887
 10
0.03263154805501282
 20
9.889138784656549
 10
0.06470476127563007
 20
9.895518543427734
 10
0.09567085809127229
 20
9.906030116872179
 10
0.12499999999999983
 20
9.92049364905389
 10
0.15219035725217997
 20
9.938661664927192
 10
0.17677669529663684
 20
9.960223304703364
 10
0.19833833507280874
 20
9.98480964274782
 10
0.2165063509461096
 20
10.012
 10
0.23096988312782163
 20
10.041329141908728
 10
0.24148145657226702
 20
10.07229523872437
 10
0.24786121534345257
 20
10.104368451944987
 97
0
 75
0
 76
1
 98
0
  0
HATCH
  5
184
330
17
100
AcDbEntity
  8
A-OSIE
 62
7
420
16777215
100
AcDbHatch
 10
0.0
 20
0.0
 30
0.0
210
0.0
220
0.0
230
1.0
  2
SOLID
 70
1
 71
0
 91
1
 92
3
 72
0
 73
1
 93
48
 10
4.45
 20
-5.1000000000000005
 10
4.447861215343453
 20
-5.067368451944987
 10
4.441481456572268
 20
-5.035295238724371
 10
4.430969883127822
 20
-5.004329141908728
 10
4.4165063509461095
 20
-4.9750000000000005
 10
4.398338335072809
 20
-4.947809642747821
 10
4.376776695296637
 20
-4.923223304703364
 10
4.35219035725218
 20
-4.901661664927191
 10
4.325
 20
-4.883493649053891
 10
4.295670858091273
 20
-4.869030116872179
 10
4.26470476127563
 20
-4.858518543427733
 10
4.232631548055013
 20
-4.852138784656548
 10
4.2
 20
-4.8500000000000005
 10
4.167368451944987
 20
-4.852138784656548
 10
4.13529523872437
 20
-4.858518543427733
 10
4.104329141908728
 20
-4.869030116872179
 10
4.075
 20
-4.883493649053891
 10
4.04780964274782
 20
-4.901661664927191
 10
4.023223304703364
 20
-4.923223304703364
 10
4.001661664927191
 20
-4.947809642747821
 10
3.9834936490538904
 20
-4.9750000000000005
 10
3.9690301168721787
 20
-5.004329141908728
 10
3.9585185434277332
 20
-5.035295238724371
 10
3.9521387846565474
 20
-5.067368451944987
 10
3.95
 20
-5.1000000000000005
 10
3.9521387846565474
 20
-5.132631548055014
 10
3.9585185434277332
 20
-5.1647047612756305
 10
3.9690301168721787
 20
-5.1956708580912725
 10
3.9834936490538904
 20
-5.2250000000000005
 10
4.001661664927191
 20
-5.25219035725218
 10
4.023223304703363
 20
-5.276776695296637
 10
4.04780964274782
 20
-5.29833833507281
 10
4.075
 20
-5.31650635094611
 10
4.104329141908727
 20
-5.330969883127822
 10
4.13529523872437
 20
-5.341481456572268
 10
4.167368451944987
 20
-5.347861215343453
 10
4.2
 20
-5.3500000000000005
 10
4.232631548055013
 20
-5.347861215343453
 10
4.26470476127563
 20
-5.341481456572268
 10
4.295670858091272
 20
-5.330969883127822
 10
4.325
 20
-5.31650635094611
 10
4.35219035725218
 20
-5.29833833507281
 10
4.376776695296637
 20
-5.276776695296637
 10
4.398338335072809
 20
-5.25219035725218
 10
4.4165063509461095
 20
-5.2250000000000005
 10
4.430969883127822
 20
-5.195670858091273
 10
4.441481456572268
 20
-5.1647047612756305
 10
4.447861215343453
 20
-5.132631548055014
 97
0
 75
0
 76
1
 98
0
  0
HATCH
  5
185
330
17
100
AcDbEntity
  8
A-OSIE
 62
7
420
16777215
100
AcDbHatch
 10
0.0
 20
0.0
 30
0.0
210
0.0
220
0.0
230
1.0
  2
SOLID
 70
1
 71
0
 91
1
 92
3
 72
0
 73
1
 93
48
 10
4.45
 20
10.137
 10
4.447861215343453
 20
10.169631548055014
 10
4.441481456572268
 20
10.20170476127563
 10
4.430969883127822
 20
10.232670858091273
 10
4.4165063509461095
 20
10.262
 10
4.398338335072809
 20
10.289190357252181
 10
4.376776695296637
 20
10.313776695296637
 10
4.35219035725218
 20
10.335338335072809
 10
4.325
 20
10.35350635094611
 10
4.295670858091273
 20
10.367969883127822
 10
4.26470476127563
 20
10.378481456572267
 10
4.232631548055013
 20
10.384861215343452
 10
4.2
 20
10.387
 10
4.167368451944987
 20
10.384861215343452
 10
4.13529523872437
 20
10.378481456572267
 10
4.104329141908728
 20
10.367969883127822
 10
4.075
 20
10.35350635094611
 10
4.04780964274782
 20
10.335338335072809
 10
4.023223304703364
 20
10.313776695296637
 10
4.001661664927191
 20
10.289190357252181
 10
3.9834936490538904
 20
10.262
 10
3.9690301168721787
 20
10.232670858091273
 10
3.9585185434277332
 20
10.20170476127563
 10
3.9521387846565474
 20
10.169631548055014
 10
3.95
 20
10.137
 10
3.9521387846565474
 20
10.104368451944987
 10
3.9585185434277332
 20
10.07229523872437
 10
3.9690301168721787
 20
10.041329141908728
 10
3.9834936490538904
 20
10.012
 10
4.001661664927191
 20
9.98480964274782
 10
4.023223304703363
 20
9.960223304703364
 10
4.04780964274782
 20
9.938661664927192
 10
4.075
 20
9.92049364905389
 10
4.104329141908727
 20
9.906030116872179
 10
4.13529523872437
 20
9.895518543427734
 10
4.167368451944987
 20
9.889138784656549
 10
4.2
 20
9.887
 10
4.232631548055013
 20
9.889138784656549
 10
4.26470476127563
 20
9.895518543427734
 10
4.295670858091272
 20
9.906030116872179
 10
4.325
 20
9.92049364905389
 10
4.35219035725218
 20
9.938661664927192
 10
4.376776695296637
 20
9.960223304703364
 10
4.398338335072809
 20
9.98480964274782
 10
4.4165063509461095
 20
10.012
 10
4.430969883127822
 20
10.041329141908728
 10
4.441481456572268
 20
10.07229523872437
 10
4.447861215343453
 20
10.104368451944987
 97
0
 75
0
 76
1
 98
0
  0
HATCH
  5
186
330
17
100
AcDbEntity
  8
A-OSIE
 62
7
420
16777215
100
AcDbHatch
 10
0.0
 20
0.0
 30
0.0
210
0.0
220
0.0
230
1.0
  2
SOLID
 70
1
 71
0
 91
1
 92
3
 72
0
 73
1
 93
48
 10
7.25
 20
-5.1000000000000005
 10
7.247861215343453
 20
-5.067368451944987
 10
7.241481456572267
 20
-5.035295238724371
 10
7.2309698831278215
 20
-5.004329141908728
 10
7.216506350946109
 20
-4.9750000000000005
 10
7.198338335072809
 20
-4.947809642747821
 10
7.1767766952966365
 20
-4.923223304703364
 10
7.15219035725218
 20
-4.901661664927191
 10
7.125
 20
-4.883493649053891
 10
7.095670858091273
 20
-4.869030116872179
 10
7.06470476127563
 20
-4.858518543427733
 10
7.032631548055013
 20
-4.852138784656548
 10
7.0
 20
-4.8500000000000005
 10
6.967368451944987
 20
-4.852138784656548
 10
6.93529523872437
 20
-4.858518543427733
 10
6.904329141908728
 20
-4.869030116872179
 10
6.875
 20
-4.883493649053891
 10
6.84780964274782
 20
-4.901661664927191
 10
6.8232233047033635
 20
-4.923223304703364
 10
6.801661664927191
 20
-4.947809642747821
 10
6.783493649053891
 20
-4.9750000000000005
 10
6.7690301168721785
 20
-5.004329141908728
 10
6.758518543427733
 20
-5.035295238724371
 10
6.752138784656547
 20
-5.067368451944987
 10
6.75
 20
-5.1000000000000005
 10
6.752138784656547
 20
-5.132631548055014
 10
6.758518543427733
 20
-5.1647047612756305
 10
6.7690301168721785
 20
-5.1956708580912725
 10
6.783493649053891
 20
-5.2250000000000005
 10
6.801661664927191
 20
-5.25219035725218
 10
6.8232233047033635
 20
-5.276776695296637
 10
6.84780964274782
 20
-5.29833833507281
 10
6.875
 20
-5.31650635094611
 10
6.904329141908727
 20
-5.330969883127822
 10
6.93529523872437
 20
-5.341481456572268
 10
6.967368451944987
 20
-5.347861215343453
 10
7.0
 20
-5.3500000000000005
 10
7.032631548055013
 20
-5.347861215343453
 10
7.06470476127563
 20
-5.341481456572268
 10
7.095670858091272
 20
-5.330969883127822
 10
7.125
 20
-5.31650635094611
 10
7.15219035725218
 20
-5.29833833507281
 10
7.1767766952966365
 20
-5.276776695296637
 10
7.198338335072808
 20
-5.25219035725218
 10
7.216506350946109
 20
-5.2250000000000005
 10
7.2309698831278215
 20
-5.195670858091273
 10
7.241481456572267
 20
-5.1647047612756305
 10
7.247861215343453
 20
-5.132631548055014
 97
0
 75
0
 76
1
 98
0
  0
HATCH
  5
187
330
17
100
AcDbEntity
  8
A-OSIE
 62
7
420
16777215
100
AcDbHatch
 10
0.0
 20
0.0
 30
0.0
210
0.0
220
0.0
230
1.0
  2
SOLID
 70
1
 71
0
 91
1
 92
3
 72
0
 73
1
 93
48
 10
7.25
 20
10.137
 10
7.247861215343453
 20
10.169631548055014
 10
7.241481456572267
 20
10.20170476127563
 10
7.2309698831278215
 20
10.232670858091273
 10
7.216506350946109
 20
10.262
 10
7.198338335072809
 20
10.289190357252181
 10
7.1767766952966365
 20
10.313776695296637
 10
7.15219035725218
 20
10.335338335072809
 10
7.125
 20
10.35350635094611
 10
7.095670858091273
 20
10.367969883127822
 10
7.06470476127563
 20
10.378481456572267
 10
7.032631548055013
 20
10.384861215343452
 10
7.0
 20
10.387
 10
6.967368451944987
 20
10.384861215343452
 10
6.93529523872437
 20
10.378481456572267
 10
6.904329141908728
 20
10.367969883127822
 10
6.875
 20
10.35350635094611
 10
6.84780964274782
 20
10.335338335072809
 10
6.8232233047033635
 20
10.313776695296637
 10
6.801661664927191
 20
10.289190357252181
 10
6.783493649053891
 20
10.262
 10
6.7690301168721785
 20
10.232670858091273
 10
6.758518543427733
 20
10.20170476127563
 10
6.752138784656547
 20
10.169631548055014
 10
6.75
 20
10.137
 10
6.752138784656547
 20
10.104368451944987
 10
6.758518543427733
 20
10.07229523872437
 10
6.7690301168721785
 20
10.041329141908728
 10
6.783493649053891
 20
10.012
 10
6.801661664927191
 20
9.98480964274782
 10
6.8232233047033635
 20
9.960223304703364
 10
6.84780964274782
 20
9.938661664927192
 10
6.875
 20
9.92049364905389
 10
6.904329141908727
 20
9.906030116872179
 10
6.93529523872437
 20
9.895518543427734
 10
6.967368451944987
 20
9.889138784656549
 10
7.0
 20
9.887
 10
7.032631548055013
 20
9.889138784656549
 10
7.06470476127563
 20
9.895518543427734
 10
7.095670858091272
 20
9.906030116872179
 10
7.125
 20
9.92049364905389
 10
7.15219035725218
 20
9.938661664927192
 10
7.1767766952966365
 20
9.960223304703364
 10
7.198338335072808
 20
9.98480964274782
 10
7.216506350946109
 20
10.012
 10
7.2309698831278215
 20
10.041329141908728
 10
7.241481456572267
 20
10.07229523872437
 10
7.247861215343453
 20
10.104368451944987
 97
0
 75
0
 76
1
 98
0
  0
HATCH
  5
188
330
17
100
AcDbEntity
  8
A-OSIE
 62
7
420
16777215
100
AcDbHatch
 10
0.0
 20
0.0
 30
0.0
210
0.0
220
0.0
230
1.0
  2
SOLID
 70
1
 71
0
 91
1
 92
3
 72
0
 73
1
 93
48
 10
10.25
 20
-5.1000000000000005
 10
10.247861215343452
 20
-5.067368451944987
 10
10.241481456572266
 20
-5.035295238724371
 10
10.230969883127822
 20
-5.004329141908728
 10
10.21650635094611
 20
-4.9750000000000005
 10
10.198338335072808
 20
-4.947809642747821
 10
10.176776695296637
 20
-4.923223304703364
 10
10.15219035725218
 20
-4.901661664927191
 10
10.125
 20
-4.883493649053891
 10
10.095670858091273
 20
-4.869030116872179
 10
10.06470476127563
 20
-4.858518543427733
 10
10.032631548055013
 20
-4.852138784656548
 10
10.0
 20
-4.8500000000000005
 10
9.967368451944987
 20
-4.852138784656548
 10
9.93529523872437
 20
-4.858518543427733
 10
9.904329141908727
 20
-4.869030116872179
 10
9.875
 20
-4.883493649053891
 10
9.84780964274782
 20
-4.901661664927191
 10
9.823223304703363
 20
-4.923223304703364
 10
9.801661664927192
 20
-4.947809642747821
 10
9.78349364905389
 20
-4.9750000000000005
 10
9.769030116872178
 20
-5.004329141908728
 10
9.758518543427734
 20
-5.035295238724371
 10
9.752138784656548
 20
-5.067368451944987
 10
9.75
 20
-5.1000000000000005
 10
9.752138784656548
 20
-5.132631548055014
 10
9.758518543427734
 20
-5.1647047612756305
 10
9.769030116872178
 20
-5.1956708580912725
 10
9.78349364905389
 20
-5.2250000000000005
 10
9.801661664927192
 20
-5.25219035725218
 10
9.823223304703363
 20
-5.276776695296637
 10
9.84780964274782
 20
-5.29833833507281
 10
9.875
 20
-5.31650635094611
 10
9.904329141908727
 20
-5.330969883127822
 10
9.93529523872437
 20
-5.341481456572268
 10
9.967368451944987
 20
-5.347861215343453
 10
10.0
 20
-5.3500000000000005
 10
10.032631548055013
 20
-5.347861215343453
 10
10.06470476127563
 20
-5.341481456572268
 10
10.095670858091273
 20
-5.330969883127822
 10
10.125
 20
-5.31650635094611
 10
10.15219035725218
 20
-5.29833833507281
 10
10.176776695296637
 20
-5.276776695296637
 10
10.198338335072808
 20
-5.25219035725218
 10
10.21650635094611
 20
-5.2250000000000005
 10
10.230969883127822
 20
-5.195670858091273
 10
10.241481456572266
 20
-5.1647047612756305
 10
10.247861215343452
 20
-5.132631548055014
 97
0
 75
0
 76
1
 98
0
  0
HATCH
  5
189
330
17
100
AcDbEntity
  8
A-OSIE
 62
7
420
16777215
100
AcDbHatch
 10
0.0
 20
0.0
 30
0.0
210
0.0
220
0.0
230
1.0
  2
SOLID
 70
1
 71
0
 91
1
 92
3
 72
0
 73
1
 93
48
 10
10.25
 20
10.137
 10
10.247861215343452
 20
10.169631548055014
 10
10.241481456572266
 20
10.20170476127563
 10
10.230969883127822
 20
10.232670858091273
 10
10.21650635094611
 20
10.262
 10
10.198338335072808
 20
10.289190357252181
 10
10.176776695296637
 20
10.313776695296637
 10
10.15219035725218
 20
10.335338335072809
 10
10.125
 20
10.35350635094611
 10
10.095670858091273
 20
10.367969883127822
 10
10.06470476127563
 20
10.378481456572267
 10
10.032631548055013
 20
10.384861215343452
 10
10.0
 20
10.387
 10
9.967368451944987
 20
10.384861215343452
 10
9.93529523872437
 20
10.378481456572267
 10
9.904329141908727
 20
10.367969883127822
 10
9.875
 20
10.35350635094611
 10
9.84780964274782
 20
10.335338335072809
 10
9.823223304703363
 20
10.313776695296637
 10
9.801661664927192
 20
10.289190357252181
 10
9.78349364905389
 20
10.262
 10
9.769030116872178
 20
10.232670858091273
 10
9.758518543427734
 20
10.20170476127563
 10
9.752138784656548
 20
10.169631548055014
 10
9.75
 20
10.137
 10
9.752138784656548
 20
10.104368451944987
 10
9.758518543427734
 20
10.07229523872437
 10
9.769030116872178
 20
10.041329141908728
 10
9.78349364905389
 20
10.012
 10
9.801661664927192
 20
9.98480964274782
 10
9.823223304703363
 20
9.960223304703364
 10
9.84780964274782
 20
9.938661664927192
 10
9.875
 20
9.92049364905389
 10
9.904329141908727
 20
9.906030116872179
 10
9.93529523872437
 20
9.895518543427734
 10
9.967368451944987
 20
9.889138784656549
 10
10.0
 20
9.887
 10
10.032631548055013
 20
9.889138784656549
 10
10.06470476127563
 20
9.895518543427734
 10
10.095670858091273
 20
9.906030116872179
 10
10.125
 20
9.92049364905389
 10
10.15219035725218
 20
9.938661664927192
 10
10.176776695296637
 20
9.960223304703364
 10
10.198338335072808
 20
9.98480964274782
 10
10.21650635094611
 20
10.012
 10
10.230969883127822
 20
10.041329141908728
 10
10.241481456572266
 20
10.07229523872437
 10
10.247861215343452
 20
10.104368451944987
 97
0
 75
0
 76
1
 98
0
  0
HATCH
  5
18A
330
17
100
AcDbEntity
  8
A-OSIE
 62
7
420
16777215
100
AcDbHatch
 10
0.0
 20
0.0
 30
0.0
210
0.0
220
0.0
230
1.0
  2
SOLID
 70
1
 71
0
 91
1
 92
3
 72
0
 73
1
 93
48
 10
-1.537
 20
0.0
 10
-1.5391387846565474
 20
0.03263154805501289
 10
-1.5455185434277328
 20
0.06470476127563018
 10
-1.5560301168721782
 20
0.09567085809127245
 10
-1.5704936490538903
 20
0.12499999999999999
 10
-1.5886616649271912
 20
0.15219035725218014
 10
-1.610223304703363
 20
0.17677669529663687
 10
-1.6348096427478198
 20
0.1983383350728088
 10
-1.662
 20
0.21650635094610965
 10
-1.6913291419087275
 20
0.23096988312782168
 10
-1.7222952387243697
 20
0.24148145657226705
 10
-1.754368451944987
 20
0.2478612153434526
 10
-1.787
 20
0.25
 10
-1.8196315480550127
 20
0.24786121534345262
 10
-1.85170476127563
 20
0.24148145657226708
 10
-1.8826708580912723
 20
0.2309698831278217
 10
-1.912
 20
0.21650635094610968
 10
-1.93919035725218
 20
0.19833833507280885
 10
-1.963776695296637
 20
0.1767766952966369
 10
-1.9853383350728087
 20
0.15219035725218022
 10
-2.0035063509461097
 20
0.12500000000000008
 10
-2.0179698831278214
 20
0.09567085809127247
 10
-2.028481456572267
 20
0.06470476127563025
 10
-2.0348612153434527
 20
0.032631548055013
 10
-2.037
 20
3.061616997868383e-17
 10
-2.0348612153434527
 20
-0.03263154805501283
 10
-2.028481456572267
 20
-0.06470476127563009
 10
-2.0179698831278214
 20
-0.0956708580912723
 10
-2.0035063509461097
 20
-0.12499999999999993
 10
-1.9853383350728087
 20
-0.15219035725218008
 10
-1.963776695296637
 20
-0.17677669529663678
 10
-1.9391903572521803
 20
-0.19833833507280874
 10
-1.912
 20
-0.2165063509461096
 10
-1.8826708580912725
 20
-0.23096988312782163
 10
-1.8517047612756303
 20
-0.24148145657226702
 10
-1.8196315480550131
 20
-0.24786121534345257
 10
-1.787
 20
-0.25
 10
-1.7543684519449871
 20
-0.24786121534345262
 10
-1.72229523872437
 20
-0.2414814565722671
 10
-1.6913291419087275
 20
-0.23096988312782174
 10
-1.6620000000000001
 20
-0.21650635094610976
 10
-1.63480964274782
 20
-0.19833833507280893
 10
-1.6102233047033632
 20
-0.17677669529663692
 10
-1.5886616649271912
 20
-0.15219035725218022
 10
-1.5704936490538903
 20
-0.1250000000000001
 10
-1.5560301168721784
 20
-0.0956708580912726
 10
-1.545518543427733
 20
-0.06470476127563039
 10
-1.5391387846565474
 20
-0.03263154805501314
 97
0
 75
0
 76
1
 98
0
  0
HATCH
  5
18B
330
17
100
AcDbEntity
  8
A-OSIE
 62
7
420
16777215
100
AcDbHatch
 10
0.0
 20
0.0
 30
0.0
210
0.0
220
0.0
230
1.0
  2
SOLID
 70
1
 71
0
 91
1
 92
3
 72
0
 73
1
 93
48
 10
16.05
 20
0.0
 10
16.047861215343453
 20
0.03263154805501289
 10
16.041481456572267
 20
0.06470476127563018
 10
16.030969883127824
 20
0.09567085809127245
 10
16.01650635094611
 20
0.12499999999999999
 10
15.998338335072809
 20
0.15219035725218014
 10
15.976776695296637
 20
0.17677669529663687
 10
15.952190357252181
 20
0.1983383350728088
 10
15.925
 20
0.21650635094610965
 10
15.895670858091274
 20
0.23096988312782168
 10
15.86470476127563
 20
0.24148145657226705
 10
15.832631548055014
 20
0.2478612153434526
 10
15.8
 20
0.25
 10
15.767368451944987
 20
0.24786121534345262
 10
15.73529523872437
 20
0.24148145657226708
 10
15.704329141908728
 20
0.2309698831278217
 10
15.675
 20
0.21650635094610968
 10
15.64780964274782
 20
0.19833833507280885
 10
15.623223304703364
 20
0.1767766952966369
 10
15.601661664927192
 20
0.15219035725218022
 10
15.58349364905389
 20
0.12500000000000008
 10
15.56903011687218
 20
0.09567085809127247
 10
15.558518543427734
 20
0.06470476127563025
 10
15.552138784656549
 20
0.032631548055013
 10
15.55
 20
3.061616997868383e-17
 10
15.552138784656549
 20
-0.03263154805501283
 10
15.558518543427734
 20
-0.06470476127563009
 10
15.56903011687218
 20
-0.0956708580912723
 10
15.58349364905389
 20
-0.12499999999999993
 10
15.601661664927192
 20
-0.15219035725218008
 10
15.623223304703364
 20
-0.17677669529663678
 10
15.64780964274782
 20
-0.19833833507280874
 10
15.675
 20
-0.2165063509461096
 10
15.704329141908728
 20
-0.23096988312782163
 10
15.73529523872437
 20
-0.24148145657226702
 10
15.767368451944987
 20
-0.24786121534345257
 10
15.8
 20
-0.25
 10
15.832631548055014
 20
-0.24786121534345262
 10
15.86470476127563
 20
-0.2414814565722671
 10
15.895670858091274
 20
-0.23096988312782174
 10
15.925
 20
-0.21650635094610976
 10
15.952190357252181
 20
-0.19833833507280893
 10
15.976776695296637
 20
-0.17677669529663692
 10
15.998338335072809
 20
-0.15219035725218022
 10
16.01650635094611
 20
-0.1250000000000001
 10
16.030969883127824
 20
-0.0956708580912726
 10
16.041481456572267
 20
-0.06470476127563039
 10
16.047861215343453
 20
-0.03263154805501314
 97
0
 75
0
 76
1
 98
0
  0
HATCH
  5
18C
330
17
100
AcDbEntity
  8
A-OSIE
 62
7
420
16777215
100
AcDbHatch
 10
0.0
 20
0.0
 30
0.0
210
0.0
220
0.0
230
1.0
  2
SOLID
 70
1
 71
0
 91
1
 92
3
 72
0
 73
1
 93
48
 10
-1.537
 20
3.2
 10
-1.5391387846565474
 20
3.232631548055013
 10
-1.5455185434277328
 20
3.26470476127563
 10
-1.5560301168721782
 20
3.2956708580912726
 10
-1.5704936490538903
 20
3.325
 10
-1.5886616649271912
 20
3.3521903572521805
 10
-1.610223304703363
 20
3.376776695296637
 10
-1.6348096427478198
 20
3.398338335072809
 10
-1.662
 20
3.41650635094611
 10
-1.6913291419087275
 20
3.4309698831278217
 10
-1.7222952387243697
 20
3.441481456572267
 10
-1.754368451944987
 20
3.447861215343453
 10
-1.787
 20
3.45
 10
-1.8196315480550127
 20
3.447861215343453
 10
-1.85170476127563
 20
3.441481456572267
 10
-1.8826708580912723
 20
3.4309698831278217
 10
-1.912
 20
3.41650635094611
 10
-1.93919035725218
 20
3.398338335072809
 10
-1.963776695296637
 20
3.376776695296637
 10
-1.9853383350728087
 20
3.3521903572521805
 10
-2.0035063509461097
 20
3.325
 10
-2.0179698831278214
 20
3.2956708580912726
 10
-2.028481456572267
 20
3.2647047612756306
 10
-2.0348612153434527
 20
3.232631548055013
 10
-2.037
 20
3.2
 10
-2.0348612153434527
 20
3.1673684519449874
 10
-2.028481456572267
 20
3.13529523872437
 10
-2.0179698831278214
 20
3.1043291419087278
 10
-2.0035063509461097
 20
3.075
 10
-1.9853383350728087
 20
3.0478096427478203
 10
-1.963776695296637
 20
3.023223304703363
 10
-1.9391903572521803
 20
3.0016616649271914
 10
-1.912
 20
2.983493649053891
 10
-1.8826708580912725
 20
2.9690301168721787
 10
-1.8517047612756303
 20
2.9585185434277332
 10
-1.8196315480550131
 20
2.9521387846565474
 10
-1.787
 20
2.95
 10
-1.7543684519449871
 20
2.9521387846565474
 10
-1.72229523872437
 20
2.9585185434277332
 10
-1.6913291419087275
 20
2.9690301168721787
 10
-1.6620000000000001
 20
2.9834936490538904
 10
-1.63480964274782
 20
3.0016616649271914
 10
-1.6102233047033632
 20
3.023223304703363
 10
-1.5886616649271912
 20
3.04780964274782
 10
-1.5704936490538903
 20
3.075
 10
-1.5560301168721784
 20
3.1043291419087278
 10
-1.545518543427733
 20
3.1352952387243698
 10
-1.5391387846565474
 20
3.167368451944987
 97
0
 75
0
 76
1
 98
0
  0
HATCH
  5
18D
330
17
100
AcDbEntity
  8
A-OSIE
 62
7
420
16777215
100
AcDbHatch
 10
0.0
 20
0.0
 30
0.0
210
0.0
220
0.0
230
1.0
  2
SOLID
 70
1
 71
0
 91
1
 92
3
 72
0
 73
1
 93
48
 10
16.05
 20
3.2
 10
16.047861215343453
 20
3.232631548055013
 10
16.041481456572267
 20
3.26470476127563
 10
16.030969883127824
 20
3.2956708580912726
 10
16.01650635094611
 20
3.325
 10
15.998338335072809
 20
3.3521903572521805
 10
15.976776695296637
 20
3.376776695296637
 10
15.952190357252181
 20
3.398338335072809
 10
15.925
 20
3.41650635094611
 10
15.895670858091274
 20
3.4309698831278217
 10
15.86470476127563
 20
3.441481456572267
 10
15.832631548055014
 20
3.447861215343453
 10
15.8
 20
3.45
 10
15.767368451944987
 20
3.447861215343453
 10
15.73529523872437
 20
3.441481456572267
 10
15.704329141908728
 20
3.4309698831278217
 10
15.675
 20
3.41650635094611
 10
15.64780964274782
 20
3.398338335072809
 10
15.623223304703364
 20
3.376776695296637
 10
15.601661664927192
 20
3.3521903572521805
 10
15.58349364905389
 20
3.325
 10
15.56903011687218
 20
3.2956708580912726
 10
15.558518543427734
 20
3.2647047612756306
 10
15.552138784656549
 20
3.232631548055013
 10
15.55
 20
3.2
 10
15.552138784656549
 20
3.1673684519449874
 10
15.558518543427734
 20
3.13529523872437
 10
15.56903011687218
 20
3.1043291419087278
 10
15.58349364905389
 20
3.075
 10
15.601661664927192
 20
3.0478096427478203
 10
15.623223304703364
 20
3.023223304703363
 10
15.64780964274782
 20
3.0016616649271914
 10
15.675
 20
2.983493649053891
 10
15.704329141908728
 20
2.9690301168721787
 10
15.73529523872437
 20
2.9585185434277332
 10
15.767368451944987
 20
2.9521387846565474
 10
15.8
 20
2.95
 10
15.832631548055014
 20
2.9521387846565474
 10
15.86470476127563
 20
2.9585185434277332
 10
15.895670858091274
 20
2.9690301168721787
 10
15.925
 20
2.9834936490538904
 10
15.952190357252181
 20
3.0016616649271914
 10
15.976776695296637
 20
3.023223304703363
 10
15.998338335072809
 20
3.04780964274782
 10
16.01650635094611
 20
3.075
 10
16.030969883127824
 20
3.1043291419087278
 10
16.041481456572267
 20
3.1352952387243698
 10
16.047861215343453
 20
3.167368451944987
 97
0
 75
0
 76
1
 98
0
  0
HATCH
  5
18E
330
17
100
AcDbEntity
  8
A-OSIE
 62
7
420
16777215
100
AcDbHatch
 10
0.0
 20
0.0
 30
0.0
210
0.0
220
0.0
230
1.0
  2
SOLID
 70
1
 71
0
 91
1
 92
3
 72
0
 73
1
 93
48
 10
-1.537
 20
4.5
 10
-1.5391387846565474
 20
4.532631548055013
 10
-1.5455185434277328
 20
4.56470476127563
 10
-1.5560301168721782
 20
4.595670858091273
 10
-1.5704936490538903
 20
4.625
 10
-1.5886616649271912
 20
4.65219035725218
 10
-1.610223304703363
 20
4.6767766952966365
 10
-1.6348096427478198
 20
4.698338335072809
 10
-1.662
 20
4.716506350946109
 10
-1.6913291419087275
 20
4.7309698831278215
 10
-1.7222952387243697
 20
4.741481456572267
 10
-1.754368451944987
 20
4.747861215343453
 10
-1.787
 20
4.75
 10
-1.8196315480550127
 20
4.747861215343453
 10
-1.85170476127563
 20
4.741481456572267
 10
-1.8826708580912723
 20
4.7309698831278215
 10
-1.912
 20
4.716506350946109
 10
-1.93919035725218
 20
4.698338335072809
 10
-1.963776695296637
 20
4.6767766952966365
 10
-1.9853383350728087
 20
4.65219035725218
 10
-2.0035063509461097
 20
4.625
 10
-2.0179698831278214
 20
4.595670858091273
 10
-2.028481456572267
 20
4.56470476127563
 10
-2.0348612153434527
 20
4.532631548055013
 10
-2.037
 20
4.5
 10
-2.0348612153434527
 20
4.467368451944987
 10
-2.028481456572267
 20
4.43529523872437
 10
-2.0179698831278214
 20
4.404329141908728
 10
-2.0035063509461097
 20
4.375
 10
-1.9853383350728087
 20
4.34780964274782
 10
-1.963776695296637
 20
4.3232233047033635
 10
-1.9391903572521803
 20
4.301661664927192
 10
-1.912
 20
4.283493649053891
 10
-1.8826708580912725
 20
4.2690301168721785
 10
-1.8517047612756303
 20
4.258518543427733
 10
-1.8196315480550131
 20
4.252138784656547
 10
-1.787
 20
4.25
 10
-1.7543684519449871
 20
4.252138784656547
 10
-1.72229523872437
 20
4.258518543427733
 10
-1.6913291419087275
 20
4.2690301168721785
 10
-1.6620000000000001
 20
4.283493649053891
 10
-1.63480964274782
 20
4.301661664927191
 10
-1.6102233047033632
 20
4.3232233047033635
 10
-1.5886616649271912
 20
4.34780964274782
 10
-1.5704936490538903
 20
4.375
 10
-1.5560301168721784
 20
4.404329141908727
 10
-1.545518543427733
 20
4.43529523872437
 10
-1.5391387846565474
 20
4.467368451944987
 97
0
 75
0
 76
1
 98
0
  0
HATCH
  5
18F
330
17
100
AcDbEntity
  8
A-OSIE
 62
7
420
16777215
100
AcDbHatch
 10
0.0
 20
0.0
 30
0.0
210
0.0
220
0.0
230
1.0
  2
SOLID
 70
1
 71
0
 91
1
 92
3
 72
0
 73
1
 93
48
 10
16.05
 20
4.5
 10
16.047861215343453
 20
4.532631548055013
 10
16.041481456572267
 20
4.56470476127563
 10
16.030969883127824
 20
4.595670858091273
 10
16.01650635094611
 20
4.625
 10
15.998338335072809
 20
4.65219035725218
 10
15.976776695296637
 20
4.6767766952966365
 10
15.952190357252181
 20
4.698338335072809
 10
15.925
 20
4.716506350946109
 10
15.895670858091274
 20
4.7309698831278215
 10
15.86470476127563
 20
4.741481456572267
 10
15.832631548055014
 20
4.747861215343453
 10
15.8
 20
4.75
 10
15.767368451944987
 20
4.747861215343453
 10
15.73529523872437
 20
4.741481456572267
 10
15.704329141908728
 20
4.7309698831278215
 10
15.675
 20
4.716506350946109
 10
15.64780964274782
 20
4.698338335072809
 10
15.623223304703364
 20
4.6767766952966365
 10
15.601661664927192
 20
4.65219035725218
 10
15.58349364905389
 20
4.625
 10
15.56903011687218
 20
4.595670858091273
 10
15.558518543427734
 20
4.56470476127563
 10
15.552138784656549
 20
4.532631548055013
 10
15.55
 20
4.5
 10
15.552138784656549
 20
4.467368451944987
 10
15.558518543427734
 20
4.43529523872437
 10
15.56903011687218
 20
4.404329141908728
 10
15.58349364905389
 20
4.375
 10
15.601661664927192
 20
4.34780964274782
 10
15.623223304703364
 20
4.3232233047033635
 10
15.64780964274782
 20
4.301661664927192
 10
15.675
 20
4.283493649053891
 10
15.704329141908728
 20
4.2690301168721785
 10
15.73529523872437
 20
4.258518543427733
 10
15.767368451944987
 20
4.252138784656547
 10
15.8
 20
4.25
 10
15.832631548055014
 20
4.252138784656547
 10
15.86470476127563
 20
4.258518543427733
 10
15.895670858091274
 20
4.2690301168721785
 10
15.925
 20
4.283493649053891
 10
15.952190357252181
 20
4.301661664927191
 10
15.976776695296637
 20
4.3232233047033635
 10
15.998338335072809
 20
4.34780964274782
 10
16.01650635094611
 20
4.375
 10
16.030969883127824
 20
4.404329141908727
 10
16.041481456572267
 20
4.43529523872437
 10
16.047861215343453
 20
4.467368451944987
 97
0
 75
0
 76
1
 98
0
  0
HATCH
  5
190
330
17
100
AcDbEntity
  8
A-OSIE
 62
7
420
16777215
100
AcDbHatch
 10
0.0
 20
0.0
 30
0.0
210
0.0
220
0.0
230
1.0
  2
SOLID
 70
1
 71
0
 91
1
 92
3
 72
0
 73
1
 93
48
 10
-1.537
 20
8.0
 10
-1.5391387846565474
 20
8.032631548055013
 10
-1.5455185434277328
 20
8.06470476127563
 10
-1.5560301168721782
 20
8.095670858091273
 10
-1.5704936490538903
 20
8.125
 10
-1.5886616649271912
 20
8.15219035725218
 10
-1.610223304703363
 20
8.176776695296637
 10
-1.6348096427478198
 20
8.198338335072808
 10
-1.662
 20
8.21650635094611
 10
-1.6913291419087275
 20
8.230969883127822
 10
-1.7222952387243697
 20
8.241481456572266
 10
-1.754368451944987
 20
8.247861215343452
 10
-1.787
 20
8.25
 10
-1.8196315480550127
 20
8.247861215343452
 10
-1.85170476127563
 20
8.241481456572266
 10
-1.8826708580912723
 20
8.230969883127822
 10
-1.912
 20
8.21650635094611
 10
-1.93919035725218
 20
8.198338335072808
 10
-1.963776695296637
 20
8.176776695296637
 10
-1.9853383350728087
 20
8.15219035725218
 10
-2.0035063509461097
 20
8.125
 10
-2.0179698831278214
 20
8.095670858091273
 10
-2.028481456572267
 20
8.06470476127563
 10
-2.0348612153434527
 20
8.032631548055013
 10
-2.037
 20
8.0
 10
-2.0348612153434527
 20
7.967368451944987
 10
-2.028481456572267
 20
7.93529523872437
 10
-2.0179698831278214
 20
7.904329141908728
 10
-2.0035063509461097
 20
7.875
 10
-1.9853383350728087
 20
7.84780964274782
 10
-1.963776695296637
 20
7.8232233047033635
 10
-1.9391903572521803
 20
7.801661664927192
 10
-1.912
 20
7.783493649053891
 10
-1.8826708580912725
 20
7.7690301168721785
 10
-1.8517047612756303
 20
7.758518543427733
 10
-1.8196315480550131
 20
7.752138784656547
 10
-1.787
 20
7.75
 10
-1.7543684519449871
 20
7.752138784656547
 10
-1.72229523872437
 20
7.758518543427733
 10
-1.6913291419087275
 20
7.7690301168721785
 10
-1.6620000000000001
 20
7.783493649053891
 10
-1.63480964274782
 20
7.801661664927191
 10
-1.6102233047033632
 20
7.8232233047033635
 10
-1.5886616649271912
 20
7.84780964274782
 10
-1.5704936490538903
 20
7.875
 10
-1.5560301168721784
 20
7.904329141908727
 10
-1.545518543427733
 20
7.93529523872437
 10
-1.5391387846565474
 20
7.967368451944987
 97
0
 75
0
 76
1
 98
0
  0
HATCH
  5
191
330
17
100
AcDbEntity
  8
A-OSIE
 62
7
420
16777215
100
AcDbHatch
 10
0.0
 20
0.0
 30
0.0
210
0.0
220
0.0
230
1.0
  2
SOLID
 70
1
 71
0
 91
1
 92
3
 72
0
 73
1
 93
48
 10
16.05
 20
8.0
 10
16.047861215343453
 20
8.032631548055013
 10
16.041481456572267
 20
8.06470476127563
 10
16.030969883127824
 20
8.095670858091273
 10
16.01650635094611
 20
8.125
 10
15.998338335072809
 20
8.15219035725218
 10
15.976776695296637
 20
8.176776695296637
 10
15.952190357252181
 20
8.198338335072808
 10
15.925
 20
8.21650635094611
 10
15.895670858091274
 20
8.230969883127822
 10
15.86470476127563
 20
8.241481456572266
 10
15.832631548055014
 20
8.247861215343452
 10
15.8
 20
8.25
 10
15.767368451944987
 20
8.247861215343452
 10
15.73529523872437
 20
8.241481456572266
 10
15.704329141908728
 20
8.230969883127822
 10
15.675
 20
8.21650635094611
 10
15.64780964274782
 20
8.198338335072808
 10
15.623223304703364
 20
8.176776695296637
 10
15.601661664927192
 20
8.15219035725218
 10
15.58349364905389
 20
8.125
 10
15.56903011687218
 20
8.095670858091273
 10
15.558518543427734
 20
8.06470476127563
 10
15.552138784656549
 20
8.032631548055013
 10
15.55
 20
8.0
 10
15.552138784656549
 20
7.967368451944987
 10
15.558518543427734
 20
7.93529523872437
 10
15.56903011687218
 20
7.904329141908728
 10
15.58349364905389
 20
7.875
 10
15.601661664927192
 20
7.84780964274782
 10
15.623223304703364
 20
7.8232233047033635
 10
15.64780964274782
 20
7.801661664927192
 10
15.675
 20
7.783493649053891
 10
15.704329141908728
 20
7.7690301168721785
 10
15.73529523872437
 20
7.758518543427733
 10
15.767368451944987
 20
7.752138784656547
 10
15.8
 20
7.75
 10
15.832631548055014
 20
7.752138784656547
 10
15.86470476127563
 20
7.758518543427733
 10
15.895670858091274
 20
7.7690301168721785
 10
15.925
 20
7.783493649053891
 10
15.952190357252181
 20
7.801661664927191
 10
15.976776695296637
 20
7.8232233047033635
 10
15.998338335072809
 20
7.84780964274782
 10
16.01650635094611
 20
7.875
 10
16.030969883127824
 20
7.904329141908727
 10
16.041481456572267
 20
7.93529523872437
 10
16.047861215343453
 20
7.967368451944987
 97
0
 75
0
 76
1
 98
0
  0
CIRCLE
  5
192
330
17
100
AcDbEntity
  8
A-OSIE
  6
Continuous
370
35
 48
0.05
100
AcDbCircle
 10
0.0
 20
-5.1000000000000005
 30
0.0
 40
0.25
  0
CIRCLE
  5
193
330
17
100
AcDbEntity
  8
A-OSIE
  6
Continuous
370
35
 48
0.05
100
AcDbCircle
 10
0.0
 20
10.137
 30
0.0
 40
0.25
  0
CIRCLE
  5
194
330
17
100
AcDbEntity
  8
A-OSIE
  6
Continuous
370
35
 48
0.05
100
AcDbCircle
 10
4.2
 20
-5.1000000000000005
 30
0.0
 40
0.25
  0
CIRCLE
  5
195
330
17
100
AcDbEntity
  8
A-OSIE
  6
Continuous
370
35
 48
0.05
100
AcDbCircle
 10
4.2
 20
10.137
 30
0.0
 40
0.25
  0
CIRCLE
  5
196
330
17
100
AcDbEntity
  8
A-OSIE
  6
Continuous
370
35
 48
0.05
100
AcDbCircle
 10
7.0
 20
-5.1000000000000005
 30
0.0
 40
0.25
  0
CIRCLE
  5
197
330
17
100
AcDbEntity
  8
A-OSIE
  6
Continuous
370
35
 48
0.05
100
AcDbCircle
 10
7.0
 20
10.137
 30
0.0
 40
0.25
  0
CIRCLE
  5
198
330
17
100
AcDbEntity
  8
A-OSIE
  6
Continuous
370
35
 48
0.05
100
AcDbCircle
 10
10.0
 20
-5.1000000000000005
 30
0.0
 40
0.25
  0
CIRCLE
  5
199
330
17
100
AcDbEntity
  8
A-OSIE
  6
Continuous
370
35
 48
0.05
100
AcDbCircle
 10
10.0
 20
10.137
 30
0.0
 40
0.25
  0
CIRCLE
  5
19A
330
17
100
AcDbEntity
  8
A-OSIE
  6
Continuous
370
35
 48
0.05
100
AcDbCircle
 10
-1.787
 20
0.0
 30
0.0
 40
0.25
  0
CIRCLE
  5
19B
330
17
100
AcDbEntity
  8
A-OSIE
  6
Continuous
370
35
 48
0.05
100
AcDbCircle
 10
15.8
 20
0.0
 30
0.0
 40
0.25
  0
CIRCLE
  5
19C
330
17
100
AcDbEntity
  8
A-OSIE
  6
Continuous
370
35
 48
0.05
100
AcDbCircle
 10
-1.787
 20
3.2
 30
0.0
 40
0.25
  0
CIRCLE
  5
19D
330
17
100
AcDbEntity
  8
A-OSIE
  6
Continuous
370
35
 48
0.05
100
AcDbCircle
 10
15.8
 20
3.2
 30
0.0
 40
0.25
  0
CIRCLE
  5
19E
330
17
100
AcDbEntity
  8
A-OSIE
  6
Continuous
370
35
 48
0.05
100
AcDbCircle
 10
-1.787
 20
4.5
 30
0.0
 40
0.25
  0
CIRCLE
  5
19F
330
17
100
AcDbEntity
  8
A-OSIE
  6
Continuous
370
35
 48
0.05
100
AcDbCircle
 10
15.8
 20
4.5
 30
0.0
 40
0.25
  0
CIRCLE
  5
1A0
330
17
100
AcDbEntity
  8
A-OSIE
  6
Continuous
370
35
 48
0.05
100
AcDbCircle
 10
-1.787
 20
8.0
 30
0.0
 40
0.25
  0
CIRCLE
  5
1A1
330
17
100
AcDbEntity
  8
A-OSIE
  6
Continuous
370
35
 48
0.05
100
AcDbCircle
 10
15.8
 20
8.0
 30
0.0
 40
0.25
  0
TEXT
  5
1A2
330
17
100
AcDbEntity
  8
A-OSIE
100
AcDbText
 10
-0.08483704292527822
 20
-5.187500000000001
 30
0.0
 40
0.17500000000000002
  1
A
  7
PL_ARIAL
 11
-0.08483704292527822
 21
-5.187500000000001
 31
0.0
100
AcDbText
  0
TEXT
  5
1A3
330
17
100
AcDbEntity
  8
A-OSIE
100
AcDbText
 10
-0.08483704292527822
 20
10.0495
 30
0.0
 40
0.17500000000000002
  1
A
  7
PL_ARIAL
 11
-0.08483704292527822
 21
10.0495
 31
0.0
100
AcDbText
  0
TEXT
  5
1A4
330
17
100
AcDbEntity
  8
A-OSIE
100
AcDbText
 10
4.115162957074722
 20
-5.187500000000001
 30
0.0
 40
0.17500000000000002
  1
B
  7
PL_ARIAL
 11
4.115162957074722
 21
-5.187500000000001
 31
0.0
100
AcDbText
  0
TEXT
  5
1A5
330
17
100
AcDbEntity
  8
A-OSIE
100
AcDbText
 10
4.115162957074722
 20
10.0495
 30
0.0
 40
0.17500000000000002
  1
B
  7
PL_ARIAL
 11
4.115162957074722
 21
10.0495
 31
0.0
100
AcDbText
  0
TEXT
  5
1A6
330
17
100
AcDbEntity
  8
A-OSIE
100
AcDbText
 10
6.908147853736089
 20
-5.187500000000001
 30
0.0
 40
0.17500000000000002
  1
C
  7
PL_ARIAL
 11
6.908147853736089
 21
-5.187500000000001
 31
0.0
100
AcDbText
  0
TEXT
  5
1A7
330
17
100
AcDbEntity
  8
A-OSIE
100
AcDbText
 10
6.908147853736089
 20
10.0495
 30
0.0
 40
0.17500000000000002
  1
C
  7
PL_ARIAL
 11
6.908147853736089
 21
10.0495
 31
0.0
100
AcDbText
  0
TEXT
  5
1A8
330
17
100
AcDbEntity
  8
A-OSIE
100
AcDbText
 10
9.90814785373609
 20
-5.187500000000001
 30
0.0
 40
0.17500000000000002
  1
D
  7
PL_ARIAL
 11
9.90814785373609
 21
-5.187500000000001
 31
0.0
100
AcDbText
  0
TEXT
  5
1A9
330
17
100
AcDbEntity
  8
A-OSIE
100
AcDbText
 10
9.90814785373609
 20
10.0495
 30
0.0
 40
0.17500000000000002
  1
D
  7
PL_ARIAL
 11
9.90814785373609
 21
10.0495
 31
0.0
100
AcDbText
  0
TEXT
  5
1AA
330
17
100
AcDbEntity
  8
A-OSIE
100
AcDbText
 10
-1.8577273449920508
 20
-0.08750000000000001
 30
0.0
 40
0.17500000000000002
  1
1
  7
PL_ARIAL
 11
-1.8577273449920508
 21
-0.08750000000000001
 31
0.0
100
AcDbText
  0
TEXT
  5
1AB
330
17
100
AcDbEntity
  8
A-OSIE
100
AcDbText
 10
15.72927265500795
 20
-0.08750000000000001
 30
0.0
 40
0.17500000000000002
  1
1
  7
PL_ARIAL
 11
15.72927265500795
 21
-0.08750000000000001
 31
0.0
100
AcDbText
  0
TEXT
  5
1AC
330
17
100
AcDbEntity
  8
A-OSIE
100
AcDbText
 10
-1.8577273449920508
 20
3.1125000000000003
 30
0.0
 40
0.17500000000000002
  1
2
  7
PL_ARIAL
 11
-1.8577273449920508
 21
3.1125000000000003
 31
0.0
100
AcDbText
  0
TEXT
  5
1AD
330
17
100
AcDbEntity
  8
A-OSIE
100
AcDbText
 10
15.72927265500795
 20
3.1125000000000003
 30
0.0
 40
0.17500000000000002
  1
2
  7
PL_ARIAL
 11
15.72927265500795
 21
3.1125000000000003
 31
0.0
100
AcDbText
  0
TEXT
  5
1AE
330
17
100
AcDbEntity
  8
A-OSIE
100
AcDbText
 10
-1.8577273449920508
 20
4.4125
 30
0.0
 40
0.17500000000000002
  1
3
  7
PL_ARIAL
 11
-1.8577273449920508
 21
4.4125
 31
0.0
100
AcDbText
  0
TEXT
  5
1AF
330
17
100
AcDbEntity
  8
A-OSIE
100
AcDbText
 10
15.72927265500795
 20
4.4125
 30
0.0
 40
0.17500000000000002
  1
3
  7
PL_ARIAL
 11
15.72927265500795
 21
4.4125
 31
0.0
100
AcDbText
  0
TEXT
  5
1B0
330
17
100
AcDbEntity
  8
A-OSIE
100
AcDbText
 10
-1.8577273449920508
 20
7.9125
 30
0.0
 40
0.17500000000000002
  1
4
  7
PL_ARIAL
 11
-1.8577273449920508
 21
7.9125
 31
0.0
100
AcDbText
  0
TEXT
  5
1B1
330
17
100
AcDbEntity
  8
A-OSIE
100
AcDbText
 10
15.72927265500795
 20
7.9125
 30
0.0
 40
0.17500000000000002
  1
4
  7
PL_ARIAL
 11
15.72927265500795
 21
7.9125
 31
0.0
100
AcDbText
  0
LWPOLYLINE
  5
1B2
330
17
100
AcDbEntity
  8
A-WIDOK
370
50
 48
0.05
100
AcDbPolyline
 90
5
 70
0
 10
-0.22
 20
-0.22
 10
-0.22
 20
8.22
 10
10.22
 20
8.22
 10
10.22
 20
-0.22
 10
-0.22
 20
-0.22
  0
LWPOLYLINE
  5
1B3
330
17
100
AcDbEntity
  8
A-WIDOK
370
50
 48
0.05
100
AcDbPolyline
 90
5
 70
0
 10
0.19
 20
7.81
 10
0.19
 20
0.19
 10
9.81
 20
0.19
 10
9.81
 20
7.81
 10
0.19
 20
7.81
  0
LWPOLYLINE
  5
1B4
330
17
100
AcDbEntity
  8
A-WIDOK
370
35
 48
0.05
100
AcDbPolyline
 90
19
 70
0
 10
3.4
 20
-0.29
 10
1.0
 20
-0.29
 10
-0.29
 20
-0.29
 10
-0.29
 20
1.0
 10
-0.29
 20
2.4
 10
-0.29
 20
8.29
 10
1.0
 20
8.29
 10
2.8
 20
8.29
 10
4.6
 20
8.29
 10
6.2
 20
8.29
 10
7.8
 20
8.29
 10
8.8
 20
8.29
 10
10.29
 20
8.29
 10
10.29
 20
3.6
 10
10.29
 20
1.2
 10
10.29
 20
-0.29
 10
8.8
 20
-0.29
 10
5.2
 20
-0.29
 10
3.4
 20
-0.29
  0
LWPOLYLINE
  5
1B5
330
17
100
AcDbEntity
  8
A-WIDOK
370
35
 48
0.05
100
AcDbPolyline
 90
19
 70
0
 10
3.4
 20
-0.297
 10
1.0
 20
-0.297
 10
-0.297
 20
-0.297
 10
-0.297
 20
1.0
 10
-0.297
 20
2.4
 10
-0.297
 20
8.297
 10
1.0
 20
8.297
 10
2.8
 20
8.297
 10
4.6
 20
8.297
 10
6.2
 20
8.297
 10
7.8
 20
8.297
 10
8.8
 20
8.297
 10
10.297
 20
8.297
 10
10.297
 20
3.6
 10
10.297
 20
1.2
 10
10.297
 20
-0.297
 10
8.8
 20
-0.297
 10
5.2
 20
-0.297
 10
3.4
 20
-0.297
  0
LWPOLYLINE
  5
1B6
330
17
100
AcDbEntity
  8
A-WIDOK
370
35
 48
0.05
100
AcDbPolyline
 90
5
 70
0
 10
-0.175
 20
-0.537
 10
-0.225
 20
-0.537
 10
-0.225
 20
-0.417
 10
-0.175
 20
-0.417
 10
-0.175
 20
-0.537
  0
LWPOLYLINE
  5
1B7
330
17
100
AcDbEntity
  8
A-WIDOK
370
35
 48
0.05
100
AcDbPolyline
 90
5
 70
0
 10
0.025
 20
-0.537
 10
-0.025
 20
-0.537
 10
-0.025
 20
-0.417
 10
0.025
 20
-0.417
 10
0.025
 20
-0.537
  0
LWPOLYLINE
  5
1B8
330
17
100
AcDbEntity
  8
A-WIDOK
370
35
 48
0.05
100
AcDbPolyline
 90
5
 70
0
 10
0.225
 20
-0.417
 10
0.225
 20
-0.537
 10
0.175
 20
-0.537
 10
0.175
 20
-0.417
 10
0.225
 20
-0.417
  0
LWPOLYLINE
  5
1B9
330
17
100
AcDbEntity
  8
A-WIDOK
370
35
 48
0.05
100
AcDbPolyline
 90
5
 70
0
 10
0.425
 20
-0.537
 10
0.375
 20
-0.537
 10
0.375
 20
-0.417
 10
0.425
 20
-0.417
 10
0.425
 20
-0.537
  0
LWPOLYLINE
  5
1BA
330
17
100
AcDbEntity
  8
A-WIDOK
370
35
 48
0.05
100
AcDbPolyline
 90
5
 70
0
 10
0.625
 20
-0.537
 10
0.575
 20
-0.537
 10
0.575
 20
-0.417
 10
0.625
 20
-0.417
 10
0.625
 20
-0.537
  0
LWPOLYLINE
  5
1BB
330
17
100
AcDbEntity
  8
A-WIDOK
370
35
 48
0.05
100
AcDbPolyline
 90
5
 70
0
 10
0.825
 20
-0.417
 10
0.825
 20
-0.537
 10
0.775
 20
-0.537
 10
0.775
 20
-0.417
 10
0.825
 20
-0.417
  0
LWPOLYLINE
  5
1BC
330
17
100
AcDbEntity
  8
A-WIDOK
370
35
 48
0.05
100
AcDbPolyline
 90
5
 70
0
 10
1.025
 20
-0.537
 10
0.975
 20
-0.537
 10
0.975
 20
-0.417
 10
1.025
 20
-0.417
 10
1.025
 20
-0.537
  0
LWPOLYLINE
  5
1BD
330
17
100
AcDbEntity
  8
A-WIDOK
370
35
 48
0.05
100
AcDbPolyline
 90
5
 70
0
 10
1.225
 20
-0.537
 10
1.175
 20
-0.537
 10
1.175
 20
-0.417
 10
1.225
 20
-0.417
 10
1.225
 20
-0.537
  0
LWPOLYLINE
  5
1BE
330
17
100
AcDbEntity
  8
A-WIDOK
370
35
 48
0.05
100
AcDbPolyline
 90
5
 70
0
 10
1.425
 20
-0.537
 10
1.375
 20
-0.537
 10
1.375
 20
-0.417
 10
1.425
 20
-0.417
 10
1.425
 20
-0.537
  0
LWPOLYLINE
  5
1BF
330
17
100
AcDbEntity
  8
A-WIDOK
370
35
 48
0.05
100
AcDbPolyline
 90
5
 70
0
 10
1.625
 20
-0.417
 10
1.625
 20
-0.537
 10
1.575
 20
-0.537
 10
1.575
 20
-0.417
 10
1.625
 20
-0.417
  0
LWPOLYLINE
  5
1C0
330
17
100
AcDbEntity
  8
A-WIDOK
370
35
 48
0.05
100
AcDbPolyline
 90
5
 70
0
 10
1.825
 20
-0.537
 10
1.775
 20
-0.537
 10
1.775
 20
-0.417
 10
1.825
 20
-0.417
 10
1.825
 20
-0.537
  0
LWPOLYLINE
  5
1C1
330
17
100
AcDbEntity
  8
A-WIDOK
370
35
 48
0.05
100
AcDbPolyline
 90
5
 70
0
 10
2.025
 20
-0.537
 10
1.975
 20
-0.537
 10
1.975
 20
-0.417
 10
2.025
 20
-0.417
 10
2.025
 20
-0.537
  0
LWPOLYLINE
  5
1C2
330
17
100
AcDbEntity
  8
A-WIDOK
370
35
 48
0.05
100
AcDbPolyline
 90
5
 70
0
 10
2.225
 20
-0.417
 10
2.225
 20
-0.537
 10
2.175
 20
-0.537
 10
2.175
 20
-0.417
 10
2.225
 20
-0.417
  0
LWPOLYLINE
  5
1C3
330
17
100
AcDbEntity
  8
A-WIDOK
370
35
 48
0.05
100
AcDbPolyline
 90
5
 70
0
 10
2.425
 20
-0.537
 10
2.375
 20
-0.537
 10
2.375
 20
-0.417
 10
2.425
 20
-0.417
 10
2.425
 20
-0.537
  0
LWPOLYLINE
  5
1C4
330
17
100
AcDbEntity
  8
A-WIDOK
370
35
 48
0.05
100
AcDbPolyline
 90
5
 70
0
 10
2.625
 20
-0.537
 10
2.575
 20
-0.537
 10
2.575
 20
-0.417
 10
2.625
 20
-0.417
 10
2.625
 20
-0.537
  0
LWPOLYLINE
  5
1C5
330
17
100
AcDbEntity
  8
A-WIDOK
370
35
 48
0.05
100
AcDbPolyline
 90
5
 70
0
 10
2.825
 20
-0.417
 10
2.825
 20
-0.537
 10
2.775
 20
-0.537
 10
2.775
 20
-0.417
 10
2.825
 20
-0.417
  0
LWPOLYLINE
  5
1C6
330
17
100
AcDbEntity
  8
A-WIDOK
370
35
 48
0.05
100
AcDbPolyline
 90
5
 70
0
 10
3.025
 20
-0.537
 10
2.975
 20
-0.537
 10
2.975
 20
-0.417
 10
3.025
 20
-0.417
 10
3.025
 20
-0.537
  0
LWPOLYLINE
  5
1C7
330
17
100
AcDbEntity
  8
A-WIDOK
370
35
 48
0.05
100
AcDbPolyline
 90
5
 70
0
 10
3.225
 20
-0.537
 10
3.175
 20
-0.537
 10
3.175
 20
-0.417
 10
3.225
 20
-0.417
 10
3.225
 20
-0.537
  0
LWPOLYLINE
  5
1C8
330
17
100
AcDbEntity
  8
A-WIDOK
370
35
 48
0.05
100
AcDbPolyline
 90
5
 70
0
 10
3.425
 20
-0.537
 10
3.375
 20
-0.537
 10
3.375
 20
-0.417
 10
3.425
 20
-0.417
 10
3.425
 20
-0.537
  0
LWPOLYLINE
  5
1C9
330
17
100
AcDbEntity
  8
A-WIDOK
370
35
 48
0.05
100
AcDbPolyline
 90
5
 70
0
 10
3.625
 20
-0.537
 10
3.575
 20
-0.537
 10
3.575
 20
-0.417
 10
3.625
 20
-0.417
 10
3.625
 20
-0.537
  0
LWPOLYLINE
  5
1CA
330
17
100
AcDbEntity
  8
A-WIDOK
370
35
 48
0.05
100
AcDbPolyline
 90
5
 70
0
 10
3.825
 20
-0.537
 10
3.775
 20
-0.537
 10
3.775
 20
-0.417
 10
3.825
 20
-0.417
 10
3.825
 20
-0.537
  0
LWPOLYLINE
  5
1CB
330
17
100
AcDbEntity
  8
A-WIDOK
370
35
 48
0.05
100
AcDbPolyline
 90
5
 70
0
 10
4.025
 20
-0.537
 10
3.975
 20
-0.537
 10
3.975
 20
-0.417
 10
4.025
 20
-0.417
 10
4.025
 20
-0.537
  0
LWPOLYLINE
  5
1CC
330
17
100
AcDbEntity
  8
A-WIDOK
370
35
 48
0.05
100
AcDbPolyline
 90
5
 70
0
 10
4.225
 20
-0.417
 10
4.225
 20
-0.537
 10
4.175
 20
-0.537
 10
4.175
 20
-0.417
 10
4.225
 20
-0.417
  0
LWPOLYLINE
  5
1CD
330
17
100
AcDbEntity
  8
A-WIDOK
370
35
 48
0.05
100
AcDbPolyline
 90
5
 70
0
 10
4.425
 20
-0.537
 10
4.375
 20
-0.537
 10
4.375
 20
-0.417
 10
4.425
 20
-0.417
 10
4.425
 20
-0.537
  0
LWPOLYLINE
  5
1CE
330
17
100
AcDbEntity
  8
A-WIDOK
370
35
 48
0.05
100
AcDbPolyline
 90
5
 70
0
 10
4.625
 20
-0.537
 10
4.575
 20
-0.537
 10
4.575
 20
-0.417
 10
4.625
 20
-0.417
 10
4.625
 20
-0.537
  0
LWPOLYLINE
  5
1CF
330
17
100
AcDbEntity
  8
A-WIDOK
370
35
 48
0.05
100
AcDbPolyline
 90
5
 70
0
 10
4.825
 20
-0.417
 10
4.825
 20
-0.537
 10
4.775
 20
-0.537
 10
4.775
 20
-0.417
 10
4.825
 20
-0.417
  0
LWPOLYLINE
  5
1D0
330
17
100
AcDbEntity
  8
A-WIDOK
370
35
 48
0.05
100
AcDbPolyline
 90
5
 70
0
 10
5.025
 20
-0.537
 10
4.975
 20
-0.537
 10
4.975
 20
-0.417
 10
5.025
 20
-0.417
 10
5.025
 20
-0.537
  0
LWPOLYLINE
  5
1D1
330
17
100
AcDbEntity
  8
A-WIDOK
370
35
 48
0.05
100
AcDbPolyline
 90
5
 70
0
 10
5.225
 20
-0.537
 10
5.175
 20
-0.537
 10
5.175
 20
-0.417
 10
5.225
 20
-0.417
 10
5.225
 20
-0.537
  0
LWPOLYLINE
  5
1D2
330
17
100
AcDbEntity
  8
A-WIDOK
370
35
 48
0.05
100
AcDbPolyline
 90
5
 70
0
 10
5.425
 20
-0.417
 10
5.425
 20
-0.537
 10
5.375
 20
-0.537
 10
5.375
 20
-0.417
 10
5.425
 20
-0.417
  0
LWPOLYLINE
  5
1D3
330
17
100
AcDbEntity
  8
A-WIDOK
370
35
 48
0.05
100
AcDbPolyline
 90
5
 70
0
 10
5.625
 20
-0.537
 10
5.575
 20
-0.537
 10
5.575
 20
-0.417
 10
5.625
 20
-0.417
 10
5.625
 20
-0.537
  0
LWPOLYLINE
  5
1D4
330
17
100
AcDbEntity
  8
A-WIDOK
370
35
 48
0.05
100
AcDbPolyline
 90
5
 70
0
 10
5.825
 20
-0.537
 10
5.775
 20
-0.537
 10
5.775
 20
-0.417
 10
5.825
 20
-0.417
 10
5.825
 20
-0.537
  0
LWPOLYLINE
  5
1D5
330
17
100
AcDbEntity
  8
A-WIDOK
370
35
 48
0.05
100
AcDbPolyline
 90
5
 70
0
 10
6.025
 20
-0.537
 10
5.975
 20
-0.537
 10
5.975
 20
-0.417
 10
6.025
 20
-0.417
 10
6.025
 20
-0.537
  0
LWPOLYLINE
  5
1D6
330
17
100
AcDbEntity
  8
A-WIDOK
370
35
 48
0.05
100
AcDbPolyline
 90
5
 70
0
 10
6.225
 20
-0.537
 10
6.175
 20
-0.537
 10
6.175
 20
-0.417
 10
6.225
 20
-0.417
 10
6.225
 20
-0.537
  0
LWPOLYLINE
  5
1D7
330
17
100
AcDbEntity
  8
A-WIDOK
370
35
 48
0.05
100
AcDbPolyline
 90
5
 70
0
 10
6.425
 20
-0.537
 10
6.375
 20
-0.537
 10
6.375
 20
-0.417
 10
6.425
 20
-0.417
 10
6.425
 20
-0.537
  0
LWPOLYLINE
  5
1D8
330
17
100
AcDbEntity
  8
A-WIDOK
370
35
 48
0.05
100
AcDbPolyline
 90
5
 70
0
 10
6.625
 20
-0.537
 10
6.575
 20
-0.537
 10
6.575
 20
-0.417
 10
6.625
 20
-0.417
 10
6.625
 20
-0.537
  0
LWPOLYLINE
  5
1D9
330
17
100
AcDbEntity
  8
A-WIDOK
370
35
 48
0.05
100
AcDbPolyline
 90
5
 70
0
 10
6.825
 20
-0.417
 10
6.825
 20
-0.537
 10
6.775
 20
-0.537
 10
6.775
 20
-0.417
 10
6.825
 20
-0.417
  0
LWPOLYLINE
  5
1DA
330
17
100
AcDbEntity
  8
A-WIDOK
370
35
 48
0.05
100
AcDbPolyline
 90
5
 70
0
 10
7.025
 20
-0.537
 10
6.975
 20
-0.537
 10
6.975
 20
-0.417
 10
7.025
 20
-0.417
 10
7.025
 20
-0.537
  0
LWPOLYLINE
  5
1DB
330
17
100
AcDbEntity
  8
A-WIDOK
370
35
 48
0.05
100
AcDbPolyline
 90
5
 70
0
 10
7.225
 20
-0.537
 10
7.175
 20
-0.537
 10
7.175
 20
-0.417
 10
7.225
 20
-0.417
 10
7.225
 20
-0.537
  0
LWPOLYLINE
  5
1DC
330
17
100
AcDbEntity
  8
A-WIDOK
370
35
 48
0.05
100
AcDbPolyline
 90
5
 70
0
 10
7.425
 20
-0.537
 10
7.375
 20
-0.537
 10
7.375
 20
-0.417
 10
7.425
 20
-0.417
 10
7.425
 20
-0.537
  0
LWPOLYLINE
  5
1DD
330
17
100
AcDbEntity
  8
A-WIDOK
370
35
 48
0.05
100
AcDbPolyline
 90
5
 70
0
 10
7.625
 20
-0.537
 10
7.575
 20
-0.537
 10
7.575
 20
-0.417
 10
7.625
 20
-0.417
 10
7.625
 20
-0.537
  0
LWPOLYLINE
  5
1DE
330
17
100
AcDbEntity
  8
A-WIDOK
370
35
 48
0.05
100
AcDbPolyline
 90
5
 70
0
 10
7.825
 20
-0.537
 10
7.775
 20
-0.537
 10
7.775
 20
-0.417
 10
7.825
 20
-0.417
 10
7.825
 20
-0.537
  0
LWPOLYLINE
  5
1DF
330
17
100
AcDbEntity
  8
A-WIDOK
370
35
 48
0.05
100
AcDbPolyline
 90
5
 70
0
 10
8.025
 20
-0.537
 10
7.975
 20
-0.537
 10
7.975
 20
-0.417
 10
8.025
 20
-0.417
 10
8.025
 20
-0.537
  0
LWPOLYLINE
  5
1E0
330
17
100
AcDbEntity
  8
A-WIDOK
370
35
 48
0.05
100
AcDbPolyline
 90
5
 70
0
 10
8.225
 20
-0.537
 10
8.175
 20
-0.537
 10
8.175
 20
-0.417
 10
8.225
 20
-0.417
 10
8.225
 20
-0.537
  0
LWPOLYLINE
  5
1E1
330
17
100
AcDbEntity
  8
A-WIDOK
370
35
 48
0.05
100
AcDbPolyline
 90
5
 70
0
 10
8.425
 20
-0.417
 10
8.425
 20
-0.537
 10
8.375
 20
-0.537
 10
8.375
 20
-0.417
 10
8.425
 20
-0.417
  0
LWPOLYLINE
  5
1E2
330
17
100
AcDbEntity
  8
A-WIDOK
370
35
 48
0.05
100
AcDbPolyline
 90
5
 70
0
 10
8.625
 20
-0.537
 10
8.575
 20
-0.537
 10
8.575
 20
-0.417
 10
8.625
 20
-0.417
 10
8.625
 20
-0.537
  0
LWPOLYLINE
  5
1E3
330
17
100
AcDbEntity
  8
A-WIDOK
370
35
 48
0.05
100
AcDbPolyline
 90
5
 70
0
 10
8.825
 20
-0.537
 10
8.775
 20
-0.537
 10
8.775
 20
-0.417
 10
8.825
 20
-0.417
 10
8.825
 20
-0.537
  0
LWPOLYLINE
  5
1E4
330
17
100
AcDbEntity
  8
A-WIDOK
370
35
 48
0.05
100
AcDbPolyline
 90
5
 70
0
 10
9.025
 20
-0.537
 10
8.975
 20
-0.537
 10
8.975
 20
-0.417
 10
9.025
 20
-0.417
 10
9.025
 20
-0.537
  0
LWPOLYLINE
  5
1E5
330
17
100
AcDbEntity
  8
A-WIDOK
370
35
 48
0.05
100
AcDbPolyline
 90
5
 70
0
 10
9.225
 20
-0.537
 10
9.175
 20
-0.537
 10
9.175
 20
-0.417
 10
9.225
 20
-0.417
 10
9.225
 20
-0.537
  0
LWPOLYLINE
  5
1E6
330
17
100
AcDbEntity
  8
A-WIDOK
370
35
 48
0.05
100
AcDbPolyline
 90
5
 70
0
 10
9.425
 20
-0.537
 10
9.375
 20
-0.537
 10
9.375
 20
-0.417
 10
9.425
 20
-0.417
 10
9.425
 20
-0.537
  0
LWPOLYLINE
  5
1E7
330
17
100
AcDbEntity
  8
A-WIDOK
370
35
 48
0.05
100
AcDbPolyline
 90
5
 70
0
 10
9.625
 20
-0.537
 10
9.575
 20
-0.537
 10
9.575
 20
-0.417
 10
9.625
 20
-0.417
 10
9.625
 20
-0.537
  0
LWPOLYLINE
  5
1E8
330
17
100
AcDbEntity
  8
A-WIDOK
370
35
 48
0.05
100
AcDbPolyline
 90
5
 70
0
 10
9.825
 20
-0.417
 10
9.825
 20
-0.537
 10
9.775
 20
-0.537
 10
9.775
 20
-0.417
 10
9.825
 20
-0.417
  0
LWPOLYLINE
  5
1E9
330
17
100
AcDbEntity
  8
A-WIDOK
370
35
 48
0.05
100
AcDbPolyline
 90
5
 70
0
 10
10.025
 20
-0.537
 10
9.975
 20
-0.537
 10
9.975
 20
-0.417
 10
10.025
 20
-0.417
 10
10.025
 20
-0.537
  0
LWPOLYLINE
  5
1EA
330
17
100
AcDbEntity
  8
A-WIDOK
370
35
 48
0.05
100
AcDbPolyline
 90
5
 70
0
 10
10.225
 20
-0.537
 10
10.175
 20
-0.537
 10
10.175
 20
-0.417
 10
10.225
 20
-0.417
 10
10.225
 20
-0.537
  0
LWPOLYLINE
  5
1EB
330
17
100
AcDbEntity
  8
A-WIDOK
370
35
 48
0.05
100
AcDbPolyline
 90
6
 70
0
 10
-0.2255
 20
-0.417
 10
-0.297
 20
-0.417
 10
-0.297
 20
-0.377
 10
10.297
 20
-0.377
 10
10.297
 20
-0.417
 10
10.2255
 20
-0.417
  0
LWPOLYLINE
  5
1EC
330
17
100
AcDbEntity
  8
A-WIDOK
370
35
 48
0.05
100
AcDbPolyline
 90
2
 70
0
 10
-0.0255
 20
-0.417
 10
-0.1745
 20
-0.417
  0
LWPOLYLINE
  5
1ED
330
17
100
AcDbEntity
  8
A-WIDOK
370
35
 48
0.05
100
AcDbPolyline
 90
2
 70
0
 10
0.1745
 20
-0.417
 10
0.0255
 20
-0.417
  0
LWPOLYLINE
  5
1EE
330
17
100
AcDbEntity
  8
A-WIDOK
370
35
 48
0.05
100
AcDbPolyline
 90
2
 70
0
 10
0.3745
 20
-0.417
 10
0.2255
 20
-0.417
  0
LWPOLYLINE
  5
1EF
330
17
100
AcDbEntity
  8
A-WIDOK
370
35
 48
0.05
100
AcDbPolyline
 90
2
 70
0
 10
0.5745
 20
-0.417
 10
0.4255
 20
-0.417
  0
LWPOLYLINE
  5
1F0
330
17
100
AcDbEntity
  8
A-WIDOK
370
35
 48
0.05
100
AcDbPolyline
 90
2
 70
0
 10
0.7745
 20
-0.417
 10
0.6255
 20
-0.417
  0
LWPOLYLINE
  5
1F1
330
17
100
AcDbEntity
  8
A-WIDOK
370
35
 48
0.05
100
AcDbPolyline
 90
2
 70
0
 10
0.9745
 20
-0.417
 10
0.8255
 20
-0.417
  0
LWPOLYLINE
  5
1F2
330
17
100
AcDbEntity
  8
A-WIDOK
370
35
 48
0.05
100
AcDbPolyline
 90
2
 70
0
 10
1.1745
 20
-0.417
 10
1.0255
 20
-0.417
  0
LWPOLYLINE
  5
1F3
330
17
100
AcDbEntity
  8
A-WIDOK
370
35
 48
0.05
100
AcDbPolyline
 90
2
 70
0
 10
1.3745
 20
-0.417
 10
1.2255
 20
-0.417
  0
LWPOLYLINE
  5
1F4
330
17
100
AcDbEntity
  8
A-WIDOK
370
35
 48
0.05
100
AcDbPolyline
 90
2
 70
0
 10
1.5745
 20
-0.417
 10
1.4255
 20
-0.417
  0
LWPOLYLINE
  5
1F5
330
17
100
AcDbEntity
  8
A-WIDOK
370
35
 48
0.05
100
AcDbPolyline
 90
2
 70
0
 10
1.7745
 20
-0.417
 10
1.6255
 20
-0.417
  0
LWPOLYLINE
  5
1F6
330
17
100
AcDbEntity
  8
A-WIDOK
370
35
 48
0.05
100
AcDbPolyline
 90
2
 70
0
 10
1.9745
 20
-0.417
 10
1.8255
 20
-0.417
  0
LWPOLYLINE
  5
1F7
330
17
100
AcDbEntity
  8
A-WIDOK
370
35
 48
0.05
100
AcDbPolyline
 90
2
 70
0
 10
2.1745
 20
-0.417
 10
2.0255
 20
-0.417
  0
LWPOLYLINE
  5
1F8
330
17
100
AcDbEntity
  8
A-WIDOK
370
35
 48
0.05
100
AcDbPolyline
 90
2
 70
0
 10
2.3745
 20
-0.417
 10
2.2255
 20
-0.417
  0
LWPOLYLINE
  5
1F9
330
17
100
AcDbEntity
  8
A-WIDOK
370
35
 48
0.05
100
AcDbPolyline
 90
2
 70
0
 10
2.5745
 20
-0.417
 10
2.4255
 20
-0.417
  0
LWPOLYLINE
  5
1FA
330
17
100
AcDbEntity
  8
A-WIDOK
370
35
 48
0.05
100
AcDbPolyline
 90
2
 70
0
 10
2.7745
 20
-0.417
 10
2.6255
 20
-0.417
  0
LWPOLYLINE
  5
1FB
330
17
100
AcDbEntity
  8
A-WIDOK
370
35
 48
0.05
100
AcDbPolyline
 90
2
 70
0
 10
2.9745
 20
-0.417
 10
2.8255
 20
-0.417
  0
LWPOLYLINE
  5
1FC
330
17
100
AcDbEntity
  8
A-WIDOK
370
35
 48
0.05
100
AcDbPolyline
 90
2
 70
0
 10
3.1745
 20
-0.417
 10
3.0255
 20
-0.417
  0
LWPOLYLINE
  5
1FD
330
17
100
AcDbEntity
  8
A-WIDOK
370
35
 48
0.05
100
AcDbPolyline
 90
2
 70
0
 10
3.3745
 20
-0.417
 10
3.2255
 20
-0.417
  0
LWPOLYLINE
  5
1FE
330
17
100
AcDbEntity
  8
A-WIDOK
370
35
 48
0.05
100
AcDbPolyline
 90
2
 70
0
 10
3.5745
 20
-0.417
 10
3.4255
 20
-0.417
  0
LWPOLYLINE
  5
1FF
330
17
100
AcDbEntity
  8
A-WIDOK
370
35
 48
0.05
100
AcDbPolyline
 90
2
 70
0
 10
3.7745
 20
-0.417
 10
3.6255
 20
-0.417
  0
LWPOLYLINE
  5
200
330
17
100
AcDbEntity
  8
A-WIDOK
370
35
 48
0.05
100
AcDbPolyline
 90
2
 70
0
 10
3.9745
 20
-0.417
 10
3.8255
 20
-0.417
  0
LWPOLYLINE
  5
201
330
17
100
AcDbEntity
  8
A-WIDOK
370
35
 48
0.05
100
AcDbPolyline
 90
2
 70
0
 10
4.1745
 20
-0.417
 10
4.0255
 20
-0.417
  0
LWPOLYLINE
  5
202
330
17
100
AcDbEntity
  8
A-WIDOK
370
35
 48
0.05
100
AcDbPolyline
 90
2
 70
0
 10
4.3745
 20
-0.417
 10
4.2255
 20
-0.417
  0
LWPOLYLINE
  5
203
330
17
100
AcDbEntity
  8
A-WIDOK
370
35
 48
0.05
100
AcDbPolyline
 90
2
 70
0
 10
4.5745
 20
-0.417
 10
4.4255
 20
-0.417
  0
LWPOLYLINE
  5
204
330
17
100
AcDbEntity
  8
A-WIDOK
370
35
 48
0.05
100
AcDbPolyline
 90
2
 70
0
 10
4.7745
 20
-0.417
 10
4.6255
 20
-0.417
  0
LWPOLYLINE
  5
205
330
17
100
AcDbEntity
  8
A-WIDOK
370
35
 48
0.05
100
AcDbPolyline
 90
2
 70
0
 10
4.9745
 20
-0.417
 10
4.8255
 20
-0.417
  0
LWPOLYLINE
  5
206
330
17
100
AcDbEntity
  8
A-WIDOK
370
35
 48
0.05
100
AcDbPolyline
 90
2
 70
0
 10
5.1745
 20
-0.417
 10
5.0255
 20
-0.417
  0
LWPOLYLINE
  5
207
330
17
100
AcDbEntity
  8
A-WIDOK
370
35
 48
0.05
100
AcDbPolyline
 90
2
 70
0
 10
5.3745
 20
-0.417
 10
5.2255
 20
-0.417
  0
LWPOLYLINE
  5
208
330
17
100
AcDbEntity
  8
A-WIDOK
370
35
 48
0.05
100
AcDbPolyline
 90
2
 70
0
 10
5.5745
 20
-0.417
 10
5.4255
 20
-0.417
  0
LWPOLYLINE
  5
209
330
17
100
AcDbEntity
  8
A-WIDOK
370
35
 48
0.05
100
AcDbPolyline
 90
2
 70
0
 10
5.7745
 20
-0.417
 10
5.6255
 20
-0.417
  0
LWPOLYLINE
  5
20A
330
17
100
AcDbEntity
  8
A-WIDOK
370
35
 48
0.05
100
AcDbPolyline
 90
2
 70
0
 10
5.9745
 20
-0.417
 10
5.8255
 20
-0.417
  0
LWPOLYLINE
  5
20B
330
17
100
AcDbEntity
  8
A-WIDOK
370
35
 48
0.05
100
AcDbPolyline
 90
2
 70
0
 10
6.1745
 20
-0.417
 10
6.0255
 20
-0.417
  0
LWPOLYLINE
  5
20C
330
17
100
AcDbEntity
  8
A-WIDOK
370
35
 48
0.05
100
AcDbPolyline
 90
2
 70
0
 10
6.3745
 20
-0.417
 10
6.2255
 20
-0.417
  0
LWPOLYLINE
  5
20D
330
17
100
AcDbEntity
  8
A-WIDOK
370
35
 48
0.05
100
AcDbPolyline
 90
2
 70
0
 10
6.5745
 20
-0.417
 10
6.4255
 20
-0.417
  0
LWPOLYLINE
  5
20E
330
17
100
AcDbEntity
  8
A-WIDOK
370
35
 48
0.05
100
AcDbPolyline
 90
2
 70
0
 10
6.7745
 20
-0.417
 10
6.6255
 20
-0.417
  0
LWPOLYLINE
  5
20F
330
17
100
AcDbEntity
  8
A-WIDOK
370
35
 48
0.05
100
AcDbPolyline
 90
2
 70
0
 10
6.9745
 20
-0.417
 10
6.8255
 20
-0.417
  0
LWPOLYLINE
  5
210
330
17
100
AcDbEntity
  8
A-WIDOK
370
35
 48
0.05
100
AcDbPolyline
 90
2
 70
0
 10
7.1745
 20
-0.417
 10
7.0255
 20
-0.417
  0
LWPOLYLINE
  5
211
330
17
100
AcDbEntity
  8
A-WIDOK
370
35
 48
0.05
100
AcDbPolyline
 90
2
 70
0
 10
7.3745
 20
-0.417
 10
7.2255
 20
-0.417
  0
LWPOLYLINE
  5
212
330
17
100
AcDbEntity
  8
A-WIDOK
370
35
 48
0.05
100
AcDbPolyline
 90
2
 70
0
 10
7.5745
 20
-0.417
 10
7.4255
 20
-0.417
  0
LWPOLYLINE
  5
213
330
17
100
AcDbEntity
  8
A-WIDOK
370
35
 48
0.05
100
AcDbPolyline
 90
2
 70
0
 10
7.7745
 20
-0.417
 10
7.6255
 20
-0.417
  0
LWPOLYLINE
  5
214
330
17
100
AcDbEntity
  8
A-WIDOK
370
35
 48
0.05
100
AcDbPolyline
 90
2
 70
0
 10
7.9745
 20
-0.417
 10
7.8255
 20
-0.417
  0
LWPOLYLINE
  5
215
330
17
100
AcDbEntity
  8
A-WIDOK
370
35
 48
0.05
100
AcDbPolyline
 90
2
 70
0
 10
8.1745
 20
-0.417
 10
8.0255
 20
-0.417
  0
LWPOLYLINE
  5
216
330
17
100
AcDbEntity
  8
A-WIDOK
370
35
 48
0.05
100
AcDbPolyline
 90
2
 70
0
 10
8.3745
 20
-0.417
 10
8.2255
 20
-0.417
  0
LWPOLYLINE
  5
217
330
17
100
AcDbEntity
  8
A-WIDOK
370
35
 48
0.05
100
AcDbPolyline
 90
2
 70
0
 10
8.5745
 20
-0.417
 10
8.4255
 20
-0.417
  0
LWPOLYLINE
  5
218
330
17
100
AcDbEntity
  8
A-WIDOK
370
35
 48
0.05
100
AcDbPolyline
 90
2
 70
0
 10
8.7745
 20
-0.417
 10
8.6255
 20
-0.417
  0
LWPOLYLINE
  5
219
330
17
100
AcDbEntity
  8
A-WIDOK
370
35
 48
0.05
100
AcDbPolyline
 90
2
 70
0
 10
8.9745
 20
-0.417
 10
8.8255
 20
-0.417
  0
LWPOLYLINE
  5
21A
330
17
100
AcDbEntity
  8
A-WIDOK
370
35
 48
0.05
100
AcDbPolyline
 90
2
 70
0
 10
9.1745
 20
-0.417
 10
9.0255
 20
-0.417
  0
LWPOLYLINE
  5
21B
330
17
100
AcDbEntity
  8
A-WIDOK
370
35
 48
0.05
100
AcDbPolyline
 90
2
 70
0
 10
9.3745
 20
-0.417
 10
9.2255
 20
-0.417
  0
LWPOLYLINE
  5
21C
330
17
100
AcDbEntity
  8
A-WIDOK
370
35
 48
0.05
100
AcDbPolyline
 90
2
 70
0
 10
9.5745
 20
-0.417
 10
9.4255
 20
-0.417
  0
LWPOLYLINE
  5
21D
330
17
100
AcDbEntity
  8
A-WIDOK
370
35
 48
0.05
100
AcDbPolyline
 90
2
 70
0
 10
9.7745
 20
-0.417
 10
9.6255
 20
-0.417
  0
LWPOLYLINE
  5
21E
330
17
100
AcDbEntity
  8
A-WIDOK
370
35
 48
0.05
100
AcDbPolyline
 90
2
 70
0
 10
9.9745
 20
-0.417
 10
9.8255
 20
-0.417
  0
LWPOLYLINE
  5
21F
330
17
100
AcDbEntity
  8
A-WIDOK
370
35
 48
0.05
100
AcDbPolyline
 90
2
 70
0
 10
10.1745
 20
-0.417
 10
10.0255
 20
-0.417
  0
LWPOLYLINE
  5
220
330
17
100
AcDbEntity
  8
A-WIDOK
370
50
 48
0.05
100
AcDbPolyline
 90
4
 70
0
 10
7.785
 20
8.2975
 10
7.785
 20
8.337
 10
8.815
 20
8.337
 10
8.815
 20
8.2975
  0
LWPOLYLINE
  5
221
330
17
100
AcDbEntity
  8
A-WIDOK
370
35
 48
0.05
100
AcDbPolyline
 90
8
 70
0
 10
10.2975
 20
4.945
 10
13.92
 20
4.945
 10
13.92
 20
4.92
 10
13.945
 20
4.92
 10
13.945
 20
0.08
 10
13.92
 20
0.08
 10
13.92
 20
0.055
 10
10.2975
 20
0.055
  0
LWPOLYLINE
  5
222
330
17
100
AcDbEntity
  8
A-WIDOK
370
35
 48
0.05
100
AcDbPolyline
 90
4
 70
0
 10
10.2975
 20
0.105
 10
13.895
 20
0.105
 10
13.895
 20
4.895
 10
10.2975
 20
4.895
  0
LWPOLYLINE
  5
223
330
17
100
AcDbEntity
  8
A-WIDOK
370
50
 48
0.05
100
AcDbPolyline
 90
4
 70
0
 10
-0.2975
 20
0.985
 10
-0.337
 20
0.985
 10
-0.337
 20
2.415
 10
-0.2975
 20
2.415
  0
LWPOLYLINE
  5
224
330
17
100
AcDbEntity
  8
A-WIDOK
370
50
 48
0.05
100
AcDbPolyline
 90
4
 70
0
 10
0.985
 20
8.2975
 10
0.985
 20
8.337
 10
2.815
 20
8.337
 10
2.815
 20
8.2975
  0
LWPOLYLINE
  5
225
330
17
100
AcDbEntity
  8
A-WIDOK
370
50
 48
0.05
100
AcDbPolyline
 90
4
 70
0
 10
4.585
 20
8.2975
 10
4.585
 20
8.337
 10
6.215
 20
8.337
 10
6.215
 20
8.2975
  0
LWPOLYLINE
  5
226
330
17
100
AcDbEntity
  8
A-WIDOK
370
50
 48
0.05
100
AcDbPolyline
 90
4
 70
0
 10
3.415
 20
-0.2975
 10
3.415
 20
-0.337
 10
0.985
 20
-0.337
 10
0.985
 20
-0.2975
  0
LWPOLYLINE
  5
227
330
17
100
AcDbEntity
  8
A-WIDOK
370
35
 48
0.05
100
AcDbPolyline
 90
4
 70
0
 10
10.2975
 20
5.0
 10
14.0
 20
5.0
 10
14.0
 20
0.0
 10
10.2975
 20
0.0
  0
LWPOLYLINE
  5
228
330
17
100
AcDbEntity
  8
A-WIDOK
370
50
 48
0.05
100
AcDbPolyline
 90
3
 70
0
 10
10.2975
 20
7.015
 10
10.337
 20
7.015
 10
10.337
 20
5.0005
  0
LWPOLYLINE
  5
229
330
17
100
AcDbEntity
  8
A-WIDOK
370
50
 48
0.05
100
AcDbPolyline
 90
3
 70
0
 10
7.385
 20
8.2975
 10
7.385
 20
8.337
 10
7.7845
 20
8.337
  0
LWPOLYLINE
  5
22A
330
17
100
AcDbEntity
  8
A-WIDOK
370
50
 48
0.05
100
AcDbPolyline
 90
3
 70
0
 10
8.8155
 20
8.337
 10
9.015
 20
8.337
 10
9.015
 20
8.2975
  0
LWPOLYLINE
  5
22B
330
17
100
AcDbEntity
  8
A-WIDOK
370
50
 48
0.05
100
AcDbPolyline
 90
3
 70
0
 10
-0.337
 20
2.4155
 10
-0.337
 20
2.815
 10
-0.2975
 20
2.815
  0
LWPOLYLINE
  5
22C
330
17
100
AcDbEntity
  8
A-WIDOK
370
35
 48
0.05
100
AcDbPolyline
 90
4
 70
0
 10
10.297
 20
-0.4175
 10
10.297
 20
-3.3
 10
4.3
 20
-3.3
 10
4.3
 20
-0.4175
  0
LWPOLYLINE
  5
22D
330
17
100
AcDbEntity
  8
A-WIDOK
370
35
 48
0.05
100
AcDbPolyline
 90
2
 70
0
 10
4.3
 20
-0.3765
 10
4.3
 20
-0.2975
  0
LWPOLYLINE
  5
22E
330
17
100
AcDbEntity
  8
A-WIDOK
370
35
 48
0.05
100
AcDbPolyline
 90
2
 70
0
 10
10.297
 20
-0.2975
 10
10.297
 20
-0.3765
  0
HATCH
  5
22F
330
17
100
AcDbEntity
  8
A-PRZEKROJE
 62
7
420
0
100
AcDbHatch
 10
0.0
 20
0.0
 30
0.0
210
0.0
220
0.0
230
1.0
  2
SOLID
 70
1
 71
0
 91
1
 92
3
 72
0
 73
1
 93
3
 10
1.2993000000000001
 20
-5.550000000000001
 10
1.436240664102733
 20
-5.5208923632855145
 10
1.436240664102733
 20
-5.579107636714487
 97
0
 75
0
 76
1
 98
0
  0
HATCH
  5
230
330
17
100
AcDbEntity
  8
A-PRZEKROJE
 62
7
420
0
100
AcDbHatch
 10
0.0
 20
0.0
 30
0.0
210
0.0
220
0.0
230
1.0
  2
SOLID
 70
1
 71
0
 91
1
 92
3
 72
0
 73
1
 93
3
 10
1.2993000000000001
 20
10.587000000000002
 10
1.436240664102733
 20
10.616107636714489
 10
1.436240664102733
 20
10.557892363285514
 97
0
 75
0
 76
1
 98
0
  0
HATCH
  5
231
330
17
100
AcDbEntity
  8
A-PRZEKROJE
 62
7
420
0
100
AcDbHatch
 10
0.0
 20
0.0
 30
0.0
210
0.0
220
0.0
230
1.0
  2
SOLID
 70
1
 71
0
 91
1
 92
3
 72
0
 73
1
 93
3
 10
-2.2369999999999997
 20
2.8007
 10
-2.2078923632855134
 20
2.663759335897267
 10
-2.266107636714486
 20
2.663759335897267
 97
0
 75
0
 76
1
 98
0
  0
HATCH
  5
232
330
17
100
AcDbEntity
  8
A-PRZEKROJE
 62
7
420
0
100
AcDbHatch
 10
0.0
 20
0.0
 30
0.0
210
0.0
220
0.0
230
1.0
  2
SOLID
 70
1
 71
0
 91
1
 92
3
 72
0
 73
1
 93
3
 10
16.25
 20
2.8007
 10
16.279107636714485
 20
2.663759335897267
 10
16.220892363285515
 20
2.663759335897267
 97
0
 75
0
 76
1
 98
0
  0
LWPOLYLINE
  5
233
330
17
100
AcDbEntity
  8
A-PRZEKROJE
  6
PUNKTOWA
370
35
 48
0.05
100
AcDbPolyline
 90
2
 70
128
 10
1.5993000000000002
 20
-5.550000000000001
 10
1.5993000000000002
 20
10.587000000000002
  0
LWPOLYLINE
  5
234
330
17
100
AcDbEntity
  8
A-PRZEKROJE
  6
PUNKTOWA_KROTKA
370
70
 48
0.03
100
AcDbPolyline
 90
2
 70
128
 10
1.5993000000000002
 20
-5.550000000000001
 10
1.5993000000000002
 20
-5.050000000000001
  0
LWPOLYLINE
  5
235
330
17
100
AcDbEntity
  8
A-PRZEKROJE
  6
PUNKTOWA_KROTKA
370
70
 48
0.03
100
AcDbPolyline
 90
2
 70
128
 10
1.5993000000000002
 20
10.587000000000002
 10
1.5993000000000002
 20
10.087000000000002
  0
LWPOLYLINE
  5
236
330
17
100
AcDbEntity
  8
A-PRZEKROJE
  6
Continuous
370
70
 48
0.05
100
AcDbPolyline
 90
2
 70
128
 10
1.5993000000000002
 20
-5.550000000000001
 10
1.4243000000000001
 20
-5.550000000000001
  0
LWPOLYLINE
  5
237
330
17
100
AcDbEntity
  8
A-PRZEKROJE
370
50
 48
0.05
100
AcDbPolyline
 90
3
 70
129
 10
1.2993000000000001
 20
-5.550000000000001
 10
1.436240664102733
 20
-5.5208923632855145
 10
1.436240664102733
 20
-5.579107636714487
  0
LWPOLYLINE
  5
238
330
17
100
AcDbEntity
  8
A-PRZEKROJE
  6
Continuous
370
70
 48
0.05
100
AcDbPolyline
 90
2
 70
128
 10
1.5993000000000002
 20
10.587000000000002
 10
1.4243000000000001
 20
10.587000000000002
  0
LWPOLYLINE
  5
239
330
17
100
AcDbEntity
  8
A-PRZEKROJE
370
50
 48
0.05
100
AcDbPolyline
 90
3
 70
129
 10
1.2993000000000001
 20
10.587000000000002
 10
1.436240664102733
 20
10.616107636714489
 10
1.436240664102733
 20
10.557892363285514
  0
LWPOLYLINE
  5
23A
330
17
100
AcDbEntity
  8
A-PRZEKROJE
  6
PUNKTOWA
370
35
 48
0.05
100
AcDbPolyline
 90
2
 70
128
 10
-2.2369999999999997
 20
2.5007
 10
16.25
 20
2.5007
  0
LWPOLYLINE
  5
23B
330
17
100
AcDbEntity
  8
A-PRZEKROJE
  6
PUNKTOWA_KROTKA
370
70
 48
0.03
100
AcDbPolyline
 90
2
 70
128
 10
-2.2369999999999997
 20
2.5007
 10
-1.7369999999999997
 20
2.5007
  0
LWPOLYLINE
  5
23C
330
17
100
AcDbEntity
  8
A-PRZEKROJE
  6
PUNKTOWA_KROTKA
370
70
 48
0.03
100
AcDbPolyline
 90
2
 70
128
 10
16.25
 20
2.5007
 10
15.75
 20
2.5007
  0
LWPOLYLINE
  5
23D
330
17
100
AcDbEntity
  8
A-PRZEKROJE
  6
Continuous
370
70
 48
0.05
100
AcDbPolyline
 90
2
 70
128
 10
-2.2369999999999997
 20
2.5007
 10
-2.2369999999999997
 20
2.6757
  0
LWPOLYLINE
  5
23E
330
17
100
AcDbEntity
  8
A-PRZEKROJE
370
50
 48
0.05
100
AcDbPolyline
 90
3
 70
129
 10
-2.2369999999999997
 20
2.8007
 10
-2.2078923632855134
 20
2.663759335897267
 10
-2.266107636714486
 20
2.663759335897267
  0
LWPOLYLINE
  5
23F
330
17
100
AcDbEntity
  8
A-PRZEKROJE
  6
Continuous
370
70
 48
0.05
100
AcDbPolyline
 90
2
 70
128
 10
16.25
 20
2.5007
 10
16.25
 20
2.6757
  0
LWPOLYLINE
  5
240
330
17
100
AcDbEntity
  8
A-PRZEKROJE
370
50
 48
0.05
100
AcDbPolyline
 90
3
 70
129
 10
16.25
 20
2.8007
 10
16.279107636714485
 20
2.663759335897267
 10
16.220892363285515
 20
2.663759335897267
  0
LWPOLYLINE
  5
241
330
17
100
AcDbEntity
  8
A-RZEDNE
370
35
 48
0.05
100
AcDbPolyline
 90
2
 70
0
 10
4.079314575050763
 20
4.035685424949238
 10
4.189314575050762
 20
4.145685424949238
  0
LWPOLYLINE
  5
242
330
17
100
AcDbEntity
  8
A-RZEDNE
370
35
 48
0.05
100
AcDbPolyline
 90
2
 70
0
 10
4.079314575050763
 20
4.145685424949238
 10
4.189314575050762
 20
4.035685424949238
  0
LWPOLYLINE
  5
243
330
17
100
AcDbEntity
  8
A-RZEDNE
370
35
 48
0.05
100
AcDbPolyline
 90
2
 70
0
 10
4.134314575050762
 20
4.090685424949238
 10
4.850068606393029
 20
4.090685424949238
  0
LWPOLYLINE
  5
244
330
17
100
AcDbEntity
  8
A-RZEDNE
370
35
 48
0.05
100
AcDbPolyline
 90
2
 70
0
 10
1.6909999999999998
 20
-0.14500000000000002
 10
1.8009999999999997
 20
-0.03499999999999999
  0
LWPOLYLINE
  5
245
330
17
100
AcDbEntity
  8
A-RZEDNE
370
35
 48
0.05
100
AcDbPolyline
 90
2
 70
0
 10
1.6909999999999998
 20
-0.03499999999999999
 10
1.8009999999999997
 20
-0.14500000000000002
  0
LWPOLYLINE
  5
246
330
17
100
AcDbEntity
  8
A-RZEDNE
370
35
 48
0.05
100
AcDbPolyline
 90
2
 70
0
 10
1.7459999999999998
 20
-0.09
 10
2.4617540313422666
 20
-0.09
  0
LWPOLYLINE
  5
247
330
17
100
AcDbEntity
  8
A-RZEDNE
370
35
 48
0.05
100
AcDbPolyline
 90
2
 70
0
 10
11.99
 20
2.445
 10
12.1
 20
2.555
  0
LWPOLYLINE
  5
248
330
17
100
AcDbEntity
  8
A-RZEDNE
370
35
 48
0.05
100
AcDbPolyline
 90
2
 70
0
 10
11.99
 20
2.555
 10
12.1
 20
2.445
  0
LWPOLYLINE
  5
249
330
17
100
AcDbEntity
  8
A-RZEDNE
370
35
 48
0.05
100
AcDbPolyline
 90
2
 70
0
 10
12.045
 20
2.5
 10
12.760754031342266
 20
2.5
  0
LWPOLYLINE
  5
24A
330
17
100
AcDbEntity
  8
A-WYMIARY
370
35
 48
0.05
100
AcDbPolyline
 90
2
 70
0
 10
-0.397
 20
-3.8
 10
14.1
 20
-3.8
  0
LWPOLYLINE
  5
24B
330
17
100
AcDbEntity
  8
A-WYMIARY
370
35
 48
0.05
100
AcDbPolyline
 90
2
 70
0
 10
-0.297
 20
-3.6999999999999997
 10
-0.297
 20
-3.9
  0
LWPOLYLINE
  5
24C
330
17
100
AcDbEntity
  8
A-WYMIARY
370
35
 48
0.05
100
AcDbPolyline
 90
2
 70
0
 10
-0.35003300858899106
 20
-3.853033008588991
 10
-0.24396699141100892
 20
-3.746966991411009
  0
LWPOLYLINE
  5
24D
330
17
100
AcDbEntity
  8
A-WYMIARY
370
35
 48
0.05
100
AcDbPolyline
 90
2
 70
0
 10
10.297
 20
-3.6999999999999997
 10
10.297
 20
-3.9
  0
LWPOLYLINE
  5
24E
330
17
100
AcDbEntity
  8
A-WYMIARY
370
35
 48
0.05
100
AcDbPolyline
 90
2
 70
0
 10
10.243966991411009
 20
-3.853033008588991
 10
10.350033008588992
 20
-3.746966991411009
  0
LWPOLYLINE
  5
24F
330
17
100
AcDbEntity
  8
A-WYMIARY
370
35
 48
0.05
100
AcDbPolyline
 90
2
 70
0
 10
14.0
 20
-3.6999999999999997
 10
14.0
 20
-3.9
  0
LWPOLYLINE
  5
250
330
17
100
AcDbEntity
  8
A-WYMIARY
370
35
 48
0.05
100
AcDbPolyline
 90
2
 70
0
 10
13.946966991411008
 20
-3.853033008588991
 10
14.053033008588992
 20
-3.746966991411009
  0
LWPOLYLINE
  5
251
330
17
100
AcDbEntity
  8
A-WYMIARY
370
35
 48
0.05
100
AcDbPolyline
 90
2
 70
0
 10
-0.1
 20
-4.15
 10
10.1
 20
-4.15
  0
LWPOLYLINE
  5
252
330
17
100
AcDbEntity
  8
A-WYMIARY
370
35
 48
0.05
100
AcDbPolyline
 90
2
 70
0
 10
0.0
 20
-4.050000000000001
 10
0.0
 20
-4.25
  0
LWPOLYLINE
  5
253
330
17
100
AcDbEntity
  8
A-WYMIARY
370
35
 48
0.05
100
AcDbPolyline
 90
2
 70
0
 10
-0.05303300858899108
 20
-4.203033008588991
 10
0.05303300858899108
 20
-4.096966991411009
  0
LWPOLYLINE
  5
254
330
17
100
AcDbEntity
  8
A-WYMIARY
370
35
 48
0.05
100
AcDbPolyline
 90
2
 70
0
 10
4.2
 20
-4.050000000000001
 10
4.2
 20
-4.25
  0
LWPOLYLINE
  5
255
330
17
100
AcDbEntity
  8
A-WYMIARY
370
35
 48
0.05
100
AcDbPolyline
 90
2
 70
0
 10
4.146966991411009
 20
-4.203033008588991
 10
4.253033008588991
 20
-4.096966991411009
  0
LWPOLYLINE
  5
256
330
17
100
AcDbEntity
  8
A-WYMIARY
370
35
 48
0.05
100
AcDbPolyline
 90
2
 70
0
 10
7.0
 20
-4.050000000000001
 10
7.0
 20
-4.25
  0
LWPOLYLINE
  5
257
330
17
100
AcDbEntity
  8
A-WYMIARY
370
35
 48
0.05
100
AcDbPolyline
 90
2
 70
0
 10
6.946966991411009
 20
-4.203033008588991
 10
7.053033008588991
 20
-4.096966991411009
  0
LWPOLYLINE
  5
258
330
17
100
AcDbEntity
  8
A-WYMIARY
370
35
 48
0.05
100
AcDbPolyline
 90
2
 70
0
 10
10.0
 20
-4.050000000000001
 10
10.0
 20
-4.25
  0
LWPOLYLINE
  5
259
330
17
100
AcDbEntity
  8
A-WYMIARY
370
35
 48
0.05
100
AcDbPolyline
 90
2
 70
0
 10
9.946966991411008
 20
-4.203033008588991
 10
10.053033008588992
 20
-4.096966991411009
  0
LWPOLYLINE
  5
25A
330
17
100
AcDbEntity
  8
A-WYMIARY
370
35
 48
0.05
100
AcDbPolyline
 90
2
 70
0
 10
-0.397
 20
-4.5
 10
14.1
 20
-4.5
  0
LWPOLYLINE
  5
25B
330
17
100
AcDbEntity
  8
A-WYMIARY
370
35
 48
0.05
100
AcDbPolyline
 90
2
 70
0
 10
-0.297
 20
-4.4
 10
-0.297
 20
-4.6
  0
LWPOLYLINE
  5
25C
330
17
100
AcDbEntity
  8
A-WYMIARY
370
35
 48
0.05
100
AcDbPolyline
 90
2
 70
0
 10
-0.35003300858899106
 20
-4.553033008588991
 10
-0.24396699141100892
 20
-4.446966991411009
  0
LWPOLYLINE
  5
25D
330
17
100
AcDbEntity
  8
A-WYMIARY
370
35
 48
0.05
100
AcDbPolyline
 90
2
 70
0
 10
14.0
 20
-4.4
 10
14.0
 20
-4.6
  0
LWPOLYLINE
  5
25E
330
17
100
AcDbEntity
  8
A-WYMIARY
370
35
 48
0.05
100
AcDbPolyline
 90
2
 70
0
 10
13.946966991411008
 20
-4.553033008588991
 10
14.053033008588992
 20
-4.446966991411009
  0
LWPOLYLINE
  5
25F
330
17
100
AcDbEntity
  8
A-WYMIARY
370
35
 48
0.05
100
AcDbPolyline
 90
2
 70
0
 10
14.5
 20
-0.397
 10
14.5
 20
8.397
  0
LWPOLYLINE
  5
260
330
17
100
AcDbEntity
  8
A-WYMIARY
370
35
 48
0.05
100
AcDbPolyline
 90
2
 70
0
 10
14.4
 20
-0.297
 10
14.6
 20
-0.297
  0
LWPOLYLINE
  5
261
330
17
100
AcDbEntity
  8
A-WYMIARY
370
35
 48
0.05
100
AcDbPolyline
 90
2
 70
0
 10
14.553033008588992
 20
-0.35003300858899106
 10
14.446966991411008
 20
-0.24396699141100892
  0
LWPOLYLINE
  5
262
330
17
100
AcDbEntity
  8
A-WYMIARY
370
35
 48
0.05
100
AcDbPolyline
 90
2
 70
0
 10
14.4
 20
0.0
 10
14.6
 20
0.0
  0
LWPOLYLINE
  5
263
330
17
100
AcDbEntity
  8
A-WYMIARY
370
35
 48
0.05
100
AcDbPolyline
 90
2
 70
0
 10
14.553033008588992
 20
-0.05303300858899108
 10
14.446966991411008
 20
0.05303300858899108
  0
LWPOLYLINE
  5
264
330
17
100
AcDbEntity
  8
A-WYMIARY
370
35
 48
0.05
100
AcDbPolyline
 90
2
 70
0
 10
14.4
 20
5.0
 10
14.6
 20
5.0
  0
LWPOLYLINE
  5
265
330
17
100
AcDbEntity
  8
A-WYMIARY
370
35
 48
0.05
100
AcDbPolyline
 90
2
 70
0
 10
14.553033008588992
 20
4.946966991411009
 10
14.446966991411008
 20
5.053033008588991
  0
LWPOLYLINE
  5
266
330
17
100
AcDbEntity
  8
A-WYMIARY
370
35
 48
0.05
100
AcDbPolyline
 90
2
 70
0
 10
14.4
 20
8.297
 10
14.6
 20
8.297
  0
LWPOLYLINE
  5
267
330
17
100
AcDbEntity
  8
A-WYMIARY
370
35
 48
0.05
100
AcDbPolyline
 90
2
 70
0
 10
14.553033008588992
 20
8.243966991411009
 10
14.446966991411008
 20
8.350033008588992
  0
LWPOLYLINE
  5
268
330
17
100
AcDbEntity
  8
A-WYMIARY
370
35
 48
0.05
100
AcDbPolyline
 90
2
 70
0
 10
14.85
 20
-0.1
 10
14.85
 20
8.1
  0
LWPOLYLINE
  5
269
330
17
100
AcDbEntity
  8
A-WYMIARY
370
35
 48
0.05
100
AcDbPolyline
 90
2
 70
0
 10
14.75
 20
0.0
 10
14.95
 20
0.0
  0
LWPOLYLINE
  5
26A
330
17
100
AcDbEntity
  8
A-WYMIARY
370
35
 48
0.05
100
AcDbPolyline
 90
2
 70
0
 10
14.903033008588991
 20
-0.05303300858899108
 10
14.796966991411008
 20
0.05303300858899108
  0
LWPOLYLINE
  5
26B
330
17
100
AcDbEntity
  8
A-WYMIARY
370
35
 48
0.05
100
AcDbPolyline
 90
2
 70
0
 10
14.75
 20
3.2
 10
14.95
 20
3.2
  0
LWPOLYLINE
  5
26C
330
17
100
AcDbEntity
  8
A-WYMIARY
370
35
 48
0.05
100
AcDbPolyline
 90
2
 70
0
 10
14.903033008588991
 20
3.146966991411009
 10
14.796966991411008
 20
3.253033008588991
  0
LWPOLYLINE
  5
26D
330
17
100
AcDbEntity
  8
A-WYMIARY
370
35
 48
0.05
100
AcDbPolyline
 90
2
 70
0
 10
14.75
 20
4.5
 10
14.95
 20
4.5
  0
LWPOLYLINE
  5
26E
330
17
100
AcDbEntity
  8
A-WYMIARY
370
35
 48
0.05
100
AcDbPolyline
 90
2
 70
0
 10
14.903033008588991
 20
4.446966991411009
 10
14.796966991411008
 20
4.553033008588991
  0
LWPOLYLINE
  5
26F
330
17
100
AcDbEntity
  8
A-WYMIARY
370
35
 48
0.05
100
AcDbPolyline
 90
2
 70
0
 10
14.75
 20
8.0
 10
14.95
 20
8.0
  0
LWPOLYLINE
  5
270
330
17
100
AcDbEntity
  8
A-WYMIARY
370
35
 48
0.05
100
AcDbPolyline
 90
2
 70
0
 10
14.903033008588991
 20
7.946966991411009
 10
14.796966991411008
 20
8.053033008588992
  0
LWPOLYLINE
  5
271
330
17
100
AcDbEntity
  8
A-WYMIARY
370
35
 48
0.05
100
AcDbPolyline
 90
2
 70
0
 10
15.2
 20
-0.397
 10
15.2
 20
8.397
  0
LWPOLYLINE
  5
272
330
17
100
AcDbEntity
  8
A-WYMIARY
370
35
 48
0.05
100
AcDbPolyline
 90
2
 70
0
 10
15.1
 20
-0.297
 10
15.299999999999999
 20
-0.297
  0
LWPOLYLINE
  5
273
330
17
100
AcDbEntity
  8
A-WYMIARY
370
35
 48
0.05
100
AcDbPolyline
 90
2
 70
0
 10
15.253033008588991
 20
-0.35003300858899106
 10
15.146966991411007
 20
-0.24396699141100892
  0
LWPOLYLINE
  5
274
330
17
100
AcDbEntity
  8
A-WYMIARY
370
35
 48
0.05
100
AcDbPolyline
 90
2
 70
0
 10
15.1
 20
8.297
 10
15.299999999999999
 20
8.297
  0
LWPOLYLINE
  5
275
330
17
100
AcDbEntity
  8
A-WYMIARY
370
35
 48
0.05
100
AcDbPolyline
 90
2
 70
0
 10
15.253033008588991
 20
8.243966991411009
 10
15.146966991411007
 20
8.350033008588992
  0
LWPOLYLINE
  5
276
330
17
100
AcDbEntity
  8
A-WYMIARY
370
35
 48
0.05
100
AcDbPolyline
 90
2
 70
0
 10
-0.397
 20
8.837
 10
14.1
 20
8.837
  0
LWPOLYLINE
  5
277
330
17
100
AcDbEntity
  8
A-WYMIARY
370
35
 48
0.05
100
AcDbPolyline
 90
2
 70
0
 10
-0.297
 20
8.737
 10
-0.297
 20
8.937
  0
LWPOLYLINE
  5
278
330
17
100
AcDbEntity
  8
A-WYMIARY
370
35
 48
0.05
100
AcDbPolyline
 90
2
 70
0
 10
-0.35003300858899106
 20
8.783966991411008
 10
-0.24396699141100892
 20
8.890033008588992
  0
LWPOLYLINE
  5
279
330
17
100
AcDbEntity
  8
A-WYMIARY
370
35
 48
0.05
100
AcDbPolyline
 90
2
 70
0
 10
10.297
 20
8.737
 10
10.297
 20
8.937
  0
LWPOLYLINE
  5
27A
330
17
100
AcDbEntity
  8
A-WYMIARY
370
35
 48
0.05
100
AcDbPolyline
 90
2
 70
0
 10
10.243966991411009
 20
8.783966991411008
 10
10.350033008588992
 20
8.890033008588992
  0
LWPOLYLINE
  5
27B
330
17
100
AcDbEntity
  8
A-WYMIARY
370
35
 48
0.05
100
AcDbPolyline
 90
2
 70
0
 10
14.0
 20
8.737
 10
14.0
 20
8.937
  0
LWPOLYLINE
  5
27C
330
17
100
AcDbEntity
  8
A-WYMIARY
370
35
 48
0.05
100
AcDbPolyline
 90
2
 70
0
 10
13.946966991411008
 20
8.783966991411008
 10
14.053033008588992
 20
8.890033008588992
  0
LWPOLYLINE
  5
27D
330
17
100
AcDbEntity
  8
A-WYMIARY
370
35
 48
0.05
100
AcDbPolyline
 90
2
 70
0
 10
-0.1
 20
9.187
 10
10.1
 20
9.187
  0
LWPOLYLINE
  5
27E
330
17
100
AcDbEntity
  8
A-WYMIARY
370
35
 48
0.05
100
AcDbPolyline
 90
2
 70
0
 10
0.0
 20
9.087
 10
0.0
 20
9.286999999999999
  0
LWPOLYLINE
  5
27F
330
17
100
AcDbEntity
  8
A-WYMIARY
370
35
 48
0.05
100
AcDbPolyline
 90
2
 70
0
 10
-0.05303300858899108
 20
9.133966991411008
 10
0.05303300858899108
 20
9.240033008588991
  0
LWPOLYLINE
  5
280
330
17
100
AcDbEntity
  8
A-WYMIARY
370
35
 48
0.05
100
AcDbPolyline
 90
2
 70
0
 10
4.2
 20
9.087
 10
4.2
 20
9.286999999999999
  0
LWPOLYLINE
  5
281
330
17
100
AcDbEntity
  8
A-WYMIARY
370
35
 48
0.05
100
AcDbPolyline
 90
2
 70
0
 10
4.146966991411009
 20
9.133966991411008
 10
4.253033008588991
 20
9.240033008588991
  0
LWPOLYLINE
  5
282
330
17
100
AcDbEntity
  8
A-WYMIARY
370
35
 48
0.05
100
AcDbPolyline
 90
2
 70
0
 10
7.0
 20
9.087
 10
7.0
 20
9.286999999999999
  0
LWPOLYLINE
  5
283
330
17
100
AcDbEntity
  8
A-WYMIARY
370
35
 48
0.05
100
AcDbPolyline
 90
2
 70
0
 10
6.946966991411009
 20
9.133966991411008
 10
7.053033008588991
 20
9.240033008588991
  0
LWPOLYLINE
  5
284
330
17
100
AcDbEntity
  8
A-WYMIARY
370
35
 48
0.05
100
AcDbPolyline
 90
2
 70
0
 10
10.0
 20
9.087
 10
10.0
 20
9.286999999999999
  0
LWPOLYLINE
  5
285
330
17
100
AcDbEntity
  8
A-WYMIARY
370
35
 48
0.05
100
AcDbPolyline
 90
2
 70
0
 10
9.946966991411008
 20
9.133966991411008
 10
10.053033008588992
 20
9.240033008588991
  0
LWPOLYLINE
  5
286
330
17
100
AcDbEntity
  8
A-WYMIARY
370
35
 48
0.05
100
AcDbPolyline
 90
2
 70
0
 10
-0.397
 20
9.536999999999999
 10
14.1
 20
9.536999999999999
  0
LWPOLYLINE
  5
287
330
17
100
AcDbEntity
  8
A-WYMIARY
370
35
 48
0.05
100
AcDbPolyline
 90
2
 70
0
 10
-0.297
 20
9.437
 10
-0.297
 20
9.636999999999999
  0
LWPOLYLINE
  5
288
330
17
100
AcDbEntity
  8
A-WYMIARY
370
35
 48
0.05
100
AcDbPolyline
 90
2
 70
0
 10
-0.35003300858899106
 20
9.483966991411007
 10
-0.24396699141100892
 20
9.59003300858899
  0
LWPOLYLINE
  5
289
330
17
100
AcDbEntity
  8
A-WYMIARY
370
35
 48
0.05
100
AcDbPolyline
 90
2
 70
0
 10
14.0
 20
9.437
 10
14.0
 20
9.636999999999999
  0
LWPOLYLINE
  5
28A
330
17
100
AcDbEntity
  8
A-WYMIARY
370
35
 48
0.05
100
AcDbPolyline
 90
2
 70
0
 10
13.946966991411008
 20
9.483966991411007
 10
14.053033008588992
 20
9.59003300858899
  0
LWPOLYLINE
  5
28B
330
17
100
AcDbEntity
  8
A-WYMIARY
370
35
 48
0.05
100
AcDbPolyline
 90
2
 70
0
 10
-0.837
 20
-0.1
 10
-0.837
 20
8.1
  0
LWPOLYLINE
  5
28C
330
17
100
AcDbEntity
  8
A-WYMIARY
370
35
 48
0.05
100
AcDbPolyline
 90
2
 70
0
 10
-0.737
 20
0.0
 10
-0.9369999999999999
 20
0.0
  0
LWPOLYLINE
  5
28D
330
17
100
AcDbEntity
  8
A-WYMIARY
370
35
 48
0.05
100
AcDbPolyline
 90
2
 70
0
 10
-0.7839669914110089
 20
-0.05303300858899108
 10
-0.890033008588991
 20
0.05303300858899108
  0
LWPOLYLINE
  5
28E
330
17
100
AcDbEntity
  8
A-WYMIARY
370
35
 48
0.05
100
AcDbPolyline
 90
2
 70
0
 10
-0.737
 20
3.2
 10
-0.9369999999999999
 20
3.2
  0
LWPOLYLINE
  5
28F
330
17
100
AcDbEntity
  8
A-WYMIARY
370
35
 48
0.05
100
AcDbPolyline
 90
2
 70
0
 10
-0.7839669914110089
 20
3.146966991411009
 10
-0.890033008588991
 20
3.253033008588991
  0
LWPOLYLINE
  5
290
330
17
100
AcDbEntity
  8
A-WYMIARY
370
35
 48
0.05
100
AcDbPolyline
 90
2
 70
0
 10
-0.737
 20
4.5
 10
-0.9369999999999999
 20
4.5
  0
LWPOLYLINE
  5
291
330
17
100
AcDbEntity
  8
A-WYMIARY
370
35
 48
0.05
100
AcDbPolyline
 90
2
 70
0
 10
-0.7839669914110089
 20
4.446966991411009
 10
-0.890033008588991
 20
4.553033008588991
  0
LWPOLYLINE
  5
292
330
17
100
AcDbEntity
  8
A-WYMIARY
370
35
 48
0.05
100
AcDbPolyline
 90
2
 70
0
 10
-0.737
 20
8.0
 10
-0.9369999999999999
 20
8.0
  0
LWPOLYLINE
  5
293
330
17
100
AcDbEntity
  8
A-WYMIARY
370
35
 48
0.05
100
AcDbPolyline
 90
2
 70
0
 10
-0.7839669914110089
 20
7.946966991411009
 10
-0.890033008588991
 20
8.053033008588992
  0
LWPOLYLINE
  5
294
330
17
100
AcDbEntity
  8
A-WYMIARY
370
35
 48
0.05
100
AcDbPolyline
 90
2
 70
0
 10
-1.187
 20
-0.397
 10
-1.187
 20
8.397
  0
LWPOLYLINE
  5
295
330
17
100
AcDbEntity
  8
A-WYMIARY
370
35
 48
0.05
100
AcDbPolyline
 90
2
 70
0
 10
-1.087
 20
-0.297
 10
-1.2870000000000001
 20
-0.297
  0
LWPOLYLINE
  5
296
330
17
100
AcDbEntity
  8
A-WYMIARY
370
35
 48
0.05
100
AcDbPolyline
 90
2
 70
0
 10
-1.1339669914110089
 20
-0.35003300858899106
 10
-1.2400330085889912
 20
-0.24396699141100892
  0
LWPOLYLINE
  5
297
330
17
100
AcDbEntity
  8
A-WYMIARY
370
35
 48
0.05
100
AcDbPolyline
 90
2
 70
0
 10
-1.087
 20
8.297
 10
-1.2870000000000001
 20
8.297
  0
LWPOLYLINE
  5
298
330
17
100
AcDbEntity
  8
A-WYMIARY
370
35
 48
0.05
100
AcDbPolyline
 90
2
 70
0
 10
-1.1339669914110089
 20
8.243966991411009
 10
-1.2400330085889912
 20
8.350033008588992
  0
HATCH
  5
299
330
17
100
AcDbEntity
  8
A-SYMBOLE
 62
7
420
0
100
AcDbHatch
 10
0.0
 20
0.0
 30
0.0
210
0.0
220
0.0
230
1.0
  2
SOLID
 70
1
 71
0
 91
1
 92
3
 72
0
 73
1
 93
3
 10
3.79
 20
4.0
 10
3.662388466151804
 20
3.9751948306010494
 10
3.662388466151804
 20
4.024805169398951
 97
0
 75
0
 76
1
 98
0
  0
HATCH
  5
29A
330
17
100
AcDbEntity
  8
A-SYMBOLE
 62
7
420
0
100
AcDbHatch
 10
0.0
 20
0.0
 30
0.0
210
0.0
220
0.0
230
1.0
  2
SOLID
 70
1
 71
0
 91
1
 92
3
 72
0
 73
1
 93
3
 10
6.21
 20
4.0
 10
6.337611533848197
 20
4.024805169398951
 10
6.337611533848197
 20
3.9751948306010494
 97
0
 75
0
 76
1
 98
0
  0
HATCH
  5
29B
330
17
100
AcDbEntity
  8
A-SYMBOLE
 62
7
420
0
100
AcDbHatch
 10
0.0
 20
0.0
 30
0.0
210
0.0
220
0.0
230
1.0
  2
SOLID
 70
1
 71
0
 91
1
 92
3
 72
0
 73
1
 93
3
 10
5.0
 20
3.04
 10
5.024805169398951
 20
2.912388466151804
 10
4.975194830601049
 20
2.912388466151804
 97
0
 75
0
 76
1
 98
0
  0
HATCH
  5
29C
330
17
100
AcDbEntity
  8
A-SYMBOLE
 62
7
420
0
100
AcDbHatch
 10
0.0
 20
0.0
 30
0.0
210
0.0
220
0.0
230
1.0
  2
SOLID
 70
1
 71
0
 91
1
 92
3
 72
0
 73
1
 93
3
 10
5.0
 20
4.96
 10
4.975194830601049
 20
5.087611533848197
 10
5.024805169398951
 20
5.087611533848197
 97
0
 75
0
 76
1
 98
0
  0
LWPOLYLINE
  5
29D
330
17
100
AcDbEntity
  8
A-SYMBOLE
370
35
 48
0.05
100
AcDbPolyline
 90
4
 70
1
 10
4.9
 20
3.9
 10
5.1
 20
3.9
 10
5.1
 20
4.1
 10
4.9
 20
4.1
  0
LWPOLYLINE
  5
29E
330
17
100
AcDbEntity
  8
A-SYMBOLE
370
25
 48
0.05
100
AcDbPolyline
 90
2
 70
0
 10
4.9
 20
3.9
 10
5.1
 20
4.1
  0
LWPOLYLINE
  5
29F
330
17
100
AcDbEntity
  8
A-SYMBOLE
370
25
 48
0.05
100
AcDbPolyline
 90
2
 70
0
 10
5.1
 20
3.9
 10
4.9
 20
4.1
  0
CIRCLE
  5
2A0
330
17
100
AcDbEntity
  8
A-SYMBOLE
370
25
 48
0.05
100
AcDbCircle
 10
5.0
 20
4.0
 30
0.0
 40
0.05600000000000001
  0
LWPOLYLINE
  5
2A1
330
17
100
AcDbEntity
  8
A-SYMBOLE
370
35
 48
0.05
100
AcDbPolyline
 90
2
 70
0
 10
1.37
 20
4.0
 10
3.68
 20
4.0
  0
LWPOLYLINE
  5
2A2
330
17
100
AcDbEntity
  8
A-SYMBOLE
370
35
 48
0.05
100
AcDbPolyline
 90
3
 70
1
 10
3.79
 20
4.0
 10
3.662388466151804
 20
3.9751948306010494
 10
3.662388466151804
 20
4.024805169398951
  0
LWPOLYLINE
  5
2A3
330
17
100
AcDbEntity
  8
A-SYMBOLE
370
35
 48
0.05
100
AcDbPolyline
 90
2
 70
0
 10
8.629999999999999
 20
4.0
 10
6.32
 20
4.0
  0
LWPOLYLINE
  5
2A4
330
17
100
AcDbEntity
  8
A-SYMBOLE
370
35
 48
0.05
100
AcDbPolyline
 90
3
 70
1
 10
6.21
 20
4.0
 10
6.337611533848197
 20
4.024805169398951
 10
6.337611533848197
 20
3.9751948306010494
  0
LWPOLYLINE
  5
2A5
330
17
100
AcDbEntity
  8
A-SYMBOLE
370
35
 48
0.05
100
AcDbPolyline
 90
2
 70
0
 10
5.0
 20
1.12
 10
5.0
 20
2.93
  0
LWPOLYLINE
  5
2A6
330
17
100
AcDbEntity
  8
A-SYMBOLE
370
35
 48
0.05
100
AcDbPolyline
 90
3
 70
1
 10
5.0
 20
3.04
 10
5.024805169398951
 20
2.912388466151804
 10
4.975194830601049
 20
2.912388466151804
  0
LWPOLYLINE
  5
2A7
330
17
100
AcDbEntity
  8
A-SYMBOLE
370
35
 48
0.05
100
AcDbPolyline
 90
2
 70
0
 10
5.0
 20
6.88
 10
5.0
 20
5.07
  0
LWPOLYLINE
  5
2A8
330
17
100
AcDbEntity
  8
A-SYMBOLE
370
35
 48
0.05
100
AcDbPolyline
 90
3
 70
1
 10
5.0
 20
4.96
 10
4.975194830601049
 20
5.087611533848197
 10
5.024805169398951
 20
5.087611533848197
  0
TEXT
  5
2A9
330
17
100
AcDbEntity
  8
A-PRZEKROJE
100
AcDbText
 10
1.303082648194413
 20
-5.906217351805588
 30
0.0
 40
0.25
  1
A
  7
PL_ARIAL_B
 11
1.303082648194413
 21
-5.906217351805588
 31
0.0
100
AcDbText
  0
TEXT
  5
2AA
330
17
100
AcDbEntity
  8
A-PRZEKROJE
100
AcDbText
 10
1.303082648194413
 20
10.693217351805588
 30
0.0
 40
0.25
  1
A
  7
PL_ARIAL_B
 11
1.303082648194413
 21
10.693217351805588
 31
0.0
100
AcDbText
  0
TEXT
  5
2AB
330
17
100
AcDbEntity
  8
A-PRZEKROJE
100
AcDbText
 10
-2.599434703611174
 20
2.5407
 30
0.0
 40
0.25
  1
B
  7
PL_ARIAL_B
 11
-2.599434703611174
 21
2.5407
 31
0.0
100
AcDbText
  0
TEXT
  5
2AC
330
17
100
AcDbEntity
  8
A-PRZEKROJE
100
AcDbText
 10
16.349999999999998
 20
2.5407
 30
0.0
 40
0.25
  1
B
  7
PL_ARIAL_B
 11
16.349999999999998
 21
2.5407
 31
0.0
100
AcDbText
  0
TEXT
  5
2AD
330
17
100
AcDbEntity
  8
A-RZEDNE
100
AcDbText
 10
4.229314575050762
 20
4.130685424949238
 30
0.0
 40
0.125
  1
+6,193
  7
PL_ARIAL
 11
4.229314575050762
 21
4.130685424949238
 31
0.0
100
AcDbText
  0
TEXT
  5
2AE
330
17
100
AcDbEntity
  8
A-RZEDNE
100
AcDbText
 10
1.8409999999999997
 20
-0.04999999999999999
 30
0.0
 40
0.125
  1
+6,493
  7
PL_ARIAL
 11
1.8409999999999997
 21
-0.04999999999999999
 31
0.0
100
AcDbText
  0
TEXT
  5
2AF
330
17
100
AcDbEntity
  8
A-RZEDNE
100
AcDbText
 10
12.14
 20
2.54
 30
0.0
 40
0.125
  1
+2,910
  7
PL_ARIAL
 11
12.14
 21
2.54
 31
0.0
100
AcDbText
  0
HATCH
  5
2B0
330
17
100
AcDbEntity
  8
A-MASKA
 62
7
420
16777215
100
AcDbHatch
 10
0.0
 20
0.0
 30
0.0
210
0.0
220
0.0
230
1.0
  2
SOLID
 70
1
 71
0
 91
1
 92
3
 72
0
 73
1
 93
4
 10
4.742797808312514
 20
-3.7925
 10
5.257202191687486
 20
-3.7925
 10
5.257202191687486
 20
-3.5825
 10
4.742797808312514
 20
-3.5825
 97
0
 75
0
 76
1
 98
0
  0
TEXT
  5
2B1
330
17
100
AcDbEntity
  8
A-WYMIARY
100
AcDbText
 10
4.757797808312514
 20
-3.75
 30
0.0
 40
0.125
  1
1059
  7
PL_ARIAL
 11
4.757797808312514
 21
-3.75
 31
0.0
100
AcDbText
  0
TEXT
  5
2B2
330
17
100
AcDbEntity
  8
A-WYMIARY
100
AcDbText
 10
5.169454065409948
 20
-3.6875
 30
0.0
 40
0.09000000000000001
  1
4
  7
PL_ARIAL
 11
5.169454065409948
 21
-3.6875
 31
0.0
100
AcDbText
  0
HATCH
  5
2B3
330
17
100
AcDbEntity
  8
A-MASKA
 62
7
420
16777215
100
AcDbHatch
 10
0.0
 20
0.0
 30
0.0
210
0.0
220
0.0
230
1.0
  2
SOLID
 70
1
 71
0
 91
1
 92
3
 72
0
 73
1
 93
4
 10
11.941817340449694
 20
-3.7925
 10
12.355182659550307
 20
-3.7925
 10
12.355182659550307
 20
-3.5825
 10
11.941817340449694
 20
-3.5825
 97
0
 75
0
 76
1
 98
0
  0
TEXT
  5
2B4
330
17
100
AcDbEntity
  8
A-WYMIARY
100
AcDbText
 10
11.956817340449694
 20
-3.75
 30
0.0
 40
0.125
  1
370
  7
PL_ARIAL
 11
11.956817340449694
 21
-3.75
 31
0.0
100
AcDbText
  0
TEXT
  5
2B5
330
17
100
AcDbEntity
  8
A-WYMIARY
100
AcDbText
 10
12.26743453327277
 20
-3.6875
 30
0.0
 40
0.09000000000000001
  1
3
  7
PL_ARIAL
 11
12.26743453327277
 21
-3.6875
 31
0.0
100
AcDbText
  0
HATCH
  5
2B6
330
17
100
AcDbEntity
  8
A-MASKA
 62
7
420
16777215
100
AcDbHatch
 10
0.0
 20
0.0
 30
0.0
210
0.0
220
0.0
230
1.0
  2
SOLID
 70
1
 71
0
 91
1
 92
3
 72
0
 73
1
 93
4
 10
1.9334414035884624
 20
-4.142500000000001
 10
2.266558596411538
 20
-4.142500000000001
 10
2.266558596411538
 20
-3.9600000000000004
 10
1.9334414035884624
 20
-3.9600000000000004
 97
0
 75
0
 76
1
 98
0
  0
TEXT
  5
2B7
330
17
100
AcDbEntity
  8
A-WYMIARY
100
AcDbText
 10
1.9484414035884625
 20
-4.1000000000000005
 30
0.0
 40
0.125
  1
420
  7
PL_ARIAL
 11
1.9484414035884625
 21
-4.1000000000000005
 31
0.0
100
AcDbText
  0
HATCH
  5
2B8
330
17
100
AcDbEntity
  8
A-MASKA
 62
7
420
16777215
100
AcDbHatch
 10
0.0
 20
0.0
 30
0.0
210
0.0
220
0.0
230
1.0
  2
SOLID
 70
1
 71
0
 91
1
 92
3
 72
0
 73
1
 93
4
 10
5.433441403588462
 20
-4.142500000000001
 10
5.766558596411537
 20
-4.142500000000001
 10
5.766558596411537
 20
-3.9600000000000004
 10
5.433441403588462
 20
-3.9600000000000004
 97
0
 75
0
 76
1
 98
0
  0
TEXT
  5
2B9
330
17
100
AcDbEntity
  8
A-WYMIARY
100
AcDbText
 10
5.448441403588462
 20
-4.1000000000000005
 30
0.0
 40
0.125
  1
280
  7
PL_ARIAL
 11
5.448441403588462
 21
-4.1000000000000005
 31
0.0
100
AcDbText
  0
HATCH
  5
2BA
330
17
100
AcDbEntity
  8
A-MASKA
 62
7
420
16777215
100
AcDbHatch
 10
0.0
 20
0.0
 30
0.0
210
0.0
220
0.0
230
1.0
  2
SOLID
 70
1
 71
0
 91
1
 92
3
 72
0
 73
1
 93
4
 10
8.333441403588463
 20
-4.142500000000001
 10
8.666558596411537
 20
-4.142500000000001
 10
8.666558596411537
 20
-3.9600000000000004
 10
8.333441403588463
 20
-3.9600000000000004
 97
0
 75
0
 76
1
 98
0
  0
TEXT
  5
2BB
330
17
100
AcDbEntity
  8
A-WYMIARY
100
AcDbText
 10
8.348441403588462
 20
-4.1000000000000005
 30
0.0
 40
0.125
  1
300
  7
PL_ARIAL
 11
8.348441403588462
 21
-4.1000000000000005
 31
0.0
100
AcDbText
  0
HATCH
  5
2BC
330
17
100
AcDbEntity
  8
A-MASKA
 62
7
420
16777215
100
AcDbHatch
 10
0.0
 20
0.0
 30
0.0
210
0.0
220
0.0
230
1.0
  2
SOLID
 70
1
 71
0
 91
1
 92
3
 72
0
 73
1
 93
4
 10
6.594297808312514
 20
-4.492500000000001
 10
7.1087021916874855
 20
-4.492500000000001
 10
7.1087021916874855
 20
-4.282500000000001
 10
6.594297808312514
 20
-4.282500000000001
 97
0
 75
0
 76
1
 98
0
  0
TEXT
  5
2BD
330
17
100
AcDbEntity
  8
A-WYMIARY
100
AcDbText
 10
6.609297808312514
 20
-4.45
 30
0.0
 40
0.125
  1
1429
  7
PL_ARIAL
 11
6.609297808312514
 21
-4.45
 31
0.0
100
AcDbText
  0
TEXT
  5
2BE
330
17
100
AcDbEntity
  8
A-WYMIARY
100
AcDbText
 10
7.020954065409947
 20
-4.3875
 30
0.0
 40
0.09000000000000001
  1
7
  7
PL_ARIAL
 11
7.020954065409947
 21
-4.3875
 31
0.0
100
AcDbText
  0
HATCH
  5
2BF
330
17
100
AcDbEntity
  8
A-MASKA
 62
7
420
16777215
100
AcDbHatch
 10
0.0
 20
0.0
 30
0.0
210
0.0
220
0.0
230
1.0
  2
SOLID
 70
1
 71
0
 91
1
 92
3
 72
0
 73
1
 93
4
 10
14.4925
 20
0.05650000000000002
 10
14.4925
 20
0.36882625482625486
 10
14.282499999999999
 20
0.36882625482625486
 10
14.282499999999999
 20
0.05650000000000002
 97
0
 75
0
 76
1
 98
0
  0
TEXT
  5
2C0
330
17
100
AcDbEntity
  8
A-WYMIARY
100
AcDbText
 10
14.45
 20
0.07150000000000001
 30
0.0
 40
0.125
  1
29
 50
90.0
  7
PL_ARIAL
 11
14.45
 21
0.07150000000000001
 31
0.0
100
AcDbText
  0
TEXT
  5
2C1
330
17
100
AcDbEntity
  8
A-WYMIARY
100
AcDbText
 10
14.3875
 20
0.28107812854871683
 30
0.0
 40
0.09000000000000001
  1
7
 50
90.0
  7
PL_ARIAL
 11
14.3875
 21
0.28107812854871683
 31
0.0
100
AcDbText
  0
HATCH
  5
2C2
330
17
100
AcDbEntity
  8
A-MASKA
 62
7
420
16777215
100
AcDbHatch
 10
0.0
 20
0.0
 30
0.0
210
0.0
220
0.0
230
1.0
  2
SOLID
 70
1
 71
0
 91
1
 92
3
 72
0
 73
1
 93
4
 10
14.4925
 20
2.3334414035884623
 10
14.4925
 20
2.6665585964115377
 10
14.309999999999999
 20
2.6665585964115377
 10
14.309999999999999
 20
2.3334414035884623
 97
0
 75
0
 76
1
 98
0
  0
TEXT
  5
2C3
330
17
100
AcDbEntity
  8
A-WYMIARY
100
AcDbText
 10
14.45
 20
2.3484414035884624
 30
0.0
 40
0.125
  1
500
 50
90.0
  7
PL_ARIAL
 11
14.45
 21
2.3484414035884624
 31
0.0
100
AcDbText
  0
HATCH
  5
2C4
330
17
100
AcDbEntity
  8
A-MASKA
 62
7
420
16777215
100
AcDbHatch
 10
0.0
 20
0.0
 30
0.0
210
0.0
220
0.0
230
1.0
  2
SOLID
 70
1
 71
0
 91
1
 92
3
 72
0
 73
1
 93
4
 10
14.4925
 20
6.441817340449694
 10
14.4925
 20
6.855182659550307
 10
14.282499999999999
 20
6.855182659550307
 10
14.282499999999999
 20
6.441817340449694
 97
0
 75
0
 76
1
 98
0
  0
TEXT
  5
2C5
330
17
100
AcDbEntity
  8
A-WYMIARY
100
AcDbText
 10
14.45
 20
6.456817340449693
 30
0.0
 40
0.125
  1
329
 50
90.0
  7
PL_ARIAL
 11
14.45
 21
6.456817340449693
 31
0.0
100
AcDbText
  0
TEXT
  5
2C6
330
17
100
AcDbEntity
  8
A-WYMIARY
100
AcDbText
 10
14.3875
 20
6.767434533272769
 30
0.0
 40
0.09000000000000001
  1
7
 50
90.0
  7
PL_ARIAL
 11
14.3875
 21
6.767434533272769
 31
0.0
100
AcDbText
  0
HATCH
  5
2C7
330
17
100
AcDbEntity
  8
A-MASKA
 62
7
420
16777215
100
AcDbHatch
 10
0.0
 20
0.0
 30
0.0
210
0.0
220
0.0
230
1.0
  2
SOLID
 70
1
 71
0
 91
1
 92
3
 72
0
 73
1
 93
4
 10
14.8425
 20
1.4334414035884624
 10
14.8425
 20
1.7665585964115378
 10
14.659999999999998
 20
1.7665585964115378
 10
14.659999999999998
 20
1.4334414035884624
 97
0
 75
0
 76
1
 98
0
  0
TEXT
  5
2C8
330
17
100
AcDbEntity
  8
A-WYMIARY
100
AcDbText
 10
14.799999999999999
 20
1.4484414035884625
 30
0.0
 40
0.125
  1
320
 50
90.0
  7
PL_ARIAL
 11
14.799999999999999
 21
1.4484414035884625
 31
0.0
100
AcDbText
  0
HATCH
  5
2C9
330
17
100
AcDbEntity
  8
A-MASKA
 62
7
420
16777215
100
AcDbHatch
 10
0.0
 20
0.0
 30
0.0
210
0.0
220
0.0
230
1.0
  2
SOLID
 70
1
 71
0
 91
1
 92
3
 72
0
 73
1
 93
4
 10
14.8425
 20
3.6834414035884624
 10
14.8425
 20
4.016558596411538
 10
14.659999999999998
 20
4.016558596411538
 10
14.659999999999998
 20
3.6834414035884624
 97
0
 75
0
 76
1
 98
0
  0
TEXT
  5
2CA
330
17
100
AcDbEntity
  8
A-WYMIARY
100
AcDbText
 10
14.799999999999999
 20
3.6984414035884625
 30
0.0
 40
0.125
  1
130
 50
90.0
  7
PL_ARIAL
 11
14.799999999999999
 21
3.6984414035884625
 31
0.0
100
AcDbText
  0
HATCH
  5
2CB
330
17
100
AcDbEntity
  8
A-MASKA
 62
7
420
16777215
100
AcDbHatch
 10
0.0
 20
0.0
 30
0.0
210
0.0
220
0.0
230
1.0
  2
SOLID
 70
1
 71
0
 91
1
 92
3
 72
0
 73
1
 93
4
 10
14.8425
 20
6.083441403588463
 10
14.8425
 20
6.416558596411537
 10
14.659999999999998
 20
6.416558596411537
 10
14.659999999999998
 20
6.083441403588463
 97
0
 75
0
 76
1
 98
0
  0
TEXT
  5
2CC
330
17
100
AcDbEntity
  8
A-WYMIARY
100
AcDbText
 10
14.799999999999999
 20
6.098441403588462
 30
0.0
 40
0.125
  1
350
 50
90.0
  7
PL_ARIAL
 11
14.799999999999999
 21
6.098441403588462
 31
0.0
100
AcDbText
  0
HATCH
  5
2CD
330
17
100
AcDbEntity
  8
A-MASKA
 62
7
420
16777215
100
AcDbHatch
 10
0.0
 20
0.0
 30
0.0
210
0.0
220
0.0
230
1.0
  2
SOLID
 70
1
 71
0
 91
1
 92
3
 72
0
 73
1
 93
4
 10
15.192499999999999
 20
3.7933173404496934
 10
15.192499999999999
 20
4.206682659550307
 10
14.982499999999998
 20
4.206682659550307
 10
14.982499999999998
 20
3.7933173404496934
 97
0
 75
0
 76
1
 98
0
  0
TEXT
  5
2CE
330
17
100
AcDbEntity
  8
A-WYMIARY
100
AcDbText
 10
15.149999999999999
 20
3.8083173404496935
 30
0.0
 40
0.125
  1
859
 50
90.0
  7
PL_ARIAL
 11
15.149999999999999
 21
3.8083173404496935
 31
0.0
100
AcDbText
  0
TEXT
  5
2CF
330
17
100
AcDbEntity
  8
A-WYMIARY
100
AcDbText
 10
15.087499999999999
 20
4.1189345332727685
 30
0.0
 40
0.09000000000000001
  1
4
 50
90.0
  7
PL_ARIAL
 11
15.087499999999999
 21
4.1189345332727685
 31
0.0
100
AcDbText
  0
HATCH
  5
2D0
330
17
100
AcDbEntity
  8
A-MASKA
 62
7
420
16777215
100
AcDbHatch
 10
0.0
 20
0.0
 30
0.0
210
0.0
220
0.0
230
1.0
  2
SOLID
 70
1
 71
0
 91
1
 92
3
 72
0
 73
1
 93
4
 10
4.742797808312514
 20
8.8445
 10
5.257202191687486
 20
8.8445
 10
5.257202191687486
 20
9.0545
 10
4.742797808312514
 20
9.0545
 97
0
 75
0
 76
1
 98
0
  0
TEXT
  5
2D1
330
17
100
AcDbEntity
  8
A-WYMIARY
100
AcDbText
 10
4.757797808312514
 20
8.887
 30
0.0
 40
0.125
  1
1059
  7
PL_ARIAL
 11
4.757797808312514
 21
8.887
 31
0.0
100
AcDbText
  0
TEXT
  5
2D2
330
17
100
AcDbEntity
  8
A-WYMIARY
100
AcDbText
 10
5.169454065409948
 20
8.9495
 30
0.0
 40
0.09000000000000001
  1
4
  7
PL_ARIAL
 11
5.169454065409948
 21
8.9495
 31
0.0
100
AcDbText
  0
HATCH
  5
2D3
330
17
100
AcDbEntity
  8
A-MASKA
 62
7
420
16777215
100
AcDbHatch
 10
0.0
 20
0.0
 30
0.0
210
0.0
220
0.0
230
1.0
  2
SOLID
 70
1
 71
0
 91
1
 92
3
 72
0
 73
1
 93
4
 10
11.941817340449694
 20
8.8445
 10
12.355182659550307
 20
8.8445
 10
12.355182659550307
 20
9.0545
 10
11.941817340449694
 20
9.0545
 97
0
 75
0
 76
1
 98
0
  0
TEXT
  5
2D4
330
17
100
AcDbEntity
  8
A-WYMIARY
100
AcDbText
 10
11.956817340449694
 20
8.887
 30
0.0
 40
0.125
  1
370
  7
PL_ARIAL
 11
11.956817340449694
 21
8.887
 31
0.0
100
AcDbText
  0
TEXT
  5
2D5
330
17
100
AcDbEntity
  8
A-WYMIARY
100
AcDbText
 10
12.26743453327277
 20
8.9495
 30
0.0
 40
0.09000000000000001
  1
3
  7
PL_ARIAL
 11
12.26743453327277
 21
8.9495
 31
0.0
100
AcDbText
  0
HATCH
  5
2D6
330
17
100
AcDbEntity
  8
A-MASKA
 62
7
420
16777215
100
AcDbHatch
 10
0.0
 20
0.0
 30
0.0
210
0.0
220
0.0
230
1.0
  2
SOLID
 70
1
 71
0
 91
1
 92
3
 72
0
 73
1
 93
4
 10
1.9334414035884624
 20
9.1945
 10
2.266558596411538
 20
9.1945
 10
2.266558596411538
 20
9.377
 10
1.9334414035884624
 20
9.377
 97
0
 75
0
 76
1
 98
0
  0
TEXT
  5
2D7
330
17
100
AcDbEntity
  8
A-WYMIARY
100
AcDbText
 10
1.9484414035884625
 20
9.237
 30
0.0
 40
0.125
  1
420
  7
PL_ARIAL
 11
1.9484414035884625
 21
9.237
 31
0.0
100
AcDbText
  0
HATCH
  5
2D8
330
17
100
AcDbEntity
  8
A-MASKA
 62
7
420
16777215
100
AcDbHatch
 10
0.0
 20
0.0
 30
0.0
210
0.0
220
0.0
230
1.0
  2
SOLID
 70
1
 71
0
 91
1
 92
3
 72
0
 73
1
 93
4
 10
5.433441403588462
 20
9.1945
 10
5.766558596411537
 20
9.1945
 10
5.766558596411537
 20
9.377
 10
5.433441403588462
 20
9.377
 97
0
 75
0
 76
1
 98
0
  0
TEXT
  5
2D9
330
17
100
AcDbEntity
  8
A-WYMIARY
100
AcDbText
 10
5.448441403588462
 20
9.237
 30
0.0
 40
0.125
  1
280
  7
PL_ARIAL
 11
5.448441403588462
 21
9.237
 31
0.0
100
AcDbText
  0
HATCH
  5
2DA
330
17
100
AcDbEntity
  8
A-MASKA
 62
7
420
16777215
100
AcDbHatch
 10
0.0
 20
0.0
 30
0.0
210
0.0
220
0.0
230
1.0
  2
SOLID
 70
1
 71
0
 91
1
 92
3
 72
0
 73
1
 93
4
 10
8.333441403588463
 20
9.1945
 10
8.666558596411537
 20
9.1945
 10
8.666558596411537
 20
9.377
 10
8.333441403588463
 20
9.377
 97
0
 75
0
 76
1
 98
0
  0
TEXT
  5
2DB
330
17
100
AcDbEntity
  8
A-WYMIARY
100
AcDbText
 10
8.348441403588462
 20
9.237
 30
0.0
 40
0.125
  1
300
  7
PL_ARIAL
 11
8.348441403588462
 21
9.237
 31
0.0
100
AcDbText
  0
HATCH
  5
2DC
330
17
100
AcDbEntity
  8
A-MASKA
 62
7
420
16777215
100
AcDbHatch
 10
0.0
 20
0.0
 30
0.0
210
0.0
220
0.0
230
1.0
  2
SOLID
 70
1
 71
0
 91
1
 92
3
 72
0
 73
1
 93
4
 10
6.594297808312514
 20
9.5445
 10
7.1087021916874855
 20
9.5445
 10
7.1087021916874855
 20
9.7545
 10
6.594297808312514
 20
9.7545
 97
0
 75
0
 76
1
 98
0
  0
TEXT
  5
2DD
330
17
100
AcDbEntity
  8
A-WYMIARY
100
AcDbText
 10
6.609297808312514
 20
9.587
 30
0.0
 40
0.125
  1
1429
  7
PL_ARIAL
 11
6.609297808312514
 21
9.587
 31
0.0
100
AcDbText
  0
TEXT
  5
2DE
330
17
100
AcDbEntity
  8
A-WYMIARY
100
AcDbText
 10
7.020954065409947
 20
9.6495
 30
0.0
 40
0.09000000000000001
  1
7
  7
PL_ARIAL
 11
7.020954065409947
 21
9.6495
 31
0.0
100
AcDbText
  0
HATCH
  5
2DF
330
17
100
AcDbEntity
  8
A-MASKA
 62
7
420
16777215
100
AcDbHatch
 10
0.0
 20
0.0
 30
0.0
210
0.0
220
0.0
230
1.0
  2
SOLID
 70
1
 71
0
 91
1
 92
3
 72
0
 73
1
 93
4
 10
-0.8445
 20
1.4334414035884624
 10
-0.8445
 20
1.7665585964115378
 10
-1.027
 20
1.7665585964115378
 10
-1.027
 20
1.4334414035884624
 97
0
 75
0
 76
1
 98
0
  0
TEXT
  5
2E0
330
17
100
AcDbEntity
  8
A-WYMIARY
100
AcDbText
 10
-0.887
 20
1.4484414035884625
 30
0.0
 40
0.125
  1
320
 50
90.0
  7
PL_ARIAL
 11
-0.887
 21
1.4484414035884625
 31
0.0
100
AcDbText
  0
HATCH
  5
2E1
330
17
100
AcDbEntity
  8
A-MASKA
 62
7
420
16777215
100
AcDbHatch
 10
0.0
 20
0.0
 30
0.0
210
0.0
220
0.0
230
1.0
  2
SOLID
 70
1
 71
0
 91
1
 92
3
 72
0
 73
1
 93
4
 10
-0.8445
 20
3.6834414035884624
 10
-0.8445
 20
4.016558596411538
 10
-1.027
 20
4.016558596411538
 10
-1.027
 20
3.6834414035884624
 97
0
 75
0
 76
1
 98
0
  0
TEXT
  5
2E2
330
17
100
AcDbEntity
  8
A-WYMIARY
100
AcDbText
 10
-0.887
 20
3.6984414035884625
 30
0.0
 40
0.125
  1
130
 50
90.0
  7
PL_ARIAL
 11
-0.887
 21
3.6984414035884625
 31
0.0
100
AcDbText
  0
HATCH
  5
2E3
330
17
100
AcDbEntity
  8
A-MASKA
 62
7
420
16777215
100
AcDbHatch
 10
0.0
 20
0.0
 30
0.0
210
0.0
220
0.0
230
1.0
  2
SOLID
 70
1
 71
0
 91
1
 92
3
 72
0
 73
1
 93
4
 10
-0.8445
 20
6.083441403588463
 10
-0.8445
 20
6.416558596411537
 10
-1.027
 20
6.416558596411537
 10
-1.027
 20
6.083441403588463
 97
0
 75
0
 76
1
 98
0
  0
TEXT
  5
2E4
330
17
100
AcDbEntity
  8
A-WYMIARY
100
AcDbText
 10
-0.887
 20
6.098441403588462
 30
0.0
 40
0.125
  1
350
 50
90.0
  7
PL_ARIAL
 11
-0.887
 21
6.098441403588462
 31
0.0
100
AcDbText
  0
HATCH
  5
2E5
330
17
100
AcDbEntity
  8
A-MASKA
 62
7
420
16777215
100
AcDbHatch
 10
0.0
 20
0.0
 30
0.0
210
0.0
220
0.0
230
1.0
  2
SOLID
 70
1
 71
0
 91
1
 92
3
 72
0
 73
1
 93
4
 10
-1.1945000000000001
 20
3.7933173404496934
 10
-1.1945000000000001
 20
4.206682659550307
 10
-1.4045
 20
4.206682659550307
 10
-1.4045
 20
3.7933173404496934
 97
0
 75
0
 76
1
 98
0
  0
TEXT
  5
2E6
330
17
100
AcDbEntity
  8
A-WYMIARY
100
AcDbText
 10
-1.237
 20
3.8083173404496935
 30
0.0
 40
0.125
  1
859
 50
90.0
  7
PL_ARIAL
 11
-1.237
 21
3.8083173404496935
 31
0.0
100
AcDbText
  0
TEXT
  5
2E7
330
17
100
AcDbEntity
  8
A-WYMIARY
100
AcDbText
 10
-1.2995
 20
4.1189345332727685
 30
0.0
 40
0.09000000000000001
  1
4
 50
90.0
  7
PL_ARIAL
 11
-1.2995
 21
4.1189345332727685
 31
0.0
100
AcDbText
  0
TEXT
  5
2E8
330
17
100
AcDbEntity
  8
A-SYMBOLE
100
AcDbText
 10
5.14
 20
4.1
 30
0.0
 40
0.09000000000000001
  1
WD
  7
PL_ARIAL
 11
5.14
 21
4.1
 31
0.0
100
AcDbText
  0
TEXT
  5
2E9
330
17
100
AcDbEntity
  8
A-SYMBOLE
100
AcDbText
 10
2.372939473086532
 20
4.04
 30
0.0
 40
0.125
  1
2,0%
  7
PL_ARIAL
 11
2.372939473086532
 21
4.04
 31
0.0
100
AcDbText
  0
TEXT
  5
2EA
330
17
100
AcDbEntity
  8
A-SYMBOLE
100
AcDbText
 10
7.212939473086532
 20
4.04
 30
0.0
 40
0.125
  1
2,0%
  7
PL_ARIAL
 11
7.212939473086532
 21
4.04
 31
0.0
100
AcDbText
  0
TEXT
  5
2EB
330
17
100
AcDbEntity
  8
A-SYMBOLE
100
AcDbText
 10
4.96
 20
1.8729394730865319
 30
0.0
 40
0.125
  1
2,0%
 50
90.0
  7
PL_ARIAL
 11
4.96
 21
1.8729394730865319
 31
0.0
100
AcDbText
  0
TEXT
  5
2EC
330
17
100
AcDbEntity
  8
A-SYMBOLE
100
AcDbText
 10
4.96
 20
5.712939473086532
 30
0.0
 40
0.125
  1
2,0%
 50
90.0
  7
PL_ARIAL
 11
4.96
 21
5.712939473086532
 31
0.0
100
AcDbText
  0
HATCH
  5
2ED
330
17
100
AcDbEntity
  8
A-MASKA
 62
7
420
16777215
100
AcDbHatch
 10
0.0
 20
0.0
 30
0.0
210
0.0
220
0.0
230
1.0
  2
SOLID
 70
1
 71
0
 91
1
 92
3
 72
0
 73
1
 93
4
 10
3.848992635464117
 20
4.507185424949238
 10
5.019636514637408
 20
4.507185424949238
 10
5.019636514637408
 20
4.760685424949238
 10
3.848992635464117
 20
4.760685424949238
 97
0
 75
0
 76
1
 98
0
  0
TEXT
  5
2EE
330
17
100
AcDbEntity
  8
A-OPISY
100
AcDbText
 10
3.8689926354641164
 20
4.565685424949238
 30
0.0
 40
0.17500000000000002
  1
DACH D1
  7
PL_ARIAL_B
 11
3.8689926354641164
 21
4.565685424949238
 31
0.0
100
AcDbText
  0
HATCH
  5
2EF
330
17
100
AcDbEntity
  8
A-MASKA
 62
7
420
16777215
100
AcDbHatch
 10
0.0
 20
0.0
 30
0.0
210
0.0
220
0.0
230
1.0
  2
SOLID
 70
1
 71
0
 91
1
 92
3
 72
0
 73
1
 93
4
 10
2.7293980408695218
 20
4.3081854249492375
 10
6.139231109232003
 20
4.3081854249492375
 10
6.139231109232003
 20
4.500685424949237
 10
2.7293980408695218
 20
4.500685424949237
 97
0
 75
0
 76
1
 98
0
  0
TEXT
  5
2F0
330
17
100
AcDbEntity
  8
A-OPISY
100
AcDbText
 10
2.749398040869522
 20
4.355685424949238
 30
0.0
 40
0.125
  1
Stropodach pełny, odwrócony spadek PIR
  7
PL_ARIAL
 11
2.749398040869522
 21
4.355685424949238
 31
0.0
100
AcDbText
  0
VIEWPORT
  5
7F
330
1B
100
AcDbEntity
 67
1
  8
VIEWPORTS
100
AcDbViewport
 10
445.5
 20
210.0
 30
0.0
 40
891.0
 41
420.0
 68
1
 69
1
 12
445.5
 22
210.0
 13
0.0
 23
0.0
 14
10.0
 24
10.0
 15
10.0
 25
10.0
 16
0.0
 26
0.0
 36
1.0
 17
0.0
 27
0.0
 37
0.0
 42
50.0
 43
0.0
 44
0.0
 45
462.00000000000006
 50
0.0
 51
0.0
 72
100
 90
557088
  1

281
0
 71
0
 74
0
110
0.0
120
0.0
130
0.0
111
1.0
121
0.0
131
0.0
112
0.0
122
1.0
132
0.0
 79
0
146
0.0
282
0
  0
HATCH
  5
80
330
1B
100
AcDbEntity
 67
1
  8
R-OPISY
 62
7
420
0
100
AcDbHatch
 10
0.0
 20
0.0
 30
0.0
210
0.0
220
0.0
230
1.0
  2
SOLID
 70
1
 71
0
 91
1
 92
3
 72
0
 73
1
 93
4
 10
705.0
 20
311.05999999999995
 10
709.0
 20
311.05999999999995
 10
709.0
 20
312.65999999999997
 10
705.0
 20
312.65999999999997
 97
0
 75
0
 76
1
 98
0
  0
HATCH
  5
81
330
1B
100
AcDbEntity
 67
1
  8
R-OPISY
 62
7
420
0
100
AcDbHatch
 10
0.0
 20
0.0
 30
0.0
210
0.0
220
0.0
230
1.0
  2
SOLID
 70
1
 71
0
 91
1
 92
3
 72
0
 73
1
 93
4
 10
713.0
 20
311.05999999999995
 10
717.0
 20
311.05999999999995
 10
717.0
 20
312.65999999999997
 10
713.0
 20
312.65999999999997
 97
0
 75
0
 76
1
 98
0
  0
HATCH
  5
82
330
1B
100
AcDbEntity
 67
1
  8
R-OPISY
 62
7
420
0
100
AcDbHatch
 10
0.0
 20
0.0
 30
0.0
210
0.0
220
0.0
230
1.0
  2
SOLID
 70
1
 71
0
 91
1
 92
3
 72
0
 73
1
 93
4
 10
721.0
 20
311.05999999999995
 10
725.0
 20
311.05999999999995
 10
725.0
 20
312.65999999999997
 10
721.0
 20
312.65999999999997
 97
0
 75
0
 76
1
 98
0
  0
HATCH
  5
83
330
1B
100
AcDbEntity
 67
1
  8
R-OPISY
 62
7
420
0
100
AcDbHatch
 10
0.0
 20
0.0
 30
0.0
210
0.0
220
0.0
230
1.0
  2
SOLID
 70
1
 71
0
 91
1
 92
3
 72
0
 73
1
 93
4
 10
745.0
 20
311.05999999999995
 10
765.0
 20
311.05999999999995
 10
765.0
 20
312.65999999999997
 10
745.0
 20
312.65999999999997
 97
0
 75
0
 76
1
 98
0
  0
HATCH
  5
84
330
1B
100
AcDbEntity
 67
1
  8
R-OPISY
 62
7
420
0
100
AcDbHatch
 10
0.0
 20
0.0
 30
0.0
210
0.0
220
0.0
230
1.0
  2
SOLID
 70
1
 71
0
 91
1
 92
3
 72
0
 73
1
 93
4
 10
785.0
 20
311.05999999999995
 10
805.0
 20
311.05999999999995
 10
805.0
 20
312.65999999999997
 10
785.0
 20
312.65999999999997
 97
0
 75
0
 76
1
 98
0
  0
LWPOLYLINE
  5
85
330
1B
100
AcDbEntity
 67
1
  8
R-OPISY
370
50
100
AcDbPolyline
 90
2
 70
0
 10
166.3813059277765
 20
36.45565296388824
 10
226.91991596638655
 20
36.45565296388824
  0
LWPOLYLINE
  5
86
330
1B
100
AcDbEntity
 67
1
  8
R-LEGENDA
  6
KRESKOWA
370
35
100
AcDbPolyline
 90
2
 70
128
 10
702.0
 20
363.9
 10
714.0
 20
363.9
  0
LWPOLYLINE
  5
87
330
1B
100
AcDbEntity
 67
1
  8
R-LEGENDA
370
25
100
AcDbPolyline
 90
2
 70
0
 10
702.0
 20
359.4
 10
714.0
 20
359.4
  0
LWPOLYLINE
  5
88
330
1B
100
AcDbEntity
 67
1
  8
R-LEGENDA
  6
PUNKTOWA
370
25
100
AcDbPolyline
 90
2
 70
128
 10
702.0
 20
354.9
 10
714.0
 20
354.9
  0
LWPOLYLINE
  5
89
330
1B
100
AcDbEntity
 67
1
  8
R-OPISY
370
25
100
AcDbPolyline
 90
4
 70
1
 10
701.0
 20
324.05999999999995
 10
881.0
 20
324.05999999999995
 10
881.0
 20
345.5
 10
701.0
 20
345.5
  0
LWPOLYLINE
  5
8A
330
1B
100
AcDbEntity
 67
1
  8
R-OPISY
370
18
100
AcDbPolyline
 90
4
 70
1
 10
705.0
 20
311.05999999999995
 10
725.0
 20
311.05999999999995
 10
725.0
 20
312.65999999999997
 10
705.0
 20
312.65999999999997
  0
LWPOLYLINE
  5
8B
330
1B
100
AcDbEntity
 67
1
  8
R-OPISY
370
18
100
AcDbPolyline
 90
4
 70
1
 10
725.0
 20
311.05999999999995
 10
745.0
 20
311.05999999999995
 10
745.0
 20
312.65999999999997
 10
725.0
 20
312.65999999999997
  0
LWPOLYLINE
  5
8C
330
1B
100
AcDbEntity
 67
1
  8
R-OPISY
370
18
100
AcDbPolyline
 90
4
 70
1
 10
745.0
 20
311.05999999999995
 10
765.0
 20
311.05999999999995
 10
765.0
 20
312.65999999999997
 10
745.0
 20
312.65999999999997
  0
LWPOLYLINE
  5
8D
330
1B
100
AcDbEntity
 67
1
  8
R-OPISY
370
18
100
AcDbPolyline
 90
4
 70
1
 10
765.0
 20
311.05999999999995
 10
785.0
 20
311.05999999999995
 10
785.0
 20
312.65999999999997
 10
765.0
 20
312.65999999999997
  0
LWPOLYLINE
  5
8E
330
1B
100
AcDbEntity
 67
1
  8
R-OPISY
370
18
100
AcDbPolyline
 90
4
 70
1
 10
785.0
 20
311.05999999999995
 10
805.0
 20
311.05999999999995
 10
805.0
 20
312.65999999999997
 10
785.0
 20
312.65999999999997
  0
LWPOLYLINE
  5
8F
330
1B
100
AcDbEntity
 67
1
  8
R-OPISY
370
18
100
AcDbPolyline
 90
4
 70
1
 10
805.0
 20
311.05999999999995
 10
825.0
 20
311.05999999999995
 10
825.0
 20
312.65999999999997
 10
805.0
 20
312.65999999999997
  0
LWPOLYLINE
  5
90
330
1B
100
AcDbEntity
 67
1
  8
R-OPISY
370
35
100
AcDbPolyline
 90
2
 70
0
 10
11.0
 20
18.0
 10
11.0
 20
118.0
  0
LWPOLYLINE
  5
91
330
1B
100
AcDbEntity
 67
1
  8
R-OPISY
370
18
100
AcDbPolyline
 90
2
 70
0
 10
11.0
 20
18.0
 10
9.4
 20
18.0
  0
LWPOLYLINE
  5
92
330
1B
100
AcDbEntity
 67
1
  8
R-OPISY
370
18
100
AcDbPolyline
 90
2
 70
0
 10
11.0
 20
28.0
 10
10.1
 20
28.0
  0
LWPOLYLINE
  5
93
330
1B
100
AcDbEntity
 67
1
  8
R-OPISY
370
18
100
AcDbPolyline
 90
2
 70
0
 10
11.0
 20
38.0
 10
10.1
 20
38.0
  0
LWPOLYLINE
  5
94
330
1B
100
AcDbEntity
 67
1
  8
R-OPISY
370
18
100
AcDbPolyline
 90
2
 70
0
 10
11.0
 20
48.0
 10
10.1
 20
48.0
  0
LWPOLYLINE
  5
95
330
1B
100
AcDbEntity
 67
1
  8
R-OPISY
370
18
100
AcDbPolyline
 90
2
 70
0
 10
11.0
 20
58.0
 10
10.1
 20
58.0
  0
LWPOLYLINE
  5
96
330
1B
100
AcDbEntity
 67
1
  8
R-OPISY
370
18
100
AcDbPolyline
 90
2
 70
0
 10
11.0
 20
68.0
 10
9.4
 20
68.0
  0
LWPOLYLINE
  5
97
330
1B
100
AcDbEntity
 67
1
  8
R-OPISY
370
18
100
AcDbPolyline
 90
2
 70
0
 10
11.0
 20
78.0
 10
10.1
 20
78.0
  0
LWPOLYLINE
  5
98
330
1B
100
AcDbEntity
 67
1
  8
R-OPISY
370
18
100
AcDbPolyline
 90
2
 70
0
 10
11.0
 20
88.0
 10
10.1
 20
88.0
  0
LWPOLYLINE
  5
99
330
1B
100
AcDbEntity
 67
1
  8
R-OPISY
370
18
100
AcDbPolyline
 90
2
 70
0
 10
11.0
 20
98.0
 10
10.1
 20
98.0
  0
LWPOLYLINE
  5
9A
330
1B
100
AcDbEntity
 67
1
  8
R-OPISY
370
18
100
AcDbPolyline
 90
2
 70
0
 10
11.0
 20
108.0
 10
10.1
 20
108.0
  0
LWPOLYLINE
  5
9B
330
1B
100
AcDbEntity
 67
1
  8
R-OPISY
370
18
100
AcDbPolyline
 90
2
 70
0
 10
11.0
 20
118.0
 10
9.4
 20
118.0
  0
HATCH
  5
9C
330
1B
100
AcDbEntity
 67
1
  8
A-SYMBOLE
 62
7
420
0
100
AcDbHatch
 10
0.0
 20
0.0
 30
0.0
210
0.0
220
0.0
230
1.0
  2
SOLID
 70
1
 71
0
 91
1
 92
3
 72
0
 73
1
 93
3
 10
869.0
 20
400.05
 10
869.0
 20
389.55
 10
866.76
 20
388.15
 97
0
 75
0
 76
1
 98
0
  0
CIRCLE
  5
9D
330
1B
100
AcDbEntity
 67
1
  8
A-SYMBOLE
370
18
100
AcDbCircle
 10
869.0
 20
392.0
 30
0.0
 40
7.0
  0
LWPOLYLINE
  5
9E
330
1B
100
AcDbEntity
 67
1
  8
A-SYMBOLE
370
25
100
AcDbPolyline
 90
4
 70
1
 10
869.0
 20
400.05
 10
871.24
 20
388.15
 10
869.0
 20
389.55
 10
866.76
 20
388.15
  0
LWPOLYLINE
  5
9F
330
1B
100
AcDbEntity
 67
1
  8
A-SYMBOLE
370
18
100
AcDbPolyline
 90
2
 70
0
 10
869.0
 20
389.55
 10
869.0
 20
385.35
  0
HATCH
  5
A0
330
1B
100
AcDbEntity
 67
1
  8
R-TABLICZKA
 62
7
420
16777215
100
AcDbHatch
 10
0.0
 20
0.0
 30
0.0
210
0.0
220
0.0
230
1.0
  2
SOLID
 70
1
 71
0
 91
1
 92
3
 72
0
 73
1
 93
4
 10
701.0
 20
10.0
 10
881.0
 20
10.0
 10
881.0
 20
103.0
 10
701.0
 20
103.0
 97
0
 75
0
 76
1
 98
0
  0
HATCH
  5
A1
330
1B
100
AcDbEntity
 67
1
  8
R-TABLICZKA
 62
7
420
16777215
100
AcDbHatch
 10
0.0
 20
0.0
 30
0.0
210
0.0
220
0.0
230
1.0
  2
SOLID
 70
1
 71
0
 91
1
 92
3
 72
0
 73
1
 93
4
 10
701.0
 20
103.0
 10
881.0
 20
103.0
 10
881.0
 20
113.0
 10
701.0
 20
113.0
 97
0
 75
0
 76
1
 98
0
  0
LWPOLYLINE
  5
A2
330
1B
100
AcDbEntity
 67
1
  8
R-RAMKA
370
70
100
AcDbPolyline
 90
4
 70
1
 10
20.0
 20
10.0
 10
881.0
 20
10.0
 10
881.0
 20
410.0
 10
20.0
 20
410.0
  0
LWPOLYLINE
  5
A3
330
1B
100
AcDbEntity
 67
1
  8
R-RAMKA
370
70
100
AcDbPolyline
 90
2
 70
0
 10
445.5
 20
0.0
 10
445.5
 20
20.0
  0
LWPOLYLINE
  5
A4
330
1B
100
AcDbEntity
 67
1
  8
R-RAMKA
370
70
100
AcDbPolyline
 90
2
 70
0
 10
445.5
 20
420.0
 10
445.5
 20
400.0
  0
LWPOLYLINE
  5
A5
330
1B
100
AcDbEntity
 67
1
  8
R-RAMKA
370
70
100
AcDbPolyline
 90
2
 70
0
 10
0.0
 20
210.0
 10
30.0
 20
210.0
  0
LWPOLYLINE
  5
A6
330
1B
100
AcDbEntity
 67
1
  8
R-RAMKA
370
70
100
AcDbPolyline
 90
2
 70
0
 10
891.0
 20
210.0
 10
871.0
 20
210.0
  0
LWPOLYLINE
  5
A7
330
1B
100
AcDbEntity
 67
1
  8
R-RAMKA
370
35
100
AcDbPolyline
 90
2
 70
0
 10
210.0
 20
0.0
 10
210.0
 20
5.0
  0
LWPOLYLINE
  5
A8
330
1B
100
AcDbEntity
 67
1
  8
R-RAMKA
370
35
100
AcDbPolyline
 90
2
 70
0
 10
210.0
 20
420.0
 10
210.0
 20
415.0
  0
LWPOLYLINE
  5
A9
330
1B
100
AcDbEntity
 67
1
  8
R-RAMKA
370
35
100
AcDbPolyline
 90
2
 70
0
 10
360.5
 20
0.0
 10
360.5
 20
5.0
  0
LWPOLYLINE
  5
AA
330
1B
100
AcDbEntity
 67
1
  8
R-RAMKA
370
35
100
AcDbPolyline
 90
2
 70
0
 10
360.5
 20
420.0
 10
360.5
 20
415.0
  0
LWPOLYLINE
  5
AB
330
1B
100
AcDbEntity
 67
1
  8
R-RAMKA
370
35
100
AcDbPolyline
 90
2
 70
0
 10
511.0
 20
0.0
 10
511.0
 20
5.0
  0
LWPOLYLINE
  5
AC
330
1B
100
AcDbEntity
 67
1
  8
R-RAMKA
370
35
100
AcDbPolyline
 90
2
 70
0
 10
511.0
 20
420.0
 10
511.0
 20
415.0
  0
LWPOLYLINE
  5
AD
330
1B
100
AcDbEntity
 67
1
  8
R-RAMKA
370
35
100
AcDbPolyline
 90
2
 70
0
 10
701.0
 20
0.0
 10
701.0
 20
5.0
  0
LWPOLYLINE
  5
AE
330
1B
100
AcDbEntity
 67
1
  8
R-RAMKA
370
35
100
AcDbPolyline
 90
2
 70
0
 10
701.0
 20
420.0
 10
701.0
 20
415.0
  0
LWPOLYLINE
  5
AF
330
1B
100
AcDbEntity
 67
1
  8
R-RAMKA
370
35
100
AcDbPolyline
 90
2
 70
0
 10
0.0
 20
297.0
 10
5.0
 20
297.0
  0
LWPOLYLINE
  5
B0
330
1B
100
AcDbEntity
 67
1
  8
R-RAMKA
370
35
100
AcDbPolyline
 90
2
 70
0
 10
891.0
 20
297.0
 10
886.0
 20
297.0
  0
LWPOLYLINE
  5
B1
330
1B
100
AcDbEntity
 67
1
  8
R-RAMKA
370
35
100
AcDbPolyline
 90
2
 70
0
 10
45.5
 20
10.0
 10
45.5
 20
5.0
  0
LWPOLYLINE
  5
B2
330
1B
100
AcDbEntity
 67
1
  8
R-RAMKA
370
35
100
AcDbPolyline
 90
2
 70
0
 10
45.5
 20
410.0
 10
45.5
 20
415.0
  0
LWPOLYLINE
  5
B3
330
1B
100
AcDbEntity
 67
1
  8
R-RAMKA
370
35
100
AcDbPolyline
 90
2
 70
0
 10
95.5
 20
10.0
 10
95.5
 20
5.0
  0
LWPOLYLINE
  5
B4
330
1B
100
AcDbEntity
 67
1
  8
R-RAMKA
370
35
100
AcDbPolyline
 90
2
 70
0
 10
95.5
 20
410.0
 10
95.5
 20
415.0
  0
LWPOLYLINE
  5
B5
330
1B
100
AcDbEntity
 67
1
  8
R-RAMKA
370
35
100
AcDbPolyline
 90
2
 70
0
 10
145.5
 20
10.0
 10
145.5
 20
5.0
  0
LWPOLYLINE
  5
B6
330
1B
100
AcDbEntity
 67
1
  8
R-RAMKA
370
35
100
AcDbPolyline
 90
2
 70
0
 10
145.5
 20
410.0
 10
145.5
 20
415.0
  0
LWPOLYLINE
  5
B7
330
1B
100
AcDbEntity
 67
1
  8
R-RAMKA
370
35
100
AcDbPolyline
 90
2
 70
0
 10
195.5
 20
10.0
 10
195.5
 20
5.0
  0
LWPOLYLINE
  5
B8
330
1B
100
AcDbEntity
 67
1
  8
R-RAMKA
370
35
100
AcDbPolyline
 90
2
 70
0
 10
195.5
 20
410.0
 10
195.5
 20
415.0
  0
LWPOLYLINE
  5
B9
330
1B
100
AcDbEntity
 67
1
  8
R-RAMKA
370
35
100
AcDbPolyline
 90
2
 70
0
 10
245.5
 20
10.0
 10
245.5
 20
5.0
  0
LWPOLYLINE
  5
BA
330
1B
100
AcDbEntity
 67
1
  8
R-RAMKA
370
35
100
AcDbPolyline
 90
2
 70
0
 10
245.5
 20
410.0
 10
245.5
 20
415.0
  0
LWPOLYLINE
  5
BB
330
1B
100
AcDbEntity
 67
1
  8
R-RAMKA
370
35
100
AcDbPolyline
 90
2
 70
0
 10
295.5
 20
10.0
 10
295.5
 20
5.0
  0
LWPOLYLINE
  5
BC
330
1B
100
AcDbEntity
 67
1
  8
R-RAMKA
370
35
100
AcDbPolyline
 90
2
 70
0
 10
295.5
 20
410.0
 10
295.5
 20
415.0
  0
LWPOLYLINE
  5
BD
330
1B
100
AcDbEntity
 67
1
  8
R-RAMKA
370
35
100
AcDbPolyline
 90
2
 70
0
 10
345.5
 20
10.0
 10
345.5
 20
5.0
  0
LWPOLYLINE
  5
BE
330
1B
100
AcDbEntity
 67
1
  8
R-RAMKA
370
35
100
AcDbPolyline
 90
2
 70
0
 10
345.5
 20
410.0
 10
345.5
 20
415.0
  0
LWPOLYLINE
  5
BF
330
1B
100
AcDbEntity
 67
1
  8
R-RAMKA
370
35
100
AcDbPolyline
 90
2
 70
0
 10
395.5
 20
10.0
 10
395.5
 20
5.0
  0
LWPOLYLINE
  5
C0
330
1B
100
AcDbEntity
 67
1
  8
R-RAMKA
370
35
100
AcDbPolyline
 90
2
 70
0
 10
395.5
 20
410.0
 10
395.5
 20
415.0
  0
LWPOLYLINE
  5
C1
330
1B
100
AcDbEntity
 67
1
  8
R-RAMKA
370
35
100
AcDbPolyline
 90
2
 70
0
 10
445.5
 20
10.0
 10
445.5
 20
5.0
  0
LWPOLYLINE
  5
C2
330
1B
100
AcDbEntity
 67
1
  8
R-RAMKA
370
35
100
AcDbPolyline
 90
2
 70
0
 10
445.5
 20
410.0
 10
445.5
 20
415.0
  0
LWPOLYLINE
  5
C3
330
1B
100
AcDbEntity
 67
1
  8
R-RAMKA
370
35
100
AcDbPolyline
 90
2
 70
0
 10
495.5
 20
10.0
 10
495.5
 20
5.0
  0
LWPOLYLINE
  5
C4
330
1B
100
AcDbEntity
 67
1
  8
R-RAMKA
370
35
100
AcDbPolyline
 90
2
 70
0
 10
495.5
 20
410.0
 10
495.5
 20
415.0
  0
LWPOLYLINE
  5
C5
330
1B
100
AcDbEntity
 67
1
  8
R-RAMKA
370
35
100
AcDbPolyline
 90
2
 70
0
 10
545.5
 20
10.0
 10
545.5
 20
5.0
  0
LWPOLYLINE
  5
C6
330
1B
100
AcDbEntity
 67
1
  8
R-RAMKA
370
35
100
AcDbPolyline
 90
2
 70
0
 10
545.5
 20
410.0
 10
545.5
 20
415.0
  0
LWPOLYLINE
  5
C7
330
1B
100
AcDbEntity
 67
1
  8
R-RAMKA
370
35
100
AcDbPolyline
 90
2
 70
0
 10
595.5
 20
10.0
 10
595.5
 20
5.0
  0
LWPOLYLINE
  5
C8
330
1B
100
AcDbEntity
 67
1
  8
R-RAMKA
370
35
100
AcDbPolyline
 90
2
 70
0
 10
595.5
 20
410.0
 10
595.5
 20
415.0
  0
LWPOLYLINE
  5
C9
330
1B
100
AcDbEntity
 67
1
  8
R-RAMKA
370
35
100
AcDbPolyline
 90
2
 70
0
 10
645.5
 20
10.0
 10
645.5
 20
5.0
  0
LWPOLYLINE
  5
CA
330
1B
100
AcDbEntity
 67
1
  8
R-RAMKA
370
35
100
AcDbPolyline
 90
2
 70
0
 10
645.5
 20
410.0
 10
645.5
 20
415.0
  0
LWPOLYLINE
  5
CB
330
1B
100
AcDbEntity
 67
1
  8
R-RAMKA
370
35
100
AcDbPolyline
 90
2
 70
0
 10
695.5
 20
10.0
 10
695.5
 20
5.0
  0
LWPOLYLINE
  5
CC
330
1B
100
AcDbEntity
 67
1
  8
R-RAMKA
370
35
100
AcDbPolyline
 90
2
 70
0
 10
695.5
 20
410.0
 10
695.5
 20
415.0
  0
LWPOLYLINE
  5
CD
330
1B
100
AcDbEntity
 67
1
  8
R-RAMKA
370
35
100
AcDbPolyline
 90
2
 70
0
 10
745.5
 20
10.0
 10
745.5
 20
5.0
  0
LWPOLYLINE
  5
CE
330
1B
100
AcDbEntity
 67
1
  8
R-RAMKA
370
35
100
AcDbPolyline
 90
2
 70
0
 10
745.5
 20
410.0
 10
745.5
 20
415.0
  0
LWPOLYLINE
  5
CF
330
1B
100
AcDbEntity
 67
1
  8
R-RAMKA
370
35
100
AcDbPolyline
 90
2
 70
0
 10
795.5
 20
10.0
 10
795.5
 20
5.0
  0
LWPOLYLINE
  5
D0
330
1B
100
AcDbEntity
 67
1
  8
R-RAMKA
370
35
100
AcDbPolyline
 90
2
 70
0
 10
795.5
 20
410.0
 10
795.5
 20
415.0
  0
LWPOLYLINE
  5
D1
330
1B
100
AcDbEntity
 67
1
  8
R-RAMKA
370
35
100
AcDbPolyline
 90
2
 70
0
 10
845.5
 20
10.0
 10
845.5
 20
5.0
  0
LWPOLYLINE
  5
D2
330
1B
100
AcDbEntity
 67
1
  8
R-RAMKA
370
35
100
AcDbPolyline
 90
2
 70
0
 10
845.5
 20
410.0
 10
845.5
 20
415.0
  0
LWPOLYLINE
  5
D3
330
1B
100
AcDbEntity
 67
1
  8
R-RAMKA
370
35
100
AcDbPolyline
 90
2
 70
0
 10
20.0
 20
60.0
 10
15.0
 20
60.0
  0
LWPOLYLINE
  5
D4
330
1B
100
AcDbEntity
 67
1
  8
R-RAMKA
370
35
100
AcDbPolyline
 90
2
 70
0
 10
881.0
 20
60.0
 10
886.0
 20
60.0
  0
LWPOLYLINE
  5
D5
330
1B
100
AcDbEntity
 67
1
  8
R-RAMKA
370
35
100
AcDbPolyline
 90
2
 70
0
 10
20.0
 20
110.0
 10
15.0
 20
110.0
  0
LWPOLYLINE
  5
D6
330
1B
100
AcDbEntity
 67
1
  8
R-RAMKA
370
35
100
AcDbPolyline
 90
2
 70
0
 10
881.0
 20
110.0
 10
886.0
 20
110.0
  0
LWPOLYLINE
  5
D7
330
1B
100
AcDbEntity
 67
1
  8
R-RAMKA
370
35
100
AcDbPolyline
 90
2
 70
0
 10
20.0
 20
160.0
 10
15.0
 20
160.0
  0
LWPOLYLINE
  5
D8
330
1B
100
AcDbEntity
 67
1
  8
R-RAMKA
370
35
100
AcDbPolyline
 90
2
 70
0
 10
881.0
 20
160.0
 10
886.0
 20
160.0
  0
LWPOLYLINE
  5
D9
330
1B
100
AcDbEntity
 67
1
  8
R-RAMKA
370
35
100
AcDbPolyline
 90
2
 70
0
 10
20.0
 20
210.0
 10
15.0
 20
210.0
  0
LWPOLYLINE
  5
DA
330
1B
100
AcDbEntity
 67
1
  8
R-RAMKA
370
35
100
AcDbPolyline
 90
2
 70
0
 10
881.0
 20
210.0
 10
886.0
 20
210.0
  0
LWPOLYLINE
  5
DB
330
1B
100
AcDbEntity
 67
1
  8
R-RAMKA
370
35
100
AcDbPolyline
 90
2
 70
0
 10
20.0
 20
260.0
 10
15.0
 20
260.0
  0
LWPOLYLINE
  5
DC
330
1B
100
AcDbEntity
 67
1
  8
R-RAMKA
370
35
100
AcDbPolyline
 90
2
 70
0
 10
881.0
 20
260.0
 10
886.0
 20
260.0
  0
LWPOLYLINE
  5
DD
330
1B
100
AcDbEntity
 67
1
  8
R-RAMKA
370
35
100
AcDbPolyline
 90
2
 70
0
 10
20.0
 20
310.0
 10
15.0
 20
310.0
  0
LWPOLYLINE
  5
DE
330
1B
100
AcDbEntity
 67
1
  8
R-RAMKA
370
35
100
AcDbPolyline
 90
2
 70
0
 10
881.0
 20
310.0
 10
886.0
 20
310.0
  0
LWPOLYLINE
  5
DF
330
1B
100
AcDbEntity
 67
1
  8
R-RAMKA
370
35
100
AcDbPolyline
 90
2
 70
0
 10
20.0
 20
360.0
 10
15.0
 20
360.0
  0
LWPOLYLINE
  5
E0
330
1B
100
AcDbEntity
 67
1
  8
R-RAMKA
370
35
100
AcDbPolyline
 90
2
 70
0
 10
881.0
 20
360.0
 10
886.0
 20
360.0
  0
LWPOLYLINE
  5
E1
330
1B
100
AcDbEntity
 67
1
  8
R-TABLICZKA
370
25
100
AcDbPolyline
 90
2
 70
0
 10
811.0
 20
91.0
 10
811.0
 20
103.0
  0
LWPOLYLINE
  5
E2
330
1B
100
AcDbEntity
 67
1
  8
R-TABLICZKA
370
25
100
AcDbPolyline
 90
2
 70
0
 10
836.0
 20
91.0
 10
836.0
 20
103.0
  0
LWPOLYLINE
  5
E3
330
1B
100
AcDbEntity
 67
1
  8
R-TABLICZKA
370
25
100
AcDbPolyline
 90
2
 70
0
 10
701.0
 20
91.0
 10
881.0
 20
91.0
  0
LWPOLYLINE
  5
E4
330
1B
100
AcDbEntity
 67
1
  8
R-TABLICZKA
370
18
100
AcDbPolyline
 90
2
 70
0
 10
701.0
 20
83.0
 10
881.0
 20
83.0
  0
LWPOLYLINE
  5
E5
330
1B
100
AcDbEntity
 67
1
  8
R-TABLICZKA
370
18
100
AcDbPolyline
 90
2
 70
0
 10
701.0
 20
72.5
 10
881.0
 20
72.5
  0
LWPOLYLINE
  5
E6
330
1B
100
AcDbEntity
 67
1
  8
R-TABLICZKA
370
18
100
AcDbPolyline
 90
2
 70
0
 10
851.0
 20
63.5
 10
851.0
 20
72.5
  0
LWPOLYLINE
  5
E7
330
1B
100
AcDbEntity
 67
1
  8
R-TABLICZKA
370
25
100
AcDbPolyline
 90
2
 70
0
 10
701.0
 20
63.5
 10
881.0
 20
63.5
  0
LWPOLYLINE
  5
E8
330
1B
100
AcDbEntity
 67
1
  8
R-TABLICZKA
370
18
100
AcDbPolyline
 90
2
 70
0
 10
701.0
 20
59.0
 10
881.0
 20
59.0
  0
LWPOLYLINE
  5
E9
330
1B
100
AcDbEntity
 67
1
  8
R-TABLICZKA
370
18
100
AcDbPolyline
 90
2
 70
0
 10
701.0
 20
52.0
 10
881.0
 20
52.0
  0
LWPOLYLINE
  5
EA
330
1B
100
AcDbEntity
 67
1
  8
R-TABLICZKA
370
18
100
AcDbPolyline
 90
2
 70
0
 10
701.0
 20
45.0
 10
881.0
 20
45.0
  0
LWPOLYLINE
  5
EB
330
1B
100
AcDbEntity
 67
1
  8
R-TABLICZKA
370
18
100
AcDbPolyline
 90
2
 70
0
 10
701.0
 20
38.0
 10
881.0
 20
38.0
  0
LWPOLYLINE
  5
EC
330
1B
100
AcDbEntity
 67
1
  8
R-TABLICZKA
370
18
100
AcDbPolyline
 90
2
 70
0
 10
701.0
 20
31.0
 10
881.0
 20
31.0
  0
LWPOLYLINE
  5
ED
330
1B
100
AcDbEntity
 67
1
  8
R-TABLICZKA
370
18
100
AcDbPolyline
 90
2
 70
0
 10
728.0
 20
31.0
 10
728.0
 20
63.5
  0
LWPOLYLINE
  5
EE
330
1B
100
AcDbEntity
 67
1
  8
R-TABLICZKA
370
18
100
AcDbPolyline
 90
2
 70
0
 10
771.0
 20
31.0
 10
771.0
 20
63.5
  0
LWPOLYLINE
  5
EF
330
1B
100
AcDbEntity
 67
1
  8
R-TABLICZKA
370
18
100
AcDbPolyline
 90
2
 70
0
 10
826.0
 20
31.0
 10
826.0
 20
63.5
  0
LWPOLYLINE
  5
F0
330
1B
100
AcDbEntity
 67
1
  8
R-TABLICZKA
370
18
100
AcDbPolyline
 90
2
 70
0
 10
846.0
 20
31.0
 10
846.0
 20
63.5
  0
LWPOLYLINE
  5
F1
330
1B
100
AcDbEntity
 67
1
  8
R-TABLICZKA
370
25
100
AcDbPolyline
 90
2
 70
0
 10
701.0
 20
31.0
 10
881.0
 20
31.0
  0
LWPOLYLINE
  5
F2
330
1B
100
AcDbEntity
 67
1
  8
R-TABLICZKA
370
25
100
AcDbPolyline
 90
2
 70
0
 10
701.0
 20
19.0
 10
881.0
 20
19.0
  0
LWPOLYLINE
  5
F3
330
1B
100
AcDbEntity
 67
1
  8
R-TABLICZKA
370
25
100
AcDbPolyline
 90
2
 70
0
 10
725.0
 20
10.0
 10
725.0
 20
19.0
  0
LWPOLYLINE
  5
F4
330
1B
100
AcDbEntity
 67
1
  8
R-TABLICZKA
370
25
100
AcDbPolyline
 90
2
 70
0
 10
741.0
 20
10.0
 10
741.0
 20
19.0
  0
LWPOLYLINE
  5
F5
330
1B
100
AcDbEntity
 67
1
  8
R-TABLICZKA
370
25
100
AcDbPolyline
 90
2
 70
0
 10
765.0
 20
10.0
 10
765.0
 20
19.0
  0
LWPOLYLINE
  5
F6
330
1B
100
AcDbEntity
 67
1
  8
R-TABLICZKA
370
25
100
AcDbPolyline
 90
2
 70
0
 10
793.0
 20
10.0
 10
793.0
 20
19.0
  0
LWPOLYLINE
  5
F7
330
1B
100
AcDbEntity
 67
1
  8
R-TABLICZKA
370
25
100
AcDbPolyline
 90
2
 70
0
 10
845.0
 20
10.0
 10
845.0
 20
19.0
  0
LWPOLYLINE
  5
F8
330
1B
100
AcDbEntity
 67
1
  8
R-TABLICZKA
370
25
100
AcDbPolyline
 90
2
 70
0
 10
863.0
 20
10.0
 10
863.0
 20
19.0
  0
LWPOLYLINE
  5
F9
330
1B
100
AcDbEntity
 67
1
  8
R-TABLICZKA
370
50
100
AcDbPolyline
 90
4
 70
1
 10
701.0
 20
10.0
 10
881.0
 20
10.0
 10
881.0
 20
103.0
 10
701.0
 20
103.0
  0
LWPOLYLINE
  5
FA
330
1B
100
AcDbEntity
 67
1
  8
R-TABLICZKA
370
18
100
AcDbPolyline
 90
2
 70
0
 10
701.0
 20
108.0
 10
881.0
 20
108.0
  0
LWPOLYLINE
  5
FB
330
1B
100
AcDbEntity
 67
1
  8
R-TABLICZKA
370
18
100
AcDbPolyline
 90
2
 70
0
 10
701.0
 20
113.0
 10
881.0
 20
113.0
  0
LWPOLYLINE
  5
FC
330
1B
100
AcDbEntity
 67
1
  8
R-TABLICZKA
370
18
100
AcDbPolyline
 90
2
 70
0
 10
719.0
 20
103.0
 10
719.0
 20
113.0
  0
LWPOLYLINE
  5
FD
330
1B
100
AcDbEntity
 67
1
  8
R-TABLICZKA
370
18
100
AcDbPolyline
 90
2
 70
0
 10
841.0
 20
103.0
 10
841.0
 20
113.0
  0
LWPOLYLINE
  5
FE
330
1B
100
AcDbEntity
 67
1
  8
R-TABLICZKA
370
25
100
AcDbPolyline
 90
4
 70
1
 10
701.0
 20
103.0
 10
881.0
 20
103.0
 10
881.0
 20
113.0
 10
701.0
 20
113.0
  0
TEXT
  5
FF
330
1B
100
AcDbEntity
 67
1
  8
R-OPISY
100
AcDbText
 10
166.3813059277765
 20
37.95565296388824
 30
0.0
 40
5.0
  1
RZUT DACHU
  7
PL_ARIAL_B
 11
166.3813059277765
 21
37.95565296388824
 31
0.0
100
AcDbText
  0
TEXT
  5
100
330
1B
100
AcDbEntity
 67
1
  8
R-OPISY
100
AcDbText
 10
217.01928003633884
 20
37.95565296388824
 30
0.0
 40
3.5
  1
1:50
  7
PL_ARIAL
 11
217.01928003633884
 21
37.95565296388824
 31
0.0
100
AcDbText
  0
TEXT
  5
101
330
1B
100
AcDbEntity
 67
1
  8
R-LEGENDA
100
AcDbText
 10
701.0
 20
368.5
 30
0.0
 40
3.5
  1
OZNACZENIA LINII
  7
PL_ARIAL_B
 11
701.0
 21
368.5
 31
0.0
100
AcDbText
  0
TEXT
  5
102
330
1B
100
AcDbEntity
 67
1
  8
R-LEGENDA
100
AcDbText
 10
717.0
 20
363.0
 30
0.0
 40
1.8
  1
elementy nad płaszczyzną cięcia (obrysy płyt, wsporników, brył wyższych kondygnacji)
  7
PL_ARIAL
 11
717.0
 21
363.0
 31
0.0
100
AcDbText
  0
TEXT
  5
103
330
1B
100
AcDbEntity
 67
1
  8
R-LEGENDA
100
AcDbText
 10
717.0
 20
358.5
 30
0.0
 40
1.8
  1
elementy poniżej płaszczyzny cięcia (widok z góry)
  7
PL_ARIAL
 11
717.0
 21
358.5
 31
0.0
100
AcDbText
  0
TEXT
  5
104
330
1B
100
AcDbEntity
 67
1
  8
R-LEGENDA
100
AcDbText
 10
717.0
 20
354.0
 30
0.0
 40
1.8
  1
osie konstrukcyjne; linia punktowa z pogrubionymi końcami — ślad przekroju
  7
PL_ARIAL
 11
717.0
 21
354.0
 31
0.0
100
AcDbText
  0
TEXT
  5
105
330
1B
100
AcDbEntity
 67
1
  8
R-OPISY
100
AcDbText
 10
703.0
 20
340.0
 30
0.0
 40
3.5
  1
OBJAŚNIENIA I UWAGI
  7
PL_ARIAL_B
 11
703.0
 21
340.0
 31
0.0
100
AcDbText
  0
TEXT
  5
106
330
1B
100
AcDbEntity
 67
1
  8
R-OPISY
100
AcDbText
 10
703.0
 20
333.7
 30
0.0
 40
1.8
  1
1. 
  7
PL_ARIAL
 11
703.0
 21
333.7
 31
0.0
100
AcDbText
  0
TEXT
  5
107
330
1B
100
AcDbEntity
 67
1
  8
R-OPISY
100
AcDbText
 10
705.908698614581
 20
333.7
 30
0.0
 40
1.8
  1
Wymiary w cm (mm w indeksie górnym, np. 24⁵ = 24,5 cm), rzędne w m względem ±0,000 = 101,650 m n.p.m. (PL-EVRF2007-NH).
  7
PL_ARIAL
 11
705.908698614581
 21
333.7
 31
0.0
100
AcDbText
  0
TEXT
  5
108
330
1B
100
AcDbEntity
 67
1
  8
R-OPISY
100
AcDbText
 10
703.0
 20
330.28
 30
0.0
 40
1.8
  1
2. 
  7
PL_ARIAL
 11
703.0
 21
330.28
 31
0.0
100
AcDbText
  0
TEXT
  5
109
330
1B
100
AcDbEntity
 67
1
  8
R-OPISY
100
AcDbText
 10
705.908698614581
 20
330.28
 30
0.0
 40
1.8
  1
MODEL TESTOWY — rysunek próbny generatorów widoków; dane nie stanowią projektu.
  7
PL_ARIAL
 11
705.908698614581
 21
330.28
 31
0.0
100
AcDbText
  0
TEXT
  5
10A
330
1B
100
AcDbEntity
 67
1
  8
R-OPISY
100
AcDbText
 10
703.0
 20
326.85999999999996
 30
0.0
 40
1.8
  1
3. 
  7
PL_ARIAL
 11
703.0
 21
326.85999999999996
 31
0.0
100
AcDbText
  0
TEXT
  5
10B
330
1B
100
AcDbEntity
 67
1
  8
R-OPISY
100
AcDbText
 10
705.908698614581
 20
326.85999999999996
 30
0.0
 40
1.8
  1
Rysunek wygenerowany automatycznie z modelu model/test/dom_testowy.yaml (wersja 1.0, 2026-09-25) — generatory lamela.views.
  7
PL_ARIAL
 11
705.908698614581
 21
326.85999999999996
 31
0.0
100
AcDbText
  0
TEXT
  5
10C
330
1B
100
AcDbEntity
 67
1
  8
R-OPISY
100
AcDbText
 10
704.2725187372246
 20
313.65999999999997
 30
0.0
 40
1.8
  1
1
  7
PL_ARIAL
 11
704.2725187372246
 21
313.65999999999997
 31
0.0
100
AcDbText
  0
TEXT
  5
10D
330
1B
100
AcDbEntity
 67
1
  8
R-OPISY
100
AcDbText
 10
724.2725187372246
 20
313.65999999999997
 30
0.0
 40
1.8
  1
0
  7
PL_ARIAL
 11
724.2725187372246
 21
313.65999999999997
 31
0.0
100
AcDbText
  0
TEXT
  5
10E
330
1B
100
AcDbEntity
 67
1
  8
R-OPISY
100
AcDbText
 10
744.2725187372246
 20
313.65999999999997
 30
0.0
 40
1.8
  1
1
  7
PL_ARIAL
 11
744.2725187372246
 21
313.65999999999997
 31
0.0
100
AcDbText
  0
TEXT
  5
10F
330
1B
100
AcDbEntity
 67
1
  8
R-OPISY
100
AcDbText
 10
764.2725187372246
 20
313.65999999999997
 30
0.0
 40
1.8
  1
2
  7
PL_ARIAL
 11
764.2725187372246
 21
313.65999999999997
 31
0.0
100
AcDbText
  0
TEXT
  5
110
330
1B
100
AcDbEntity
 67
1
  8
R-OPISY
100
AcDbText
 10
784.2725187372246
 20
313.65999999999997
 30
0.0
 40
1.8
  1
3
  7
PL_ARIAL
 11
784.2725187372246
 21
313.65999999999997
 31
0.0
100
AcDbText
  0
TEXT
  5
111
330
1B
100
AcDbEntity
 67
1
  8
R-OPISY
100
AcDbText
 10
804.2725187372246
 20
313.65999999999997
 30
0.0
 40
1.8
  1
4
  7
PL_ARIAL
 11
804.2725187372246
 21
313.65999999999997
 31
0.0
100
AcDbText
  0
TEXT
  5
112
330
1B
100
AcDbEntity
 67
1
  8
R-OPISY
100
AcDbText
 10
824.2725187372246
 20
313.65999999999997
 30
0.0
 40
1.8
  1
5
  7
PL_ARIAL
 11
824.2725187372246
 21
313.65999999999997
 31
0.0
100
AcDbText
  0
TEXT
  5
113
330
1B
100
AcDbEntity
 67
1
  8
R-OPISY
100
AcDbText
 10
827.0
 20
311.05999999999995
 30
0.0
 40
1.8
  1
m
  7
PL_ARIAL
 11
827.0
 21
311.05999999999995
 31
0.0
100
AcDbText
  0
TEXT
  5
114
330
1B
100
AcDbEntity
 67
1
  8
R-OPISY
100
AcDbText
 10
705.0
 20
308.05999999999995
 30
0.0
 40
1.8
  1
PODZIAŁKA 1:50
  7
PL_ARIAL_B
 11
705.0
 21
308.05999999999995
 31
0.0
100
AcDbText
  0
TEXT
  5
115
330
1B
100
AcDbEntity
 67
1
  8
R-OPISY
100
AcDbText
 10
12.8
 20
119.5
 30
0.0
 40
1.8
  1
odcinek kontrolny 100 mm (wydruk 1:1)
 50
90.0
  7
PL_ARIAL
 11
12.8
 21
119.5
 31
0.0
100
AcDbText
  0
TEXT
  5
116
330
1B
100
AcDbEntity
 67
1
  8
A-SYMBOLE
100
AcDbText
 10
866.3756529638882
 20
402.789859186918
 30
0.0
 40
5.0
  1
N
  7
PL_ARIAL_B
 11
866.3756529638882
 21
402.789859186918
 31
0.0
100
AcDbText
  0
TEXT
  5
117
330
1B
100
AcDbEntity
 67
1
  8
R-RAMKA
100
AcDbText
 10
31.335453100158983
 20
413.25
 30
0.0
 40
3.5
  1
1
  7
PL_ARIAL
 11
31.335453100158983
 21
413.25
 31
0.0
100
AcDbText
  0
TEXT
  5
118
330
1B
100
AcDbEntity
 67
1
  8
R-RAMKA
100
AcDbText
 10
31.335453100158983
 20
3.25
 30
0.0
 40
3.5
  1
1
  7
PL_ARIAL
 11
31.335453100158983
 21
3.25
 31
0.0
100
AcDbText
  0
TEXT
  5
119
330
1B
100
AcDbEntity
 67
1
  8
R-RAMKA
100
AcDbText
 10
69.08545310015899
 20
413.25
 30
0.0
 40
3.5
  1
2
  7
PL_ARIAL
 11
69.08545310015899
 21
413.25
 31
0.0
100
AcDbText
  0
TEXT
  5
11A
330
1B
100
AcDbEntity
 67
1
  8
R-RAMKA
100
AcDbText
 10
69.08545310015899
 20
3.25
 30
0.0
 40
3.5
  1
2
  7
PL_ARIAL
 11
69.08545310015899
 21
3.25
 31
0.0
100
AcDbText
  0
TEXT
  5
11B
330
1B
100
AcDbEntity
 67
1
  8
R-RAMKA
100
AcDbText
 10
119.08545310015899
 20
413.25
 30
0.0
 40
3.5
  1
3
  7
PL_ARIAL
 11
119.08545310015899
 21
413.25
 31
0.0
100
AcDbText
  0
TEXT
  5
11C
330
1B
100
AcDbEntity
 67
1
  8
R-RAMKA
100
AcDbText
 10
119.08545310015899
 20
3.25
 30
0.0
 40
3.5
  1
3
  7
PL_ARIAL
 11
119.08545310015899
 21
3.25
 31
0.0
100
AcDbText
  0
TEXT
  5
11D
330
1B
100
AcDbEntity
 67
1
  8
R-RAMKA
100
AcDbText
 10
169.085453100159
 20
413.25
 30
0.0
 40
3.5
  1
4
  7
PL_ARIAL
 11
169.085453100159
 21
413.25
 31
0.0
100
AcDbText
  0
TEXT
  5
11E
330
1B
100
AcDbEntity
 67
1
  8
R-RAMKA
100
AcDbText
 10
169.085453100159
 20
3.25
 30
0.0
 40
3.5
  1
4
  7
PL_ARIAL
 11
169.085453100159
 21
3.25
 31
0.0
100
AcDbText
  0
TEXT
  5
11F
330
1B
100
AcDbEntity
 67
1
  8
R-RAMKA
100
AcDbText
 10
219.085453100159
 20
413.25
 30
0.0
 40
3.5
  1
5
  7
PL_ARIAL
 11
219.085453100159
 21
413.25
 31
0.0
100
AcDbText
  0
TEXT
  5
120
330
1B
100
AcDbEntity
 67
1
  8
R-RAMKA
100
AcDbText
 10
219.085453100159
 20
3.25
 30
0.0
 40
3.5
  1
5
  7
PL_ARIAL
 11
219.085453100159
 21
3.25
 31
0.0
100
AcDbText
  0
TEXT
  5
121
330
1B
100
AcDbEntity
 67
1
  8
R-RAMKA
100
AcDbText
 10
269.085453100159
 20
413.25
 30
0.0
 40
3.5
  1
6
  7
PL_ARIAL
 11
269.085453100159
 21
413.25
 31
0.0
100
AcDbText
  0
TEXT
  5
122
330
1B
100
AcDbEntity
 67
1
  8
R-RAMKA
100
AcDbText
 10
269.085453100159
 20
3.25
 30
0.0
 40
3.5
  1
6
  7
PL_ARIAL
 11
269.085453100159
 21
3.25
 31
0.0
100
AcDbText
  0
TEXT
  5
123
330
1B
100
AcDbEntity
 67
1
  8
R-RAMKA
100
AcDbText
 10
319.085453100159
 20
413.25
 30
0.0
 40
3.5
  1
7
  7
PL_ARIAL
 11
319.085453100159
 21
413.25
 31
0.0
100
AcDbText
  0
TEXT
  5
124
330
1B
100
AcDbEntity
 67
1
  8
R-RAMKA
100
AcDbText
 10
319.085453100159
 20
3.25
 30
0.0
 40
3.5
  1
7
  7
PL_ARIAL
 11
319.085453100159
 21
3.25
 31
0.0
100
AcDbText
  0
TEXT
  5
125
330
1B
100
AcDbEntity
 67
1
  8
R-RAMKA
100
AcDbText
 10
369.085453100159
 20
413.25
 30
0.0
 40
3.5
  1
8
  7
PL_ARIAL
 11
369.085453100159
 21
413.25
 31
0.0
100
AcDbText
  0
TEXT
  5
126
330
1B
100
AcDbEntity
 67
1
  8
R-RAMKA
100
AcDbText
 10
369.085453100159
 20
3.25
 30
0.0
 40
3.5
  1
8
  7
PL_ARIAL
 11
369.085453100159
 21
3.25
 31
0.0
100
AcDbText
  0
TEXT
  5
127
330
1B
100
AcDbEntity
 67
1
  8
R-RAMKA
100
AcDbText
 10
419.085453100159
 20
413.25
 30
0.0
 40
3.5
  1
9
  7
PL_ARIAL
 11
419.085453100159
 21
413.25
 31
0.0
100
AcDbText
  0
TEXT
  5
128
330
1B
100
AcDbEntity
 67
1
  8
R-RAMKA
100
AcDbText
 10
419.085453100159
 20
3.25
 30
0.0
 40
3.5
  1
9
  7
PL_ARIAL
 11
419.085453100159
 21
3.25
 31
0.0
100
AcDbText
  0
TEXT
  5
129
330
1B
100
AcDbEntity
 67
1
  8
R-RAMKA
100
AcDbText
 10
467.670906200318
 20
413.25
 30
0.0
 40
3.5
  1
10
  7
PL_ARIAL
 11
467.670906200318
 21
413.25
 31
0.0
100
AcDbText
  0
TEXT
  5
12A
330
1B
100
AcDbEntity
 67
1
  8
R-RAMKA
100
AcDbText
 10
467.670906200318
 20
3.25
 30
0.0
 40
3.5
  1
10
  7
PL_ARIAL
 11
467.670906200318
 21
3.25
 31
0.0
100
AcDbText
  0
TEXT
  5
12B
330
1B
100
AcDbEntity
 67
1
  8
R-RAMKA
100
AcDbText
 10
517.8596979332274
 20
413.25
 30
0.0
 40
3.5
  1
11
  7
PL_ARIAL
 11
517.8596979332274
 21
413.25
 31
0.0
100
AcDbText
  0
TEXT
  5
12C
330
1B
100
AcDbEntity
 67
1
  8
R-RAMKA
100
AcDbText
 10
517.8596979332274
 20
3.25
 30
0.0
 40
3.5
  1
11
  7
PL_ARIAL
 11
517.8596979332274
 21
3.25
 31
0.0
100
AcDbText
  0
TEXT
  5
12D
330
1B
100
AcDbEntity
 67
1
  8
R-RAMKA
100
AcDbText
 10
567.670906200318
 20
413.25
 30
0.0
 40
3.5
  1
12
  7
PL_ARIAL
 11
567.670906200318
 21
413.25
 31
0.0
100
AcDbText
  0
TEXT
  5
12E
330
1B
100
AcDbEntity
 67
1
  8
R-RAMKA
100
AcDbText
 10
567.670906200318
 20
3.25
 30
0.0
 40
3.5
  1
12
  7
PL_ARIAL
 11
567.670906200318
 21
3.25
 31
0.0
100
AcDbText
  0
TEXT
  5
12F
330
1B
100
AcDbEntity
 67
1
  8
R-RAMKA
100
AcDbText
 10
617.670906200318
 20
413.25
 30
0.0
 40
3.5
  1
13
  7
PL_ARIAL
 11
617.670906200318
 21
413.25
 31
0.0
100
AcDbText
  0
TEXT
  5
130
330
1B
100
AcDbEntity
 67
1
  8
R-RAMKA
100
AcDbText
 10
617.670906200318
 20
3.25
 30
0.0
 40
3.5
  1
13
  7
PL_ARIAL
 11
617.670906200318
 21
3.25
 31
0.0
100
AcDbText
  0
TEXT
  5
131
330
1B
100
AcDbEntity
 67
1
  8
R-RAMKA
100
AcDbText
 10
667.670906200318
 20
413.25
 30
0.0
 40
3.5
  1
14
  7
PL_ARIAL
 11
667.670906200318
 21
413.25
 31
0.0
100
AcDbText
  0
TEXT
  5
132
330
1B
100
AcDbEntity
 67
1
  8
R-RAMKA
100
AcDbText
 10
667.670906200318
 20
3.25
 30
0.0
 40
3.5
  1
14
  7
PL_ARIAL
 11
667.670906200318
 21
3.25
 31
0.0
100
AcDbText
  0
TEXT
  5
133
330
1B
100
AcDbEntity
 67
1
  8
R-RAMKA
100
AcDbText
 10
717.670906200318
 20
413.25
 30
0.0
 40
3.5
  1
15
  7
PL_ARIAL
 11
717.670906200318
 21
413.25
 31
0.0
100
AcDbText
  0
TEXT
  5
134
330
1B
100
AcDbEntity
 67
1
  8
R-RAMKA
100
AcDbText
 10
717.670906200318
 20
3.25
 30
0.0
 40
3.5
  1
15
  7
PL_ARIAL
 11
717.670906200318
 21
3.25
 31
0.0
100
AcDbText
  0
TEXT
  5
135
330
1B
100
AcDbEntity
 67
1
  8
R-RAMKA
100
AcDbText
 10
767.670906200318
 20
413.25
 30
0.0
 40
3.5
  1
16
  7
PL_ARIAL
 11
767.670906200318
 21
413.25
 31
0.0
100
AcDbText
  0
TEXT
  5
136
330
1B
100
AcDbEntity
 67
1
  8
R-RAMKA
100
AcDbText
 10
767.670906200318
 20
3.25
 30
0.0
 40
3.5
  1
16
  7
PL_ARIAL
 11
767.670906200318
 21
3.25
 31
0.0
100
AcDbText
  0
TEXT
  5
137
330
1B
100
AcDbEntity
 67
1
  8
R-RAMKA
100
AcDbText
 10
817.670906200318
 20
413.25
 30
0.0
 40
3.5
  1
17
  7
PL_ARIAL
 11
817.670906200318
 21
413.25
 31
0.0
100
AcDbText
  0
TEXT
  5
138
330
1B
100
AcDbEntity
 67
1
  8
R-RAMKA
100
AcDbText
 10
817.670906200318
 20
3.25
 30
0.0
 40
3.5
  1
17
  7
PL_ARIAL
 11
817.670906200318
 21
3.25
 31
0.0
100
AcDbText
  0
TEXT
  5
139
330
1B
100
AcDbEntity
 67
1
  8
R-RAMKA
100
AcDbText
 10
860.420906200318
 20
413.25
 30
0.0
 40
3.5
  1
18
  7
PL_ARIAL
 11
860.420906200318
 21
413.25
 31
0.0
100
AcDbText
  0
TEXT
  5
13A
330
1B
100
AcDbEntity
 67
1
  8
R-RAMKA
100
AcDbText
 10
860.420906200318
 20
3.25
 30
0.0
 40
3.5
  1
18
  7
PL_ARIAL
 11
860.420906200318
 21
3.25
 31
0.0
100
AcDbText
  0
TEXT
  5
13B
330
1B
100
AcDbEntity
 67
1
  8
R-RAMKA
100
AcDbText
 10
884.3032591414944
 20
383.25
 30
0.0
 40
3.5
  1
A
  7
PL_ARIAL
 11
884.3032591414944
 21
383.25
 31
0.0
100
AcDbText
  0
TEXT
  5
13C
330
1B
100
AcDbEntity
 67
1
  8
R-RAMKA
100
AcDbText
 10
13.303259141494436
 20
383.25
 30
0.0
 40
3.5
  1
A
  7
PL_ARIAL
 11
13.303259141494436
 21
383.25
 31
0.0
100
AcDbText
  0
TEXT
  5
13D
330
1B
100
AcDbEntity
 67
1
  8
R-RAMKA
100
AcDbText
 10
884.3032591414944
 20
333.25
 30
0.0
 40
3.5
  1
B
  7
PL_ARIAL
 11
884.3032591414944
 21
333.25
 31
0.0
100
AcDbText
  0
TEXT
  5
13E
330
1B
100
AcDbEntity
 67
1
  8
R-RAMKA
100
AcDbText
 10
13.303259141494436
 20
333.25
 30
0.0
 40
3.5
  1
B
  7
PL_ARIAL
 11
13.303259141494436
 21
333.25
 31
0.0
100
AcDbText
  0
TEXT
  5
13F
330
1B
100
AcDbEntity
 67
1
  8
R-RAMKA
100
AcDbText
 10
884.1629570747218
 20
283.25
 30
0.0
 40
3.5
  1
C
  7
PL_ARIAL
 11
884.1629570747218
 21
283.25
 31
0.0
100
AcDbText
  0
TEXT
  5
140
330
1B
100
AcDbEntity
 67
1
  8
R-RAMKA
100
AcDbText
 10
13.162957074721781
 20
283.25
 30
0.0
 40
3.5
  1
C
  7
PL_ARIAL
 11
13.162957074721781
 21
283.25
 31
0.0
100
AcDbText
  0
TEXT
  5
141
330
1B
100
AcDbEntity
 67
1
  8
R-RAMKA
100
AcDbText
 10
884.1629570747218
 20
233.25
 30
0.0
 40
3.5
  1
D
  7
PL_ARIAL
 11
884.1629570747218
 21
233.25
 31
0.0
100
AcDbText
  0
TEXT
  5
142
330
1B
100
AcDbEntity
 67
1
  8
R-RAMKA
100
AcDbText
 10
13.162957074721781
 20
233.25
 30
0.0
 40
3.5
  1
D
  7
PL_ARIAL
 11
13.162957074721781
 21
233.25
 31
0.0
100
AcDbText
  0
TEXT
  5
143
330
1B
100
AcDbEntity
 67
1
  8
R-RAMKA
100
AcDbText
 10
884.3032591414944
 20
183.25
 30
0.0
 40
3.5
  1
E
  7
PL_ARIAL
 11
884.3032591414944
 21
183.25
 31
0.0
100
AcDbText
  0
TEXT
  5
144
330
1B
100
AcDbEntity
 67
1
  8
R-RAMKA
100
AcDbText
 10
13.303259141494436
 20
183.25
 30
0.0
 40
3.5
  1
E
  7
PL_ARIAL
 11
13.303259141494436
 21
183.25
 31
0.0
100
AcDbText
  0
TEXT
  5
145
330
1B
100
AcDbEntity
 67
1
  8
R-RAMKA
100
AcDbText
 10
884.4463434022258
 20
133.25
 30
0.0
 40
3.5
  1
F
  7
PL_ARIAL
 11
884.4463434022258
 21
133.25
 31
0.0
100
AcDbText
  0
TEXT
  5
146
330
1B
100
AcDbEntity
 67
1
  8
R-RAMKA
100
AcDbText
 10
13.446343402225756
 20
133.25
 30
0.0
 40
3.5
  1
F
  7
PL_ARIAL
 11
13.446343402225756
 21
133.25
 31
0.0
100
AcDbText
  0
TEXT
  5
147
330
1B
100
AcDbEntity
 67
1
  8
R-RAMKA
100
AcDbText
 10
884.0214626391097
 20
83.25
 30
0.0
 40
3.5
  1
G
  7
PL_ARIAL
 11
884.0214626391097
 21
83.25
 31
0.0
100
AcDbText
  0
TEXT
  5
148
330
1B
100
AcDbEntity
 67
1
  8
R-RAMKA
100
AcDbText
 10
13.021462639109698
 20
83.25
 30
0.0
 40
3.5
  1
G
  7
PL_ARIAL
 11
13.021462639109698
 21
83.25
 31
0.0
100
AcDbText
  0
TEXT
  5
149
330
1B
100
AcDbEntity
 67
1
  8
R-RAMKA
100
AcDbText
 10
884.1629570747218
 20
33.25
 30
0.0
 40
3.5
  1
H
  7
PL_ARIAL
 11
884.1629570747218
 21
33.25
 31
0.0
100
AcDbText
  0
TEXT
  5
14A
330
1B
100
AcDbEntity
 67
1
  8
R-RAMKA
100
AcDbText
 10
13.162957074721781
 20
33.25
 30
0.0
 40
3.5
  1
H
  7
PL_ARIAL
 11
13.162957074721781
 21
33.25
 31
0.0
100
AcDbText
  0
TEXT
  5
14B
330
1B
100
AcDbEntity
 67
1
  8
R-RAMKA
100
AcDbText
 10
862.0895752895752
 20
4.1
 30
0.0
 40
1.8
  1
A3×3 (891×420)
  7
PL_ARIAL
 11
862.0895752895752
 21
4.1
 31
0.0
100
AcDbText
  0
TEXT
  5
14C
330
1B
100
AcDbEntity
 67
1
  8
R-TABLICZKA
100
AcDbText
 10
702.2
 20
100.0
 30
0.0
 40
1.8
  1
PRACOWNIA PROJEKTOWA
  7
PL_ARIAL
 11
702.2
 21
100.0
 31
0.0
100
AcDbText
  0
TEXT
  5
14D
330
1B
100
AcDbEntity
 67
1
  8
R-TABLICZKA
100
AcDbText
 10
702.2
 20
96.1
 30
0.0
 40
2.5
  1
PRACOWNIA PROJEKTOWA — nazwa do uzupełnienia
  7
PL_ARIAL_B
 11
702.2
 21
96.1
 31
0.0
100
AcDbText
  0
TEXT
  5
14E
330
1B
100
AcDbEntity
 67
1
  8
R-TABLICZKA
100
AcDbText
 10
702.2
 20
92.4
 30
0.0
 40
1.8
  1
adres pracowni do uzupełnienia
  7
PL_ARIAL
 11
702.2
 21
92.4
 31
0.0
100
AcDbText
  0
TEXT
  5
14F
330
1B
100
AcDbEntity
 67
1
  8
R-TABLICZKA
100
AcDbText
 10
812.2
 20
100.0
 30
0.0
 40
1.8
  1
STADIUM
  7
PL_ARIAL
 11
812.2
 21
100.0
 31
0.0
100
AcDbText
  0
TEXT
  5
150
330
1B
100
AcDbEntity
 67
1
  8
R-TABLICZKA
100
AcDbText
 10
818.4517374517375
 20
93.5
 30
0.0
 40
5.0
  1
PB
  7
PL_ARIAL_B
 11
818.4517374517375
 21
93.5
 31
0.0
100
AcDbText
  0
TEXT
  5
151
330
1B
100
AcDbEntity
 67
1
  8
R-TABLICZKA
100
AcDbText
 10
837.2
 20
100.0
 30
0.0
 40
1.8
  1
BRANŻA
  7
PL_ARIAL
 11
837.2
 21
100.0
 31
0.0
100
AcDbText
  0
TEXT
  5
152
330
1B
100
AcDbEntity
 67
1
  8
R-TABLICZKA
100
AcDbText
 10
837.2
 20
94.44999999999999
 30
0.0
 40
2.5
  1
ARCHITEKTURA (AR)
  7
PL_ARIAL_B
 11
837.2
 21
94.44999999999999
 31
0.0
100
AcDbText
  0
TEXT
  5
153
330
1B
100
AcDbEntity
 67
1
  8
R-TABLICZKA
100
AcDbText
 10
702.2
 20
88.0
 30
0.0
 40
1.8
  1
INWESTOR
  7
PL_ARIAL
 11
702.2
 21
88.0
 31
0.0
100
AcDbText
  0
TEXT
  5
154
330
1B
100
AcDbEntity
 67
1
  8
R-TABLICZKA
100
AcDbText
 10
702.2
 20
84.44999999999999
 30
0.0
 40
2.5
  1
(do uzupełnienia)
  7
PL_ARIAL
 11
702.2
 21
84.44999999999999
 31
0.0
100
AcDbText
  0
TEXT
  5
155
330
1B
100
AcDbEntity
 67
1
  8
R-TABLICZKA
100
AcDbText
 10
702.2
 20
80.0
 30
0.0
 40
1.8
  1
OBIEKT / NAZWA ZAMIERZENIA BUDOWLANEGO
  7
PL_ARIAL
 11
702.2
 21
80.0
 31
0.0
100
AcDbText
  0
TEXT
  5
156
330
1B
100
AcDbEntity
 67
1
  8
R-TABLICZKA
100
AcDbText
 10
702.2
 20
75.19999999999999
 30
0.0
 40
2.5
  1
Budynek testowy pipeline'u (model testowy) — NIE jest projektem Domu LAMELA
  7
PL_ARIAL_B
 11
702.2
 21
75.19999999999999
 31
0.0
100
AcDbText
  0
TEXT
  5
157
330
1B
100
AcDbEntity
 67
1
  8
R-TABLICZKA
100
AcDbText
 10
702.2
 20
69.5
 30
0.0
 40
1.8
  1
ADRES / LOKALIZACJA (NR DZIAŁKI, OBRĘB, JEDN. EWIDENCYJNA)
  7
PL_ARIAL
 11
702.2
 21
69.5
 31
0.0
100
AcDbText
  0
TEXT
  5
158
330
1B
100
AcDbEntity
 67
1
  8
R-TABLICZKA
100
AcDbText
 10
702.2
 20
65.716
 30
0.0
 40
1.8
  1
dz. nr ewid. T-1/1, obręb 0000 Testowo
  7
PL_ARIAL
 11
702.2
 21
65.716
 31
0.0
100
AcDbText
  0
TEXT
  5
159
330
1B
100
AcDbEntity
 67
1
  8
R-TABLICZKA
100
AcDbText
 10
852.2
 20
69.5
 30
0.0
 40
1.8
  1
KAT. OBIEKTU
  7
PL_ARIAL
 11
852.2
 21
69.5
 31
0.0
100
AcDbText
  0
TEXT
  5
15A
330
1B
100
AcDbEntity
 67
1
  8
R-TABLICZKA
100
AcDbText
 10
865.2933227344992
 20
65.07
 30
0.0
 40
3.5
  1
I
  7
PL_ARIAL_B
 11
865.2933227344992
 21
65.07
 31
0.0
100
AcDbText
  0
TEXT
  5
15B
330
1B
100
AcDbEntity
 67
1
  8
R-TABLICZKA
100
AcDbText
 10
708.4673631614808
 20
60.35
 30
0.0
 40
1.8
  1
FUNKCJA
  7
PL_ARIAL
 11
708.4673631614808
 21
60.35
 31
0.0
100
AcDbText
  0
TEXT
  5
15C
330
1B
100
AcDbEntity
 67
1
  8
R-TABLICZKA
100
AcDbText
 10
738.7431296843062
 20
60.35
 30
0.0
 40
1.8
  1
IMIĘ I NAZWISKO
  7
PL_ARIAL
 11
738.7431296843062
 21
60.35
 31
0.0
100
AcDbText
  0
TEXT
  5
15D
330
1B
100
AcDbEntity
 67
1
  8
R-TABLICZKA
100
AcDbText
 10
777.9770156711334
 20
60.35
 30
0.0
 40
1.8
  1
SPECJALNOŚĆ, NR UPRAWNIEŃ
  7
PL_ARIAL
 11
777.9770156711334
 21
60.35
 31
0.0
100
AcDbText
  0
TEXT
  5
15E
330
1B
100
AcDbEntity
 67
1
  8
R-TABLICZKA
100
AcDbText
 10
832.7051782875312
 20
60.35
 30
0.0
 40
1.8
  1
DATA
  7
PL_ARIAL
 11
832.7051782875312
 21
60.35
 31
0.0
100
AcDbText
  0
TEXT
  5
15F
330
1B
100
AcDbEntity
 67
1
  8
R-TABLICZKA
100
AcDbText
 10
858.556438791733
 20
60.35
 30
0.0
 40
1.8
  1
PODPIS
  7
PL_ARIAL
 11
858.556438791733
 21
60.35
 31
0.0
100
AcDbText
  0
TEXT
  5
160
330
1B
100
AcDbEntity
 67
1
  8
R-TABLICZKA
100
AcDbText
 10
702.2
 20
54.6
 30
0.0
 40
1.8
  1
Projektant
  7
PL_ARIAL
 11
702.2
 21
54.6
 31
0.0
100
AcDbText
  0
TEXT
  5
161
330
1B
100
AcDbEntity
 67
1
  8
R-TABLICZKA
100
AcDbText
 10
702.2
 20
47.6
 30
0.0
 40
1.8
  1
Projektant (wsp.)
  7
PL_ARIAL
 11
702.2
 21
47.6
 31
0.0
100
AcDbText
  0
TEXT
  5
162
330
1B
100
AcDbEntity
 67
1
  8
R-TABLICZKA
100
AcDbText
 10
702.2
 20
40.6
 30
0.0
 40
1.8
  1
Sprawdzający
  7
PL_ARIAL
 11
702.2
 21
40.6
 31
0.0
100
AcDbText
  0
TEXT
  5
163
330
1B
100
AcDbEntity
 67
1
  8
R-TABLICZKA
100
AcDbText
 10
702.2
 20
33.6
 30
0.0
 40
1.8
  1
Opracował
  7
PL_ARIAL
 11
702.2
 21
33.6
 31
0.0
100
AcDbText
  0
TEXT
  5
164
330
1B
100
AcDbEntity
 67
1
  8
R-TABLICZKA
100
AcDbText
 10
702.2
 20
28.0
 30
0.0
 40
1.8
  1
TYTUŁ RYSUNKU
  7
PL_ARIAL
 11
702.2
 21
28.0
 31
0.0
100
AcDbText
  0
TEXT
  5
165
330
1B
100
AcDbEntity
 67
1
  8
R-TABLICZKA
100
AcDbText
 10
702.2
 20
21.5
 30
0.0
 40
5.0
  1
RZUT DACHU
  7
PL_ARIAL_B
 11
702.2
 21
21.5
 31
0.0
100
AcDbText
  0
TEXT
  5
166
330
1B
100
AcDbEntity
 67
1
  8
R-TABLICZKA
100
AcDbText
 10
702.2
 20
16.0
 30
0.0
 40
1.8
  1
SKALA
  7
PL_ARIAL
 11
702.2
 21
16.0
 31
0.0
100
AcDbText
  0
TEXT
  5
167
330
1B
100
AcDbEntity
 67
1
  8
R-TABLICZKA
100
AcDbText
 10
707.9093799682036
 20
11.57
 30
0.0
 40
3.5
  1
1:50
  7
PL_ARIAL_B
 11
707.9093799682036
 21
11.57
 31
0.0
100
AcDbText
  0
TEXT
  5
168
330
1B
100
AcDbEntity
 67
1
  8
R-TABLICZKA
100
AcDbText
 10
726.2
 20
16.0
 30
0.0
 40
1.8
  1
FORMAT
  7
PL_ARIAL
 11
726.2
 21
16.0
 31
0.0
100
AcDbText
  0
TEXT
  5
169
330
1B
100
AcDbEntity
 67
1
  8
R-TABLICZKA
100
AcDbText
 10
728.7060526913468
 20
11.95
 30
0.0
 40
2.5
  1
A3×3
  7
PL_ARIAL
 11
728.7060526913468
 21
11.95
 31
0.0
100
AcDbText
  0
TEXT
  5
16A
330
1B
100
AcDbEntity
 67
1
  8
R-TABLICZKA
100
AcDbText
 10
742.2
 20
16.0
 30
0.0
 40
1.8
  1
DATA WYDANIA
  7
PL_ARIAL
 11
742.2
 21
16.0
 31
0.0
100
AcDbText
  0
TEXT
  5
16B
330
1B
100
AcDbEntity
 67
1
  8
R-TABLICZKA
100
AcDbText
 10
743.706904383375
 20
11.95
 30
0.0
 40
2.5
  1
2026-09-25
  7
PL_ARIAL
 11
743.706904383375
 21
11.95
 31
0.0
100
AcDbText
  0
TEXT
  5
16C
330
1B
100
AcDbEntity
 67
1
  8
R-TABLICZKA
100
AcDbText
 10
766.2
 20
16.0
 30
0.0
 40
1.8
  1
RODZAJ DOK.
  7
PL_ARIAL
 11
766.2
 21
16.0
 31
0.0
100
AcDbText
  0
TEXT
  5
16D
330
1B
100
AcDbEntity
 67
1
  8
R-TABLICZKA
100
AcDbText
 10
775.9713831478538
 20
11.95
 30
0.0
 40
2.5
  1
rzut
  7
PL_ARIAL
 11
775.9713831478538
 21
11.95
 31
0.0
100
AcDbText
  0
TEXT
  5
16E
330
1B
100
AcDbEntity
 67
1
  8
R-TABLICZKA
100
AcDbText
 10
794.2
 20
16.0
 30
0.0
 40
1.8
  1
NR RYSUNKU
  7
PL_ARIAL
 11
794.2
 21
16.0
 31
0.0
100
AcDbText
  0
TEXT
  5
16F
330
1B
100
AcDbEntity
 67
1
  8
R-TABLICZKA
100
AcDbText
 10
809.389507154213
 20
11.57
 30
0.0
 40
3.5
  1
T-AR-03
  7
PL_ARIAL_B
 11
809.389507154213
 21
11.57
 31
0.0
100
AcDbText
  0
TEXT
  5
170
330
1B
100
AcDbEntity
 67
1
  8
R-TABLICZKA
100
AcDbText
 10
846.2
 20
16.0
 30
0.0
 40
1.8
  1
ARKUSZ
  7
PL_ARIAL
 11
846.2
 21
16.0
 31
0.0
100
AcDbText
  0
TEXT
  5
171
330
1B
100
AcDbEntity
 67
1
  8
R-TABLICZKA
100
AcDbText
 10
851.4744492391551
 20
11.95
 30
0.0
 40
2.5
  1
3/9
  7
PL_ARIAL
 11
851.4744492391551
 21
11.95
 31
0.0
100
AcDbText
  0
TEXT
  5
172
330
1B
100
AcDbEntity
 67
1
  8
R-TABLICZKA
100
AcDbText
 10
864.2
 20
16.0
 30
0.0
 40
1.8
  1
REW.
  7
PL_ARIAL
 11
864.2
 21
16.0
 31
0.0
100
AcDbText
  0
TEXT
  5
173
330
1B
100
AcDbEntity
 67
1
  8
R-TABLICZKA
100
AcDbText
 10
870.5854531001589
 20
11.57
 30
0.0
 40
3.5
  1
0
  7
PL_ARIAL_B
 11
870.5854531001589
 21
11.57
 31
0.0
100
AcDbText
  0
TEXT
  5
174
330
1B
100
AcDbEntity
 67
1
  8
R-TABLICZKA
100
AcDbText
 10
702.2
 20
104.25
 30
0.0
 40
2.5
  1
0
  7
PL_ARIAL
 11
702.2
 21
104.25
 31
0.0
100
AcDbText
  0
TEXT
  5
175
330
1B
100
AcDbEntity
 67
1
  8
R-TABLICZKA
100
AcDbText
 10
720.2
 20
104.25
 30
0.0
 40
2.5
  1
Próba generatorów widoków z modelu testowego
  7
PL_ARIAL
 11
720.2
 21
104.25
 31
0.0
100
AcDbText
  0
TEXT
  5
176
330
1B
100
AcDbEntity
 67
1
  8
R-TABLICZKA
100
AcDbText
 10
842.2
 20
104.25
 30
0.0
 40
2.5
  1
2026-09-25
  7
PL_ARIAL
 11
842.2
 21
104.25
 31
0.0
100
AcDbText
  0
TEXT
  5
177
330
1B
100
AcDbEntity
 67
1
  8
R-TABLICZKA
100
AcDbText
 10
702.2
 20
109.6
 30
0.0
 40
1.8
  1
REW.
  7
PL_ARIAL
 11
702.2
 21
109.6
 31
0.0
100
AcDbText
  0
TEXT
  5
178
330
1B
100
AcDbEntity
 67
1
  8
R-TABLICZKA
100
AcDbText
 10
720.2
 20
109.6
 30
0.0
 40
1.8
  1
OPIS ZMIANY
  7
PL_ARIAL
 11
720.2
 21
109.6
 31
0.0
100
AcDbText
  0
TEXT
  5
179
330
1B
100
AcDbEntity
 67
1
  8
R-TABLICZKA
100
AcDbText
 10
842.2
 20
109.6
 30
0.0
 40
1.8
  1
DATA
  7
PL_ARIAL
 11
842.2
 21
109.6
 31
0.0
100
AcDbText
  0
VIEWPORT
  5
2F1
330
1B
100
AcDbEntity
 67
1
  8
R-RZUTNIA
100
AcDbViewport
 10
359.5
 20
217.0
 30
0.0
 40
390.2373881444469
 41
344.08869407222346
 68
2
 69
3
 12
7.006500000000001
 22
2.4910000000000005
 13
0.0
 23
0.0
 14
10.0
 24
10.0
 15
10.0
 25
10.0
 16
0.0
 26
0.0
 36
1.0
 17
0.0
 27
0.0
 37
0.0
 42
50.0
 43
0.0
 44
0.0
 45
17.204434703611174
 50
0.0
 51
0.0
 72
100
 90
16384
  1

281
0
 71
0
 74
0
110
0.0
120
0.0
130
0.0
111
1.0
121
0.0
131
0.0
112
0.0
122
1.0
132
0.0
 79
0
146
0.0
282
0
  0
ENDSEC
  0
SECTION
  2
OBJECTS
  0
DICTIONARY
  5
A
330
0
100
AcDbDictionary
281
1
  3
ACAD_COLOR
350
B
  3
ACAD_GROUP
350
C
  3
ACAD_LAYOUT
350
D
  3
ACAD_MATERIAL
350
E
  3
ACAD_MLEADERSTYLE
350
F
  3
ACAD_MLINESTYLE
350
10
  3
ACAD_PLOTSETTINGS
350
11
  3
ACAD_PLOTSTYLENAME
350
12
  3
ACAD_SCALELIST
350
14
  3
ACAD_TABLESTYLE
350
15
  3
ACAD_VISUALSTYLE
350
16
  3
EZDXF_META
350
2D
  0
DICTIONARY
  5
B
330
A
100
AcDbDictionary
281
1
  0
DICTIONARY
  5
C
330
A
100
AcDbDictionary
281
1
  0
DICTIONARY
  5
D
330
A
100
AcDbDictionary
281
1
  3
Model
350
1A
  3
Arkusz T-AR-03
350
1E
  0
DICTIONARY
  5
E
330
A
100
AcDbDictionary
281
1
  3
ByBlock
350
1F
  3
ByLayer
350
20
  3
Global
350
21
  0
DICTIONARY
  5
F
330
A
100
AcDbDictionary
281
1
  3
Standard
350
2C
  0
DICTIONARY
  5
10
330
A
100
AcDbDictionary
281
1
  3
Standard
350
22
  0
DICTIONARY
  5
11
330
A
100
AcDbDictionary
281
1
  0
ACDBDICTIONARYWDFLT
  5
12
330
A
100
AcDbDictionary
281
1
  3
Normal
350
13
100
AcDbDictionaryWithDefault
340
13
  0
ACDBPLACEHOLDER
  5
13
330
12
  0
DICTIONARY
  5
14
330
A
100
AcDbDictionary
281
1
  0
DICTIONARY
  5
15
330
A
100
AcDbDictionary
281
1
  0
DICTIONARY
  5
16
330
A
100
AcDbDictionary
281
1
  0
LAYOUT
  5
1A
330
D
100
AcDbPlotSettings
  1

  4
A3
  6

 40
7.5
 41
20.0
 42
7.5
 43
20.0
 44
420.0
 45
297.0
 46
0.0
 47
0.0
 48
0.0
 49
0.0
140
0.0
141
0.0
142
1.0
143
1.0
 70
1024
 72
1
 73
0
 74
5
  7

 75
16
 76
0
 77
2
 78
300
147
1.0
148
0.0
149
0.0
100
AcDbLayout
  1
Model
 70
1
 71
0
 10
0.0
 20
0.0
 11
420.0
 21
297.0
 12
0.0
 22
0.0
 32
0.0
 14
1e+20
 24
1e+20
 34
1e+20
 15
-1e+20
 25
-1e+20
 35
-1e+20
146
0.0
 13
0.0
 23
0.0
 33
0.0
 16
1.0
 26
0.0
 36
0.0
 17
0.0
 27
1.0
 37
0.0
 76
1
330
17
  0
LAYOUT
  5
1E
330
D
100
AcDbPlotSettings
  1

  2
DWG to PDF.pc3
  4
LAMELA_(891.00_x_420.00_MM)
  6

 40
0.0
 41
0.0
 42
0.0
 43
0.0
 44
891.0
 45
420.0
 46
0.0
 47
0.0
 48
0.0
 49
0.0
140
0.0
141
0.0
142
1.0
143
1.0
 70
672
 72
1
 73
0
 74
5
  7

 75
16
 76
0
 77
2
 78
300
147
1.0
148
0.0
149
0.0
100
AcDbLayout
  1
Arkusz T-AR-03
 70
1
 71
1
 10
-0.0
 20
-0.0
 11
891.0
 21
420.0
 12
0.0
 22
0.0
 32
0.0
 14
1e+20
 24
1e+20
 34
1e+20
 15
-1e+20
 25
-1e+20
 35
-1e+20
146
0.0
 13
0.0
 23
0.0
 33
0.0
 16
1.0
 26
0.0
 36
0.0
 17
0.0
 27
1.0
 37
0.0
 76
1
330
1B
331
7F
  0
MATERIAL
  5
1F
102
{ACAD_REACTORS
330
E
102
}
330
E
100
AcDbMaterial
  1
ByBlock
  2

 70
0
 40
1.0
 71
1
 41
1.0
 91
-1023410177
 42
1.0
 72
1
  3

 73
1
 74
1
 75
1
 44
0.5
 73
0
 45
1.0
 46
1.0
 77
1
  4

 78
1
 79
1
170
1
 48
1.0
171
1
  6

172
1
173
1
174
1
140
1.0
141
1.0
175
1
  7

176
1
177
1
178
1
143
1.0
179
1
  8

270
1
271
1
272
1
145
1.0
146
1.0
273
1
  9

274
1
275
1
276
1
 42
1.0
 72
1
  3

 73
1
 74
1
 75
1
 94
63
  0
MATERIAL
  5
20
102
{ACAD_REACTORS
330
E
102
}
330
E
100
AcDbMaterial
  1
ByLayer
  2

 70
0
 40
1.0
 71
1
 41
1.0
 91
-1023410177
 42
1.0
 72
1
  3

 73
1
 74
1
 75
1
 44
0.5
 73
0
 45
1.0
 46
1.0
 77
1
  4

 78
1
 79
1
170
1
 48
1.0
171
1
  6

172
1
173
1
174
1
140
1.0
141
1.0
175
1
  7

176
1
177
1
178
1
143
1.0
179
1
  8

270
1
271
1
272
1
145
1.0
146
1.0
273
1
  9

274
1
275
1
276
1
 42
1.0
 72
1
  3

 73
1
 74
1
 75
1
 94
63
  0
MATERIAL
  5
21
102
{ACAD_REACTORS
330
E
102
}
330
E
100
AcDbMaterial
  1
Global
  2

 70
0
 40
1.0
 71
1
 41
1.0
 91
-1023410177
 42
1.0
 72
1
  3

 73
1
 74
1
 75
1
 44
0.5
 73
0
 45
1.0
 46
1.0
 77
1
  4

 78
1
 79
1
170
1
 48
1.0
171
1
  6

172
1
173
1
174
1
140
1.0
141
1.0
175
1
  7

176
1
177
1
178
1
143
1.0
179
1
  8

270
1
271
1
272
1
145
1.0
146
1.0
273
1
  9

274
1
275
1
276
1
 42
1.0
 72
1
  3

 73
1
 74
1
 75
1
 94
63
  0
MLINESTYLE
  5
22
102
{ACAD_REACTORS
330
10
102
}
330
10
100
AcDbMlineStyle
  2
Standard
 70
0
  3

 62
256
 51
90.0
 52
90.0
 71
2
 49
0.5
 62
256
  6
BYLAYER
 49
-0.5
 62
256
  6
BYLAYER
  0
MLEADERSTYLE
  5
2C
102
{ACAD_REACTORS
330
F
102
}
330
F
100
AcDbMLeaderStyle
179
2
170
2
171
1
172
0
 90
2
 40
0.0
 41
0.0
173
1
 91
-1056964608
 92
-2
290
1
 42
2.0
291
1
 43
8.0
  3
Standard
 44
4.0
300

342
29
174
1
175
1
176
0
178
1
 93
-1056964608
 45
4.0
292
0
297
0
 46
4.0
 94
-1056964608
 47
1.0
 49
1.0
140
1.0
294
1
141
0.0
177
0
142
1.0
295
0
296
0
143
3.75
271
0
272
9
273
9
  0
DICTIONARY
  5
2D
330
A
100
AcDbDictionary
280
1
281
1
  3
CREATED_BY_EZDXF
350
2E
  3
WRITTEN_BY_EZDXF
350
2F4
  0
DICTIONARYVAR
  5
2E
330
2D
100
DictionaryVariables
280
0
  1
1.4.4 @ 2026-09-25T01:46:49.415368+00:00
  0
DICTIONARYVAR
  5
2F4
330
2D
100
DictionaryVariables
280
0
  1
1.4.4 @ 2026-09-25T01:46:49.463650+00:00
  0
ENDSEC
  0
EOF
