  0
SECTION
  2
HEADER
  9
$ACADVER
  1
AC1032
  9
$ACADMAINTVER
 90
4
  9
$DWGCODEPAGE
  3
ANSI_1252
  9
$LASTSAVEDBY
  1
ezdxf
  9
$REQUIREDVERSIONS
160
0
  9
$INSBASE
 10
0.0
 20
0.0
 30
0.0
  9
$EXTMIN
 10
1e+20
 20
1e+20
 30
1e+20
  9
$EXTMAX
 10
-1e+20
 20
-1e+20
 30
-1e+20
  9
$LIMMIN
 10
0.0
 20
0.0
  9
$LIMMAX
 10
420.0
 20
297.0
  9
$ORTHOMODE
 70
0
  9
$REGENMODE
 70
1
  9
$FILLMODE
 70
1
  9
$QTEXTMODE
 70
0
  9
$MIRRTEXT
 70
1
  9
$LTSCALE
 40
1.0
  9
$ATTMODE
 70
1
  9
$TEXTSIZE
 40
2.5
  9
$TRACEWID
 40
1.0
  9
$TEXTSTYLE
  7
Standard
  9
$CLAYER
  8
0
  9
$CELTYPE
  6
ByLayer
  9
$CECOLOR
 62
256
  9
$CELTSCALE
 40
1.0
  9
$DISPSILH
 70
0
  9
$DIMSCALE
 40
1.0
  9
$DIMASZ
 40
2.5
  9
$DIMEXO
 40
0.625
  9
$DIMDLI
 40
3.75
  9
$DIMRND
 40
0.0
  9
$DIMDLE
 40
0.0
  9
$DIMEXE
 40
1.25
  9
$DIMTP
 40
0.0
  9
$DIMTM
 40
0.0
  9
$DIMTXT
 40
2.5
  9
$DIMCEN
 40
2.5
  9
$DIMTSZ
 40
0.0
  9
$DIMTOL
 70
0
  9
$DIMLIM
 70
0
  9
$DIMTIH
 70
0
  9
$DIMTOH
 70
0
  9
$DIMSE1
 70
0
  9
$DIMSE2
 70
0
  9
$DIMTAD
 70
1
  9
$DIMZIN
 70
8
  9
$DIMBLK
  1

  9
$DIMASO
 70
1
  9
$DIMSHO
 70
1
  9
$DIMPOST
  1

  9
$DIMAPOST
  1

  9
$DIMALT
 70
0
  9
$DIMALTD
 70
3
  9
$DIMALTF
 40
0.03937007874
  9
$DIMLFAC
 40
1.0
  9
$DIMTOFL
 70
1
  9
$DIMTVP
 40
0.0
  9
$DIMTIX
 70
0
  9
$DIMSOXD
 70
0
  9
$DIMSAH
 70
0
  9
$DIMBLK1
  1

  9
$DIMBLK2
  1

  9
$DIMSTYLE
  2
ISO-25
  9
$DIMCLRD
 70
0
  9
$DIMCLRE
 70
0
  9
$DIMCLRT
 70
0
  9
$DIMTFAC
 40
1.0
  9
$DIMGAP
 40
0.625
  9
$DIMJUST
 70
0
  9
$DIMSD1
 70
0
  9
$DIMSD2
 70
0
  9
$DIMTOLJ
 70
0
  9
$DIMTZIN
 70
8
  9
$DIMALTZ
 70
0
  9
$DIMALTTZ
 70
0
  9
$DIMUPT
 70
0
  9
$DIMDEC
 70
2
  9
$DIMTDEC
 70
2
  9
$DIMALTU
 70
2
  9
$DIMALTTD
 70
3
  9
$DIMTXSTY
  7
Standard
  9
$DIMAUNIT
 70
0
  9
$DIMADEC
 70
0
  9
$DIMALTRND
 40
0.0
  9
$DIMAZIN
 70
0
  9
$DIMDSEP
 70
44
  9
$DIMATFIT
 70
3
  9
$DIMFRAC
 70
0
  9
$DIMLDRBLK
  1

  9
$DIMLUNIT
 70
2
  9
$DIMLWD
 70
-2
  9
$DIMLWE
 70
-2
  9
$DIMTMOVE
 70
0
  9
$DIMFXL
 40
1.0
  9
$DIMFXLON
 70
0
  9
$DIMJOGANG
 40
0.785398163397
  9
$DIMTFILL
 70
0
  9
$DIMTFILLCLR
 70
0
  9
$DIMARCSYM
 70
0
  9
$DIMLTYPE
  6

  9
$DIMLTEX1
  6

  9
$DIMLTEX2
  6

  9
$DIMTXTDIRECTION
 70
0
  9
$LUNITS
 70
2
  9
$LUPREC
 70
4
  9
$SKETCHINC
 40
1.0
  9
$FILLETRAD
 40
10.0
  9
$AUNITS
 70
0
  9
$AUPREC
 70
2
  9
$MENU
  1
.
  9
$ELEVATION
 40
0.0
  9
$PELEVATION
 40
0.0
  9
$THICKNESS
 40
0.0
  9
$LIMCHECK
 70
0
  9
$CHAMFERA
 40
0.0
  9
$CHAMFERB
 40
0.0
  9
$CHAMFERC
 40
0.0
  9
$CHAMFERD
 40
0.0
  9
$SKPOLY
 70
0
  9
$TDCREATE
 40
2461309.074386574
  9
$TDUCREATE
 40
2458532.153996898
  9
$TDUPDATE
 40
2461309.074386574
  9
$TDUUPDATE
 40
2458532.1544311
  9
$TDINDWG
 40
0.0
  9
$TDUSRTIMER
 40
0.0
  9
$USRTIMER
 70
1
  9
$ANGBASE
 50
0.0
  9
$ANGDIR
 70
0
  9
$PDMODE
 70
0
  9
$PDSIZE
 40
0.0
  9
$PLINEWID
 40
0.0
  9
$SPLFRAME
 70
0
  9
$SPLINETYPE
 70
6
  9
$SPLINESEGS
 70
8
  9
$HANDSEED
  5
2EF
  9
$SURFTAB1
 70
6
  9
$SURFTAB2
 70
6
  9
$SURFTYPE
 70
6
  9
$SURFU
 70
6
  9
$SURFV
 70
6
  9
$UCSBASE
  2

  9
$UCSNAME
  2

  9
$UCSORG
 10
0.0
 20
0.0
 30
0.0
  9
$UCSXDIR
 10
1.0
 20
0.0
 30
0.0
  9
$UCSYDIR
 10
0.0
 20
1.0
 30
0.0
  9
$UCSORTHOREF
  2

  9
$UCSORTHOVIEW
 70
0
  9
$UCSORGTOP
 10
0.0
 20
0.0
 30
0.0
  9
$UCSORGBOTTOM
 10
0.0
 20
0.0
 30
0.0
  9
$UCSORGLEFT
 10
0.0
 20
0.0
 30
0.0
  9
$UCSORGRIGHT
 10
0.0
 20
0.0
 30
0.0
  9
$UCSORGFRONT
 10
0.0
 20
0.0
 30
0.0
  9
$UCSORGBACK
 10
0.0
 20
0.0
 30
0.0
  9
$PUCSBASE
  2

  9
$PUCSNAME
  2

  9
$PUCSORG
 10
0.0
 20
0.0
 30
0.0
  9
$PUCSXDIR
 10
1.0
 20
0.0
 30
0.0
  9
$PUCSYDIR
 10
0.0
 20
1.0
 30
0.0
  9
$PUCSORTHOREF
  2

  9
$PUCSORTHOVIEW
 70
0
  9
$PUCSORGTOP
 10
0.0
 20
0.0
 30
0.0
  9
$PUCSORGBOTTOM
 10
0.0
 20
0.0
 30
0.0
  9
$PUCSORGLEFT
 10
0.0
 20
0.0
 30
0.0
  9
$PUCSORGRIGHT
 10
0.0
 20
0.0
 30
0.0
  9
$PUCSORGFRONT
 10
0.0
 20
0.0
 30
0.0
  9
$PUCSORGBACK
 10
0.0
 20
0.0
 30
0.0
  9
$USERI1
 70
0
  9
$USERI2
 70
0
  9
$USERI3
 70
0
  9
$USERI4
 70
0
  9
$USERI5
 70
0
  9
$USERR1
 40
0.0
  9
$USERR2
 40
0.0
  9
$USERR3
 40
0.0
  9
$USERR4
 40
0.0
  9
$USERR5
 40
0.0
  9
$WORLDVIEW
 70
1
  9
$SHADEDGE
 70
3
  9
$SHADEDIF
 70
70
  9
$TILEMODE
 70
1
  9
$MAXACTVP
 70
64
  9
$PINSBASE
 10
0.0
 20
0.0
 30
0.0
  9
$PLIMCHECK
 70
0
  9
$PEXTMIN
 10
1e+20
 20
1e+20
 30
1e+20
  9
$PEXTMAX
 10
-1e+20
 20
-1e+20
 30
-1e+20
  9
$PLIMMIN
 10
-0.0
 20
-0.0
  9
$PLIMMAX
 10
594.0
 20
420.0
  9
$UNITMODE
 70
0
  9
$VISRETAIN
 70
1
  9
$PLINEGEN
 70
0
  9
$PSLTSCALE
 70
0
  9
$TREEDEPTH
 70
3020
  9
$CMLSTYLE
  2
Standard
  9
$CMLJUST
 70
0
  9
$CMLSCALE
 40
20.0
  9
$PROXYGRAPHICS
 70
1
  9
$MEASUREMENT
 70
1
  9
$CELWEIGHT
370
-1
  9
$ENDCAPS
280
0
  9
$JOINSTYLE
280
0
  9
$LWDISPLAY
290
1
  9
$INSUNITS
 70
6
  9
$HYPERLINKBASE
  1

  9
$STYLESHEET
  1

  9
$XEDIT
290
1
  9
$CEPSNTYPE
380
0
  9
$PSTYLEMODE
290
1
  9
$FINGERPRINTGUID
  2
{D0E6F17D-1BBD-44A3-8930-9FF7A1532B5F}
  9
$VERSIONGUID
  2
{7053237F-2E36-4765-8B14-0FB102A9DFBB}
  9
$EXTNAMES
290
1
  9
$PSVPSCALE
 40
0.0
  9
$OLESTARTUP
290
0
  9
$SORTENTS
280
127
  9
$INDEXCTL
280
0
  9
$HIDETEXT
280
1
  9
$XCLIPFRAME
280
1
  9
$HALOGAP
280
0
  9
$OBSCOLOR
 70
257
  9
$OBSLTYPE
280
0
  9
$INTERSECTIONDISPLAY
280
0
  9
$INTERSECTIONCOLOR
 70
257
  9
$DIMASSOC
280
2
  9
$PROJECTNAME
  1

  9
$CAMERADISPLAY
290
0
  9
$LENSLENGTH
 40
50.0
  9
$CAMERAHEIGHT
 40
0.0
  9
$STEPSPERSEC
 40
24.0
  9
$STEPSIZE
 40
100.0
  9
$3DDWFPREC
 40
2.0
  9
$PSOLWIDTH
 40
0.005
  9
$PSOLHEIGHT
 40
0.08
  9
$LOFTANG1
 40
1.570796326795
  9
$LOFTANG2
 40
1.570796326795
  9
$LOFTMAG1
 40
0.0
  9
$LOFTMAG2
 40
0.0
  9
$LOFTPARAM
 70
7
  9
$LOFTNORMALS
280
1
  9
$LATITUDE
 40
37.795
  9
$LONGITUDE
 40
-122.394
  9
$NORTHDIRECTION
 40
0.0
  9
$TIMEZONE
 70
-8000
  9
$LIGHTGLYPHDISPLAY
280
1
  9
$TILEMODELIGHTSYNCH
280
1
  9
$CMATERIAL
347
20
  9
$SOLIDHIST
280
0
  9
$SHOWHIST
280
1
  9
$DWFFRAME
280
2
  9
$DGNFRAME
280
2
  9
$REALWORLDSCALE
290
1
  9
$INTERFERECOLOR
 62
256
  9
$CSHADOW
280
0
  9
$SHADOWPLANELOCATION
 40
0.0
  0
ENDSEC
  0
SECTION
  2
CLASSES
  0
CLASS
  1
ACDBDICTIONARYWDFLT
  2
AcDbDictionaryWithDefault
  3
ObjectDBX Classes
 90
0
 91
0
280
0
281
0
  0
CLASS
  1
SUN
  2
AcDbSun
  3
SCENEOE
 90
1153
 91
0
280
0
281
0
  0
CLASS
  1
VISUALSTYLE
  2
AcDbVisualStyle
  3
ObjectDBX Classes
 90
4095
 91
0
280
0
281
0
  0
CLASS
  1
MATERIAL
  2
AcDbMaterial
  3
ObjectDBX Classes
 90
1153
 91
0
280
0
281
0
  0
CLASS
  1
SCALE
  2
AcDbScale
  3
ObjectDBX Classes
 90
1153
 91
0
280
0
281
0
  0
CLASS
  1
TABLESTYLE
  2
AcDbTableStyle
  3
ObjectDBX Classes
 90
4095
 91
0
280
0
281
0
  0
CLASS
  1
MLEADERSTYLE
  2
AcDbMLeaderStyle
  3
ACDB_MLEADERSTYLE_CLASS
 90
4095
 91
0
280
0
281
0
  0
CLASS
  1
DICTIONARYVAR
  2
AcDbDictionaryVar
  3
ObjectDBX Classes
 90
0
 91
0
280
0
281
0
  0
CLASS
  1
CELLSTYLEMAP
  2
AcDbCellStyleMap
  3
ObjectDBX Classes
 90
1152
 91
0
280
0
281
0
  0
CLASS
  1
MENTALRAYRENDERSETTINGS
  2
AcDbMentalRayRenderSettings
  3
SCENEOE
 90
1024
 91
0
280
0
281
0
  0
CLASS
  1
ACDBDETAILVIEWSTYLE
  2
AcDbDetailViewStyle
  3
ObjectDBX Classes
 90
1025
 91
0
280
0
281
0
  0
CLASS
  1
ACDBSECTIONVIEWSTYLE
  2
AcDbSectionViewStyle
  3
ObjectDBX Classes
 90
1025
 91
0
280
0
281
0
  0
CLASS
  1
RASTERVARIABLES
  2
AcDbRasterVariables
  3
ISM
 90
0
 91
0
280
0
281
0
  0
CLASS
  1
LAYOUT
  2
AcDbLayout
  3
ObjectDBX Classes
 90
0
 91
0
280
0
281
0
  0
CLASS
  1
ACDBPLACEHOLDER
  2
AcDbPlaceHolder
  3
ObjectDBX Classes
 90
0
 91
0
280
0
281
0
  0
ENDSEC
  0
SECTION
  2
TABLES
  0
TABLE
  2
VPORT
  5
8
330
0
100
AcDbSymbolTable
 70
1
  0
VPORT
  5
23
330
8
100
AcDbSymbolTableRecord
100
AcDbViewportTableRecord
  2
*Active
 70
0
 10
0.0
 20
0.0
 11
1.0
 21
1.0
 12
0.0
 22
0.0
 13
0.0
 23
0.0
 14
0.5
 24
0.5
 15
0.5
 25
0.5
 16
0.0
 26
0.0
 36
1.0
 17
0.0
 27
0.0
 37
0.0
 40
1000.0
 41
1.34
 42
50.0
 43
0.0
 44
0.0
 50
0.0
 51
0.0
 71
0
 72
1000
 73
1
 74
3
 75
0
 76
0
 77
0
 78
0
281
0
 65
0
146
0.0
  0
ENDTAB
  0
TABLE
  2
LTYPE
  5
2
330
0
100
AcDbSymbolTable
 70
14
  0
LTYPE
  5
24
330
2
100
AcDbSymbolTableRecord
100
AcDbLinetypeTableRecord
  2
ByBlock
 70
0
  3

 72
65
 73
0
 40
0.0
  0
LTYPE
  5
25
330
2
100
AcDbSymbolTableRecord
100
AcDbLinetypeTableRecord
  2
ByLayer
 70
0
  3

 72
65
 73
0
 40
0.0
  0
LTYPE
  5
26
330
2
100
AcDbSymbolTableRecord
100
AcDbLinetypeTableRecord
  2
Continuous
 70
0
  3

 72
65
 73
0
 40
0.0
  0
LTYPE
  5
2F
330
2
100
AcDbSymbolTableRecord
100
AcDbLinetypeTableRecord
  2
KRESKOWA
 70
0
  3
Linia kreskowa (02): krawędzie niewidoczne, elementy pod/nad płaszczyzną cięcia
 72
65
 73
2
 40
5.249999999999999
 49
4.199999999999999
 74
0
 49
-1.0499999999999998
 74
0
  0
LTYPE
  5
30
330
2
100
AcDbSymbolTableRecord
100
AcDbLinetypeTableRecord
  2
KRESKOWA_DROBNA
 70
0
  3
Linia kreskowa drobna (kreska krótka 6d)
 72
65
 73
2
 40
3.1499999999999995
 49
2.0999999999999996
 74
0
 49
-1.0499999999999998
 74
0
  0
LTYPE
  5
31
330
2
100
AcDbSymbolTableRecord
100
AcDbLinetypeTableRecord
  2
PUNKTOWA
 70
0
  3
Linia punktowa (04): osie, płaszczyzny przekroju
 72
65
 73
4
 40
10.5
 49
8.399999999999999
 74
0
 49
-1.0499999999999998
 74
0
 49
0.0
 74
0
 49
-1.0499999999999998
 74
0
  0
LTYPE
  5
32
330
2
100
AcDbSymbolTableRecord
100
AcDbLinetypeTableRecord
  2
PUNKTOWA_KROTKA
 70
0
  3
Linia punktowa z kreską zwykłą (końce przekrojów, gaz)
 72
65
 73
4
 40
6.299999999999999
 49
4.199999999999999
 74
0
 49
-1.0499999999999998
 74
0
 49
0.0
 74
0
 49
-1.0499999999999998
 74
0
  0
LTYPE
  5
33
330
2
100
AcDbSymbolTableRecord
100
AcDbLinetypeTableRecord
  2
DWUPUNKTOWA
 70
0
  3
Linia dwupunktowa (05): położenia skrajne, części przyległe
 72
65
 73
6
 40
11.55
 49
8.399999999999999
 74
0
 49
-1.0499999999999998
 74
0
 49
0.0
 74
0
 49
-1.0499999999999998
 74
0
 49
0.0
 74
0
 49
-1.0499999999999998
 74
0
  0
LTYPE
  5
34
330
2
100
AcDbSymbolTableRecord
100
AcDbLinetypeTableRecord
  2
KROPKOWA
 70
0
  3
Linia kropkowa (07): elementy nieobjęte projektem
 72
65
 73
2
 40
1.0499999999999998
 49
0.0
 74
0
 49
-1.0499999999999998
 74
0
  0
LTYPE
  5
35
330
2
100
AcDbSymbolTableRecord
100
AcDbLinetypeTableRecord
  2
KRESKA_DLUGA
 70
0
  3
Linia kreskowa długa (instalacje)
 72
65
 73
2
 40
9.45
 49
8.399999999999999
 74
0
 49
-1.0499999999999998
 74
0
  0
LTYPE
  5
36
330
2
100
AcDbSymbolTableRecord
100
AcDbLinetypeTableRecord
  2
KRESKOWA_3_1
 70
0
  3
Linia kreskowa 3/1 mm (paroizolacja, R4 pkt 3.8)
 72
65
 73
2
 40
4.0
 49
3.0
 74
0
 49
-1.0
 74
0
  0
LTYPE
  5
37
330
2
100
AcDbSymbolTableRecord
100
AcDbLinetypeTableRecord
  2
HYDRO_OKNA
 70
0
  3
Białe okna pasa izolacji przeciwwodnej (czarny 3 / biały 1,5 mm)
 72
65
 73
2
 40
4.5
 49
1.5
 74
0
 49
-3.0
 74
0
  0
LTYPE
  5
38
330
2
100
AcDbSymbolTableRecord
100
AcDbLinetypeTableRecord
  2
WIELOPUNKTOWA
 70
0
  3
Linia wielopunktowa (telekomunikacja, PN-B-01027)
 72
65
 73
8
 40
13.399999999999999
 49
9.0
 74
0
 49
-1.2
 74
0
 49
0.0
 74
0
 49
-1.0
 74
0
 49
0.0
 74
0
 49
-1.0
 74
0
 49
0.0
 74
0
 49
-1.2
 74
0
  0
LTYPE
  5
39
330
2
100
AcDbSymbolTableRecord
100
AcDbLinetypeTableRecord
  2
KABEL_E
 70
0
  3
Kabel elektroenergetyczny (PN-B-01027: kreskowa 2·9·2)
 72
65
 73
2
 40
11.0
 49
9.0
 74
0
 49
-2.0
 74
0
  0
ENDTAB
  0
TABLE
  2
LAYER
  5
1
330
0
100
AcDbSymbolTable
 70
66
  0
LAYER
  5
27
330
1
100
AcDbSymbolTableRecord
100
AcDbLayerTableRecord
  2
0
 70
0
 62
7
  6
Continuous
370
-3
390
13
347
21
  0
LAYER
  5
28
330
1
100
AcDbSymbolTableRecord
100
AcDbLayerTableRecord
  2
Defpoints
 70
0
 62
7
  6
Continuous
290
0
370
-3
390
13
347
21
  0
LAYER
  5
3E
330
1
100
AcDbSymbolTableRecord
100
AcDbLayerTableRecord
  2
R-RAMKA
 70
0
 62
7
  6
Continuous
370
50
390
13
347
21
1001
AcAecLayerStandard
1000

1000
Ramka arkusza, znaki składania i centrowania
  0
LAYER
  5
40
330
1
100
AcDbSymbolTableRecord
100
AcDbLayerTableRecord
  2
R-TABLICZKA
 70
0
 62
7
  6
Continuous
370
25
390
13
347
21
1001
AcAecLayerStandard
1000

1000
Tabliczka rysunkowa (PN-EN ISO 7200)
  0
LAYER
  5
41
330
1
100
AcDbSymbolTableRecord
100
AcDbLayerTableRecord
  2
R-OPISY
 70
0
 62
7
  6
Continuous
370
25
390
13
347
21
1001
AcAecLayerStandard
1000

1000
Opisy arkusza: tytuły rzutni, uwagi, legendy
  0
LAYER
  5
42
330
1
100
AcDbSymbolTableRecord
100
AcDbLayerTableRecord
  2
R-LEGENDA
 70
0
 62
7
  6
Continuous
370
25
390
13
347
21
1001
AcAecLayerStandard
1000

1000
Legenda oznaczeń
  0
LAYER
  5
43
330
1
100
AcDbSymbolTableRecord
100
AcDbLayerTableRecord
  2
R-RZUTNIA
 70
0
 62
8
  6
Continuous
290
0
370
18
390
13
347
21
1001
AcAecLayerStandard
1000

1000
Obrys rzutni (nie drukowany)
  0
LAYER
  5
44
330
1
100
AcDbSymbolTableRecord
100
AcDbLayerTableRecord
  2
A-SCIANY-KONSTR
 70
0
 62
7
  6
Continuous
370
50
390
13
347
21
1001
AcAecLayerStandard
1000

1000
Ściany i słupy konstrukcyjne w przekroju — kontur
  0
LAYER
  5
45
330
1
100
AcDbSymbolTableRecord
100
AcDbLayerTableRecord
  2
A-SCIANY-DZIAL
 70
0
 62
7
  6
Continuous
370
35
390
13
347
21
1001
AcAecLayerStandard
1000

1000
Ścianki działowe w przekroju — kontur
  0
LAYER
  5
46
330
1
100
AcDbSymbolTableRecord
100
AcDbLayerTableRecord
  2
A-SCIANY-IZOL
 70
0
 62
4
  6
Continuous
370
35
390
13
347
21
1001
AcAecLayerStandard
1000

1000
Warstwy izolacji termicznej ścian — kontur
  0
LAYER
  5
47
330
1
100
AcDbSymbolTableRecord
100
AcDbLayerTableRecord
  2
A-SCIANY-WYK
 70
0
 62
8
  6
Continuous
370
18
390
13
347
21
1001
AcAecLayerStandard
1000

1000
Tynki, okładziny, warstwy wykończeniowe — kontur
  0
LAYER
  5
48
330
1
100
AcDbSymbolTableRecord
100
AcDbLayerTableRecord
  2
A-STROPY
 70
0
 62
7
  6
Continuous
370
50
390
13
347
21
1001
AcAecLayerStandard
1000

1000
Stropy, płyty, stropodachy w przekroju — kontur
  0
LAYER
  5
49
330
1
100
AcDbSymbolTableRecord
100
AcDbLayerTableRecord
  2
A-WARSTWY
 70
0
 62
8
  6
Continuous
370
25
390
13
347
21
1001
AcAecLayerStandard
1000

1000
Warstwy przegród poziomych (podłogi, dachy) — kontur
  0
LAYER
  5
4A
330
1
100
AcDbSymbolTableRecord
100
AcDbLayerTableRecord
  2
A-IZOL-WODNA
 70
0
 62
5
  6
Continuous
370
100
390
13
347
21
1001
AcAecLayerStandard
1000

1000
Izolacje przeciwwodne/przeciwwilgociowe/paroizolacje
  0
LAYER
  5
4B
330
1
100
AcDbSymbolTableRecord
100
AcDbLayerTableRecord
  2
A-FUNDAMENTY
 70
0
 62
7
  6
Continuous
370
50
390
13
347
21
1001
AcAecLayerStandard
1000

1000
Fundamenty w przekroju — kontur
  0
LAYER
  5
4C
330
1
100
AcDbSymbolTableRecord
100
AcDbLayerTableRecord
  2
A-KRESKOWANIE
 70
0
 62
8
  6
Continuous
370
18
390
13
347
21
1001
AcAecLayerStandard
1000

1000
Kreskowanie materiałów (PN-B-01030)
  0
LAYER
  5
4D
330
1
100
AcDbSymbolTableRecord
100
AcDbLayerTableRecord
  2
A-WYPELNIENIA
 70
0
 62
9
  6
Continuous
370
18
390
13
347
21
1001
AcAecLayerStandard
1000

1000
Wypełnienia (zaczernienia, tła)
  0
LAYER
  5
4E
330
1
100
AcDbSymbolTableRecord
100
AcDbLayerTableRecord
  2
A-WIDOK
 70
0
 62
7
  6
Continuous
370
25
390
13
347
21
1001
AcAecLayerStandard
1000

1000
Krawędzie widoczne (poza płaszczyzną cięcia)
  0
LAYER
  5
4F
330
1
100
AcDbSymbolTableRecord
100
AcDbLayerTableRecord
  2
A-NIEWIDOCZNE
 70
0
 62
8
  6
KRESKOWA
370
25
390
13
347
21
1001
AcAecLayerStandard
1000

1000
Krawędzie niewidoczne
  0
LAYER
  5
50
330
1
100
AcDbSymbolTableRecord
100
AcDbLayerTableRecord
  2
A-NAD-CIECIEM
 70
0
 62
8
  6
KRESKOWA
370
25
390
13
347
21
1001
AcAecLayerStandard
1000

1000
Elementy nad płaszczyzną cięcia (belki, nadproża, okapy)
  0
LAYER
  5
51
330
1
100
AcDbSymbolTableRecord
100
AcDbLayerTableRecord
  2
A-OKNA
 70
0
 62
3
  6
Continuous
370
35
390
13
347
21
1001
AcAecLayerStandard
1000

1000
Stolarka okienna
  0
LAYER
  5
52
330
1
100
AcDbSymbolTableRecord
100
AcDbLayerTableRecord
  2
A-DRZWI
 70
0
 62
3
  6
Continuous
370
35
390
13
347
21
1001
AcAecLayerStandard
1000

1000
Stolarka drzwiowa
  0
LAYER
  5
53
330
1
100
AcDbSymbolTableRecord
100
AcDbLayerTableRecord
  2
A-SCHODY
 70
0
 62
6
  6
Continuous
370
25
390
13
347
21
1001
AcAecLayerStandard
1000

1000
Schody, pochylnie, balustrady
  0
LAYER
  5
54
330
1
100
AcDbSymbolTableRecord
100
AcDbLayerTableRecord
  2
A-MEBLE
 70
0
 62
8
  6
Continuous
370
18
390
13
347
21
1001
AcAecLayerStandard
1000

1000
Meble i wyposażenie ruchome
  0
LAYER
  5
55
330
1
100
AcDbSymbolTableRecord
100
AcDbLayerTableRecord
  2
A-SANITARNE
 70
0
 62
6
  6
Continuous
370
25
390
13
347
21
1001
AcAecLayerStandard
1000

1000
Wyposażenie sanitarne i kuchenne
  0
LAYER
  5
56
330
1
100
AcDbSymbolTableRecord
100
AcDbLayerTableRecord
  2
A-WYMIARY
 70
0
 62
1
  6
Continuous
370
25
390
13
347
21
1001
AcAecLayerStandard
1000

1000
Wymiarowanie (PN-B-01029)
  0
LAYER
  5
57
330
1
100
AcDbSymbolTableRecord
100
AcDbLayerTableRecord
  2
A-OPISY
 70
0
 62
2
  6
Continuous
370
25
390
13
347
21
1001
AcAecLayerStandard
1000

1000
Opisy, odnośniki, opisy warstw
  0
LAYER
  5
58
330
1
100
AcDbSymbolTableRecord
100
AcDbLayerTableRecord
  2
A-POMIESZCZENIA
 70
0
 62
2
  6
Continuous
370
25
390
13
347
21
1001
AcAecLayerStandard
1000

1000
Oznaczenia pomieszczeń (PN-EN ISO 4157)
  0
LAYER
  5
59
330
1
100
AcDbSymbolTableRecord
100
AcDbLayerTableRecord
  2
A-OSIE
 70
0
 62
1
  6
PUNKTOWA
370
25
390
13
347
21
1001
AcAecLayerStandard
1000

1000
Osie konstrukcyjne
  0
LAYER
  5
5A
330
1
100
AcDbSymbolTableRecord
100
AcDbLayerTableRecord
  2
A-RZEDNE
 70
0
 62
1
  6
Continuous
370
25
390
13
347
21
1001
AcAecLayerStandard
1000

1000
Rzędne wysokościowe
  0
LAYER
  5
5B
330
1
100
AcDbSymbolTableRecord
100
AcDbLayerTableRecord
  2
A-PRZEKROJE
 70
0
 62
1
  6
PUNKTOWA_KROTKA
370
50
390
13
347
21
1001
AcAecLayerStandard
1000

1000
Oznaczenia przekrojów i widoków
  0
LAYER
  5
5C
330
1
100
AcDbSymbolTableRecord
100
AcDbLayerTableRecord
  2
A-SYMBOLE
 70
0
 62
2
  6
Continuous
370
25
390
13
347
21
1001
AcAecLayerStandard
1000

1000
Symbole ogólne (północ, spadki, odnośniki)
  0
LAYER
  5
5D
330
1
100
AcDbSymbolTableRecord
100
AcDbLayerTableRecord
  2
A-TEREN
 70
0
 62
32
  6
Continuous
370
50
390
13
347
21
1001
AcAecLayerStandard
1000

1000
Linia terenu, grunt
  0
LAYER
  5
5E
330
1
100
AcDbSymbolTableRecord
100
AcDbLayerTableRecord
  2
A-ELEWACJE
 70
0
 62
7
  6
Continuous
370
35
390
13
347
21
1001
AcAecLayerStandard
1000

1000
Elewacje — krawędzie
  0
LAYER
  5
5F
330
1
100
AcDbSymbolTableRecord
100
AcDbLayerTableRecord
  2
A-MASKA
 70
0
 62
7
  6
Continuous
370
18
390
13
347
21
1001
AcAecLayerStandard
1000

1000
Maski (tło napisów)
  0
LAYER
  5
60
330
1
100
AcDbSymbolTableRecord
100
AcDbLayerTableRecord
  2
K-KONSTR
 70
0
 62
7
  6
Continuous
370
50
390
13
347
21
1001
AcAecLayerStandard
1000

1000
Konstrukcja — kontury elementów
  0
LAYER
  5
61
330
1
100
AcDbSymbolTableRecord
100
AcDbLayerTableRecord
  2
K-ZBROJENIE
 70
0
 62
1
  6
Continuous
370
100
390
13
347
21
1001
AcAecLayerStandard
1000

1000
Zbrojenie — pręty (PN-EN ISO 3766)
  0
LAYER
  5
62
330
1
100
AcDbSymbolTableRecord
100
AcDbLayerTableRecord
  2
K-ZBROJENIE-OPIS
 70
0
 62
2
  6
Continuous
370
25
390
13
347
21
1001
AcAecLayerStandard
1000

1000
Zbrojenie — opisy pozycji
  0
LAYER
  5
63
330
1
100
AcDbSymbolTableRecord
100
AcDbLayerTableRecord
  2
K-WYMIARY
 70
0
 62
1
  6
Continuous
370
25
390
13
347
21
1001
AcAecLayerStandard
1000

1000
Konstrukcja — wymiary
  0
LAYER
  5
64
330
1
100
AcDbSymbolTableRecord
100
AcDbLayerTableRecord
  2
K-OSIE
 70
0
 62
1
  6
PUNKTOWA
370
25
390
13
347
21
1001
AcAecLayerStandard
1000

1000
Konstrukcja — osie
  0
LAYER
  5
65
330
1
100
AcDbSymbolTableRecord
100
AcDbLayerTableRecord
  2
S-WODA
 70
0
 62
5
420
20680
  6
Continuous
370
35
390
13
347
21
1001
AcAecLayerStandard
1000

1000
Instalacja wody zimnej
  0
LAYER
  5
66
330
1
100
AcDbSymbolTableRecord
100
AcDbLayerTableRecord
  2
S-CWU
 70
0
 62
1
420
13631488
  6
KRESKOWA
370
35
390
13
347
21
1001
AcAecLayerStandard
1000

1000
Instalacja ciepłej wody użytkowej
  0
LAYER
  5
67
330
1
100
AcDbSymbolTableRecord
100
AcDbLayerTableRecord
  2
S-CYRK
 70
0
 62
6
420
11534512
  6
PUNKTOWA_KROTKA
370
25
390
13
347
21
1001
AcAecLayerStandard
1000

1000
Instalacja cyrkulacji CWU
  0
LAYER
  5
68
330
1
100
AcDbSymbolTableRecord
100
AcDbLayerTableRecord
  2
S-KANAL
 70
0
 62
34
420
8013056
  6
Continuous
370
50
390
13
347
21
1001
AcAecLayerStandard
1000

1000
Kanalizacja sanitarna
  0
LAYER
  5
69
330
1
100
AcDbSymbolTableRecord
100
AcDbLayerTableRecord
  2
S-DESZCZ
 70
0
 62
150
420
32906
  6
KRESKA_DLUGA
370
35
390
13
347
21
1001
AcAecLayerStandard
1000

1000
Kanalizacja deszczowa / odwodnienie
  0
LAYER
  5
6A
330
1
100
AcDbSymbolTableRecord
100
AcDbLayerTableRecord
  2
S-OGRZ
 70
0
 62
1
420
14700544
  6
Continuous
370
25
390
13
347
21
1001
AcAecLayerStandard
1000

1000
Ogrzewanie (zasilanie/powrót, pętle podłogowe)
  0
LAYER
  5
6B
330
1
100
AcDbSymbolTableRecord
100
AcDbLayerTableRecord
  2
S-WENT
 70
0
 62
3
420
35328
  6
Continuous
370
35
390
13
347
21
1001
AcAecLayerStandard
1000

1000
Wentylacja mechaniczna
  0
LAYER
  5
6C
330
1
100
AcDbSymbolTableRecord
100
AcDbLayerTableRecord
  2
S-URZADZENIA
 70
0
 62
2
420
3158064
  6
Continuous
370
35
390
13
347
21
1001
AcAecLayerStandard
1000

1000
Urządzenia i armatura instalacji sanitarnych
  0
LAYER
  5
6D
330
1
100
AcDbSymbolTableRecord
100
AcDbLayerTableRecord
  2
S-OPISY
 70
0
 62
2
  6
Continuous
370
25
390
13
347
21
1001
AcAecLayerStandard
1000

1000
Instalacje sanitarne — opisy
  0
LAYER
  5
6E
330
1
100
AcDbSymbolTableRecord
100
AcDbLayerTableRecord
  2
E-GNIAZDA
 70
0
 62
1
420
12582912
  6
Continuous
370
35
390
13
347
21
1001
AcAecLayerStandard
1000

1000
Gniazda wtyczkowe (PN-EN 60617)
  0
LAYER
  5
6F
330
1
100
AcDbSymbolTableRecord
100
AcDbLayerTableRecord
  2
E-OSWIETLENIE
 70
0
 62
30
420
13656064
  6
Continuous
370
35
390
13
347
21
1001
AcAecLayerStandard
1000

1000
Oprawy oświetleniowe
  0
LAYER
  5
70
330
1
100
AcDbSymbolTableRecord
100
AcDbLayerTableRecord
  2
E-LACZNIKI
 70
0
 62
30
420
13656064
  6
Continuous
370
35
390
13
347
21
1001
AcAecLayerStandard
1000

1000
Łączniki, czujniki
  0
LAYER
  5
71
330
1
100
AcDbSymbolTableRecord
100
AcDbLayerTableRecord
  2
E-TRASY
 70
0
 62
8
420
6316128
  6
Continuous
370
25
390
13
347
21
1001
AcAecLayerStandard
1000

1000
Trasy przewodów
  0
LAYER
  5
72
330
1
100
AcDbSymbolTableRecord
100
AcDbLayerTableRecord
  2
E-ROZDZIELNICE
 70
0
 62
1
420
12582912
  6
Continuous
370
35
390
13
347
21
1001
AcAecLayerStandard
1000

1000
Rozdzielnice, złącza, puszki
  0
LAYER
  5
73
330
1
100
AcDbSymbolTableRecord
100
AcDbLayerTableRecord
  2
E-TELETECH
 70
0
 62
5
420
20680
  6
Continuous
370
35
390
13
347
21
1001
AcAecLayerStandard
1000

1000
Instalacje teletechniczne (LAN, TV, domofon)
  0
LAYER
  5
74
330
1
100
AcDbSymbolTableRecord
100
AcDbLayerTableRecord
  2
E-ODGROM
 70
0
 62
3
420
35328
  6
Continuous
370
35
390
13
347
21
1001
AcAecLayerStandard
1000

1000
Uziemienia, połączenia wyrównawcze, ochrona odgromowa
  0
LAYER
  5
75
330
1
100
AcDbSymbolTableRecord
100
AcDbLayerTableRecord
  2
E-OPISY
 70
0
 62
2
  6
Continuous
370
25
390
13
347
21
1001
AcAecLayerStandard
1000

1000
Instalacje elektryczne — opisy
  0
LAYER
  5
76
330
1
100
AcDbSymbolTableRecord
100
AcDbLayerTableRecord
  2
Z-GRANICE
 70
0
 62
1
  6
DWUPUNKTOWA
370
50
390
13
347
21
1001
AcAecLayerStandard
1000

1000
Granice działki, punkty graniczne
  0
LAYER
  5
77
330
1
100
AcDbSymbolTableRecord
100
AcDbLayerTableRecord
  2
Z-ZABUDOWA
 70
0
 62
7
  6
Continuous
370
50
390
13
347
21
1001
AcAecLayerStandard
1000

1000
Budynki projektowane i istniejące
  0
LAYER
  5
78
330
1
100
AcDbSymbolTableRecord
100
AcDbLayerTableRecord
  2
Z-LINIE-ZABUDOWY
 70
0
 62
1
420
12582912
  6
PUNKTOWA
370
35
390
13
347
21
1001
AcAecLayerStandard
1000

1000
Linie zabudowy (MPZP)
  0
LAYER
  5
79
330
1
100
AcDbSymbolTableRecord
100
AcDbLayerTableRecord
  2
Z-UTWARDZENIA
 70
0
 62
8
  6
Continuous
370
25
390
13
347
21
1001
AcAecLayerStandard
1000

1000
Nawierzchnie utwardzone
  0
LAYER
  5
7A
330
1
100
AcDbSymbolTableRecord
100
AcDbLayerTableRecord
  2
Z-ZIELEN
 70
0
 62
3
420
1997342
  6
Continuous
370
25
390
13
347
21
1001
AcAecLayerStandard
1000

1000
Zieleń: drzewa, krzewy, trawniki
  0
LAYER
  5
7B
330
1
100
AcDbSymbolTableRecord
100
AcDbLayerTableRecord
  2
Z-UZBROJENIE
 70
0
 62
5
  6
Continuous
370
35
390
13
347
21
1001
AcAecLayerStandard
1000

1000
Uzbrojenie terenu, sieci i przyłącza
  0
LAYER
  5
7C
330
1
100
AcDbSymbolTableRecord
100
AcDbLayerTableRecord
  2
Z-WARSTWICE
 70
0
 62
32
420
9067050
  6
Continuous
370
18
390
13
347
21
1001
AcAecLayerStandard
1000

1000
Warstwice i punkty wysokościowe
  0
LAYER
  5
7D
330
1
100
AcDbSymbolTableRecord
100
AcDbLayerTableRecord
  2
Z-OGRODZENIE
 70
0
 62
7
  6
Continuous
370
35
390
13
347
21
1001
AcAecLayerStandard
1000

1000
Ogrodzenie, bramy, furtki
  0
LAYER
  5
7E
330
1
100
AcDbSymbolTableRecord
100
AcDbLayerTableRecord
  2
Z-OPISY
 70
0
 62
2
  6
Continuous
370
25
390
13
347
21
1001
AcAecLayerStandard
1000

1000
Opisy zagospodarowania
  0
ENDTAB
  0
TABLE
  2
STYLE
  5
5
330
0
100
AcDbSymbolTable
 70
5
  0
STYLE
  5
29
330
5
100
AcDbSymbolTableRecord
100
AcDbTextStyleTableRecord
  2
Standard
 70
0
 40
0.0
 41
1.0
 50
0.0
 71
0
 42
2.5
  3
txt
  4

  0
STYLE
  5
3A
330
5
100
AcDbSymbolTableRecord
100
AcDbTextStyleTableRecord
  2
PL_ARIAL
 70
0
 40
0.0
 41
1.0
 50
0.0
 71
0
 42
2.5
  3
arial.ttf
  4

  0
STYLE
  5
3B
330
5
100
AcDbSymbolTableRecord
100
AcDbTextStyleTableRecord
  2
PL_ARIAL_B
 70
0
 40
0.0
 41
1.0
 50
0.0
 71
0
 42
2.5
  3
arialbd.ttf
  4

  0
STYLE
  5
3C
330
5
100
AcDbSymbolTableRecord
100
AcDbTextStyleTableRecord
  2
PL_ARIAL_I
 70
0
 40
0.0
 41
1.0
 50
0.0
 71
0
 42
2.5
  3
ariali.ttf
  4

  0
STYLE
  5
3D
330
5
100
AcDbSymbolTableRecord
100
AcDbTextStyleTableRecord
  2
PL_ARIAL_BI
 70
0
 40
0.0
 41
1.0
 50
0.0
 71
0
 42
2.5
  3
arialbi.ttf
  4

  0
ENDTAB
  0
TABLE
  2
VIEW
  5
7
330
0
100
AcDbSymbolTable
 70
0
  0
ENDTAB
  0
TABLE
  2
UCS
  5
6
330
0
100
AcDbSymbolTable
 70
0
  0
ENDTAB
  0
TABLE
  2
APPID
  5
3
330
0
100
AcDbSymbolTable
 70
4
  0
APPID
  5
2A
330
3
100
AcDbSymbolTableRecord
100
AcDbRegAppTableRecord
  2
ACAD
 70
0
  0
APPID
  5
3F
330
3
100
AcDbSymbolTableRecord
100
AcDbRegAppTableRecord
  2
AcAecLayerStandard
 70
0
  0
APPID
  5
2EC
330
3
100
AcDbSymbolTableRecord
100
AcDbRegAppTableRecord
  2
HATCHBACKGROUNDCOLOR
 70
0
  0
APPID
  5
2ED
330
3
100
AcDbSymbolTableRecord
100
AcDbRegAppTableRecord
  2
EZDXF
 70
0
  0
ENDTAB
  0
TABLE
  2
DIMSTYLE
  5
4
330
0
100
AcDbSymbolTable
 70
1
100
AcDbDimStyleTable
  0
DIMSTYLE
105
2B
330
4
100
AcDbSymbolTableRecord
100
AcDbDimStyleTableRecord
  2
Standard
 70
0
 40
1.0
 41
2.5
 42
0.625
 43
3.75
 44
1.25
 45
0.0
 46
0.0
 47
0.0
 48
0.0
 49
2.5
140
2.5
141
2.5
142
0.0
143
0.03937007874
144
1.0
145
0.0
146
1.0
147
0.625
148
0.0
 69
0
 70
0
 71
0
 72
0
 73
0
 74
0
 75
0
 76
0
 77
1
 78
8
 79
3
170
0
171
3
172
1
173
0
174
0
175
0
176
0
177
0
178
0
179
2
271
2
272
2
273
2
274
3
275
0
276
0
277
2
278
44
279
0
280
0
281
0
282
0
283
0
284
8
285
0
286
0
288
0
289
3
290
0
371
-2
372
-2
  0
ENDTAB
  0
TABLE
  2
BLOCK_RECORD
  5
9
330
0
100
AcDbSymbolTable
 70
2
  0
BLOCK_RECORD
  5
17
330
9
100
AcDbSymbolTableRecord
100
AcDbBlockTableRecord
  2
*Model_Space
340
1A
 70
0
280
1
281
0
  0
BLOCK_RECORD
  5
1B
330
9
100
AcDbSymbolTableRecord
100
AcDbBlockTableRecord
  2
*Paper_Space
340
1E
 70
0
280
1
281
0
  0
ENDTAB
  0
ENDSEC
  0
SECTION
  2
BLOCKS
  0
BLOCK
  5
18
330
17
100
AcDbEntity
  8
0
100
AcDbBlockBegin
  2
*Model_Space
 70
0
 10
0.0
 20
0.0
 30
0.0
  3
*Model_Space
  1

  0
ENDBLK
  5
19
330
17
100
AcDbEntity
  8
0
100
AcDbBlockEnd
  0
BLOCK
  5
1C
330
1B
100
AcDbEntity
  8
0
100
AcDbBlockBegin
  2
*Paper_Space
 70
0
 10
0.0
 20
0.0
 30
0.0
  3
*Paper_Space
  1

  0
ENDBLK
  5
1D
330
1B
100
AcDbEntity
  8
0
100
AcDbBlockEnd
  0
ENDSEC
  0
SECTION
  2
ENTITIES
  0
HATCH
  5
199
330
17
100
AcDbEntity
  8
A-ELEWACJE
 62
7
420
7890775
100
AcDbHatch
 10
0.0
 20
0.0
 30
0.0
210
0.0
220
0.0
230
1.0
  2
SOLID
 70
1
 71
0
 91
1
 92
3
 72
0
 73
1
 93
4
 10
1.0
 20
2.959
 10
-4.0
 20
2.959
 10
-4.0
 20
2.9840000000000004
 10
1.0
 20
2.9840000000000004
 97
0
 75
0
 76
1
 98
0
  0
HATCH
  5
19A
330
17
100
AcDbEntity
  8
A-ELEWACJE
 62
7
420
7697781
100
AcDbHatch
 10
0.0
 20
0.0
 30
0.0
210
0.0
220
0.0
230
1.0
  2
SOLID
 70
1
 71
0
 91
1
 92
3
 72
0
 73
1
 93
4
 10
1.0
 20
2.91
 10
-4.0
 20
2.91
 10
-4.0
 20
2.914
 10
1.0
 20
2.914
 97
0
 75
0
 76
1
 98
0
  0
HATCH
  5
19B
330
17
100
AcDbEntity
  8
A-ELEWACJE
 62
7
420
9667698
100
AcDbHatch
 10
0.0
 20
0.0
 30
0.0
210
0.0
220
0.0
230
1.0
  2
SOLID
 70
1
 71
0
 91
1
 92
3
 72
0
 73
1
 93
4
 10
-4.0
 20
2.914
 10
-4.0
 20
2.959
 10
1.0
 20
2.959
 10
1.0
 20
2.914
 97
0
 75
0
 76
1
 98
0
  0
HATCH
  5
19C
330
17
100
AcDbEntity
  8
A-ELEWACJE
 62
7
420
16119025
100
AcDbHatch
 10
0.0
 20
0.0
 30
0.0
210
0.0
220
0.0
230
1.0
  2
SOLID
 70
1
 71
0
 91
1
 92
3
 72
0
 73
1
 93
4
 10
1.0
 20
2.6950000000000003
 10
-4.0
 20
2.6950000000000003
 10
-4.0
 20
2.7100000000000004
 10
1.0
 20
2.7100000000000004
 97
0
 75
0
 76
1
 98
0
  0
HATCH
  5
19D
330
17
100
AcDbEntity
  8
A-ELEWACJE
 62
7
420
12499892
100
AcDbHatch
 10
0.0
 20
0.0
 30
0.0
210
0.0
220
0.0
230
1.0
  2
SOLID
 70
1
 71
0
 91
1
 92
3
 72
0
 73
1
 93
4
 10
-4.0
 20
2.71
 10
-4.0
 20
2.91
 10
1.0
 20
2.91
 10
1.0
 20
2.71
 97
0
 75
0
 76
1
 98
0
  0
HATCH
  5
19E
330
17
100
AcDbEntity
  8
A-ELEWACJE
 62
7
420
12501701
100
AcDbHatch
 10
0.0
 20
0.0
 30
0.0
210
0.0
220
0.0
230
1.0
  2
SOLID
 70
1
 71
0
 91
1
 92
3
 72
0
 73
1
 93
4
 10
0.92
 20
4.034000000000001
 10
-3.9200000000000004
 20
4.034000000000001
 10
-3.9200000000000004
 20
4.0840000000000005
 10
0.92
 20
4.0840000000000005
 97
0
 75
0
 76
1
 98
0
  0
HATCH
  5
19F
330
17
100
AcDbEntity
  8
A-ELEWACJE
 62
7
420
13492196
100
AcDbHatch
 10
0.0
 20
0.0
 30
0.0
210
0.0
220
0.0
230
1.0
  2
SOLID
 70
1
 71
0
 91
1
 92
3
 72
0
 73
1
 93
4
 10
-3.92
 20
3.004
 10
-3.92
 20
4.034
 10
0.92
 20
4.034
 10
0.92
 20
3.004
 97
0
 75
0
 76
1
 98
0
  0
HATCH
  5
1A0
330
17
100
AcDbEntity
  8
A-ELEWACJE
 62
7
420
12501701
100
AcDbHatch
 10
0.0
 20
0.0
 30
0.0
210
0.0
220
0.0
230
1.0
  2
SOLID
 70
1
 71
0
 91
1
 92
3
 72
0
 73
1
 93
4
 10
-3.945
 20
4.084
 10
-3.92
 20
4.084
 10
-3.92
 20
4.034
 10
-3.945
 20
4.034
 97
0
 75
0
 76
1
 98
0
  0
HATCH
  5
1A1
330
17
100
AcDbEntity
  8
A-ELEWACJE
 62
7
420
12501701
100
AcDbHatch
 10
0.0
 20
0.0
 30
0.0
210
0.0
220
0.0
230
1.0
  2
SOLID
 70
1
 71
0
 91
1
 92
3
 72
0
 73
1
 93
4
 10
0.945
 20
4.084
 10
0.945
 20
4.034
 10
0.92
 20
4.034
 10
0.92
 20
4.084
 97
0
 75
0
 76
1
 98
0
  0
HATCH
  5
1A2
330
17
100
AcDbEntity
  8
A-ELEWACJE
 62
7
420
13492196
100
AcDbHatch
 10
0.0
 20
0.0
 30
0.0
210
0.0
220
0.0
230
1.0
  2
SOLID
 70
1
 71
0
 91
1
 92
3
 72
0
 73
1
 93
4
 10
-3.93
 20
4.034
 10
-3.92
 20
4.034
 10
-3.92
 20
3.004
 10
-3.93
 20
3.004
 97
0
 75
0
 76
1
 98
0
  0
HATCH
  5
1A3
330
17
100
AcDbEntity
  8
A-ELEWACJE
 62
7
420
13492196
100
AcDbHatch
 10
0.0
 20
0.0
 30
0.0
210
0.0
220
0.0
230
1.0
  2
SOLID
 70
1
 71
0
 91
1
 92
3
 72
0
 73
1
 93
4
 10
0.93
 20
4.034
 10
0.93
 20
3.004
 10
0.92
 20
3.004
 10
0.92
 20
4.034
 97
0
 75
0
 76
1
 98
0
  0
HATCH
  5
1A4
330
17
100
AcDbEntity
  8
A-ELEWACJE
 62
7
420
7567226
100
AcDbHatch
 10
0.0
 20
0.0
 30
0.0
210
0.0
220
0.0
230
1.0
  2
SOLID
 70
1
 71
0
 91
1
 92
3
 72
0
 73
1
 93
4
 10
0.79
 20
2.41
 10
0.91
 20
2.41
 10
0.91
 20
-0.24635
 10
0.79
 20
-0.24749
 97
0
 75
0
 76
1
 98
0
  0
HATCH
  5
1A5
330
17
100
AcDbEntity
  8
A-ELEWACJE
 62
7
420
7567226
100
AcDbHatch
 10
0.0
 20
0.0
 30
0.0
210
0.0
220
0.0
230
1.0
  2
SOLID
 70
1
 71
0
 91
1
 92
3
 72
0
 73
1
 93
5
 10
-3.91
 20
2.695
 10
-3.79
 20
2.695
 10
-3.79
 20
-0.29088
 10
-3.8
 20
-0.29097
 10
-3.91
 20
-0.29201
 97
0
 75
0
 76
1
 98
0
  0
HATCH
  5
1A6
330
17
100
AcDbEntity
  8
A-ELEWACJE
 62
7
420
12499892
100
AcDbHatch
 10
0.0
 20
0.0
 30
0.0
210
0.0
220
0.0
230
1.0
  2
SOLID
 70
1
 71
0
 91
1
 92
3
 72
0
 73
1
 93
6
 10
0.91
 20
2.41
 10
0.79
 20
2.41
 10
0.75
 20
2.41
 10
0.75
 20
2.695
 10
0.95
 20
2.695
 10
0.95
 20
2.41
 97
0
 75
0
 76
1
 98
0
  0
HATCH
  5
1A7
330
17
100
AcDbEntity
  8
A-ELEWACJE
 62
7
420
7698555
100
AcDbHatch
 10
0.0
 20
0.0
 30
0.0
210
0.0
220
0.0
230
1.0
  2
SOLID
 70
1
 71
0
 91
1
 92
3
 72
0
 73
1
 93
4
 10
-2.015
 20
0.904
 10
-0.485
 20
0.904
 10
-0.485
 20
0.875
 10
-2.015
 20
0.875
 97
0
 75
0
 76
1
 98
0
  0
HATCH
  5
1A8
330
17
100
AcDbEntity
  8
A-ELEWACJE
 62
7
420
7698555
100
AcDbHatch
 10
0.0
 20
0.0
 30
0.0
210
0.0
220
0.0
230
1.0
  2
SOLID
 70
1
 71
0
 91
1
 92
3
 72
0
 73
1
 93
4
 10
0.985
 20
1.104
 10
3.015
 20
1.104
 10
3.015
 20
1.075
 10
0.985
 20
1.075
 97
0
 75
0
 76
1
 98
0
  0
HATCH
  5
1A9
330
17
100
AcDbEntity
  8
A-ELEWACJE
 62
7
420
16119025
100
AcDbHatch
 10
0.0
 20
0.0
 30
0.0
210
0.0
220
0.0
230
1.0
  2
SOLID
 70
1
 71
0
 91
1
 92
3
 72
0
 73
1
 93
6
 10
4.29
 20
2.91
 10
4.29
 20
6.4935
 10
4.297
 20
6.4935
 10
4.297
 20
2.91
 10
4.297
 20
-0.21817
 10
4.29
 20
-0.21822
 97
0
 75
0
 76
1
 98
0
  0
HATCH
  5
1AA
330
17
100
AcDbEntity
  8
A-ELEWACJE
 62
7
420
16119025
100
AcDbHatch
 10
0.0
 20
0.0
 30
0.0
210
0.0
220
0.0
230
1.0
  2
SOLID
 70
1
 71
0
 91
1
 92
3
 72
0
 73
1
 93
6
 10
-4.297
 20
2.91
 10
-4.297
 20
6.4935
 10
-4.29
 20
6.4935
 10
-4.29
 20
2.91
 10
-4.29
 20
-0.29561
 10
-4.297
 20
-0.29568
 97
0
 75
0
 76
1
 98
0
  0
HATCH
  5
1AB
330
17
100
AcDbEntity
  8
A-ELEWACJE
 62
7
420
7890261
100
AcDbHatch
 10
0.0
 20
0.0
 30
0.0
210
0.0
220
0.0
230
1.0
  2
SOLID
 70
1
 71
0
 91
1
 92
3
 72
0
 73
1
 93
4
 10
-7.3
 20
-0.05
 10
-7.3
 20
-0.02
 10
-4.297
 20
-0.02
 10
-4.297
 20
-0.05
 97
0
 75
0
 76
1
 98
0
  0
HATCH
  5
1AC
330
17
100
AcDbEntity
  8
A-ELEWACJE
 62
7
420
9867399
100
AcDbHatch
 10
0.0
 20
0.0
 30
0.0
210
0.0
220
0.0
230
1.0
  2
SOLID
 70
1
 71
0
 91
1
 92
3
 72
0
 73
1
 93
16
 10
-7.3
 20
-0.05
 10
-4.297
 20
-0.05
 10
-4.297
 20
-0.29568
 10
-4.3
 20
-0.29571
 10
-4.55
 20
-0.29808
 10
-4.8
 20
-0.30044
 10
-5.05
 20
-0.30281
 10
-5.3
 20
-0.30518
 10
-5.55
 20
-0.30755
 10
-5.8
 20
-0.30992
 10
-6.05
 20
-0.31229
 10
-6.3
 20
-0.31465
 10
-6.55
 20
-0.31702
 10
-6.8
 20
-0.31939
 10
-7.05
 20
-0.32176
 10
-7.3
 20
-0.32413
 97
0
 75
0
 76
1
 98
0
  0
HATCH
  5
1AD
330
17
100
AcDbEntity
  8
A-ELEWACJE
 62
7
420
7040624
100
AcDbHatch
 10
0.0
 20
0.0
 30
0.0
210
0.0
220
0.0
230
1.0
  2
SOLID
 70
1
 71
0
 91
1
 92
3
 72
0
 73
1
 93
4
 10
-4.417000000000001
 20
3.2100000000000004
 10
-4.417000000000001
 20
3.2700000000000005
 10
-4.377000000000001
 20
3.2700000000000005
 10
-4.377000000000001
 20
3.2100000000000004
 97
0
 75
0
 76
1
 98
0
  0
HATCH
  5
1AE
330
17
100
AcDbEntity
  8
A-ELEWACJE
 62
7
420
7040624
100
AcDbHatch
 10
0.0
 20
0.0
 30
0.0
210
0.0
220
0.0
230
1.0
  2
SOLID
 70
1
 71
0
 91
1
 92
3
 72
0
 73
1
 93
4
 10
-4.417000000000001
 20
6.24
 10
-4.417000000000001
 20
6.300000000000001
 10
-4.377000000000001
 20
6.300000000000001
 10
-4.377000000000001
 20
6.24
 97
0
 75
0
 76
1
 98
0
  0
HATCH
  5
1AF
330
17
100
AcDbEntity
  8
A-ELEWACJE
 62
7
420
16119025
100
AcDbHatch
 10
0.0
 20
0.0
 30
0.0
210
0.0
220
0.0
230
1.0
  2
SOLID
 70
1
 71
0
 91
3
 92
3
 72
0
 73
1
 93
41
 10
-2.8
 20
6.4935
 10
-0.4
 20
6.4935
 10
4.29
 20
6.4935
 10
4.29
 20
2.91
 10
4.29
 20
-0.21822
 10
4.2
 20
-0.21892
 10
3.95
 20
-0.22086
 10
3.7
 20
-0.22281
 10
3.45
 20
-0.22475
 10
3.2
 20
-0.2267
 10
2.95
 20
-0.22864
 10
2.7
 20
-0.23059
 10
2.45
 20
-0.23253
 10
2.2
 20
-0.23448
 10
1.95
 20
-0.2365
 10
1.7
 20
-0.23886
 10
1.45
 20
-0.24123
 10
1.2
 20
-0.2436
 10
0.95
 20
-0.24597
 10
0.91
 20
-0.24635
 10
0.91
 20
2.41
 10
0.95
 20
2.41
 10
0.95
 20
2.695
 10
1.0
 20
2.695
 10
1.0
 20
2.71
 10
1.0
 20
2.91
 10
1.0
 20
2.914
 10
1.0
 20
2.959
 10
1.0
 20
2.984
 10
-4.0
 20
2.984
 10
-4.0
 20
2.959
 10
-4.0
 20
2.914
 10
-4.0
 20
2.91
 10
-4.0
 20
2.71
 10
-4.0
 20
2.695
 10
-3.91
 20
2.695
 10
-3.91
 20
-0.29201
 10
-4.05
 20
-0.29334
 10
-4.29
 20
-0.29561
 10
-4.29
 20
2.91
 10
-4.29
 20
6.4935
 97
0
 92
2
 72
0
 73
1
 93
20
 10
-2.788
 20
4.084
 10
-3.895
 20
4.084
 10
-3.92
 20
4.084
 10
-3.945
 20
4.084
 10
-3.945
 20
4.034
 10
-3.93
 20
4.034
 10
-3.93
 20
3.004
 10
-3.92
 20
3.004
 10
-3.91
 20
3.004
 10
0.91
 20
3.004
 10
0.92
 20
3.004
 10
0.93
 20
3.004
 10
0.93
 20
4.034
 10
0.945
 20
4.034
 10
0.945
 20
4.084
 10
0.92
 20
4.084
 10
0.895
 20
4.084
 10
-0.412
 20
4.084
 10
-0.412
 20
5.348
 10
-2.788
 20
5.348
 97
0
 92
2
 72
0
 73
1
 93
8
 10
2.988
 20
2.088
 10
1.012
 20
2.088
 10
1.012
 20
1.104
 10
0.985
 20
1.104
 10
0.985
 20
1.075
 10
3.015
 20
1.075
 10
3.015
 20
1.104
 10
2.988
 20
1.104
 97
0
 75
0
 76
1
 98
0
  0
HATCH
  5
1B0
330
17
100
AcDbEntity
  8
A-ELEWACJE
 62
7
420
16119025
100
AcDbHatch
 10
0.0
 20
0.0
 30
0.0
210
0.0
220
0.0
230
1.0
  2
SOLID
 70
1
 71
0
 91
2
 92
3
 72
0
 73
1
 93
24
 10
0.75
 20
2.695
 10
0.75
 20
2.41
 10
0.79
 20
2.41
 10
0.79
 20
-0.24749
 10
0.7
 20
-0.24834
 10
0.45
 20
-0.25071
 10
0.2
 20
-0.25308
 10
-0.05
 20
-0.25544
 10
-0.3
 20
-0.25781
 10
-0.55
 20
-0.26018
 10
-0.8
 20
-0.26255
 10
-1.05
 20
-0.26492
 10
-1.3
 20
-0.26729
 10
-1.55
 20
-0.26965
 10
-1.8
 20
-0.27202
 10
-2.05
 20
-0.27439
 10
-2.3
 20
-0.27676
 10
-2.55
 20
-0.27913
 10
-2.8
 20
-0.2815
 10
-3.05
 20
-0.28386
 10
-3.3
 20
-0.28623
 10
-3.55
 20
-0.2886
 10
-3.79
 20
-0.29088
 10
-3.79
 20
2.695
 97
0
 92
2
 72
0
 73
1
 93
8
 10
-1.988
 20
0.904
 10
-2.015
 20
0.904
 10
-2.015
 20
0.875
 10
-0.485
 20
0.875
 10
-0.485
 20
0.904
 10
-0.512
 20
0.904
 10
-0.512
 20
2.388
 10
-1.988
 20
2.388
 97
0
 75
0
 76
1
 98
0
  0
HATCH
  5
1B1
330
17
100
AcDbEntity
  8
A-ELEWACJE
 62
7
420
10712656
100
AcDbHatch
 10
0.0
 20
0.0
 30
0.0
210
0.0
220
0.0
230
1.0
  2
SOLID
 70
1
 71
0
 91
1
 92
3
 72
0
 73
1
 93
8
 10
-4.537
 20
3.06
 10
-4.537
 20
6.45
 10
-4.417
 20
6.45
 10
-4.417
 20
6.3
 10
-4.417
 20
6.24
 10
-4.417
 20
3.27
 10
-4.417
 20
3.21
 10
-4.417
 20
3.06
 97
0
 75
0
 76
1
 98
0
  0
HATCH
  5
1B2
330
17
100
AcDbEntity
  8
A-ELEWACJE
 62
7
420
7698555
100
AcDbHatch
 10
0.0
 20
0.0
 30
0.0
210
0.0
220
0.0
230
1.0
  2
SOLID
 70
1
 71
0
 91
1
 92
3
 72
0
 73
1
 93
8
 10
4.09
 20
6.4935
 10
-0.4
 20
6.4935
 10
-2.8
 20
6.4935
 10
-4.09
 20
6.4935
 10
-4.22
 20
6.4935
 10
-4.22
 20
6.5135
 10
4.22
 20
6.5135
 10
4.22
 20
6.4935
 97
0
 75
0
 76
1
 98
0
  0
HATCH
  5
1B3
330
17
100
AcDbEntity
  8
A-ELEWACJE
 62
7
420
6974832
100
AcDbHatch
 10
0.0
 20
0.0
 30
0.0
210
0.0
220
0.0
230
1.0
  2
SOLID
 70
1
 71
0
 91
1
 92
3
 72
0
 73
1
 93
12
 10
-1.6425
 20
5.275
 10
-2.715
 20
5.275
 10
-2.715
 20
4.084
 10
-2.788
 20
4.084
 10
-2.788
 20
5.348
 10
-0.412
 20
5.348
 10
-0.412
 20
4.084
 10
-0.485
 20
4.084
 10
-0.485
 20
5.275
 10
-1.5575
 20
5.275
 10
-1.5575
 20
4.084
 10
-1.6425
 20
4.084
 97
0
 75
0
 76
1
 98
0
  0
HATCH
  5
1B4
330
17
100
AcDbEntity
  8
A-ELEWACJE
 62
7
420
6974832
100
AcDbHatch
 10
0.0
 20
0.0
 30
0.0
210
0.0
220
0.0
230
1.0
  2
SOLID
 70
1
 71
0
 91
2
 92
3
 72
0
 73
1
 93
4
 10
-1.988
 20
0.904
 10
-1.988
 20
2.388
 10
-0.512
 20
2.388
 10
-0.512
 20
0.904
 97
0
 92
2
 72
0
 73
1
 93
4
 10
-1.925
 20
0.975
 10
-0.575
 20
0.975
 10
-0.575
 20
2.325
 10
-1.925
 20
2.325
 97
0
 75
0
 76
1
 98
0
  0
HATCH
  5
1B5
330
17
100
AcDbEntity
  8
A-ELEWACJE
 62
7
420
6974832
100
AcDbHatch
 10
0.0
 20
0.0
 30
0.0
210
0.0
220
0.0
230
1.0
  2
SOLID
 70
1
 71
0
 91
2
 92
3
 72
0
 73
1
 93
4
 10
2.988
 20
1.104
 10
1.012
 20
1.104
 10
1.012
 20
2.088
 10
2.988
 20
2.088
 97
0
 92
2
 72
0
 73
1
 93
4
 10
2.945
 20
2.045
 10
1.055
 20
2.045
 10
1.055
 20
1.155
 10
2.945
 20
1.155
 97
0
 75
0
 76
1
 98
0
  0
HATCH
  5
1B6
330
17
100
AcDbEntity
  8
A-ELEWACJE
 62
7
420
11125709
100
AcDbHatch
 10
0.0
 20
0.0
 30
0.0
210
0.0
220
0.0
230
1.0
  2
SOLID
 70
1
 71
0
 91
1
 92
3
 72
0
 73
1
 93
4
 10
2.945
 20
2.045
 10
2.945
 20
1.155
 10
1.055
 20
1.155
 10
1.055
 20
2.045
 97
0
 75
0
 76
1
 98
0
  0
HATCH
  5
1B7
330
17
100
AcDbEntity
  8
A-ELEWACJE
 62
7
420
11125709
100
AcDbHatch
 10
0.0
 20
0.0
 30
0.0
210
0.0
220
0.0
230
1.0
  2
SOLID
 70
1
 71
0
 91
1
 92
3
 72
0
 73
1
 93
4
 10
-0.575
 20
2.325
 10
-0.575
 20
0.975
 10
-1.925
 20
0.975
 10
-1.925
 20
2.325
 97
0
 75
0
 76
1
 98
0
  0
HATCH
  5
1B8
330
17
100
AcDbEntity
  8
A-ELEWACJE
 62
7
420
11125709
100
AcDbHatch
 10
0.0
 20
0.0
 30
0.0
210
0.0
220
0.0
230
1.0
  2
SOLID
 70
1
 71
0
 91
1
 92
3
 72
0
 73
1
 93
4
 10
-1.6425
 20
5.275
 10
-1.6425
 20
4.084
 10
-2.715
 20
4.084
 10
-2.715
 20
5.275
 97
0
 75
0
 76
1
 98
0
  0
HATCH
  5
1B9
330
17
100
AcDbEntity
  8
A-ELEWACJE
 62
7
420
11125709
100
AcDbHatch
 10
0.0
 20
0.0
 30
0.0
210
0.0
220
0.0
230
1.0
  2
SOLID
 70
1
 71
0
 91
1
 92
3
 72
0
 73
1
 93
4
 10
-0.485
 20
5.275
 10
-0.485
 20
4.084
 10
-1.5575
 20
4.084
 10
-1.5575
 20
5.275
 97
0
 75
0
 76
1
 98
0
  0
HATCH
  5
1BA
330
17
100
AcDbEntity
  8
A-ELEWACJE
 62
7
420
7698555
100
AcDbHatch
 10
0.0
 20
0.0
 30
0.0
210
0.0
220
0.0
230
1.0
  2
SOLID
 70
1
 71
0
 91
1
 92
3
 72
0
 73
1
 93
4
 10
4.297
 20
0.975
 10
4.297
 20
1.004
 10
4.337
 20
1.004
 10
4.337
 20
0.975
 97
0
 75
0
 76
1
 98
0
  0
HATCH
  5
1BB
330
17
100
AcDbEntity
  8
A-ELEWACJE
 62
7
420
7698555
100
AcDbHatch
 10
0.0
 20
0.0
 30
0.0
210
0.0
220
0.0
230
1.0
  2
SOLID
 70
1
 71
0
 91
1
 92
3
 72
0
 73
1
 93
4
 10
4.297
 20
4.335
 10
4.297
 20
4.364
 10
4.337
 20
4.364
 10
4.337
 20
4.335
 97
0
 75
0
 76
1
 98
0
  0
HATCH
  5
1BC
330
17
100
AcDbEntity
  8
A-ELEWACJE
 62
7
420
7698555
100
AcDbHatch
 10
0.0
 20
0.0
 30
0.0
210
0.0
220
0.0
230
1.0
  2
SOLID
 70
1
 71
0
 91
1
 92
3
 72
0
 73
1
 93
4
 10
4.297
 20
3.935
 10
4.297
 20
3.964
 10
4.337
 20
3.964
 10
4.337
 20
3.935
 97
0
 75
0
 76
1
 98
0
  0
HATCH
  5
1BD
330
17
100
AcDbEntity
  8
A-ELEWACJE
 62
7
420
7698555
100
AcDbHatch
 10
0.0
 20
0.0
 30
0.0
210
0.0
220
0.0
230
1.0
  2
SOLID
 70
1
 71
0
 91
1
 92
3
 72
0
 73
1
 93
4
 10
-4.337
 20
3.835
 10
-4.337
 20
3.864
 10
-4.297
 20
3.864
 10
-4.297
 20
3.835
 97
0
 75
0
 76
1
 98
0
  0
HATCH
  5
1BE
330
17
100
AcDbEntity
  8
A-ELEWACJE
 62
7
420
7698555
100
AcDbHatch
 10
0.0
 20
0.0
 30
0.0
210
0.0
220
0.0
230
1.0
  2
SOLID
 70
1
 71
0
 91
1
 92
3
 72
0
 73
1
 93
4
 10
-4.337
 20
0.875
 10
-4.337
 20
0.904
 10
-4.297
 20
0.904
 10
-4.297
 20
0.875
 97
0
 75
0
 76
1
 98
0
  0
LWPOLYLINE
  5
1BF
330
17
100
AcDbEntity
  8
A-KRESKOWANIE
370
25
 48
0.05
100
AcDbPolyline
 90
2
 70
0
 10
-8.759681315771369
 20
-0.40866962763501197
 10
-8.68964434284479
 20
-0.3372929464059049
  0
LWPOLYLINE
  5
1C0
330
17
100
AcDbEntity
  8
A-KRESKOWANIE
370
25
 48
0.05
100
AcDbPolyline
 90
2
 70
0
 10
-8.660355657155211
 20
-0.3370154746467404
 10
-8.588978975926105
 20
-0.40705244757332
  0
LWPOLYLINE
  5
1C1
330
17
100
AcDbEntity
  8
A-KRESKOWANIE
370
25
 48
0.05
100
AcDbPolyline
 90
2
 70
0
 10
-8.509681315771369
 20
-0.40630120658238034
 10
-8.43964434284479
 20
-0.3349245253532733
  0
LWPOLYLINE
  5
1C2
330
17
100
AcDbEntity
  8
A-KRESKOWANIE
370
25
 48
0.05
100
AcDbPolyline
 90
2
 70
0
 10
-8.410355657155211
 20
-0.33464705359410885
 10
-8.338978975926105
 20
-0.4046840265206884
  0
LWPOLYLINE
  5
1C3
330
17
100
AcDbEntity
  8
A-KRESKOWANIE
370
25
 48
0.05
100
AcDbPolyline
 90
2
 70
0
 10
-8.259681315771369
 20
-0.40393278552974876
 10
-8.18964434284479
 20
-0.3325561043006417
  0
LWPOLYLINE
  5
1C4
330
17
100
AcDbEntity
  8
A-KRESKOWANIE
370
25
 48
0.05
100
AcDbPolyline
 90
2
 70
0
 10
-8.160355657155211
 20
-0.3322786325414772
 10
-8.088978975926105
 20
-0.4023156054680568
  0
LWPOLYLINE
  5
1C5
330
17
100
AcDbEntity
  8
A-KRESKOWANIE
370
25
 48
0.05
100
AcDbPolyline
 90
2
 70
0
 10
-8.009681315771369
 20
-0.4015643644771172
 10
-7.939644342844789
 20
-0.3301876832480101
  0
LWPOLYLINE
  5
1C6
330
17
100
AcDbEntity
  8
A-KRESKOWANIE
370
25
 48
0.05
100
AcDbPolyline
 90
2
 70
0
 10
-7.910355657155212
 20
-0.3299102114888457
 10
-7.838978975926104
 20
-0.39994718441542526
  0
LWPOLYLINE
  5
1C7
330
17
100
AcDbEntity
  8
A-KRESKOWANIE
370
25
 48
0.05
100
AcDbPolyline
 90
2
 70
0
 10
-7.7596813157713695
 20
-0.39919594342448567
 10
-7.689644342844789
 20
-0.3278192621953786
  0
LWPOLYLINE
  5
1C8
330
17
100
AcDbEntity
  8
A-KRESKOWANIE
370
25
 48
0.05
100
AcDbPolyline
 90
2
 70
0
 10
-7.660355657155212
 20
-0.3275417904362141
 10
-7.588978975926104
 20
-0.3975787633627937
  0
LWPOLYLINE
  5
1C9
330
17
100
AcDbEntity
  8
A-KRESKOWANIE
370
25
 48
0.05
100
AcDbPolyline
 90
2
 70
0
 10
-7.5096813157713695
 20
-0.39682752237185404
 10
-7.439644342844789
 20
-0.32545084114274697
  0
LWPOLYLINE
  5
1CA
330
17
100
AcDbEntity
  8
A-KRESKOWANIE
370
25
 48
0.05
100
AcDbPolyline
 90
2
 70
0
 10
-7.410355657155212
 20
-0.32517336938358254
 10
-7.338978975926104
 20
-0.3952103423101621
  0
LWPOLYLINE
  5
1CB
330
17
100
AcDbEntity
  8
A-KRESKOWANIE
370
25
 48
0.05
100
AcDbPolyline
 90
2
 70
0
 10
-7.2596813157713695
 20
-0.39445910131922246
 10
-7.189644342844789
 20
-0.3230824200901154
  0
LWPOLYLINE
  5
1CC
330
17
100
AcDbEntity
  8
A-KRESKOWANIE
370
25
 48
0.05
100
AcDbPolyline
 90
2
 70
0
 10
-7.160355657155212
 20
-0.3228049483309509
 10
-7.088978975926104
 20
-0.3928419212575305
  0
LWPOLYLINE
  5
1CD
330
17
100
AcDbEntity
  8
A-KRESKOWANIE
370
25
 48
0.05
100
AcDbPolyline
 90
2
 70
0
 10
-7.0096813157713695
 20
-0.3920906802665909
 10
-6.939644342844789
 20
-0.3207139990374838
  0
LWPOLYLINE
  5
1CE
330
17
100
AcDbEntity
  8
A-KRESKOWANIE
370
25
 48
0.05
100
AcDbPolyline
 90
2
 70
0
 10
-6.910355657155212
 20
-0.32043652727831934
 10
-6.838978975926104
 20
-0.3904735002048989
  0
LWPOLYLINE
  5
1CF
330
17
100
AcDbEntity
  8
A-KRESKOWANIE
370
25
 48
0.05
100
AcDbPolyline
 90
2
 70
0
 10
-6.7596813157713695
 20
-0.3897222592139593
 10
-6.689644342844789
 20
-0.31834557798485225
  0
LWPOLYLINE
  5
1D0
330
17
100
AcDbEntity
  8
A-KRESKOWANIE
370
25
 48
0.05
100
AcDbPolyline
 90
2
 70
0
 10
-6.660355657155212
 20
-0.3180681062256878
 10
-6.588978975926104
 20
-0.3881050791522674
  0
LWPOLYLINE
  5
1D1
330
17
100
AcDbEntity
  8
A-KRESKOWANIE
370
25
 48
0.05
100
AcDbPolyline
 90
2
 70
0
 10
-6.5096813157713695
 20
-0.38735383816132773
 10
-6.439644342844789
 20
-0.31597715693222067
  0
LWPOLYLINE
  5
1D2
330
17
100
AcDbEntity
  8
A-KRESKOWANIE
370
25
 48
0.05
100
AcDbPolyline
 90
2
 70
0
 10
-6.410355657155212
 20
-0.31569968517305624
 10
-6.338978975926104
 20
-0.3857366580996358
  0
LWPOLYLINE
  5
1D3
330
17
100
AcDbEntity
  8
A-KRESKOWANIE
370
25
 48
0.05
100
AcDbPolyline
 90
2
 70
0
 10
-6.2596813157713695
 20
-0.38498541710869616
 10
-6.189644342844789
 20
-0.3136087358795891
  0
LWPOLYLINE
  5
1D4
330
17
100
AcDbEntity
  8
A-KRESKOWANIE
370
25
 48
0.05
100
AcDbPolyline
 90
2
 70
0
 10
-6.160355657155212
 20
-0.31333126412042467
 10
-6.088978975926104
 20
-0.38336823704700423
  0
LWPOLYLINE
  5
1D5
330
17
100
AcDbEntity
  8
A-KRESKOWANIE
370
25
 48
0.05
100
AcDbPolyline
 90
2
 70
0
 10
-6.0096813157713695
 20
-0.38261699605606464
 10
-5.939644342844789
 20
-0.3112403148269576
  0
LWPOLYLINE
  5
1D6
330
17
100
AcDbEntity
  8
A-KRESKOWANIE
370
25
 48
0.05
100
AcDbPolyline
 90
2
 70
0
 10
-5.910355657155212
 20
-0.3109628430677931
 10
-5.838978975926104
 20
-0.38099981599437266
  0
LWPOLYLINE
  5
1D7
330
17
100
AcDbEntity
  8
A-KRESKOWANIE
370
25
 48
0.05
100
AcDbPolyline
 90
2
 70
0
 10
-5.7596813157713695
 20
-0.380248575003433
 10
-5.689644342844789
 20
-0.30887189377432595
  0
LWPOLYLINE
  5
1D8
330
17
100
AcDbEntity
  8
A-KRESKOWANIE
370
25
 48
0.05
100
AcDbPolyline
 90
2
 70
0
 10
-5.660355657155212
 20
-0.3085944220151615
 10
-5.588978975926104
 20
-0.3786313949417411
  0
LWPOLYLINE
  5
1D9
330
17
100
AcDbEntity
  8
A-KRESKOWANIE
370
25
 48
0.05
100
AcDbPolyline
 90
2
 70
0
 10
-5.5096813157713695
 20
-0.37788015395080143
 10
-5.439644342844789
 20
-0.30650347272169437
  0
LWPOLYLINE
  5
1DA
330
17
100
AcDbEntity
  8
A-KRESKOWANIE
370
25
 48
0.05
100
AcDbPolyline
 90
2
 70
0
 10
-5.410355657155212
 20
-0.3062260009625299
 10
-5.338978975926104
 20
-0.37626297388910945
  0
LWPOLYLINE
  5
1DB
330
17
100
AcDbEntity
  8
A-KRESKOWANIE
370
25
 48
0.05
100
AcDbPolyline
 90
2
 70
0
 10
-5.2596813157713695
 20
-0.37551173289816986
 10
-5.189644342844789
 20
-0.3041350516690628
  0
LWPOLYLINE
  5
1DC
330
17
100
AcDbEntity
  8
A-KRESKOWANIE
370
25
 48
0.05
100
AcDbPolyline
 90
2
 70
0
 10
-5.160355657155212
 20
-0.3038575799098983
 10
-5.088978975926104
 20
-0.3738945528364779
  0
LWPOLYLINE
  5
1DD
330
17
100
AcDbEntity
  8
A-KRESKOWANIE
370
25
 48
0.05
100
AcDbPolyline
 90
2
 70
0
 10
-5.0096813157713695
 20
-0.3731433118455383
 10
-4.939644342844789
 20
-0.3017666306164312
  0
LWPOLYLINE
  5
1DE
330
17
100
AcDbEntity
  8
A-KRESKOWANIE
370
25
 48
0.05
100
AcDbPolyline
 90
2
 70
0
 10
-4.910355657155212
 20
-0.3014891588572668
 10
-4.838978975926104
 20
-0.37152613178384636
  0
LWPOLYLINE
  5
1DF
330
17
100
AcDbEntity
  8
A-KRESKOWANIE
370
25
 48
0.05
100
AcDbPolyline
 90
2
 70
0
 10
-4.7596813157713695
 20
-0.37077489079290676
 10
-4.689644342844789
 20
-0.2993982095637997
  0
LWPOLYLINE
  5
1E0
330
17
100
AcDbEntity
  8
A-KRESKOWANIE
370
25
 48
0.05
100
AcDbPolyline
 90
2
 70
0
 10
-4.660355657155212
 20
-0.2991207378046352
 10
-4.588978975926104
 20
-0.3691577107312148
  0
LWPOLYLINE
  5
1E1
330
17
100
AcDbEntity
  8
A-KRESKOWANIE
370
25
 48
0.05
100
AcDbPolyline
 90
2
 70
0
 10
-4.5096813157713695
 20
-0.3684064697402752
 10
-4.439644342844789
 20
-0.2970297885111681
  0
LWPOLYLINE
  5
1E2
330
17
100
AcDbEntity
  8
A-KRESKOWANIE
370
25
 48
0.05
100
AcDbPolyline
 90
2
 70
0
 10
-4.410355657155212
 20
-0.29675231675200364
 10
-4.338978975926104
 20
-0.3667892896785832
  0
LWPOLYLINE
  5
1E3
330
17
100
AcDbEntity
  8
A-KRESKOWANIE
370
25
 48
0.05
100
AcDbPolyline
 90
2
 70
0
 10
-4.2596813157713695
 20
-0.3660380486876436
 10
-4.189644342844789
 20
-0.29466136745853655
  0
LWPOLYLINE
  5
1E4
330
17
100
AcDbEntity
  8
A-KRESKOWANIE
370
25
 48
0.05
100
AcDbPolyline
 90
2
 70
0
 10
-4.160355657155212
 20
-0.29438389569937207
 10
-4.088978975926104
 20
-0.36442086862595163
  0
LWPOLYLINE
  5
1E5
330
17
100
AcDbEntity
  8
A-KRESKOWANIE
370
25
 48
0.05
100
AcDbPolyline
 90
2
 70
0
 10
-4.0096813157713695
 20
-0.36366962763501204
 10
-3.93964434284479
 20
-0.292292946405905
  0
LWPOLYLINE
  5
1E6
330
17
100
AcDbEntity
  8
A-KRESKOWANIE
370
25
 48
0.05
100
AcDbPolyline
 90
2
 70
0
 10
-3.9103556571552116
 20
-0.2920154746467405
 10
-3.838978975926105
 20
-0.36205244757332006
  0
LWPOLYLINE
  5
1E7
330
17
100
AcDbEntity
  8
A-KRESKOWANIE
370
25
 48
0.05
100
AcDbPolyline
 90
2
 70
0
 10
-3.759681315771369
 20
-0.36130120658238046
 10
-3.68964434284479
 20
-0.2899245253532734
  0
LWPOLYLINE
  5
1E8
330
17
100
AcDbEntity
  8
A-KRESKOWANIE
370
25
 48
0.05
100
AcDbPolyline
 90
2
 70
0
 10
-3.6603556571552116
 20
-0.2896470535941089
 10
-3.588978975926105
 20
-0.3596840265206885
  0
LWPOLYLINE
  5
1E9
330
17
100
AcDbEntity
  8
A-KRESKOWANIE
370
25
 48
0.05
100
AcDbPolyline
 90
2
 70
0
 10
-3.509681315771369
 20
-0.35893278552974883
 10
-3.43964434284479
 20
-0.28755610430064177
  0
LWPOLYLINE
  5
1EA
330
17
100
AcDbEntity
  8
A-KRESKOWANIE
370
25
 48
0.05
100
AcDbPolyline
 90
2
 70
0
 10
-3.4103556571552116
 20
-0.28727863254147734
 10
-3.338978975926105
 20
-0.3573156054680569
  0
LWPOLYLINE
  5
1EB
330
17
100
AcDbEntity
  8
A-KRESKOWANIE
370
25
 48
0.05
100
AcDbPolyline
 90
2
 70
0
 10
-3.259681315771369
 20
-0.35656436447711726
 10
-3.18964434284479
 20
-0.2851876832480102
  0
LWPOLYLINE
  5
1EC
330
17
100
AcDbEntity
  8
A-KRESKOWANIE
370
25
 48
0.05
100
AcDbPolyline
 90
2
 70
0
 10
-3.1603556571552116
 20
-0.28491021148884577
 10
-3.088978975926105
 20
-0.35494718441542533
  0
LWPOLYLINE
  5
1ED
330
17
100
AcDbEntity
  8
A-KRESKOWANIE
370
25
 48
0.05
100
AcDbPolyline
 90
2
 70
0
 10
-3.009681315771369
 20
-0.35419594342448574
 10
-2.93964434284479
 20
-0.2828192621953787
  0
LWPOLYLINE
  5
1EE
330
17
100
AcDbEntity
  8
A-KRESKOWANIE
370
25
 48
0.05
100
AcDbPolyline
 90
2
 70
0
 10
-2.9103556571552116
 20
-0.2825417904362142
 10
-2.838978975926105
 20
-0.35257876336279376
  0
LWPOLYLINE
  5
1EF
330
17
100
AcDbEntity
  8
A-KRESKOWANIE
370
25
 48
0.05
100
AcDbPolyline
 90
2
 70
0
 10
-2.759681315771369
 20
-0.35182752237185416
 10
-2.68964434284479
 20
-0.2804508411427471
  0
LWPOLYLINE
  5
1F0
330
17
100
AcDbEntity
  8
A-KRESKOWANIE
370
25
 48
0.05
100
AcDbPolyline
 90
2
 70
0
 10
-2.6603556571552116
 20
-0.2801733693835826
 10
-2.588978975926105
 20
-0.3502103423101622
  0
LWPOLYLINE
  5
1F1
330
17
100
AcDbEntity
  8
A-KRESKOWANIE
370
25
 48
0.05
100
AcDbPolyline
 90
2
 70
0
 10
-2.509681315771369
 20
-0.34945910131922253
 10
-2.43964434284479
 20
-0.27808242009011547
  0
LWPOLYLINE
  5
1F2
330
17
100
AcDbEntity
  8
A-KRESKOWANIE
370
25
 48
0.05
100
AcDbPolyline
 90
2
 70
0
 10
-2.4103556571552116
 20
-0.27780494833095104
 10
-2.338978975926105
 20
-0.3478419212575306
  0
LWPOLYLINE
  5
1F3
330
17
100
AcDbEntity
  8
A-KRESKOWANIE
370
25
 48
0.05
100
AcDbPolyline
 90
2
 70
0
 10
-2.259681315771369
 20
-0.34709068026659096
 10
-2.18964434284479
 20
-0.2757139990374839
  0
LWPOLYLINE
  5
1F4
330
17
100
AcDbEntity
  8
A-KRESKOWANIE
370
25
 48
0.05
100
AcDbPolyline
 90
2
 70
0
 10
-2.1603556571552116
 20
-0.27543652727831947
 10
-2.088978975926105
 20
-0.34547350020489903
  0
LWPOLYLINE
  5
1F5
330
17
100
AcDbEntity
  8
A-KRESKOWANIE
370
25
 48
0.05
100
AcDbPolyline
 90
2
 70
0
 10
-2.009681315771369
 20
-0.3447222592139594
 10
-1.9396443428447894
 20
-0.2733455779848523
  0
LWPOLYLINE
  5
1F6
330
17
100
AcDbEntity
  8
A-KRESKOWANIE
370
25
 48
0.05
100
AcDbPolyline
 90
2
 70
0
 10
-1.910355657155212
 20
-0.2730681062256879
 10
-1.8389789759261048
 20
-0.34310507915226746
  0
LWPOLYLINE
  5
1F7
330
17
100
AcDbEntity
  8
A-KRESKOWANIE
370
25
 48
0.05
100
AcDbPolyline
 90
2
 70
0
 10
-1.759681315771369
 20
-0.3423538381613278
 10
-1.6896443428447894
 20
-0.27097715693222074
  0
LWPOLYLINE
  5
1F8
330
17
100
AcDbEntity
  8
A-KRESKOWANIE
370
25
 48
0.05
100
AcDbPolyline
 90
2
 70
0
 10
-1.660355657155212
 20
-0.2706996851730563
 10
-1.5889789759261048
 20
-0.3407366580996359
  0
LWPOLYLINE
  5
1F9
330
17
100
AcDbEntity
  8
A-KRESKOWANIE
370
25
 48
0.05
100
AcDbPolyline
 90
2
 70
0
 10
-1.509681315771369
 20
-0.3399854171086963
 10
-1.4396443428447894
 20
-0.2686087358795892
  0
LWPOLYLINE
  5
1FA
330
17
100
AcDbEntity
  8
A-KRESKOWANIE
370
25
 48
0.05
100
AcDbPolyline
 90
2
 70
0
 10
-1.410355657155212
 20
-0.26833126412042474
 10
-1.3389789759261048
 20
-0.3383682370470043
  0
LWPOLYLINE
  5
1FB
330
17
100
AcDbEntity
  8
A-KRESKOWANIE
370
25
 48
0.05
100
AcDbPolyline
 90
2
 70
0
 10
-1.259681315771369
 20
-0.33761699605606466
 10
-1.1896443428447894
 20
-0.2662403148269576
  0
LWPOLYLINE
  5
1FC
330
17
100
AcDbEntity
  8
A-KRESKOWANIE
370
25
 48
0.05
100
AcDbPolyline
 90
2
 70
0
 10
-1.160355657155212
 20
-0.26596284306779316
 10
-1.0889789759261048
 20
-0.33599981599437273
  0
LWPOLYLINE
  5
1FD
330
17
100
AcDbEntity
  8
A-KRESKOWANIE
370
25
 48
0.05
100
AcDbPolyline
 90
2
 70
0
 10
-1.009681315771369
 20
-0.3352485750034331
 10
-0.9396443428447895
 20
-0.263871893774326
  0
LWPOLYLINE
  5
1FE
330
17
100
AcDbEntity
  8
A-KRESKOWANIE
370
25
 48
0.05
100
AcDbPolyline
 90
2
 70
0
 10
-0.9103556571552119
 20
-0.26359442201516153
 10
-0.8389789759261049
 20
-0.3336313949417411
  0
LWPOLYLINE
  5
1FF
330
17
100
AcDbEntity
  8
A-KRESKOWANIE
370
25
 48
0.05
100
AcDbPolyline
 90
2
 70
0
 10
-0.759681315771369
 20
-0.3328801539508015
 10
-0.6896443428447895
 20
-0.26150347272169444
  0
LWPOLYLINE
  5
200
330
17
100
AcDbEntity
  8
A-KRESKOWANIE
370
25
 48
0.05
100
AcDbPolyline
 90
2
 70
0
 10
-0.6603556571552119
 20
-0.26122600096253
 10
-0.5889789759261049
 20
-0.3312629738891096
  0
LWPOLYLINE
  5
201
330
17
100
AcDbEntity
  8
A-KRESKOWANIE
370
25
 48
0.05
100
AcDbPolyline
 90
2
 70
0
 10
-0.5096813157713691
 20
-0.33051173289816993
 10
-0.43964434284478954
 20
-0.25913505166906287
  0
LWPOLYLINE
  5
202
330
17
100
AcDbEntity
  8
A-KRESKOWANIE
370
25
 48
0.05
100
AcDbPolyline
 90
2
 70
0
 10
-0.4103556571552119
 20
-0.25885757990989844
 10
-0.3389789759261048
 20
-0.328894552836478
  0
LWPOLYLINE
  5
203
330
17
100
AcDbEntity
  8
A-KRESKOWANIE
370
25
 48
0.05
100
AcDbPolyline
 90
2
 70
0
 10
-0.25968131577136905
 20
-0.32814331184553835
 10
-0.18964434284478954
 20
-0.2567666306164313
  0
LWPOLYLINE
  5
204
330
17
100
AcDbEntity
  8
A-KRESKOWANIE
370
25
 48
0.05
100
AcDbPolyline
 90
2
 70
0
 10
-0.16035565715521188
 20
-0.25648915885726686
 10
-0.08897897592610485
 20
-0.32652613178384643
  0
LWPOLYLINE
  5
205
330
17
100
AcDbEntity
  8
A-KRESKOWANIE
370
25
 48
0.05
100
AcDbPolyline
 90
2
 70
0
 10
-0.009681315771369003
 20
-0.3257748907929068
 10
0.06035565715521049
 20
-0.2543982095637997
  0
LWPOLYLINE
  5
206
330
17
100
AcDbEntity
  8
A-KRESKOWANIE
370
25
 48
0.05
100
AcDbPolyline
 90
2
 70
0
 10
0.0896443428447881
 20
-0.2541207378046353
 10
0.16102102407389518
 20
-0.32415771073121485
  0
LWPOLYLINE
  5
207
330
17
100
AcDbEntity
  8
A-KRESKOWANIE
370
25
 48
0.05
100
AcDbPolyline
 90
2
 70
0
 10
0.24031868422863095
 20
-0.3234064697402752
 10
0.31035565715521046
 20
-0.25202978851116814
  0
LWPOLYLINE
  5
208
330
17
100
AcDbEntity
  8
A-KRESKOWANIE
370
25
 48
0.05
100
AcDbPolyline
 90
2
 70
0
 10
0.3396443428447881
 20
-0.2517523167520037
 10
0.4110210240738951
 20
-0.3217892896785833
  0
LWPOLYLINE
  5
209
330
17
100
AcDbEntity
  8
A-KRESKOWANIE
370
25
 48
0.05
100
AcDbPolyline
 90
2
 70
0
 10
0.49031868422863106
 20
-0.3210380486876437
 10
0.5603556571552105
 20
-0.24966136745853656
  0
LWPOLYLINE
  5
20A
330
17
100
AcDbEntity
  8
A-KRESKOWANIE
370
25
 48
0.05
100
AcDbPolyline
 90
2
 70
0
 10
0.5896443428447881
 20
-0.24938389569937217
 10
0.6610210240738951
 20
-0.31942086862595165
  0
LWPOLYLINE
  5
20B
330
17
100
AcDbEntity
  8
A-KRESKOWANIE
370
25
 48
0.05
100
AcDbPolyline
 90
2
 70
0
 10
0.740318684228631
 20
-0.31866962763501205
 10
0.8103556571552105
 20
-0.24729294640590496
  0
LWPOLYLINE
  5
20C
330
17
100
AcDbEntity
  8
A-KRESKOWANIE
370
25
 48
0.05
100
AcDbPolyline
 90
2
 70
0
 10
0.8396443428447881
 20
-0.2470154746467406
 10
0.9110210240738951
 20
-0.3170524475733201
  0
LWPOLYLINE
  5
20D
330
17
100
AcDbEntity
  8
A-KRESKOWANIE
370
25
 48
0.05
100
AcDbPolyline
 90
2
 70
0
 10
0.990318684228631
 20
-0.3163012065823805
 10
1.0603556571552106
 20
-0.2449245253532734
  0
LWPOLYLINE
  5
20E
330
17
100
AcDbEntity
  8
A-KRESKOWANIE
370
25
 48
0.05
100
AcDbPolyline
 90
2
 70
0
 10
1.089644342844788
 20
-0.24464705359410902
 10
1.1610210240738952
 20
-0.3146840265206885
  0
LWPOLYLINE
  5
20F
330
17
100
AcDbEntity
  8
A-KRESKOWANIE
370
25
 48
0.05
100
AcDbPolyline
 90
2
 70
0
 10
1.240318684228631
 20
-0.3139327855297489
 10
1.3103556571552106
 20
-0.2425561043006418
  0
LWPOLYLINE
  5
210
330
17
100
AcDbEntity
  8
A-KRESKOWANIE
370
25
 48
0.05
100
AcDbPolyline
 90
2
 70
0
 10
1.339644342844788
 20
-0.24227863254147744
 10
1.4110210240738952
 20
-0.3123156054680569
  0
LWPOLYLINE
  5
211
330
17
100
AcDbEntity
  8
A-KRESKOWANIE
370
25
 48
0.05
100
AcDbPolyline
 90
2
 70
0
 10
1.490318684228631
 20
-0.31156436447711733
 10
1.5603556571552106
 20
-0.24018768324801024
  0
LWPOLYLINE
  5
212
330
17
100
AcDbEntity
  8
A-KRESKOWANIE
370
25
 48
0.05
100
AcDbPolyline
 90
2
 70
0
 10
1.589644342844788
 20
-0.23991021148884586
 10
1.6610210240738952
 20
-0.30994718441542535
  0
LWPOLYLINE
  5
213
330
17
100
AcDbEntity
  8
A-KRESKOWANIE
370
25
 48
0.05
100
AcDbPolyline
 90
2
 70
0
 10
1.740318684228631
 20
-0.30919594342448575
 10
1.8103556571552106
 20
-0.23781926219537866
  0
LWPOLYLINE
  5
214
330
17
100
AcDbEntity
  8
A-KRESKOWANIE
370
25
 48
0.05
100
AcDbPolyline
 90
2
 70
0
 10
1.839644342844788
 20
-0.2375417904362143
 10
1.9110210240738952
 20
-0.3075787633627938
  0
LWPOLYLINE
  5
215
330
17
100
AcDbEntity
  8
A-KRESKOWANIE
370
25
 48
0.05
100
AcDbPolyline
 90
2
 70
0
 10
1.99021932137549
 20
-0.306883531269066
 10
2.0603554783961275
 20
-0.23560430794012904
  0
LWPOLYLINE
  5
216
330
17
100
AcDbEntity
  8
A-KRESKOWANIE
370
25
 48
0.05
100
AcDbPolyline
 90
2
 70
0
 10
2.089644521603871
 20
-0.2353675634049142
 10
2.160923744932808
 20
-0.3055037204255518
  0
LWPOLYLINE
  5
217
330
17
100
AcDbEntity
  8
A-KRESKOWANIE
370
25
 48
0.05
100
AcDbPolyline
 90
2
 70
0
 10
2.240197531640807
 20
-0.30487504681416
 10
2.3103554429459523
 20
-0.23361723544376067
  0
LWPOLYLINE
  5
218
330
17
100
AcDbEntity
  8
A-KRESKOWANIE
370
25
 48
0.05
100
AcDbPolyline
 90
2
 70
0
 10
2.3396445570540463
 20
-0.23338943122291994
 10
2.4109023684244457
 20
-0.3035473425280649
  0
LWPOLYLINE
  5
219
330
17
100
AcDbEntity
  8
A-KRESKOWANIE
370
25
 48
0.05
100
AcDbPolyline
 90
2
 70
0
 10
2.490197531640807
 20
-0.3029306023697155
 10
2.5603554429459523
 20
-0.23167279099931623
  0
LWPOLYLINE
  5
21A
330
17
100
AcDbEntity
  8
A-KRESKOWANIE
370
25
 48
0.05
100
AcDbPolyline
 90
2
 70
0
 10
2.5896445570540463
 20
-0.23144498677847547
 10
2.6609023684244457
 20
-0.3016028980836205
  0
LWPOLYLINE
  5
21B
330
17
100
AcDbEntity
  8
A-KRESKOWANIE
370
25
 48
0.05
100
AcDbPolyline
 90
2
 70
0
 10
2.740197531640807
 20
-0.30098615792527106
 10
2.8103554429459523
 20
-0.22972834655487176
  0
LWPOLYLINE
  5
21C
330
17
100
AcDbEntity
  8
A-KRESKOWANIE
370
25
 48
0.05
100
AcDbPolyline
 90
2
 70
0
 10
2.8396445570540463
 20
-0.22950054233403103
 10
2.9109023684244457
 20
-0.29965845363917604
  0
LWPOLYLINE
  5
21D
330
17
100
AcDbEntity
  8
A-KRESKOWANIE
370
25
 48
0.05
100
AcDbPolyline
 90
2
 70
0
 10
2.990197531640807
 20
-0.29904171348082653
 10
3.0603554429459523
 20
-0.22778390211042732
  0
LWPOLYLINE
  5
21E
330
17
100
AcDbEntity
  8
A-KRESKOWANIE
370
25
 48
0.05
100
AcDbPolyline
 90
2
 70
0
 10
3.0896445570540463
 20
-0.22755609788958656
 10
3.1609023684244457
 20
-0.2977140091947316
  0
LWPOLYLINE
  5
21F
330
17
100
AcDbEntity
  8
A-KRESKOWANIE
370
25
 48
0.05
100
AcDbPolyline
 90
2
 70
0
 10
3.240197531640807
 20
-0.2970972690363821
 10
3.3103554429459523
 20
-0.22583945766598285
  0
LWPOLYLINE
  5
220
330
17
100
AcDbEntity
  8
A-KRESKOWANIE
370
25
 48
0.05
100
AcDbPolyline
 90
2
 70
0
 10
3.3396445570540463
 20
-0.2256116534451421
 10
3.4109023684244457
 20
-0.29576956475028715
  0
LWPOLYLINE
  5
221
330
17
100
AcDbEntity
  8
A-KRESKOWANIE
370
25
 48
0.05
100
AcDbPolyline
 90
2
 70
0
 10
3.490197531640807
 20
-0.29515282459193765
 10
3.5603554429459523
 20
-0.2238950132215384
  0
LWPOLYLINE
  5
222
330
17
100
AcDbEntity
  8
A-KRESKOWANIE
370
25
 48
0.05
100
AcDbPolyline
 90
2
 70
0
 10
3.5896445570540463
 20
-0.22366720900069767
 10
3.6609023684244457
 20
-0.29382512030584274
  0
LWPOLYLINE
  5
223
330
17
100
AcDbEntity
  8
A-KRESKOWANIE
370
25
 48
0.05
100
AcDbPolyline
 90
2
 70
0
 10
3.740197531640807
 20
-0.2932083801474933
 10
3.8103554429459523
 20
-0.22195056877709396
  0
LWPOLYLINE
  5
224
330
17
100
AcDbEntity
  8
A-KRESKOWANIE
370
25
 48
0.05
100
AcDbPolyline
 90
2
 70
0
 10
3.8396445570540463
 20
-0.22172276455625323
 10
3.9109023684244457
 20
-0.2918806758613982
  0
LWPOLYLINE
  5
225
330
17
100
AcDbEntity
  8
A-KRESKOWANIE
370
25
 48
0.05
100
AcDbPolyline
 90
2
 70
0
 10
3.9901975316408067
 20
-0.29126393570304876
 10
4.060355442945951
 20
-0.2200061243326495
  0
LWPOLYLINE
  5
226
330
17
100
AcDbEntity
  8
A-KRESKOWANIE
370
25
 48
0.05
100
AcDbPolyline
 90
2
 70
0
 10
4.089644557054047
 20
-0.21977832011180876
 10
4.160902368424446
 20
-0.2899362314169538
  0
LWPOLYLINE
  5
227
330
17
100
AcDbEntity
  8
A-KRESKOWANIE
370
25
 48
0.05
100
AcDbPolyline
 90
2
 70
0
 10
4.240197531640807
 20
-0.2893194912586043
 10
4.310355442945951
 20
-0.21806167988820505
  0
LWPOLYLINE
  5
228
330
17
100
AcDbEntity
  8
A-KRESKOWANIE
370
25
 48
0.05
100
AcDbPolyline
 90
2
 70
0
 10
4.339644557054047
 20
-0.2178338756673643
 10
4.410902368424446
 20
-0.2879917869725094
  0
LWPOLYLINE
  5
229
330
17
100
AcDbEntity
  8
A-KRESKOWANIE
370
25
 48
0.05
100
AcDbPolyline
 90
2
 70
0
 10
4.490197531640807
 20
-0.28737504681415993
 10
4.560355442945951
 20
-0.2161172354437606
  0
LWPOLYLINE
  5
22A
330
17
100
AcDbEntity
  8
A-KRESKOWANIE
370
25
 48
0.05
100
AcDbPolyline
 90
2
 70
0
 10
4.589644557054047
 20
-0.21588943122291987
 10
4.660902368424446
 20
-0.28604734252806485
  0
LWPOLYLINE
  5
22B
330
17
100
AcDbEntity
  8
A-KRESKOWANIE
370
25
 48
0.05
100
AcDbPolyline
 90
2
 70
0
 10
4.740197531640807
 20
-0.2854306023697154
 10
4.810355442945951
 20
-0.21417279099931613
  0
LWPOLYLINE
  5
22C
330
17
100
AcDbEntity
  8
A-KRESKOWANIE
370
25
 48
0.05
100
AcDbPolyline
 90
2
 70
0
 10
4.839644557054047
 20
-0.2139449867784754
 10
4.910902368424446
 20
-0.28410289808362044
  0
LWPOLYLINE
  5
22D
330
17
100
AcDbEntity
  8
A-KRESKOWANIE
370
25
 48
0.05
100
AcDbPolyline
 90
2
 70
0
 10
4.990197531640807
 20
-0.28348615792527093
 10
5.060355442945951
 20
-0.2122283465548717
  0
LWPOLYLINE
  5
22E
330
17
100
AcDbEntity
  8
A-KRESKOWANIE
370
25
 48
0.05
100
AcDbPolyline
 90
2
 70
0
 10
5.089644557054047
 20
-0.21200054233403096
 10
5.160902368424446
 20
-0.282158453639176
  0
LWPOLYLINE
  5
22F
330
17
100
AcDbEntity
  8
A-KRESKOWANIE
370
25
 48
0.05
100
AcDbPolyline
 90
2
 70
0
 10
5.240197531640807
 20
-0.28154171348082657
 10
5.310355442945951
 20
-0.21028390211042725
  0
LWPOLYLINE
  5
230
330
17
100
AcDbEntity
  8
A-KRESKOWANIE
370
25
 48
0.05
100
AcDbPolyline
 90
2
 70
0
 10
5.339644557054047
 20
-0.2100560978895865
 10
5.410902368424446
 20
-0.2802140091947315
  0
LWPOLYLINE
  5
231
330
17
100
AcDbEntity
  8
A-KRESKOWANIE
370
25
 48
0.05
100
AcDbPolyline
 90
2
 70
0
 10
5.490197531640807
 20
-0.27959726903638205
 10
5.560355442945951
 20
-0.20833945766598277
  0
LWPOLYLINE
  5
232
330
17
100
AcDbEntity
  8
A-KRESKOWANIE
370
25
 48
0.05
100
AcDbPolyline
 90
2
 70
0
 10
5.589644557054047
 20
-0.20811165344514204
 10
5.660902368424446
 20
-0.2782695647502871
  0
LWPOLYLINE
  5
233
330
17
100
AcDbEntity
  8
A-KRESKOWANIE
370
25
 48
0.05
100
AcDbPolyline
 90
2
 70
0
 10
5.740197531640807
 20
-0.2776528245919376
 10
5.810355442945951
 20
-0.20639501322153833
  0
LWPOLYLINE
  5
234
330
17
100
AcDbEntity
  8
A-KRESKOWANIE
370
25
 48
0.05
100
AcDbPolyline
 90
2
 70
0
 10
5.839644557054047
 20
-0.2061672090006976
 10
5.910902368424446
 20
-0.27632512030584266
  0
LWPOLYLINE
  5
235
330
17
100
AcDbEntity
  8
A-OSIE
  6
PUNKTOWA
370
35
 48
0.027777777777777787
100
AcDbPolyline
 90
2
 70
128
 10
-4.0
 20
-0.9383384210526385
 10
-4.0
 20
-0.41333842105263846
  0
LWPOLYLINE
  5
236
330
17
100
AcDbEntity
  8
A-OSIE
  6
PUNKTOWA
370
35
 48
0.027777777777777787
100
AcDbPolyline
 90
2
 70
128
 10
-0.7999999999999998
 20
-0.9383384210526385
 10
-0.7999999999999998
 20
-0.41333842105263846
  0
LWPOLYLINE
  5
237
330
17
100
AcDbEntity
  8
A-OSIE
  6
PUNKTOWA
370
35
 48
0.027777777777777787
100
AcDbPolyline
 90
2
 70
128
 10
0.5
 20
-0.9383384210526385
 10
0.5
 20
-0.41333842105263846
  0
LWPOLYLINE
  5
238
330
17
100
AcDbEntity
  8
A-OSIE
  6
PUNKTOWA
370
35
 48
0.027777777777777787
100
AcDbPolyline
 90
2
 70
128
 10
4.0
 20
-0.9383384210526385
 10
4.0
 20
-0.41333842105263846
  0
HATCH
  5
239
330
17
100
AcDbEntity
  8
A-OSIE
 62
7
420
16777215
100
AcDbHatch
 10
0.0
 20
0.0
 30
0.0
210
0.0
220
0.0
230
1.0
  2
SOLID
 70
1
 71
0
 91
1
 92
3
 72
0
 73
1
 93
48
 10
-3.75
 20
-1.1883384210526384
 10
-3.7521387846565473
 20
-1.1557068729976256
 10
-3.758518543427733
 20
-1.1236336597770082
 10
-3.7690301168721785
 20
-1.092667562961366
 10
-3.78349364905389
 20
-1.0633384210526384
 10
-3.8016616649271913
 20
-1.0361480638004583
 10
-3.823223304703363
 20
-1.0115617257560015
 10
-3.8478096427478197
 20
-0.9900000859798297
 10
-3.875
 20
-0.9718320701065288
 10
-3.9043291419087276
 20
-0.9573685379248167
 10
-3.9352952387243696
 20
-0.9468569644803714
 10
-3.967368451944987
 20
-0.9404772057091858
 10
-4.0
 20
-0.9383384210526384
 10
-4.032631548055013
 20
-0.9404772057091858
 10
-4.06470476127563
 20
-0.9468569644803714
 10
-4.095670858091272
 20
-0.9573685379248167
 10
-4.125
 20
-0.9718320701065287
 10
-4.15219035725218
 20
-0.9900000859798296
 10
-4.1767766952966365
 20
-1.0115617257560015
 10
-4.198338335072809
 20
-1.036148063800458
 10
-4.216506350946109
 20
-1.0633384210526384
 10
-4.2309698831278215
 20
-1.092667562961366
 10
-4.241481456572267
 20
-1.1236336597770082
 10
-4.247861215343453
 20
-1.1557068729976254
 10
-4.25
 20
-1.1883384210526384
 10
-4.247861215343453
 20
-1.2209699691076512
 10
-4.241481456572267
 20
-1.2530431823282686
 10
-4.2309698831278215
 20
-1.2840092791439108
 10
-4.216506350946109
 20
-1.3133384210526384
 10
-4.198338335072809
 20
-1.3405287783048185
 10
-4.1767766952966365
 20
-1.3651151163492752
 10
-4.15219035725218
 20
-1.3866767561254472
 10
-4.125
 20
-1.404844771998748
 10
-4.095670858091273
 20
-1.41930830418046
 10
-4.06470476127563
 20
-1.4298198776249054
 10
-4.032631548055013
 20
-1.436199636396091
 10
-4.0
 20
-1.4383384210526384
 10
-3.967368451944987
 20
-1.4361996363960912
 10
-3.93529523872437
 20
-1.4298198776249056
 10
-3.9043291419087276
 20
-1.4193083041804602
 10
-3.875
 20
-1.4048447719987482
 10
-3.84780964274782
 20
-1.3866767561254474
 10
-3.823223304703363
 20
-1.3651151163492754
 10
-3.8016616649271913
 20
-1.3405287783048188
 10
-3.7834936490538906
 20
-1.3133384210526384
 10
-3.7690301168721785
 20
-1.284009279143911
 10
-3.758518543427733
 20
-1.2530431823282688
 10
-3.7521387846565473
 20
-1.2209699691076517
 97
0
 75
0
 76
1
 98
0
  0
HATCH
  5
23A
330
17
100
AcDbEntity
  8
A-OSIE
 62
7
420
16777215
100
AcDbHatch
 10
0.0
 20
0.0
 30
0.0
210
0.0
220
0.0
230
1.0
  2
SOLID
 70
1
 71
0
 91
1
 92
3
 72
0
 73
1
 93
48
 10
-0.5499999999999998
 20
-1.1883384210526384
 10
-0.5521387846565472
 20
-1.1557068729976256
 10
-0.5585185434277328
 20
-1.1236336597770082
 10
-0.5690301168721781
 20
-1.092667562961366
 10
-0.5834936490538901
 20
-1.0633384210526384
 10
-0.601661664927191
 20
-1.0361480638004583
 10
-0.623223304703363
 20
-1.0115617257560015
 10
-0.6478096427478197
 20
-0.9900000859798297
 10
-0.6749999999999998
 20
-0.9718320701065288
 10
-0.7043291419087274
 20
-0.9573685379248167
 10
-0.7352952387243696
 20
-0.9468569644803714
 10
-0.7673684519449869
 20
-0.9404772057091858
 10
-0.7999999999999998
 20
-0.9383384210526384
 10
-0.8326315480550127
 20
-0.9404772057091858
 10
-0.86470476127563
 20
-0.9468569644803714
 10
-0.8956708580912722
 20
-0.9573685379248167
 10
-0.9249999999999998
 20
-0.9718320701065287
 10
-0.9521903572521799
 20
-0.9900000859798296
 10
-0.9767766952966367
 20
-1.0115617257560015
 10
-0.9983383350728086
 20
-1.036148063800458
 10
-1.0165063509461094
 20
-1.0633384210526384
 10
-1.0309698831278216
 20
-1.092667562961366
 10
-1.0414814565722668
 20
-1.1236336597770082
 10
-1.0478612153434523
 20
-1.1557068729976254
 10
-1.0499999999999998
 20
-1.1883384210526384
 10
-1.0478612153434526
 20
-1.2209699691076512
 10
-1.041481456572267
 20
-1.2530431823282686
 10
-1.0309698831278216
 20
-1.2840092791439108
 10
-1.0165063509461096
 20
-1.3133384210526384
 10
-0.9983383350728087
 20
-1.3405287783048185
 10
-0.9767766952966368
 20
-1.3651151163492752
 10
-0.95219035725218
 20
-1.3866767561254472
 10
-0.9249999999999999
 20
-1.404844771998748
 10
-0.8956708580912724
 20
-1.41930830418046
 10
-0.8647047612756302
 20
-1.4298198776249054
 10
-0.8326315480550129
 20
-1.436199636396091
 10
-0.7999999999999998
 20
-1.4383384210526384
 10
-0.767368451944987
 20
-1.4361996363960912
 10
-0.7352952387243697
 20
-1.4298198776249056
 10
-0.7043291419087275
 20
-1.4193083041804602
 10
-0.675
 20
-1.4048447719987482
 10
-0.6478096427478198
 20
-1.3866767561254474
 10
-0.623223304703363
 20
-1.3651151163492754
 10
-0.6016616649271911
 20
-1.3405287783048188
 10
-0.5834936490538902
 20
-1.3133384210526384
 10
-0.5690301168721782
 20
-1.284009279143911
 10
-0.5585185434277328
 20
-1.2530431823282688
 10
-0.5521387846565473
 20
-1.2209699691076517
 97
0
 75
0
 76
1
 98
0
  0
HATCH
  5
23B
330
17
100
AcDbEntity
  8
A-OSIE
 62
7
420
16777215
100
AcDbHatch
 10
0.0
 20
0.0
 30
0.0
210
0.0
220
0.0
230
1.0
  2
SOLID
 70
1
 71
0
 91
1
 92
3
 72
0
 73
1
 93
48
 10
0.75
 20
-1.1883384210526384
 10
0.7478612153434526
 20
-1.1557068729976256
 10
0.741481456572267
 20
-1.1236336597770082
 10
0.7309698831278217
 20
-1.092667562961366
 10
0.7165063509461097
 20
-1.0633384210526384
 10
0.6983383350728088
 20
-1.0361480638004583
 10
0.6767766952966369
 20
-1.0115617257560015
 10
0.6521903572521801
 20
-0.9900000859798297
 10
0.625
 20
-0.9718320701065288
 10
0.5956708580912724
 20
-0.9573685379248167
 10
0.5647047612756302
 20
-0.9468569644803714
 10
0.5326315480550129
 20
-0.9404772057091858
 10
0.5
 20
-0.9383384210526384
 10
0.46736845194498716
 20
-0.9404772057091858
 10
0.4352952387243698
 20
-0.9468569644803714
 10
0.4043291419087276
 20
-0.9573685379248167
 10
0.37500000000000006
 20
-0.9718320701065287
 10
0.3478096427478199
 20
-0.9900000859798296
 10
0.32322330470336313
 20
-1.0115617257560015
 10
0.30166166492719126
 20
-1.036148063800458
 10
0.2834936490538904
 20
-1.0633384210526384
 10
0.2690301168721783
 20
-1.092667562961366
 10
0.25851854342773295
 20
-1.1236336597770082
 10
0.2521387846565474
 20
-1.1557068729976254
 10
0.25
 20
-1.1883384210526384
 10
0.2521387846565474
 20
-1.2209699691076512
 10
0.2585185434277329
 20
-1.2530431823282686
 10
0.26903011687217826
 20
-1.2840092791439108
 10
0.2834936490538903
 20
-1.3133384210526384
 10
0.30166166492719115
 20
-1.3405287783048185
 10
0.323223304703363
 20
-1.3651151163492752
 10
0.3478096427478198
 20
-1.3866767561254472
 10
0.3749999999999999
 20
-1.404844771998748
 10
0.40432914190872743
 20
-1.41930830418046
 10
0.4352952387243696
 20
-1.4298198776249054
 10
0.4673684519449869
 20
-1.436199636396091
 10
0.49999999999999994
 20
-1.4383384210526384
 10
0.5326315480550128
 20
-1.4361996363960912
 10
0.5647047612756301
 20
-1.4298198776249056
 10
0.5956708580912723
 20
-1.4193083041804602
 10
0.6249999999999998
 20
-1.4048447719987482
 10
0.65219035725218
 20
-1.3866767561254474
 10
0.6767766952966369
 20
-1.3651151163492754
 10
0.6983383350728087
 20
-1.3405287783048188
 10
0.7165063509461096
 20
-1.3133384210526384
 10
0.7309698831278216
 20
-1.284009279143911
 10
0.741481456572267
 20
-1.2530431823282688
 10
0.7478612153434525
 20
-1.2209699691076517
 97
0
 75
0
 76
1
 98
0
  0
HATCH
  5
23C
330
17
100
AcDbEntity
  8
A-OSIE
 62
7
420
16777215
100
AcDbHatch
 10
0.0
 20
0.0
 30
0.0
210
0.0
220
0.0
230
1.0
  2
SOLID
 70
1
 71
0
 91
1
 92
3
 72
0
 73
1
 93
48
 10
4.25
 20
-1.1883384210526384
 10
4.247861215343453
 20
-1.1557068729976256
 10
4.241481456572267
 20
-1.1236336597770082
 10
4.2309698831278215
 20
-1.092667562961366
 10
4.216506350946109
 20
-1.0633384210526384
 10
4.198338335072809
 20
-1.0361480638004583
 10
4.1767766952966365
 20
-1.0115617257560015
 10
4.15219035725218
 20
-0.9900000859798297
 10
4.125
 20
-0.9718320701065288
 10
4.095670858091273
 20
-0.9573685379248167
 10
4.06470476127563
 20
-0.9468569644803714
 10
4.032631548055013
 20
-0.9404772057091858
 10
4.0
 20
-0.9383384210526384
 10
3.967368451944987
 20
-0.9404772057091858
 10
3.93529523872437
 20
-0.9468569644803714
 10
3.9043291419087276
 20
-0.9573685379248167
 10
3.875
 20
-0.9718320701065287
 10
3.84780964274782
 20
-0.9900000859798296
 10
3.823223304703363
 20
-1.0115617257560015
 10
3.8016616649271913
 20
-1.036148063800458
 10
3.78349364905389
 20
-1.0633384210526384
 10
3.7690301168721785
 20
-1.092667562961366
 10
3.758518543427733
 20
-1.1236336597770082
 10
3.7521387846565473
 20
-1.1557068729976254
 10
3.75
 20
-1.1883384210526384
 10
3.7521387846565473
 20
-1.2209699691076512
 10
3.758518543427733
 20
-1.2530431823282686
 10
3.7690301168721785
 20
-1.2840092791439108
 10
3.78349364905389
 20
-1.3133384210526384
 10
3.8016616649271913
 20
-1.3405287783048185
 10
3.823223304703363
 20
-1.3651151163492752
 10
3.8478096427478197
 20
-1.3866767561254472
 10
3.875
 20
-1.404844771998748
 10
3.9043291419087276
 20
-1.41930830418046
 10
3.9352952387243696
 20
-1.4298198776249054
 10
3.9673684519449868
 20
-1.436199636396091
 10
4.0
 20
-1.4383384210526384
 10
4.032631548055013
 20
-1.4361996363960912
 10
4.06470476127563
 20
-1.4298198776249056
 10
4.095670858091272
 20
-1.4193083041804602
 10
4.125
 20
-1.4048447719987482
 10
4.15219035725218
 20
-1.3866767561254474
 10
4.1767766952966365
 20
-1.3651151163492754
 10
4.198338335072808
 20
-1.3405287783048188
 10
4.216506350946109
 20
-1.3133384210526384
 10
4.2309698831278215
 20
-1.284009279143911
 10
4.241481456572267
 20
-1.2530431823282688
 10
4.247861215343453
 20
-1.2209699691076517
 97
0
 75
0
 76
1
 98
0
  0
CIRCLE
  5
23D
330
17
100
AcDbEntity
  8
A-OSIE
  6
Continuous
370
35
 48
0.05
100
AcDbCircle
 10
-4.0
 20
-1.1883384210526384
 30
0.0
 40
0.25
  0
CIRCLE
  5
23E
330
17
100
AcDbEntity
  8
A-OSIE
  6
Continuous
370
35
 48
0.05
100
AcDbCircle
 10
-0.7999999999999998
 20
-1.1883384210526384
 30
0.0
 40
0.25
  0
CIRCLE
  5
23F
330
17
100
AcDbEntity
  8
A-OSIE
  6
Continuous
370
35
 48
0.05
100
AcDbCircle
 10
0.5
 20
-1.1883384210526384
 30
0.0
 40
0.25
  0
CIRCLE
  5
240
330
17
100
AcDbEntity
  8
A-OSIE
  6
Continuous
370
35
 48
0.05
100
AcDbCircle
 10
4.0
 20
-1.1883384210526384
 30
0.0
 40
0.25
  0
TEXT
  5
241
330
17
100
AcDbEntity
  8
A-OSIE
100
AcDbText
 10
-4.070727344992051
 20
-1.2758384210526383
 30
0.0
 40
0.17500000000000002
  1
1
  7
PL_ARIAL
 11
-4.070727344992051
 21
-1.2758384210526383
 31
0.0
100
AcDbText
  0
TEXT
  5
242
330
17
100
AcDbEntity
  8
A-OSIE
100
AcDbText
 10
-0.8707273449920507
 20
-1.2758384210526383
 30
0.0
 40
0.17500000000000002
  1
2
  7
PL_ARIAL
 11
-0.8707273449920507
 21
-1.2758384210526383
 31
0.0
100
AcDbText
  0
TEXT
  5
243
330
17
100
AcDbEntity
  8
A-OSIE
100
AcDbText
 10
0.4292726550079491
 20
-1.2758384210526383
 30
0.0
 40
0.17500000000000002
  1
3
  7
PL_ARIAL
 11
0.4292726550079491
 21
-1.2758384210526383
 31
0.0
100
AcDbText
  0
TEXT
  5
244
330
17
100
AcDbEntity
  8
A-OSIE
100
AcDbText
 10
3.9292726550079493
 20
-1.2758384210526383
 30
0.0
 40
0.17500000000000002
  1
4
  7
PL_ARIAL
 11
3.9292726550079493
 21
-1.2758384210526383
 31
0.0
100
AcDbText
  0
LWPOLYLINE
  5
245
330
17
100
AcDbEntity
  8
A-ELEWACJE
370
35
 48
0.05
100
AcDbPolyline
 90
5
 70
0
 10
1.0
 20
2.959
 10
-4.0
 20
2.959
 10
-4.0
 20
2.9840000000000004
 10
1.0
 20
2.9840000000000004
 10
1.0
 20
2.959
  0
LWPOLYLINE
  5
246
330
17
100
AcDbEntity
  8
A-ELEWACJE
370
35
 48
0.05
100
AcDbPolyline
 90
5
 70
0
 10
1.0
 20
2.91
 10
-4.0
 20
2.91
 10
-4.0
 20
2.914
 10
1.0
 20
2.914
 10
1.0
 20
2.91
  0
LWPOLYLINE
  5
247
330
17
100
AcDbEntity
  8
A-ELEWACJE
370
35
 48
0.05
100
AcDbPolyline
 90
2
 70
0
 10
-4.0
 20
2.9144
 10
-4.0
 20
2.9586
  0
LWPOLYLINE
  5
248
330
17
100
AcDbEntity
  8
A-ELEWACJE
370
35
 48
0.05
100
AcDbPolyline
 90
2
 70
0
 10
1.0
 20
2.9586
 10
1.0
 20
2.9144
  0
LWPOLYLINE
  5
249
330
17
100
AcDbEntity
  8
A-ELEWACJE
370
35
 48
0.05
100
AcDbPolyline
 90
5
 70
0
 10
1.0
 20
2.6950000000000003
 10
-4.0
 20
2.6950000000000003
 10
-4.0
 20
2.7100000000000004
 10
1.0
 20
2.7100000000000004
 10
1.0
 20
2.6950000000000003
  0
LWPOLYLINE
  5
24A
330
17
100
AcDbEntity
  8
A-ELEWACJE
370
35
 48
0.05
100
AcDbPolyline
 90
2
 70
0
 10
-4.0
 20
2.7104
 10
-4.0
 20
2.9096
  0
LWPOLYLINE
  5
24B
330
17
100
AcDbEntity
  8
A-ELEWACJE
370
35
 48
0.05
100
AcDbPolyline
 90
2
 70
0
 10
1.0
 20
2.9096
 10
1.0
 20
2.7104
  0
LWPOLYLINE
  5
24C
330
17
100
AcDbEntity
  8
A-ELEWACJE
370
35
 48
0.05
100
AcDbPolyline
 90
5
 70
0
 10
0.92
 20
4.034000000000001
 10
-3.9200000000000004
 20
4.034000000000001
 10
-3.9200000000000004
 20
4.0840000000000005
 10
0.92
 20
4.0840000000000005
 10
0.92
 20
4.034000000000001
  0
LWPOLYLINE
  5
24D
330
17
100
AcDbEntity
  8
A-ELEWACJE
370
35
 48
0.05
100
AcDbPolyline
 90
4
 70
0
 10
0.92
 20
4.0336
 10
0.92
 20
3.004
 10
-3.92
 20
3.004
 10
-3.92
 20
4.0336
  0
LWPOLYLINE
  5
24E
330
17
100
AcDbEntity
  8
A-ELEWACJE
370
35
 48
0.05
100
AcDbPolyline
 90
4
 70
0
 10
-3.9204
 20
4.034
 10
-3.945
 20
4.034
 10
-3.945
 20
4.084
 10
-3.9204
 20
4.084
  0
LWPOLYLINE
  5
24F
330
17
100
AcDbEntity
  8
A-ELEWACJE
370
35
 48
0.05
100
AcDbPolyline
 90
4
 70
0
 10
0.9204
 20
4.084
 10
0.945
 20
4.084
 10
0.945
 20
4.034
 10
0.9204
 20
4.034
  0
LWPOLYLINE
  5
250
330
17
100
AcDbEntity
  8
A-ELEWACJE
370
35
 48
0.05
100
AcDbPolyline
 90
2
 70
0
 10
-3.93
 20
3.004
 10
-3.93
 20
4.0336
  0
LWPOLYLINE
  5
251
330
17
100
AcDbEntity
  8
A-ELEWACJE
370
35
 48
0.05
100
AcDbPolyline
 90
3
 70
0
 10
0.93
 20
4.0336
 10
0.93
 20
3.004
 10
0.9204
 20
3.004
  0
LWPOLYLINE
  5
252
330
17
100
AcDbEntity
  8
A-ELEWACJE
370
35
 48
0.05
100
AcDbPolyline
 90
2
 70
0
 10
-3.91
 20
-0.29161
 10
-3.91
 20
2.6946
  0
LWPOLYLINE
  5
253
330
17
100
AcDbEntity
  8
A-ELEWACJE
370
35
 48
0.05
100
AcDbPolyline
 90
2
 70
0
 10
-3.79
 20
2.6946
 10
-3.79
 20
-0.29048
  0
LWPOLYLINE
  5
254
330
17
100
AcDbEntity
  8
A-ELEWACJE
370
35
 48
0.05
100
AcDbPolyline
 90
4
 70
0
 10
0.79
 20
-0.24709
 10
0.79
 20
2.41
 10
0.91
 20
2.41
 10
0.91
 20
-0.24595
  0
LWPOLYLINE
  5
255
330
17
100
AcDbEntity
  8
A-ELEWACJE
370
35
 48
0.05
100
AcDbPolyline
 90
3
 70
0
 10
0.7896
 20
2.41
 10
0.75
 20
2.41
 10
0.75
 20
2.6946
  0
LWPOLYLINE
  5
256
330
17
100
AcDbEntity
  8
A-ELEWACJE
370
35
 48
0.05
100
AcDbPolyline
 90
3
 70
0
 10
0.95
 20
2.6946
 10
0.95
 20
2.41
 10
0.9104
 20
2.41
  0
LWPOLYLINE
  5
257
330
17
100
AcDbEntity
  8
A-ELEWACJE
370
35
 48
0.05
100
AcDbPolyline
 90
5
 70
0
 10
-2.015
 20
0.875
 10
-2.015
 20
0.904
 10
-0.485
 20
0.904
 10
-0.485
 20
0.875
 10
-2.015
 20
0.875
  0
LWPOLYLINE
  5
258
330
17
100
AcDbEntity
  8
A-ELEWACJE
370
35
 48
0.05
100
AcDbPolyline
 90
5
 70
0
 10
0.985
 20
1.075
 10
0.985
 20
1.104
 10
3.015
 20
1.104
 10
3.015
 20
1.075
 10
0.985
 20
1.075
  0
LWPOLYLINE
  5
259
330
17
100
AcDbEntity
  8
A-ELEWACJE
370
35
 48
0.05
100
AcDbPolyline
 90
6
 70
0
 10
4.29
 20
-0.21782
 10
4.29
 20
2.91
 10
4.29
 20
6.4935
 10
4.297
 20
6.4935
 10
4.297
 20
2.91
 10
4.297
 20
-0.21777
  0
LWPOLYLINE
  5
25A
330
17
100
AcDbEntity
  8
A-ELEWACJE
370
35
 48
0.05
100
AcDbPolyline
 90
6
 70
0
 10
-4.297
 20
-0.29528
 10
-4.297
 20
2.91
 10
-4.297
 20
6.4935
 10
-4.29
 20
6.4935
 10
-4.29
 20
2.91
 10
-4.29
 20
-0.29521
  0
LWPOLYLINE
  5
25B
330
17
100
AcDbEntity
  8
A-ELEWACJE
370
35
 48
0.05
100
AcDbPolyline
 90
4
 70
0
 10
-4.2974
 20
-0.05
 10
-7.3
 20
-0.05
 10
-7.3
 20
-0.02
 10
-4.2974
 20
-0.02
  0
LWPOLYLINE
  5
25C
330
17
100
AcDbEntity
  8
A-ELEWACJE
370
35
 48
0.05
100
AcDbPolyline
 90
2
 70
0
 10
-7.3
 20
-0.32373
 10
-7.3
 20
-0.0504
  0
LWPOLYLINE
  5
25D
330
17
100
AcDbEntity
  8
A-ELEWACJE
370
35
 48
0.05
100
AcDbPolyline
 90
5
 70
0
 10
-4.417000000000001
 20
3.2100000000000004
 10
-4.417000000000001
 20
3.2700000000000005
 10
-4.377000000000001
 20
3.2700000000000005
 10
-4.377000000000001
 20
3.2100000000000004
 10
-4.417000000000001
 20
3.2100000000000004
  0
LWPOLYLINE
  5
25E
330
17
100
AcDbEntity
  8
A-ELEWACJE
370
35
 48
0.05
100
AcDbPolyline
 90
5
 70
0
 10
-4.417000000000001
 20
6.24
 10
-4.417000000000001
 20
6.300000000000001
 10
-4.377000000000001
 20
6.300000000000001
 10
-4.377000000000001
 20
6.24
 10
-4.417000000000001
 20
6.24
  0
LWPOLYLINE
  5
25F
330
17
100
AcDbEntity
  8
A-ELEWACJE
370
35
 48
0.05
100
AcDbPolyline
 90
4
 70
0
 10
-4.2896
 20
6.4935
 10
-2.8
 20
6.4935
 10
-0.4
 20
6.4935
 10
4.2896
 20
6.4935
  0
LWPOLYLINE
  5
260
330
17
100
AcDbEntity
  8
A-ELEWACJE
370
35
 48
0.05
100
AcDbPolyline
 90
4
 70
0
 10
-0.412
 20
4.0844
 10
-0.412
 20
5.348
 10
-2.788
 20
5.348
 10
-2.788
 20
4.0844
  0
LWPOLYLINE
  5
261
330
17
100
AcDbEntity
  8
A-ELEWACJE
370
35
 48
0.05
100
AcDbPolyline
 90
4
 70
0
 10
-0.512
 20
0.9044
 10
-0.512
 20
2.388
 10
-1.988
 20
2.388
 10
-1.988
 20
0.9044
  0
LWPOLYLINE
  5
262
330
17
100
AcDbEntity
  8
A-ELEWACJE
370
35
 48
0.05
100
AcDbPolyline
 90
4
 70
0
 10
2.988
 20
1.1044
 10
2.988
 20
2.088
 10
1.012
 20
2.088
 10
1.012
 20
1.1044
  0
LWPOLYLINE
  5
263
330
17
100
AcDbEntity
  8
A-ELEWACJE
370
35
 48
0.05
100
AcDbPolyline
 90
6
 70
0
 10
-4.417
 20
3.2096
 10
-4.417
 20
3.06
 10
-4.537
 20
3.06
 10
-4.537
 20
6.45
 10
-4.417
 20
6.45
 10
-4.417
 20
6.3004
  0
LWPOLYLINE
  5
264
330
17
100
AcDbEntity
  8
A-ELEWACJE
370
35
 48
0.05
100
AcDbPolyline
 90
2
 70
0
 10
-4.417
 20
6.2396
 10
-4.417
 20
3.2704
  0
LWPOLYLINE
  5
265
330
17
100
AcDbEntity
  8
A-ELEWACJE
370
35
 48
0.05
100
AcDbPolyline
 90
4
 70
0
 10
-4.22
 20
6.4939
 10
-4.22
 20
6.5135
 10
4.22
 20
6.5135
 10
4.22
 20
6.4939
  0
LWPOLYLINE
  5
266
330
17
100
AcDbEntity
  8
A-ELEWACJE
370
35
 48
0.05
100
AcDbPolyline
 90
4
 70
0
 10
-1.6425
 20
4.0844
 10
-1.6425
 20
5.275
 10
-2.715
 20
5.275
 10
-2.715
 20
4.0844
  0
LWPOLYLINE
  5
267
330
17
100
AcDbEntity
  8
A-ELEWACJE
370
35
 48
0.05
100
AcDbPolyline
 90
4
 70
0
 10
-0.485
 20
4.0844
 10
-0.485
 20
5.275
 10
-1.5575
 20
5.275
 10
-1.5575
 20
4.0844
  0
LWPOLYLINE
  5
268
330
17
100
AcDbEntity
  8
A-ELEWACJE
370
35
 48
0.05
100
AcDbPolyline
 90
5
 70
0
 10
-1.925
 20
2.325
 10
-1.925
 20
0.975
 10
-0.575
 20
0.975
 10
-0.575
 20
2.325
 10
-1.925
 20
2.325
  0
LWPOLYLINE
  5
269
330
17
100
AcDbEntity
  8
A-ELEWACJE
370
35
 48
0.05
100
AcDbPolyline
 90
5
 70
0
 10
2.945
 20
1.155
 10
2.945
 20
2.045
 10
1.055
 20
2.045
 10
1.055
 20
1.155
 10
2.945
 20
1.155
  0
LWPOLYLINE
  5
26A
330
17
100
AcDbEntity
  8
A-ELEWACJE
370
35
 48
0.05
100
AcDbPolyline
 90
4
 70
0
 10
4.2974
 20
1.004
 10
4.337
 20
1.004
 10
4.337
 20
0.975
 10
4.2974
 20
0.975
  0
LWPOLYLINE
  5
26B
330
17
100
AcDbEntity
  8
A-ELEWACJE
370
35
 48
0.05
100
AcDbPolyline
 90
4
 70
0
 10
4.2974
 20
4.364
 10
4.337
 20
4.364
 10
4.337
 20
4.335
 10
4.2974
 20
4.335
  0
LWPOLYLINE
  5
26C
330
17
100
AcDbEntity
  8
A-ELEWACJE
370
35
 48
0.05
100
AcDbPolyline
 90
4
 70
0
 10
4.2974
 20
3.964
 10
4.337
 20
3.964
 10
4.337
 20
3.935
 10
4.2974
 20
3.935
  0
LWPOLYLINE
  5
26D
330
17
100
AcDbEntity
  8
A-ELEWACJE
370
35
 48
0.05
100
AcDbPolyline
 90
4
 70
0
 10
-4.2974
 20
3.835
 10
-4.337
 20
3.835
 10
-4.337
 20
3.864
 10
-4.2974
 20
3.864
  0
LWPOLYLINE
  5
26E
330
17
100
AcDbEntity
  8
A-ELEWACJE
370
35
 48
0.05
100
AcDbPolyline
 90
4
 70
0
 10
-4.2974
 20
0.875
 10
-4.337
 20
0.875
 10
-4.337
 20
0.904
 10
-4.2974
 20
0.904
  0
LWPOLYLINE
  5
26F
330
17
100
AcDbEntity
  8
A-ELEWACJE
370
50
 48
0.05
100
AcDbPolyline
 90
54
 70
0
 10
-7.300000000000001
 20
-0.32312784986250953
 10
-7.300000000000001
 20
-0.05
 10
-7.300000000000001
 20
-0.02
 10
-4.297000000000001
 20
-0.02
 10
-4.297000000000001
 20
0.0
 10
-4.297000000000001
 20
0.8750000000000001
 10
-4.337000000000001
 20
0.8750000000000001
 10
-4.337000000000001
 20
0.904
 10
-4.297000000000001
 20
0.904
 10
-4.297000000000001
 20
2.3880000000000003
 10
-4.297000000000001
 20
2.4000000000000004
 10
-4.297000000000001
 20
2.588
 10
-4.297000000000001
 20
2.6
 10
-4.297000000000001
 20
2.91
 10
-4.297000000000001
 20
3.06
 10
-4.297000000000001
 20
3.8350000000000004
 10
-4.337000000000001
 20
3.8350000000000004
 10
-4.337000000000001
 20
3.8640000000000003
 10
-4.297000000000001
 20
3.8640000000000003
 10
-4.297000000000001
 20
5.448
 10
-4.297000000000001
 20
5.460000000000001
 10
-4.297000000000001
 20
6.493500000000001
 10
-4.29
 20
6.493500000000001
 10
-4.220000000000001
 20
6.493500000000001
 10
-4.220000000000001
 20
6.5135000000000005
 10
-3.8100000000000005
 20
6.5135000000000005
 10
3.8100000000000005
 20
6.5135000000000005
 10
4.220000000000001
 20
6.5135000000000005
 10
4.220000000000001
 20
6.493500000000001
 10
4.29
 20
6.493500000000001
 10
4.297000000000001
 20
6.493500000000001
 10
4.297000000000001
 20
5.460000000000001
 10
4.297000000000001
 20
5.448
 10
4.297000000000001
 20
5.36
 10
4.297000000000001
 20
5.348000000000001
 10
4.297000000000001
 20
4.364000000000001
 10
4.337000000000001
 20
4.364000000000001
 10
4.337000000000001
 20
4.335
 10
4.297000000000001
 20
4.335
 10
4.297000000000001
 20
3.9640000000000004
 10
4.337000000000001
 20
3.9640000000000004
 10
4.337000000000001
 20
3.9350000000000005
 10
4.297000000000001
 20
3.9350000000000005
 10
4.297000000000001
 20
2.91
 10
4.297000000000001
 20
2.3000000000000003
 10
4.297000000000001
 20
2.2880000000000003
 10
4.297000000000001
 20
2.2
 10
4.297000000000001
 20
2.188
 10
4.297000000000001
 20
1.004
 10
4.337000000000001
 20
1.004
 10
4.337000000000001
 20
0.9750000000000001
 10
4.297000000000001
 20
0.9750000000000001
 10
4.297000000000001
 20
0.0
 10
4.297000000000001
 20
-0.2171655253091063
  0
LWPOLYLINE
  5
270
330
17
100
AcDbEntity
  8
A-ELEWACJE
370
50
 48
0.05
100
AcDbPolyline
 90
13
 70
0
 10
-4.377000000000001
 20
6.300000000000001
 10
-4.377000000000001
 20
6.24
 10
-4.417000000000001
 20
6.24
 10
-4.417000000000001
 20
3.2700000000000005
 10
-4.377000000000001
 20
3.2700000000000005
 10
-4.377000000000001
 20
3.2100000000000004
 10
-4.417000000000001
 20
3.2100000000000004
 10
-4.417000000000001
 20
3.06
 10
-4.537000000000001
 20
3.06
 10
-4.537000000000001
 20
6.45
 10
-4.417000000000001
 20
6.45
 10
-4.417000000000001
 20
6.300000000000001
 10
-4.377000000000001
 20
6.300000000000001
  0
LWPOLYLINE
  5
271
330
17
100
AcDbEntity
  8
A-ELEWACJE
  6
KRESKOWA
370
25
 48
0.05
100
AcDbPolyline
 90
2
 70
128
 10
-1.3849999999999998
 20
1.2449999999999999
 10
-1.9249999999999998
 20
0.975
  0
LWPOLYLINE
  5
272
330
17
100
AcDbEntity
  8
A-ELEWACJE
  6
KRESKOWA
370
25
 48
0.05
100
AcDbPolyline
 90
2
 70
128
 10
-1.0249999999999997
 20
1.425
 10
-1.3849999999999998
 20
1.2449999999999999
  0
LWPOLYLINE
  5
273
330
17
100
AcDbEntity
  8
A-ELEWACJE
  6
KRESKOWA
370
25
 48
0.05
100
AcDbPolyline
 90
3
 70
128
 10
-1.3849999999999998
 20
1.2449999999999999
 10
-1.9249999999999998
 20
2.3249999999999997
 10
-0.8449999999999998
 20
1.785
  0
LWPOLYLINE
  5
274
330
17
100
AcDbEntity
  8
A-ELEWACJE
  6
KRESKOWA
370
25
 48
0.05
100
AcDbPolyline
 90
3
 70
128
 10
-1.3849999999999998
 20
1.2449999999999999
 10
-1.2499999999999998
 20
0.975
 10
-1.0249999999999997
 20
1.425
  0
LWPOLYLINE
  5
275
330
17
100
AcDbEntity
  8
A-ELEWACJE
  6
KRESKOWA
370
25
 48
0.05
100
AcDbPolyline
 90
2
 70
128
 10
-0.575
 20
1.6499999999999997
 10
-1.0249999999999997
 20
1.425
  0
LWPOLYLINE
  5
276
330
17
100
AcDbEntity
  8
A-ELEWACJE
  6
KRESKOWA
370
25
 48
0.05
100
AcDbPolyline
 90
2
 70
128
 10
-1.0249999999999997
 20
1.425
 10
-0.8449999999999998
 20
1.785
  0
LWPOLYLINE
  5
277
330
17
100
AcDbEntity
  8
A-ELEWACJE
  6
KRESKOWA
370
25
 48
0.05
100
AcDbPolyline
 90
2
 70
128
 10
-0.8449999999999998
 20
1.785
 10
-0.575
 20
2.3249999999999993
  0
LWPOLYLINE
  5
278
330
17
100
AcDbEntity
  8
A-ELEWACJE
  6
KRESKOWA
370
25
 48
0.05
100
AcDbPolyline
 90
2
 70
128
 10
-0.8449999999999998
 20
1.785
 10
-0.575
 20
1.65
  0
LWPOLYLINE
  5
279
330
17
100
AcDbEntity
  8
A-TEREN
370
140
 48
0.05
100
AcDbPolyline
 90
60
 70
0
 10
-8.8
 20
-0.33833842105263845
 10
-8.55
 20
-0.3359700000000069
 10
-8.3
 20
-0.33360157894737524
 10
-8.05
 20
-0.33123315789474367
 10
-7.800000000000001
 20
-0.32886473684211215
 10
-7.550000000000001
 20
-0.3264963157894806
 10
-7.300000000000001
 20
-0.32412789473684894
 10
-7.050000000000001
 20
-0.32175947368421737
 10
-6.800000000000001
 20
-0.3193910526315858
 10
-6.550000000000001
 20
-0.3170226315789543
 10
-6.300000000000001
 20
-0.31465421052632264
 10
-6.050000000000001
 20
-0.3122857894736911
 10
-5.800000000000001
 20
-0.30991736842105955
 10
-5.550000000000001
 20
-0.3075489473684279
 10
-5.300000000000001
 20
-0.30518052631579634
 10
-5.050000000000001
 20
-0.30281210526316477
 10
-4.800000000000001
 20
-0.30044368421053325
 10
-4.550000000000001
 20
-0.29807526315790167
 10
-4.300000000000001
 20
-0.2957068421052701
 10
-4.050000000000001
 20
-0.2933384210526385
 10
-3.8000000000000007
 20
-0.29097000000000695
 10
-3.5500000000000007
 20
-0.28860157894737537
 10
-3.3000000000000007
 20
-0.28623315789474374
 10
-3.0500000000000007
 20
-0.2838647368421122
 10
-2.8000000000000007
 20
-0.28149631578948064
 10
-2.5500000000000007
 20
-0.27912789473684907
 10
-2.3000000000000007
 20
-0.27675947368421744
 10
-2.0500000000000007
 20
-0.2743910526315859
 10
-1.8000000000000007
 20
-0.2720226315789543
 10
-1.5500000000000007
 20
-0.26965421052632277
 10
-1.3000000000000007
 20
-0.2672857894736912
 10
-1.0500000000000007
 20
-0.26491736842105956
 10
-0.8000000000000007
 20
-0.262548947368428
 10
-0.5500000000000007
 20
-0.26018052631579647
 10
-0.3000000000000007
 20
-0.25781210526316484
 10
-0.05000000000000071
 20
-0.2554436842105333
 10
0.1999999999999993
 20
-0.2530752631579017
 10
0.4499999999999993
 20
-0.25070684210527017
 10
0.6999999999999993
 20
-0.24833842105263856
 10
0.9499999999999993
 20
-0.245970000000007
 10
1.1999999999999993
 20
-0.2436015789473754
 10
1.4499999999999993
 20
-0.24123315789474384
 10
1.6999999999999993
 20
-0.23886473684211226
 10
1.9499999999999993
 20
-0.2364963157894807
 10
2.1999999999999993
 20
-0.23447555555556254
 10
2.4499999999999993
 20
-0.23253111111111807
 10
2.6999999999999993
 20
-0.23058666666667363
 10
2.9499999999999993
 20
-0.22864222222222916
 10
3.1999999999999993
 20
-0.22669777777778471
 10
3.4499999999999993
 20
-0.22475333333334024
 10
3.6999999999999993
 20
-0.22280888888889583
 10
3.9499999999999993
 20
-0.22086444444445136
 10
4.199999999999999
 20
-0.2189200000000069
 10
4.449999999999999
 20
-0.21697555555556247
 10
4.699999999999999
 20
-0.215031111111118
 10
4.949999999999999
 20
-0.21308666666667353
 10
5.199999999999999
 20
-0.21114222222222911
 10
5.449999999999999
 20
-0.20919777777778464
 10
5.699999999999999
 20
-0.20725333333334017
 10
5.949999999999999
 20
-0.20530888888889576
  0
HATCH
  5
27A
330
17
100
AcDbEntity
  8
A-RZEDNE
 62
7
420
0
100
AcDbHatch
 10
0.0
 20
0.0
 30
0.0
210
0.0
220
0.0
230
1.0
  2
SOLID
 70
1
 71
0
 91
1
 92
3
 72
0
 73
1
 93
3
 10
4.737000000000001
 20
-0.214
 10
4.847000000000001
 20
-0.10399999999999998
 10
4.627000000000001
 20
-0.10399999999999998
 97
0
 75
0
 76
1
 98
0
  0
HATCH
  5
27B
330
17
100
AcDbEntity
  8
A-RZEDNE
 62
7
420
0
100
AcDbHatch
 10
0.0
 20
0.0
 30
0.0
210
0.0
220
0.0
230
1.0
  2
SOLID
 70
1
 71
0
 91
1
 92
3
 72
0
 73
1
 93
3
 10
5.522754031342267
 20
0.0
 10
5.632754031342268
 20
0.11000000000000001
 10
5.522754031342267
 20
0.11000000000000001
 97
0
 75
0
 76
1
 98
0
  0
HATCH
  5
27C
330
17
100
AcDbEntity
  8
A-RZEDNE
 62
7
420
0
100
AcDbHatch
 10
0.0
 20
0.0
 30
0.0
210
0.0
220
0.0
230
1.0
  2
SOLID
 70
1
 71
0
 91
1
 92
3
 72
0
 73
1
 93
3
 10
4.737000000000001
 20
3.06
 10
4.847000000000001
 20
3.17
 10
4.627000000000001
 20
3.17
 97
0
 75
0
 76
1
 98
0
  0
HATCH
  5
27D
330
17
100
AcDbEntity
  8
A-RZEDNE
 62
7
420
0
100
AcDbHatch
 10
0.0
 20
0.0
 30
0.0
210
0.0
220
0.0
230
1.0
  2
SOLID
 70
1
 71
0
 91
1
 92
3
 72
0
 73
1
 93
3
 10
4.737000000000001
 20
6.193499999999999
 10
4.847000000000001
 20
6.3035
 10
4.627000000000001
 20
6.3035
 97
0
 75
0
 76
1
 98
0
  0
HATCH
  5
27E
330
17
100
AcDbEntity
  8
A-RZEDNE
 62
7
420
0
100
AcDbHatch
 10
0.0
 20
0.0
 30
0.0
210
0.0
220
0.0
230
1.0
  2
SOLID
 70
1
 71
0
 91
1
 92
3
 72
0
 73
1
 93
3
 10
5.522754031342267
 20
6.493499999999999
 10
5.632754031342268
 20
6.6034999999999995
 10
5.412754031342267
 20
6.6034999999999995
 97
0
 75
0
 76
1
 98
0
  0
HATCH
  5
27F
330
17
100
AcDbEntity
  8
A-RZEDNE
 62
7
420
0
100
AcDbHatch
 10
0.0
 20
0.0
 30
0.0
210
0.0
220
0.0
230
1.0
  2
SOLID
 70
1
 71
0
 91
1
 92
3
 72
0
 73
1
 93
3
 10
-7.450000000000001
 20
-0.329
 10
-7.340000000000001
 20
-0.219
 10
-7.560000000000001
 20
-0.219
 97
0
 75
0
 76
1
 98
0
  0
LWPOLYLINE
  5
280
330
17
100
AcDbEntity
  8
A-RZEDNE
370
35
 48
0.05
100
AcDbPolyline
 90
2
 70
0
 10
4.637000000000001
 20
-0.214
 10
4.857000000000001
 20
-0.214
  0
LWPOLYLINE
  5
281
330
17
100
AcDbEntity
  8
A-RZEDNE
370
35
 48
0.05
100
AcDbPolyline
 90
3
 70
1
 10
4.737000000000001
 20
-0.214
 10
4.847000000000001
 20
-0.10399999999999998
 10
4.627000000000001
 20
-0.10399999999999998
  0
LWPOLYLINE
  5
282
330
17
100
AcDbEntity
  8
A-RZEDNE
370
35
 48
0.05
100
AcDbPolyline
 90
2
 70
0
 10
4.737000000000001
 20
-0.10399999999999998
 10
4.737000000000001
 20
-0.043999999999999984
  0
LWPOLYLINE
  5
283
330
17
100
AcDbEntity
  8
A-RZEDNE
370
35
 48
0.05
100
AcDbPolyline
 90
2
 70
0
 10
4.737000000000001
 20
-0.043999999999999984
 10
5.372754031342268
 20
-0.043999999999999984
  0
LWPOLYLINE
  5
284
330
17
100
AcDbEntity
  8
A-RZEDNE
370
35
 48
0.05
100
AcDbPolyline
 90
3
 70
1
 10
5.522754031342267
 20
0.0
 10
5.632754031342268
 20
0.11000000000000001
 10
5.412754031342267
 20
0.11000000000000001
  0
LWPOLYLINE
  5
285
330
17
100
AcDbEntity
  8
A-RZEDNE
370
35
 48
0.05
100
AcDbPolyline
 90
2
 70
0
 10
5.522754031342267
 20
0.11000000000000001
 10
5.522754031342267
 20
0.335
  0
LWPOLYLINE
  5
286
330
17
100
AcDbEntity
  8
A-RZEDNE
370
35
 48
0.05
100
AcDbPolyline
 90
2
 70
0
 10
5.522754031342267
 20
0.335
 10
6.254465364524188
 20
0.335
  0
LWPOLYLINE
  5
287
330
17
100
AcDbEntity
  8
A-RZEDNE
370
35
 48
0.05
100
AcDbPolyline
 90
2
 70
0
 10
4.637000000000001
 20
3.06
 10
4.857000000000001
 20
3.06
  0
LWPOLYLINE
  5
288
330
17
100
AcDbEntity
  8
A-RZEDNE
370
35
 48
0.05
100
AcDbPolyline
 90
3
 70
1
 10
4.737000000000001
 20
3.06
 10
4.847000000000001
 20
3.17
 10
4.627000000000001
 20
3.17
  0
LWPOLYLINE
  5
289
330
17
100
AcDbEntity
  8
A-RZEDNE
370
35
 48
0.05
100
AcDbPolyline
 90
2
 70
0
 10
4.737000000000001
 20
3.17
 10
4.737000000000001
 20
3.23
  0
LWPOLYLINE
  5
28A
330
17
100
AcDbEntity
  8
A-RZEDNE
370
35
 48
0.05
100
AcDbPolyline
 90
2
 70
0
 10
4.737000000000001
 20
3.23
 10
5.372754031342268
 20
3.23
  0
LWPOLYLINE
  5
28B
330
17
100
AcDbEntity
  8
A-RZEDNE
370
35
 48
0.05
100
AcDbPolyline
 90
2
 70
0
 10
4.637000000000001
 20
6.193499999999999
 10
4.857000000000001
 20
6.193499999999999
  0
LWPOLYLINE
  5
28C
330
17
100
AcDbEntity
  8
A-RZEDNE
370
35
 48
0.05
100
AcDbPolyline
 90
3
 70
1
 10
4.737000000000001
 20
6.193499999999999
 10
4.847000000000001
 20
6.3035
 10
4.627000000000001
 20
6.3035
  0
LWPOLYLINE
  5
28D
330
17
100
AcDbEntity
  8
A-RZEDNE
370
35
 48
0.05
100
AcDbPolyline
 90
2
 70
0
 10
4.737000000000001
 20
6.3035
 10
4.737000000000001
 20
6.363499999999999
  0
LWPOLYLINE
  5
28E
330
17
100
AcDbEntity
  8
A-RZEDNE
370
35
 48
0.05
100
AcDbPolyline
 90
2
 70
0
 10
4.737000000000001
 20
6.363499999999999
 10
5.372754031342268
 20
6.363499999999999
  0
LWPOLYLINE
  5
28F
330
17
100
AcDbEntity
  8
A-RZEDNE
370
35
 48
0.05
100
AcDbPolyline
 90
3
 70
1
 10
5.522754031342267
 20
6.493499999999999
 10
5.632754031342268
 20
6.6034999999999995
 10
5.412754031342267
 20
6.6034999999999995
  0
LWPOLYLINE
  5
290
330
17
100
AcDbEntity
  8
A-RZEDNE
370
35
 48
0.05
100
AcDbPolyline
 90
2
 70
0
 10
5.522754031342267
 20
6.6034999999999995
 10
5.522754031342267
 20
6.663499999999999
  0
LWPOLYLINE
  5
291
330
17
100
AcDbEntity
  8
A-RZEDNE
370
35
 48
0.05
100
AcDbPolyline
 90
2
 70
0
 10
5.522754031342267
 20
6.663499999999999
 10
6.158508062684534
 20
6.663499999999999
  0
LWPOLYLINE
  5
292
330
17
100
AcDbEntity
  8
A-RZEDNE
370
35
 48
0.05
100
AcDbPolyline
 90
2
 70
0
 10
-7.350000000000001
 20
-0.329
 10
-7.570000000000001
 20
-0.329
  0
LWPOLYLINE
  5
293
330
17
100
AcDbEntity
  8
A-RZEDNE
370
35
 48
0.05
100
AcDbPolyline
 90
3
 70
1
 10
-7.450000000000001
 20
-0.329
 10
-7.340000000000001
 20
-0.219
 10
-7.560000000000001
 20
-0.219
  0
LWPOLYLINE
  5
294
330
17
100
AcDbEntity
  8
A-RZEDNE
370
35
 48
0.05
100
AcDbPolyline
 90
2
 70
0
 10
-7.450000000000001
 20
-0.219
 10
-7.450000000000001
 20
-0.159
  0
LWPOLYLINE
  5
295
330
17
100
AcDbEntity
  8
A-RZEDNE
370
35
 48
0.05
100
AcDbPolyline
 90
2
 70
0
 10
-7.450000000000001
 20
-0.159
 10
-8.085754031342267
 20
-0.159
  0
LWPOLYLINE
  5
296
330
17
100
AcDbEntity
  8
A-WYMIARY
370
35
 48
0.05
100
AcDbPolyline
 90
2
 70
0
 10
-8.5
 20
-0.373
 10
-8.5
 20
6.292999999999999
  0
LWPOLYLINE
  5
297
330
17
100
AcDbEntity
  8
A-WYMIARY
370
35
 48
0.05
100
AcDbPolyline
 90
2
 70
0
 10
-8.4
 20
-0.273
 10
-8.6
 20
-0.273
  0
LWPOLYLINE
  5
298
330
17
100
AcDbEntity
  8
A-WYMIARY
370
35
 48
0.05
100
AcDbPolyline
 90
2
 70
0
 10
-8.446966991411008
 20
-0.3260330085889911
 10
-8.553033008588992
 20
-0.21996699141100895
  0
LWPOLYLINE
  5
299
330
17
100
AcDbEntity
  8
A-WYMIARY
370
35
 48
0.05
100
AcDbPolyline
 90
2
 70
0
 10
-8.4
 20
6.193
 10
-8.6
 20
6.193
  0
LWPOLYLINE
  5
29A
330
17
100
AcDbEntity
  8
A-WYMIARY
370
35
 48
0.05
100
AcDbPolyline
 90
2
 70
0
 10
-8.446966991411008
 20
6.139966991411009
 10
-8.553033008588992
 20
6.246033008588991
  0
LWPOLYLINE
  5
29B
330
17
100
AcDbEntity
  8
A-WYMIARY
370
35
 48
0.05
100
AcDbPolyline
 90
2
 70
0
 10
-8.0
 20
-0.42900000000000005
 10
-8.0
 20
6.614
  0
LWPOLYLINE
  5
29C
330
17
100
AcDbEntity
  8
A-WYMIARY
370
35
 48
0.05
100
AcDbPolyline
 90
2
 70
0
 10
-7.9
 20
-0.329
 10
-8.1
 20
-0.329
  0
LWPOLYLINE
  5
29D
330
17
100
AcDbEntity
  8
A-WYMIARY
370
35
 48
0.05
100
AcDbPolyline
 90
2
 70
0
 10
-7.946966991411009
 20
-0.3820330085889911
 10
-8.053033008588992
 20
-0.27596699141100894
  0
LWPOLYLINE
  5
29E
330
17
100
AcDbEntity
  8
A-WYMIARY
370
35
 48
0.05
100
AcDbPolyline
 90
2
 70
0
 10
-7.9
 20
0.0
 10
-8.1
 20
0.0
  0
LWPOLYLINE
  5
29F
330
17
100
AcDbEntity
  8
A-WYMIARY
370
35
 48
0.05
100
AcDbPolyline
 90
2
 70
0
 10
-7.946966991411009
 20
-0.05303300858899108
 10
-8.053033008588992
 20
0.05303300858899108
  0
LWPOLYLINE
  5
2A0
330
17
100
AcDbEntity
  8
A-WYMIARY
370
35
 48
0.05
100
AcDbPolyline
 90
2
 70
0
 10
-7.9
 20
3.06
 10
-8.1
 20
3.06
  0
LWPOLYLINE
  5
2A1
330
17
100
AcDbEntity
  8
A-WYMIARY
370
35
 48
0.05
100
AcDbPolyline
 90
2
 70
0
 10
-7.946966991411009
 20
3.006966991411009
 10
-8.053033008588992
 20
3.113033008588991
  0
LWPOLYLINE
  5
2A2
330
17
100
AcDbEntity
  8
A-WYMIARY
370
35
 48
0.05
100
AcDbPolyline
 90
2
 70
0
 10
-7.9
 20
6.193
 10
-8.1
 20
6.193
  0
LWPOLYLINE
  5
2A3
330
17
100
AcDbEntity
  8
A-WYMIARY
370
35
 48
0.05
100
AcDbPolyline
 90
2
 70
0
 10
-7.946966991411009
 20
6.139966991411009
 10
-8.053033008588992
 20
6.246033008588991
  0
LWPOLYLINE
  5
2A4
330
17
100
AcDbEntity
  8
A-WYMIARY
370
35
 48
0.05
100
AcDbPolyline
 90
2
 70
0
 10
-7.9
 20
6.514
 10
-8.1
 20
6.514
  0
LWPOLYLINE
  5
2A5
330
17
100
AcDbEntity
  8
A-WYMIARY
370
35
 48
0.05
100
AcDbPolyline
 90
2
 70
0
 10
-7.946966991411009
 20
6.460966991411009
 10
-8.053033008588992
 20
6.567033008588991
  0
LWPOLYLINE
  5
2A6
330
17
100
AcDbEntity
  8
A-WYMIARY
370
35
 48
0.05
100
AcDbPolyline
 90
2
 70
0
 10
-7.3999999999999995
 20
-0.6883384210526384
 10
4.436999999999999
 20
-0.6883384210526384
  0
LWPOLYLINE
  5
2A7
330
17
100
AcDbEntity
  8
A-WYMIARY
370
35
 48
0.05
100
AcDbPolyline
 90
2
 70
0
 10
-7.3
 20
-0.5883384210526384
 10
-7.3
 20
-0.7883384210526384
  0
LWPOLYLINE
  5
2A8
330
17
100
AcDbEntity
  8
A-WYMIARY
370
35
 48
0.05
100
AcDbPolyline
 90
2
 70
0
 10
-7.353033008588991
 20
-0.7413714296416295
 10
-7.246966991411009
 20
-0.6353054124636474
  0
LWPOLYLINE
  5
2A9
330
17
100
AcDbEntity
  8
A-WYMIARY
370
35
 48
0.05
100
AcDbPolyline
 90
2
 70
0
 10
4.337
 20
-0.5883384210526384
 10
4.337
 20
-0.7883384210526384
  0
LWPOLYLINE
  5
2AA
330
17
100
AcDbEntity
  8
A-WYMIARY
370
35
 48
0.05
100
AcDbPolyline
 90
2
 70
0
 10
4.283966991411009
 20
-0.7413714296416295
 10
4.390033008588991
 20
-0.6353054124636474
  0
HATCH
  5
2AB
330
17
100
AcDbEntity
  8
A-OPISY
 62
7
420
0
100
AcDbHatch
 10
0.0
 20
0.0
 30
0.0
210
0.0
220
0.0
230
1.0
  2
SOLID
 70
1
 71
0
 91
1
 92
3
 72
0
 73
1
 93
24
 10
-1.5775000000000001
 20
4.6795
 10
-1.578266668908496
 20
4.685323428514807
 10
-1.5805144284148502
 20
4.69075
 10
-1.5840900974233028
 20
4.6954099025766975
 10
-1.58875
 20
4.69898557158515
 10
-1.5941765714851934
 20
4.701233331091504
 10
-1.6
 20
4.702
 10
-1.6058234285148067
 20
4.701233331091504
 10
-1.61125
 20
4.69898557158515
 10
-1.6159099025766974
 20
4.6954099025766975
 10
-1.61948557158515
 20
4.69075
 10
-1.621733331091504
 20
4.685323428514807
 10
-1.6225
 20
4.6795
 10
-1.621733331091504
 20
4.673676571485193
 10
-1.61948557158515
 20
4.66825
 10
-1.6159099025766974
 20
4.663590097423302
 10
-1.61125
 20
4.66001442841485
 10
-1.6058234285148067
 20
4.657766668908496
 10
-1.6
 20
4.657
 10
-1.5941765714851934
 20
4.657766668908496
 10
-1.58875
 20
4.66001442841485
 10
-1.5840900974233028
 20
4.663590097423302
 10
-1.5805144284148502
 20
4.66825
 10
-1.578266668908496
 20
4.673676571485193
 97
0
 75
0
 76
1
 98
0
  0
HATCH
  5
2AC
330
17
100
AcDbEntity
  8
A-OPISY
 62
7
420
0
100
AcDbHatch
 10
0.0
 20
0.0
 30
0.0
210
0.0
220
0.0
230
1.0
  2
SOLID
 70
1
 71
0
 91
1
 92
3
 72
0
 73
1
 93
24
 10
-1.4775
 20
2.81
 10
-1.478266668908496
 20
2.8158234285148067
 10
-1.4805144284148501
 20
2.82125
 10
-1.4840900974233027
 20
2.825909902576697
 10
-1.48875
 20
2.82948557158515
 10
-1.4941765714851933
 20
2.8317333310915043
 10
-1.5
 20
2.8325
 10
-1.5058234285148067
 20
2.8317333310915043
 10
-1.51125
 20
2.82948557158515
 10
-1.5159099025766973
 20
2.825909902576697
 10
-1.5194855715851499
 20
2.82125
 10
-1.521733331091504
 20
2.8158234285148067
 10
-1.5225
 20
2.81
 10
-1.521733331091504
 20
2.8041765714851934
 10
-1.5194855715851499
 20
2.79875
 10
-1.5159099025766973
 20
2.794090097423303
 10
-1.51125
 20
2.79051442841485
 10
-1.5058234285148067
 20
2.788266668908496
 10
-1.5
 20
2.7875
 10
-1.4941765714851933
 20
2.788266668908496
 10
-1.48875
 20
2.79051442841485
 10
-1.4840900974233027
 20
2.794090097423303
 10
-1.4805144284148501
 20
2.79875
 10
-1.478266668908496
 20
2.8041765714851934
 97
0
 75
0
 76
1
 98
0
  0
HATCH
  5
2AD
330
17
100
AcDbEntity
  8
A-OPISY
 62
7
420
0
100
AcDbHatch
 10
0.0
 20
0.0
 30
0.0
210
0.0
220
0.0
230
1.0
  2
SOLID
 70
1
 71
0
 91
1
 92
3
 72
0
 73
1
 93
24
 10
-3.8275
 20
1.20206
 10
-3.828266668908496
 20
1.2078834285148066
 10
-3.8305144284148502
 20
1.2133099999999999
 10
-3.834090097423303
 20
1.2179699025766972
 10
-3.83875
 20
1.2215455715851498
 10
-3.8441765714851934
 20
1.223793331091504
 10
-3.85
 20
1.2245599999999999
 10
-3.8558234285148067
 20
1.223793331091504
 10
-3.86125
 20
1.2215455715851498
 10
-3.865909902576697
 20
1.2179699025766972
 10
-3.86948557158515
 20
1.2133099999999999
 10
-3.8717333310915043
 20
1.2078834285148066
 10
-3.8725
 20
1.20206
 10
-3.8717333310915043
 20
1.1962365714851932
 10
-3.86948557158515
 20
1.19081
 10
-3.865909902576697
 20
1.1861500974233026
 10
-3.86125
 20
1.18257442841485
 10
-3.8558234285148067
 20
1.180326668908496
 10
-3.85
 20
1.17956
 10
-3.8441765714851934
 20
1.180326668908496
 10
-3.83875
 20
1.18257442841485
 10
-3.834090097423303
 20
1.1861500974233026
 10
-3.8305144284148502
 20
1.19081
 10
-3.828266668908496
 20
1.1962365714851932
 97
0
 75
0
 76
1
 98
0
  0
HATCH
  5
2AE
330
17
100
AcDbEntity
  8
A-OPISY
 62
7
420
0
100
AcDbHatch
 10
0.0
 20
0.0
 30
0.0
210
0.0
220
0.0
230
1.0
  2
SOLID
 70
1
 71
0
 91
1
 92
3
 72
0
 73
1
 93
24
 10
-4.4545
 20
4.755
 10
-4.4552666689084965
 20
4.760823428514807
 10
-4.45751442841485
 20
4.76625
 10
-4.461090097423303
 20
4.7709099025766974
 10
-4.46575
 20
4.77448557158515
 10
-4.471176571485193
 20
4.776733331091504
 10
-4.477
 20
4.7775
 10
-4.482823428514807
 20
4.776733331091504
 10
-4.488250000000001
 20
4.77448557158515
 10
-4.492909902576698
 20
4.7709099025766974
 10
-4.496485571585151
 20
4.76625
 10
-4.498733331091504
 20
4.760823428514807
 10
-4.4995
 20
4.755
 10
-4.498733331091504
 20
4.749176571485193
 10
-4.496485571585151
 20
4.7437499999999995
 10
-4.492909902576698
 20
4.739090097423302
 10
-4.488250000000001
 20
4.73551442841485
 10
-4.482823428514807
 20
4.733266668908496
 10
-4.477
 20
4.7325
 10
-4.471176571485193
 20
4.733266668908496
 10
-4.46575
 20
4.73551442841485
 10
-4.461090097423303
 20
4.739090097423302
 10
-4.45751442841485
 20
4.7437499999999995
 10
-4.4552666689084965
 20
4.749176571485193
 97
0
 75
0
 76
1
 98
0
  0
HATCH
  5
2AF
330
17
100
AcDbEntity
  8
A-OPISY
 62
7
420
0
100
AcDbHatch
 10
0.0
 20
0.0
 30
0.0
210
0.0
220
0.0
230
1.0
  2
SOLID
 70
1
 71
0
 91
1
 92
3
 72
0
 73
1
 93
24
 10
0.022500000000000003
 20
6.5035
 10
0.02173333109150404
 20
6.509323428514807
 10
0.019485571585149873
 20
6.51475
 10
0.015909902576697322
 20
6.519409902576697
 10
0.011250000000000003
 20
6.52298557158515
 10
0.005823428514806723
 20
6.525233331091504
 10
1.3777276490407726e-18
 20
6.526
 10
-0.005823428514806715
 20
6.525233331091504
 10
-0.011249999999999996
 20
6.52298557158515
 10
-0.01590990257669732
 20
6.519409902576697
 10
-0.01948557158514987
 20
6.51475
 10
-0.02173333109150404
 20
6.509323428514807
 10
-0.022500000000000003
 20
6.5035
 10
-0.021733331091504042
 20
6.497676571485193
 10
-0.019485571585149877
 20
6.492249999999999
 10
-0.01590990257669733
 20
6.487590097423302
 10
-0.011250000000000012
 20
6.4840144284148495
 10
-0.005823428514806735
 20
6.481766668908496
 10
-4.133182947122317e-18
 20
6.481
 10
0.005823428514806707
 20
6.481766668908496
 10
0.011249999999999986
 20
6.4840144284148495
 10
0.01590990257669732
 20
6.487590097423302
 10
0.019485571585149866
 20
6.492249999999999
 10
0.021733331091504035
 20
6.497676571485193
 97
0
 75
0
 76
1
 98
0
  0
LWPOLYLINE
  5
2B0
330
17
100
AcDbEntity
  8
A-OPISY
370
35
 48
0.05
100
AcDbPolyline
 90
2
 70
0
 10
-1.6
 20
4.6795
 10
-0.9987756911802778
 20
3.992386504206032
  0
LWPOLYLINE
  5
2B1
330
17
100
AcDbEntity
  8
A-OPISY
370
35
 48
0.05
100
AcDbPolyline
 90
2
 70
0
 10
-1.5
 20
2.81
 10
-0.9220600206810102
 20
3.2228142709421355
  0
LWPOLYLINE
  5
2B2
330
17
100
AcDbEntity
  8
A-OPISY
370
35
 48
0.05
100
AcDbPolyline
 90
2
 70
0
 10
-3.85
 20
1.20206
 10
-3.27206002068101
 20
1.6148742709421355
  0
LWPOLYLINE
  5
2B3
330
17
100
AcDbEntity
  8
A-OPISY
370
35
 48
0.05
100
AcDbPolyline
 90
2
 70
0
 10
-4.477
 20
4.755
 10
-3.89906002068101
 20
5.167814270942135
  0
LWPOLYLINE
  5
2B4
330
17
100
AcDbEntity
  8
A-OPISY
370
35
 48
0.05
100
AcDbPolyline
 90
2
 70
0
 10
0.0
 20
6.5035
 10
0.5779399793189898
 20
6.916314270942135
  0
HATCH
  5
2B5
330
17
100
AcDbEntity
  8
A-OPISY
 62
7
420
16777215
100
AcDbHatch
 10
0.0
 20
0.0
 30
0.0
210
0.0
220
0.0
230
1.0
  2
SOLID
 70
1
 71
0
 91
1
 92
3
 72
0
 73
1
 93
6
 10
2.4150468741128215
 20
4.732831718750001
 10
2.4735468741128215
 20
4.830331718750001
 10
2.6375859383871796
 20
4.830331718750001
 10
2.6960859383871796
 20
4.732831718750001
 10
2.6375859383871796
 20
4.635331718750001
 10
2.4735468741128215
 20
4.635331718750001
 97
0
 75
0
 76
1
 98
0
  0
HATCH
  5
2B6
330
17
100
AcDbEntity
  8
A-OPISY
 62
7
420
16777215
100
AcDbHatch
 10
0.0
 20
0.0
 30
0.0
210
0.0
220
0.0
230
1.0
  2
SOLID
 70
1
 71
0
 91
1
 92
3
 72
0
 73
1
 93
6
 10
-1.3905195321371793
 20
1.6500000000000001
 10
-1.3320195321371793
 20
1.7475
 10
-1.1679804678628207
 20
1.7475
 10
-1.1094804678628207
 20
1.6500000000000001
 10
-1.1679804678628207
 20
1.5525000000000002
 10
-1.3320195321371793
 20
1.5525000000000002
 97
0
 75
0
 76
1
 98
0
  0
HATCH
  5
2B7
330
17
100
AcDbEntity
  8
A-OPISY
 62
7
420
16777215
100
AcDbHatch
 10
0.0
 20
0.0
 30
0.0
210
0.0
220
0.0
230
1.0
  2
SOLID
 70
1
 71
0
 91
1
 92
3
 72
0
 73
1
 93
6
 10
-1.6405195321371793
 20
3.519
 10
-1.5820195321371793
 20
3.6165000000000003
 10
-1.4179804678628207
 20
3.6165000000000003
 10
-1.3594804678628207
 20
3.519
 10
-1.4179804678628207
 20
3.4215
 10
-1.5820195321371793
 20
3.4215
 97
0
 75
0
 76
1
 98
0
  0
HATCH
  5
2B8
330
17
100
AcDbEntity
  8
A-OPISY
 62
7
420
16777215
100
AcDbHatch
 10
0.0
 20
0.0
 30
0.0
210
0.0
220
0.0
230
1.0
  2
SOLID
 70
1
 71
0
 91
1
 92
3
 72
0
 73
1
 93
6
 10
-1.0405195321371792
 20
3.8795
 10
-0.9820195321371792
 20
3.9770000000000003
 10
-0.8179804678628209
 20
3.9770000000000003
 10
-0.7594804678628209
 20
3.8795
 10
-0.8179804678628209
 20
3.782
 10
-0.9820195321371792
 20
3.782
 97
0
 75
0
 76
1
 98
0
  0
HATCH
  5
2B9
330
17
100
AcDbEntity
  8
A-OPISY
 62
7
420
16777215
100
AcDbHatch
 10
0.0
 20
0.0
 30
0.0
210
0.0
220
0.0
230
1.0
  2
SOLID
 70
1
 71
0
 91
1
 92
3
 72
0
 73
1
 93
6
 10
-0.9405195321371791
 20
3.31
 10
-0.8820195321371791
 20
3.4075
 10
-0.7179804678628208
 20
3.4075
 10
-0.6594804678628208
 20
3.31
 10
-0.7179804678628208
 20
3.2125
 10
-0.8820195321371791
 20
3.2125
 97
0
 75
0
 76
1
 98
0
  0
HATCH
  5
2BA
330
17
100
AcDbEntity
  8
A-OPISY
 62
7
420
16777215
100
AcDbHatch
 10
0.0
 20
0.0
 30
0.0
210
0.0
220
0.0
230
1.0
  2
SOLID
 70
1
 71
0
 91
1
 92
3
 72
0
 73
1
 93
6
 10
-7.21764062588718
 20
-0.17533453125000004
 10
-7.15914062588718
 20
-0.07783453125000003
 10
-6.995101561612821
 20
-0.07783453125000003
 10
-6.936601561612822
 20
-0.17533453125000004
 10
-6.995101561612821
 20
-0.27283453125
 10
-7.15914062588718
 20
-0.27283453125
 97
0
 75
0
 76
1
 98
0
  0
HATCH
  5
2BB
330
17
100
AcDbEntity
  8
A-OPISY
 62
7
420
16777215
100
AcDbHatch
 10
0.0
 20
0.0
 30
0.0
210
0.0
220
0.0
230
1.0
  2
SOLID
 70
1
 71
0
 91
1
 92
3
 72
0
 73
1
 93
6
 10
-3.290519532137179
 20
1.70206
 10
-3.232019532137179
 20
1.7995599999999998
 10
-3.067980467862821
 20
1.7995599999999998
 10
-3.009480467862821
 20
1.70206
 10
-3.067980467862821
 20
1.60456
 10
-3.232019532137179
 20
1.60456
 97
0
 75
0
 76
1
 98
0
  0
HATCH
  5
2BC
330
17
100
AcDbEntity
  8
A-OPISY
 62
7
420
16777215
100
AcDbHatch
 10
0.0
 20
0.0
 30
0.0
210
0.0
220
0.0
230
1.0
  2
SOLID
 70
1
 71
0
 91
1
 92
3
 72
0
 73
1
 93
6
 10
-3.917519532137179
 20
5.255
 10
-3.859019532137179
 20
5.3525
 10
-3.694980467862821
 20
5.3525
 10
-3.636480467862821
 20
5.255
 10
-3.694980467862821
 20
5.1575
 10
-3.859019532137179
 20
5.1575
 97
0
 75
0
 76
1
 98
0
  0
HATCH
  5
2BD
330
17
100
AcDbEntity
  8
A-OPISY
 62
7
420
16777215
100
AcDbHatch
 10
0.0
 20
0.0
 30
0.0
210
0.0
220
0.0
230
1.0
  2
SOLID
 70
1
 71
0
 91
1
 92
3
 72
0
 73
1
 93
6
 10
0.5594804678628209
 20
7.0035
 10
0.6179804678628209
 20
7.101
 10
0.7820195321371792
 20
7.101
 10
0.8405195321371792
 20
7.0035
 10
0.7820195321371792
 20
6.906
 10
0.6179804678628209
 20
6.906
 97
0
 75
0
 76
1
 98
0
  0
LWPOLYLINE
  5
2BE
330
17
100
AcDbEntity
  8
A-OPISY
370
35
 48
0.05
100
AcDbPolyline
 90
6
 70
1
 10
2.4150468741128215
 20
4.732831718750001
 10
2.4735468741128215
 20
4.830331718750001
 10
2.6375859383871796
 20
4.830331718750001
 10
2.6960859383871796
 20
4.732831718750001
 10
2.6375859383871796
 20
4.635331718750001
 10
2.4735468741128215
 20
4.635331718750001
  0
LWPOLYLINE
  5
2BF
330
17
100
AcDbEntity
  8
A-OPISY
370
35
 48
0.05
100
AcDbPolyline
 90
6
 70
1
 10
-1.3905195321371793
 20
1.6500000000000001
 10
-1.3320195321371793
 20
1.7475
 10
-1.1679804678628207
 20
1.7475
 10
-1.1094804678628207
 20
1.6500000000000001
 10
-1.1679804678628207
 20
1.5525000000000002
 10
-1.3320195321371793
 20
1.5525000000000002
  0
LWPOLYLINE
  5
2C0
330
17
100
AcDbEntity
  8
A-OPISY
370
35
 48
0.05
100
AcDbPolyline
 90
6
 70
1
 10
-1.6405195321371793
 20
3.519
 10
-1.5820195321371793
 20
3.6165000000000003
 10
-1.4179804678628207
 20
3.6165000000000003
 10
-1.3594804678628207
 20
3.519
 10
-1.4179804678628207
 20
3.4215
 10
-1.5820195321371793
 20
3.4215
  0
LWPOLYLINE
  5
2C1
330
17
100
AcDbEntity
  8
A-OPISY
370
35
 48
0.05
100
AcDbPolyline
 90
6
 70
1
 10
-1.0405195321371792
 20
3.8795
 10
-0.9820195321371792
 20
3.9770000000000003
 10
-0.8179804678628209
 20
3.9770000000000003
 10
-0.7594804678628209
 20
3.8795
 10
-0.8179804678628209
 20
3.782
 10
-0.9820195321371792
 20
3.782
  0
LWPOLYLINE
  5
2C2
330
17
100
AcDbEntity
  8
A-OPISY
370
35
 48
0.05
100
AcDbPolyline
 90
6
 70
1
 10
-0.9405195321371791
 20
3.31
 10
-0.8820195321371791
 20
3.4075
 10
-0.7179804678628208
 20
3.4075
 10
-0.6594804678628208
 20
3.31
 10
-0.7179804678628208
 20
3.2125
 10
-0.8820195321371791
 20
3.2125
  0
LWPOLYLINE
  5
2C3
330
17
100
AcDbEntity
  8
A-OPISY
370
35
 48
0.05
100
AcDbPolyline
 90
6
 70
1
 10
-7.21764062588718
 20
-0.17533453125000004
 10
-7.15914062588718
 20
-0.07783453125000003
 10
-6.995101561612821
 20
-0.07783453125000003
 10
-6.936601561612822
 20
-0.17533453125000004
 10
-6.995101561612821
 20
-0.27283453125
 10
-7.15914062588718
 20
-0.27283453125
  0
LWPOLYLINE
  5
2C4
330
17
100
AcDbEntity
  8
A-OPISY
370
35
 48
0.05
100
AcDbPolyline
 90
6
 70
1
 10
-3.290519532137179
 20
1.70206
 10
-3.232019532137179
 20
1.7995599999999998
 10
-3.067980467862821
 20
1.7995599999999998
 10
-3.009480467862821
 20
1.70206
 10
-3.067980467862821
 20
1.60456
 10
-3.232019532137179
 20
1.60456
  0
LWPOLYLINE
  5
2C5
330
17
100
AcDbEntity
  8
A-OPISY
370
35
 48
0.05
100
AcDbPolyline
 90
6
 70
1
 10
-3.917519532137179
 20
5.255
 10
-3.859019532137179
 20
5.3525
 10
-3.694980467862821
 20
5.3525
 10
-3.636480467862821
 20
5.255
 10
-3.694980467862821
 20
5.1575
 10
-3.859019532137179
 20
5.1575
  0
LWPOLYLINE
  5
2C6
330
17
100
AcDbEntity
  8
A-OPISY
370
35
 48
0.05
100
AcDbPolyline
 90
6
 70
1
 10
0.5594804678628209
 20
7.0035
 10
0.6179804678628209
 20
7.101
 10
0.7820195321371792
 20
7.101
 10
0.8405195321371792
 20
7.0035
 10
0.7820195321371792
 20
6.906
 10
0.6179804678628209
 20
6.906
  0
TEXT
  5
2C7
330
17
100
AcDbEntity
  8
A-OPISY
100
AcDbText
 10
2.5050468741128213
 20
4.670331718750001
 30
0.0
 40
0.125
  1
1
  7
PL_ARIAL
 11
2.5050468741128213
 21
4.670331718750001
 31
0.0
100
AcDbText
  0
TEXT
  5
2C8
330
17
100
AcDbEntity
  8
A-OPISY
100
AcDbText
 10
-1.3005195321371792
 20
1.5875000000000001
 30
0.0
 40
0.125
  1
2
  7
PL_ARIAL
 11
-1.3005195321371792
 21
1.5875000000000001
 31
0.0
100
AcDbText
  0
TEXT
  5
2C9
330
17
100
AcDbEntity
  8
A-OPISY
100
AcDbText
 10
-1.5505195321371792
 20
3.4565
 30
0.0
 40
0.125
  1
3
  7
PL_ARIAL
 11
-1.5505195321371792
 21
3.4565
 31
0.0
100
AcDbText
  0
TEXT
  5
2CA
330
17
100
AcDbEntity
  8
A-OPISY
100
AcDbText
 10
-0.9505195321371792
 20
3.817
 30
0.0
 40
0.125
  1
4
  7
PL_ARIAL
 11
-0.9505195321371792
 21
3.817
 31
0.0
100
AcDbText
  0
TEXT
  5
2CB
330
17
100
AcDbEntity
  8
A-OPISY
100
AcDbText
 10
-0.8505195321371791
 20
3.2475
 30
0.0
 40
0.125
  1
5
  7
PL_ARIAL
 11
-0.8505195321371791
 21
3.2475
 31
0.0
100
AcDbText
  0
TEXT
  5
2CC
330
17
100
AcDbEntity
  8
A-OPISY
100
AcDbText
 10
-7.12764062588718
 20
-0.23783453125000004
 30
0.0
 40
0.125
  1
6
  7
PL_ARIAL
 11
-7.12764062588718
 21
-0.23783453125000004
 31
0.0
100
AcDbText
  0
TEXT
  5
2CD
330
17
100
AcDbEntity
  8
A-OPISY
100
AcDbText
 10
-3.200519532137179
 20
1.63956
 30
0.0
 40
0.125
  1
7
  7
PL_ARIAL
 11
-3.200519532137179
 21
1.63956
 31
0.0
100
AcDbText
  0
TEXT
  5
2CE
330
17
100
AcDbEntity
  8
A-OPISY
100
AcDbText
 10
-3.8275195321371793
 20
5.1925
 30
0.0
 40
0.125
  1
8
  7
PL_ARIAL
 11
-3.8275195321371793
 21
5.1925
 31
0.0
100
AcDbText
  0
TEXT
  5
2CF
330
17
100
AcDbEntity
  8
A-OPISY
100
AcDbText
 10
0.6494804678628209
 20
6.941
 30
0.0
 40
0.125
  1
9
  7
PL_ARIAL
 11
0.6494804678628209
 21
6.941
 31
0.0
100
AcDbText
  0
HATCH
  5
2D0
330
17
100
AcDbEntity
  8
A-MASKA
 62
7
420
16777215
100
AcDbHatch
 10
0.0
 20
0.0
 30
0.0
210
0.0
220
0.0
230
1.0
  2
SOLID
 70
1
 71
0
 91
1
 92
3
 72
0
 73
1
 93
4
 10
4.7570000000000014
 20
-0.056499999999999995
 10
5.357754031342267
 20
-0.056499999999999995
 10
5.357754031342267
 20
0.136
 10
4.7570000000000014
 20
0.136
 97
0
 75
0
 76
1
 98
0
  0
TEXT
  5
2D1
330
17
100
AcDbEntity
  8
A-RZEDNE
100
AcDbText
 10
4.777000000000001
 20
-0.008999999999999987
 30
0.0
 40
0.125
  1
−0,214
  7
PL_ARIAL
 11
4.777000000000001
 21
-0.008999999999999987
 31
0.0
100
AcDbText
  0
HATCH
  5
2D2
330
17
100
AcDbEntity
  8
A-MASKA
 62
7
420
16777215
100
AcDbHatch
 10
0.0
 20
0.0
 30
0.0
210
0.0
220
0.0
230
1.0
  2
SOLID
 70
1
 71
0
 91
1
 92
3
 72
0
 73
1
 93
4
 10
5.542754031342268
 20
0.3225
 10
6.137120372473315
 20
0.3225
 10
6.137120372473315
 20
0.515
 10
5.542754031342268
 20
0.515
 97
0
 75
0
 76
1
 98
0
  0
TEXT
  5
2D3
330
17
100
AcDbEntity
  8
A-RZEDNE
100
AcDbText
 10
5.562754031342267
 20
0.37
 30
0.0
 40
0.125
  1
±0,000
  7
PL_ARIAL
 11
5.562754031342267
 21
0.37
 31
0.0
100
AcDbText
  0
HATCH
  5
2D4
330
17
100
AcDbEntity
  8
A-MASKA
 62
7
420
16777215
100
AcDbHatch
 10
0.0
 20
0.0
 30
0.0
210
0.0
220
0.0
230
1.0
  2
SOLID
 70
1
 71
0
 91
1
 92
3
 72
0
 73
1
 93
4
 10
5.542754031342268
 20
0.11750000000000005
 10
6.239465364524189
 20
0.11750000000000005
 10
6.239465364524189
 20
0.31000000000000005
 10
5.542754031342268
 20
0.31000000000000005
 97
0
 75
0
 76
1
 98
0
  0
TEXT
  5
2D5
330
17
100
AcDbEntity
  8
A-RZEDNE
100
AcDbText
 10
5.562754031342267
 20
0.16500000000000004
 30
0.0
 40
0.125
  1
101,650
  7
PL_ARIAL
 11
5.562754031342267
 21
0.16500000000000004
 31
0.0
100
AcDbText
  0
HATCH
  5
2D6
330
17
100
AcDbEntity
  8
A-MASKA
 62
7
420
16777215
100
AcDbHatch
 10
0.0
 20
0.0
 30
0.0
210
0.0
220
0.0
230
1.0
  2
SOLID
 70
1
 71
0
 91
1
 92
3
 72
0
 73
1
 93
4
 10
4.7570000000000014
 20
3.2175000000000002
 10
5.357754031342267
 20
3.2175000000000002
 10
5.357754031342267
 20
3.41
 10
4.7570000000000014
 20
3.41
 97
0
 75
0
 76
1
 98
0
  0
TEXT
  5
2D7
330
17
100
AcDbEntity
  8
A-RZEDNE
100
AcDbText
 10
4.777000000000001
 20
3.265
 30
0.0
 40
0.125
  1
+3,060
  7
PL_ARIAL
 11
4.777000000000001
 21
3.265
 31
0.0
100
AcDbText
  0
HATCH
  5
2D8
330
17
100
AcDbEntity
  8
A-MASKA
 62
7
420
16777215
100
AcDbHatch
 10
0.0
 20
0.0
 30
0.0
210
0.0
220
0.0
230
1.0
  2
SOLID
 70
1
 71
0
 91
1
 92
3
 72
0
 73
1
 93
4
 10
4.7570000000000014
 20
6.350999999999999
 10
5.357754031342267
 20
6.350999999999999
 10
5.357754031342267
 20
6.543499999999999
 10
4.7570000000000014
 20
6.543499999999999
 97
0
 75
0
 76
1
 98
0
  0
TEXT
  5
2D9
330
17
100
AcDbEntity
  8
A-RZEDNE
100
AcDbText
 10
4.777000000000001
 20
6.398499999999999
 30
0.0
 40
0.125
  1
+6,193
  7
PL_ARIAL
 11
4.777000000000001
 21
6.398499999999999
 31
0.0
100
AcDbText
  0
HATCH
  5
2DA
330
17
100
AcDbEntity
  8
A-MASKA
 62
7
420
16777215
100
AcDbHatch
 10
0.0
 20
0.0
 30
0.0
210
0.0
220
0.0
230
1.0
  2
SOLID
 70
1
 71
0
 91
1
 92
3
 72
0
 73
1
 93
4
 10
5.542754031342268
 20
6.650999999999999
 10
6.143508062684534
 20
6.650999999999999
 10
6.143508062684534
 20
6.843499999999999
 10
5.542754031342268
 20
6.843499999999999
 97
0
 75
0
 76
1
 98
0
  0
TEXT
  5
2DB
330
17
100
AcDbEntity
  8
A-RZEDNE
100
AcDbText
 10
5.562754031342267
 20
6.698499999999999
 30
0.0
 40
0.125
  1
+6,493
  7
PL_ARIAL
 11
5.562754031342267
 21
6.698499999999999
 31
0.0
100
AcDbText
  0
HATCH
  5
2DC
330
17
100
AcDbEntity
  8
A-MASKA
 62
7
420
16777215
100
AcDbHatch
 10
0.0
 20
0.0
 30
0.0
210
0.0
220
0.0
230
1.0
  2
SOLID
 70
1
 71
0
 91
1
 92
3
 72
0
 73
1
 93
4
 10
-8.070754031342268
 20
-0.1715
 10
-7.4700000000000015
 20
-0.1715
 10
-7.4700000000000015
 20
0.02099999999999999
 10
-8.070754031342268
 20
0.02099999999999999
 97
0
 75
0
 76
1
 98
0
  0
TEXT
  5
2DD
330
17
100
AcDbEntity
  8
A-RZEDNE
100
AcDbText
 10
-8.050754031342267
 20
-0.124
 30
0.0
 40
0.125
  1
−0,329
  7
PL_ARIAL
 11
-8.050754031342267
 21
-0.124
 31
0.0
100
AcDbText
  0
TEXT
  5
2DE
330
17
100
AcDbEntity
  8
A-WYMIARY
100
AcDbText
 10
-8.55
 20
2.7683173404496935
 30
0.0
 40
0.125
  1
646
 50
90.0
  7
PL_ARIAL
 11
-8.55
 21
2.7683173404496935
 31
0.0
100
AcDbText
  0
TEXT
  5
2DF
330
17
100
AcDbEntity
  8
A-WYMIARY
100
AcDbText
 10
-8.6125
 20
3.0789345332727684
 30
0.0
 40
0.09000000000000001
  1
6
 50
90.0
  7
PL_ARIAL
 11
-8.6125
 21
3.0789345332727684
 31
0.0
100
AcDbText
  0
TEXT
  5
2E0
330
17
100
AcDbEntity
  8
A-WYMIARY
100
AcDbText
 10
-8.05
 20
0.07150000000000001
 30
0.0
 40
0.125
  1
32
 50
90.0
  7
PL_ARIAL
 11
-8.05
 21
0.07150000000000001
 31
0.0
100
AcDbText
  0
TEXT
  5
2E1
330
17
100
AcDbEntity
  8
A-WYMIARY
100
AcDbText
 10
-8.1125
 20
0.28107812854871683
 30
0.0
 40
0.09000000000000001
  1
9
 50
90.0
  7
PL_ARIAL
 11
-8.1125
 21
0.28107812854871683
 31
0.0
100
AcDbText
  0
TEXT
  5
2E2
330
17
100
AcDbEntity
  8
A-WYMIARY
100
AcDbText
 10
-8.05
 20
1.3784414035884625
 30
0.0
 40
0.125
  1
306
 50
90.0
  7
PL_ARIAL
 11
-8.05
 21
1.3784414035884625
 31
0.0
100
AcDbText
  0
TEXT
  5
2E3
330
17
100
AcDbEntity
  8
A-WYMIARY
100
AcDbText
 10
-8.05
 20
4.434817340449693
 30
0.0
 40
0.125
  1
313
 50
90.0
  7
PL_ARIAL
 11
-8.05
 21
4.434817340449693
 31
0.0
100
AcDbText
  0
TEXT
  5
2E4
330
17
100
AcDbEntity
  8
A-WYMIARY
100
AcDbText
 10
-8.1125
 20
4.7454345332727685
 30
0.0
 40
0.09000000000000001
  1
3
 50
90.0
  7
PL_ARIAL
 11
-8.1125
 21
4.7454345332727685
 31
0.0
100
AcDbText
  0
TEXT
  5
2E5
330
17
100
AcDbEntity
  8
A-WYMIARY
100
AcDbText
 10
-8.05
 20
6.585500000000001
 30
0.0
 40
0.125
  1
32
 50
90.0
  7
PL_ARIAL
 11
-8.05
 21
6.585500000000001
 31
0.0
100
AcDbText
  0
TEXT
  5
2E6
330
17
100
AcDbEntity
  8
A-WYMIARY
100
AcDbText
 10
-8.1125
 20
6.795078128548718
 30
0.0
 40
0.09000000000000001
  1
1
 50
90.0
  7
PL_ARIAL
 11
-8.1125
 21
6.795078128548718
 31
0.0
100
AcDbText
  0
HATCH
  5
2E7
330
17
100
AcDbEntity
  8
A-MASKA
 62
7
420
16777215
100
AcDbHatch
 10
0.0
 20
0.0
 30
0.0
210
0.0
220
0.0
230
1.0
  2
SOLID
 70
1
 71
0
 91
1
 92
3
 72
0
 73
1
 93
4
 10
-8.7025
 20
1.2310440797309885
 10
-8.7025
 20
4.689196475824561
 10
-8.895
 20
4.689196475824561
 10
-8.895
 20
1.2310440797309885
 97
0
 75
0
 76
1
 98
0
  0
TEXT
  5
2E8
330
17
100
AcDbEntity
  8
A-WYMIARY
100
AcDbText
 10
-8.75
 20
1.2510440797309883
 30
0.0
 40
0.125
  1
wysokość budynku wg § 6 WT: H = 6,47 m
 50
90.0
  7
PL_ARIAL
 11
-8.75
 21
1.2510440797309883
 31
0.0
100
AcDbText
  0
TEXT
  5
2E9
330
17
100
AcDbEntity
  8
A-WYMIARY
100
AcDbText
 10
-1.716959629797865
 20
-0.6383384210526384
 30
0.0
 40
0.125
  1
1163
  7
PL_ARIAL
 11
-1.716959629797865
 21
-0.6383384210526384
 31
0.0
100
AcDbText
  0
TEXT
  5
2EA
330
17
100
AcDbEntity
  8
A-WYMIARY
100
AcDbText
 10
-1.318788496479673
 20
-0.5758384210526384
 30
0.0
 40
0.09000000000000001
  1
7
  7
PL_ARIAL
 11
-1.318788496479673
 21
-0.5758384210526384
 31
0.0
100
AcDbText
  0
VIEWPORT
  5
7F
330
1B
100
AcDbEntity
 67
1
  8
VIEWPORTS
100
AcDbViewport
 10
297.0
 20
210.0
 30
0.0
 40
594.0
 41
420.0
 68
1
 69
1
 12
297.0
 22
210.0
 13
0.0
 23
0.0
 14
10.0
 24
10.0
 15
10.0
 25
10.0
 16
0.0
 26
0.0
 36
1.0
 17
0.0
 27
0.0
 37
0.0
 42
50.0
 43
0.0
 44
0.0
 45
462.00000000000006
 50
0.0
 51
0.0
 72
100
 90
557088
  1

281
0
 71
0
 74
0
110
0.0
120
0.0
130
0.0
111
1.0
121
0.0
131
0.0
112
0.0
122
1.0
132
0.0
 79
0
146
0.0
282
0
  0
HATCH
  5
80
330
1B
100
AcDbEntity
 67
1
  8
R-LEGENDA
 62
7
420
16119024
100
AcDbHatch
 10
0.0
 20
0.0
 30
0.0
210
0.0
220
0.0
230
1.0
  2
SOLID
 70
1
 71
0
 91
1
 92
3
 72
0
 73
1
 93
4
 10
412.0
 20
396.3
 10
424.0
 20
396.3
 10
424.0
 20
400.7
 10
412.0
 20
400.7
 97
0
 75
0
 76
1
 98
0
  0
HATCH
  5
81
330
1B
100
AcDbEntity
 67
1
  8
R-LEGENDA
 62
7
420
11125709
100
AcDbHatch
 10
0.0
 20
0.0
 30
0.0
210
0.0
220
0.0
230
1.0
  2
SOLID
 70
1
 71
0
 91
1
 92
3
 72
0
 73
1
 93
4
 10
412.0
 20
390.3
 10
424.0
 20
390.3
 10
424.0
 20
394.7
 10
412.0
 20
394.7
 97
0
 75
0
 76
1
 98
0
  0
HATCH
  5
82
330
1B
100
AcDbEntity
 67
1
  8
R-LEGENDA
 62
7
420
13229538
100
AcDbHatch
 10
0.0
 20
0.0
 30
0.0
210
0.0
220
0.0
230
1.0
  2
SOLID
 70
1
 71
0
 91
1
 92
3
 72
0
 73
1
 93
4
 10
412.0
 20
384.3
 10
424.0
 20
384.3
 10
424.0
 20
388.7
 10
412.0
 20
388.7
 97
0
 75
0
 76
1
 98
0
  0
HATCH
  5
83
330
1B
100
AcDbEntity
 67
1
  8
R-LEGENDA
 62
7
420
2830131
100
AcDbHatch
 10
0.0
 20
0.0
 30
0.0
210
0.0
220
0.0
230
1.0
  2
SOLID
 70
1
 71
0
 91
1
 92
3
 72
0
 73
1
 93
4
 10
412.0
 20
378.3
 10
424.0
 20
378.3
 10
424.0
 20
382.7
 10
412.0
 20
382.7
 97
0
 75
0
 76
1
 98
0
  0
HATCH
  5
84
330
1B
100
AcDbEntity
 67
1
  8
R-LEGENDA
 62
7
420
12170926
100
AcDbHatch
 10
0.0
 20
0.0
 30
0.0
210
0.0
220
0.0
230
1.0
  2
SOLID
 70
1
 71
0
 91
1
 92
3
 72
0
 73
1
 93
4
 10
412.0
 20
372.3
 10
424.0
 20
372.3
 10
424.0
 20
376.7
 10
412.0
 20
376.7
 97
0
 75
0
 76
1
 98
0
  0
HATCH
  5
85
330
1B
100
AcDbEntity
 67
1
  8
R-LEGENDA
 62
7
420
9275261
100
AcDbHatch
 10
0.0
 20
0.0
 30
0.0
210
0.0
220
0.0
230
1.0
  2
SOLID
 70
1
 71
0
 91
1
 92
3
 72
0
 73
1
 93
4
 10
412.0
 20
366.3
 10
424.0
 20
366.3
 10
424.0
 20
370.7
 10
412.0
 20
370.7
 97
0
 75
0
 76
1
 98
0
  0
HATCH
  5
86
330
1B
100
AcDbEntity
 67
1
  8
R-LEGENDA
 62
7
420
3685954
100
AcDbHatch
 10
0.0
 20
0.0
 30
0.0
210
0.0
220
0.0
230
1.0
  2
SOLID
 70
1
 71
0
 91
1
 92
3
 72
0
 73
1
 93
4
 10
412.0
 20
360.3
 10
424.0
 20
360.3
 10
424.0
 20
364.7
 10
412.0
 20
364.7
 97
0
 75
0
 76
1
 98
0
  0
HATCH
  5
87
330
1B
100
AcDbEntity
 67
1
  8
R-LEGENDA
 62
7
420
10185537
100
AcDbHatch
 10
0.0
 20
0.0
 30
0.0
210
0.0
220
0.0
230
1.0
  2
SOLID
 70
1
 71
0
 91
1
 92
3
 72
0
 73
1
 93
4
 10
412.0
 20
354.3
 10
424.0
 20
354.3
 10
424.0
 20
358.7
 10
412.0
 20
358.7
 97
0
 75
0
 76
1
 98
0
  0
HATCH
  5
88
330
1B
100
AcDbEntity
 67
1
  8
R-LEGENDA
 62
7
420
3882819
100
AcDbHatch
 10
0.0
 20
0.0
 30
0.0
210
0.0
220
0.0
230
1.0
  2
SOLID
 70
1
 71
0
 91
1
 92
3
 72
0
 73
1
 93
4
 10
412.0
 20
348.3
 10
424.0
 20
348.3
 10
424.0
 20
352.7
 10
412.0
 20
352.7
 97
0
 75
0
 76
1
 98
0
  0
HATCH
  5
89
330
1B
100
AcDbEntity
 67
1
  8
R-OPISY
 62
7
420
0
100
AcDbHatch
 10
0.0
 20
0.0
 30
0.0
210
0.0
220
0.0
230
1.0
  2
SOLID
 70
1
 71
0
 91
1
 92
3
 72
0
 73
1
 93
4
 10
408.0
 20
292.9199999999999
 10
412.0
 20
292.9199999999999
 10
412.0
 20
294.5199999999999
 10
408.0
 20
294.5199999999999
 97
0
 75
0
 76
1
 98
0
  0
HATCH
  5
8A
330
1B
100
AcDbEntity
 67
1
  8
R-OPISY
 62
7
420
0
100
AcDbHatch
 10
0.0
 20
0.0
 30
0.0
210
0.0
220
0.0
230
1.0
  2
SOLID
 70
1
 71
0
 91
1
 92
3
 72
0
 73
1
 93
4
 10
416.0
 20
292.9199999999999
 10
420.0
 20
292.9199999999999
 10
420.0
 20
294.5199999999999
 10
416.0
 20
294.5199999999999
 97
0
 75
0
 76
1
 98
0
  0
HATCH
  5
8B
330
1B
100
AcDbEntity
 67
1
  8
R-OPISY
 62
7
420
0
100
AcDbHatch
 10
0.0
 20
0.0
 30
0.0
210
0.0
220
0.0
230
1.0
  2
SOLID
 70
1
 71
0
 91
1
 92
3
 72
0
 73
1
 93
4
 10
424.0
 20
292.9199999999999
 10
428.0
 20
292.9199999999999
 10
428.0
 20
294.5199999999999
 10
424.0
 20
294.5199999999999
 97
0
 75
0
 76
1
 98
0
  0
HATCH
  5
8C
330
1B
100
AcDbEntity
 67
1
  8
R-OPISY
 62
7
420
0
100
AcDbHatch
 10
0.0
 20
0.0
 30
0.0
210
0.0
220
0.0
230
1.0
  2
SOLID
 70
1
 71
0
 91
1
 92
3
 72
0
 73
1
 93
4
 10
448.0
 20
292.9199999999999
 10
468.0
 20
292.9199999999999
 10
468.0
 20
294.5199999999999
 10
448.0
 20
294.5199999999999
 97
0
 75
0
 76
1
 98
0
  0
HATCH
  5
8D
330
1B
100
AcDbEntity
 67
1
  8
R-OPISY
 62
7
420
0
100
AcDbHatch
 10
0.0
 20
0.0
 30
0.0
210
0.0
220
0.0
230
1.0
  2
SOLID
 70
1
 71
0
 91
1
 92
3
 72
0
 73
1
 93
4
 10
488.0
 20
292.9199999999999
 10
508.0
 20
292.9199999999999
 10
508.0
 20
294.5199999999999
 10
488.0
 20
294.5199999999999
 97
0
 75
0
 76
1
 98
0
  0
LWPOLYLINE
  5
8E
330
1B
100
AcDbEntity
 67
1
  8
R-OPISY
370
50
100
AcDbPolyline
 90
2
 70
0
 10
58.50534635475813
 20
120.10661578947361
 10
159.1609220985692
 20
120.10661578947361
  0
LWPOLYLINE
  5
8F
330
1B
100
AcDbEntity
 67
1
  8
R-LEGENDA
370
18
100
AcDbPolyline
 90
4
 70
1
 10
412.0
 20
396.3
 10
424.0
 20
396.3
 10
424.0
 20
400.7
 10
412.0
 20
400.7
  0
LWPOLYLINE
  5
90
330
1B
100
AcDbEntity
 67
1
  8
R-LEGENDA
370
18
100
AcDbPolyline
 90
4
 70
1
 10
412.0
 20
390.3
 10
424.0
 20
390.3
 10
424.0
 20
394.7
 10
412.0
 20
394.7
  0
LWPOLYLINE
  5
91
330
1B
100
AcDbEntity
 67
1
  8
R-LEGENDA
370
18
100
AcDbPolyline
 90
4
 70
1
 10
412.0
 20
384.3
 10
424.0
 20
384.3
 10
424.0
 20
388.7
 10
412.0
 20
388.7
  0
LWPOLYLINE
  5
92
330
1B
100
AcDbEntity
 67
1
  8
R-LEGENDA
370
18
100
AcDbPolyline
 90
4
 70
1
 10
412.0
 20
378.3
 10
424.0
 20
378.3
 10
424.0
 20
382.7
 10
412.0
 20
382.7
  0
LWPOLYLINE
  5
93
330
1B
100
AcDbEntity
 67
1
  8
R-LEGENDA
370
18
100
AcDbPolyline
 90
4
 70
1
 10
412.0
 20
372.3
 10
424.0
 20
372.3
 10
424.0
 20
376.7
 10
412.0
 20
376.7
  0
LWPOLYLINE
  5
94
330
1B
100
AcDbEntity
 67
1
  8
R-LEGENDA
370
18
100
AcDbPolyline
 90
4
 70
1
 10
412.0
 20
366.3
 10
424.0
 20
366.3
 10
424.0
 20
370.7
 10
412.0
 20
370.7
  0
LWPOLYLINE
  5
95
330
1B
100
AcDbEntity
 67
1
  8
R-LEGENDA
370
18
100
AcDbPolyline
 90
4
 70
1
 10
412.0
 20
360.3
 10
424.0
 20
360.3
 10
424.0
 20
364.7
 10
412.0
 20
364.7
  0
LWPOLYLINE
  5
96
330
1B
100
AcDbEntity
 67
1
  8
R-LEGENDA
370
18
100
AcDbPolyline
 90
4
 70
1
 10
412.0
 20
354.3
 10
424.0
 20
354.3
 10
424.0
 20
358.7
 10
412.0
 20
358.7
  0
LWPOLYLINE
  5
97
330
1B
100
AcDbEntity
 67
1
  8
R-LEGENDA
370
18
100
AcDbPolyline
 90
4
 70
1
 10
412.0
 20
348.3
 10
424.0
 20
348.3
 10
424.0
 20
352.7
 10
412.0
 20
352.7
  0
LWPOLYLINE
  5
98
330
1B
100
AcDbEntity
 67
1
  8
R-OPISY
370
25
100
AcDbPolyline
 90
4
 70
1
 10
404.0
 20
305.9199999999999
 10
584.0
 20
305.9199999999999
 10
584.0
 20
340.5
 10
404.0
 20
340.5
  0
LWPOLYLINE
  5
99
330
1B
100
AcDbEntity
 67
1
  8
R-OPISY
370
18
100
AcDbPolyline
 90
4
 70
1
 10
408.0
 20
292.9199999999999
 10
428.0
 20
292.9199999999999
 10
428.0
 20
294.5199999999999
 10
408.0
 20
294.5199999999999
  0
LWPOLYLINE
  5
9A
330
1B
100
AcDbEntity
 67
1
  8
R-OPISY
370
18
100
AcDbPolyline
 90
4
 70
1
 10
428.0
 20
292.9199999999999
 10
448.0
 20
292.9199999999999
 10
448.0
 20
294.5199999999999
 10
428.0
 20
294.5199999999999
  0
LWPOLYLINE
  5
9B
330
1B
100
AcDbEntity
 67
1
  8
R-OPISY
370
18
100
AcDbPolyline
 90
4
 70
1
 10
448.0
 20
292.9199999999999
 10
468.0
 20
292.9199999999999
 10
468.0
 20
294.5199999999999
 10
448.0
 20
294.5199999999999
  0
LWPOLYLINE
  5
9C
330
1B
100
AcDbEntity
 67
1
  8
R-OPISY
370
18
100
AcDbPolyline
 90
4
 70
1
 10
468.0
 20
292.9199999999999
 10
488.0
 20
292.9199999999999
 10
488.0
 20
294.5199999999999
 10
468.0
 20
294.5199999999999
  0
LWPOLYLINE
  5
9D
330
1B
100
AcDbEntity
 67
1
  8
R-OPISY
370
18
100
AcDbPolyline
 90
4
 70
1
 10
488.0
 20
292.9199999999999
 10
508.0
 20
292.9199999999999
 10
508.0
 20
294.5199999999999
 10
488.0
 20
294.5199999999999
  0
LWPOLYLINE
  5
9E
330
1B
100
AcDbEntity
 67
1
  8
R-OPISY
370
18
100
AcDbPolyline
 90
4
 70
1
 10
508.0
 20
292.9199999999999
 10
528.0
 20
292.9199999999999
 10
528.0
 20
294.5199999999999
 10
508.0
 20
294.5199999999999
  0
LWPOLYLINE
  5
9F
330
1B
100
AcDbEntity
 67
1
  8
R-OPISY
370
35
100
AcDbPolyline
 90
2
 70
0
 10
11.0
 20
18.0
 10
11.0
 20
118.0
  0
LWPOLYLINE
  5
A0
330
1B
100
AcDbEntity
 67
1
  8
R-OPISY
370
18
100
AcDbPolyline
 90
2
 70
0
 10
11.0
 20
18.0
 10
9.4
 20
18.0
  0
LWPOLYLINE
  5
A1
330
1B
100
AcDbEntity
 67
1
  8
R-OPISY
370
18
100
AcDbPolyline
 90
2
 70
0
 10
11.0
 20
28.0
 10
10.1
 20
28.0
  0
LWPOLYLINE
  5
A2
330
1B
100
AcDbEntity
 67
1
  8
R-OPISY
370
18
100
AcDbPolyline
 90
2
 70
0
 10
11.0
 20
38.0
 10
10.1
 20
38.0
  0
LWPOLYLINE
  5
A3
330
1B
100
AcDbEntity
 67
1
  8
R-OPISY
370
18
100
AcDbPolyline
 90
2
 70
0
 10
11.0
 20
48.0
 10
10.1
 20
48.0
  0
LWPOLYLINE
  5
A4
330
1B
100
AcDbEntity
 67
1
  8
R-OPISY
370
18
100
AcDbPolyline
 90
2
 70
0
 10
11.0
 20
58.0
 10
10.1
 20
58.0
  0
LWPOLYLINE
  5
A5
330
1B
100
AcDbEntity
 67
1
  8
R-OPISY
370
18
100
AcDbPolyline
 90
2
 70
0
 10
11.0
 20
68.0
 10
9.4
 20
68.0
  0
LWPOLYLINE
  5
A6
330
1B
100
AcDbEntity
 67
1
  8
R-OPISY
370
18
100
AcDbPolyline
 90
2
 70
0
 10
11.0
 20
78.0
 10
10.1
 20
78.0
  0
LWPOLYLINE
  5
A7
330
1B
100
AcDbEntity
 67
1
  8
R-OPISY
370
18
100
AcDbPolyline
 90
2
 70
0
 10
11.0
 20
88.0
 10
10.1
 20
88.0
  0
LWPOLYLINE
  5
A8
330
1B
100
AcDbEntity
 67
1
  8
R-OPISY
370
18
100
AcDbPolyline
 90
2
 70
0
 10
11.0
 20
98.0
 10
10.1
 20
98.0
  0
LWPOLYLINE
  5
A9
330
1B
100
AcDbEntity
 67
1
  8
R-OPISY
370
18
100
AcDbPolyline
 90
2
 70
0
 10
11.0
 20
108.0
 10
10.1
 20
108.0
  0
LWPOLYLINE
  5
AA
330
1B
100
AcDbEntity
 67
1
  8
R-OPISY
370
18
100
AcDbPolyline
 90
2
 70
0
 10
11.0
 20
118.0
 10
9.4
 20
118.0
  0
HATCH
  5
AB
330
1B
100
AcDbEntity
 67
1
  8
R-LEGENDA
 62
7
420
16777215
100
AcDbHatch
 10
0.0
 20
0.0
 30
0.0
210
0.0
220
0.0
230
1.0
  2
SOLID
 70
1
 71
0
 91
1
 92
3
 72
0
 73
1
 93
6
 10
404.3896093572564
 20
398.5
 10
405.5596093572564
 20
400.45
 10
408.84039064274356
 20
400.45
 10
410.0103906427436
 20
398.5
 10
408.84039064274356
 20
396.55
 10
405.5596093572564
 20
396.55
 97
0
 75
0
 76
1
 98
0
  0
HATCH
  5
AC
330
1B
100
AcDbEntity
 67
1
  8
R-LEGENDA
 62
7
420
16777215
100
AcDbHatch
 10
0.0
 20
0.0
 30
0.0
210
0.0
220
0.0
230
1.0
  2
SOLID
 70
1
 71
0
 91
1
 92
3
 72
0
 73
1
 93
6
 10
404.3896093572564
 20
392.5
 10
405.5596093572564
 20
394.45
 10
408.84039064274356
 20
394.45
 10
410.0103906427436
 20
392.5
 10
408.84039064274356
 20
390.55
 10
405.5596093572564
 20
390.55
 97
0
 75
0
 76
1
 98
0
  0
HATCH
  5
AD
330
1B
100
AcDbEntity
 67
1
  8
R-LEGENDA
 62
7
420
16777215
100
AcDbHatch
 10
0.0
 20
0.0
 30
0.0
210
0.0
220
0.0
230
1.0
  2
SOLID
 70
1
 71
0
 91
1
 92
3
 72
0
 73
1
 93
6
 10
404.3896093572564
 20
386.5
 10
405.5596093572564
 20
388.45
 10
408.84039064274356
 20
388.45
 10
410.0103906427436
 20
386.5
 10
408.84039064274356
 20
384.55
 10
405.5596093572564
 20
384.55
 97
0
 75
0
 76
1
 98
0
  0
HATCH
  5
AE
330
1B
100
AcDbEntity
 67
1
  8
R-LEGENDA
 62
7
420
16777215
100
AcDbHatch
 10
0.0
 20
0.0
 30
0.0
210
0.0
220
0.0
230
1.0
  2
SOLID
 70
1
 71
0
 91
1
 92
3
 72
0
 73
1
 93
6
 10
404.3896093572564
 20
380.5
 10
405.5596093572564
 20
382.45
 10
408.84039064274356
 20
382.45
 10
410.0103906427436
 20
380.5
 10
408.84039064274356
 20
378.55
 10
405.5596093572564
 20
378.55
 97
0
 75
0
 76
1
 98
0
  0
HATCH
  5
AF
330
1B
100
AcDbEntity
 67
1
  8
R-LEGENDA
 62
7
420
16777215
100
AcDbHatch
 10
0.0
 20
0.0
 30
0.0
210
0.0
220
0.0
230
1.0
  2
SOLID
 70
1
 71
0
 91
1
 92
3
 72
0
 73
1
 93
6
 10
404.3896093572564
 20
374.5
 10
405.5596093572564
 20
376.45
 10
408.84039064274356
 20
376.45
 10
410.0103906427436
 20
374.5
 10
408.84039064274356
 20
372.55
 10
405.5596093572564
 20
372.55
 97
0
 75
0
 76
1
 98
0
  0
HATCH
  5
B0
330
1B
100
AcDbEntity
 67
1
  8
R-LEGENDA
 62
7
420
16777215
100
AcDbHatch
 10
0.0
 20
0.0
 30
0.0
210
0.0
220
0.0
230
1.0
  2
SOLID
 70
1
 71
0
 91
1
 92
3
 72
0
 73
1
 93
6
 10
404.3896093572564
 20
368.5
 10
405.5596093572564
 20
370.45
 10
408.84039064274356
 20
370.45
 10
410.0103906427436
 20
368.5
 10
408.84039064274356
 20
366.55
 10
405.5596093572564
 20
366.55
 97
0
 75
0
 76
1
 98
0
  0
HATCH
  5
B1
330
1B
100
AcDbEntity
 67
1
  8
R-LEGENDA
 62
7
420
16777215
100
AcDbHatch
 10
0.0
 20
0.0
 30
0.0
210
0.0
220
0.0
230
1.0
  2
SOLID
 70
1
 71
0
 91
1
 92
3
 72
0
 73
1
 93
6
 10
404.3896093572564
 20
362.5
 10
405.5596093572564
 20
364.45
 10
408.84039064274356
 20
364.45
 10
410.0103906427436
 20
362.5
 10
408.84039064274356
 20
360.55
 10
405.5596093572564
 20
360.55
 97
0
 75
0
 76
1
 98
0
  0
HATCH
  5
B2
330
1B
100
AcDbEntity
 67
1
  8
R-LEGENDA
 62
7
420
16777215
100
AcDbHatch
 10
0.0
 20
0.0
 30
0.0
210
0.0
220
0.0
230
1.0
  2
SOLID
 70
1
 71
0
 91
1
 92
3
 72
0
 73
1
 93
6
 10
404.3896093572564
 20
356.5
 10
405.5596093572564
 20
358.45
 10
408.84039064274356
 20
358.45
 10
410.0103906427436
 20
356.5
 10
408.84039064274356
 20
354.55
 10
405.5596093572564
 20
354.55
 97
0
 75
0
 76
1
 98
0
  0
HATCH
  5
B3
330
1B
100
AcDbEntity
 67
1
  8
R-LEGENDA
 62
7
420
16777215
100
AcDbHatch
 10
0.0
 20
0.0
 30
0.0
210
0.0
220
0.0
230
1.0
  2
SOLID
 70
1
 71
0
 91
1
 92
3
 72
0
 73
1
 93
6
 10
404.3896093572564
 20
350.5
 10
405.5596093572564
 20
352.45
 10
408.84039064274356
 20
352.45
 10
410.0103906427436
 20
350.5
 10
408.84039064274356
 20
348.55
 10
405.5596093572564
 20
348.55
 97
0
 75
0
 76
1
 98
0
  0
LWPOLYLINE
  5
B4
330
1B
100
AcDbEntity
 67
1
  8
R-LEGENDA
370
18
100
AcDbPolyline
 90
6
 70
1
 10
404.3896093572564
 20
398.5
 10
405.5596093572564
 20
400.45
 10
408.84039064274356
 20
400.45
 10
410.0103906427436
 20
398.5
 10
408.84039064274356
 20
396.55
 10
405.5596093572564
 20
396.55
  0
LWPOLYLINE
  5
B5
330
1B
100
AcDbEntity
 67
1
  8
R-LEGENDA
370
18
100
AcDbPolyline
 90
6
 70
1
 10
404.3896093572564
 20
392.5
 10
405.5596093572564
 20
394.45
 10
408.84039064274356
 20
394.45
 10
410.0103906427436
 20
392.5
 10
408.84039064274356
 20
390.55
 10
405.5596093572564
 20
390.55
  0
LWPOLYLINE
  5
B6
330
1B
100
AcDbEntity
 67
1
  8
R-LEGENDA
370
18
100
AcDbPolyline
 90
6
 70
1
 10
404.3896093572564
 20
386.5
 10
405.5596093572564
 20
388.45
 10
408.84039064274356
 20
388.45
 10
410.0103906427436
 20
386.5
 10
408.84039064274356
 20
384.55
 10
405.5596093572564
 20
384.55
  0
LWPOLYLINE
  5
B7
330
1B
100
AcDbEntity
 67
1
  8
R-LEGENDA
370
18
100
AcDbPolyline
 90
6
 70
1
 10
404.3896093572564
 20
380.5
 10
405.5596093572564
 20
382.45
 10
408.84039064274356
 20
382.45
 10
410.0103906427436
 20
380.5
 10
408.84039064274356
 20
378.55
 10
405.5596093572564
 20
378.55
  0
LWPOLYLINE
  5
B8
330
1B
100
AcDbEntity
 67
1
  8
R-LEGENDA
370
18
100
AcDbPolyline
 90
6
 70
1
 10
404.3896093572564
 20
374.5
 10
405.5596093572564
 20
376.45
 10
408.84039064274356
 20
376.45
 10
410.0103906427436
 20
374.5
 10
408.84039064274356
 20
372.55
 10
405.5596093572564
 20
372.55
  0
LWPOLYLINE
  5
B9
330
1B
100
AcDbEntity
 67
1
  8
R-LEGENDA
370
18
100
AcDbPolyline
 90
6
 70
1
 10
404.3896093572564
 20
368.5
 10
405.5596093572564
 20
370.45
 10
408.84039064274356
 20
370.45
 10
410.0103906427436
 20
368.5
 10
408.84039064274356
 20
366.55
 10
405.5596093572564
 20
366.55
  0
LWPOLYLINE
  5
BA
330
1B
100
AcDbEntity
 67
1
  8
R-LEGENDA
370
18
100
AcDbPolyline
 90
6
 70
1
 10
404.3896093572564
 20
362.5
 10
405.5596093572564
 20
364.45
 10
408.84039064274356
 20
364.45
 10
410.0103906427436
 20
362.5
 10
408.84039064274356
 20
360.55
 10
405.5596093572564
 20
360.55
  0
LWPOLYLINE
  5
BB
330
1B
100
AcDbEntity
 67
1
  8
R-LEGENDA
370
18
100
AcDbPolyline
 90
6
 70
1
 10
404.3896093572564
 20
356.5
 10
405.5596093572564
 20
358.45
 10
408.84039064274356
 20
358.45
 10
410.0103906427436
 20
356.5
 10
408.84039064274356
 20
354.55
 10
405.5596093572564
 20
354.55
  0
LWPOLYLINE
  5
BC
330
1B
100
AcDbEntity
 67
1
  8
R-LEGENDA
370
18
100
AcDbPolyline
 90
6
 70
1
 10
404.3896093572564
 20
350.5
 10
405.5596093572564
 20
352.45
 10
408.84039064274356
 20
352.45
 10
410.0103906427436
 20
350.5
 10
408.84039064274356
 20
348.55
 10
405.5596093572564
 20
348.55
  0
TEXT
  5
BD
330
1B
100
AcDbEntity
 67
1
  8
R-LEGENDA
100
AcDbText
 10
406.1896093572564
 20
397.25
 30
0.0
 40
2.5
  1
1
  7
PL_ARIAL
 11
406.1896093572564
 21
397.25
 31
0.0
100
AcDbText
  0
TEXT
  5
BE
330
1B
100
AcDbEntity
 67
1
  8
R-LEGENDA
100
AcDbText
 10
406.1896093572564
 20
391.25
 30
0.0
 40
2.5
  1
2
  7
PL_ARIAL
 11
406.1896093572564
 21
391.25
 31
0.0
100
AcDbText
  0
TEXT
  5
BF
330
1B
100
AcDbEntity
 67
1
  8
R-LEGENDA
100
AcDbText
 10
406.1896093572564
 20
385.25
 30
0.0
 40
2.5
  1
3
  7
PL_ARIAL
 11
406.1896093572564
 21
385.25
 31
0.0
100
AcDbText
  0
TEXT
  5
C0
330
1B
100
AcDbEntity
 67
1
  8
R-LEGENDA
100
AcDbText
 10
406.1896093572564
 20
379.25
 30
0.0
 40
2.5
  1
4
  7
PL_ARIAL
 11
406.1896093572564
 21
379.25
 31
0.0
100
AcDbText
  0
TEXT
  5
C1
330
1B
100
AcDbEntity
 67
1
  8
R-LEGENDA
100
AcDbText
 10
406.1896093572564
 20
373.25
 30
0.0
 40
2.5
  1
5
  7
PL_ARIAL
 11
406.1896093572564
 21
373.25
 31
0.0
100
AcDbText
  0
TEXT
  5
C2
330
1B
100
AcDbEntity
 67
1
  8
R-LEGENDA
100
AcDbText
 10
406.1896093572564
 20
367.25
 30
0.0
 40
2.5
  1
6
  7
PL_ARIAL
 11
406.1896093572564
 21
367.25
 31
0.0
100
AcDbText
  0
TEXT
  5
C3
330
1B
100
AcDbEntity
 67
1
  8
R-LEGENDA
100
AcDbText
 10
406.1896093572564
 20
361.25
 30
0.0
 40
2.5
  1
7
  7
PL_ARIAL
 11
406.1896093572564
 21
361.25
 31
0.0
100
AcDbText
  0
TEXT
  5
C4
330
1B
100
AcDbEntity
 67
1
  8
R-LEGENDA
100
AcDbText
 10
406.1896093572564
 20
355.25
 30
0.0
 40
2.5
  1
8
  7
PL_ARIAL
 11
406.1896093572564
 21
355.25
 31
0.0
100
AcDbText
  0
TEXT
  5
C5
330
1B
100
AcDbEntity
 67
1
  8
R-LEGENDA
100
AcDbText
 10
406.1896093572564
 20
349.25
 30
0.0
 40
2.5
  1
9
  7
PL_ARIAL
 11
406.1896093572564
 21
349.25
 31
0.0
100
AcDbText
  0
HATCH
  5
C6
330
1B
100
AcDbEntity
 67
1
  8
R-TABLICZKA
 62
7
420
16777215
100
AcDbHatch
 10
0.0
 20
0.0
 30
0.0
210
0.0
220
0.0
230
1.0
  2
SOLID
 70
1
 71
0
 91
1
 92
3
 72
0
 73
1
 93
4
 10
404.0
 20
10.0
 10
584.0
 20
10.0
 10
584.0
 20
103.0
 10
404.0
 20
103.0
 97
0
 75
0
 76
1
 98
0
  0
HATCH
  5
C7
330
1B
100
AcDbEntity
 67
1
  8
R-TABLICZKA
 62
7
420
16777215
100
AcDbHatch
 10
0.0
 20
0.0
 30
0.0
210
0.0
220
0.0
230
1.0
  2
SOLID
 70
1
 71
0
 91
1
 92
3
 72
0
 73
1
 93
4
 10
404.0
 20
103.0
 10
584.0
 20
103.0
 10
584.0
 20
113.0
 10
404.0
 20
113.0
 97
0
 75
0
 76
1
 98
0
  0
LWPOLYLINE
  5
C8
330
1B
100
AcDbEntity
 67
1
  8
R-RAMKA
370
70
100
AcDbPolyline
 90
4
 70
1
 10
20.0
 20
10.0
 10
584.0
 20
10.0
 10
584.0
 20
410.0
 10
20.0
 20
410.0
  0
LWPOLYLINE
  5
C9
330
1B
100
AcDbEntity
 67
1
  8
R-RAMKA
370
70
100
AcDbPolyline
 90
2
 70
0
 10
297.0
 20
0.0
 10
297.0
 20
20.0
  0
LWPOLYLINE
  5
CA
330
1B
100
AcDbEntity
 67
1
  8
R-RAMKA
370
70
100
AcDbPolyline
 90
2
 70
0
 10
297.0
 20
420.0
 10
297.0
 20
400.0
  0
LWPOLYLINE
  5
CB
330
1B
100
AcDbEntity
 67
1
  8
R-RAMKA
370
70
100
AcDbPolyline
 90
2
 70
0
 10
0.0
 20
210.0
 10
30.0
 20
210.0
  0
LWPOLYLINE
  5
CC
330
1B
100
AcDbEntity
 67
1
  8
R-RAMKA
370
70
100
AcDbPolyline
 90
2
 70
0
 10
594.0
 20
210.0
 10
574.0
 20
210.0
  0
LWPOLYLINE
  5
CD
330
1B
100
AcDbEntity
 67
1
  8
R-RAMKA
370
35
100
AcDbPolyline
 90
2
 70
0
 10
210.0
 20
0.0
 10
210.0
 20
5.0
  0
LWPOLYLINE
  5
CE
330
1B
100
AcDbEntity
 67
1
  8
R-RAMKA
370
35
100
AcDbPolyline
 90
2
 70
0
 10
210.0
 20
420.0
 10
210.0
 20
415.0
  0
LWPOLYLINE
  5
CF
330
1B
100
AcDbEntity
 67
1
  8
R-RAMKA
370
35
100
AcDbPolyline
 90
2
 70
0
 10
402.0
 20
0.0
 10
402.0
 20
5.0
  0
LWPOLYLINE
  5
D0
330
1B
100
AcDbEntity
 67
1
  8
R-RAMKA
370
35
100
AcDbPolyline
 90
2
 70
0
 10
402.0
 20
420.0
 10
402.0
 20
415.0
  0
LWPOLYLINE
  5
D1
330
1B
100
AcDbEntity
 67
1
  8
R-RAMKA
370
35
100
AcDbPolyline
 90
2
 70
0
 10
0.0
 20
297.0
 10
5.0
 20
297.0
  0
LWPOLYLINE
  5
D2
330
1B
100
AcDbEntity
 67
1
  8
R-RAMKA
370
35
100
AcDbPolyline
 90
2
 70
0
 10
594.0
 20
297.0
 10
589.0
 20
297.0
  0
LWPOLYLINE
  5
D3
330
1B
100
AcDbEntity
 67
1
  8
R-RAMKA
370
35
100
AcDbPolyline
 90
2
 70
0
 10
47.0
 20
10.0
 10
47.0
 20
5.0
  0
LWPOLYLINE
  5
D4
330
1B
100
AcDbEntity
 67
1
  8
R-RAMKA
370
35
100
AcDbPolyline
 90
2
 70
0
 10
47.0
 20
410.0
 10
47.0
 20
415.0
  0
LWPOLYLINE
  5
D5
330
1B
100
AcDbEntity
 67
1
  8
R-RAMKA
370
35
100
AcDbPolyline
 90
2
 70
0
 10
97.0
 20
10.0
 10
97.0
 20
5.0
  0
LWPOLYLINE
  5
D6
330
1B
100
AcDbEntity
 67
1
  8
R-RAMKA
370
35
100
AcDbPolyline
 90
2
 70
0
 10
97.0
 20
410.0
 10
97.0
 20
415.0
  0
LWPOLYLINE
  5
D7
330
1B
100
AcDbEntity
 67
1
  8
R-RAMKA
370
35
100
AcDbPolyline
 90
2
 70
0
 10
147.0
 20
10.0
 10
147.0
 20
5.0
  0
LWPOLYLINE
  5
D8
330
1B
100
AcDbEntity
 67
1
  8
R-RAMKA
370
35
100
AcDbPolyline
 90
2
 70
0
 10
147.0
 20
410.0
 10
147.0
 20
415.0
  0
LWPOLYLINE
  5
D9
330
1B
100
AcDbEntity
 67
1
  8
R-RAMKA
370
35
100
AcDbPolyline
 90
2
 70
0
 10
197.0
 20
10.0
 10
197.0
 20
5.0
  0
LWPOLYLINE
  5
DA
330
1B
100
AcDbEntity
 67
1
  8
R-RAMKA
370
35
100
AcDbPolyline
 90
2
 70
0
 10
197.0
 20
410.0
 10
197.0
 20
415.0
  0
LWPOLYLINE
  5
DB
330
1B
100
AcDbEntity
 67
1
  8
R-RAMKA
370
35
100
AcDbPolyline
 90
2
 70
0
 10
247.0
 20
10.0
 10
247.0
 20
5.0
  0
LWPOLYLINE
  5
DC
330
1B
100
AcDbEntity
 67
1
  8
R-RAMKA
370
35
100
AcDbPolyline
 90
2
 70
0
 10
247.0
 20
410.0
 10
247.0
 20
415.0
  0
LWPOLYLINE
  5
DD
330
1B
100
AcDbEntity
 67
1
  8
R-RAMKA
370
35
100
AcDbPolyline
 90
2
 70
0
 10
297.0
 20
10.0
 10
297.0
 20
5.0
  0
LWPOLYLINE
  5
DE
330
1B
100
AcDbEntity
 67
1
  8
R-RAMKA
370
35
100
AcDbPolyline
 90
2
 70
0
 10
297.0
 20
410.0
 10
297.0
 20
415.0
  0
LWPOLYLINE
  5
DF
330
1B
100
AcDbEntity
 67
1
  8
R-RAMKA
370
35
100
AcDbPolyline
 90
2
 70
0
 10
347.0
 20
10.0
 10
347.0
 20
5.0
  0
LWPOLYLINE
  5
E0
330
1B
100
AcDbEntity
 67
1
  8
R-RAMKA
370
35
100
AcDbPolyline
 90
2
 70
0
 10
347.0
 20
410.0
 10
347.0
 20
415.0
  0
LWPOLYLINE
  5
E1
330
1B
100
AcDbEntity
 67
1
  8
R-RAMKA
370
35
100
AcDbPolyline
 90
2
 70
0
 10
397.0
 20
10.0
 10
397.0
 20
5.0
  0
LWPOLYLINE
  5
E2
330
1B
100
AcDbEntity
 67
1
  8
R-RAMKA
370
35
100
AcDbPolyline
 90
2
 70
0
 10
397.0
 20
410.0
 10
397.0
 20
415.0
  0
LWPOLYLINE
  5
E3
330
1B
100
AcDbEntity
 67
1
  8
R-RAMKA
370
35
100
AcDbPolyline
 90
2
 70
0
 10
447.0
 20
10.0
 10
447.0
 20
5.0
  0
LWPOLYLINE
  5
E4
330
1B
100
AcDbEntity
 67
1
  8
R-RAMKA
370
35
100
AcDbPolyline
 90
2
 70
0
 10
447.0
 20
410.0
 10
447.0
 20
415.0
  0
LWPOLYLINE
  5
E5
330
1B
100
AcDbEntity
 67
1
  8
R-RAMKA
370
35
100
AcDbPolyline
 90
2
 70
0
 10
497.0
 20
10.0
 10
497.0
 20
5.0
  0
LWPOLYLINE
  5
E6
330
1B
100
AcDbEntity
 67
1
  8
R-RAMKA
370
35
100
AcDbPolyline
 90
2
 70
0
 10
497.0
 20
410.0
 10
497.0
 20
415.0
  0
LWPOLYLINE
  5
E7
330
1B
100
AcDbEntity
 67
1
  8
R-RAMKA
370
35
100
AcDbPolyline
 90
2
 70
0
 10
547.0
 20
10.0
 10
547.0
 20
5.0
  0
LWPOLYLINE
  5
E8
330
1B
100
AcDbEntity
 67
1
  8
R-RAMKA
370
35
100
AcDbPolyline
 90
2
 70
0
 10
547.0
 20
410.0
 10
547.0
 20
415.0
  0
LWPOLYLINE
  5
E9
330
1B
100
AcDbEntity
 67
1
  8
R-RAMKA
370
35
100
AcDbPolyline
 90
2
 70
0
 10
20.0
 20
60.0
 10
15.0
 20
60.0
  0
LWPOLYLINE
  5
EA
330
1B
100
AcDbEntity
 67
1
  8
R-RAMKA
370
35
100
AcDbPolyline
 90
2
 70
0
 10
584.0
 20
60.0
 10
589.0
 20
60.0
  0
LWPOLYLINE
  5
EB
330
1B
100
AcDbEntity
 67
1
  8
R-RAMKA
370
35
100
AcDbPolyline
 90
2
 70
0
 10
20.0
 20
110.0
 10
15.0
 20
110.0
  0
LWPOLYLINE
  5
EC
330
1B
100
AcDbEntity
 67
1
  8
R-RAMKA
370
35
100
AcDbPolyline
 90
2
 70
0
 10
584.0
 20
110.0
 10
589.0
 20
110.0
  0
LWPOLYLINE
  5
ED
330
1B
100
AcDbEntity
 67
1
  8
R-RAMKA
370
35
100
AcDbPolyline
 90
2
 70
0
 10
20.0
 20
160.0
 10
15.0
 20
160.0
  0
LWPOLYLINE
  5
EE
330
1B
100
AcDbEntity
 67
1
  8
R-RAMKA
370
35
100
AcDbPolyline
 90
2
 70
0
 10
584.0
 20
160.0
 10
589.0
 20
160.0
  0
LWPOLYLINE
  5
EF
330
1B
100
AcDbEntity
 67
1
  8
R-RAMKA
370
35
100
AcDbPolyline
 90
2
 70
0
 10
20.0
 20
210.0
 10
15.0
 20
210.0
  0
LWPOLYLINE
  5
F0
330
1B
100
AcDbEntity
 67
1
  8
R-RAMKA
370
35
100
AcDbPolyline
 90
2
 70
0
 10
584.0
 20
210.0
 10
589.0
 20
210.0
  0
LWPOLYLINE
  5
F1
330
1B
100
AcDbEntity
 67
1
  8
R-RAMKA
370
35
100
AcDbPolyline
 90
2
 70
0
 10
20.0
 20
260.0
 10
15.0
 20
260.0
  0
LWPOLYLINE
  5
F2
330
1B
100
AcDbEntity
 67
1
  8
R-RAMKA
370
35
100
AcDbPolyline
 90
2
 70
0
 10
584.0
 20
260.0
 10
589.0
 20
260.0
  0
LWPOLYLINE
  5
F3
330
1B
100
AcDbEntity
 67
1
  8
R-RAMKA
370
35
100
AcDbPolyline
 90
2
 70
0
 10
20.0
 20
310.0
 10
15.0
 20
310.0
  0
LWPOLYLINE
  5
F4
330
1B
100
AcDbEntity
 67
1
  8
R-RAMKA
370
35
100
AcDbPolyline
 90
2
 70
0
 10
584.0
 20
310.0
 10
589.0
 20
310.0
  0
LWPOLYLINE
  5
F5
330
1B
100
AcDbEntity
 67
1
  8
R-RAMKA
370
35
100
AcDbPolyline
 90
2
 70
0
 10
20.0
 20
360.0
 10
15.0
 20
360.0
  0
LWPOLYLINE
  5
F6
330
1B
100
AcDbEntity
 67
1
  8
R-RAMKA
370
35
100
AcDbPolyline
 90
2
 70
0
 10
584.0
 20
360.0
 10
589.0
 20
360.0
  0
LWPOLYLINE
  5
F7
330
1B
100
AcDbEntity
 67
1
  8
R-TABLICZKA
370
25
100
AcDbPolyline
 90
2
 70
0
 10
514.0
 20
91.0
 10
514.0
 20
103.0
  0
LWPOLYLINE
  5
F8
330
1B
100
AcDbEntity
 67
1
  8
R-TABLICZKA
370
25
100
AcDbPolyline
 90
2
 70
0
 10
539.0
 20
91.0
 10
539.0
 20
103.0
  0
LWPOLYLINE
  5
F9
330
1B
100
AcDbEntity
 67
1
  8
R-TABLICZKA
370
25
100
AcDbPolyline
 90
2
 70
0
 10
404.0
 20
91.0
 10
584.0
 20
91.0
  0
LWPOLYLINE
  5
FA
330
1B
100
AcDbEntity
 67
1
  8
R-TABLICZKA
370
18
100
AcDbPolyline
 90
2
 70
0
 10
404.0
 20
83.0
 10
584.0
 20
83.0
  0
LWPOLYLINE
  5
FB
330
1B
100
AcDbEntity
 67
1
  8
R-TABLICZKA
370
18
100
AcDbPolyline
 90
2
 70
0
 10
404.0
 20
72.5
 10
584.0
 20
72.5
  0
LWPOLYLINE
  5
FC
330
1B
100
AcDbEntity
 67
1
  8
R-TABLICZKA
370
18
100
AcDbPolyline
 90
2
 70
0
 10
554.0
 20
63.5
 10
554.0
 20
72.5
  0
LWPOLYLINE
  5
FD
330
1B
100
AcDbEntity
 67
1
  8
R-TABLICZKA
370
25
100
AcDbPolyline
 90
2
 70
0
 10
404.0
 20
63.5
 10
584.0
 20
63.5
  0
LWPOLYLINE
  5
FE
330
1B
100
AcDbEntity
 67
1
  8
R-TABLICZKA
370
18
100
AcDbPolyline
 90
2
 70
0
 10
404.0
 20
59.0
 10
584.0
 20
59.0
  0
LWPOLYLINE
  5
FF
330
1B
100
AcDbEntity
 67
1
  8
R-TABLICZKA
370
18
100
AcDbPolyline
 90
2
 70
0
 10
404.0
 20
52.0
 10
584.0
 20
52.0
  0
LWPOLYLINE
  5
100
330
1B
100
AcDbEntity
 67
1
  8
R-TABLICZKA
370
18
100
AcDbPolyline
 90
2
 70
0
 10
404.0
 20
45.0
 10
584.0
 20
45.0
  0
LWPOLYLINE
  5
101
330
1B
100
AcDbEntity
 67
1
  8
R-TABLICZKA
370
18
100
AcDbPolyline
 90
2
 70
0
 10
404.0
 20
38.0
 10
584.0
 20
38.0
  0
LWPOLYLINE
  5
102
330
1B
100
AcDbEntity
 67
1
  8
R-TABLICZKA
370
18
100
AcDbPolyline
 90
2
 70
0
 10
404.0
 20
31.0
 10
584.0
 20
31.0
  0
LWPOLYLINE
  5
103
330
1B
100
AcDbEntity
 67
1
  8
R-TABLICZKA
370
18
100
AcDbPolyline
 90
2
 70
0
 10
431.0
 20
31.0
 10
431.0
 20
63.5
  0
LWPOLYLINE
  5
104
330
1B
100
AcDbEntity
 67
1
  8
R-TABLICZKA
370
18
100
AcDbPolyline
 90
2
 70
0
 10
474.0
 20
31.0
 10
474.0
 20
63.5
  0
LWPOLYLINE
  5
105
330
1B
100
AcDbEntity
 67
1
  8
R-TABLICZKA
370
18
100
AcDbPolyline
 90
2
 70
0
 10
529.0
 20
31.0
 10
529.0
 20
63.5
  0
LWPOLYLINE
  5
106
330
1B
100
AcDbEntity
 67
1
  8
R-TABLICZKA
370
18
100
AcDbPolyline
 90
2
 70
0
 10
549.0
 20
31.0
 10
549.0
 20
63.5
  0
LWPOLYLINE
  5
107
330
1B
100
AcDbEntity
 67
1
  8
R-TABLICZKA
370
25
100
AcDbPolyline
 90
2
 70
0
 10
404.0
 20
31.0
 10
584.0
 20
31.0
  0
LWPOLYLINE
  5
108
330
1B
100
AcDbEntity
 67
1
  8
R-TABLICZKA
370
25
100
AcDbPolyline
 90
2
 70
0
 10
404.0
 20
19.0
 10
584.0
 20
19.0
  0
LWPOLYLINE
  5
109
330
1B
100
AcDbEntity
 67
1
  8
R-TABLICZKA
370
25
100
AcDbPolyline
 90
2
 70
0
 10
428.0
 20
10.0
 10
428.0
 20
19.0
  0
LWPOLYLINE
  5
10A
330
1B
100
AcDbEntity
 67
1
  8
R-TABLICZKA
370
25
100
AcDbPolyline
 90
2
 70
0
 10
444.0
 20
10.0
 10
444.0
 20
19.0
  0
LWPOLYLINE
  5
10B
330
1B
100
AcDbEntity
 67
1
  8
R-TABLICZKA
370
25
100
AcDbPolyline
 90
2
 70
0
 10
468.0
 20
10.0
 10
468.0
 20
19.0
  0
LWPOLYLINE
  5
10C
330
1B
100
AcDbEntity
 67
1
  8
R-TABLICZKA
370
25
100
AcDbPolyline
 90
2
 70
0
 10
496.0
 20
10.0
 10
496.0
 20
19.0
  0
LWPOLYLINE
  5
10D
330
1B
100
AcDbEntity
 67
1
  8
R-TABLICZKA
370
25
100
AcDbPolyline
 90
2
 70
0
 10
548.0
 20
10.0
 10
548.0
 20
19.0
  0
LWPOLYLINE
  5
10E
330
1B
100
AcDbEntity
 67
1
  8
R-TABLICZKA
370
25
100
AcDbPolyline
 90
2
 70
0
 10
566.0
 20
10.0
 10
566.0
 20
19.0
  0
LWPOLYLINE
  5
10F
330
1B
100
AcDbEntity
 67
1
  8
R-TABLICZKA
370
50
100
AcDbPolyline
 90
4
 70
1
 10
404.0
 20
10.0
 10
584.0
 20
10.0
 10
584.0
 20
103.0
 10
404.0
 20
103.0
  0
LWPOLYLINE
  5
110
330
1B
100
AcDbEntity
 67
1
  8
R-TABLICZKA
370
18
100
AcDbPolyline
 90
2
 70
0
 10
404.0
 20
108.0
 10
584.0
 20
108.0
  0
LWPOLYLINE
  5
111
330
1B
100
AcDbEntity
 67
1
  8
R-TABLICZKA
370
18
100
AcDbPolyline
 90
2
 70
0
 10
404.0
 20
113.0
 10
584.0
 20
113.0
  0
LWPOLYLINE
  5
112
330
1B
100
AcDbEntity
 67
1
  8
R-TABLICZKA
370
18
100
AcDbPolyline
 90
2
 70
0
 10
422.0
 20
103.0
 10
422.0
 20
113.0
  0
LWPOLYLINE
  5
113
330
1B
100
AcDbEntity
 67
1
  8
R-TABLICZKA
370
18
100
AcDbPolyline
 90
2
 70
0
 10
544.0
 20
103.0
 10
544.0
 20
113.0
  0
LWPOLYLINE
  5
114
330
1B
100
AcDbEntity
 67
1
  8
R-TABLICZKA
370
25
100
AcDbPolyline
 90
4
 70
1
 10
404.0
 20
103.0
 10
584.0
 20
103.0
 10
584.0
 20
113.0
 10
404.0
 20
113.0
  0
TEXT
  5
115
330
1B
100
AcDbEntity
 67
1
  8
R-OPISY
100
AcDbText
 10
58.50534635475813
 20
121.60661578947361
 30
0.0
 40
5.0
  1
ELEWACJA WSCHODNIA
  7
PL_ARIAL_B
 11
58.50534635475813
 21
121.60661578947361
 31
0.0
100
AcDbText
  0
TEXT
  5
116
330
1B
100
AcDbEntity
 67
1
  8
R-OPISY
100
AcDbText
 10
149.26028616852147
 20
121.60661578947361
 30
0.0
 40
3.5
  1
1:50
  7
PL_ARIAL
 11
149.26028616852147
 21
121.60661578947361
 31
0.0
100
AcDbText
  0
TEXT
  5
117
330
1B
100
AcDbEntity
 67
1
  8
R-LEGENDA
100
AcDbText
 10
404.0
 20
403.5
 30
0.0
 40
3.5
  1
KOLORYSTYKA I MATERIAŁY ELEWACJI
  7
PL_ARIAL_B
 11
404.0
 21
403.5
 31
0.0
100
AcDbText
  0
TEXT
  5
118
330
1B
100
AcDbEntity
 67
1
  8
R-LEGENDA
100
AcDbText
 10
427.0
 20
399.3
 30
0.0
 40
1.8
  1
Tynk silikonowy cienkowarstwowy, biały [TYNK_SIL]
  7
PL_ARIAL
 11
427.0
 21
399.3
 31
0.0
100
AcDbText
  0
TEXT
  5
119
330
1B
100
AcDbEntity
 67
1
  8
R-LEGENDA
420
5263440
100
AcDbText
 10
573.9995457642516
 20
399.3
 30
0.0
 40
1.8
  1
#f5f4f0
  7
PL_ARIAL
 11
573.9995457642516
 21
399.3
 31
0.0
100
AcDbText
  0
TEXT
  5
11A
330
1B
100
AcDbEntity
 67
1
  8
R-LEGENDA
100
AcDbText
 10
427.0
 20
393.3
 30
0.0
 40
1.8
  1
Szkło (szyby zespolone) [SZKLO]
  7
PL_ARIAL
 11
427.0
 21
393.3
 31
0.0
100
AcDbText
  0
TEXT
  5
11B
330
1B
100
AcDbEntity
 67
1
  8
R-LEGENDA
420
5263440
100
AcDbText
 10
572.1087894617307
 20
393.3
 30
0.0
 40
1.8
  1
#a9c3cd
  7
PL_ARIAL
 11
572.1087894617307
 21
393.3
 31
0.0
100
AcDbText
  0
TEXT
  5
11C
330
1B
100
AcDbEntity
 67
1
  8
R-LEGENDA
100
AcDbText
 10
427.0
 20
387.3
 30
0.0
 40
1.8
  1
Balustrada — szkło klejone [SZKLO_BAL]
  7
PL_ARIAL
 11
427.0
 21
387.3
 31
0.0
100
AcDbText
  0
TEXT
  5
11D
330
1B
100
AcDbEntity
 67
1
  8
R-LEGENDA
420
5263440
100
AcDbText
 10
571.9620258914376
 20
387.3
 30
0.0
 40
1.8
  1
#c9dde2
  7
PL_ARIAL
 11
571.9620258914376
 21
387.3
 31
0.0
100
AcDbText
  0
TEXT
  5
11E
330
1B
100
AcDbEntity
 67
1
  8
R-LEGENDA
100
AcDbText
 10
427.0
 20
381.3
 30
0.0
 40
1.8
  1
Stolarka — profile aluminiowe, antracyt [RAMA_ALU]
  7
PL_ARIAL
 11
427.0
 21
381.3
 31
0.0
100
AcDbText
  0
TEXT
  5
11F
330
1B
100
AcDbEntity
 67
1
  8
R-LEGENDA
420
5263440
100
AcDbText
 10
572.5433568021804
 20
381.3
 30
0.0
 40
1.8
  1
#2b2f33
  7
PL_ARIAL
 11
572.5433568021804
 21
381.3
 31
0.0
100
AcDbText
  0
TEXT
  5
120
330
1B
100
AcDbEntity
 67
1
  8
R-LEGENDA
100
AcDbText
 10
427.0
 20
375.3
 30
0.0
 40
1.8
  1
Żelbet C30/37 [ZB_C30]
  7
PL_ARIAL
 11
427.0
 21
375.3
 31
0.0
100
AcDbText
  0
TEXT
  5
121
330
1B
100
AcDbEntity
 67
1
  8
R-LEGENDA
420
5263440
100
AcDbText
 10
571.8152623211447
 20
375.3
 30
0.0
 40
1.8
  1
#b9b6ae
  7
PL_ARIAL
 11
571.8152623211447
 21
375.3
 31
0.0
100
AcDbText
  0
TEXT
  5
122
330
1B
100
AcDbEntity
 67
1
  8
R-LEGENDA
100
AcDbText
 10
427.0
 20
369.3
 30
0.0
 40
1.8
  1
Podbudowa nawierzchni (kruszywo) [NAW_PODBUDOWA]
  7
PL_ARIAL
 11
427.0
 21
369.3
 31
0.0
100
AcDbText
  0
TEXT
  5
123
330
1B
100
AcDbEntity
 67
1
  8
R-LEGENDA
420
5263440
100
AcDbText
 10
571.8152623211447
 20
369.3
 30
0.0
 40
1.8
  1
#8d877d
  7
PL_ARIAL
 11
571.8152623211447
 21
369.3
 31
0.0
100
AcDbText
  0
TEXT
  5
124
330
1B
100
AcDbEntity
 67
1
  8
R-LEGENDA
100
AcDbText
 10
427.0
 20
363.3
 30
0.0
 40
1.8
  1
Stal konstrukcyjna S355, malowana proszkowo RAL 7016 [STAL_S355]
  7
PL_ARIAL
 11
427.0
 21
363.3
 31
0.0
100
AcDbText
  0
TEXT
  5
125
330
1B
100
AcDbEntity
 67
1
  8
R-LEGENDA
420
5263440
100
AcDbText
 10
571.8152623211447
 20
363.3
 30
0.0
 40
1.8
  1
#383e42
  7
PL_ARIAL
 11
571.8152623211447
 21
363.3
 31
0.0
100
AcDbText
  0
TEXT
  5
126
330
1B
100
AcDbEntity
 67
1
  8
R-LEGENDA
100
AcDbText
 10
427.0
 20
357.3
 30
0.0
 40
1.8
  1
Drewno termojesion (lamele elewacyjne) [DREWNO_TERMO]
  7
PL_ARIAL
 11
427.0
 21
357.3
 31
0.0
100
AcDbText
  0
TEXT
  5
127
330
1B
100
AcDbEntity
 67
1
  8
R-LEGENDA
420
5263440
100
AcDbText
 10
571.8152623211447
 20
357.3
 30
0.0
 40
1.8
  1
#9b6b41
  7
PL_ARIAL
 11
571.8152623211447
 21
357.3
 31
0.0
100
AcDbText
  0
TEXT
  5
128
330
1B
100
AcDbEntity
 67
1
  8
R-LEGENDA
100
AcDbText
 10
427.0
 20
351.3
 30
0.0
 40
1.8
  1
Obróbki blacharskie (blacha powlekana) [OBROBKA_BLACH]
  7
PL_ARIAL
 11
427.0
 21
351.3
 31
0.0
100
AcDbText
  0
TEXT
  5
129
330
1B
100
AcDbEntity
 67
1
  8
R-LEGENDA
420
5263440
100
AcDbText
 10
572.5433568021804
 20
351.3
 30
0.0
 40
1.8
  1
#3b3f43
  7
PL_ARIAL
 11
572.5433568021804
 21
351.3
 31
0.0
100
AcDbText
  0
TEXT
  5
12A
330
1B
100
AcDbEntity
 67
1
  8
R-OPISY
100
AcDbText
 10
406.0
 20
335.0
 30
0.0
 40
3.5
  1
OBJAŚNIENIA I UWAGI
  7
PL_ARIAL_B
 11
406.0
 21
335.0
 31
0.0
100
AcDbText
  0
TEXT
  5
12B
330
1B
100
AcDbEntity
 67
1
  8
R-OPISY
100
AcDbText
 10
406.0
 20
328.7
 30
0.0
 40
1.8
  1
1. 
  7
PL_ARIAL
 11
406.0
 21
328.7
 31
0.0
100
AcDbText
  0
TEXT
  5
12C
330
1B
100
AcDbEntity
 67
1
  8
R-OPISY
100
AcDbText
 10
408.90869861458094
 20
328.7
 30
0.0
 40
1.8
  1
Wymiary w cm (mm w indeksie górnym, np. 24⁵ = 24,5 cm), rzędne w m względem ±0,000 = 101,650 m n.p.m. (PL-EVRF2007-NH).
  7
PL_ARIAL
 11
408.90869861458094
 21
328.7
 31
0.0
100
AcDbText
  0
TEXT
  5
12D
330
1B
100
AcDbEntity
 67
1
  8
R-OPISY
100
AcDbText
 10
406.0
 20
325.28
 30
0.0
 40
1.8
  1
2. 
  7
PL_ARIAL
 11
406.0
 21
325.28
 31
0.0
100
AcDbText
  0
TEXT
  5
12E
330
1B
100
AcDbEntity
 67
1
  8
R-OPISY
100
AcDbText
 10
408.90869861458094
 20
325.28
 30
0.0
 40
1.8
  1
Rzędne: trójkąt zaczerniony — poziom wykończenia, niezaczerniony — konstrukcji, w połowie zaczerniony — poziom ±0,000 z rzędną bezwzględną
  7
PL_ARIAL
 11
408.90869861458094
 21
325.28
 31
0.0
100
AcDbText
  0
TEXT
  5
12F
330
1B
100
AcDbEntity
 67
1
  8
R-OPISY
100
AcDbText
 10
408.90869861458094
 20
322.4
 30
0.0
 40
1.8
  1
(PN-B-01025).
  7
PL_ARIAL
 11
408.90869861458094
 21
322.4
 31
0.0
100
AcDbText
  0
TEXT
  5
130
330
1B
100
AcDbEntity
 67
1
  8
R-OPISY
100
AcDbText
 10
406.0
 20
318.97999999999996
 30
0.0
 40
1.8
  1
3. 
  7
PL_ARIAL
 11
406.0
 21
318.97999999999996
 31
0.0
100
AcDbText
  0
TEXT
  5
131
330
1B
100
AcDbEntity
 67
1
  8
R-OPISY
100
AcDbText
 10
408.90869861458094
 20
318.97999999999996
 30
0.0
 40
1.8
  1
Wysokość budynku wg § 6 WT: od terenu przy najniżej położonym wejściu (−0,273) do wierzchu stropodachu D1 (+6,193) — H = 6,47 m (bez attyk).
  7
PL_ARIAL
 11
408.90869861458094
 21
318.97999999999996
 31
0.0
100
AcDbText
  0
TEXT
  5
132
330
1B
100
AcDbEntity
 67
1
  8
R-OPISY
100
AcDbText
 10
406.0
 20
315.55999999999995
 30
0.0
 40
1.8
  1
4. 
  7
PL_ARIAL
 11
406.0
 21
315.55999999999995
 31
0.0
100
AcDbText
  0
TEXT
  5
133
330
1B
100
AcDbEntity
 67
1
  8
R-OPISY
100
AcDbText
 10
408.90869861458094
 20
315.55999999999995
 30
0.0
 40
1.8
  1
Kolorystyka orientacyjna wg kolorów materiałów w modelu (do potwierdzenia wzornikiem RAL/NCS).
  7
PL_ARIAL
 11
408.90869861458094
 21
315.55999999999995
 31
0.0
100
AcDbText
  0
TEXT
  5
134
330
1B
100
AcDbEntity
 67
1
  8
R-OPISY
100
AcDbText
 10
406.0
 20
312.13999999999993
 30
0.0
 40
1.8
  1
5. 
  7
PL_ARIAL
 11
406.0
 21
312.13999999999993
 31
0.0
100
AcDbText
  0
TEXT
  5
135
330
1B
100
AcDbEntity
 67
1
  8
R-OPISY
100
AcDbText
 10
408.90869861458094
 20
312.13999999999993
 30
0.0
 40
1.8
  1
MODEL TESTOWY — rysunek próbny generatorów widoków; dane nie stanowią projektu.
  7
PL_ARIAL
 11
408.90869861458094
 21
312.13999999999993
 31
0.0
100
AcDbText
  0
TEXT
  5
136
330
1B
100
AcDbEntity
 67
1
  8
R-OPISY
100
AcDbText
 10
406.0
 20
308.7199999999999
 30
0.0
 40
1.8
  1
6. 
  7
PL_ARIAL
 11
406.0
 21
308.7199999999999
 31
0.0
100
AcDbText
  0
TEXT
  5
137
330
1B
100
AcDbEntity
 67
1
  8
R-OPISY
100
AcDbText
 10
408.90869861458094
 20
308.7199999999999
 30
0.0
 40
1.8
  1
Rysunek wygenerowany automatycznie z modelu model/test/dom_testowy.yaml (wersja 1.0, 2026-09-25) — generatory lamela.views.
  7
PL_ARIAL
 11
408.90869861458094
 21
308.7199999999999
 31
0.0
100
AcDbText
  0
TEXT
  5
138
330
1B
100
AcDbEntity
 67
1
  8
R-OPISY
100
AcDbText
 10
407.27251873722463
 20
295.5199999999999
 30
0.0
 40
1.8
  1
1
  7
PL_ARIAL
 11
407.27251873722463
 21
295.5199999999999
 31
0.0
100
AcDbText
  0
TEXT
  5
139
330
1B
100
AcDbEntity
 67
1
  8
R-OPISY
100
AcDbText
 10
427.27251873722463
 20
295.5199999999999
 30
0.0
 40
1.8
  1
0
  7
PL_ARIAL
 11
427.27251873722463
 21
295.5199999999999
 31
0.0
100
AcDbText
  0
TEXT
  5
13A
330
1B
100
AcDbEntity
 67
1
  8
R-OPISY
100
AcDbText
 10
447.27251873722463
 20
295.5199999999999
 30
0.0
 40
1.8
  1
1
  7
PL_ARIAL
 11
447.27251873722463
 21
295.5199999999999
 31
0.0
100
AcDbText
  0
TEXT
  5
13B
330
1B
100
AcDbEntity
 67
1
  8
R-OPISY
100
AcDbText
 10
467.27251873722463
 20
295.5199999999999
 30
0.0
 40
1.8
  1
2
  7
PL_ARIAL
 11
467.27251873722463
 21
295.5199999999999
 31
0.0
100
AcDbText
  0
TEXT
  5
13C
330
1B
100
AcDbEntity
 67
1
  8
R-OPISY
100
AcDbText
 10
487.27251873722463
 20
295.5199999999999
 30
0.0
 40
1.8
  1
3
  7
PL_ARIAL
 11
487.27251873722463
 21
295.5199999999999
 31
0.0
100
AcDbText
  0
TEXT
  5
13D
330
1B
100
AcDbEntity
 67
1
  8
R-OPISY
100
AcDbText
 10
507.27251873722463
 20
295.5199999999999
 30
0.0
 40
1.8
  1
4
  7
PL_ARIAL
 11
507.27251873722463
 21
295.5199999999999
 31
0.0
100
AcDbText
  0
TEXT
  5
13E
330
1B
100
AcDbEntity
 67
1
  8
R-OPISY
100
AcDbText
 10
527.2725187372246
 20
295.5199999999999
 30
0.0
 40
1.8
  1
5
  7
PL_ARIAL
 11
527.2725187372246
 21
295.5199999999999
 31
0.0
100
AcDbText
  0
TEXT
  5
13F
330
1B
100
AcDbEntity
 67
1
  8
R-OPISY
100
AcDbText
 10
530.0
 20
292.9199999999999
 30
0.0
 40
1.8
  1
m
  7
PL_ARIAL
 11
530.0
 21
292.9199999999999
 31
0.0
100
AcDbText
  0
TEXT
  5
140
330
1B
100
AcDbEntity
 67
1
  8
R-OPISY
100
AcDbText
 10
408.0
 20
289.9199999999999
 30
0.0
 40
1.8
  1
PODZIAŁKA 1:50
  7
PL_ARIAL_B
 11
408.0
 21
289.9199999999999
 31
0.0
100
AcDbText
  0
TEXT
  5
141
330
1B
100
AcDbEntity
 67
1
  8
R-OPISY
100
AcDbText
 10
12.8
 20
119.5
 30
0.0
 40
1.8
  1
odcinek kontrolny 100 mm (wydruk 1:1)
 50
90.0
  7
PL_ARIAL
 11
12.8
 21
119.5
 31
0.0
100
AcDbText
  0
TEXT
  5
142
330
1B
100
AcDbEntity
 67
1
  8
R-RAMKA
100
AcDbText
 10
32.08545310015898
 20
413.25
 30
0.0
 40
3.5
  1
1
  7
PL_ARIAL
 11
32.08545310015898
 21
413.25
 31
0.0
100
AcDbText
  0
TEXT
  5
143
330
1B
100
AcDbEntity
 67
1
  8
R-RAMKA
100
AcDbText
 10
32.08545310015898
 20
3.25
 30
0.0
 40
3.5
  1
1
  7
PL_ARIAL
 11
32.08545310015898
 21
3.25
 31
0.0
100
AcDbText
  0
TEXT
  5
144
330
1B
100
AcDbEntity
 67
1
  8
R-RAMKA
100
AcDbText
 10
70.58545310015899
 20
413.25
 30
0.0
 40
3.5
  1
2
  7
PL_ARIAL
 11
70.58545310015899
 21
413.25
 31
0.0
100
AcDbText
  0
TEXT
  5
145
330
1B
100
AcDbEntity
 67
1
  8
R-RAMKA
100
AcDbText
 10
70.58545310015899
 20
3.25
 30
0.0
 40
3.5
  1
2
  7
PL_ARIAL
 11
70.58545310015899
 21
3.25
 31
0.0
100
AcDbText
  0
TEXT
  5
146
330
1B
100
AcDbEntity
 67
1
  8
R-RAMKA
100
AcDbText
 10
120.58545310015899
 20
413.25
 30
0.0
 40
3.5
  1
3
  7
PL_ARIAL
 11
120.58545310015899
 21
413.25
 31
0.0
100
AcDbText
  0
TEXT
  5
147
330
1B
100
AcDbEntity
 67
1
  8
R-RAMKA
100
AcDbText
 10
120.58545310015899
 20
3.25
 30
0.0
 40
3.5
  1
3
  7
PL_ARIAL
 11
120.58545310015899
 21
3.25
 31
0.0
100
AcDbText
  0
TEXT
  5
148
330
1B
100
AcDbEntity
 67
1
  8
R-RAMKA
100
AcDbText
 10
170.585453100159
 20
413.25
 30
0.0
 40
3.5
  1
4
  7
PL_ARIAL
 11
170.585453100159
 21
413.25
 31
0.0
100
AcDbText
  0
TEXT
  5
149
330
1B
100
AcDbEntity
 67
1
  8
R-RAMKA
100
AcDbText
 10
170.585453100159
 20
3.25
 30
0.0
 40
3.5
  1
4
  7
PL_ARIAL
 11
170.585453100159
 21
3.25
 31
0.0
100
AcDbText
  0
TEXT
  5
14A
330
1B
100
AcDbEntity
 67
1
  8
R-RAMKA
100
AcDbText
 10
220.585453100159
 20
413.25
 30
0.0
 40
3.5
  1
5
  7
PL_ARIAL
 11
220.585453100159
 21
413.25
 31
0.0
100
AcDbText
  0
TEXT
  5
14B
330
1B
100
AcDbEntity
 67
1
  8
R-RAMKA
100
AcDbText
 10
220.585453100159
 20
3.25
 30
0.0
 40
3.5
  1
5
  7
PL_ARIAL
 11
220.585453100159
 21
3.25
 31
0.0
100
AcDbText
  0
TEXT
  5
14C
330
1B
100
AcDbEntity
 67
1
  8
R-RAMKA
100
AcDbText
 10
270.585453100159
 20
413.25
 30
0.0
 40
3.5
  1
6
  7
PL_ARIAL
 11
270.585453100159
 21
413.25
 31
0.0
100
AcDbText
  0
TEXT
  5
14D
330
1B
100
AcDbEntity
 67
1
  8
R-RAMKA
100
AcDbText
 10
270.585453100159
 20
3.25
 30
0.0
 40
3.5
  1
6
  7
PL_ARIAL
 11
270.585453100159
 21
3.25
 31
0.0
100
AcDbText
  0
TEXT
  5
14E
330
1B
100
AcDbEntity
 67
1
  8
R-RAMKA
100
AcDbText
 10
320.585453100159
 20
413.25
 30
0.0
 40
3.5
  1
7
  7
PL_ARIAL
 11
320.585453100159
 21
413.25
 31
0.0
100
AcDbText
  0
TEXT
  5
14F
330
1B
100
AcDbEntity
 67
1
  8
R-RAMKA
100
AcDbText
 10
320.585453100159
 20
3.25
 30
0.0
 40
3.5
  1
7
  7
PL_ARIAL
 11
320.585453100159
 21
3.25
 31
0.0
100
AcDbText
  0
TEXT
  5
150
330
1B
100
AcDbEntity
 67
1
  8
R-RAMKA
100
AcDbText
 10
370.585453100159
 20
413.25
 30
0.0
 40
3.5
  1
8
  7
PL_ARIAL
 11
370.585453100159
 21
413.25
 31
0.0
100
AcDbText
  0
TEXT
  5
151
330
1B
100
AcDbEntity
 67
1
  8
R-RAMKA
100
AcDbText
 10
370.585453100159
 20
3.25
 30
0.0
 40
3.5
  1
8
  7
PL_ARIAL
 11
370.585453100159
 21
3.25
 31
0.0
100
AcDbText
  0
TEXT
  5
152
330
1B
100
AcDbEntity
 67
1
  8
R-RAMKA
100
AcDbText
 10
420.585453100159
 20
413.25
 30
0.0
 40
3.5
  1
9
  7
PL_ARIAL
 11
420.585453100159
 21
413.25
 31
0.0
100
AcDbText
  0
TEXT
  5
153
330
1B
100
AcDbEntity
 67
1
  8
R-RAMKA
100
AcDbText
 10
420.585453100159
 20
3.25
 30
0.0
 40
3.5
  1
9
  7
PL_ARIAL
 11
420.585453100159
 21
3.25
 31
0.0
100
AcDbText
  0
TEXT
  5
154
330
1B
100
AcDbEntity
 67
1
  8
R-RAMKA
100
AcDbText
 10
469.170906200318
 20
413.25
 30
0.0
 40
3.5
  1
10
  7
PL_ARIAL
 11
469.170906200318
 21
413.25
 31
0.0
100
AcDbText
  0
TEXT
  5
155
330
1B
100
AcDbEntity
 67
1
  8
R-RAMKA
100
AcDbText
 10
469.170906200318
 20
3.25
 30
0.0
 40
3.5
  1
10
  7
PL_ARIAL
 11
469.170906200318
 21
3.25
 31
0.0
100
AcDbText
  0
TEXT
  5
156
330
1B
100
AcDbEntity
 67
1
  8
R-RAMKA
100
AcDbText
 10
519.3596979332274
 20
413.25
 30
0.0
 40
3.5
  1
11
  7
PL_ARIAL
 11
519.3596979332274
 21
413.25
 31
0.0
100
AcDbText
  0
TEXT
  5
157
330
1B
100
AcDbEntity
 67
1
  8
R-RAMKA
100
AcDbText
 10
519.3596979332274
 20
3.25
 30
0.0
 40
3.5
  1
11
  7
PL_ARIAL
 11
519.3596979332274
 21
3.25
 31
0.0
100
AcDbText
  0
TEXT
  5
158
330
1B
100
AcDbEntity
 67
1
  8
R-RAMKA
100
AcDbText
 10
562.670906200318
 20
413.25
 30
0.0
 40
3.5
  1
12
  7
PL_ARIAL
 11
562.670906200318
 21
413.25
 31
0.0
100
AcDbText
  0
TEXT
  5
159
330
1B
100
AcDbEntity
 67
1
  8
R-RAMKA
100
AcDbText
 10
562.670906200318
 20
3.25
 30
0.0
 40
3.5
  1
12
  7
PL_ARIAL
 11
562.670906200318
 21
3.25
 31
0.0
100
AcDbText
  0
TEXT
  5
15A
330
1B
100
AcDbEntity
 67
1
  8
R-RAMKA
100
AcDbText
 10
587.3032591414944
 20
383.25
 30
0.0
 40
3.5
  1
A
  7
PL_ARIAL
 11
587.3032591414944
 21
383.25
 31
0.0
100
AcDbText
  0
TEXT
  5
15B
330
1B
100
AcDbEntity
 67
1
  8
R-RAMKA
100
AcDbText
 10
13.303259141494436
 20
383.25
 30
0.0
 40
3.5
  1
A
  7
PL_ARIAL
 11
13.303259141494436
 21
383.25
 31
0.0
100
AcDbText
  0
TEXT
  5
15C
330
1B
100
AcDbEntity
 67
1
  8
R-RAMKA
100
AcDbText
 10
587.3032591414944
 20
333.25
 30
0.0
 40
3.5
  1
B
  7
PL_ARIAL
 11
587.3032591414944
 21
333.25
 31
0.0
100
AcDbText
  0
TEXT
  5
15D
330
1B
100
AcDbEntity
 67
1
  8
R-RAMKA
100
AcDbText
 10
13.303259141494436
 20
333.25
 30
0.0
 40
3.5
  1
B
  7
PL_ARIAL
 11
13.303259141494436
 21
333.25
 31
0.0
100
AcDbText
  0
TEXT
  5
15E
330
1B
100
AcDbEntity
 67
1
  8
R-RAMKA
100
AcDbText
 10
587.1629570747218
 20
283.25
 30
0.0
 40
3.5
  1
C
  7
PL_ARIAL
 11
587.1629570747218
 21
283.25
 31
0.0
100
AcDbText
  0
TEXT
  5
15F
330
1B
100
AcDbEntity
 67
1
  8
R-RAMKA
100
AcDbText
 10
13.162957074721781
 20
283.25
 30
0.0
 40
3.5
  1
C
  7
PL_ARIAL
 11
13.162957074721781
 21
283.25
 31
0.0
100
AcDbText
  0
TEXT
  5
160
330
1B
100
AcDbEntity
 67
1
  8
R-RAMKA
100
AcDbText
 10
587.1629570747218
 20
233.25
 30
0.0
 40
3.5
  1
D
  7
PL_ARIAL
 11
587.1629570747218
 21
233.25
 31
0.0
100
AcDbText
  0
TEXT
  5
161
330
1B
100
AcDbEntity
 67
1
  8
R-RAMKA
100
AcDbText
 10
13.162957074721781
 20
233.25
 30
0.0
 40
3.5
  1
D
  7
PL_ARIAL
 11
13.162957074721781
 21
233.25
 31
0.0
100
AcDbText
  0
TEXT
  5
162
330
1B
100
AcDbEntity
 67
1
  8
R-RAMKA
100
AcDbText
 10
587.3032591414944
 20
183.25
 30
0.0
 40
3.5
  1
E
  7
PL_ARIAL
 11
587.3032591414944
 21
183.25
 31
0.0
100
AcDbText
  0
TEXT
  5
163
330
1B
100
AcDbEntity
 67
1
  8
R-RAMKA
100
AcDbText
 10
13.303259141494436
 20
183.25
 30
0.0
 40
3.5
  1
E
  7
PL_ARIAL
 11
13.303259141494436
 21
183.25
 31
0.0
100
AcDbText
  0
TEXT
  5
164
330
1B
100
AcDbEntity
 67
1
  8
R-RAMKA
100
AcDbText
 10
587.4463434022258
 20
133.25
 30
0.0
 40
3.5
  1
F
  7
PL_ARIAL
 11
587.4463434022258
 21
133.25
 31
0.0
100
AcDbText
  0
TEXT
  5
165
330
1B
100
AcDbEntity
 67
1
  8
R-RAMKA
100
AcDbText
 10
13.446343402225756
 20
133.25
 30
0.0
 40
3.5
  1
F
  7
PL_ARIAL
 11
13.446343402225756
 21
133.25
 31
0.0
100
AcDbText
  0
TEXT
  5
166
330
1B
100
AcDbEntity
 67
1
  8
R-RAMKA
100
AcDbText
 10
587.0214626391097
 20
83.25
 30
0.0
 40
3.5
  1
G
  7
PL_ARIAL
 11
587.0214626391097
 21
83.25
 31
0.0
100
AcDbText
  0
TEXT
  5
167
330
1B
100
AcDbEntity
 67
1
  8
R-RAMKA
100
AcDbText
 10
13.021462639109698
 20
83.25
 30
0.0
 40
3.5
  1
G
  7
PL_ARIAL
 11
13.021462639109698
 21
83.25
 31
0.0
100
AcDbText
  0
TEXT
  5
168
330
1B
100
AcDbEntity
 67
1
  8
R-RAMKA
100
AcDbText
 10
587.1629570747218
 20
33.25
 30
0.0
 40
3.5
  1
H
  7
PL_ARIAL
 11
587.1629570747218
 21
33.25
 31
0.0
100
AcDbText
  0
TEXT
  5
169
330
1B
100
AcDbEntity
 67
1
  8
R-RAMKA
100
AcDbText
 10
13.162957074721781
 20
33.25
 30
0.0
 40
3.5
  1
H
  7
PL_ARIAL
 11
13.162957074721781
 21
33.25
 31
0.0
100
AcDbText
  0
TEXT
  5
16A
330
1B
100
AcDbEntity
 67
1
  8
R-RAMKA
100
AcDbText
 10
568.0726777197366
 20
4.1
 30
0.0
 40
1.8
  1
A2 (594×420)
  7
PL_ARIAL
 11
568.0726777197366
 21
4.1
 31
0.0
100
AcDbText
  0
TEXT
  5
16B
330
1B
100
AcDbEntity
 67
1
  8
R-TABLICZKA
100
AcDbText
 10
405.2
 20
100.0
 30
0.0
 40
1.8
  1
PRACOWNIA PROJEKTOWA
  7
PL_ARIAL
 11
405.2
 21
100.0
 31
0.0
100
AcDbText
  0
TEXT
  5
16C
330
1B
100
AcDbEntity
 67
1
  8
R-TABLICZKA
100
AcDbText
 10
405.2
 20
96.1
 30
0.0
 40
2.5
  1
PRACOWNIA PROJEKTOWA — nazwa do uzupełnienia
  7
PL_ARIAL_B
 11
405.2
 21
96.1
 31
0.0
100
AcDbText
  0
TEXT
  5
16D
330
1B
100
AcDbEntity
 67
1
  8
R-TABLICZKA
100
AcDbText
 10
405.2
 20
92.4
 30
0.0
 40
1.8
  1
adres pracowni do uzupełnienia
  7
PL_ARIAL
 11
405.2
 21
92.4
 31
0.0
100
AcDbText
  0
TEXT
  5
16E
330
1B
100
AcDbEntity
 67
1
  8
R-TABLICZKA
100
AcDbText
 10
515.2
 20
100.0
 30
0.0
 40
1.8
  1
STADIUM
  7
PL_ARIAL
 11
515.2
 21
100.0
 31
0.0
100
AcDbText
  0
TEXT
  5
16F
330
1B
100
AcDbEntity
 67
1
  8
R-TABLICZKA
100
AcDbText
 10
521.4517374517375
 20
93.5
 30
0.0
 40
5.0
  1
PB
  7
PL_ARIAL_B
 11
521.4517374517375
 21
93.5
 31
0.0
100
AcDbText
  0
TEXT
  5
170
330
1B
100
AcDbEntity
 67
1
  8
R-TABLICZKA
100
AcDbText
 10
540.2
 20
100.0
 30
0.0
 40
1.8
  1
BRANŻA
  7
PL_ARIAL
 11
540.2
 21
100.0
 31
0.0
100
AcDbText
  0
TEXT
  5
171
330
1B
100
AcDbEntity
 67
1
  8
R-TABLICZKA
100
AcDbText
 10
540.2
 20
94.44999999999999
 30
0.0
 40
2.5
  1
ARCHITEKTURA (AR)
  7
PL_ARIAL_B
 11
540.2
 21
94.44999999999999
 31
0.0
100
AcDbText
  0
TEXT
  5
172
330
1B
100
AcDbEntity
 67
1
  8
R-TABLICZKA
100
AcDbText
 10
405.2
 20
88.0
 30
0.0
 40
1.8
  1
INWESTOR
  7
PL_ARIAL
 11
405.2
 21
88.0
 31
0.0
100
AcDbText
  0
TEXT
  5
173
330
1B
100
AcDbEntity
 67
1
  8
R-TABLICZKA
100
AcDbText
 10
405.2
 20
84.44999999999999
 30
0.0
 40
2.5
  1
(do uzupełnienia)
  7
PL_ARIAL
 11
405.2
 21
84.44999999999999
 31
0.0
100
AcDbText
  0
TEXT
  5
174
330
1B
100
AcDbEntity
 67
1
  8
R-TABLICZKA
100
AcDbText
 10
405.2
 20
80.0
 30
0.0
 40
1.8
  1
OBIEKT / NAZWA ZAMIERZENIA BUDOWLANEGO
  7
PL_ARIAL
 11
405.2
 21
80.0
 31
0.0
100
AcDbText
  0
TEXT
  5
175
330
1B
100
AcDbEntity
 67
1
  8
R-TABLICZKA
100
AcDbText
 10
405.2
 20
75.19999999999999
 30
0.0
 40
2.5
  1
Budynek testowy pipeline'u (model testowy) — NIE jest projektem Domu LAMELA
  7
PL_ARIAL_B
 11
405.2
 21
75.19999999999999
 31
0.0
100
AcDbText
  0
TEXT
  5
176
330
1B
100
AcDbEntity
 67
1
  8
R-TABLICZKA
100
AcDbText
 10
405.2
 20
69.5
 30
0.0
 40
1.8
  1
ADRES / LOKALIZACJA (NR DZIAŁKI, OBRĘB, JEDN. EWIDENCYJNA)
  7
PL_ARIAL
 11
405.2
 21
69.5
 31
0.0
100
AcDbText
  0
TEXT
  5
177
330
1B
100
AcDbEntity
 67
1
  8
R-TABLICZKA
100
AcDbText
 10
405.2
 20
65.716
 30
0.0
 40
1.8
  1
dz. nr ewid. T-1/1, obręb 0000 Testowo
  7
PL_ARIAL
 11
405.2
 21
65.716
 31
0.0
100
AcDbText
  0
TEXT
  5
178
330
1B
100
AcDbEntity
 67
1
  8
R-TABLICZKA
100
AcDbText
 10
555.2
 20
69.5
 30
0.0
 40
1.8
  1
KAT. OBIEKTU
  7
PL_ARIAL
 11
555.2
 21
69.5
 31
0.0
100
AcDbText
  0
TEXT
  5
179
330
1B
100
AcDbEntity
 67
1
  8
R-TABLICZKA
100
AcDbText
 10
568.2933227344992
 20
65.07
 30
0.0
 40
3.5
  1
I
  7
PL_ARIAL_B
 11
568.2933227344992
 21
65.07
 31
0.0
100
AcDbText
  0
TEXT
  5
17A
330
1B
100
AcDbEntity
 67
1
  8
R-TABLICZKA
100
AcDbText
 10
411.4673631614808
 20
60.35
 30
0.0
 40
1.8
  1
FUNKCJA
  7
PL_ARIAL
 11
411.4673631614808
 21
60.35
 31
0.0
100
AcDbText
  0
TEXT
  5
17B
330
1B
100
AcDbEntity
 67
1
  8
R-TABLICZKA
100
AcDbText
 10
441.74312968430615
 20
60.35
 30
0.0
 40
1.8
  1
IMIĘ I NAZWISKO
  7
PL_ARIAL
 11
441.74312968430615
 21
60.35
 31
0.0
100
AcDbText
  0
TEXT
  5
17C
330
1B
100
AcDbEntity
 67
1
  8
R-TABLICZKA
100
AcDbText
 10
480.9770156711333
 20
60.35
 30
0.0
 40
1.8
  1
SPECJALNOŚĆ, NR UPRAWNIEŃ
  7
PL_ARIAL
 11
480.9770156711333
 21
60.35
 31
0.0
100
AcDbText
  0
TEXT
  5
17D
330
1B
100
AcDbEntity
 67
1
  8
R-TABLICZKA
100
AcDbText
 10
535.7051782875312
 20
60.35
 30
0.0
 40
1.8
  1
DATA
  7
PL_ARIAL
 11
535.7051782875312
 21
60.35
 31
0.0
100
AcDbText
  0
TEXT
  5
17E
330
1B
100
AcDbEntity
 67
1
  8
R-TABLICZKA
100
AcDbText
 10
561.556438791733
 20
60.35
 30
0.0
 40
1.8
  1
PODPIS
  7
PL_ARIAL
 11
561.556438791733
 21
60.35
 31
0.0
100
AcDbText
  0
TEXT
  5
17F
330
1B
100
AcDbEntity
 67
1
  8
R-TABLICZKA
100
AcDbText
 10
405.2
 20
54.6
 30
0.0
 40
1.8
  1
Projektant
  7
PL_ARIAL
 11
405.2
 21
54.6
 31
0.0
100
AcDbText
  0
TEXT
  5
180
330
1B
100
AcDbEntity
 67
1
  8
R-TABLICZKA
100
AcDbText
 10
405.2
 20
47.6
 30
0.0
 40
1.8
  1
Projektant (wsp.)
  7
PL_ARIAL
 11
405.2
 21
47.6
 31
0.0
100
AcDbText
  0
TEXT
  5
181
330
1B
100
AcDbEntity
 67
1
  8
R-TABLICZKA
100
AcDbText
 10
405.2
 20
40.6
 30
0.0
 40
1.8
  1
Sprawdzający
  7
PL_ARIAL
 11
405.2
 21
40.6
 31
0.0
100
AcDbText
  0
TEXT
  5
182
330
1B
100
AcDbEntity
 67
1
  8
R-TABLICZKA
100
AcDbText
 10
405.2
 20
33.6
 30
0.0
 40
1.8
  1
Opracował
  7
PL_ARIAL
 11
405.2
 21
33.6
 31
0.0
100
AcDbText
  0
TEXT
  5
183
330
1B
100
AcDbEntity
 67
1
  8
R-TABLICZKA
100
AcDbText
 10
405.2
 20
28.0
 30
0.0
 40
1.8
  1
TYTUŁ RYSUNKU
  7
PL_ARIAL
 11
405.2
 21
28.0
 31
0.0
100
AcDbText
  0
TEXT
  5
184
330
1B
100
AcDbEntity
 67
1
  8
R-TABLICZKA
100
AcDbText
 10
405.2
 20
21.5
 30
0.0
 40
5.0
  1
ELEWACJA WSCHODNIA
  7
PL_ARIAL_B
 11
405.2
 21
21.5
 31
0.0
100
AcDbText
  0
TEXT
  5
185
330
1B
100
AcDbEntity
 67
1
  8
R-TABLICZKA
100
AcDbText
 10
405.2
 20
16.0
 30
0.0
 40
1.8
  1
SKALA
  7
PL_ARIAL
 11
405.2
 21
16.0
 31
0.0
100
AcDbText
  0
TEXT
  5
186
330
1B
100
AcDbEntity
 67
1
  8
R-TABLICZKA
100
AcDbText
 10
410.9093799682035
 20
11.57
 30
0.0
 40
3.5
  1
1:50
  7
PL_ARIAL_B
 11
410.9093799682035
 21
11.57
 31
0.0
100
AcDbText
  0
TEXT
  5
187
330
1B
100
AcDbEntity
 67
1
  8
R-TABLICZKA
100
AcDbText
 10
429.2
 20
16.0
 30
0.0
 40
1.8
  1
FORMAT
  7
PL_ARIAL
 11
429.2
 21
16.0
 31
0.0
100
AcDbText
  0
TEXT
  5
188
330
1B
100
AcDbEntity
 67
1
  8
R-TABLICZKA
100
AcDbText
 10
433.777651601181
 20
11.95
 30
0.0
 40
2.5
  1
A2
  7
PL_ARIAL
 11
433.777651601181
 21
11.95
 31
0.0
100
AcDbText
  0
TEXT
  5
189
330
1B
100
AcDbEntity
 67
1
  8
R-TABLICZKA
100
AcDbText
 10
445.2
 20
16.0
 30
0.0
 40
1.8
  1
DATA WYDANIA
  7
PL_ARIAL
 11
445.2
 21
16.0
 31
0.0
100
AcDbText
  0
TEXT
  5
18A
330
1B
100
AcDbEntity
 67
1
  8
R-TABLICZKA
100
AcDbText
 10
446.706904383375
 20
11.95
 30
0.0
 40
2.5
  1
2026-09-25
  7
PL_ARIAL
 11
446.706904383375
 21
11.95
 31
0.0
100
AcDbText
  0
TEXT
  5
18B
330
1B
100
AcDbEntity
 67
1
  8
R-TABLICZKA
100
AcDbText
 10
469.2
 20
16.0
 30
0.0
 40
1.8
  1
RODZAJ DOK.
  7
PL_ARIAL
 11
469.2
 21
16.0
 31
0.0
100
AcDbText
  0
TEXT
  5
18C
330
1B
100
AcDbEntity
 67
1
  8
R-TABLICZKA
100
AcDbText
 10
474.93038837156485
 20
11.95
 30
0.0
 40
2.5
  1
elewacja
  7
PL_ARIAL
 11
474.93038837156485
 21
11.95
 31
0.0
100
AcDbText
  0
TEXT
  5
18D
330
1B
100
AcDbEntity
 67
1
  8
R-TABLICZKA
100
AcDbText
 10
497.2
 20
16.0
 30
0.0
 40
1.8
  1
NR RYSUNKU
  7
PL_ARIAL
 11
497.2
 21
16.0
 31
0.0
100
AcDbText
  0
TEXT
  5
18E
330
1B
100
AcDbEntity
 67
1
  8
R-TABLICZKA
100
AcDbText
 10
512.389507154213
 20
11.57
 30
0.0
 40
3.5
  1
T-AR-08
  7
PL_ARIAL_B
 11
512.389507154213
 21
11.57
 31
0.0
100
AcDbText
  0
TEXT
  5
18F
330
1B
100
AcDbEntity
 67
1
  8
R-TABLICZKA
100
AcDbText
 10
549.2
 20
16.0
 30
0.0
 40
1.8
  1
ARKUSZ
  7
PL_ARIAL
 11
549.2
 21
16.0
 31
0.0
100
AcDbText
  0
TEXT
  5
190
330
1B
100
AcDbEntity
 67
1
  8
R-TABLICZKA
100
AcDbText
 10
554.4744492391551
 20
11.95
 30
0.0
 40
2.5
  1
8/9
  7
PL_ARIAL
 11
554.4744492391551
 21
11.95
 31
0.0
100
AcDbText
  0
TEXT
  5
191
330
1B
100
AcDbEntity
 67
1
  8
R-TABLICZKA
100
AcDbText
 10
567.2
 20
16.0
 30
0.0
 40
1.8
  1
REW.
  7
PL_ARIAL
 11
567.2
 21
16.0
 31
0.0
100
AcDbText
  0
TEXT
  5
192
330
1B
100
AcDbEntity
 67
1
  8
R-TABLICZKA
100
AcDbText
 10
573.5854531001589
 20
11.57
 30
0.0
 40
3.5
  1
0
  7
PL_ARIAL_B
 11
573.5854531001589
 21
11.57
 31
0.0
100
AcDbText
  0
TEXT
  5
193
330
1B
100
AcDbEntity
 67
1
  8
R-TABLICZKA
100
AcDbText
 10
405.2
 20
104.25
 30
0.0
 40
2.5
  1
0
  7
PL_ARIAL
 11
405.2
 21
104.25
 31
0.0
100
AcDbText
  0
TEXT
  5
194
330
1B
100
AcDbEntity
 67
1
  8
R-TABLICZKA
100
AcDbText
 10
423.2
 20
104.25
 30
0.0
 40
2.5
  1
Próba generatorów widoków z modelu testowego
  7
PL_ARIAL
 11
423.2
 21
104.25
 31
0.0
100
AcDbText
  0
TEXT
  5
195
330
1B
100
AcDbEntity
 67
1
  8
R-TABLICZKA
100
AcDbText
 10
545.2
 20
104.25
 30
0.0
 40
2.5
  1
2026-09-25
  7
PL_ARIAL
 11
545.2
 21
104.25
 31
0.0
100
AcDbText
  0
TEXT
  5
196
330
1B
100
AcDbEntity
 67
1
  8
R-TABLICZKA
100
AcDbText
 10
405.2
 20
109.6
 30
0.0
 40
1.8
  1
REW.
  7
PL_ARIAL
 11
405.2
 21
109.6
 31
0.0
100
AcDbText
  0
TEXT
  5
197
330
1B
100
AcDbEntity
 67
1
  8
R-TABLICZKA
100
AcDbText
 10
423.2
 20
109.6
 30
0.0
 40
1.8
  1
OPIS ZMIANY
  7
PL_ARIAL
 11
423.2
 21
109.6
 31
0.0
100
AcDbText
  0
TEXT
  5
198
330
1B
100
AcDbEntity
 67
1
  8
R-TABLICZKA
100
AcDbText
 10
545.2
 20
109.6
 30
0.0
 40
1.8
  1
DATA
  7
PL_ARIAL
 11
545.2
 21
109.6
 31
0.0
100
AcDbText
  0
VIEWPORT
  5
2EB
330
1B
100
AcDbEntity
 67
1
  8
R-RZUTNIA
100
AcDbViewport
 10
211.0
 20
217.0
 30
0.0
 40
308.9893072904838
 41
176.78676842105278
 68
2
 69
3
 12
-1.3202673177379065
 22
2.8313307894736814
 13
0.0
 23
0.0
 14
10.0
 24
10.0
 15
10.0
 25
10.0
 16
0.0
 26
0.0
 36
1.0
 17
0.0
 27
0.0
 37
0.0
 42
50.0
 43
0.0
 44
0.0
 45
8.83933842105264
 50
0.0
 51
0.0
 72
100
 90
16384
  1

281
0
 71
0
 74
0
110
0.0
120
0.0
130
0.0
111
1.0
121
0.0
131
0.0
112
0.0
122
1.0
132
0.0
 79
0
146
0.0
282
0
  0
ENDSEC
  0
SECTION
  2
OBJECTS
  0
DICTIONARY
  5
A
330
0
100
AcDbDictionary
281
1
  3
ACAD_COLOR
350
B
  3
ACAD_GROUP
350
C
  3
ACAD_LAYOUT
350
D
  3
ACAD_MATERIAL
350
E
  3
ACAD_MLEADERSTYLE
350
F
  3
ACAD_MLINESTYLE
350
10
  3
ACAD_PLOTSETTINGS
350
11
  3
ACAD_PLOTSTYLENAME
350
12
  3
ACAD_SCALELIST
350
14
  3
ACAD_TABLESTYLE
350
15
  3
ACAD_VISUALSTYLE
350
16
  3
EZDXF_META
350
2D
  0
DICTIONARY
  5
B
330
A
100
AcDbDictionary
281
1
  0
DICTIONARY
  5
C
330
A
100
AcDbDictionary
281
1
  0
DICTIONARY
  5
D
330
A
100
AcDbDictionary
281
1
  3
Model
350
1A
  3
Arkusz T-AR-08
350
1E
  0
DICTIONARY
  5
E
330
A
100
AcDbDictionary
281
1
  3
ByBlock
350
1F
  3
ByLayer
350
20
  3
Global
350
21
  0
DICTIONARY
  5
F
330
A
100
AcDbDictionary
281
1
  3
Standard
350
2C
  0
DICTIONARY
  5
10
330
A
100
AcDbDictionary
281
1
  3
Standard
350
22
  0
DICTIONARY
  5
11
330
A
100
AcDbDictionary
281
1
  0
ACDBDICTIONARYWDFLT
  5
12
330
A
100
AcDbDictionary
281
1
  3
Normal
350
13
100
AcDbDictionaryWithDefault
340
13
  0
ACDBPLACEHOLDER
  5
13
330
12
  0
DICTIONARY
  5
14
330
A
100
AcDbDictionary
281
1
  0
DICTIONARY
  5
15
330
A
100
AcDbDictionary
281
1
  0
DICTIONARY
  5
16
330
A
100
AcDbDictionary
281
1
  0
LAYOUT
  5
1A
330
D
100
AcDbPlotSettings
  1

  4
A3
  6

 40
7.5
 41
20.0
 42
7.5
 43
20.0
 44
420.0
 45
297.0
 46
0.0
 47
0.0
 48
0.0
 49
0.0
140
0.0
141
0.0
142
1.0
143
1.0
 70
1024
 72
1
 73
0
 74
5
  7

 75
16
 76
0
 77
2
 78
300
147
1.0
148
0.0
149
0.0
100
AcDbLayout
  1
Model
 70
1
 71
0
 10
0.0
 20
0.0
 11
420.0
 21
297.0
 12
0.0
 22
0.0
 32
0.0
 14
1e+20
 24
1e+20
 34
1e+20
 15
-1e+20
 25
-1e+20
 35
-1e+20
146
0.0
 13
0.0
 23
0.0
 33
0.0
 16
1.0
 26
0.0
 36
0.0
 17
0.0
 27
1.0
 37
0.0
 76
1
330
17
  0
LAYOUT
  5
1E
330
D
100
AcDbPlotSettings
  1

  2
DWG to PDF.pc3
  4
LAMELA_(594.00_x_420.00_MM)
  6

 40
0.0
 41
0.0
 42
0.0
 43
0.0
 44
594.0
 45
420.0
 46
0.0
 47
0.0
 48
0.0
 49
0.0
140
0.0
141
0.0
142
1.0
143
1.0
 70
672
 72
1
 73
0
 74
5
  7

 75
16
 76
0
 77
2
 78
300
147
1.0
148
0.0
149
0.0
100
AcDbLayout
  1
Arkusz T-AR-08
 70
1
 71
1
 10
-0.0
 20
-0.0
 11
594.0
 21
420.0
 12
0.0
 22
0.0
 32
0.0
 14
1e+20
 24
1e+20
 34
1e+20
 15
-1e+20
 25
-1e+20
 35
-1e+20
146
0.0
 13
0.0
 23
0.0
 33
0.0
 16
1.0
 26
0.0
 36
0.0
 17
0.0
 27
1.0
 37
0.0
 76
1
330
1B
331
7F
  0
MATERIAL
  5
1F
102
{ACAD_REACTORS
330
E
102
}
330
E
100
AcDbMaterial
  1
ByBlock
  2

 70
0
 40
1.0
 71
1
 41
1.0
 91
-1023410177
 42
1.0
 72
1
  3

 73
1
 74
1
 75
1
 44
0.5
 73
0
 45
1.0
 46
1.0
 77
1
  4

 78
1
 79
1
170
1
 48
1.0
171
1
  6

172
1
173
1
174
1
140
1.0
141
1.0
175
1
  7

176
1
177
1
178
1
143
1.0
179
1
  8

270
1
271
1
272
1
145
1.0
146
1.0
273
1
  9

274
1
275
1
276
1
 42
1.0
 72
1
  3

 73
1
 74
1
 75
1
 94
63
  0
MATERIAL
  5
20
102
{ACAD_REACTORS
330
E
102
}
330
E
100
AcDbMaterial
  1
ByLayer
  2

 70
0
 40
1.0
 71
1
 41
1.0
 91
-1023410177
 42
1.0
 72
1
  3

 73
1
 74
1
 75
1
 44
0.5
 73
0
 45
1.0
 46
1.0
 77
1
  4

 78
1
 79
1
170
1
 48
1.0
171
1
  6

172
1
173
1
174
1
140
1.0
141
1.0
175
1
  7

176
1
177
1
178
1
143
1.0
179
1
  8

270
1
271
1
272
1
145
1.0
146
1.0
273
1
  9

274
1
275
1
276
1
 42
1.0
 72
1
  3

 73
1
 74
1
 75
1
 94
63
  0
MATERIAL
  5
21
102
{ACAD_REACTORS
330
E
102
}
330
E
100
AcDbMaterial
  1
Global
  2

 70
0
 40
1.0
 71
1
 41
1.0
 91
-1023410177
 42
1.0
 72
1
  3

 73
1
 74
1
 75
1
 44
0.5
 73
0
 45
1.0
 46
1.0
 77
1
  4

 78
1
 79
1
170
1
 48
1.0
171
1
  6

172
1
173
1
174
1
140
1.0
141
1.0
175
1
  7

176
1
177
1
178
1
143
1.0
179
1
  8

270
1
271
1
272
1
145
1.0
146
1.0
273
1
  9

274
1
275
1
276
1
 42
1.0
 72
1
  3

 73
1
 74
1
 75
1
 94
63
  0
MLINESTYLE
  5
22
102
{ACAD_REACTORS
330
10
102
}
330
10
100
AcDbMlineStyle
  2
Standard
 70
0
  3

 62
256
 51
90.0
 52
90.0
 71
2
 49
0.5
 62
256
  6
BYLAYER
 49
-0.5
 62
256
  6
BYLAYER
  0
MLEADERSTYLE
  5
2C
102
{ACAD_REACTORS
330
F
102
}
330
F
100
AcDbMLeaderStyle
179
2
170
2
171
1
172
0
 90
2
 40
0.0
 41
0.0
173
1
 91
-1056964608
 92
-2
290
1
 42
2.0
291
1
 43
8.0
  3
Standard
 44
4.0
300

342
29
174
1
175
1
176
0
178
1
 93
-1056964608
 45
4.0
292
0
297
0
 46
4.0
 94
-1056964608
 47
1.0
 49
1.0
140
1.0
294
1
141
0.0
177
0
142
1.0
295
0
296
0
143
3.75
271
0
272
9
273
9
  0
DICTIONARY
  5
2D
330
A
100
AcDbDictionary
280
1
281
1
  3
CREATED_BY_EZDXF
350
2E
  3
WRITTEN_BY_EZDXF
350
2EE
  0
DICTIONARYVAR
  5
2E
330
2D
100
DictionaryVariables
280
0
  1
1.4.4 @ 2026-09-25T01:47:07.473211+00:00
  0
DICTIONARYVAR
  5
2EE
330
2D
100
DictionaryVariables
280
0
  1
1.4.4 @ 2026-09-25T01:47:07.525634+00:00
  0
ENDSEC
  0
EOF
