  0
SECTION
  2
HEADER
  9
$ACADVER
  1
AC1032
  9
$ACADMAINTVER
 90
4
  9
$DWGCODEPAGE
  3
ANSI_1252
  9
$LASTSAVEDBY
  1
ezdxf
  9
$REQUIREDVERSIONS
160
0
  9
$INSBASE
 10
0.0
 20
0.0
 30
0.0
  9
$EXTMIN
 10
1e+20
 20
1e+20
 30
1e+20
  9
$EXTMAX
 10
-1e+20
 20
-1e+20
 30
-1e+20
  9
$LIMMIN
 10
0.0
 20
0.0
  9
$LIMMAX
 10
420.0
 20
297.0
  9
$ORTHOMODE
 70
0
  9
$REGENMODE
 70
1
  9
$FILLMODE
 70
1
  9
$QTEXTMODE
 70
0
  9
$MIRRTEXT
 70
1
  9
$LTSCALE
 40
1.0
  9
$ATTMODE
 70
1
  9
$TEXTSIZE
 40
2.5
  9
$TRACEWID
 40
1.0
  9
$TEXTSTYLE
  7
Standard
  9
$CLAYER
  8
0
  9
$CELTYPE
  6
ByLayer
  9
$CECOLOR
 62
256
  9
$CELTSCALE
 40
1.0
  9
$DISPSILH
 70
0
  9
$DIMSCALE
 40
1.0
  9
$DIMASZ
 40
2.5
  9
$DIMEXO
 40
0.625
  9
$DIMDLI
 40
3.75
  9
$DIMRND
 40
0.0
  9
$DIMDLE
 40
0.0
  9
$DIMEXE
 40
1.25
  9
$DIMTP
 40
0.0
  9
$DIMTM
 40
0.0
  9
$DIMTXT
 40
2.5
  9
$DIMCEN
 40
2.5
  9
$DIMTSZ
 40
0.0
  9
$DIMTOL
 70
0
  9
$DIMLIM
 70
0
  9
$DIMTIH
 70
0
  9
$DIMTOH
 70
0
  9
$DIMSE1
 70
0
  9
$DIMSE2
 70
0
  9
$DIMTAD
 70
1
  9
$DIMZIN
 70
8
  9
$DIMBLK
  1

  9
$DIMASO
 70
1
  9
$DIMSHO
 70
1
  9
$DIMPOST
  1

  9
$DIMAPOST
  1

  9
$DIMALT
 70
0
  9
$DIMALTD
 70
3
  9
$DIMALTF
 40
0.03937007874
  9
$DIMLFAC
 40
1.0
  9
$DIMTOFL
 70
1
  9
$DIMTVP
 40
0.0
  9
$DIMTIX
 70
0
  9
$DIMSOXD
 70
0
  9
$DIMSAH
 70
0
  9
$DIMBLK1
  1

  9
$DIMBLK2
  1

  9
$DIMSTYLE
  2
ISO-25
  9
$DIMCLRD
 70
0
  9
$DIMCLRE
 70
0
  9
$DIMCLRT
 70
0
  9
$DIMTFAC
 40
1.0
  9
$DIMGAP
 40
0.625
  9
$DIMJUST
 70
0
  9
$DIMSD1
 70
0
  9
$DIMSD2
 70
0
  9
$DIMTOLJ
 70
0
  9
$DIMTZIN
 70
8
  9
$DIMALTZ
 70
0
  9
$DIMALTTZ
 70
0
  9
$DIMUPT
 70
0
  9
$DIMDEC
 70
2
  9
$DIMTDEC
 70
2
  9
$DIMALTU
 70
2
  9
$DIMALTTD
 70
3
  9
$DIMTXSTY
  7
Standard
  9
$DIMAUNIT
 70
0
  9
$DIMADEC
 70
0
  9
$DIMALTRND
 40
0.0
  9
$DIMAZIN
 70
0
  9
$DIMDSEP
 70
44
  9
$DIMATFIT
 70
3
  9
$DIMFRAC
 70
0
  9
$DIMLDRBLK
  1

  9
$DIMLUNIT
 70
2
  9
$DIMLWD
 70
-2
  9
$DIMLWE
 70
-2
  9
$DIMTMOVE
 70
0
  9
$DIMFXL
 40
1.0
  9
$DIMFXLON
 70
0
  9
$DIMJOGANG
 40
0.785398163397
  9
$DIMTFILL
 70
0
  9
$DIMTFILLCLR
 70
0
  9
$DIMARCSYM
 70
0
  9
$DIMLTYPE
  6

  9
$DIMLTEX1
  6

  9
$DIMLTEX2
  6

  9
$DIMTXTDIRECTION
 70
0
  9
$LUNITS
 70
2
  9
$LUPREC
 70
4
  9
$SKETCHINC
 40
1.0
  9
$FILLETRAD
 40
10.0
  9
$AUNITS
 70
0
  9
$AUPREC
 70
2
  9
$MENU
  1
.
  9
$ELEVATION
 40
0.0
  9
$PELEVATION
 40
0.0
  9
$THICKNESS
 40
0.0
  9
$LIMCHECK
 70
0
  9
$CHAMFERA
 40
0.0
  9
$CHAMFERB
 40
0.0
  9
$CHAMFERC
 40
0.0
  9
$CHAMFERD
 40
0.0
  9
$SKPOLY
 70
0
  9
$TDCREATE
 40
2461309.0761458334
  9
$TDUCREATE
 40
2458532.153996898
  9
$TDUPDATE
 40
2461309.0761458334
  9
$TDUUPDATE
 40
2458532.1544311
  9
$TDINDWG
 40
0.0
  9
$TDUSRTIMER
 40
0.0
  9
$USRTIMER
 70
1
  9
$ANGBASE
 50
0.0
  9
$ANGDIR
 70
0
  9
$PDMODE
 70
0
  9
$PDSIZE
 40
0.0
  9
$PLINEWID
 40
0.0
  9
$SPLFRAME
 70
0
  9
$SPLINETYPE
 70
6
  9
$SPLINESEGS
 70
8
  9
$HANDSEED
  5
302
  9
$SURFTAB1
 70
6
  9
$SURFTAB2
 70
6
  9
$SURFTYPE
 70
6
  9
$SURFU
 70
6
  9
$SURFV
 70
6
  9
$UCSBASE
  2

  9
$UCSNAME
  2

  9
$UCSORG
 10
0.0
 20
0.0
 30
0.0
  9
$UCSXDIR
 10
1.0
 20
0.0
 30
0.0
  9
$UCSYDIR
 10
0.0
 20
1.0
 30
0.0
  9
$UCSORTHOREF
  2

  9
$UCSORTHOVIEW
 70
0
  9
$UCSORGTOP
 10
0.0
 20
0.0
 30
0.0
  9
$UCSORGBOTTOM
 10
0.0
 20
0.0
 30
0.0
  9
$UCSORGLEFT
 10
0.0
 20
0.0
 30
0.0
  9
$UCSORGRIGHT
 10
0.0
 20
0.0
 30
0.0
  9
$UCSORGFRONT
 10
0.0
 20
0.0
 30
0.0
  9
$UCSORGBACK
 10
0.0
 20
0.0
 30
0.0
  9
$PUCSBASE
  2

  9
$PUCSNAME
  2

  9
$PUCSORG
 10
0.0
 20
0.0
 30
0.0
  9
$PUCSXDIR
 10
1.0
 20
0.0
 30
0.0
  9
$PUCSYDIR
 10
0.0
 20
1.0
 30
0.0
  9
$PUCSORTHOREF
  2

  9
$PUCSORTHOVIEW
 70
0
  9
$PUCSORGTOP
 10
0.0
 20
0.0
 30
0.0
  9
$PUCSORGBOTTOM
 10
0.0
 20
0.0
 30
0.0
  9
$PUCSORGLEFT
 10
0.0
 20
0.0
 30
0.0
  9
$PUCSORGRIGHT
 10
0.0
 20
0.0
 30
0.0
  9
$PUCSORGFRONT
 10
0.0
 20
0.0
 30
0.0
  9
$PUCSORGBACK
 10
0.0
 20
0.0
 30
0.0
  9
$USERI1
 70
0
  9
$USERI2
 70
0
  9
$USERI3
 70
0
  9
$USERI4
 70
0
  9
$USERI5
 70
0
  9
$USERR1
 40
0.0
  9
$USERR2
 40
0.0
  9
$USERR3
 40
0.0
  9
$USERR4
 40
0.0
  9
$USERR5
 40
0.0
  9
$WORLDVIEW
 70
1
  9
$SHADEDGE
 70
3
  9
$SHADEDIF
 70
70
  9
$TILEMODE
 70
1
  9
$MAXACTVP
 70
64
  9
$PINSBASE
 10
0.0
 20
0.0
 30
0.0
  9
$PLIMCHECK
 70
0
  9
$PEXTMIN
 10
1e+20
 20
1e+20
 30
1e+20
  9
$PEXTMAX
 10
-1e+20
 20
-1e+20
 30
-1e+20
  9
$PLIMMIN
 10
-0.0
 20
-0.0
  9
$PLIMMAX
 10
594.0
 20
420.0
  9
$UNITMODE
 70
0
  9
$VISRETAIN
 70
1
  9
$PLINEGEN
 70
0
  9
$PSLTSCALE
 70
0
  9
$TREEDEPTH
 70
3020
  9
$CMLSTYLE
  2
Standard
  9
$CMLJUST
 70
0
  9
$CMLSCALE
 40
20.0
  9
$PROXYGRAPHICS
 70
1
  9
$MEASUREMENT
 70
1
  9
$CELWEIGHT
370
-1
  9
$ENDCAPS
280
0
  9
$JOINSTYLE
280
0
  9
$LWDISPLAY
290
1
  9
$INSUNITS
 70
6
  9
$HYPERLINKBASE
  1

  9
$STYLESHEET
  1

  9
$XEDIT
290
1
  9
$CEPSNTYPE
380
0
  9
$PSTYLEMODE
290
1
  9
$FINGERPRINTGUID
  2
{0605A8BC-11B9-4390-A94C-F5E28A29DBC5}
  9
$VERSIONGUID
  2
{93F043F2-F389-4DD0-87AA-0667C1B4FE21}
  9
$EXTNAMES
290
1
  9
$PSVPSCALE
 40
0.0
  9
$OLESTARTUP
290
0
  9
$SORTENTS
280
127
  9
$INDEXCTL
280
0
  9
$HIDETEXT
280
1
  9
$XCLIPFRAME
280
1
  9
$HALOGAP
280
0
  9
$OBSCOLOR
 70
257
  9
$OBSLTYPE
280
0
  9
$INTERSECTIONDISPLAY
280
0
  9
$INTERSECTIONCOLOR
 70
257
  9
$DIMASSOC
280
2
  9
$PROJECTNAME
  1

  9
$CAMERADISPLAY
290
0
  9
$LENSLENGTH
 40
50.0
  9
$CAMERAHEIGHT
 40
0.0
  9
$STEPSPERSEC
 40
24.0
  9
$STEPSIZE
 40
100.0
  9
$3DDWFPREC
 40
2.0
  9
$PSOLWIDTH
 40
0.005
  9
$PSOLHEIGHT
 40
0.08
  9
$LOFTANG1
 40
1.570796326795
  9
$LOFTANG2
 40
1.570796326795
  9
$LOFTMAG1
 40
0.0
  9
$LOFTMAG2
 40
0.0
  9
$LOFTPARAM
 70
7
  9
$LOFTNORMALS
280
1
  9
$LATITUDE
 40
37.795
  9
$LONGITUDE
 40
-122.394
  9
$NORTHDIRECTION
 40
0.0
  9
$TIMEZONE
 70
-8000
  9
$LIGHTGLYPHDISPLAY
280
1
  9
$TILEMODELIGHTSYNCH
280
1
  9
$CMATERIAL
347
20
  9
$SOLIDHIST
280
0
  9
$SHOWHIST
280
1
  9
$DWFFRAME
280
2
  9
$DGNFRAME
280
2
  9
$REALWORLDSCALE
290
1
  9
$INTERFERECOLOR
 62
256
  9
$CSHADOW
280
0
  9
$SHADOWPLANELOCATION
 40
0.0
  0
ENDSEC
  0
SECTION
  2
CLASSES
  0
CLASS
  1
ACDBDICTIONARYWDFLT
  2
AcDbDictionaryWithDefault
  3
ObjectDBX Classes
 90
0
 91
0
280
0
281
0
  0
CLASS
  1
SUN
  2
AcDbSun
  3
SCENEOE
 90
1153
 91
0
280
0
281
0
  0
CLASS
  1
VISUALSTYLE
  2
AcDbVisualStyle
  3
ObjectDBX Classes
 90
4095
 91
0
280
0
281
0
  0
CLASS
  1
MATERIAL
  2
AcDbMaterial
  3
ObjectDBX Classes
 90
1153
 91
0
280
0
281
0
  0
CLASS
  1
SCALE
  2
AcDbScale
  3
ObjectDBX Classes
 90
1153
 91
0
280
0
281
0
  0
CLASS
  1
TABLESTYLE
  2
AcDbTableStyle
  3
ObjectDBX Classes
 90
4095
 91
0
280
0
281
0
  0
CLASS
  1
MLEADERSTYLE
  2
AcDbMLeaderStyle
  3
ACDB_MLEADERSTYLE_CLASS
 90
4095
 91
0
280
0
281
0
  0
CLASS
  1
DICTIONARYVAR
  2
AcDbDictionaryVar
  3
ObjectDBX Classes
 90
0
 91
0
280
0
281
0
  0
CLASS
  1
CELLSTYLEMAP
  2
AcDbCellStyleMap
  3
ObjectDBX Classes
 90
1152
 91
0
280
0
281
0
  0
CLASS
  1
MENTALRAYRENDERSETTINGS
  2
AcDbMentalRayRenderSettings
  3
SCENEOE
 90
1024
 91
0
280
0
281
0
  0
CLASS
  1
ACDBDETAILVIEWSTYLE
  2
AcDbDetailViewStyle
  3
ObjectDBX Classes
 90
1025
 91
0
280
0
281
0
  0
CLASS
  1
ACDBSECTIONVIEWSTYLE
  2
AcDbSectionViewStyle
  3
ObjectDBX Classes
 90
1025
 91
0
280
0
281
0
  0
CLASS
  1
RASTERVARIABLES
  2
AcDbRasterVariables
  3
ISM
 90
0
 91
0
280
0
281
0
  0
CLASS
  1
ACDBPLACEHOLDER
  2
AcDbPlaceHolder
  3
ObjectDBX Classes
 90
0
 91
0
280
0
281
0
  0
CLASS
  1
LAYOUT
  2
AcDbLayout
  3
ObjectDBX Classes
 90
0
 91
0
280
0
281
0
  0
ENDSEC
  0
SECTION
  2
TABLES
  0
TABLE
  2
VPORT
  5
8
330
0
100
AcDbSymbolTable
 70
1
  0
VPORT
  5
23
330
8
100
AcDbSymbolTableRecord
100
AcDbViewportTableRecord
  2
*Active
 70
0
 10
0.0
 20
0.0
 11
1.0
 21
1.0
 12
0.0
 22
0.0
 13
0.0
 23
0.0
 14
0.5
 24
0.5
 15
0.5
 25
0.5
 16
0.0
 26
0.0
 36
1.0
 17
0.0
 27
0.0
 37
0.0
 40
1000.0
 41
1.34
 42
50.0
 43
0.0
 44
0.0
 50
0.0
 51
0.0
 71
0
 72
1000
 73
1
 74
3
 75
0
 76
0
 77
0
 78
0
281
0
 65
0
146
0.0
  0
ENDTAB
  0
TABLE
  2
LTYPE
  5
2
330
0
100
AcDbSymbolTable
 70
14
  0
LTYPE
  5
24
330
2
100
AcDbSymbolTableRecord
100
AcDbLinetypeTableRecord
  2
ByBlock
 70
0
  3

 72
65
 73
0
 40
0.0
  0
LTYPE
  5
25
330
2
100
AcDbSymbolTableRecord
100
AcDbLinetypeTableRecord
  2
ByLayer
 70
0
  3

 72
65
 73
0
 40
0.0
  0
LTYPE
  5
26
330
2
100
AcDbSymbolTableRecord
100
AcDbLinetypeTableRecord
  2
Continuous
 70
0
  3

 72
65
 73
0
 40
0.0
  0
LTYPE
  5
2F
330
2
100
AcDbSymbolTableRecord
100
AcDbLinetypeTableRecord
  2
KRESKOWA
 70
0
  3
Linia kreskowa (02): krawędzie niewidoczne, elementy pod/nad płaszczyzną cięcia
 72
65
 73
2
 40
5.249999999999999
 49
4.199999999999999
 74
0
 49
-1.0499999999999998
 74
0
  0
LTYPE
  5
30
330
2
100
AcDbSymbolTableRecord
100
AcDbLinetypeTableRecord
  2
KRESKOWA_DROBNA
 70
0
  3
Linia kreskowa drobna (kreska krótka 6d)
 72
65
 73
2
 40
3.1499999999999995
 49
2.0999999999999996
 74
0
 49
-1.0499999999999998
 74
0
  0
LTYPE
  5
31
330
2
100
AcDbSymbolTableRecord
100
AcDbLinetypeTableRecord
  2
PUNKTOWA
 70
0
  3
Linia punktowa (04): osie, płaszczyzny przekroju
 72
65
 73
4
 40
10.5
 49
8.399999999999999
 74
0
 49
-1.0499999999999998
 74
0
 49
0.0
 74
0
 49
-1.0499999999999998
 74
0
  0
LTYPE
  5
32
330
2
100
AcDbSymbolTableRecord
100
AcDbLinetypeTableRecord
  2
PUNKTOWA_KROTKA
 70
0
  3
Linia punktowa z kreską zwykłą (końce przekrojów, gaz)
 72
65
 73
4
 40
6.299999999999999
 49
4.199999999999999
 74
0
 49
-1.0499999999999998
 74
0
 49
0.0
 74
0
 49
-1.0499999999999998
 74
0
  0
LTYPE
  5
33
330
2
100
AcDbSymbolTableRecord
100
AcDbLinetypeTableRecord
  2
DWUPUNKTOWA
 70
0
  3
Linia dwupunktowa (05): położenia skrajne, części przyległe
 72
65
 73
6
 40
11.55
 49
8.399999999999999
 74
0
 49
-1.0499999999999998
 74
0
 49
0.0
 74
0
 49
-1.0499999999999998
 74
0
 49
0.0
 74
0
 49
-1.0499999999999998
 74
0
  0
LTYPE
  5
34
330
2
100
AcDbSymbolTableRecord
100
AcDbLinetypeTableRecord
  2
KROPKOWA
 70
0
  3
Linia kropkowa (07): elementy nieobjęte projektem
 72
65
 73
2
 40
1.0499999999999998
 49
0.0
 74
0
 49
-1.0499999999999998
 74
0
  0
LTYPE
  5
35
330
2
100
AcDbSymbolTableRecord
100
AcDbLinetypeTableRecord
  2
KRESKA_DLUGA
 70
0
  3
Linia kreskowa długa (instalacje)
 72
65
 73
2
 40
9.45
 49
8.399999999999999
 74
0
 49
-1.0499999999999998
 74
0
  0
LTYPE
  5
36
330
2
100
AcDbSymbolTableRecord
100
AcDbLinetypeTableRecord
  2
KRESKOWA_3_1
 70
0
  3
Linia kreskowa 3/1 mm (paroizolacja, R4 pkt 3.8)
 72
65
 73
2
 40
4.0
 49
3.0
 74
0
 49
-1.0
 74
0
  0
LTYPE
  5
37
330
2
100
AcDbSymbolTableRecord
100
AcDbLinetypeTableRecord
  2
HYDRO_OKNA
 70
0
  3
Białe okna pasa izolacji przeciwwodnej (czarny 3 / biały 1,5 mm)
 72
65
 73
2
 40
4.5
 49
1.5
 74
0
 49
-3.0
 74
0
  0
LTYPE
  5
38
330
2
100
AcDbSymbolTableRecord
100
AcDbLinetypeTableRecord
  2
WIELOPUNKTOWA
 70
0
  3
Linia wielopunktowa (telekomunikacja, PN-B-01027)
 72
65
 73
8
 40
13.399999999999999
 49
9.0
 74
0
 49
-1.2
 74
0
 49
0.0
 74
0
 49
-1.0
 74
0
 49
0.0
 74
0
 49
-1.0
 74
0
 49
0.0
 74
0
 49
-1.2
 74
0
  0
LTYPE
  5
39
330
2
100
AcDbSymbolTableRecord
100
AcDbLinetypeTableRecord
  2
KABEL_E
 70
0
  3
Kabel elektroenergetyczny (PN-B-01027: kreskowa 2·9·2)
 72
65
 73
2
 40
11.0
 49
9.0
 74
0
 49
-2.0
 74
0
  0
ENDTAB
  0
TABLE
  2
LAYER
  5
1
330
0
100
AcDbSymbolTable
 70
66
  0
LAYER
  5
27
330
1
100
AcDbSymbolTableRecord
100
AcDbLayerTableRecord
  2
0
 70
0
 62
7
  6
Continuous
370
-3
390
13
347
21
  0
LAYER
  5
28
330
1
100
AcDbSymbolTableRecord
100
AcDbLayerTableRecord
  2
Defpoints
 70
0
 62
7
  6
Continuous
290
0
370
-3
390
13
347
21
  0
LAYER
  5
3E
330
1
100
AcDbSymbolTableRecord
100
AcDbLayerTableRecord
  2
R-RAMKA
 70
0
 62
7
  6
Continuous
370
50
390
13
347
21
1001
AcAecLayerStandard
1000

1000
Ramka arkusza, znaki składania i centrowania
  0
LAYER
  5
40
330
1
100
AcDbSymbolTableRecord
100
AcDbLayerTableRecord
  2
R-TABLICZKA
 70
0
 62
7
  6
Continuous
370
25
390
13
347
21
1001
AcAecLayerStandard
1000

1000
Tabliczka rysunkowa (PN-EN ISO 7200)
  0
LAYER
  5
41
330
1
100
AcDbSymbolTableRecord
100
AcDbLayerTableRecord
  2
R-OPISY
 70
0
 62
7
  6
Continuous
370
25
390
13
347
21
1001
AcAecLayerStandard
1000

1000
Opisy arkusza: tytuły rzutni, uwagi, legendy
  0
LAYER
  5
42
330
1
100
AcDbSymbolTableRecord
100
AcDbLayerTableRecord
  2
R-LEGENDA
 70
0
 62
7
  6
Continuous
370
25
390
13
347
21
1001
AcAecLayerStandard
1000

1000
Legenda oznaczeń
  0
LAYER
  5
43
330
1
100
AcDbSymbolTableRecord
100
AcDbLayerTableRecord
  2
R-RZUTNIA
 70
0
 62
8
  6
Continuous
290
0
370
18
390
13
347
21
1001
AcAecLayerStandard
1000

1000
Obrys rzutni (nie drukowany)
  0
LAYER
  5
44
330
1
100
AcDbSymbolTableRecord
100
AcDbLayerTableRecord
  2
A-SCIANY-KONSTR
 70
0
 62
7
  6
Continuous
370
50
390
13
347
21
1001
AcAecLayerStandard
1000

1000
Ściany i słupy konstrukcyjne w przekroju — kontur
  0
LAYER
  5
45
330
1
100
AcDbSymbolTableRecord
100
AcDbLayerTableRecord
  2
A-SCIANY-DZIAL
 70
0
 62
7
  6
Continuous
370
35
390
13
347
21
1001
AcAecLayerStandard
1000

1000
Ścianki działowe w przekroju — kontur
  0
LAYER
  5
46
330
1
100
AcDbSymbolTableRecord
100
AcDbLayerTableRecord
  2
A-SCIANY-IZOL
 70
0
 62
4
  6
Continuous
370
35
390
13
347
21
1001
AcAecLayerStandard
1000

1000
Warstwy izolacji termicznej ścian — kontur
  0
LAYER
  5
47
330
1
100
AcDbSymbolTableRecord
100
AcDbLayerTableRecord
  2
A-SCIANY-WYK
 70
0
 62
8
  6
Continuous
370
18
390
13
347
21
1001
AcAecLayerStandard
1000

1000
Tynki, okładziny, warstwy wykończeniowe — kontur
  0
LAYER
  5
48
330
1
100
AcDbSymbolTableRecord
100
AcDbLayerTableRecord
  2
A-STROPY
 70
0
 62
7
  6
Continuous
370
50
390
13
347
21
1001
AcAecLayerStandard
1000

1000
Stropy, płyty, stropodachy w przekroju — kontur
  0
LAYER
  5
49
330
1
100
AcDbSymbolTableRecord
100
AcDbLayerTableRecord
  2
A-WARSTWY
 70
0
 62
8
  6
Continuous
370
25
390
13
347
21
1001
AcAecLayerStandard
1000

1000
Warstwy przegród poziomych (podłogi, dachy) — kontur
  0
LAYER
  5
4A
330
1
100
AcDbSymbolTableRecord
100
AcDbLayerTableRecord
  2
A-IZOL-WODNA
 70
0
 62
5
  6
Continuous
370
100
390
13
347
21
1001
AcAecLayerStandard
1000

1000
Izolacje przeciwwodne/przeciwwilgociowe/paroizolacje
  0
LAYER
  5
4B
330
1
100
AcDbSymbolTableRecord
100
AcDbLayerTableRecord
  2
A-FUNDAMENTY
 70
0
 62
7
  6
Continuous
370
50
390
13
347
21
1001
AcAecLayerStandard
1000

1000
Fundamenty w przekroju — kontur
  0
LAYER
  5
4C
330
1
100
AcDbSymbolTableRecord
100
AcDbLayerTableRecord
  2
A-KRESKOWANIE
 70
0
 62
8
  6
Continuous
370
18
390
13
347
21
1001
AcAecLayerStandard
1000

1000
Kreskowanie materiałów (PN-B-01030)
  0
LAYER
  5
4D
330
1
100
AcDbSymbolTableRecord
100
AcDbLayerTableRecord
  2
A-WYPELNIENIA
 70
0
 62
9
  6
Continuous
370
18
390
13
347
21
1001
AcAecLayerStandard
1000

1000
Wypełnienia (zaczernienia, tła)
  0
LAYER
  5
4E
330
1
100
AcDbSymbolTableRecord
100
AcDbLayerTableRecord
  2
A-WIDOK
 70
0
 62
7
  6
Continuous
370
25
390
13
347
21
1001
AcAecLayerStandard
1000

1000
Krawędzie widoczne (poza płaszczyzną cięcia)
  0
LAYER
  5
4F
330
1
100
AcDbSymbolTableRecord
100
AcDbLayerTableRecord
  2
A-NIEWIDOCZNE
 70
0
 62
8
  6
KRESKOWA
370
25
390
13
347
21
1001
AcAecLayerStandard
1000

1000
Krawędzie niewidoczne
  0
LAYER
  5
50
330
1
100
AcDbSymbolTableRecord
100
AcDbLayerTableRecord
  2
A-NAD-CIECIEM
 70
0
 62
8
  6
KRESKOWA
370
25
390
13
347
21
1001
AcAecLayerStandard
1000

1000
Elementy nad płaszczyzną cięcia (belki, nadproża, okapy)
  0
LAYER
  5
51
330
1
100
AcDbSymbolTableRecord
100
AcDbLayerTableRecord
  2
A-OKNA
 70
0
 62
3
  6
Continuous
370
35
390
13
347
21
1001
AcAecLayerStandard
1000

1000
Stolarka okienna
  0
LAYER
  5
52
330
1
100
AcDbSymbolTableRecord
100
AcDbLayerTableRecord
  2
A-DRZWI
 70
0
 62
3
  6
Continuous
370
35
390
13
347
21
1001
AcAecLayerStandard
1000

1000
Stolarka drzwiowa
  0
LAYER
  5
53
330
1
100
AcDbSymbolTableRecord
100
AcDbLayerTableRecord
  2
A-SCHODY
 70
0
 62
6
  6
Continuous
370
25
390
13
347
21
1001
AcAecLayerStandard
1000

1000
Schody, pochylnie, balustrady
  0
LAYER
  5
54
330
1
100
AcDbSymbolTableRecord
100
AcDbLayerTableRecord
  2
A-MEBLE
 70
0
 62
8
  6
Continuous
370
18
390
13
347
21
1001
AcAecLayerStandard
1000

1000
Meble i wyposażenie ruchome
  0
LAYER
  5
55
330
1
100
AcDbSymbolTableRecord
100
AcDbLayerTableRecord
  2
A-SANITARNE
 70
0
 62
6
  6
Continuous
370
25
390
13
347
21
1001
AcAecLayerStandard
1000

1000
Wyposażenie sanitarne i kuchenne
  0
LAYER
  5
56
330
1
100
AcDbSymbolTableRecord
100
AcDbLayerTableRecord
  2
A-WYMIARY
 70
0
 62
1
  6
Continuous
370
25
390
13
347
21
1001
AcAecLayerStandard
1000

1000
Wymiarowanie (PN-B-01029)
  0
LAYER
  5
57
330
1
100
AcDbSymbolTableRecord
100
AcDbLayerTableRecord
  2
A-OPISY
 70
0
 62
2
  6
Continuous
370
25
390
13
347
21
1001
AcAecLayerStandard
1000

1000
Opisy, odnośniki, opisy warstw
  0
LAYER
  5
58
330
1
100
AcDbSymbolTableRecord
100
AcDbLayerTableRecord
  2
A-POMIESZCZENIA
 70
0
 62
2
  6
Continuous
370
25
390
13
347
21
1001
AcAecLayerStandard
1000

1000
Oznaczenia pomieszczeń (PN-EN ISO 4157)
  0
LAYER
  5
59
330
1
100
AcDbSymbolTableRecord
100
AcDbLayerTableRecord
  2
A-OSIE
 70
0
 62
1
  6
PUNKTOWA
370
25
390
13
347
21
1001
AcAecLayerStandard
1000

1000
Osie konstrukcyjne
  0
LAYER
  5
5A
330
1
100
AcDbSymbolTableRecord
100
AcDbLayerTableRecord
  2
A-RZEDNE
 70
0
 62
1
  6
Continuous
370
25
390
13
347
21
1001
AcAecLayerStandard
1000

1000
Rzędne wysokościowe
  0
LAYER
  5
5B
330
1
100
AcDbSymbolTableRecord
100
AcDbLayerTableRecord
  2
A-PRZEKROJE
 70
0
 62
1
  6
PUNKTOWA_KROTKA
370
50
390
13
347
21
1001
AcAecLayerStandard
1000

1000
Oznaczenia przekrojów i widoków
  0
LAYER
  5
5C
330
1
100
AcDbSymbolTableRecord
100
AcDbLayerTableRecord
  2
A-SYMBOLE
 70
0
 62
2
  6
Continuous
370
25
390
13
347
21
1001
AcAecLayerStandard
1000

1000
Symbole ogólne (północ, spadki, odnośniki)
  0
LAYER
  5
5D
330
1
100
AcDbSymbolTableRecord
100
AcDbLayerTableRecord
  2
A-TEREN
 70
0
 62
32
  6
Continuous
370
50
390
13
347
21
1001
AcAecLayerStandard
1000

1000
Linia terenu, grunt
  0
LAYER
  5
5E
330
1
100
AcDbSymbolTableRecord
100
AcDbLayerTableRecord
  2
A-ELEWACJE
 70
0
 62
7
  6
Continuous
370
35
390
13
347
21
1001
AcAecLayerStandard
1000

1000
Elewacje — krawędzie
  0
LAYER
  5
5F
330
1
100
AcDbSymbolTableRecord
100
AcDbLayerTableRecord
  2
A-MASKA
 70
0
 62
7
  6
Continuous
370
18
390
13
347
21
1001
AcAecLayerStandard
1000

1000
Maski (tło napisów)
  0
LAYER
  5
60
330
1
100
AcDbSymbolTableRecord
100
AcDbLayerTableRecord
  2
K-KONSTR
 70
0
 62
7
  6
Continuous
370
50
390
13
347
21
1001
AcAecLayerStandard
1000

1000
Konstrukcja — kontury elementów
  0
LAYER
  5
61
330
1
100
AcDbSymbolTableRecord
100
AcDbLayerTableRecord
  2
K-ZBROJENIE
 70
0
 62
1
  6
Continuous
370
100
390
13
347
21
1001
AcAecLayerStandard
1000

1000
Zbrojenie — pręty (PN-EN ISO 3766)
  0
LAYER
  5
62
330
1
100
AcDbSymbolTableRecord
100
AcDbLayerTableRecord
  2
K-ZBROJENIE-OPIS
 70
0
 62
2
  6
Continuous
370
25
390
13
347
21
1001
AcAecLayerStandard
1000

1000
Zbrojenie — opisy pozycji
  0
LAYER
  5
63
330
1
100
AcDbSymbolTableRecord
100
AcDbLayerTableRecord
  2
K-WYMIARY
 70
0
 62
1
  6
Continuous
370
25
390
13
347
21
1001
AcAecLayerStandard
1000

1000
Konstrukcja — wymiary
  0
LAYER
  5
64
330
1
100
AcDbSymbolTableRecord
100
AcDbLayerTableRecord
  2
K-OSIE
 70
0
 62
1
  6
PUNKTOWA
370
25
390
13
347
21
1001
AcAecLayerStandard
1000

1000
Konstrukcja — osie
  0
LAYER
  5
65
330
1
100
AcDbSymbolTableRecord
100
AcDbLayerTableRecord
  2
S-WODA
 70
0
 62
5
420
20680
  6
Continuous
370
35
390
13
347
21
1001
AcAecLayerStandard
1000

1000
Instalacja wody zimnej
  0
LAYER
  5
66
330
1
100
AcDbSymbolTableRecord
100
AcDbLayerTableRecord
  2
S-CWU
 70
0
 62
1
420
13631488
  6
KRESKOWA
370
35
390
13
347
21
1001
AcAecLayerStandard
1000

1000
Instalacja ciepłej wody użytkowej
  0
LAYER
  5
67
330
1
100
AcDbSymbolTableRecord
100
AcDbLayerTableRecord
  2
S-CYRK
 70
0
 62
6
420
11534512
  6
PUNKTOWA_KROTKA
370
25
390
13
347
21
1001
AcAecLayerStandard
1000

1000
Instalacja cyrkulacji CWU
  0
LAYER
  5
68
330
1
100
AcDbSymbolTableRecord
100
AcDbLayerTableRecord
  2
S-KANAL
 70
0
 62
34
420
8013056
  6
Continuous
370
50
390
13
347
21
1001
AcAecLayerStandard
1000

1000
Kanalizacja sanitarna
  0
LAYER
  5
69
330
1
100
AcDbSymbolTableRecord
100
AcDbLayerTableRecord
  2
S-DESZCZ
 70
0
 62
150
420
32906
  6
KRESKA_DLUGA
370
35
390
13
347
21
1001
AcAecLayerStandard
1000

1000
Kanalizacja deszczowa / odwodnienie
  0
LAYER
  5
6A
330
1
100
AcDbSymbolTableRecord
100
AcDbLayerTableRecord
  2
S-OGRZ
 70
0
 62
1
420
14700544
  6
Continuous
370
25
390
13
347
21
1001
AcAecLayerStandard
1000

1000
Ogrzewanie (zasilanie/powrót, pętle podłogowe)
  0
LAYER
  5
6B
330
1
100
AcDbSymbolTableRecord
100
AcDbLayerTableRecord
  2
S-WENT
 70
0
 62
3
420
35328
  6
Continuous
370
35
390
13
347
21
1001
AcAecLayerStandard
1000

1000
Wentylacja mechaniczna
  0
LAYER
  5
6C
330
1
100
AcDbSymbolTableRecord
100
AcDbLayerTableRecord
  2
S-URZADZENIA
 70
0
 62
2
420
3158064
  6
Continuous
370
35
390
13
347
21
1001
AcAecLayerStandard
1000

1000
Urządzenia i armatura instalacji sanitarnych
  0
LAYER
  5
6D
330
1
100
AcDbSymbolTableRecord
100
AcDbLayerTableRecord
  2
S-OPISY
 70
0
 62
2
  6
Continuous
370
25
390
13
347
21
1001
AcAecLayerStandard
1000

1000
Instalacje sanitarne — opisy
  0
LAYER
  5
6E
330
1
100
AcDbSymbolTableRecord
100
AcDbLayerTableRecord
  2
E-GNIAZDA
 70
0
 62
1
420
12582912
  6
Continuous
370
35
390
13
347
21
1001
AcAecLayerStandard
1000

1000
Gniazda wtyczkowe (PN-EN 60617)
  0
LAYER
  5
6F
330
1
100
AcDbSymbolTableRecord
100
AcDbLayerTableRecord
  2
E-OSWIETLENIE
 70
0
 62
30
420
13656064
  6
Continuous
370
35
390
13
347
21
1001
AcAecLayerStandard
1000

1000
Oprawy oświetleniowe
  0
LAYER
  5
70
330
1
100
AcDbSymbolTableRecord
100
AcDbLayerTableRecord
  2
E-LACZNIKI
 70
0
 62
30
420
13656064
  6
Continuous
370
35
390
13
347
21
1001
AcAecLayerStandard
1000

1000
Łączniki, czujniki
  0
LAYER
  5
71
330
1
100
AcDbSymbolTableRecord
100
AcDbLayerTableRecord
  2
E-TRASY
 70
0
 62
8
420
6316128
  6
Continuous
370
25
390
13
347
21
1001
AcAecLayerStandard
1000

1000
Trasy przewodów
  0
LAYER
  5
72
330
1
100
AcDbSymbolTableRecord
100
AcDbLayerTableRecord
  2
E-ROZDZIELNICE
 70
0
 62
1
420
12582912
  6
Continuous
370
35
390
13
347
21
1001
AcAecLayerStandard
1000

1000
Rozdzielnice, złącza, puszki
  0
LAYER
  5
73
330
1
100
AcDbSymbolTableRecord
100
AcDbLayerTableRecord
  2
E-TELETECH
 70
0
 62
5
420
20680
  6
Continuous
370
35
390
13
347
21
1001
AcAecLayerStandard
1000

1000
Instalacje teletechniczne (LAN, TV, domofon)
  0
LAYER
  5
74
330
1
100
AcDbSymbolTableRecord
100
AcDbLayerTableRecord
  2
E-ODGROM
 70
0
 62
3
420
35328
  6
Continuous
370
35
390
13
347
21
1001
AcAecLayerStandard
1000

1000
Uziemienia, połączenia wyrównawcze, ochrona odgromowa
  0
LAYER
  5
75
330
1
100
AcDbSymbolTableRecord
100
AcDbLayerTableRecord
  2
E-OPISY
 70
0
 62
2
  6
Continuous
370
25
390
13
347
21
1001
AcAecLayerStandard
1000

1000
Instalacje elektryczne — opisy
  0
LAYER
  5
76
330
1
100
AcDbSymbolTableRecord
100
AcDbLayerTableRecord
  2
Z-GRANICE
 70
0
 62
1
  6
DWUPUNKTOWA
370
50
390
13
347
21
1001
AcAecLayerStandard
1000

1000
Granice działki, punkty graniczne
  0
LAYER
  5
77
330
1
100
AcDbSymbolTableRecord
100
AcDbLayerTableRecord
  2
Z-ZABUDOWA
 70
0
 62
7
  6
Continuous
370
50
390
13
347
21
1001
AcAecLayerStandard
1000

1000
Budynki projektowane i istniejące
  0
LAYER
  5
78
330
1
100
AcDbSymbolTableRecord
100
AcDbLayerTableRecord
  2
Z-LINIE-ZABUDOWY
 70
0
 62
1
420
12582912
  6
PUNKTOWA
370
35
390
13
347
21
1001
AcAecLayerStandard
1000

1000
Linie zabudowy (MPZP)
  0
LAYER
  5
79
330
1
100
AcDbSymbolTableRecord
100
AcDbLayerTableRecord
  2
Z-UTWARDZENIA
 70
0
 62
8
  6
Continuous
370
25
390
13
347
21
1001
AcAecLayerStandard
1000

1000
Nawierzchnie utwardzone
  0
LAYER
  5
7A
330
1
100
AcDbSymbolTableRecord
100
AcDbLayerTableRecord
  2
Z-ZIELEN
 70
0
 62
3
420
1997342
  6
Continuous
370
25
390
13
347
21
1001
AcAecLayerStandard
1000

1000
Zieleń: drzewa, krzewy, trawniki
  0
LAYER
  5
7B
330
1
100
AcDbSymbolTableRecord
100
AcDbLayerTableRecord
  2
Z-UZBROJENIE
 70
0
 62
5
  6
Continuous
370
35
390
13
347
21
1001
AcAecLayerStandard
1000

1000
Uzbrojenie terenu, sieci i przyłącza
  0
LAYER
  5
7C
330
1
100
AcDbSymbolTableRecord
100
AcDbLayerTableRecord
  2
Z-WARSTWICE
 70
0
 62
32
420
9067050
  6
Continuous
370
18
390
13
347
21
1001
AcAecLayerStandard
1000

1000
Warstwice i punkty wysokościowe
  0
LAYER
  5
7D
330
1
100
AcDbSymbolTableRecord
100
AcDbLayerTableRecord
  2
Z-OGRODZENIE
 70
0
 62
7
  6
Continuous
370
35
390
13
347
21
1001
AcAecLayerStandard
1000

1000
Ogrodzenie, bramy, furtki
  0
LAYER
  5
7E
330
1
100
AcDbSymbolTableRecord
100
AcDbLayerTableRecord
  2
Z-OPISY
 70
0
 62
2
  6
Continuous
370
25
390
13
347
21
1001
AcAecLayerStandard
1000

1000
Opisy zagospodarowania
  0
ENDTAB
  0
TABLE
  2
STYLE
  5
5
330
0
100
AcDbSymbolTable
 70
5
  0
STYLE
  5
29
330
5
100
AcDbSymbolTableRecord
100
AcDbTextStyleTableRecord
  2
Standard
 70
0
 40
0.0
 41
1.0
 50
0.0
 71
0
 42
2.5
  3
txt
  4

  0
STYLE
  5
3A
330
5
100
AcDbSymbolTableRecord
100
AcDbTextStyleTableRecord
  2
PL_ARIAL
 70
0
 40
0.0
 41
1.0
 50
0.0
 71
0
 42
2.5
  3
arial.ttf
  4

  0
STYLE
  5
3B
330
5
100
AcDbSymbolTableRecord
100
AcDbTextStyleTableRecord
  2
PL_ARIAL_B
 70
0
 40
0.0
 41
1.0
 50
0.0
 71
0
 42
2.5
  3
arialbd.ttf
  4

  0
STYLE
  5
3C
330
5
100
AcDbSymbolTableRecord
100
AcDbTextStyleTableRecord
  2
PL_ARIAL_I
 70
0
 40
0.0
 41
1.0
 50
0.0
 71
0
 42
2.5
  3
ariali.ttf
  4

  0
STYLE
  5
3D
330
5
100
AcDbSymbolTableRecord
100
AcDbTextStyleTableRecord
  2
PL_ARIAL_BI
 70
0
 40
0.0
 41
1.0
 50
0.0
 71
0
 42
2.5
  3
arialbi.ttf
  4

  0
ENDTAB
  0
TABLE
  2
VIEW
  5
7
330
0
100
AcDbSymbolTable
 70
0
  0
ENDTAB
  0
TABLE
  2
UCS
  5
6
330
0
100
AcDbSymbolTable
 70
0
  0
ENDTAB
  0
TABLE
  2
APPID
  5
3
330
0
100
AcDbSymbolTable
 70
4
  0
APPID
  5
2A
330
3
100
AcDbSymbolTableRecord
100
AcDbRegAppTableRecord
  2
ACAD
 70
0
  0
APPID
  5
3F
330
3
100
AcDbSymbolTableRecord
100
AcDbRegAppTableRecord
  2
AcAecLayerStandard
 70
0
  0
APPID
  5
2FF
330
3
100
AcDbSymbolTableRecord
100
AcDbRegAppTableRecord
  2
HATCHBACKGROUNDCOLOR
 70
0
  0
APPID
  5
300
330
3
100
AcDbSymbolTableRecord
100
AcDbRegAppTableRecord
  2
EZDXF
 70
0
  0
ENDTAB
  0
TABLE
  2
DIMSTYLE
  5
4
330
0
100
AcDbSymbolTable
 70
1
100
AcDbDimStyleTable
  0
DIMSTYLE
105
2B
330
4
100
AcDbSymbolTableRecord
100
AcDbDimStyleTableRecord
  2
Standard
 70
0
 40
1.0
 41
2.5
 42
0.625
 43
3.75
 44
1.25
 45
0.0
 46
0.0
 47
0.0
 48
0.0
 49
2.5
140
2.5
141
2.5
142
0.0
143
0.03937007874
144
1.0
145
0.0
146
1.0
147
0.625
148
0.0
 69
0
 70
0
 71
0
 72
0
 73
0
 74
0
 75
0
 76
0
 77
1
 78
8
 79
3
170
0
171
3
172
1
173
0
174
0
175
0
176
0
177
0
178
0
179
2
271
2
272
2
273
2
274
3
275
0
276
0
277
2
278
44
279
0
280
0
281
0
282
0
283
0
284
8
285
0
286
0
288
0
289
3
290
0
371
-2
372
-2
  0
ENDTAB
  0
TABLE
  2
BLOCK_RECORD
  5
9
330
0
100
AcDbSymbolTable
 70
2
  0
BLOCK_RECORD
  5
17
330
9
100
AcDbSymbolTableRecord
100
AcDbBlockTableRecord
  2
*Model_Space
340
1A
 70
0
280
1
281
0
  0
BLOCK_RECORD
  5
1B
330
9
100
AcDbSymbolTableRecord
100
AcDbBlockTableRecord
  2
*Paper_Space
340
1E
 70
0
280
1
281
0
  0
ENDTAB
  0
ENDSEC
  0
SECTION
  2
BLOCKS
  0
BLOCK
  5
18
330
17
100
AcDbEntity
  8
0
100
AcDbBlockBegin
  2
*Model_Space
 70
0
 10
0.0
 20
0.0
 30
0.0
  3
*Model_Space
  1

  0
ENDBLK
  5
19
330
17
100
AcDbEntity
  8
0
100
AcDbBlockEnd
  0
BLOCK
  5
1C
330
1B
100
AcDbEntity
  8
0
100
AcDbBlockBegin
  2
*Paper_Space
 70
0
 10
0.0
 20
0.0
 30
0.0
  3
*Paper_Space
  1

  0
ENDBLK
  5
1D
330
1B
100
AcDbEntity
  8
0
100
AcDbBlockEnd
  0
ENDSEC
  0
SECTION
  2
ENTITIES
  0
HATCH
  5
192
330
17
100
AcDbEntity
  8
A-ELEWACJE
 62
7
420
7698555
100
AcDbHatch
 10
0.0
 20
0.0
 30
0.0
210
0.0
220
0.0
230
1.0
  2
SOLID
 70
1
 71
0
 91
1
 92
3
 72
0
 73
1
 93
4
 10
-2.1635
 20
1.004
 10
-0.5335000000000001
 20
1.004
 10
-0.5335000000000001
 20
0.9750000000000001
 10
-2.1635
 20
0.9750000000000001
 97
0
 75
0
 76
1
 98
0
  0
HATCH
  5
193
330
17
100
AcDbEntity
  8
A-ELEWACJE
 62
7
420
7698555
100
AcDbHatch
 10
0.0
 20
0.0
 30
0.0
210
0.0
220
0.0
230
1.0
  2
SOLID
 70
1
 71
0
 91
1
 92
3
 72
0
 73
1
 93
4
 10
0.6365000000000001
 20
3.9640000000000004
 10
2.2665
 20
3.9640000000000004
 10
2.2665
 20
3.9350000000000005
 10
0.6365000000000001
 20
3.9350000000000005
 97
0
 75
0
 76
1
 98
0
  0
HATCH
  5
194
330
17
100
AcDbEntity
  8
A-ELEWACJE
 62
7
420
7698555
100
AcDbHatch
 10
0.0
 20
0.0
 30
0.0
210
0.0
220
0.0
230
1.0
  2
SOLID
 70
1
 71
0
 91
1
 92
3
 72
0
 73
1
 93
4
 10
4.0365
 20
3.9640000000000004
 10
5.8665
 20
3.9640000000000004
 10
5.8665
 20
3.9350000000000005
 10
4.0365
 20
3.9350000000000005
 97
0
 75
0
 76
1
 98
0
  0
HATCH
  5
195
330
17
100
AcDbEntity
  8
A-ELEWACJE
 62
7
420
7698555
100
AcDbHatch
 10
0.0
 20
0.0
 30
0.0
210
0.0
220
0.0
230
1.0
  2
SOLID
 70
1
 71
0
 91
1
 92
3
 72
0
 73
1
 93
4
 10
-1.9635000000000002
 20
4.364000000000001
 10
-0.9335000000000001
 20
4.364000000000001
 10
-0.9335000000000001
 20
4.335
 10
-1.9635000000000002
 20
4.335
 97
0
 75
0
 76
1
 98
0
  0
HATCH
  5
196
330
17
100
AcDbEntity
  8
A-ELEWACJE
 62
7
420
16119025
100
AcDbHatch
 10
0.0
 20
0.0
 30
0.0
210
0.0
220
0.0
230
1.0
  2
SOLID
 70
1
 71
0
 91
1
 92
3
 72
0
 73
1
 93
6
 10
-3.4455
 20
2.91
 10
-3.4455
 20
6.4935
 10
-3.4385
 20
6.4935
 10
-3.4385
 20
2.91
 10
-3.4385
 20
-0.21902
 10
-3.4455
 20
-0.21894
 97
0
 75
0
 76
1
 98
0
  0
HATCH
  5
197
330
17
100
AcDbEntity
  8
A-ELEWACJE
 62
7
420
16119025
100
AcDbHatch
 10
0.0
 20
0.0
 30
0.0
210
0.0
220
0.0
230
1.0
  2
SOLID
 70
1
 71
0
 91
6
 92
3
 72
0
 73
1
 93
55
 10
-1.9485
 20
6.4935
 10
-0.9485
 20
6.4935
 10
0.6515
 20
6.4935
 10
2.2515
 20
6.4935
 10
4.0515
 20
6.4935
 10
5.8515
 20
6.4935
 10
7.1485
 20
6.4935
 10
7.1485
 20
2.91
 10
7.1485
 20
-0.30023
 10
7.1015
 20
-0.29982
 10
6.8515
 20
-0.29764
 10
6.6015
 20
-0.29546
 10
6.3515
 20
-0.29327
 10
6.1015
 20
-0.29109
 10
5.8515
 20
-0.28891
 10
5.6015
 20
-0.28673
 10
5.3515
 20
-0.28522
 10
5.1015
 20
-0.28376
 10
4.8515
 20
-0.2823
 10
4.6015
 20
-0.28084
 10
4.3515
 20
-0.27938
 10
4.1015
 20
-0.27793
 10
3.8515
 20
-0.27647
 10
3.6015
 20
-0.27501
 10
3.3515
 20
-0.27355
 10
3.1015
 20
-0.27209
 10
2.8515
 20
-0.27063
 10
2.6015
 20
-0.26918
 10
2.3515
 20
-0.26772
 10
2.1015
 20
-0.26626
 10
1.8515
 20
-0.2648
 10
1.6015
 20
-0.26334
 10
1.3515
 20
-0.26188
 10
1.1015
 20
-0.26043
 10
0.8515
 20
-0.25897
 10
0.6015
 20
-0.25751
 10
0.3515
 20
-0.25605
 10
0.1015
 20
-0.25459
 10
-0.1485
 20
-0.25313
 10
-0.3985
 20
-0.25054
 10
-0.6485
 20
-0.24795
 10
-0.8985
 20
-0.24536
 10
-1.1485
 20
-0.24276
 10
-1.3985
 20
-0.24017
 10
-1.6485
 20
-0.23758
 10
-1.8985
 20
-0.23499
 10
-2.1485
 20
-0.23239
 10
-2.3985
 20
-0.2298
 10
-2.6485
 20
-0.22721
 10
-2.8985
 20
-0.22462
 10
-3.1485
 20
-0.22202
 10
-3.3985
 20
-0.21943
 10
-3.4385
 20
-0.21902
 10
-3.4385
 20
2.91
 10
-3.4385
 20
6.4935
 97
0
 92
2
 72
0
 73
1
 93
8
 10
0.6635
 20
3.964
 10
0.6365
 20
3.964
 10
0.6365
 20
3.935
 10
2.2665
 20
3.935
 10
2.2665
 20
3.964
 10
2.2395
 20
3.964
 10
2.2395
 20
5.448
 10
0.6635
 20
5.448
 97
0
 92
2
 72
0
 73
1
 93
8
 10
-1.9365
 20
5.348
 10
-1.9365
 20
4.364
 10
-1.9635
 20
4.364
 10
-1.9635
 20
4.335
 10
-0.9335
 20
4.335
 10
-0.9335
 20
4.364
 10
-0.9605
 20
4.364
 10
-0.9605
 20
5.348
 97
0
 92
2
 72
0
 73
1
 93
8
 10
-2.1365
 20
2.188
 10
-2.1365
 20
1.004
 10
-2.1635
 20
1.004
 10
-2.1635
 20
0.975
 10
-0.5335
 20
0.975
 10
-0.5335
 20
1.004
 10
-0.5605
 20
1.004
 10
-0.5605
 20
2.188
 97
0
 92
2
 72
0
 73
1
 93
8
 10
4.0635
 20
5.448
 10
4.0635
 20
3.964
 10
4.0365
 20
3.964
 10
4.0365
 20
3.935
 10
5.8665
 20
3.935
 10
5.8665
 20
3.964
 10
5.8395
 20
3.964
 10
5.8395
 20
5.448
 97
0
 92
2
 72
0
 73
1
 93
4
 10
3.1635
 20
2.288
 10
3.1635
 20
0.0
 10
4.2395
 20
0.0
 10
4.2395
 20
2.288
 97
0
 75
0
 76
1
 98
0
  0
HATCH
  5
198
330
17
100
AcDbEntity
  8
A-ELEWACJE
 62
7
420
7698555
100
AcDbHatch
 10
0.0
 20
0.0
 30
0.0
210
0.0
220
0.0
230
1.0
  2
SOLID
 70
1
 71
0
 91
1
 92
3
 72
0
 73
1
 93
12
 10
6.9415
 20
6.4935
 10
5.8515
 20
6.4935
 10
4.0515
 20
6.4935
 10
2.2515
 20
6.4935
 10
0.6515
 20
6.4935
 10
-0.9485
 20
6.4935
 10
-1.9485
 20
6.4935
 10
-3.2385
 20
6.4935
 10
-3.3685
 20
6.4935
 10
-3.3685
 20
6.5135
 10
7.0715
 20
6.5135
 10
7.0715
 20
6.4935
 97
0
 75
0
 76
1
 98
0
  0
HATCH
  5
199
330
17
100
AcDbEntity
  8
A-ELEWACJE
 62
7
420
12501701
100
AcDbHatch
 10
0.0
 20
0.0
 30
0.0
210
0.0
220
0.0
230
1.0
  2
SOLID
 70
1
 71
0
 91
1
 92
3
 72
0
 73
1
 93
4
 10
4.0065
 20
0.45
 10
4.0065
 20
1.85
 10
4.0365
 20
1.85
 10
4.0365
 20
0.45
 97
0
 75
0
 76
1
 98
0
  0
HATCH
  5
19A
330
17
100
AcDbEntity
  8
A-ELEWACJE
 62
7
420
6974832
100
AcDbHatch
 10
0.0
 20
0.0
 30
0.0
210
0.0
220
0.0
230
1.0
  2
SOLID
 70
1
 71
0
 91
2
 92
3
 72
0
 73
1
 93
6
 10
4.1665
 20
0.0
 10
3.2365
 20
0.0
 10
3.1635
 20
0.0
 10
3.1635
 20
2.288
 10
4.2395
 20
2.288
 10
4.2395
 20
0.0
 97
0
 92
2
 72
0
 73
1
 93
4
 10
3.2365
 20
0.03
 10
4.1665
 20
0.03
 10
4.1665
 20
2.215
 10
3.2365
 20
2.215
 97
0
 75
0
 76
1
 98
0
  0
HATCH
  5
19B
330
17
100
AcDbEntity
  8
A-ELEWACJE
 62
7
420
6974832
100
AcDbHatch
 10
0.0
 20
0.0
 30
0.0
210
0.0
220
0.0
230
1.0
  2
SOLID
 70
1
 71
0
 91
2
 92
3
 72
0
 73
1
 93
4
 10
-0.5605
 20
1.004
 10
-2.1365
 20
1.004
 10
-2.1365
 20
2.188
 10
-0.5605
 20
2.188
 97
0
 92
2
 72
0
 73
1
 93
4
 10
-2.0735
 20
2.125
 10
-2.0735
 20
1.075
 10
-0.6235
 20
1.075
 10
-0.6235
 20
2.125
 97
0
 75
0
 76
1
 98
0
  0
HATCH
  5
19C
330
17
100
AcDbEntity
  8
A-ELEWACJE
 62
7
420
6974832
100
AcDbHatch
 10
0.0
 20
0.0
 30
0.0
210
0.0
220
0.0
230
1.0
  2
SOLID
 70
1
 71
0
 91
3
 92
3
 72
0
 73
1
 93
4
 10
5.8395
 20
3.964
 10
4.0635
 20
3.964
 10
4.0635
 20
5.448
 10
5.8395
 20
5.448
 97
0
 92
2
 72
0
 73
1
 93
4
 10
4.1265
 20
5.385
 10
4.1265
 20
4.035
 10
4.914
 20
4.035
 10
4.914
 20
5.385
 97
0
 92
2
 72
0
 73
1
 93
4
 10
4.989
 20
4.035
 10
5.7765
 20
4.035
 10
5.7765
 20
5.385
 10
4.989
 20
5.385
 97
0
 75
0
 76
1
 98
0
  0
HATCH
  5
19D
330
17
100
AcDbEntity
  8
A-ELEWACJE
 62
7
420
6974832
100
AcDbHatch
 10
0.0
 20
0.0
 30
0.0
210
0.0
220
0.0
230
1.0
  2
SOLID
 70
1
 71
0
 91
2
 92
3
 72
0
 73
1
 93
4
 10
2.2395
 20
3.964
 10
0.6635
 20
3.964
 10
0.6635
 20
5.448
 10
2.2395
 20
5.448
 97
0
 92
2
 72
0
 73
1
 93
4
 10
2.1765
 20
4.035
 10
2.1765
 20
5.385
 10
0.7265
 20
5.385
 10
0.7265
 20
4.035
 97
0
 75
0
 76
1
 98
0
  0
HATCH
  5
19E
330
17
100
AcDbEntity
  8
A-ELEWACJE
 62
7
420
6974832
100
AcDbHatch
 10
0.0
 20
0.0
 30
0.0
210
0.0
220
0.0
230
1.0
  2
SOLID
 70
1
 71
0
 91
2
 92
3
 72
0
 73
1
 93
4
 10
-0.9605
 20
4.364
 10
-1.9365
 20
4.364
 10
-1.9365
 20
5.348
 10
-0.9605
 20
5.348
 97
0
 92
2
 72
0
 73
1
 93
4
 10
-1.8735
 20
4.435
 10
-1.0235
 20
4.435
 10
-1.0235
 20
5.285
 10
-1.8735
 20
5.285
 97
0
 75
0
 76
1
 98
0
  0
HATCH
  5
19F
330
17
100
AcDbEntity
  8
A-ELEWACJE
 62
7
420
7369590
100
AcDbHatch
 10
0.0
 20
0.0
 30
0.0
210
0.0
220
0.0
230
1.0
  2
SOLID
 70
1
 71
0
 91
2
 92
3
 72
0
 73
1
 93
4
 10
3.2365
 20
0.03
 10
3.2365
 20
2.215
 10
4.1665
 20
2.215
 10
4.1665
 20
0.03
 97
0
 92
2
 72
0
 73
1
 93
4
 10
4.0065
 20
0.45
 10
4.0365
 20
0.45
 10
4.0365
 20
1.85
 10
4.0065
 20
1.85
 97
0
 75
0
 76
1
 98
0
  0
HATCH
  5
1A0
330
17
100
AcDbEntity
  8
A-ELEWACJE
 62
7
420
11125709
100
AcDbHatch
 10
0.0
 20
0.0
 30
0.0
210
0.0
220
0.0
230
1.0
  2
SOLID
 70
1
 71
0
 91
1
 92
3
 72
0
 73
1
 93
4
 10
-0.6235
 20
2.125
 10
-0.6235
 20
1.075
 10
-2.0735
 20
1.075
 10
-2.0735
 20
2.125
 97
0
 75
0
 76
1
 98
0
  0
HATCH
  5
1A1
330
17
100
AcDbEntity
  8
A-ELEWACJE
 62
7
420
11125709
100
AcDbHatch
 10
0.0
 20
0.0
 30
0.0
210
0.0
220
0.0
230
1.0
  2
SOLID
 70
1
 71
0
 91
1
 92
3
 72
0
 73
1
 93
4
 10
2.1765
 20
5.385
 10
2.1765
 20
4.035
 10
0.7265
 20
4.035
 10
0.7265
 20
5.385
 97
0
 75
0
 76
1
 98
0
  0
HATCH
  5
1A2
330
17
100
AcDbEntity
  8
A-ELEWACJE
 62
7
420
11125709
100
AcDbHatch
 10
0.0
 20
0.0
 30
0.0
210
0.0
220
0.0
230
1.0
  2
SOLID
 70
1
 71
0
 91
1
 92
3
 72
0
 73
1
 93
4
 10
4.914
 20
5.385
 10
4.914
 20
4.035
 10
4.1265
 20
4.035
 10
4.1265
 20
5.385
 97
0
 75
0
 76
1
 98
0
  0
HATCH
  5
1A3
330
17
100
AcDbEntity
  8
A-ELEWACJE
 62
7
420
11125709
100
AcDbHatch
 10
0.0
 20
0.0
 30
0.0
210
0.0
220
0.0
230
1.0
  2
SOLID
 70
1
 71
0
 91
1
 92
3
 72
0
 73
1
 93
4
 10
5.7765
 20
4.035
 10
4.989
 20
4.035
 10
4.989
 20
5.385
 10
5.7765
 20
5.385
 97
0
 75
0
 76
1
 98
0
  0
HATCH
  5
1A4
330
17
100
AcDbEntity
  8
A-ELEWACJE
 62
7
420
11125709
100
AcDbHatch
 10
0.0
 20
0.0
 30
0.0
210
0.0
220
0.0
230
1.0
  2
SOLID
 70
1
 71
0
 91
1
 92
3
 72
0
 73
1
 93
4
 10
-1.0235
 20
4.435
 10
-1.8735
 20
4.435
 10
-1.8735
 20
5.285
 10
-1.0235
 20
5.285
 97
0
 75
0
 76
1
 98
0
  0
HATCH
  5
1A5
330
17
100
AcDbEntity
  8
A-ELEWACJE
 62
7
420
7698555
100
AcDbHatch
 10
0.0
 20
0.0
 30
0.0
210
0.0
220
0.0
230
1.0
  2
SOLID
 70
1
 71
0
 91
1
 92
3
 72
0
 73
1
 93
4
 10
-3.4855
 20
1.075
 10
-3.4855
 20
1.104
 10
-3.4455
 20
1.104
 10
-3.4455
 20
1.075
 97
0
 75
0
 76
1
 98
0
  0
HATCH
  5
1A6
330
17
100
AcDbEntity
  8
A-ELEWACJE
 62
7
420
7890775
100
AcDbHatch
 10
0.0
 20
0.0
 30
0.0
210
0.0
220
0.0
230
1.0
  2
SOLID
 70
1
 71
0
 91
1
 92
3
 72
0
 73
1
 93
4
 10
-7.1485
 20
2.959
 10
-7.1485
 20
2.984
 10
-3.4455
 20
2.984
 10
-3.4455
 20
2.959
 97
0
 75
0
 76
1
 98
0
  0
HATCH
  5
1A7
330
17
100
AcDbEntity
  8
A-ELEWACJE
 62
7
420
7697781
100
AcDbHatch
 10
0.0
 20
0.0
 30
0.0
210
0.0
220
0.0
230
1.0
  2
SOLID
 70
1
 71
0
 91
1
 92
3
 72
0
 73
1
 93
4
 10
-7.1485
 20
2.91
 10
-7.1485
 20
2.914
 10
-3.4455
 20
2.914
 10
-3.4455
 20
2.91
 97
0
 75
0
 76
1
 98
0
  0
HATCH
  5
1A8
330
17
100
AcDbEntity
  8
A-ELEWACJE
 62
7
420
9667698
100
AcDbHatch
 10
0.0
 20
0.0
 30
0.0
210
0.0
220
0.0
230
1.0
  2
SOLID
 70
1
 71
0
 91
1
 92
3
 72
0
 73
1
 93
4
 10
-7.1485
 20
2.914
 10
-7.1485
 20
2.959
 10
-3.4455
 20
2.959
 10
-3.4455
 20
2.914
 97
0
 75
0
 76
1
 98
0
  0
HATCH
  5
1A9
330
17
100
AcDbEntity
  8
A-ELEWACJE
 62
7
420
16119025
100
AcDbHatch
 10
0.0
 20
0.0
 30
0.0
210
0.0
220
0.0
230
1.0
  2
SOLID
 70
1
 71
0
 91
1
 92
3
 72
0
 73
1
 93
4
 10
-7.1485
 20
2.71
 10
-3.4655
 20
2.71
 10
-3.4655
 20
2.695
 10
-7.1485
 20
2.695
 97
0
 75
0
 76
1
 98
0
  0
HATCH
  5
1AA
330
17
100
AcDbEntity
  8
A-ELEWACJE
 62
7
420
12499892
100
AcDbHatch
 10
0.0
 20
0.0
 30
0.0
210
0.0
220
0.0
230
1.0
  2
SOLID
 70
1
 71
0
 91
1
 92
3
 72
0
 73
1
 93
5
 10
-3.4655
 20
2.71
 10
-7.1485
 20
2.71
 10
-7.1485
 20
2.91
 10
-3.4455
 20
2.91
 10
-3.4455
 20
2.71
 97
0
 75
0
 76
1
 98
0
  0
HATCH
  5
1AB
330
17
100
AcDbEntity
  8
A-ELEWACJE
 62
7
420
12499892
100
AcDbHatch
 10
0.0
 20
0.0
 30
0.0
210
0.0
220
0.0
230
1.0
  2
SOLID
 70
1
 71
0
 91
1
 92
3
 72
0
 73
1
 93
6
 10
-7.0585
 20
2.41
 10
-7.0585
 20
2.695
 10
-3.4655
 20
2.695
 10
-3.4655
 20
2.71
 10
-3.4455
 20
2.71
 10
-3.4455
 20
2.41
 97
0
 75
0
 76
1
 98
0
  0
HATCH
  5
1AC
330
17
100
AcDbEntity
  8
A-ELEWACJE
 62
7
420
12501701
100
AcDbHatch
 10
0.0
 20
0.0
 30
0.0
210
0.0
220
0.0
230
1.0
  2
SOLID
 70
1
 71
0
 91
1
 92
3
 72
0
 73
1
 93
4
 10
-7.0685
 20
4.034
 10
-7.0685
 20
4.084
 10
-3.4455
 20
4.084
 10
-3.4455
 20
4.034
 97
0
 75
0
 76
1
 98
0
  0
HATCH
  5
1AD
330
17
100
AcDbEntity
  8
A-ELEWACJE
 62
7
420
13492196
100
AcDbHatch
 10
0.0
 20
0.0
 30
0.0
210
0.0
220
0.0
230
1.0
  2
SOLID
 70
1
 71
0
 91
1
 92
3
 72
0
 73
1
 93
4
 10
-7.0685
 20
3.004
 10
-7.0685
 20
4.034
 10
-3.4455
 20
4.034
 10
-3.4455
 20
3.004
 97
0
 75
0
 76
1
 98
0
  0
HATCH
  5
1AE
330
17
100
AcDbEntity
  8
A-ELEWACJE
 62
7
420
12501701
100
AcDbHatch
 10
0.0
 20
0.0
 30
0.0
210
0.0
220
0.0
230
1.0
  2
SOLID
 70
1
 71
0
 91
1
 92
3
 72
0
 73
1
 93
4
 10
-7.0935
 20
4.034
 10
-7.0935
 20
4.084
 10
-7.0685
 20
4.084
 10
-7.0685
 20
4.034
 97
0
 75
0
 76
1
 98
0
  0
HATCH
  5
1AF
330
17
100
AcDbEntity
  8
A-ELEWACJE
 62
7
420
13492196
100
AcDbHatch
 10
0.0
 20
0.0
 30
0.0
210
0.0
220
0.0
230
1.0
  2
SOLID
 70
1
 71
0
 91
1
 92
3
 72
0
 73
1
 93
4
 10
-7.0785
 20
3.004
 10
-7.0785
 20
4.034
 10
-7.0685
 20
4.034
 10
-7.0685
 20
3.004
 97
0
 75
0
 76
1
 98
0
  0
HATCH
  5
1B0
330
17
100
AcDbEntity
  8
A-ELEWACJE
 62
7
420
7567226
100
AcDbHatch
 10
0.0
 20
0.0
 30
0.0
210
0.0
220
0.0
230
1.0
  2
SOLID
 70
1
 71
0
 91
1
 92
3
 72
0
 73
1
 93
4
 10
-7.0585
 20
2.41
 10
-6.9385
 20
2.41
 10
-6.9385
 20
-0.18994
 10
-7.0585
 20
-0.18967
 97
0
 75
0
 76
1
 98
0
  0
HATCH
  5
1B1
330
17
100
AcDbEntity
  8
A-ELEWACJE
 62
7
420
7698555
100
AcDbHatch
 10
0.0
 20
0.0
 30
0.0
210
0.0
220
0.0
230
1.0
  2
SOLID
 70
1
 71
0
 91
1
 92
3
 72
0
 73
1
 93
4
 10
-3.4855
 20
0.875
 10
-3.4855
 20
0.904
 10
-3.4455
 20
0.904
 10
-3.4455
 20
0.875
 97
0
 75
0
 76
1
 98
0
  0
HATCH
  5
1B2
330
17
100
AcDbEntity
  8
A-ELEWACJE
 62
7
420
7698555
100
AcDbHatch
 10
0.0
 20
0.0
 30
0.0
210
0.0
220
0.0
230
1.0
  2
SOLID
 70
1
 71
0
 91
1
 92
3
 72
0
 73
1
 93
4
 10
7.1485
 20
0.875
 10
7.1485
 20
0.904
 10
7.1885
 20
0.904
 10
7.1885
 20
0.875
 97
0
 75
0
 76
1
 98
0
  0
HATCH
  5
1B3
330
17
100
AcDbEntity
  8
A-ELEWACJE
 62
7
420
7698555
100
AcDbHatch
 10
0.0
 20
0.0
 30
0.0
210
0.0
220
0.0
230
1.0
  2
SOLID
 70
1
 71
0
 91
1
 92
3
 72
0
 73
1
 93
4
 10
7.1485
 20
3.935
 10
7.1485
 20
3.964
 10
7.1885
 20
3.964
 10
7.1885
 20
3.935
 97
0
 75
0
 76
1
 98
0
  0
LWPOLYLINE
  5
1B4
330
17
100
AcDbEntity
  8
A-KRESKOWANIE
370
25
 48
0.05
100
AcDbPolyline
 90
2
 70
0
 10
-8.609011922193046
 20
-0.2569340369875107
 10
-8.53814496383964
 20
-0.18638134452480787
  0
LWPOLYLINE
  5
1B5
330
17
100
AcDbEntity
  8
A-KRESKOWANIE
370
25
 48
0.05
100
AcDbPolyline
 90
2
 70
0
 10
-8.50885503616036
 20
-0.18644643325298402
 10
-8.438302343697655
 20
-0.2573133916063892
  0
LWPOLYLINE
  5
1B6
330
17
100
AcDbEntity
  8
A-KRESKOWANIE
370
25
 48
0.05
100
AcDbPolyline
 90
2
 70
0
 10
-8.359011922193046
 20
-0.25748959254306614
 10
-8.28814496383964
 20
-0.18693690008036334
  0
LWPOLYLINE
  5
1B7
330
17
100
AcDbEntity
  8
A-KRESKOWANIE
370
25
 48
0.05
100
AcDbPolyline
 90
2
 70
0
 10
-8.25885503616036
 20
-0.18700198880853952
 10
-8.188302343697655
 20
-0.2578689471619448
  0
LWPOLYLINE
  5
1B8
330
17
100
AcDbEntity
  8
A-KRESKOWANIE
370
25
 48
0.05
100
AcDbPolyline
 90
2
 70
0
 10
-8.109011922193046
 20
-0.25804514809862167
 10
-8.03814496383964
 20
-0.1874924556359189
  0
LWPOLYLINE
  5
1B9
330
17
100
AcDbEntity
  8
A-KRESKOWANIE
370
25
 48
0.05
100
AcDbPolyline
 90
2
 70
0
 10
-8.00885503616036
 20
-0.18755754436409505
 10
-7.938302343697657
 20
-0.25842450271750034
  0
LWPOLYLINE
  5
1BA
330
17
100
AcDbEntity
  8
A-KRESKOWANIE
370
25
 48
0.05
100
AcDbPolyline
 90
2
 70
0
 10
-7.859011922193046
 20
-0.25860070365417726
 10
-7.788144963839641
 20
-0.1880480111914744
  0
LWPOLYLINE
  5
1BB
330
17
100
AcDbEntity
  8
A-KRESKOWANIE
370
25
 48
0.05
100
AcDbPolyline
 90
2
 70
0
 10
-7.75885503616036
 20
-0.18811309991965056
 10
-7.688302343697657
 20
-0.2589800582730558
  0
LWPOLYLINE
  5
1BC
330
17
100
AcDbEntity
  8
A-KRESKOWANIE
370
25
 48
0.05
100
AcDbPolyline
 90
2
 70
0
 10
-7.609011922193046
 20
-0.2591562592097327
 10
-7.538144963839641
 20
-0.18860356674702988
  0
LWPOLYLINE
  5
1BD
330
17
100
AcDbEntity
  8
A-KRESKOWANIE
370
25
 48
0.05
100
AcDbPolyline
 90
2
 70
0
 10
-7.50885503616036
 20
-0.18866865547520606
 10
-7.438302343697657
 20
-0.25953561382861134
  0
LWPOLYLINE
  5
1BE
330
17
100
AcDbEntity
  8
A-KRESKOWANIE
370
25
 48
0.05
100
AcDbPolyline
 90
2
 70
0
 10
-7.359011922193046
 20
-0.25971181476528826
 10
-7.288144963839641
 20
-0.1891591223025854
  0
LWPOLYLINE
  5
1BF
330
17
100
AcDbEntity
  8
A-KRESKOWANIE
370
25
 48
0.05
100
AcDbPolyline
 90
2
 70
0
 10
-7.25885503616036
 20
-0.1892242110307616
 10
-7.188302343697657
 20
-0.2600911693841668
  0
LWPOLYLINE
  5
1C0
330
17
100
AcDbEntity
  8
A-KRESKOWANIE
370
25
 48
0.05
100
AcDbPolyline
 90
2
 70
0
 10
-7.109011922193046
 20
-0.26026737032084374
 10
-7.038144963839641
 20
-0.1897146778581409
  0
LWPOLYLINE
  5
1C1
330
17
100
AcDbEntity
  8
A-KRESKOWANIE
370
25
 48
0.05
100
AcDbPolyline
 90
2
 70
0
 10
-7.00885503616036
 20
-0.18977976658631707
 10
-6.938302343697657
 20
-0.2606467249397223
  0
LWPOLYLINE
  5
1C2
330
17
100
AcDbEntity
  8
A-KRESKOWANIE
370
25
 48
0.05
100
AcDbPolyline
 90
2
 70
0
 10
-6.859011922193046
 20
-0.2608229258763992
 10
-6.788144963839641
 20
-0.19027023341369642
  0
LWPOLYLINE
  5
1C3
330
17
100
AcDbEntity
  8
A-KRESKOWANIE
370
25
 48
0.05
100
AcDbPolyline
 90
2
 70
0
 10
-6.75885503616036
 20
-0.19033532214187257
 10
-6.688302343697657
 20
-0.2612022804952778
  0
LWPOLYLINE
  5
1C4
330
17
100
AcDbEntity
  8
A-KRESKOWANIE
370
25
 48
0.05
100
AcDbPolyline
 90
2
 70
0
 10
-6.60908789344947
 20
-0.2614210097958718
 10
-6.538144920247321
 20
-0.19094475313279985
  0
LWPOLYLINE
  5
1C5
330
17
100
AcDbEntity
  8
A-KRESKOWANIE
370
25
 48
0.05
100
AcDbPolyline
 90
2
 70
0
 10
-6.50885507975268
 20
-0.19104141645785686
 10
-6.438378823089607
 20
-0.26198438966000565
  0
LWPOLYLINE
  5
1C6
330
17
100
AcDbEntity
  8
A-KRESKOWANIE
370
25
 48
0.05
100
AcDbPolyline
 90
2
 70
0
 10
-6.359385982472726
 20
-0.26241269671163775
 10
-6.28814458329564
 20
-0.1922381198102326
  0
LWPOLYLINE
  5
1C7
330
17
100
AcDbEntity
  8
A-KRESKOWANIE
370
25
 48
0.05
100
AcDbPolyline
 90
2
 70
0
 10
-6.25885541670436
 20
-0.19245907317223698
 10
-6.188680839802955
 20
-0.26370047234932203
  0
LWPOLYLINE
  5
1C8
330
17
100
AcDbEntity
  8
A-KRESKOWANIE
370
25
 48
0.05
100
AcDbPolyline
 90
2
 70
0
 10
-6.109385982472726
 20
-0.26429866162391846
 10
-6.03814458329564
 20
-0.19412408472251333
  0
LWPOLYLINE
  5
1C9
330
17
100
AcDbEntity
  8
A-KRESKOWANIE
370
25
 48
0.05
100
AcDbPolyline
 90
2
 70
0
 10
-6.00885541670436
 20
-0.19434503808451772
 10
-5.938680839802955
 20
-0.2655864372616028
  0
LWPOLYLINE
  5
1CA
330
17
100
AcDbEntity
  8
A-KRESKOWANIE
370
25
 48
0.05
100
AcDbPolyline
 90
2
 70
0
 10
-5.859385982472726
 20
-0.26618462653619923
 10
-5.78814458329564
 20
-0.19601004963479407
  0
LWPOLYLINE
  5
1CB
330
17
100
AcDbEntity
  8
A-KRESKOWANIE
370
25
 48
0.05
100
AcDbPolyline
 90
2
 70
0
 10
-5.75885541670436
 20
-0.19623100299679846
 10
-5.688680839802955
 20
-0.2674724021738835
  0
LWPOLYLINE
  5
1CC
330
17
100
AcDbEntity
  8
A-KRESKOWANIE
370
25
 48
0.05
100
AcDbPolyline
 90
2
 70
0
 10
-5.609385982472726
 20
-0.26807059144848
 10
-5.53814458329564
 20
-0.1978960145470748
  0
LWPOLYLINE
  5
1CD
330
17
100
AcDbEntity
  8
A-KRESKOWANIE
370
25
 48
0.05
100
AcDbPolyline
 90
2
 70
0
 10
-5.50885541670436
 20
-0.19811696790907918
 10
-5.438680839802955
 20
-0.26935836708616423
  0
LWPOLYLINE
  5
1CE
330
17
100
AcDbEntity
  8
A-KRESKOWANIE
370
25
 48
0.05
100
AcDbPolyline
 90
2
 70
0
 10
-5.359511153858513
 20
-0.27002641532108007
 10
-5.288144362287776
 20
-0.1999793649841892
  0
LWPOLYLINE
  5
1CF
330
17
100
AcDbEntity
  8
A-KRESKOWANIE
370
25
 48
0.05
100
AcDbPolyline
 90
2
 70
0
 10
-5.258855637712225
 20
-0.20025270129262762
 10
-5.188808587375334
 20
-0.27161949286336506
  0
LWPOLYLINE
  5
1D0
330
17
100
AcDbEntity
  8
A-KRESKOWANIE
370
25
 48
0.05
100
AcDbPolyline
 90
2
 70
0
 10
-5.109583660097732
 20
-0.2723999715873063
 10
-5.038144212568314
 20
-0.2024270229807799
  0
LWPOLYLINE
  5
1D1
330
17
100
AcDbEntity
  8
A-KRESKOWANIE
370
25
 48
0.05
100
AcDbPolyline
 90
2
 70
0
 10
-5.008855787431687
 20
-0.2027307547970116
 10
-4.93888283882516
 20
-0.2741702023264293
  0
LWPOLYLINE
  5
1D2
330
17
100
AcDbEntity
  8
A-KRESKOWANIE
370
25
 48
0.05
100
AcDbPolyline
 90
2
 70
0
 10
-4.859583660097732
 20
-0.2749925641798989
 10
-4.788144212568314
 20
-0.20501961557337253
  0
LWPOLYLINE
  5
1D3
330
17
100
AcDbEntity
  8
A-KRESKOWANIE
370
25
 48
0.05
100
AcDbPolyline
 90
2
 70
0
 10
-4.758855787431687
 20
-0.20532334738960417
 10
-4.68888283882516
 20
-0.27676279491902184
  0
LWPOLYLINE
  5
1D4
330
17
100
AcDbEntity
  8
A-KRESKOWANIE
370
25
 48
0.05
100
AcDbPolyline
 90
2
 70
0
 10
-4.609583660097732
 20
-0.2775851567724915
 10
-4.538144212568314
 20
-0.20761220816596512
  0
LWPOLYLINE
  5
1D5
330
17
100
AcDbEntity
  8
A-KRESKOWANIE
370
25
 48
0.05
100
AcDbPolyline
 90
2
 70
0
 10
-4.508855787431687
 20
-0.2079159399821968
 10
-4.43888283882516
 20
-0.2793553875116145
  0
LWPOLYLINE
  5
1D6
330
17
100
AcDbEntity
  8
A-KRESKOWANIE
370
25
 48
0.05
100
AcDbPolyline
 90
2
 70
0
 10
-4.359583660097732
 20
-0.2801777493650841
 10
-4.288144212568314
 20
-0.21020480075855774
  0
LWPOLYLINE
  5
1D7
330
17
100
AcDbEntity
  8
A-KRESKOWANIE
370
25
 48
0.05
100
AcDbPolyline
 90
2
 70
0
 10
-4.258855787431687
 20
-0.2105085325747894
 10
-4.18888283882516
 20
-0.2819479801042071
  0
LWPOLYLINE
  5
1D8
330
17
100
AcDbEntity
  8
A-KRESKOWANIE
370
25
 48
0.05
100
AcDbPolyline
 90
2
 70
0
 10
-4.109583660097732
 20
-0.2827703419576767
 10
-4.038144212568314
 20
-0.21279739335115033
  0
LWPOLYLINE
  5
1D9
330
17
100
AcDbEntity
  8
A-KRESKOWANIE
370
25
 48
0.05
100
AcDbPolyline
 90
2
 70
0
 10
-4.008855787431687
 20
-0.213101125167382
 10
-3.9388828388251604
 20
-0.28454057269679967
  0
LWPOLYLINE
  5
1DA
330
17
100
AcDbEntity
  8
A-KRESKOWANIE
370
25
 48
0.05
100
AcDbPolyline
 90
2
 70
0
 10
-3.8595836600977314
 20
-0.2853629345502693
 10
-3.7881442125683136
 20
-0.21538998594374292
  0
LWPOLYLINE
  5
1DB
330
17
100
AcDbEntity
  8
A-KRESKOWANIE
370
25
 48
0.05
100
AcDbPolyline
 90
2
 70
0
 10
-3.758855787431687
 20
-0.2156937177599746
 10
-3.6888828388251604
 20
-0.28713316528939226
  0
LWPOLYLINE
  5
1DC
330
17
100
AcDbEntity
  8
A-KRESKOWANIE
370
25
 48
0.05
100
AcDbPolyline
 90
2
 70
0
 10
-3.6095836600977314
 20
-0.2879555271428619
 10
-3.5381442125683136
 20
-0.21798257853633554
  0
LWPOLYLINE
  5
1DD
330
17
100
AcDbEntity
  8
A-KRESKOWANIE
370
25
 48
0.05
100
AcDbPolyline
 90
2
 70
0
 10
-3.508855787431687
 20
-0.2182863103525672
 10
-3.4388828388251604
 20
-0.28972575788198485
  0
LWPOLYLINE
  5
1DE
330
17
100
AcDbEntity
  8
A-KRESKOWANIE
370
25
 48
0.05
100
AcDbPolyline
 90
2
 70
0
 10
-3.3595836600977314
 20
-0.2905481197354545
 10
-3.2881442125683136
 20
-0.22057517112892816
  0
LWPOLYLINE
  5
1DF
330
17
100
AcDbEntity
  8
A-KRESKOWANIE
370
25
 48
0.05
100
AcDbPolyline
 90
2
 70
0
 10
-3.258855787431687
 20
-0.22087890294515983
 10
-3.1888828388251604
 20
-0.2923183504745775
  0
LWPOLYLINE
  5
1E0
330
17
100
AcDbEntity
  8
A-KRESKOWANIE
370
25
 48
0.05
100
AcDbPolyline
 90
2
 70
0
 10
-3.1095836600977314
 20
-0.2931407123280471
 10
-3.0381442125683136
 20
-0.22316776372152075
  0
LWPOLYLINE
  5
1E1
330
17
100
AcDbEntity
  8
A-KRESKOWANIE
370
25
 48
0.05
100
AcDbPolyline
 90
2
 70
0
 10
-3.008855787431687
 20
-0.22347149553775242
 10
-2.9388828388251604
 20
-0.2949109430671701
  0
LWPOLYLINE
  5
1E2
330
17
100
AcDbEntity
  8
A-KRESKOWANIE
370
25
 48
0.05
100
AcDbPolyline
 90
2
 70
0
 10
-2.8595836600977314
 20
-0.2957333049206397
 10
-2.7881442125683136
 20
-0.22576035631411334
  0
LWPOLYLINE
  5
1E3
330
17
100
AcDbEntity
  8
A-KRESKOWANIE
370
25
 48
0.05
100
AcDbPolyline
 90
2
 70
0
 10
-2.758855787431687
 20
-0.226064088130345
 10
-2.6888828388251604
 20
-0.2975035356597627
  0
LWPOLYLINE
  5
1E4
330
17
100
AcDbEntity
  8
A-KRESKOWANIE
370
25
 48
0.05
100
AcDbPolyline
 90
2
 70
0
 10
-2.6095836600977314
 20
-0.2983258975132323
 10
-2.5381442125683136
 20
-0.22835294890670593
  0
LWPOLYLINE
  5
1E5
330
17
100
AcDbEntity
  8
A-KRESKOWANIE
370
25
 48
0.05
100
AcDbPolyline
 90
2
 70
0
 10
-2.508855787431687
 20
-0.2286566807229376
 10
-2.4388828388251604
 20
-0.30009612825235527
  0
LWPOLYLINE
  5
1E6
330
17
100
AcDbEntity
  8
A-KRESKOWANIE
370
25
 48
0.05
100
AcDbPolyline
 90
2
 70
0
 10
-2.3595836600977314
 20
-0.30091849010582494
 10
-2.2881442125683136
 20
-0.23094554149929855
  0
LWPOLYLINE
  5
1E7
330
17
100
AcDbEntity
  8
A-KRESKOWANIE
370
25
 48
0.05
100
AcDbPolyline
 90
2
 70
0
 10
-2.258855787431687
 20
-0.23124927331553022
 10
-2.1888828388251604
 20
-0.3026887208449479
  0
LWPOLYLINE
  5
1E8
330
17
100
AcDbEntity
  8
A-KRESKOWANIE
370
25
 48
0.05
100
AcDbPolyline
 90
2
 70
0
 10
-2.1095836600977314
 20
-0.30351108269841753
 10
-2.0381442125683136
 20
-0.23353813409189117
  0
LWPOLYLINE
  5
1E9
330
17
100
AcDbEntity
  8
A-KRESKOWANIE
370
25
 48
0.05
100
AcDbPolyline
 90
2
 70
0
 10
-2.0088557874316866
 20
-0.23384186590812284
 10
-1.9388828388251602
 20
-0.3052813134375405
  0
LWPOLYLINE
  5
1EA
330
17
100
AcDbEntity
  8
A-KRESKOWANIE
370
25
 48
0.05
100
AcDbPolyline
 90
2
 70
0
 10
-1.8595836600977316
 20
-0.3061036752910101
 10
-1.7881442125683138
 20
-0.23613072668448376
  0
LWPOLYLINE
  5
1EB
330
17
100
AcDbEntity
  8
A-KRESKOWANIE
370
25
 48
0.05
100
AcDbPolyline
 90
2
 70
0
 10
-1.7588557874316868
 20
-0.23643445850071543
 10
-1.6888828388251602
 20
-0.3078739060301331
  0
LWPOLYLINE
  5
1EC
330
17
100
AcDbEntity
  8
A-KRESKOWANIE
370
25
 48
0.05
100
AcDbPolyline
 90
2
 70
0
 10
-1.6095836600977316
 20
-0.3086962678836027
 10
-1.5381442125683138
 20
-0.23872331927707635
  0
LWPOLYLINE
  5
1ED
330
17
100
AcDbEntity
  8
A-KRESKOWANIE
370
25
 48
0.05
100
AcDbPolyline
 90
2
 70
0
 10
-1.5088557874316868
 20
-0.23902705109330802
 10
-1.4388828388251602
 20
-0.3104664986227257
  0
LWPOLYLINE
  5
1EE
330
17
100
AcDbEntity
  8
A-KRESKOWANIE
370
25
 48
0.05
100
AcDbPolyline
 90
2
 70
0
 10
-1.3595836600977316
 20
-0.3112888604761953
 10
-1.2881442125683138
 20
-0.24131591186966894
  0
LWPOLYLINE
  5
1EF
330
17
100
AcDbEntity
  8
A-KRESKOWANIE
370
25
 48
0.05
100
AcDbPolyline
 90
2
 70
0
 10
-1.2588557874316868
 20
-0.24161964368590064
 10
-1.1888828388251602
 20
-0.3130590912153183
  0
LWPOLYLINE
  5
1F0
330
17
100
AcDbEntity
  8
A-KRESKOWANIE
370
25
 48
0.05
100
AcDbPolyline
 90
2
 70
0
 10
-1.1095836600977316
 20
-0.3138814530687879
 10
-1.0381442125683138
 20
-0.24390850446226156
  0
LWPOLYLINE
  5
1F1
330
17
100
AcDbEntity
  8
A-KRESKOWANIE
370
25
 48
0.05
100
AcDbPolyline
 90
2
 70
0
 10
-1.0088557874316868
 20
-0.24421223627849323
 10
-0.9388828388251603
 20
-0.31565168380791087
  0
LWPOLYLINE
  5
1F2
330
17
100
AcDbEntity
  8
A-KRESKOWANIE
370
25
 48
0.05
100
AcDbPolyline
 90
2
 70
0
 10
-0.8595836600977315
 20
-0.3164740456613805
 10
-0.7881442125683139
 20
-0.24650109705485415
  0
LWPOLYLINE
  5
1F3
330
17
100
AcDbEntity
  8
A-KRESKOWANIE
370
25
 48
0.05
100
AcDbPolyline
 90
2
 70
0
 10
-0.7588557874316867
 20
-0.24680482887108582
 10
-0.6888828388251603
 20
-0.31824427640050346
  0
LWPOLYLINE
  5
1F4
330
17
100
AcDbEntity
  8
A-KRESKOWANIE
370
25
 48
0.05
100
AcDbPolyline
 90
2
 70
0
 10
-0.6095836600977315
 20
-0.3190666382539731
 10
-0.5381442125683139
 20
-0.24909368964744674
  0
LWPOLYLINE
  5
1F5
330
17
100
AcDbEntity
  8
A-KRESKOWANIE
370
25
 48
0.05
100
AcDbPolyline
 90
2
 70
0
 10
-0.5088557874316868
 20
-0.24939742146367844
 10
-0.4388828388251604
 20
-0.3208368689930961
  0
LWPOLYLINE
  5
1F6
330
17
100
AcDbEntity
  8
A-KRESKOWANIE
370
25
 48
0.05
100
AcDbPolyline
 90
2
 70
0
 10
-0.3595836600977315
 20
-0.3216592308465657
 10
-0.2881442125683138
 20
-0.2516862822400393
  0
LWPOLYLINE
  5
1F7
330
17
100
AcDbEntity
  8
A-KRESKOWANIE
370
25
 48
0.05
100
AcDbPolyline
 90
2
 70
0
 10
-0.2588557874316868
 20
-0.2519900140562711
 10
-0.18888283882516038
 20
-0.3234294615856887
  0
LWPOLYLINE
  5
1F8
330
17
100
AcDbEntity
  8
A-KRESKOWANIE
370
25
 48
0.05
100
AcDbPolyline
 90
2
 70
0
 10
-0.10926601579895026
 20
-0.32407451239414015
 10
-0.03814475083795633
 20
-0.2537781833978967
  0
LWPOLYLINE
  5
1F9
330
17
100
AcDbEntity
  8
A-KRESKOWANIE
370
25
 48
0.05
100
AcDbPolyline
 90
2
 70
0
 10
-0.008855249162044242
 20
-0.25394903882433945
 10
0.06144107983419922
 20
-0.3250703037853334
  0
LWPOLYLINE
  5
1FA
330
17
100
AcDbEntity
  8
A-KRESKOWANIE
370
25
 48
0.05
100
AcDbPolyline
 90
2
 70
0
 10
0.14073398420104974
 20
-0.3255328457274733
 10
0.21185524916204368
 20
-0.2552365167312299
  0
LWPOLYLINE
  5
1FB
330
17
100
AcDbEntity
  8
A-KRESKOWANIE
370
25
 48
0.05
100
AcDbPolyline
 90
2
 70
0
 10
0.24114475083795575
 20
-0.2554073721576727
 10
0.31144107983419916
 20
-0.32652863711866664
  0
LWPOLYLINE
  5
1FC
330
17
100
AcDbEntity
  8
A-KRESKOWANIE
370
25
 48
0.05
100
AcDbPolyline
 90
2
 70
0
 10
0.3907339842010498
 20
-0.32699117906080655
 10
0.4618552491620437
 20
-0.2566948500645631
  0
LWPOLYLINE
  5
1FD
330
17
100
AcDbEntity
  8
A-KRESKOWANIE
370
25
 48
0.05
100
AcDbPolyline
 90
2
 70
0
 10
0.4911447508379557
 20
-0.25686570549100585
 10
0.5614410798341991
 20
-0.3279869704519998
  0
LWPOLYLINE
  5
1FE
330
17
100
AcDbEntity
  8
A-KRESKOWANIE
370
25
 48
0.05
100
AcDbPolyline
 90
2
 70
0
 10
0.6407339842010498
 20
-0.3284495123941397
 10
0.7118552491620437
 20
-0.2581531833978963
  0
LWPOLYLINE
  5
1FF
330
17
100
AcDbEntity
  8
A-KRESKOWANIE
370
25
 48
0.05
100
AcDbPolyline
 90
2
 70
0
 10
0.7411447508379557
 20
-0.258324038824339
 10
0.8114410798341991
 20
-0.329445303785333
  0
LWPOLYLINE
  5
200
330
17
100
AcDbEntity
  8
A-KRESKOWANIE
370
25
 48
0.05
100
AcDbPolyline
 90
2
 70
0
 10
0.8907339842010498
 20
-0.3299078457274729
 10
0.9618552491620437
 20
-0.25961151673122945
  0
LWPOLYLINE
  5
201
330
17
100
AcDbEntity
  8
A-KRESKOWANIE
370
25
 48
0.05
100
AcDbPolyline
 90
2
 70
0
 10
0.9911447508379557
 20
-0.25978237215767225
 10
1.0614410798341993
 20
-0.3309036371186662
  0
LWPOLYLINE
  5
202
330
17
100
AcDbEntity
  8
A-KRESKOWANIE
370
25
 48
0.05
100
AcDbPolyline
 90
2
 70
0
 10
1.1407339842010498
 20
-0.3313661790608061
 10
1.2118552491620438
 20
-0.2610698500645627
  0
LWPOLYLINE
  5
203
330
17
100
AcDbEntity
  8
A-KRESKOWANIE
370
25
 48
0.05
100
AcDbPolyline
 90
2
 70
0
 10
1.2411447508379556
 20
-0.2612407054910054
 10
1.3114410798341993
 20
-0.3323619704519994
  0
LWPOLYLINE
  5
204
330
17
100
AcDbEntity
  8
A-KRESKOWANIE
370
25
 48
0.05
100
AcDbPolyline
 90
2
 70
0
 10
1.3907339842010498
 20
-0.3328245123941393
 10
1.4618552491620438
 20
-0.26252818339789585
  0
LWPOLYLINE
  5
205
330
17
100
AcDbEntity
  8
A-KRESKOWANIE
370
25
 48
0.05
100
AcDbPolyline
 90
2
 70
0
 10
1.4911447508379556
 20
-0.2626990388243386
 10
1.5614410798341993
 20
-0.33382030378533256
  0
LWPOLYLINE
  5
206
330
17
100
AcDbEntity
  8
A-KRESKOWANIE
370
25
 48
0.05
100
AcDbPolyline
 90
2
 70
0
 10
1.6407339842010498
 20
-0.33428284572747247
 10
1.7118552491620438
 20
-0.263986516731229
  0
LWPOLYLINE
  5
207
330
17
100
AcDbEntity
  8
A-KRESKOWANIE
370
25
 48
0.05
100
AcDbPolyline
 90
2
 70
0
 10
1.7411447508379556
 20
-0.2641573721576718
 10
1.8114410798341993
 20
-0.3352786371186658
  0
LWPOLYLINE
  5
208
330
17
100
AcDbEntity
  8
A-KRESKOWANIE
370
25
 48
0.05
100
AcDbPolyline
 90
2
 70
0
 10
1.8907339842010498
 20
-0.3357411790608057
 10
1.9618552491620438
 20
-0.26544485006456225
  0
LWPOLYLINE
  5
209
330
17
100
AcDbEntity
  8
A-KRESKOWANIE
370
25
 48
0.05
100
AcDbPolyline
 90
2
 70
0
 10
1.9911447508379556
 20
-0.265615705491005
 10
2.061441079834199
 20
-0.33673697045199896
  0
LWPOLYLINE
  5
20A
330
17
100
AcDbEntity
  8
A-KRESKOWANIE
370
25
 48
0.05
100
AcDbPolyline
 90
2
 70
0
 10
2.1407339842010495
 20
-0.33719951239413887
 10
2.211855249162044
 20
-0.2669031833978954
  0
LWPOLYLINE
  5
20B
330
17
100
AcDbEntity
  8
A-KRESKOWANIE
370
25
 48
0.05
100
AcDbPolyline
 90
2
 70
0
 10
2.2411447508379556
 20
-0.26707403882433817
 10
2.311441079834199
 20
-0.33819530378533214
  0
LWPOLYLINE
  5
20C
330
17
100
AcDbEntity
  8
A-KRESKOWANIE
370
25
 48
0.05
100
AcDbPolyline
 90
2
 70
0
 10
2.3907339842010495
 20
-0.33865784572747204
 10
2.461855249162044
 20
-0.2683615167312286
  0
LWPOLYLINE
  5
20D
330
17
100
AcDbEntity
  8
A-KRESKOWANIE
370
25
 48
0.05
100
AcDbPolyline
 90
2
 70
0
 10
2.4911447508379556
 20
-0.2685323721576714
 10
2.561441079834199
 20
-0.33965363711866536
  0
LWPOLYLINE
  5
20E
330
17
100
AcDbEntity
  8
A-KRESKOWANIE
370
25
 48
0.05
100
AcDbPolyline
 90
2
 70
0
 10
2.6407339842010495
 20
-0.34011617906080527
 10
2.711855249162044
 20
-0.26981985006456183
  0
LWPOLYLINE
  5
20F
330
17
100
AcDbEntity
  8
A-KRESKOWANIE
370
25
 48
0.05
100
AcDbPolyline
 90
2
 70
0
 10
2.7411447508379556
 20
-0.26999070549100457
 10
2.811441079834199
 20
-0.34111197045199854
  0
LWPOLYLINE
  5
210
330
17
100
AcDbEntity
  8
A-KRESKOWANIE
370
25
 48
0.05
100
AcDbPolyline
 90
2
 70
0
 10
2.8907339842010495
 20
-0.34157451239413844
 10
2.961855249162044
 20
-0.271278183397895
  0
LWPOLYLINE
  5
211
330
17
100
AcDbEntity
  8
A-KRESKOWANIE
370
25
 48
0.05
100
AcDbPolyline
 90
2
 70
0
 10
2.9911447508379556
 20
-0.27144903882433774
 10
3.061441079834199
 20
-0.3425703037853317
  0
LWPOLYLINE
  5
212
330
17
100
AcDbEntity
  8
A-KRESKOWANIE
370
25
 48
0.05
100
AcDbPolyline
 90
2
 70
0
 10
3.1407339842010495
 20
-0.3430328457274716
 10
3.211855249162044
 20
-0.2727365167312282
  0
LWPOLYLINE
  5
213
330
17
100
AcDbEntity
  8
A-KRESKOWANIE
370
25
 48
0.05
100
AcDbPolyline
 90
2
 70
0
 10
3.2411447508379556
 20
-0.27290737215767097
 10
3.311441079834199
 20
-0.34402863711866494
  0
LWPOLYLINE
  5
214
330
17
100
AcDbEntity
  8
A-KRESKOWANIE
370
25
 48
0.05
100
AcDbPolyline
 90
2
 70
0
 10
3.3907339842010495
 20
-0.34449117906080484
 10
3.461855249162044
 20
-0.2741948500645614
  0
LWPOLYLINE
  5
215
330
17
100
AcDbEntity
  8
A-KRESKOWANIE
370
25
 48
0.05
100
AcDbPolyline
 90
2
 70
0
 10
3.4911447508379556
 20
-0.27436570549100414
 10
3.561441079834199
 20
-0.3454869704519981
  0
LWPOLYLINE
  5
216
330
17
100
AcDbEntity
  8
A-KRESKOWANIE
370
25
 48
0.05
100
AcDbPolyline
 90
2
 70
0
 10
3.6407339842010495
 20
-0.345949512394138
 10
3.711855249162044
 20
-0.2756531833978946
  0
LWPOLYLINE
  5
217
330
17
100
AcDbEntity
  8
A-KRESKOWANIE
370
25
 48
0.05
100
AcDbPolyline
 90
2
 70
0
 10
3.7411447508379556
 20
-0.2758240388243373
 10
3.811441079834199
 20
-0.3469453037853313
  0
LWPOLYLINE
  5
218
330
17
100
AcDbEntity
  8
A-KRESKOWANIE
370
25
 48
0.05
100
AcDbPolyline
 90
2
 70
0
 10
3.8907339842010495
 20
-0.3474078457274712
 10
3.961855249162044
 20
-0.27711151673122775
  0
LWPOLYLINE
  5
219
330
17
100
AcDbEntity
  8
A-KRESKOWANIE
370
25
 48
0.05
100
AcDbPolyline
 90
2
 70
0
 10
3.991144750837956
 20
-0.27728237215767054
 10
4.061441079834199
 20
-0.3484036371186645
  0
LWPOLYLINE
  5
21A
330
17
100
AcDbEntity
  8
A-KRESKOWANIE
370
25
 48
0.05
100
AcDbPolyline
 90
2
 70
0
 10
4.1407339842010495
 20
-0.3488661790608044
 10
4.211855249162043
 20
-0.278569850064561
  0
LWPOLYLINE
  5
21B
330
17
100
AcDbEntity
  8
A-KRESKOWANIE
370
25
 48
0.05
100
AcDbPolyline
 90
2
 70
0
 10
4.2411447508379565
 20
-0.2787407054910037
 10
4.311441079834199
 20
-0.3498619704519977
  0
LWPOLYLINE
  5
21C
330
17
100
AcDbEntity
  8
A-KRESKOWANIE
370
25
 48
0.05
100
AcDbPolyline
 90
2
 70
0
 10
4.3907339842010495
 20
-0.3503245123941376
 10
4.461855249162043
 20
-0.28002818339789415
  0
LWPOLYLINE
  5
21D
330
17
100
AcDbEntity
  8
A-KRESKOWANIE
370
25
 48
0.05
100
AcDbPolyline
 90
2
 70
0
 10
4.4911447508379565
 20
-0.2801990388243369
 10
4.561441079834199
 20
-0.35132030378533086
  0
LWPOLYLINE
  5
21E
330
17
100
AcDbEntity
  8
A-KRESKOWANIE
370
25
 48
0.05
100
AcDbPolyline
 90
2
 70
0
 10
4.6407339842010495
 20
-0.35178284572747076
 10
4.711855249162043
 20
-0.2814865167312273
  0
LWPOLYLINE
  5
21F
330
17
100
AcDbEntity
  8
A-KRESKOWANIE
370
25
 48
0.05
100
AcDbPolyline
 90
2
 70
0
 10
4.7411447508379565
 20
-0.2816573721576701
 10
4.811441079834199
 20
-0.3527786371186641
  0
LWPOLYLINE
  5
220
330
17
100
AcDbEntity
  8
A-KRESKOWANIE
370
25
 48
0.05
100
AcDbPolyline
 90
2
 70
0
 10
4.8907339842010495
 20
-0.353241179060804
 10
4.961855249162043
 20
-0.28294485006456055
  0
LWPOLYLINE
  5
221
330
17
100
AcDbEntity
  8
A-KRESKOWANIE
370
25
 48
0.05
100
AcDbPolyline
 90
2
 70
0
 10
4.9911447508379565
 20
-0.2831157054910033
 10
5.061441079834199
 20
-0.35423697045199726
  0
LWPOLYLINE
  5
222
330
17
100
AcDbEntity
  8
A-KRESKOWANIE
370
25
 48
0.05
100
AcDbPolyline
 90
2
 70
0
 10
5.1407339842010495
 20
-0.35469951239413716
 10
5.211855249162043
 20
-0.2844031833978937
  0
LWPOLYLINE
  5
223
330
17
100
AcDbEntity
  8
A-KRESKOWANIE
370
25
 48
0.05
100
AcDbPolyline
 90
2
 70
0
 10
5.2411447508379565
 20
-0.28457403882433646
 10
5.311441079834199
 20
-0.35569530378533043
  0
LWPOLYLINE
  5
224
330
17
100
AcDbEntity
  8
A-KRESKOWANIE
370
25
 48
0.05
100
AcDbPolyline
 90
2
 70
0
 10
5.390718824852531
 20
-0.35616631723360326
 10
5.461855267950755
 20
-0.28588534780849495
  0
LWPOLYLINE
  5
225
330
17
100
AcDbEntity
  8
A-KRESKOWANIE
370
25
 48
0.05
100
AcDbPolyline
 90
2
 70
0
 10
5.491144732049245
 20
-0.2860625280085062
 10
5.561425701474352
 20
-0.35719897110673104
  0
LWPOLYLINE
  5
226
330
17
100
AcDbEntity
  8
A-KRESKOWANIE
370
25
 48
0.05
100
AcDbPolyline
 90
2
 70
0
 10
5.640531293104415
 20
-0.35778335687721546
 10
5.711855557460695
 20
-0.2876930043739255
  0
LWPOLYLINE
  5
227
330
17
100
AcDbEntity
  8
A-KRESKOWANIE
370
25
 48
0.05
100
AcDbPolyline
 90
2
 70
0
 10
5.741144442539304
 20
-0.2879485642535329
 10
5.811234795042594
 20
-0.35927282860981313
  0
LWPOLYLINE
  5
228
330
17
100
AcDbEntity
  8
A-KRESKOWANIE
370
25
 48
0.05
100
AcDbPolyline
 90
2
 70
0
 10
5.890531293104415
 20
-0.35996472942623486
 10
5.961855557460695
 20
-0.2898743769229449
  0
LWPOLYLINE
  5
229
330
17
100
AcDbEntity
  8
A-KRESKOWANIE
370
25
 48
0.05
100
AcDbPolyline
 90
2
 70
0
 10
5.991144442539304
 20
-0.29012993680255234
 10
6.061234795042594
 20
-0.3614542011588326
  0
LWPOLYLINE
  5
22A
330
17
100
AcDbEntity
  8
A-KRESKOWANIE
370
25
 48
0.05
100
AcDbPolyline
 90
2
 70
0
 10
6.140531293104415
 20
-0.3621461019752543
 10
6.211855557460695
 20
-0.29205574947196433
  0
LWPOLYLINE
  5
22B
330
17
100
AcDbEntity
  8
A-KRESKOWANIE
370
25
 48
0.05
100
AcDbPolyline
 90
2
 70
0
 10
6.241144442539304
 20
-0.29231130935157174
 10
6.311234795042594
 20
-0.363635573707852
  0
LWPOLYLINE
  5
22C
330
17
100
AcDbEntity
  8
A-KRESKOWANIE
370
25
 48
0.05
100
AcDbPolyline
 90
2
 70
0
 10
6.390531293104415
 20
-0.3643274745242737
 10
6.461855557460695
 20
-0.29423712202098373
  0
LWPOLYLINE
  5
22D
330
17
100
AcDbEntity
  8
A-KRESKOWANIE
370
25
 48
0.05
100
AcDbPolyline
 90
2
 70
0
 10
6.491144442539304
 20
-0.2944926819005912
 10
6.561234795042594
 20
-0.36581694625687144
  0
LWPOLYLINE
  5
22E
330
17
100
AcDbEntity
  8
A-KRESKOWANIE
370
25
 48
0.05
100
AcDbPolyline
 90
2
 70
0
 10
6.640531293104415
 20
-0.3665088470732932
 10
6.711855557460695
 20
-0.2964184945700032
  0
LWPOLYLINE
  5
22F
330
17
100
AcDbEntity
  8
A-KRESKOWANIE
370
25
 48
0.05
100
AcDbPolyline
 90
2
 70
0
 10
6.741144442539304
 20
-0.2966740544496106
 10
6.811234795042594
 20
-0.36799831880589084
  0
LWPOLYLINE
  5
230
330
17
100
AcDbEntity
  8
A-KRESKOWANIE
370
25
 48
0.05
100
AcDbPolyline
 90
2
 70
0
 10
6.890531293104415
 20
-0.36869021962231263
 10
6.961855557460695
 20
-0.29859986711902264
  0
LWPOLYLINE
  5
231
330
17
100
AcDbEntity
  8
A-KRESKOWANIE
370
25
 48
0.05
100
AcDbPolyline
 90
2
 70
0
 10
6.991144442539304
 20
-0.29885542699863005
 10
7.061234795042594
 20
-0.3701796913549103
  0
LWPOLYLINE
  5
232
330
17
100
AcDbEntity
  8
A-KRESKOWANIE
370
25
 48
0.05
100
AcDbPolyline
 90
2
 70
0
 10
7.140531293104415
 20
-0.37087159217133203
 10
7.211855557460695
 20
-0.30078123966804204
  0
LWPOLYLINE
  5
233
330
17
100
AcDbEntity
  8
A-KRESKOWANIE
370
25
 48
0.05
100
AcDbPolyline
 90
2
 70
0
 10
7.241144442539304
 20
-0.3010367995476495
 10
7.311234795042594
 20
-0.37236106390392976
  0
LWPOLYLINE
  5
234
330
17
100
AcDbEntity
  8
A-KRESKOWANIE
370
25
 48
0.05
100
AcDbPolyline
 90
2
 70
0
 10
7.390531293104415
 20
-0.3730529647203515
 10
7.461855557460695
 20
-0.3029626122170615
  0
LWPOLYLINE
  5
235
330
17
100
AcDbEntity
  8
A-KRESKOWANIE
370
25
 48
0.05
100
AcDbPolyline
 90
2
 70
0
 10
7.491144442539304
 20
-0.30321817209666896
 10
7.561234795042594
 20
-0.3745424364529492
  0
LWPOLYLINE
  5
236
330
17
100
AcDbEntity
  8
A-KRESKOWANIE
370
25
 48
0.05
100
AcDbPolyline
 90
2
 70
0
 10
7.640531293104415
 20
-0.37523433726937094
 10
7.711855557460695
 20
-0.30514398476608096
  0
LWPOLYLINE
  5
237
330
17
100
AcDbEntity
  8
A-KRESKOWANIE
370
25
 48
0.05
100
AcDbPolyline
 90
2
 70
0
 10
7.741144442539304
 20
-0.3053995446456884
 10
7.811234795042594
 20
-0.37672380900196867
  0
LWPOLYLINE
  5
238
330
17
100
AcDbEntity
  8
A-KRESKOWANIE
370
25
 48
0.05
100
AcDbPolyline
 90
2
 70
0
 10
7.890531293104415
 20
-0.37741570981839034
 10
7.961855557460695
 20
-0.30732535731510036
  0
LWPOLYLINE
  5
239
330
17
100
AcDbEntity
  8
A-KRESKOWANIE
370
25
 48
0.05
100
AcDbPolyline
 90
2
 70
0
 10
7.991144442539303
 20
-0.3075809171947078
 10
8.061234795042594
 20
-0.37890518155098807
  0
LWPOLYLINE
  5
23A
330
17
100
AcDbEntity
  8
A-KRESKOWANIE
370
25
 48
0.05
100
AcDbPolyline
 90
2
 70
0
 10
8.140531293104416
 20
-0.3795970823674098
 10
8.211855557460696
 20
-0.3095067298641198
  0
LWPOLYLINE
  5
23B
330
17
100
AcDbEntity
  8
A-KRESKOWANIE
370
25
 48
0.05
100
AcDbPolyline
 90
2
 70
0
 10
8.241144442539303
 20
-0.30976228974372727
 10
8.311234795042594
 20
-0.3810865541000075
  0
LWPOLYLINE
  5
23C
330
17
100
AcDbEntity
  8
A-KRESKOWANIE
370
25
 48
0.05
100
AcDbPolyline
 90
2
 70
0
 10
8.390531293104416
 20
-0.38177845491642926
 10
8.461855557460696
 20
-0.31168810241313927
  0
LWPOLYLINE
  5
23D
330
17
100
AcDbEntity
  8
A-KRESKOWANIE
370
25
 48
0.05
100
AcDbPolyline
 90
2
 70
0
 10
8.491144442539303
 20
-0.3119436622927467
 10
8.561234795042594
 20
-0.383267926649027
  0
LWPOLYLINE
  5
23E
330
17
100
AcDbEntity
  8
A-OSIE
  6
PUNKTOWA
370
35
 48
0.027777777777777787
100
AcDbPolyline
 90
2
 70
128
 10
-3.1485000000000003
 20
-0.9129065686274528
 10
-3.1485000000000003
 20
-0.3879065686274527
  0
LWPOLYLINE
  5
23F
330
17
100
AcDbEntity
  8
A-OSIE
  6
PUNKTOWA
370
35
 48
0.027777777777777787
100
AcDbPolyline
 90
2
 70
128
 10
-0.1485000000000003
 20
-0.9129065686274528
 10
-0.1485000000000003
 20
-0.3879065686274527
  0
LWPOLYLINE
  5
240
330
17
100
AcDbEntity
  8
A-OSIE
  6
PUNKTOWA
370
35
 48
0.027777777777777787
100
AcDbPolyline
 90
2
 70
128
 10
2.6514999999999995
 20
-0.9129065686274528
 10
2.6514999999999995
 20
-0.3879065686274527
  0
LWPOLYLINE
  5
241
330
17
100
AcDbEntity
  8
A-OSIE
  6
PUNKTOWA
370
35
 48
0.027777777777777787
100
AcDbPolyline
 90
2
 70
128
 10
6.8515
 20
-0.9129065686274528
 10
6.8515
 20
-0.3879065686274527
  0
HATCH
  5
242
330
17
100
AcDbEntity
  8
A-OSIE
 62
7
420
16777215
100
AcDbHatch
 10
0.0
 20
0.0
 30
0.0
210
0.0
220
0.0
230
1.0
  2
SOLID
 70
1
 71
0
 91
1
 92
3
 72
0
 73
1
 93
48
 10
-2.8985000000000003
 20
-1.1629065686274527
 10
-2.9006387846565476
 20
-1.13027502057244
 10
-2.9070185434277334
 20
-1.0982018073518225
 10
-2.917530116872179
 20
-1.0672357105361803
 10
-2.9319936490538905
 20
-1.0379065686274527
 10
-2.9501616649271916
 20
-1.0107162113752726
 10
-2.9717233047033633
 20
-0.9861298733308158
 10
-2.99630964274782
 20
-0.9645682335546439
 10
-3.0235000000000003
 20
-0.9464002176813431
 10
-3.052829141908728
 20
-0.9319366854996309
 10
-3.08379523872437
 20
-0.9214251120551856
 10
-3.1158684519449875
 20
-0.915045353284
 10
-3.1485000000000003
 20
-0.9129065686274527
 10
-3.181131548055013
 20
-0.915045353284
 10
-3.2132047612756303
 20
-0.9214251120551856
 10
-3.2441708580912727
 20
-0.9319366854996309
 10
-3.2735000000000003
 20
-0.946400217681343
 10
-3.30069035725218
 20
-0.9645682335546438
 10
-3.3252766952966373
 20
-0.9861298733308158
 10
-3.346838335072809
 20
-1.0107162113752723
 10
-3.36500635094611
 20
-1.0379065686274527
 10
-3.379469883127822
 20
-1.0672357105361803
 10
-3.3899814565722672
 20
-1.0982018073518225
 10
-3.396361215343453
 20
-1.1302750205724397
 10
-3.3985000000000003
 20
-1.1629065686274527
 10
-3.396361215343453
 20
-1.1955381166824655
 10
-3.3899814565722672
 20
-1.2276113299030829
 10
-3.379469883127822
 20
-1.258577426718725
 10
-3.36500635094611
 20
-1.2879065686274527
 10
-3.346838335072809
 20
-1.3150969258796328
 10
-3.3252766952966373
 20
-1.3396832639240894
 10
-3.3006903572521806
 20
-1.3612449037002614
 10
-3.2735000000000003
 20
-1.3794129195735623
 10
-3.2441708580912727
 20
-1.3938764517552742
 10
-3.2132047612756307
 20
-1.4043880251997196
 10
-3.1811315480550135
 20
-1.4107677839709052
 10
-3.1485000000000003
 20
-1.4129065686274527
 10
-3.1158684519449875
 20
-1.4107677839709054
 10
-3.0837952387243703
 20
-1.4043880251997198
 10
-3.052829141908728
 20
-1.3938764517552744
 10
-3.0235000000000003
 20
-1.3794129195735625
 10
-2.9963096427478204
 20
-1.3612449037002616
 10
-2.9717233047033633
 20
-1.3396832639240897
 10
-2.9501616649271916
 20
-1.315096925879633
 10
-2.931993649053891
 20
-1.2879065686274527
 10
-2.917530116872179
 20
-1.2585774267187253
 10
-2.9070185434277334
 20
-1.227611329903083
 10
-2.9006387846565476
 20
-1.195538116682466
 97
0
 75
0
 76
1
 98
0
  0
HATCH
  5
243
330
17
100
AcDbEntity
  8
A-OSIE
 62
7
420
16777215
100
AcDbHatch
 10
0.0
 20
0.0
 30
0.0
210
0.0
220
0.0
230
1.0
  2
SOLID
 70
1
 71
0
 91
1
 92
3
 72
0
 73
1
 93
48
 10
0.1014999999999997
 20
-1.1629065686274527
 10
0.0993612153434523
 20
-1.13027502057244
 10
0.09298145657226678
 20
-1.0982018073518225
 10
0.08246988312782139
 20
-1.0672357105361803
 10
0.06800635094610938
 20
-1.0379065686274527
 10
0.04983833507280852
 20
-1.0107162113752726
 10
0.028276695296636595
 20
-0.9861298733308158
 10
0.0036903572521798655
 20
-0.9645682335546439
 10
-0.02350000000000027
 20
-0.9464002176813431
 10
-0.05282914190872784
 20
-0.9319366854996309
 10
-0.08379523872437006
 20
-0.9214251120551856
 10
-0.11586845194498738
 20
-0.915045353284
 10
-0.14850000000000027
 20
-0.9129065686274527
 10
-0.18113154805501314
 20
-0.915045353284
 10
-0.21320476127563046
 20
-0.9214251120551856
 10
-0.24417085809127267
 20
-0.9319366854996309
 10
-0.27350000000000024
 20
-0.946400217681343
 10
-0.3006903572521804
 20
-0.9645682335546438
 10
-0.32527669529663716
 20
-0.9861298733308158
 10
-0.34683833507280903
 20
-1.0107162113752723
 10
-0.3650063509461099
 20
-1.0379065686274527
 10
-0.379469883127822
 20
-1.0672357105361803
 10
-0.38998145657226735
 20
-1.0982018073518225
 10
-0.3963612153434529
 20
-1.1302750205724397
 10
-0.3985000000000003
 20
-1.1629065686274527
 10
-0.3963612153434529
 20
-1.1955381166824655
 10
-0.3899814565722674
 20
-1.2276113299030829
 10
-0.37946988312782204
 20
-1.258577426718725
 10
-0.36500635094611
 20
-1.2879065686274527
 10
-0.34683833507280915
 20
-1.3150969258796328
 10
-0.3252766952966373
 20
-1.3396832639240894
 10
-0.3006903572521805
 20
-1.3612449037002614
 10
-0.2735000000000004
 20
-1.3794129195735623
 10
-0.24417085809127287
 20
-1.3938764517552742
 10
-0.21320476127563068
 20
-1.4043880251997196
 10
-0.1811315480550134
 20
-1.4107677839709052
 10
-0.14850000000000035
 20
-1.4129065686274527
 10
-0.11586845194498749
 20
-1.4107677839709054
 10
-0.08379523872437022
 20
-1.4043880251997198
 10
-0.052829141908728006
 20
-1.3938764517552744
 10
-0.023500000000000465
 20
-1.3794129195735625
 10
0.0036903572521796713
 20
-1.3612449037002616
 10
0.02827669529663654
 20
-1.3396832639240897
 10
0.04983833507280844
 20
-1.315096925879633
 10
0.0680063509461093
 20
-1.2879065686274527
 10
0.08246988312782133
 20
-1.2585774267187253
 10
0.09298145657226672
 20
-1.227611329903083
 10
0.09936121534345227
 20
-1.195538116682466
 97
0
 75
0
 76
1
 98
0
  0
HATCH
  5
244
330
17
100
AcDbEntity
  8
A-OSIE
 62
7
420
16777215
100
AcDbHatch
 10
0.0
 20
0.0
 30
0.0
210
0.0
220
0.0
230
1.0
  2
SOLID
 70
1
 71
0
 91
1
 92
3
 72
0
 73
1
 93
48
 10
2.9014999999999995
 20
-1.1629065686274527
 10
2.8993612153434523
 20
-1.13027502057244
 10
2.8929814565722665
 20
-1.0982018073518225
 10
2.882469883127821
 20
-1.0672357105361803
 10
2.8680063509461093
 20
-1.0379065686274527
 10
2.8498383350728083
 20
-1.0107162113752726
 10
2.8282766952966365
 20
-0.9861298733308158
 10
2.80369035725218
 20
-0.9645682335546439
 10
2.7764999999999995
 20
-0.9464002176813431
 10
2.747170858091272
 20
-0.9319366854996309
 10
2.71620476127563
 20
-0.9214251120551856
 10
2.6841315480550123
 20
-0.915045353284
 10
2.6514999999999995
 20
-0.9129065686274527
 10
2.6188684519449867
 20
-0.915045353284
 10
2.5867952387243696
 20
-0.9214251120551856
 10
2.555829141908727
 20
-0.9319366854996309
 10
2.5264999999999995
 20
-0.946400217681343
 10
2.4993096427478196
 20
-0.9645682335546438
 10
2.4747233047033625
 20
-0.9861298733308158
 10
2.453161664927191
 20
-1.0107162113752723
 10
2.4349936490538897
 20
-1.0379065686274527
 10
2.420530116872178
 20
-1.0672357105361803
 10
2.4100185434277326
 20
-1.0982018073518225
 10
2.403638784656547
 20
-1.1302750205724397
 10
2.4014999999999995
 20
-1.1629065686274527
 10
2.403638784656547
 20
-1.1955381166824655
 10
2.4100185434277326
 20
-1.2276113299030829
 10
2.420530116872178
 20
-1.258577426718725
 10
2.4349936490538897
 20
-1.2879065686274527
 10
2.453161664927191
 20
-1.3150969258796328
 10
2.4747233047033625
 20
-1.3396832639240894
 10
2.499309642747819
 20
-1.3612449037002614
 10
2.5264999999999995
 20
-1.3794129195735623
 10
2.555829141908727
 20
-1.3938764517552742
 10
2.586795238724369
 20
-1.4043880251997196
 10
2.6188684519449863
 20
-1.4107677839709052
 10
2.6514999999999995
 20
-1.4129065686274527
 10
2.6841315480550123
 20
-1.4107677839709054
 10
2.7162047612756295
 20
-1.4043880251997198
 10
2.747170858091272
 20
-1.3938764517552744
 10
2.7764999999999995
 20
-1.3794129195735625
 10
2.8036903572521794
 20
-1.3612449037002616
 10
2.8282766952966365
 20
-1.3396832639240897
 10
2.8498383350728083
 20
-1.315096925879633
 10
2.868006350946109
 20
-1.2879065686274527
 10
2.882469883127821
 20
-1.2585774267187253
 10
2.8929814565722665
 20
-1.227611329903083
 10
2.8993612153434523
 20
-1.195538116682466
 97
0
 75
0
 76
1
 98
0
  0
HATCH
  5
245
330
17
100
AcDbEntity
  8
A-OSIE
 62
7
420
16777215
100
AcDbHatch
 10
0.0
 20
0.0
 30
0.0
210
0.0
220
0.0
230
1.0
  2
SOLID
 70
1
 71
0
 91
1
 92
3
 72
0
 73
1
 93
48
 10
7.1015
 20
-1.1629065686274527
 10
7.099361215343452
 20
-1.13027502057244
 10
7.092981456572267
 20
-1.0982018073518225
 10
7.082469883127821
 20
-1.0672357105361803
 10
7.068006350946109
 20
-1.0379065686274527
 10
7.049838335072809
 20
-1.0107162113752726
 10
7.028276695296636
 20
-0.9861298733308158
 10
7.00369035725218
 20
-0.9645682335546439
 10
6.9765
 20
-0.9464002176813431
 10
6.9471708580912725
 20
-0.9319366854996309
 10
6.91620476127563
 20
-0.9214251120551856
 10
6.884131548055013
 20
-0.915045353284
 10
6.8515
 20
-0.9129065686274527
 10
6.8188684519449865
 20
-0.915045353284
 10
6.78679523872437
 20
-0.9214251120551856
 10
6.755829141908728
 20
-0.9319366854996309
 10
6.7265
 20
-0.946400217681343
 10
6.69930964274782
 20
-0.9645682335546438
 10
6.674723304703363
 20
-0.9861298733308158
 10
6.6531616649271905
 20
-1.0107162113752723
 10
6.63499364905389
 20
-1.0379065686274527
 10
6.620530116872178
 20
-1.0672357105361803
 10
6.610018543427732
 20
-1.0982018073518225
 10
6.603638784656547
 20
-1.1302750205724397
 10
6.6015
 20
-1.1629065686274527
 10
6.603638784656547
 20
-1.1955381166824655
 10
6.610018543427732
 20
-1.2276113299030829
 10
6.620530116872178
 20
-1.258577426718725
 10
6.63499364905389
 20
-1.2879065686274527
 10
6.6531616649271905
 20
-1.3150969258796328
 10
6.674723304703363
 20
-1.3396832639240894
 10
6.69930964274782
 20
-1.3612449037002614
 10
6.7265
 20
-1.3794129195735623
 10
6.755829141908727
 20
-1.3938764517552742
 10
6.78679523872437
 20
-1.4043880251997196
 10
6.8188684519449865
 20
-1.4107677839709052
 10
6.8515
 20
-1.4129065686274527
 10
6.884131548055013
 20
-1.4107677839709054
 10
6.91620476127563
 20
-1.4043880251997198
 10
6.947170858091272
 20
-1.3938764517552744
 10
6.9765
 20
-1.3794129195735625
 10
7.00369035725218
 20
-1.3612449037002616
 10
7.028276695296636
 20
-1.3396832639240897
 10
7.049838335072808
 20
-1.315096925879633
 10
7.068006350946109
 20
-1.2879065686274527
 10
7.082469883127821
 20
-1.2585774267187253
 10
7.092981456572267
 20
-1.227611329903083
 10
7.099361215343452
 20
-1.195538116682466
 97
0
 75
0
 76
1
 98
0
  0
CIRCLE
  5
246
330
17
100
AcDbEntity
  8
A-OSIE
  6
Continuous
370
35
 48
0.05
100
AcDbCircle
 10
-3.1485000000000003
 20
-1.1629065686274527
 30
0.0
 40
0.25
  0
CIRCLE
  5
247
330
17
100
AcDbEntity
  8
A-OSIE
  6
Continuous
370
35
 48
0.05
100
AcDbCircle
 10
-0.1485000000000003
 20
-1.1629065686274527
 30
0.0
 40
0.25
  0
CIRCLE
  5
248
330
17
100
AcDbEntity
  8
A-OSIE
  6
Continuous
370
35
 48
0.05
100
AcDbCircle
 10
2.6514999999999995
 20
-1.1629065686274527
 30
0.0
 40
0.25
  0
CIRCLE
  5
249
330
17
100
AcDbEntity
  8
A-OSIE
  6
Continuous
370
35
 48
0.05
100
AcDbCircle
 10
6.8515
 20
-1.1629065686274527
 30
0.0
 40
0.25
  0
TEXT
  5
24A
330
17
100
AcDbEntity
  8
A-OSIE
100
AcDbText
 10
-3.2403521462639113
 20
-1.2504065686274526
 30
0.0
 40
0.17500000000000002
  1
D
  7
PL_ARIAL
 11
-3.2403521462639113
 21
-1.2504065686274526
 31
0.0
100
AcDbText
  0
TEXT
  5
24B
330
17
100
AcDbEntity
  8
A-OSIE
100
AcDbText
 10
-0.24035214626391127
 20
-1.2504065686274526
 30
0.0
 40
0.17500000000000002
  1
C
  7
PL_ARIAL
 11
-0.24035214626391127
 21
-1.2504065686274526
 31
0.0
100
AcDbText
  0
TEXT
  5
24C
330
17
100
AcDbEntity
  8
A-OSIE
100
AcDbText
 10
2.5666629570747213
 20
-1.2504065686274526
 30
0.0
 40
0.17500000000000002
  1
B
  7
PL_ARIAL
 11
2.5666629570747213
 21
-1.2504065686274526
 31
0.0
100
AcDbText
  0
TEXT
  5
24D
330
17
100
AcDbEntity
  8
A-OSIE
100
AcDbText
 10
6.766662957074722
 20
-1.2504065686274526
 30
0.0
 40
0.17500000000000002
  1
A
  7
PL_ARIAL
 11
6.766662957074722
 21
-1.2504065686274526
 31
0.0
100
AcDbText
  0
LWPOLYLINE
  5
24E
330
17
100
AcDbEntity
  8
A-ELEWACJE
370
35
 48
0.05
100
AcDbPolyline
 90
5
 70
0
 10
-2.1635
 20
1.004
 10
-0.5335000000000001
 20
1.004
 10
-0.5335000000000001
 20
0.9750000000000001
 10
-2.1635
 20
0.9750000000000001
 10
-2.1635
 20
1.004
  0
LWPOLYLINE
  5
24F
330
17
100
AcDbEntity
  8
A-ELEWACJE
370
35
 48
0.05
100
AcDbPolyline
 90
5
 70
0
 10
-1.9635000000000002
 20
4.364000000000001
 10
-0.9335000000000001
 20
4.364000000000001
 10
-0.9335000000000001
 20
4.335
 10
-1.9635000000000002
 20
4.335
 10
-1.9635000000000002
 20
4.364000000000001
  0
LWPOLYLINE
  5
250
330
17
100
AcDbEntity
  8
A-ELEWACJE
370
35
 48
0.05
100
AcDbPolyline
 90
5
 70
0
 10
0.6365000000000001
 20
3.9640000000000004
 10
2.2665
 20
3.9640000000000004
 10
2.2665
 20
3.9350000000000005
 10
0.6365000000000001
 20
3.9350000000000005
 10
0.6365000000000001
 20
3.9640000000000004
  0
LWPOLYLINE
  5
251
330
17
100
AcDbEntity
  8
A-ELEWACJE
370
35
 48
0.05
100
AcDbPolyline
 90
5
 70
0
 10
4.0365
 20
3.9640000000000004
 10
5.8665
 20
3.9640000000000004
 10
5.8665
 20
3.9350000000000005
 10
4.0365
 20
3.9350000000000005
 10
4.0365
 20
3.9640000000000004
  0
LWPOLYLINE
  5
252
330
17
100
AcDbEntity
  8
A-ELEWACJE
370
35
 48
0.05
100
AcDbPolyline
 90
6
 70
0
 10
-3.4455
 20
-0.21854
 10
-3.4455
 20
2.91
 10
-3.4455
 20
6.4935
 10
-3.4385
 20
6.4935
 10
-3.4385
 20
2.91
 10
-3.4385
 20
-0.21862
  0
LWPOLYLINE
  5
253
330
17
100
AcDbEntity
  8
A-ELEWACJE
370
35
 48
0.05
100
AcDbPolyline
 90
10
 70
0
 10
-3.4381
 20
6.4935
 10
-1.9485
 20
6.4935
 10
-0.9485
 20
6.4935
 10
0.6515
 20
6.4935
 10
2.2515
 20
6.4935
 10
4.0515
 20
6.4935
 10
5.8515
 20
6.4935
 10
7.1485
 20
6.4935
 10
7.1485
 20
2.91
 10
7.1485
 20
-0.29983
  0
LWPOLYLINE
  5
254
330
17
100
AcDbEntity
  8
A-ELEWACJE
370
35
 48
0.05
100
AcDbPolyline
 90
4
 70
0
 10
-0.5605
 20
1.0044
 10
-0.5605
 20
2.188
 10
-2.1365
 20
2.188
 10
-2.1365
 20
1.0044
  0
LWPOLYLINE
  5
255
330
17
100
AcDbEntity
  8
A-ELEWACJE
370
35
 48
0.05
100
AcDbPolyline
 90
4
 70
0
 10
-0.9605
 20
4.3644
 10
-0.9605
 20
5.348
 10
-1.9365
 20
5.348
 10
-1.9365
 20
4.3644
  0
LWPOLYLINE
  5
256
330
17
100
AcDbEntity
  8
A-ELEWACJE
370
35
 48
0.05
100
AcDbPolyline
 90
4
 70
0
 10
2.2395
 20
3.9644
 10
2.2395
 20
5.448
 10
0.6635
 20
5.448
 10
0.6635
 20
3.9644
  0
LWPOLYLINE
  5
257
330
17
100
AcDbEntity
  8
A-ELEWACJE
370
35
 48
0.05
100
AcDbPolyline
 90
4
 70
0
 10
5.8395
 20
3.9644
 10
5.8395
 20
5.448
 10
4.0635
 20
5.448
 10
4.0635
 20
3.9644
  0
LWPOLYLINE
  5
258
330
17
100
AcDbEntity
  8
A-ELEWACJE
370
35
 48
0.05
100
AcDbPolyline
 90
5
 70
0
 10
4.2395
 20
2.288
 10
3.1635
 20
2.288
 10
3.1635
 20
0.0
 10
4.2395
 20
0.0
 10
4.2395
 20
2.288
  0
LWPOLYLINE
  5
259
330
17
100
AcDbEntity
  8
A-ELEWACJE
370
35
 48
0.05
100
AcDbPolyline
 90
4
 70
0
 10
-3.3685
 20
6.4939
 10
-3.3685
 20
6.5135
 10
7.0715
 20
6.5135
 10
7.0715
 20
6.4939
  0
LWPOLYLINE
  5
25A
330
17
100
AcDbEntity
  8
A-ELEWACJE
370
35
 48
0.05
100
AcDbPolyline
 90
5
 70
0
 10
4.0365
 20
0.45
 10
4.0065
 20
0.45
 10
4.0065
 20
1.85
 10
4.0365
 20
1.85
 10
4.0365
 20
0.45
  0
LWPOLYLINE
  5
25B
330
17
100
AcDbEntity
  8
A-ELEWACJE
370
35
 48
0.05
100
AcDbPolyline
 90
5
 70
0
 10
-1.8735
 20
5.285
 10
-1.8735
 20
4.435
 10
-1.0235
 20
4.435
 10
-1.0235
 20
5.285
 10
-1.8735
 20
5.285
  0
LWPOLYLINE
  5
25C
330
17
100
AcDbEntity
  8
A-ELEWACJE
370
35
 48
0.05
100
AcDbPolyline
 90
5
 70
0
 10
-0.6235
 20
2.125
 10
-2.0735
 20
2.125
 10
-2.0735
 20
1.075
 10
-0.6235
 20
1.075
 10
-0.6235
 20
2.125
  0
LWPOLYLINE
  5
25D
330
17
100
AcDbEntity
  8
A-ELEWACJE
370
35
 48
0.05
100
AcDbPolyline
 90
5
 70
0
 10
0.7265
 20
4.035
 10
2.1765
 20
4.035
 10
2.1765
 20
5.385
 10
0.7265
 20
5.385
 10
0.7265
 20
4.035
  0
LWPOLYLINE
  5
25E
330
17
100
AcDbEntity
  8
A-ELEWACJE
370
35
 48
0.05
100
AcDbPolyline
 90
5
 70
0
 10
3.2365
 20
2.215
 10
3.2365
 20
0.03
 10
4.1665
 20
0.03
 10
4.1665
 20
2.215
 10
3.2365
 20
2.215
  0
LWPOLYLINE
  5
25F
330
17
100
AcDbEntity
  8
A-ELEWACJE
370
35
 48
0.05
100
AcDbPolyline
 90
5
 70
0
 10
4.914
 20
5.385
 10
4.1265
 20
5.385
 10
4.1265
 20
4.035
 10
4.914
 20
4.035
 10
4.914
 20
5.385
  0
LWPOLYLINE
  5
260
330
17
100
AcDbEntity
  8
A-ELEWACJE
370
35
 48
0.05
100
AcDbPolyline
 90
5
 70
0
 10
4.989
 20
5.385
 10
4.989
 20
4.035
 10
5.7765
 20
4.035
 10
5.7765
 20
5.385
 10
4.989
 20
5.385
  0
LWPOLYLINE
  5
261
330
17
100
AcDbEntity
  8
A-ELEWACJE
370
35
 48
0.05
100
AcDbPolyline
 90
4
 70
0
 10
-3.4459
 20
1.075
 10
-3.4855
 20
1.075
 10
-3.4855
 20
1.104
 10
-3.4459
 20
1.104
  0
LWPOLYLINE
  5
262
330
17
100
AcDbEntity
  8
A-ELEWACJE
370
35
 48
0.05
100
AcDbPolyline
 90
4
 70
0
 10
-3.4459
 20
2.959
 10
-7.1485
 20
2.959
 10
-7.1485
 20
2.984
 10
-3.4459
 20
2.984
  0
LWPOLYLINE
  5
263
330
17
100
AcDbEntity
  8
A-ELEWACJE
370
35
 48
0.05
100
AcDbPolyline
 90
4
 70
0
 10
-3.4459
 20
2.91
 10
-7.1485
 20
2.91
 10
-7.1485
 20
2.914
 10
-3.4459
 20
2.914
  0
LWPOLYLINE
  5
264
330
17
100
AcDbEntity
  8
A-ELEWACJE
370
35
 48
0.05
100
AcDbPolyline
 90
2
 70
0
 10
-7.1485
 20
2.9144
 10
-7.1485
 20
2.9586
  0
LWPOLYLINE
  5
265
330
17
100
AcDbEntity
  8
A-ELEWACJE
370
35
 48
0.05
100
AcDbPolyline
 90
5
 70
0
 10
-7.1485
 20
2.695
 10
-7.1485
 20
2.71
 10
-3.4655
 20
2.71
 10
-3.4655
 20
2.695
 10
-7.1485
 20
2.695
  0
LWPOLYLINE
  5
266
330
17
100
AcDbEntity
  8
A-ELEWACJE
370
35
 48
0.05
100
AcDbPolyline
 90
2
 70
0
 10
-7.1485
 20
2.7104
 10
-7.1485
 20
2.9096
  0
LWPOLYLINE
  5
267
330
17
100
AcDbEntity
  8
A-ELEWACJE
370
35
 48
0.05
100
AcDbPolyline
 90
2
 70
0
 10
-3.4459
 20
2.71
 10
-3.4651
 20
2.71
  0
LWPOLYLINE
  5
268
330
17
100
AcDbEntity
  8
A-ELEWACJE
370
35
 48
0.05
100
AcDbPolyline
 90
3
 70
0
 10
-3.4459
 20
2.41
 10
-7.0585
 20
2.41
 10
-7.0585
 20
2.6946
  0
LWPOLYLINE
  5
269
330
17
100
AcDbEntity
  8
A-ELEWACJE
370
35
 48
0.05
100
AcDbPolyline
 90
4
 70
0
 10
-3.4459
 20
4.034
 10
-7.0685
 20
4.034
 10
-7.0685
 20
4.084
 10
-3.4459
 20
4.084
  0
LWPOLYLINE
  5
26A
330
17
100
AcDbEntity
  8
A-ELEWACJE
370
35
 48
0.05
100
AcDbPolyline
 90
3
 70
0
 10
-3.4459
 20
3.004
 10
-7.0685
 20
3.004
 10
-7.0685
 20
4.0336
  0
LWPOLYLINE
  5
26B
330
17
100
AcDbEntity
  8
A-ELEWACJE
370
35
 48
0.05
100
AcDbPolyline
 90
4
 70
0
 10
-7.0689
 20
4.034
 10
-7.0935
 20
4.034
 10
-7.0935
 20
4.084
 10
-7.0689
 20
4.084
  0
LWPOLYLINE
  5
26C
330
17
100
AcDbEntity
  8
A-ELEWACJE
370
35
 48
0.05
100
AcDbPolyline
 90
3
 70
0
 10
-7.0689
 20
3.004
 10
-7.0785
 20
3.004
 10
-7.0785
 20
4.0336
  0
LWPOLYLINE
  5
26D
330
17
100
AcDbEntity
  8
A-ELEWACJE
370
35
 48
0.05
100
AcDbPolyline
 90
2
 70
0
 10
-7.0585
 20
-0.18927
 10
-7.0585
 20
2.4096
  0
LWPOLYLINE
  5
26E
330
17
100
AcDbEntity
  8
A-ELEWACJE
370
35
 48
0.05
100
AcDbPolyline
 90
2
 70
0
 10
-6.9385
 20
2.4096
 10
-6.9385
 20
-0.18954
  0
LWPOLYLINE
  5
26F
330
17
100
AcDbEntity
  8
A-ELEWACJE
370
35
 48
0.05
100
AcDbPolyline
 90
4
 70
0
 10
-3.4459
 20
0.875
 10
-3.4855
 20
0.875
 10
-3.4855
 20
0.904
 10
-3.4459
 20
0.904
  0
LWPOLYLINE
  5
270
330
17
100
AcDbEntity
  8
A-ELEWACJE
370
35
 48
0.05
100
AcDbPolyline
 90
4
 70
0
 10
7.1489
 20
0.904
 10
7.1885
 20
0.904
 10
7.1885
 20
0.875
 10
7.1489
 20
0.875
  0
LWPOLYLINE
  5
271
330
17
100
AcDbEntity
  8
A-ELEWACJE
370
35
 48
0.05
100
AcDbPolyline
 90
4
 70
0
 10
7.1489
 20
3.964
 10
7.1885
 20
3.964
 10
7.1885
 20
3.935
 10
7.1489
 20
3.935
  0
LWPOLYLINE
  5
272
330
17
100
AcDbEntity
  8
A-ELEWACJE
370
50
 48
0.05
100
AcDbPolyline
 90
52
 70
0
 10
-7.0585
 20
-0.18866944197531846
 10
-7.0585
 20
2.41
 10
-7.0585
 20
2.6950000000000003
 10
-7.1485
 20
2.6950000000000003
 10
-7.1485
 20
2.7100000000000004
 10
-7.1485
 20
2.91
 10
-7.1485
 20
2.914
 10
-7.1485
 20
2.959
 10
-7.1485
 20
2.9840000000000004
 10
-3.4455000000000005
 20
2.9840000000000004
 10
-3.4455000000000005
 20
3.0040000000000004
 10
-7.0585
 20
3.0040000000000004
 10
-7.0685
 20
3.0040000000000004
 10
-7.078500000000001
 20
3.0040000000000004
 10
-7.078500000000001
 20
4.034000000000001
 10
-7.093500000000001
 20
4.034000000000001
 10
-7.093500000000001
 20
4.0840000000000005
 10
-7.0685
 20
4.0840000000000005
 10
-7.043500000000001
 20
4.0840000000000005
 10
-3.4455000000000005
 20
4.0840000000000005
 10
-3.4455000000000005
 20
5.348000000000001
 10
-3.4455000000000005
 20
5.36
 10
-3.4455000000000005
 20
6.24
 10
-3.4455000000000005
 20
6.300000000000001
 10
-3.4455000000000005
 20
6.493500000000001
 10
-3.4385000000000003
 20
6.493500000000001
 10
-3.3685000000000005
 20
6.493500000000001
 10
-3.3685000000000005
 20
6.5135000000000005
 10
-2.9585000000000004
 20
6.5135000000000005
 10
6.6615
 20
6.5135000000000005
 10
7.0715
 20
6.5135000000000005
 10
7.0715
 20
6.493500000000001
 10
7.141500000000001
 20
6.493500000000001
 10
7.1485
 20
6.493500000000001
 10
7.1485
 20
6.300000000000001
 10
7.1485
 20
6.24
 10
7.1485
 20
5.460000000000001
 10
7.1485
 20
5.448
 10
7.1485
 20
3.9640000000000004
 10
7.1885
 20
3.9640000000000004
 10
7.1885
 20
3.9350000000000005
 10
7.1485
 20
3.9350000000000005
 10
7.1485
 20
3.2700000000000005
 10
7.1485
 20
3.2100000000000004
 10
7.1485
 20
2.91
 10
7.1485
 20
2.4000000000000004
 10
7.1485
 20
2.3880000000000003
 10
7.1485
 20
0.904
 10
7.1885
 20
0.904
 10
7.1885
 20
0.8750000000000001
 10
7.1485
 20
0.8750000000000001
 10
7.1485
 20
-0.29922839330618667
  0
LWPOLYLINE
  5
273
330
17
100
AcDbEntity
  8
A-ELEWACJE
370
50
 48
0.05
100
AcDbPolyline
 90
18
 70
0
 10
-3.4455000000000005
 20
-0.21794327956249512
 10
-3.4455000000000005
 20
-0.05
 10
-3.4455000000000005
 20
-0.02
 10
-3.4455000000000005
 20
0.8750000000000001
 10
-3.4855000000000005
 20
0.8750000000000001
 10
-3.4855000000000005
 20
0.904
 10
-3.4455000000000005
 20
0.904
 10
-3.4455000000000005
 20
1.0750000000000002
 10
-3.4855000000000005
 20
1.0750000000000002
 10
-3.4855000000000005
 20
1.104
 10
-3.4455000000000005
 20
1.104
 10
-3.4455000000000005
 20
2.088
 10
-3.4455000000000005
 20
2.1
 10
-3.4455000000000005
 20
2.3880000000000003
 10
-3.4455000000000005
 20
2.4000000000000004
 10
-3.4455000000000005
 20
2.41
 10
-6.9385
 20
2.41
 10
-6.9385
 20
-0.18893610864198507
  0
LWPOLYLINE
  5
274
330
17
100
AcDbEntity
  8
A-ELEWACJE
  6
KRESKOWA
370
25
 48
0.05
100
AcDbPolyline
 90
2
 70
128
 10
-2.0735
 20
1.5999999999999999
 10
-1.5901666666666674
 20
1.425
  0
LWPOLYLINE
  5
275
330
17
100
AcDbEntity
  8
A-ELEWACJE
  6
KRESKOWA
370
25
 48
0.05
100
AcDbPolyline
 90
2
 70
128
 10
-1.7835000000000008
 20
1.705
 10
-2.0735
 20
1.6000000000000003
  0
LWPOLYLINE
  5
276
330
17
100
AcDbEntity
  8
A-ELEWACJE
  6
KRESKOWA
370
25
 48
0.05
100
AcDbPolyline
 90
2
 70
128
 10
-2.0735
 20
2.1249999999999987
 10
-1.7835000000000008
 20
1.705
  0
LWPOLYLINE
  5
277
330
17
100
AcDbEntity
  8
A-ELEWACJE
  6
KRESKOWA
370
25
 48
0.05
100
AcDbPolyline
 90
3
 70
128
 10
-1.2035000000000002
 20
1.285
 10
-0.6235
 20
2.125
 10
-1.7835000000000008
 20
1.705
  0
LWPOLYLINE
  5
278
330
17
100
AcDbEntity
  8
A-ELEWACJE
  6
KRESKOWA
370
25
 48
0.05
100
AcDbPolyline
 90
2
 70
128
 10
-1.7835000000000008
 20
1.705
 10
-1.5901666666666674
 20
1.425
  0
LWPOLYLINE
  5
279
330
17
100
AcDbEntity
  8
A-ELEWACJE
  6
KRESKOWA
370
25
 48
0.05
100
AcDbPolyline
 90
3
 70
128
 10
-1.5901666666666674
 20
1.425
 10
-1.3485000000000005
 20
1.075
 10
-1.2035000000000002
 20
1.285
  0
LWPOLYLINE
  5
27A
330
17
100
AcDbEntity
  8
A-ELEWACJE
  6
KRESKOWA
370
25
 48
0.05
100
AcDbPolyline
 90
2
 70
128
 10
-1.5901666666666674
 20
1.425
 10
-1.2035000000000002
 20
1.285
  0
LWPOLYLINE
  5
27B
330
17
100
AcDbEntity
  8
A-ELEWACJE
  6
KRESKOWA
370
25
 48
0.05
100
AcDbPolyline
 90
2
 70
128
 10
-1.2035000000000002
 20
1.285
 10
-0.6235
 20
1.075
  0
LWPOLYLINE
  5
27C
330
17
100
AcDbEntity
  8
A-ELEWACJE
  6
KRESKOWA
370
25
 48
0.05
100
AcDbPolyline
 90
3
 70
128
 10
-1.8735
 20
5.285
 10
-1.4485000000000001
 20
4.4350000000000005
 10
-1.0235000000000003
 20
5.285
  0
LWPOLYLINE
  5
27D
330
17
100
AcDbEntity
  8
A-ELEWACJE
  6
KRESKOWA
370
25
 48
0.05
100
AcDbPolyline
 90
2
 70
128
 10
1.3064999999999998
 20
4.305
 10
0.7265
 20
4.035
  0
LWPOLYLINE
  5
27E
330
17
100
AcDbEntity
  8
A-ELEWACJE
  6
KRESKOWA
370
25
 48
0.05
100
AcDbPolyline
 90
2
 70
128
 10
0.7265
 20
5.384999999999999
 10
1.3064999999999998
 20
4.305
  0
LWPOLYLINE
  5
27F
330
17
100
AcDbEntity
  8
A-ELEWACJE
  6
KRESKOWA
370
25
 48
0.05
100
AcDbPolyline
 90
2
 70
128
 10
0.7265
 20
5.385
 10
1.8864999999999998
 20
4.845
  0
LWPOLYLINE
  5
280
330
17
100
AcDbEntity
  8
A-ELEWACJE
  6
KRESKOWA
370
25
 48
0.05
100
AcDbPolyline
 90
2
 70
128
 10
1.6931666666666665
 20
4.485
 10
1.3064999999999998
 20
4.305
  0
LWPOLYLINE
  5
281
330
17
100
AcDbEntity
  8
A-ELEWACJE
  6
KRESKOWA
370
25
 48
0.05
100
AcDbPolyline
 90
3
 70
128
 10
1.3064999999999998
 20
4.305
 10
1.4514999999999998
 20
4.035
 10
1.6931666666666665
 20
4.485
  0
LWPOLYLINE
  5
282
330
17
100
AcDbEntity
  8
A-ELEWACJE
  6
KRESKOWA
370
25
 48
0.05
100
AcDbPolyline
 90
3
 70
128
 10
1.8864999999999998
 20
4.845
 10
2.1765
 20
4.71
 10
1.6931666666666665
 20
4.485
  0
LWPOLYLINE
  5
283
330
17
100
AcDbEntity
  8
A-ELEWACJE
  6
KRESKOWA
370
25
 48
0.05
100
AcDbPolyline
 90
2
 70
128
 10
1.6931666666666665
 20
4.485
 10
1.8864999999999998
 20
4.845
  0
LWPOLYLINE
  5
284
330
17
100
AcDbEntity
  8
A-ELEWACJE
  6
KRESKOWA
370
25
 48
0.05
100
AcDbPolyline
 90
2
 70
128
 10
1.8864999999999998
 20
4.845
 10
2.1765
 20
5.385
  0
LWPOLYLINE
  5
285
330
17
100
AcDbEntity
  8
A-ELEWACJE
  6
KRESKOWA
370
25
 48
0.05
100
AcDbPolyline
 90
2
 70
128
 10
4.4415
 20
4.305
 10
4.1265
 20
4.035
  0
LWPOLYLINE
  5
286
330
17
100
AcDbEntity
  8
A-ELEWACJE
  6
KRESKOWA
370
25
 48
0.05
100
AcDbPolyline
 90
2
 70
128
 10
4.6514999999999995
 20
4.485
 10
4.4415
 20
4.305
  0
LWPOLYLINE
  5
287
330
17
100
AcDbEntity
  8
A-ELEWACJE
  6
KRESKOWA
370
25
 48
0.05
100
AcDbPolyline
 90
3
 70
128
 10
4.4415
 20
4.305
 10
4.1265
 20
5.385
 10
4.7565
 20
4.845
  0
LWPOLYLINE
  5
288
330
17
100
AcDbEntity
  8
A-ELEWACJE
  6
KRESKOWA
370
25
 48
0.05
100
AcDbPolyline
 90
3
 70
128
 10
4.4415
 20
4.305
 10
4.52025
 20
4.035
 10
4.6514999999999995
 20
4.485
  0
LWPOLYLINE
  5
289
330
17
100
AcDbEntity
  8
A-ELEWACJE
  6
KRESKOWA
370
25
 48
0.05
100
AcDbPolyline
 90
3
 70
128
 10
4.7565
 20
4.845
 10
4.914
 20
4.71
 10
4.6514999999999995
 20
4.485
  0
LWPOLYLINE
  5
28A
330
17
100
AcDbEntity
  8
A-ELEWACJE
  6
KRESKOWA
370
25
 48
0.05
100
AcDbPolyline
 90
2
 70
128
 10
4.6514999999999995
 20
4.485
 10
4.7565
 20
4.845
  0
LWPOLYLINE
  5
28B
330
17
100
AcDbEntity
  8
A-ELEWACJE
  6
KRESKOWA
370
25
 48
0.05
100
AcDbPolyline
 90
2
 70
128
 10
4.7565
 20
4.845
 10
4.914
 20
5.385
  0
LWPOLYLINE
  5
28C
330
17
100
AcDbEntity
  8
A-ELEWACJE
  6
KRESKOWA
370
25
 48
0.05
100
AcDbPolyline
 90
2
 70
128
 10
5.304
 20
4.305
 10
4.989000000000001
 20
4.035
  0
LWPOLYLINE
  5
28D
330
17
100
AcDbEntity
  8
A-ELEWACJE
  6
KRESKOWA
370
25
 48
0.05
100
AcDbPolyline
 90
2
 70
128
 10
5.514
 20
4.485
 10
5.304
 20
4.305
  0
LWPOLYLINE
  5
28E
330
17
100
AcDbEntity
  8
A-ELEWACJE
  6
KRESKOWA
370
25
 48
0.05
100
AcDbPolyline
 90
3
 70
128
 10
5.304
 20
4.305
 10
4.989000000000001
 20
5.385
 10
5.619000000000001
 20
4.845
  0
LWPOLYLINE
  5
28F
330
17
100
AcDbEntity
  8
A-ELEWACJE
  6
KRESKOWA
370
25
 48
0.05
100
AcDbPolyline
 90
3
 70
128
 10
5.304
 20
4.305
 10
5.382750000000001
 20
4.035
 10
5.514
 20
4.485
  0
LWPOLYLINE
  5
290
330
17
100
AcDbEntity
  8
A-ELEWACJE
  6
KRESKOWA
370
25
 48
0.05
100
AcDbPolyline
 90
3
 70
128
 10
5.619000000000001
 20
4.845
 10
5.7765
 20
4.71
 10
5.514
 20
4.485
  0
LWPOLYLINE
  5
291
330
17
100
AcDbEntity
  8
A-ELEWACJE
  6
KRESKOWA
370
25
 48
0.05
100
AcDbPolyline
 90
2
 70
128
 10
5.514
 20
4.485
 10
5.619000000000001
 20
4.845
  0
LWPOLYLINE
  5
292
330
17
100
AcDbEntity
  8
A-ELEWACJE
  6
KRESKOWA
370
25
 48
0.05
100
AcDbPolyline
 90
2
 70
128
 10
5.619000000000001
 20
4.845
 10
5.7765
 20
5.385
  0
LWPOLYLINE
  5
293
330
17
100
AcDbEntity
  8
A-TEREN
370
140
 48
0.05
100
AcDbPolyline
 90
70
 70
0
 10
-8.6485
 20
-0.18613611111111822
 10
-8.3985
 20
-0.18669166666667367
 10
-8.1485
 20
-0.1872472222222292
 10
-7.8985
 20
-0.18780277777778476
 10
-7.6485
 20
-0.1883583333333402
 10
-7.3985
 20
-0.18891388888889574
 10
-7.1485
 20
-0.18946944444445124
 10
-6.8985
 20
-0.19002500000000672
 10
-6.6485
 20
-0.19058055555556228
 10
-6.3985
 20
-0.19140561403509443
 10
-6.1485
 20
-0.19329157894737514
 10
-5.8985
 20
-0.1951775438596559
 10
-5.6485
 20
-0.19706350877193662
 10
-5.3985
 20
-0.19894947368421736
 10
-5.1485
 20
-0.20128259259259945
 10
-4.8985
 20
-0.20387518518519207
 10
-4.6485
 20
-0.20646777777778463
 10
-4.3985
 20
-0.20906037037037728
 10
-4.1485
 20
-0.21165296296296987
 10
-3.8985000000000003
 20
-0.21424555555556246
 10
-3.6485000000000003
 20
-0.21683814814815505
 10
-3.3985000000000003
 20
-0.2194307407407477
 10
-3.1485000000000003
 20
-0.2220233333333403
 10
-2.8985000000000003
 20
-0.22461592592593288
 10
-2.6485000000000003
 20
-0.22720851851852547
 10
-2.3985000000000003
 20
-0.22980111111111806
 10
-2.1485000000000003
 20
-0.2323937037037107
 10
-1.8985000000000003
 20
-0.2349862962963033
 10
-1.6485000000000003
 20
-0.2375788888888959
 10
-1.3985000000000003
 20
-0.24017148148148848
 10
-1.1485000000000003
 20
-0.2427640740740811
 10
-0.8985000000000003
 20
-0.2453566666666737
 10
-0.6485000000000003
 20
-0.24794925925926628
 10
-0.3985000000000003
 20
-0.2505418518518589
 10
-0.1485000000000003
 20
-0.2531344444444515
 10
0.1014999999999997
 20
-0.25459277777778466
 10
0.3514999999999997
 20
-0.2560511111111179
 10
0.6014999999999997
 20
-0.25750944444445106
 10
0.8514999999999997
 20
-0.25896777777778424
 10
1.1014999999999997
 20
-0.26042611111111746
 10
1.3514999999999997
 20
-0.26188444444445064
 10
1.6014999999999997
 20
-0.2633427777777838
 10
1.8514999999999997
 20
-0.26480111111111704
 10
2.1014999999999997
 20
-0.2662594444444502
 10
2.3514999999999997
 20
-0.2677177777777834
 10
2.6014999999999997
 20
-0.2691761111111166
 10
2.8514999999999997
 20
-0.2706344444444498
 10
3.1014999999999997
 20
-0.27209277777778296
 10
3.3514999999999997
 20
-0.2735511111111162
 10
3.6014999999999997
 20
-0.27500944444444936
 10
3.8514999999999997
 20
-0.27646777777778253
 10
4.1015
 20
-0.27792611111111576
 10
4.3515
 20
-0.27938444444444893
 10
4.6015
 20
-0.2808427777777821
 10
4.8515
 20
-0.28230111111111533
 10
5.1015
 20
-0.2837594444444485
 10
5.3515
 20
-0.2852177777777817
 10
5.6015
 20
-0.28673009803921945
 10
5.8515
 20
-0.2889114705882389
 10
6.1015
 20
-0.2910928431372583
 10
6.3515
 20
-0.29327421568627776
 10
6.6015
 20
-0.29545558823529716
 10
6.8515
 20
-0.2976369607843166
 10
7.1015
 20
-0.2998183333333361
 10
7.3515
 20
-0.3019997058823555
 10
7.6015
 20
-0.304181078431375
 10
7.8515
 20
-0.3063624509803944
 10
8.1015
 20
-0.3085438235294138
 10
8.3515
 20
-0.3107251960784333
 10
8.6015
 20
-0.3129065686274527
  0
HATCH
  5
294
330
17
100
AcDbEntity
  8
A-RZEDNE
 62
7
420
0
100
AcDbHatch
 10
0.0
 20
0.0
 30
0.0
210
0.0
220
0.0
230
1.0
  2
SOLID
 70
1
 71
0
 91
1
 92
3
 72
0
 73
1
 93
3
 10
7.588500000000001
 20
-0.305
 10
7.698500000000001
 20
-0.19499999999999998
 10
7.4785
 20
-0.19499999999999998
 97
0
 75
0
 76
1
 98
0
  0
HATCH
  5
295
330
17
100
AcDbEntity
  8
A-RZEDNE
 62
7
420
0
100
AcDbHatch
 10
0.0
 20
0.0
 30
0.0
210
0.0
220
0.0
230
1.0
  2
SOLID
 70
1
 71
0
 91
1
 92
3
 72
0
 73
1
 93
3
 10
8.374254031342268
 20
0.0
 10
8.484254031342267
 20
0.11000000000000001
 10
8.374254031342268
 20
0.11000000000000001
 97
0
 75
0
 76
1
 98
0
  0
HATCH
  5
296
330
17
100
AcDbEntity
  8
A-RZEDNE
 62
7
420
0
100
AcDbHatch
 10
0.0
 20
0.0
 30
0.0
210
0.0
220
0.0
230
1.0
  2
SOLID
 70
1
 71
0
 91
1
 92
3
 72
0
 73
1
 93
3
 10
7.588500000000001
 20
3.06
 10
7.698500000000001
 20
3.17
 10
7.4785
 20
3.17
 97
0
 75
0
 76
1
 98
0
  0
HATCH
  5
297
330
17
100
AcDbEntity
  8
A-RZEDNE
 62
7
420
0
100
AcDbHatch
 10
0.0
 20
0.0
 30
0.0
210
0.0
220
0.0
230
1.0
  2
SOLID
 70
1
 71
0
 91
1
 92
3
 72
0
 73
1
 93
3
 10
7.588500000000001
 20
6.193499999999999
 10
7.698500000000001
 20
6.3035
 10
7.4785
 20
6.3035
 97
0
 75
0
 76
1
 98
0
  0
HATCH
  5
298
330
17
100
AcDbEntity
  8
A-RZEDNE
 62
7
420
0
100
AcDbHatch
 10
0.0
 20
0.0
 30
0.0
210
0.0
220
0.0
230
1.0
  2
SOLID
 70
1
 71
0
 91
1
 92
3
 72
0
 73
1
 93
3
 10
8.374254031342268
 20
6.493499999999999
 10
8.484254031342267
 20
6.6034999999999995
 10
8.264254031342269
 20
6.6034999999999995
 97
0
 75
0
 76
1
 98
0
  0
HATCH
  5
299
330
17
100
AcDbEntity
  8
A-RZEDNE
 62
7
420
0
100
AcDbHatch
 10
0.0
 20
0.0
 30
0.0
210
0.0
220
0.0
230
1.0
  2
SOLID
 70
1
 71
0
 91
1
 92
3
 72
0
 73
1
 93
3
 10
-7.298500000000001
 20
-0.188
 10
-7.1885
 20
-0.07799999999999999
 10
-7.408500000000001
 20
-0.07799999999999999
 97
0
 75
0
 76
1
 98
0
  0
LWPOLYLINE
  5
29A
330
17
100
AcDbEntity
  8
A-RZEDNE
370
35
 48
0.05
100
AcDbPolyline
 90
2
 70
0
 10
7.488500000000001
 20
-0.305
 10
7.708500000000001
 20
-0.305
  0
LWPOLYLINE
  5
29B
330
17
100
AcDbEntity
  8
A-RZEDNE
370
35
 48
0.05
100
AcDbPolyline
 90
3
 70
1
 10
7.588500000000001
 20
-0.305
 10
7.698500000000001
 20
-0.19499999999999998
 10
7.4785
 20
-0.19499999999999998
  0
LWPOLYLINE
  5
29C
330
17
100
AcDbEntity
  8
A-RZEDNE
370
35
 48
0.05
100
AcDbPolyline
 90
2
 70
0
 10
7.588500000000001
 20
-0.19499999999999998
 10
7.588500000000001
 20
-0.13499999999999998
  0
LWPOLYLINE
  5
29D
330
17
100
AcDbEntity
  8
A-RZEDNE
370
35
 48
0.05
100
AcDbPolyline
 90
2
 70
0
 10
7.588500000000001
 20
-0.13499999999999998
 10
8.224254031342268
 20
-0.13499999999999998
  0
LWPOLYLINE
  5
29E
330
17
100
AcDbEntity
  8
A-RZEDNE
370
35
 48
0.05
100
AcDbPolyline
 90
3
 70
1
 10
8.374254031342268
 20
0.0
 10
8.484254031342267
 20
0.11000000000000001
 10
8.264254031342269
 20
0.11000000000000001
  0
LWPOLYLINE
  5
29F
330
17
100
AcDbEntity
  8
A-RZEDNE
370
35
 48
0.05
100
AcDbPolyline
 90
2
 70
0
 10
8.374254031342268
 20
0.11000000000000001
 10
8.374254031342268
 20
0.335
  0
LWPOLYLINE
  5
2A0
330
17
100
AcDbEntity
  8
A-RZEDNE
370
35
 48
0.05
100
AcDbPolyline
 90
2
 70
0
 10
8.374254031342268
 20
0.335
 10
9.10596536452419
 20
0.335
  0
LWPOLYLINE
  5
2A1
330
17
100
AcDbEntity
  8
A-RZEDNE
370
35
 48
0.05
100
AcDbPolyline
 90
2
 70
0
 10
7.488500000000001
 20
3.06
 10
7.708500000000001
 20
3.06
  0
LWPOLYLINE
  5
2A2
330
17
100
AcDbEntity
  8
A-RZEDNE
370
35
 48
0.05
100
AcDbPolyline
 90
3
 70
1
 10
7.588500000000001
 20
3.06
 10
7.698500000000001
 20
3.17
 10
7.4785
 20
3.17
  0
LWPOLYLINE
  5
2A3
330
17
100
AcDbEntity
  8
A-RZEDNE
370
35
 48
0.05
100
AcDbPolyline
 90
2
 70
0
 10
7.588500000000001
 20
3.17
 10
7.588500000000001
 20
3.23
  0
LWPOLYLINE
  5
2A4
330
17
100
AcDbEntity
  8
A-RZEDNE
370
35
 48
0.05
100
AcDbPolyline
 90
2
 70
0
 10
7.588500000000001
 20
3.23
 10
8.224254031342268
 20
3.23
  0
LWPOLYLINE
  5
2A5
330
17
100
AcDbEntity
  8
A-RZEDNE
370
35
 48
0.05
100
AcDbPolyline
 90
2
 70
0
 10
7.488500000000001
 20
6.193499999999999
 10
7.708500000000001
 20
6.193499999999999
  0
LWPOLYLINE
  5
2A6
330
17
100
AcDbEntity
  8
A-RZEDNE
370
35
 48
0.05
100
AcDbPolyline
 90
3
 70
1
 10
7.588500000000001
 20
6.193499999999999
 10
7.698500000000001
 20
6.3035
 10
7.4785
 20
6.3035
  0
LWPOLYLINE
  5
2A7
330
17
100
AcDbEntity
  8
A-RZEDNE
370
35
 48
0.05
100
AcDbPolyline
 90
2
 70
0
 10
7.588500000000001
 20
6.3035
 10
7.588500000000001
 20
6.363499999999999
  0
LWPOLYLINE
  5
2A8
330
17
100
AcDbEntity
  8
A-RZEDNE
370
35
 48
0.05
100
AcDbPolyline
 90
2
 70
0
 10
7.588500000000001
 20
6.363499999999999
 10
8.224254031342268
 20
6.363499999999999
  0
LWPOLYLINE
  5
2A9
330
17
100
AcDbEntity
  8
A-RZEDNE
370
35
 48
0.05
100
AcDbPolyline
 90
3
 70
1
 10
8.374254031342268
 20
6.493499999999999
 10
8.484254031342267
 20
6.6034999999999995
 10
8.264254031342269
 20
6.6034999999999995
  0
LWPOLYLINE
  5
2AA
330
17
100
AcDbEntity
  8
A-RZEDNE
370
35
 48
0.05
100
AcDbPolyline
 90
2
 70
0
 10
8.374254031342268
 20
6.6034999999999995
 10
8.374254031342268
 20
6.663499999999999
  0
LWPOLYLINE
  5
2AB
330
17
100
AcDbEntity
  8
A-RZEDNE
370
35
 48
0.05
100
AcDbPolyline
 90
2
 70
0
 10
8.374254031342268
 20
6.663499999999999
 10
9.010008062684534
 20
6.663499999999999
  0
LWPOLYLINE
  5
2AC
330
17
100
AcDbEntity
  8
A-RZEDNE
370
35
 48
0.05
100
AcDbPolyline
 90
2
 70
0
 10
-7.198500000000001
 20
-0.188
 10
-7.418500000000001
 20
-0.188
  0
LWPOLYLINE
  5
2AD
330
17
100
AcDbEntity
  8
A-RZEDNE
370
35
 48
0.05
100
AcDbPolyline
 90
3
 70
1
 10
-7.298500000000001
 20
-0.188
 10
-7.1885
 20
-0.07799999999999999
 10
-7.408500000000001
 20
-0.07799999999999999
  0
LWPOLYLINE
  5
2AE
330
17
100
AcDbEntity
  8
A-RZEDNE
370
35
 48
0.05
100
AcDbPolyline
 90
2
 70
0
 10
-7.298500000000001
 20
-0.07799999999999999
 10
-7.298500000000001
 20
-0.017999999999999988
  0
LWPOLYLINE
  5
2AF
330
17
100
AcDbEntity
  8
A-RZEDNE
370
35
 48
0.05
100
AcDbPolyline
 90
2
 70
0
 10
-7.298500000000001
 20
-0.017999999999999988
 10
-7.934254031342268
 20
-0.017999999999999988
  0
LWPOLYLINE
  5
2B0
330
17
100
AcDbEntity
  8
A-WYMIARY
370
35
 48
0.05
100
AcDbPolyline
 90
2
 70
0
 10
-8.348500000000001
 20
-0.373
 10
-8.348500000000001
 20
6.292999999999999
  0
LWPOLYLINE
  5
2B1
330
17
100
AcDbEntity
  8
A-WYMIARY
370
35
 48
0.05
100
AcDbPolyline
 90
2
 70
0
 10
-8.248500000000002
 20
-0.273
 10
-8.448500000000001
 20
-0.273
  0
LWPOLYLINE
  5
2B2
330
17
100
AcDbEntity
  8
A-WYMIARY
370
35
 48
0.05
100
AcDbPolyline
 90
2
 70
0
 10
-8.29546699141101
 20
-0.3260330085889911
 10
-8.401533008588993
 20
-0.21996699141100895
  0
LWPOLYLINE
  5
2B3
330
17
100
AcDbEntity
  8
A-WYMIARY
370
35
 48
0.05
100
AcDbPolyline
 90
2
 70
0
 10
-8.248500000000002
 20
6.193
 10
-8.448500000000001
 20
6.193
  0
LWPOLYLINE
  5
2B4
330
17
100
AcDbEntity
  8
A-WYMIARY
370
35
 48
0.05
100
AcDbPolyline
 90
2
 70
0
 10
-8.29546699141101
 20
6.139966991411009
 10
-8.401533008588993
 20
6.246033008588991
  0
LWPOLYLINE
  5
2B5
330
17
100
AcDbEntity
  8
A-WYMIARY
370
35
 48
0.05
100
AcDbPolyline
 90
2
 70
0
 10
-7.8485000000000005
 20
-0.28800000000000003
 10
-7.8485000000000005
 20
6.614
  0
LWPOLYLINE
  5
2B6
330
17
100
AcDbEntity
  8
A-WYMIARY
370
35
 48
0.05
100
AcDbPolyline
 90
2
 70
0
 10
-7.748500000000001
 20
-0.188
 10
-7.9485
 20
-0.188
  0
LWPOLYLINE
  5
2B7
330
17
100
AcDbEntity
  8
A-WYMIARY
370
35
 48
0.05
100
AcDbPolyline
 90
2
 70
0
 10
-7.7954669914110095
 20
-0.24103300858899107
 10
-7.901533008588991
 20
-0.13496699141100893
  0
LWPOLYLINE
  5
2B8
330
17
100
AcDbEntity
  8
A-WYMIARY
370
35
 48
0.05
100
AcDbPolyline
 90
2
 70
0
 10
-7.748500000000001
 20
0.0
 10
-7.9485
 20
0.0
  0
LWPOLYLINE
  5
2B9
330
17
100
AcDbEntity
  8
A-WYMIARY
370
35
 48
0.05
100
AcDbPolyline
 90
2
 70
0
 10
-7.7954669914110095
 20
-0.05303300858899108
 10
-7.901533008588991
 20
0.05303300858899108
  0
LWPOLYLINE
  5
2BA
330
17
100
AcDbEntity
  8
A-WYMIARY
370
35
 48
0.05
100
AcDbPolyline
 90
2
 70
0
 10
-7.748500000000001
 20
3.06
 10
-7.9485
 20
3.06
  0
LWPOLYLINE
  5
2BB
330
17
100
AcDbEntity
  8
A-WYMIARY
370
35
 48
0.05
100
AcDbPolyline
 90
2
 70
0
 10
-7.7954669914110095
 20
3.006966991411009
 10
-7.901533008588991
 20
3.113033008588991
  0
LWPOLYLINE
  5
2BC
330
17
100
AcDbEntity
  8
A-WYMIARY
370
35
 48
0.05
100
AcDbPolyline
 90
2
 70
0
 10
-7.748500000000001
 20
6.193
 10
-7.9485
 20
6.193
  0
LWPOLYLINE
  5
2BD
330
17
100
AcDbEntity
  8
A-WYMIARY
370
35
 48
0.05
100
AcDbPolyline
 90
2
 70
0
 10
-7.7954669914110095
 20
6.139966991411009
 10
-7.901533008588991
 20
6.246033008588991
  0
LWPOLYLINE
  5
2BE
330
17
100
AcDbEntity
  8
A-WYMIARY
370
35
 48
0.05
100
AcDbPolyline
 90
2
 70
0
 10
-7.748500000000001
 20
6.514
 10
-7.9485
 20
6.514
  0
LWPOLYLINE
  5
2BF
330
17
100
AcDbEntity
  8
A-WYMIARY
370
35
 48
0.05
100
AcDbPolyline
 90
2
 70
0
 10
-7.7954669914110095
 20
6.460966991411009
 10
-7.901533008588991
 20
6.567033008588991
  0
LWPOLYLINE
  5
2C0
330
17
100
AcDbEntity
  8
A-WYMIARY
370
35
 48
0.05
100
AcDbPolyline
 90
2
 70
0
 10
-7.2485
 20
-0.6629065686274527
 10
7.2885
 20
-0.6629065686274527
  0
LWPOLYLINE
  5
2C1
330
17
100
AcDbEntity
  8
A-WYMIARY
370
35
 48
0.05
100
AcDbPolyline
 90
2
 70
0
 10
-7.1485
 20
-0.5629065686274527
 10
-7.1485
 20
-0.7629065686274527
  0
LWPOLYLINE
  5
2C2
330
17
100
AcDbEntity
  8
A-WYMIARY
370
35
 48
0.05
100
AcDbPolyline
 90
2
 70
0
 10
-7.201533008588991
 20
-0.7159395772164437
 10
-7.095466991411009
 20
-0.6098735600384616
  0
LWPOLYLINE
  5
2C3
330
17
100
AcDbEntity
  8
A-WYMIARY
370
35
 48
0.05
100
AcDbPolyline
 90
2
 70
0
 10
7.1885
 20
-0.5629065686274527
 10
7.1885
 20
-0.7629065686274527
  0
LWPOLYLINE
  5
2C4
330
17
100
AcDbEntity
  8
A-WYMIARY
370
35
 48
0.05
100
AcDbPolyline
 90
2
 70
0
 10
7.135466991411009
 20
-0.7159395772164437
 10
7.241533008588991
 20
-0.6098735600384616
  0
HATCH
  5
2C5
330
17
100
AcDbEntity
  8
A-OPISY
 62
7
420
0
100
AcDbHatch
 10
0.0
 20
0.0
 30
0.0
210
0.0
220
0.0
230
1.0
  2
SOLID
 70
1
 71
0
 91
1
 92
3
 72
0
 73
1
 93
24
 10
4.973999999999999
 20
4.71
 10
4.973233331091503
 20
4.715823428514807
 10
4.97098557158515
 20
4.72125
 10
4.967409902576697
 20
4.7259099025766975
 10
4.96275
 20
4.72948557158515
 10
4.9573234285148065
 20
4.731733331091504
 10
4.951499999999999
 20
4.7325
 10
4.945676571485192
 20
4.731733331091504
 10
4.940249999999999
 20
4.72948557158515
 10
4.935590097423302
 20
4.7259099025766975
 10
4.932014428414849
 20
4.72125
 10
4.929766668908496
 20
4.715823428514807
 10
4.928999999999999
 20
4.71
 10
4.929766668908496
 20
4.704176571485193
 10
4.932014428414849
 20
4.6987499999999995
 10
4.935590097423302
 20
4.694090097423302
 10
4.940249999999999
 20
4.69051442841485
 10
4.945676571485192
 20
4.688266668908496
 10
4.951499999999999
 20
4.6875
 10
4.9573234285148065
 20
4.688266668908496
 10
4.96275
 20
4.69051442841485
 10
4.967409902576697
 20
4.694090097423302
 10
4.97098557158515
 20
4.6987499999999995
 10
4.973233331091503
 20
4.704176571485193
 97
0
 75
0
 76
1
 98
0
  0
HATCH
  5
2C6
330
17
100
AcDbEntity
  8
A-OPISY
 62
7
420
0
100
AcDbHatch
 10
0.0
 20
0.0
 30
0.0
210
0.0
220
0.0
230
1.0
  2
SOLID
 70
1
 71
0
 91
1
 92
3
 72
0
 73
1
 93
24
 10
1.874
 20
6.5035
 10
1.8732333310915041
 20
6.509323428514807
 10
1.87098557158515
 20
6.51475
 10
1.8674099025766975
 20
6.519409902576697
 10
1.8627500000000001
 20
6.52298557158515
 10
1.8573234285148068
 20
6.525233331091504
 10
1.8515000000000001
 20
6.526
 10
1.8456765714851935
 20
6.525233331091504
 10
1.8402500000000002
 20
6.52298557158515
 10
1.8355900974233028
 20
6.519409902576697
 10
1.8320144284148503
 20
6.51475
 10
1.8297666689084962
 20
6.509323428514807
 10
1.8290000000000002
 20
6.5035
 10
1.8297666689084962
 20
6.497676571485193
 10
1.8320144284148503
 20
6.492249999999999
 10
1.8355900974233028
 20
6.487590097423302
 10
1.8402500000000002
 20
6.4840144284148495
 10
1.8456765714851935
 20
6.481766668908496
 10
1.8515000000000001
 20
6.481
 10
1.8573234285148068
 20
6.481766668908496
 10
1.8627500000000001
 20
6.4840144284148495
 10
1.8674099025766975
 20
6.487590097423302
 10
1.87098557158515
 20
6.492249999999999
 10
1.8732333310915041
 20
6.497676571485193
 97
0
 75
0
 76
1
 98
0
  0
HATCH
  5
2C7
330
17
100
AcDbEntity
  8
A-OPISY
 62
7
420
0
100
AcDbHatch
 10
0.0
 20
0.0
 30
0.0
210
0.0
220
0.0
230
1.0
  2
SOLID
 70
1
 71
0
 91
1
 92
3
 72
0
 73
1
 93
24
 10
-6.976
 20
1.110165
 10
-6.976766668908496
 20
1.1159884285148067
 10
-6.97901442841485
 20
1.121415
 10
-6.982590097423302
 20
1.1260749025766974
 10
-6.9872499999999995
 20
1.12965057158515
 10
-6.992676571485193
 20
1.131898331091504
 10
-6.9985
 20
1.132665
 10
-7.004323428514807
 20
1.131898331091504
 10
-7.00975
 20
1.12965057158515
 10
-7.0144099025766975
 20
1.1260749025766974
 10
-7.01798557158515
 20
1.121415
 10
-7.020233331091504
 20
1.1159884285148067
 10
-7.021
 20
1.110165
 10
-7.020233331091504
 20
1.1043415714851934
 10
-7.01798557158515
 20
1.098915
 10
-7.0144099025766975
 20
1.0942550974233027
 10
-7.00975
 20
1.0906794284148502
 10
-7.004323428514807
 20
1.088431668908496
 10
-6.9985
 20
1.087665
 10
-6.992676571485193
 20
1.088431668908496
 10
-6.9872499999999995
 20
1.0906794284148502
 10
-6.982590097423302
 20
1.0942550974233027
 10
-6.97901442841485
 20
1.098915
 10
-6.976766668908496
 20
1.1043415714851934
 97
0
 75
0
 76
1
 98
0
  0
LWPOLYLINE
  5
2C8
330
17
100
AcDbEntity
  8
A-OPISY
370
35
 48
0.05
100
AcDbPolyline
 90
2
 70
0
 10
4.951499999999999
 20
4.71
 10
5.5294399793189895
 20
5.122814270942135
  0
LWPOLYLINE
  5
2C9
330
17
100
AcDbEntity
  8
A-OPISY
370
35
 48
0.05
100
AcDbPolyline
 90
2
 70
0
 10
1.8515000000000001
 20
6.5035
 10
2.4294399793189903
 20
6.916314270942135
  0
LWPOLYLINE
  5
2CA
330
17
100
AcDbEntity
  8
A-OPISY
370
35
 48
0.05
100
AcDbPolyline
 90
2
 70
0
 10
-6.9985
 20
1.110165
 10
-6.42056002068101
 20
1.5229792709421357
  0
HATCH
  5
2CB
330
17
100
AcDbEntity
  8
A-OPISY
 62
7
420
16777215
100
AcDbHatch
 10
0.0
 20
0.0
 30
0.0
210
0.0
220
0.0
230
1.0
  2
SOLID
 70
1
 71
0
 91
1
 92
3
 72
0
 73
1
 93
6
 10
1.156181639737821
 20
1.669871328125
 10
1.214681639737821
 20
1.7673713281249999
 10
1.3787207040121796
 20
1.7673713281249999
 10
1.4372207040121796
 20
1.669871328125
 10
1.3787207040121796
 20
1.572371328125
 10
1.214681639737821
 20
1.572371328125
 97
0
 75
0
 76
1
 98
0
  0
HATCH
  5
2CC
330
17
100
AcDbEntity
  8
A-OPISY
 62
7
420
16777215
100
AcDbHatch
 10
0.0
 20
0.0
 30
0.0
210
0.0
220
0.0
230
1.0
  2
SOLID
 70
1
 71
0
 91
1
 92
3
 72
0
 73
1
 93
6
 10
1.3109804678628207
 20
4.71
 10
1.3694804678628207
 20
4.8075
 10
1.5335195321371793
 20
4.8075
 10
1.5920195321371793
 20
4.71
 10
1.5335195321371793
 20
4.6125
 10
1.3694804678628207
 20
4.6125
 97
0
 75
0
 76
1
 98
0
  0
HATCH
  5
2CD
330
17
100
AcDbEntity
  8
A-OPISY
 62
7
420
16777215
100
AcDbHatch
 10
0.0
 20
0.0
 30
0.0
210
0.0
220
0.0
230
1.0
  2
SOLID
 70
1
 71
0
 91
1
 92
3
 72
0
 73
1
 93
6
 10
-5.397519532137179
 20
3.519
 10
-5.339019532137179
 20
3.6165000000000003
 10
-5.17498046786282
 20
3.6165000000000003
 10
-5.116480467862821
 20
3.519
 10
-5.17498046786282
 20
3.4215
 10
-5.339019532137179
 20
3.4215
 97
0
 75
0
 76
1
 98
0
  0
HATCH
  5
2CE
330
17
100
AcDbEntity
  8
A-OPISY
 62
7
420
16777215
100
AcDbHatch
 10
0.0
 20
0.0
 30
0.0
210
0.0
220
0.0
230
1.0
  2
SOLID
 70
1
 71
0
 91
1
 92
3
 72
0
 73
1
 93
6
 10
3.480980467862821
 20
1.1500000000000001
 10
3.539480467862821
 20
1.2475
 10
3.703519532137179
 20
1.2475
 10
3.762019532137179
 20
1.1500000000000001
 10
3.703519532137179
 20
1.0525000000000002
 10
3.539480467862821
 20
1.0525000000000002
 97
0
 75
0
 76
1
 98
0
  0
HATCH
  5
2CF
330
17
100
AcDbEntity
  8
A-OPISY
 62
7
420
16777215
100
AcDbHatch
 10
0.0
 20
0.0
 30
0.0
210
0.0
220
0.0
230
1.0
  2
SOLID
 70
1
 71
0
 91
1
 92
3
 72
0
 73
1
 93
6
 10
5.5109804678628205
 20
5.21
 10
5.56948046786282
 20
5.3075
 10
5.733519532137179
 20
5.3075
 10
5.792019532137179
 20
5.21
 10
5.733519532137179
 20
5.1125
 10
5.56948046786282
 20
5.1125
 97
0
 75
0
 76
1
 98
0
  0
HATCH
  5
2D0
330
17
100
AcDbEntity
  8
A-OPISY
 62
7
420
16777215
100
AcDbHatch
 10
0.0
 20
0.0
 30
0.0
210
0.0
220
0.0
230
1.0
  2
SOLID
 70
1
 71
0
 91
1
 92
3
 72
0
 73
1
 93
6
 10
-5.39251953213718
 20
2.5525
 10
-5.33401953213718
 20
2.6500000000000004
 10
-5.169980467862821
 20
2.6500000000000004
 10
-5.111480467862822
 20
2.5525
 10
-5.169980467862821
 20
2.455
 10
-5.33401953213718
 20
2.455
 97
0
 75
0
 76
1
 98
0
  0
HATCH
  5
2D1
330
17
100
AcDbEntity
  8
A-OPISY
 62
7
420
16777215
100
AcDbHatch
 10
0.0
 20
0.0
 30
0.0
210
0.0
220
0.0
230
1.0
  2
SOLID
 70
1
 71
0
 91
1
 92
3
 72
0
 73
1
 93
6
 10
2.4109804678628213
 20
7.0035
 10
2.4694804678628213
 20
7.101
 10
2.6335195321371794
 20
7.101
 10
2.6920195321371794
 20
7.0035
 10
2.6335195321371794
 20
6.906
 10
2.4694804678628213
 20
6.906
 97
0
 75
0
 76
1
 98
0
  0
HATCH
  5
2D2
330
17
100
AcDbEntity
  8
A-OPISY
 62
7
420
16777215
100
AcDbHatch
 10
0.0
 20
0.0
 30
0.0
210
0.0
220
0.0
230
1.0
  2
SOLID
 70
1
 71
0
 91
1
 92
3
 72
0
 73
1
 93
6
 10
-6.439019532137179
 20
1.610165
 10
-6.380519532137179
 20
1.707665
 10
-6.21648046786282
 20
1.707665
 10
-6.157980467862821
 20
1.610165
 10
-6.21648046786282
 20
1.5126650000000001
 10
-6.380519532137179
 20
1.5126650000000001
 97
0
 75
0
 76
1
 98
0
  0
LWPOLYLINE
  5
2D3
330
17
100
AcDbEntity
  8
A-OPISY
370
35
 48
0.05
100
AcDbPolyline
 90
6
 70
1
 10
1.156181639737821
 20
1.669871328125
 10
1.214681639737821
 20
1.7673713281249999
 10
1.3787207040121796
 20
1.7673713281249999
 10
1.4372207040121796
 20
1.669871328125
 10
1.3787207040121796
 20
1.572371328125
 10
1.214681639737821
 20
1.572371328125
  0
LWPOLYLINE
  5
2D4
330
17
100
AcDbEntity
  8
A-OPISY
370
35
 48
0.05
100
AcDbPolyline
 90
6
 70
1
 10
1.3109804678628207
 20
4.71
 10
1.3694804678628207
 20
4.8075
 10
1.5335195321371793
 20
4.8075
 10
1.5920195321371793
 20
4.71
 10
1.5335195321371793
 20
4.6125
 10
1.3694804678628207
 20
4.6125
  0
LWPOLYLINE
  5
2D5
330
17
100
AcDbEntity
  8
A-OPISY
370
35
 48
0.05
100
AcDbPolyline
 90
6
 70
1
 10
-5.397519532137179
 20
3.519
 10
-5.339019532137179
 20
3.6165000000000003
 10
-5.17498046786282
 20
3.6165000000000003
 10
-5.116480467862821
 20
3.519
 10
-5.17498046786282
 20
3.4215
 10
-5.339019532137179
 20
3.4215
  0
LWPOLYLINE
  5
2D6
330
17
100
AcDbEntity
  8
A-OPISY
370
35
 48
0.05
100
AcDbPolyline
 90
6
 70
1
 10
3.480980467862821
 20
1.1500000000000001
 10
3.539480467862821
 20
1.2475
 10
3.703519532137179
 20
1.2475
 10
3.762019532137179
 20
1.1500000000000001
 10
3.703519532137179
 20
1.0525000000000002
 10
3.539480467862821
 20
1.0525000000000002
  0
LWPOLYLINE
  5
2D7
330
17
100
AcDbEntity
  8
A-OPISY
370
35
 48
0.05
100
AcDbPolyline
 90
6
 70
1
 10
5.5109804678628205
 20
5.21
 10
5.56948046786282
 20
5.3075
 10
5.733519532137179
 20
5.3075
 10
5.792019532137179
 20
5.21
 10
5.733519532137179
 20
5.1125
 10
5.56948046786282
 20
5.1125
  0
LWPOLYLINE
  5
2D8
330
17
100
AcDbEntity
  8
A-OPISY
370
35
 48
0.05
100
AcDbPolyline
 90
6
 70
1
 10
-5.39251953213718
 20
2.5525
 10
-5.33401953213718
 20
2.6500000000000004
 10
-5.169980467862821
 20
2.6500000000000004
 10
-5.111480467862822
 20
2.5525
 10
-5.169980467862821
 20
2.455
 10
-5.33401953213718
 20
2.455
  0
LWPOLYLINE
  5
2D9
330
17
100
AcDbEntity
  8
A-OPISY
370
35
 48
0.05
100
AcDbPolyline
 90
6
 70
1
 10
2.4109804678628213
 20
7.0035
 10
2.4694804678628213
 20
7.101
 10
2.6335195321371794
 20
7.101
 10
2.6920195321371794
 20
7.0035
 10
2.6335195321371794
 20
6.906
 10
2.4694804678628213
 20
6.906
  0
LWPOLYLINE
  5
2DA
330
17
100
AcDbEntity
  8
A-OPISY
370
35
 48
0.05
100
AcDbPolyline
 90
6
 70
1
 10
-6.439019532137179
 20
1.610165
 10
-6.380519532137179
 20
1.707665
 10
-6.21648046786282
 20
1.707665
 10
-6.157980467862821
 20
1.610165
 10
-6.21648046786282
 20
1.5126650000000001
 10
-6.380519532137179
 20
1.5126650000000001
  0
TEXT
  5
2DB
330
17
100
AcDbEntity
  8
A-OPISY
100
AcDbText
 10
1.2461816397378211
 20
1.607371328125
 30
0.0
 40
0.125
  1
1
  7
PL_ARIAL
 11
1.2461816397378211
 21
1.607371328125
 31
0.0
100
AcDbText
  0
TEXT
  5
2DC
330
17
100
AcDbEntity
  8
A-OPISY
100
AcDbText
 10
1.4009804678628208
 20
4.6475
 30
0.0
 40
0.125
  1
2
  7
PL_ARIAL
 11
1.4009804678628208
 21
4.6475
 31
0.0
100
AcDbText
  0
TEXT
  5
2DD
330
17
100
AcDbEntity
  8
A-OPISY
100
AcDbText
 10
-5.307519532137179
 20
3.4565
 30
0.0
 40
0.125
  1
3
  7
PL_ARIAL
 11
-5.307519532137179
 21
3.4565
 31
0.0
100
AcDbText
  0
TEXT
  5
2DE
330
17
100
AcDbEntity
  8
A-OPISY
100
AcDbText
 10
3.570980467862821
 20
1.0875000000000001
 30
0.0
 40
0.125
  1
4
  7
PL_ARIAL
 11
3.570980467862821
 21
1.0875000000000001
 31
0.0
100
AcDbText
  0
TEXT
  5
2DF
330
17
100
AcDbEntity
  8
A-OPISY
100
AcDbText
 10
5.60098046786282
 20
5.1475
 30
0.0
 40
0.125
  1
5
  7
PL_ARIAL
 11
5.60098046786282
 21
5.1475
 31
0.0
100
AcDbText
  0
TEXT
  5
2E0
330
17
100
AcDbEntity
  8
A-OPISY
100
AcDbText
 10
-5.30251953213718
 20
2.49
 30
0.0
 40
0.125
  1
6
  7
PL_ARIAL
 11
-5.30251953213718
 21
2.49
 31
0.0
100
AcDbText
  0
TEXT
  5
2E1
330
17
100
AcDbEntity
  8
A-OPISY
100
AcDbText
 10
2.500980467862821
 20
6.941
 30
0.0
 40
0.125
  1
7
  7
PL_ARIAL
 11
2.500980467862821
 21
6.941
 31
0.0
100
AcDbText
  0
TEXT
  5
2E2
330
17
100
AcDbEntity
  8
A-OPISY
100
AcDbText
 10
-6.349019532137179
 20
1.547665
 30
0.0
 40
0.125
  1
8
  7
PL_ARIAL
 11
-6.349019532137179
 21
1.547665
 31
0.0
100
AcDbText
  0
HATCH
  5
2E3
330
17
100
AcDbEntity
  8
A-MASKA
 62
7
420
16777215
100
AcDbHatch
 10
0.0
 20
0.0
 30
0.0
210
0.0
220
0.0
230
1.0
  2
SOLID
 70
1
 71
0
 91
1
 92
3
 72
0
 73
1
 93
4
 10
7.608500000000001
 20
-0.1475
 10
8.209254031342267
 20
-0.1475
 10
8.209254031342267
 20
0.04500000000000001
 10
7.608500000000001
 20
0.04500000000000001
 97
0
 75
0
 76
1
 98
0
  0
TEXT
  5
2E4
330
17
100
AcDbEntity
  8
A-RZEDNE
100
AcDbText
 10
7.628500000000001
 20
-0.09999999999999998
 30
0.0
 40
0.125
  1
−0,305
  7
PL_ARIAL
 11
7.628500000000001
 21
-0.09999999999999998
 31
0.0
100
AcDbText
  0
HATCH
  5
2E5
330
17
100
AcDbEntity
  8
A-MASKA
 62
7
420
16777215
100
AcDbHatch
 10
0.0
 20
0.0
 30
0.0
210
0.0
220
0.0
230
1.0
  2
SOLID
 70
1
 71
0
 91
1
 92
3
 72
0
 73
1
 93
4
 10
8.394254031342268
 20
0.3225
 10
8.988620372473314
 20
0.3225
 10
8.988620372473314
 20
0.515
 10
8.394254031342268
 20
0.515
 97
0
 75
0
 76
1
 98
0
  0
TEXT
  5
2E6
330
17
100
AcDbEntity
  8
A-RZEDNE
100
AcDbText
 10
8.414254031342267
 20
0.37
 30
0.0
 40
0.125
  1
±0,000
  7
PL_ARIAL
 11
8.414254031342267
 21
0.37
 31
0.0
100
AcDbText
  0
HATCH
  5
2E7
330
17
100
AcDbEntity
  8
A-MASKA
 62
7
420
16777215
100
AcDbHatch
 10
0.0
 20
0.0
 30
0.0
210
0.0
220
0.0
230
1.0
  2
SOLID
 70
1
 71
0
 91
1
 92
3
 72
0
 73
1
 93
4
 10
8.394254031342268
 20
0.11750000000000005
 10
9.09096536452419
 20
0.11750000000000005
 10
9.09096536452419
 20
0.31000000000000005
 10
8.394254031342268
 20
0.31000000000000005
 97
0
 75
0
 76
1
 98
0
  0
TEXT
  5
2E8
330
17
100
AcDbEntity
  8
A-RZEDNE
100
AcDbText
 10
8.414254031342267
 20
0.16500000000000004
 30
0.0
 40
0.125
  1
101,650
  7
PL_ARIAL
 11
8.414254031342267
 21
0.16500000000000004
 31
0.0
100
AcDbText
  0
HATCH
  5
2E9
330
17
100
AcDbEntity
  8
A-MASKA
 62
7
420
16777215
100
AcDbHatch
 10
0.0
 20
0.0
 30
0.0
210
0.0
220
0.0
230
1.0
  2
SOLID
 70
1
 71
0
 91
1
 92
3
 72
0
 73
1
 93
4
 10
7.608500000000001
 20
3.2175000000000002
 10
8.209254031342267
 20
3.2175000000000002
 10
8.209254031342267
 20
3.41
 10
7.608500000000001
 20
3.41
 97
0
 75
0
 76
1
 98
0
  0
TEXT
  5
2EA
330
17
100
AcDbEntity
  8
A-RZEDNE
100
AcDbText
 10
7.628500000000001
 20
3.265
 30
0.0
 40
0.125
  1
+3,060
  7
PL_ARIAL
 11
7.628500000000001
 21
3.265
 31
0.0
100
AcDbText
  0
HATCH
  5
2EB
330
17
100
AcDbEntity
  8
A-MASKA
 62
7
420
16777215
100
AcDbHatch
 10
0.0
 20
0.0
 30
0.0
210
0.0
220
0.0
230
1.0
  2
SOLID
 70
1
 71
0
 91
1
 92
3
 72
0
 73
1
 93
4
 10
7.608500000000001
 20
6.350999999999999
 10
8.209254031342267
 20
6.350999999999999
 10
8.209254031342267
 20
6.543499999999999
 10
7.608500000000001
 20
6.543499999999999
 97
0
 75
0
 76
1
 98
0
  0
TEXT
  5
2EC
330
17
100
AcDbEntity
  8
A-RZEDNE
100
AcDbText
 10
7.628500000000001
 20
6.398499999999999
 30
0.0
 40
0.125
  1
+6,193
  7
PL_ARIAL
 11
7.628500000000001
 21
6.398499999999999
 31
0.0
100
AcDbText
  0
HATCH
  5
2ED
330
17
100
AcDbEntity
  8
A-MASKA
 62
7
420
16777215
100
AcDbHatch
 10
0.0
 20
0.0
 30
0.0
210
0.0
220
0.0
230
1.0
  2
SOLID
 70
1
 71
0
 91
1
 92
3
 72
0
 73
1
 93
4
 10
8.394254031342268
 20
6.650999999999999
 10
8.995008062684533
 20
6.650999999999999
 10
8.995008062684533
 20
6.843499999999999
 10
8.394254031342268
 20
6.843499999999999
 97
0
 75
0
 76
1
 98
0
  0
TEXT
  5
2EE
330
17
100
AcDbEntity
  8
A-RZEDNE
100
AcDbText
 10
8.414254031342267
 20
6.698499999999999
 30
0.0
 40
0.125
  1
+6,493
  7
PL_ARIAL
 11
8.414254031342267
 21
6.698499999999999
 31
0.0
100
AcDbText
  0
HATCH
  5
2EF
330
17
100
AcDbEntity
  8
A-MASKA
 62
7
420
16777215
100
AcDbHatch
 10
0.0
 20
0.0
 30
0.0
210
0.0
220
0.0
230
1.0
  2
SOLID
 70
1
 71
0
 91
1
 92
3
 72
0
 73
1
 93
4
 10
-7.919254031342267
 20
-0.0305
 10
-7.318500000000001
 20
-0.0305
 10
-7.318500000000001
 20
0.162
 10
-7.919254031342267
 20
0.162
 97
0
 75
0
 76
1
 98
0
  0
TEXT
  5
2F0
330
17
100
AcDbEntity
  8
A-RZEDNE
100
AcDbText
 10
-7.8992540313422674
 20
0.017000000000000008
 30
0.0
 40
0.125
  1
−0,188
  7
PL_ARIAL
 11
-7.8992540313422674
 21
0.017000000000000008
 31
0.0
100
AcDbText
  0
TEXT
  5
2F1
330
17
100
AcDbEntity
  8
A-WYMIARY
100
AcDbText
 10
-8.398500000000002
 20
2.7683173404496935
 30
0.0
 40
0.125
  1
646
 50
90.0
  7
PL_ARIAL
 11
-8.398500000000002
 21
2.7683173404496935
 31
0.0
100
AcDbText
  0
TEXT
  5
2F2
330
17
100
AcDbEntity
  8
A-WYMIARY
100
AcDbText
 10
-8.461000000000002
 20
3.0789345332727684
 30
0.0
 40
0.09000000000000001
  1
6
 50
90.0
  7
PL_ARIAL
 11
-8.461000000000002
 21
3.0789345332727684
 31
0.0
100
AcDbText
  0
TEXT
  5
2F3
330
17
100
AcDbEntity
  8
A-WYMIARY
100
AcDbText
 10
-7.8985
 20
0.07150000000000001
 30
0.0
 40
0.125
  1
18
 50
90.0
  7
PL_ARIAL
 11
-7.8985
 21
0.07150000000000001
 31
0.0
100
AcDbText
  0
TEXT
  5
2F4
330
17
100
AcDbEntity
  8
A-WYMIARY
100
AcDbText
 10
-7.961
 20
0.28107812854871683
 30
0.0
 40
0.09000000000000001
  1
8
 50
90.0
  7
PL_ARIAL
 11
-7.961
 21
0.28107812854871683
 31
0.0
100
AcDbText
  0
TEXT
  5
2F5
330
17
100
AcDbEntity
  8
A-WYMIARY
100
AcDbText
 10
-7.8985
 20
1.3784414035884625
 30
0.0
 40
0.125
  1
306
 50
90.0
  7
PL_ARIAL
 11
-7.8985
 21
1.3784414035884625
 31
0.0
100
AcDbText
  0
TEXT
  5
2F6
330
17
100
AcDbEntity
  8
A-WYMIARY
100
AcDbText
 10
-7.8985
 20
4.434817340449693
 30
0.0
 40
0.125
  1
313
 50
90.0
  7
PL_ARIAL
 11
-7.8985
 21
4.434817340449693
 31
0.0
100
AcDbText
  0
TEXT
  5
2F7
330
17
100
AcDbEntity
  8
A-WYMIARY
100
AcDbText
 10
-7.961
 20
4.7454345332727685
 30
0.0
 40
0.09000000000000001
  1
3
 50
90.0
  7
PL_ARIAL
 11
-7.961
 21
4.7454345332727685
 31
0.0
100
AcDbText
  0
TEXT
  5
2F8
330
17
100
AcDbEntity
  8
A-WYMIARY
100
AcDbText
 10
-7.8985
 20
6.585500000000001
 30
0.0
 40
0.125
  1
32
 50
90.0
  7
PL_ARIAL
 11
-7.8985
 21
6.585500000000001
 31
0.0
100
AcDbText
  0
TEXT
  5
2F9
330
17
100
AcDbEntity
  8
A-WYMIARY
100
AcDbText
 10
-7.961
 20
6.795078128548718
 30
0.0
 40
0.09000000000000001
  1
1
 50
90.0
  7
PL_ARIAL
 11
-7.961
 21
6.795078128548718
 31
0.0
100
AcDbText
  0
HATCH
  5
2FA
330
17
100
AcDbEntity
  8
A-MASKA
 62
7
420
16777215
100
AcDbHatch
 10
0.0
 20
0.0
 30
0.0
210
0.0
220
0.0
230
1.0
  2
SOLID
 70
1
 71
0
 91
1
 92
3
 72
0
 73
1
 93
4
 10
-8.551000000000002
 20
1.2310440797309885
 10
-8.551000000000002
 20
4.689196475824561
 10
-8.743500000000001
 20
4.689196475824561
 10
-8.743500000000001
 20
1.2310440797309885
 97
0
 75
0
 76
1
 98
0
  0
TEXT
  5
2FB
330
17
100
AcDbEntity
  8
A-WYMIARY
100
AcDbText
 10
-8.598500000000001
 20
1.2510440797309883
 30
0.0
 40
0.125
  1
wysokość budynku wg § 6 WT: H = 6,47 m
 50
90.0
  7
PL_ARIAL
 11
-8.598500000000001
 21
1.2510440797309883
 31
0.0
100
AcDbText
  0
TEXT
  5
2FC
330
17
100
AcDbEntity
  8
A-WYMIARY
100
AcDbText
 10
-0.2222021916874858
 20
-0.6129065686274526
 30
0.0
 40
0.125
  1
1433
  7
PL_ARIAL
 11
-0.2222021916874858
 21
-0.6129065686274526
 31
0.0
100
AcDbText
  0
TEXT
  5
2FD
330
17
100
AcDbEntity
  8
A-WYMIARY
100
AcDbText
 10
0.1894540654099478
 20
-0.5504065686274526
 30
0.0
 40
0.09000000000000001
  1
7
  7
PL_ARIAL
 11
0.1894540654099478
 21
-0.5504065686274526
 31
0.0
100
AcDbText
  0
VIEWPORT
  5
7F
330
1B
100
AcDbEntity
 67
1
  8
VIEWPORTS
100
AcDbViewport
 10
297.0
 20
210.0
 30
0.0
 40
594.0
 41
420.0
 68
1
 69
1
 12
297.0
 22
210.0
 13
0.0
 23
0.0
 14
10.0
 24
10.0
 15
10.0
 25
10.0
 16
0.0
 26
0.0
 36
1.0
 17
0.0
 27
0.0
 37
0.0
 42
50.0
 43
0.0
 44
0.0
 45
462.00000000000006
 50
0.0
 51
0.0
 72
100
 90
557088
  1

281
0
 71
0
 74
0
110
0.0
120
0.0
130
0.0
111
1.0
121
0.0
131
0.0
112
0.0
122
1.0
132
0.0
 79
0
146
0.0
282
0
  0
HATCH
  5
80
330
1B
100
AcDbEntity
 67
1
  8
R-LEGENDA
 62
7
420
16119024
100
AcDbHatch
 10
0.0
 20
0.0
 30
0.0
210
0.0
220
0.0
230
1.0
  2
SOLID
 70
1
 71
0
 91
1
 92
3
 72
0
 73
1
 93
4
 10
412.0
 20
396.3
 10
424.0
 20
396.3
 10
424.0
 20
400.7
 10
412.0
 20
400.7
 97
0
 75
0
 76
1
 98
0
  0
HATCH
  5
81
330
1B
100
AcDbEntity
 67
1
  8
R-LEGENDA
 62
7
420
11125709
100
AcDbHatch
 10
0.0
 20
0.0
 30
0.0
210
0.0
220
0.0
230
1.0
  2
SOLID
 70
1
 71
0
 91
1
 92
3
 72
0
 73
1
 93
4
 10
412.0
 20
390.3
 10
424.0
 20
390.3
 10
424.0
 20
394.7
 10
412.0
 20
394.7
 97
0
 75
0
 76
1
 98
0
  0
HATCH
  5
82
330
1B
100
AcDbEntity
 67
1
  8
R-LEGENDA
 62
7
420
13229538
100
AcDbHatch
 10
0.0
 20
0.0
 30
0.0
210
0.0
220
0.0
230
1.0
  2
SOLID
 70
1
 71
0
 91
1
 92
3
 72
0
 73
1
 93
4
 10
412.0
 20
384.3
 10
424.0
 20
384.3
 10
424.0
 20
388.7
 10
412.0
 20
388.7
 97
0
 75
0
 76
1
 98
0
  0
HATCH
  5
83
330
1B
100
AcDbEntity
 67
1
  8
R-LEGENDA
 62
7
420
3422268
100
AcDbHatch
 10
0.0
 20
0.0
 30
0.0
210
0.0
220
0.0
230
1.0
  2
SOLID
 70
1
 71
0
 91
1
 92
3
 72
0
 73
1
 93
4
 10
412.0
 20
378.3
 10
424.0
 20
378.3
 10
424.0
 20
382.7
 10
412.0
 20
382.7
 97
0
 75
0
 76
1
 98
0
  0
HATCH
  5
84
330
1B
100
AcDbEntity
 67
1
  8
R-LEGENDA
 62
7
420
2830131
100
AcDbHatch
 10
0.0
 20
0.0
 30
0.0
210
0.0
220
0.0
230
1.0
  2
SOLID
 70
1
 71
0
 91
1
 92
3
 72
0
 73
1
 93
4
 10
412.0
 20
372.3
 10
424.0
 20
372.3
 10
424.0
 20
376.7
 10
412.0
 20
376.7
 97
0
 75
0
 76
1
 98
0
  0
HATCH
  5
85
330
1B
100
AcDbEntity
 67
1
  8
R-LEGENDA
 62
7
420
12170926
100
AcDbHatch
 10
0.0
 20
0.0
 30
0.0
210
0.0
220
0.0
230
1.0
  2
SOLID
 70
1
 71
0
 91
1
 92
3
 72
0
 73
1
 93
4
 10
412.0
 20
366.3
 10
424.0
 20
366.3
 10
424.0
 20
370.7
 10
412.0
 20
370.7
 97
0
 75
0
 76
1
 98
0
  0
HATCH
  5
86
330
1B
100
AcDbEntity
 67
1
  8
R-LEGENDA
 62
7
420
3882819
100
AcDbHatch
 10
0.0
 20
0.0
 30
0.0
210
0.0
220
0.0
230
1.0
  2
SOLID
 70
1
 71
0
 91
1
 92
3
 72
0
 73
1
 93
4
 10
412.0
 20
360.3
 10
424.0
 20
360.3
 10
424.0
 20
364.7
 10
412.0
 20
364.7
 97
0
 75
0
 76
1
 98
0
  0
HATCH
  5
87
330
1B
100
AcDbEntity
 67
1
  8
R-LEGENDA
 62
7
420
3685954
100
AcDbHatch
 10
0.0
 20
0.0
 30
0.0
210
0.0
220
0.0
230
1.0
  2
SOLID
 70
1
 71
0
 91
1
 92
3
 72
0
 73
1
 93
4
 10
412.0
 20
354.3
 10
424.0
 20
354.3
 10
424.0
 20
358.7
 10
412.0
 20
358.7
 97
0
 75
0
 76
1
 98
0
  0
HATCH
  5
88
330
1B
100
AcDbEntity
 67
1
  8
R-OPISY
 62
7
420
0
100
AcDbHatch
 10
0.0
 20
0.0
 30
0.0
210
0.0
220
0.0
230
1.0
  2
SOLID
 70
1
 71
0
 91
1
 92
3
 72
0
 73
1
 93
4
 10
408.0
 20
298.9199999999999
 10
412.0
 20
298.9199999999999
 10
412.0
 20
300.5199999999999
 10
408.0
 20
300.5199999999999
 97
0
 75
0
 76
1
 98
0
  0
HATCH
  5
89
330
1B
100
AcDbEntity
 67
1
  8
R-OPISY
 62
7
420
0
100
AcDbHatch
 10
0.0
 20
0.0
 30
0.0
210
0.0
220
0.0
230
1.0
  2
SOLID
 70
1
 71
0
 91
1
 92
3
 72
0
 73
1
 93
4
 10
416.0
 20
298.9199999999999
 10
420.0
 20
298.9199999999999
 10
420.0
 20
300.5199999999999
 10
416.0
 20
300.5199999999999
 97
0
 75
0
 76
1
 98
0
  0
HATCH
  5
8A
330
1B
100
AcDbEntity
 67
1
  8
R-OPISY
 62
7
420
0
100
AcDbHatch
 10
0.0
 20
0.0
 30
0.0
210
0.0
220
0.0
230
1.0
  2
SOLID
 70
1
 71
0
 91
1
 92
3
 72
0
 73
1
 93
4
 10
424.0
 20
298.9199999999999
 10
428.0
 20
298.9199999999999
 10
428.0
 20
300.5199999999999
 10
424.0
 20
300.5199999999999
 97
0
 75
0
 76
1
 98
0
  0
HATCH
  5
8B
330
1B
100
AcDbEntity
 67
1
  8
R-OPISY
 62
7
420
0
100
AcDbHatch
 10
0.0
 20
0.0
 30
0.0
210
0.0
220
0.0
230
1.0
  2
SOLID
 70
1
 71
0
 91
1
 92
3
 72
0
 73
1
 93
4
 10
448.0
 20
298.9199999999999
 10
468.0
 20
298.9199999999999
 10
468.0
 20
300.5199999999999
 10
448.0
 20
300.5199999999999
 97
0
 75
0
 76
1
 98
0
  0
HATCH
  5
8C
330
1B
100
AcDbEntity
 67
1
  8
R-OPISY
 62
7
420
0
100
AcDbHatch
 10
0.0
 20
0.0
 30
0.0
210
0.0
220
0.0
230
1.0
  2
SOLID
 70
1
 71
0
 91
1
 92
3
 72
0
 73
1
 93
4
 10
488.0
 20
298.9199999999999
 10
508.0
 20
298.9199999999999
 10
508.0
 20
300.5199999999999
 10
488.0
 20
300.5199999999999
 97
0
 75
0
 76
1
 98
0
  0
LWPOLYLINE
  5
8D
330
1B
100
AcDbEntity
 67
1
  8
R-OPISY
370
50
100
AcDbPolyline
 90
2
 70
0
 10
31.505346354758103
 20
120.36093431372547
 10
128.12503747444924
 20
120.36093431372547
  0
LWPOLYLINE
  5
8E
330
1B
100
AcDbEntity
 67
1
  8
R-LEGENDA
370
18
100
AcDbPolyline
 90
4
 70
1
 10
412.0
 20
396.3
 10
424.0
 20
396.3
 10
424.0
 20
400.7
 10
412.0
 20
400.7
  0
LWPOLYLINE
  5
8F
330
1B
100
AcDbEntity
 67
1
  8
R-LEGENDA
370
18
100
AcDbPolyline
 90
4
 70
1
 10
412.0
 20
390.3
 10
424.0
 20
390.3
 10
424.0
 20
394.7
 10
412.0
 20
394.7
  0
LWPOLYLINE
  5
90
330
1B
100
AcDbEntity
 67
1
  8
R-LEGENDA
370
18
100
AcDbPolyline
 90
4
 70
1
 10
412.0
 20
384.3
 10
424.0
 20
384.3
 10
424.0
 20
388.7
 10
412.0
 20
388.7
  0
LWPOLYLINE
  5
91
330
1B
100
AcDbEntity
 67
1
  8
R-LEGENDA
370
18
100
AcDbPolyline
 90
4
 70
1
 10
412.0
 20
378.3
 10
424.0
 20
378.3
 10
424.0
 20
382.7
 10
412.0
 20
382.7
  0
LWPOLYLINE
  5
92
330
1B
100
AcDbEntity
 67
1
  8
R-LEGENDA
370
18
100
AcDbPolyline
 90
4
 70
1
 10
412.0
 20
372.3
 10
424.0
 20
372.3
 10
424.0
 20
376.7
 10
412.0
 20
376.7
  0
LWPOLYLINE
  5
93
330
1B
100
AcDbEntity
 67
1
  8
R-LEGENDA
370
18
100
AcDbPolyline
 90
4
 70
1
 10
412.0
 20
366.3
 10
424.0
 20
366.3
 10
424.0
 20
370.7
 10
412.0
 20
370.7
  0
LWPOLYLINE
  5
94
330
1B
100
AcDbEntity
 67
1
  8
R-LEGENDA
370
18
100
AcDbPolyline
 90
4
 70
1
 10
412.0
 20
360.3
 10
424.0
 20
360.3
 10
424.0
 20
364.7
 10
412.0
 20
364.7
  0
LWPOLYLINE
  5
95
330
1B
100
AcDbEntity
 67
1
  8
R-LEGENDA
370
18
100
AcDbPolyline
 90
4
 70
1
 10
412.0
 20
354.3
 10
424.0
 20
354.3
 10
424.0
 20
358.7
 10
412.0
 20
358.7
  0
LWPOLYLINE
  5
96
330
1B
100
AcDbEntity
 67
1
  8
R-OPISY
370
25
100
AcDbPolyline
 90
4
 70
1
 10
404.0
 20
311.9199999999999
 10
584.0
 20
311.9199999999999
 10
584.0
 20
346.5
 10
404.0
 20
346.5
  0
LWPOLYLINE
  5
97
330
1B
100
AcDbEntity
 67
1
  8
R-OPISY
370
18
100
AcDbPolyline
 90
4
 70
1
 10
408.0
 20
298.9199999999999
 10
428.0
 20
298.9199999999999
 10
428.0
 20
300.5199999999999
 10
408.0
 20
300.5199999999999
  0
LWPOLYLINE
  5
98
330
1B
100
AcDbEntity
 67
1
  8
R-OPISY
370
18
100
AcDbPolyline
 90
4
 70
1
 10
428.0
 20
298.9199999999999
 10
448.0
 20
298.9199999999999
 10
448.0
 20
300.5199999999999
 10
428.0
 20
300.5199999999999
  0
LWPOLYLINE
  5
99
330
1B
100
AcDbEntity
 67
1
  8
R-OPISY
370
18
100
AcDbPolyline
 90
4
 70
1
 10
448.0
 20
298.9199999999999
 10
468.0
 20
298.9199999999999
 10
468.0
 20
300.5199999999999
 10
448.0
 20
300.5199999999999
  0
LWPOLYLINE
  5
9A
330
1B
100
AcDbEntity
 67
1
  8
R-OPISY
370
18
100
AcDbPolyline
 90
4
 70
1
 10
468.0
 20
298.9199999999999
 10
488.0
 20
298.9199999999999
 10
488.0
 20
300.5199999999999
 10
468.0
 20
300.5199999999999
  0
LWPOLYLINE
  5
9B
330
1B
100
AcDbEntity
 67
1
  8
R-OPISY
370
18
100
AcDbPolyline
 90
4
 70
1
 10
488.0
 20
298.9199999999999
 10
508.0
 20
298.9199999999999
 10
508.0
 20
300.5199999999999
 10
488.0
 20
300.5199999999999
  0
LWPOLYLINE
  5
9C
330
1B
100
AcDbEntity
 67
1
  8
R-OPISY
370
18
100
AcDbPolyline
 90
4
 70
1
 10
508.0
 20
298.9199999999999
 10
528.0
 20
298.9199999999999
 10
528.0
 20
300.5199999999999
 10
508.0
 20
300.5199999999999
  0
LWPOLYLINE
  5
9D
330
1B
100
AcDbEntity
 67
1
  8
R-OPISY
370
35
100
AcDbPolyline
 90
2
 70
0
 10
11.0
 20
18.0
 10
11.0
 20
118.0
  0
LWPOLYLINE
  5
9E
330
1B
100
AcDbEntity
 67
1
  8
R-OPISY
370
18
100
AcDbPolyline
 90
2
 70
0
 10
11.0
 20
18.0
 10
9.4
 20
18.0
  0
LWPOLYLINE
  5
9F
330
1B
100
AcDbEntity
 67
1
  8
R-OPISY
370
18
100
AcDbPolyline
 90
2
 70
0
 10
11.0
 20
28.0
 10
10.1
 20
28.0
  0
LWPOLYLINE
  5
A0
330
1B
100
AcDbEntity
 67
1
  8
R-OPISY
370
18
100
AcDbPolyline
 90
2
 70
0
 10
11.0
 20
38.0
 10
10.1
 20
38.0
  0
LWPOLYLINE
  5
A1
330
1B
100
AcDbEntity
 67
1
  8
R-OPISY
370
18
100
AcDbPolyline
 90
2
 70
0
 10
11.0
 20
48.0
 10
10.1
 20
48.0
  0
LWPOLYLINE
  5
A2
330
1B
100
AcDbEntity
 67
1
  8
R-OPISY
370
18
100
AcDbPolyline
 90
2
 70
0
 10
11.0
 20
58.0
 10
10.1
 20
58.0
  0
LWPOLYLINE
  5
A3
330
1B
100
AcDbEntity
 67
1
  8
R-OPISY
370
18
100
AcDbPolyline
 90
2
 70
0
 10
11.0
 20
68.0
 10
9.4
 20
68.0
  0
LWPOLYLINE
  5
A4
330
1B
100
AcDbEntity
 67
1
  8
R-OPISY
370
18
100
AcDbPolyline
 90
2
 70
0
 10
11.0
 20
78.0
 10
10.1
 20
78.0
  0
LWPOLYLINE
  5
A5
330
1B
100
AcDbEntity
 67
1
  8
R-OPISY
370
18
100
AcDbPolyline
 90
2
 70
0
 10
11.0
 20
88.0
 10
10.1
 20
88.0
  0
LWPOLYLINE
  5
A6
330
1B
100
AcDbEntity
 67
1
  8
R-OPISY
370
18
100
AcDbPolyline
 90
2
 70
0
 10
11.0
 20
98.0
 10
10.1
 20
98.0
  0
LWPOLYLINE
  5
A7
330
1B
100
AcDbEntity
 67
1
  8
R-OPISY
370
18
100
AcDbPolyline
 90
2
 70
0
 10
11.0
 20
108.0
 10
10.1
 20
108.0
  0
LWPOLYLINE
  5
A8
330
1B
100
AcDbEntity
 67
1
  8
R-OPISY
370
18
100
AcDbPolyline
 90
2
 70
0
 10
11.0
 20
118.0
 10
9.4
 20
118.0
  0
HATCH
  5
A9
330
1B
100
AcDbEntity
 67
1
  8
R-LEGENDA
 62
7
420
16777215
100
AcDbHatch
 10
0.0
 20
0.0
 30
0.0
210
0.0
220
0.0
230
1.0
  2
SOLID
 70
1
 71
0
 91
1
 92
3
 72
0
 73
1
 93
6
 10
404.3896093572564
 20
398.5
 10
405.5596093572564
 20
400.45
 10
408.84039064274356
 20
400.45
 10
410.0103906427436
 20
398.5
 10
408.84039064274356
 20
396.55
 10
405.5596093572564
 20
396.55
 97
0
 75
0
 76
1
 98
0
  0
HATCH
  5
AA
330
1B
100
AcDbEntity
 67
1
  8
R-LEGENDA
 62
7
420
16777215
100
AcDbHatch
 10
0.0
 20
0.0
 30
0.0
210
0.0
220
0.0
230
1.0
  2
SOLID
 70
1
 71
0
 91
1
 92
3
 72
0
 73
1
 93
6
 10
404.3896093572564
 20
392.5
 10
405.5596093572564
 20
394.45
 10
408.84039064274356
 20
394.45
 10
410.0103906427436
 20
392.5
 10
408.84039064274356
 20
390.55
 10
405.5596093572564
 20
390.55
 97
0
 75
0
 76
1
 98
0
  0
HATCH
  5
AB
330
1B
100
AcDbEntity
 67
1
  8
R-LEGENDA
 62
7
420
16777215
100
AcDbHatch
 10
0.0
 20
0.0
 30
0.0
210
0.0
220
0.0
230
1.0
  2
SOLID
 70
1
 71
0
 91
1
 92
3
 72
0
 73
1
 93
6
 10
404.3896093572564
 20
386.5
 10
405.5596093572564
 20
388.45
 10
408.84039064274356
 20
388.45
 10
410.0103906427436
 20
386.5
 10
408.84039064274356
 20
384.55
 10
405.5596093572564
 20
384.55
 97
0
 75
0
 76
1
 98
0
  0
HATCH
  5
AC
330
1B
100
AcDbEntity
 67
1
  8
R-LEGENDA
 62
7
420
16777215
100
AcDbHatch
 10
0.0
 20
0.0
 30
0.0
210
0.0
220
0.0
230
1.0
  2
SOLID
 70
1
 71
0
 91
1
 92
3
 72
0
 73
1
 93
6
 10
404.3896093572564
 20
380.5
 10
405.5596093572564
 20
382.45
 10
408.84039064274356
 20
382.45
 10
410.0103906427436
 20
380.5
 10
408.84039064274356
 20
378.55
 10
405.5596093572564
 20
378.55
 97
0
 75
0
 76
1
 98
0
  0
HATCH
  5
AD
330
1B
100
AcDbEntity
 67
1
  8
R-LEGENDA
 62
7
420
16777215
100
AcDbHatch
 10
0.0
 20
0.0
 30
0.0
210
0.0
220
0.0
230
1.0
  2
SOLID
 70
1
 71
0
 91
1
 92
3
 72
0
 73
1
 93
6
 10
404.3896093572564
 20
374.5
 10
405.5596093572564
 20
376.45
 10
408.84039064274356
 20
376.45
 10
410.0103906427436
 20
374.5
 10
408.84039064274356
 20
372.55
 10
405.5596093572564
 20
372.55
 97
0
 75
0
 76
1
 98
0
  0
HATCH
  5
AE
330
1B
100
AcDbEntity
 67
1
  8
R-LEGENDA
 62
7
420
16777215
100
AcDbHatch
 10
0.0
 20
0.0
 30
0.0
210
0.0
220
0.0
230
1.0
  2
SOLID
 70
1
 71
0
 91
1
 92
3
 72
0
 73
1
 93
6
 10
404.3896093572564
 20
368.5
 10
405.5596093572564
 20
370.45
 10
408.84039064274356
 20
370.45
 10
410.0103906427436
 20
368.5
 10
408.84039064274356
 20
366.55
 10
405.5596093572564
 20
366.55
 97
0
 75
0
 76
1
 98
0
  0
HATCH
  5
AF
330
1B
100
AcDbEntity
 67
1
  8
R-LEGENDA
 62
7
420
16777215
100
AcDbHatch
 10
0.0
 20
0.0
 30
0.0
210
0.0
220
0.0
230
1.0
  2
SOLID
 70
1
 71
0
 91
1
 92
3
 72
0
 73
1
 93
6
 10
404.3896093572564
 20
362.5
 10
405.5596093572564
 20
364.45
 10
408.84039064274356
 20
364.45
 10
410.0103906427436
 20
362.5
 10
408.84039064274356
 20
360.55
 10
405.5596093572564
 20
360.55
 97
0
 75
0
 76
1
 98
0
  0
HATCH
  5
B0
330
1B
100
AcDbEntity
 67
1
  8
R-LEGENDA
 62
7
420
16777215
100
AcDbHatch
 10
0.0
 20
0.0
 30
0.0
210
0.0
220
0.0
230
1.0
  2
SOLID
 70
1
 71
0
 91
1
 92
3
 72
0
 73
1
 93
6
 10
404.3896093572564
 20
356.5
 10
405.5596093572564
 20
358.45
 10
408.84039064274356
 20
358.45
 10
410.0103906427436
 20
356.5
 10
408.84039064274356
 20
354.55
 10
405.5596093572564
 20
354.55
 97
0
 75
0
 76
1
 98
0
  0
LWPOLYLINE
  5
B1
330
1B
100
AcDbEntity
 67
1
  8
R-LEGENDA
370
18
100
AcDbPolyline
 90
6
 70
1
 10
404.3896093572564
 20
398.5
 10
405.5596093572564
 20
400.45
 10
408.84039064274356
 20
400.45
 10
410.0103906427436
 20
398.5
 10
408.84039064274356
 20
396.55
 10
405.5596093572564
 20
396.55
  0
LWPOLYLINE
  5
B2
330
1B
100
AcDbEntity
 67
1
  8
R-LEGENDA
370
18
100
AcDbPolyline
 90
6
 70
1
 10
404.3896093572564
 20
392.5
 10
405.5596093572564
 20
394.45
 10
408.84039064274356
 20
394.45
 10
410.0103906427436
 20
392.5
 10
408.84039064274356
 20
390.55
 10
405.5596093572564
 20
390.55
  0
LWPOLYLINE
  5
B3
330
1B
100
AcDbEntity
 67
1
  8
R-LEGENDA
370
18
100
AcDbPolyline
 90
6
 70
1
 10
404.3896093572564
 20
386.5
 10
405.5596093572564
 20
388.45
 10
408.84039064274356
 20
388.45
 10
410.0103906427436
 20
386.5
 10
408.84039064274356
 20
384.55
 10
405.5596093572564
 20
384.55
  0
LWPOLYLINE
  5
B4
330
1B
100
AcDbEntity
 67
1
  8
R-LEGENDA
370
18
100
AcDbPolyline
 90
6
 70
1
 10
404.3896093572564
 20
380.5
 10
405.5596093572564
 20
382.45
 10
408.84039064274356
 20
382.45
 10
410.0103906427436
 20
380.5
 10
408.84039064274356
 20
378.55
 10
405.5596093572564
 20
378.55
  0
LWPOLYLINE
  5
B5
330
1B
100
AcDbEntity
 67
1
  8
R-LEGENDA
370
18
100
AcDbPolyline
 90
6
 70
1
 10
404.3896093572564
 20
374.5
 10
405.5596093572564
 20
376.45
 10
408.84039064274356
 20
376.45
 10
410.0103906427436
 20
374.5
 10
408.84039064274356
 20
372.55
 10
405.5596093572564
 20
372.55
  0
LWPOLYLINE
  5
B6
330
1B
100
AcDbEntity
 67
1
  8
R-LEGENDA
370
18
100
AcDbPolyline
 90
6
 70
1
 10
404.3896093572564
 20
368.5
 10
405.5596093572564
 20
370.45
 10
408.84039064274356
 20
370.45
 10
410.0103906427436
 20
368.5
 10
408.84039064274356
 20
366.55
 10
405.5596093572564
 20
366.55
  0
LWPOLYLINE
  5
B7
330
1B
100
AcDbEntity
 67
1
  8
R-LEGENDA
370
18
100
AcDbPolyline
 90
6
 70
1
 10
404.3896093572564
 20
362.5
 10
405.5596093572564
 20
364.45
 10
408.84039064274356
 20
364.45
 10
410.0103906427436
 20
362.5
 10
408.84039064274356
 20
360.55
 10
405.5596093572564
 20
360.55
  0
LWPOLYLINE
  5
B8
330
1B
100
AcDbEntity
 67
1
  8
R-LEGENDA
370
18
100
AcDbPolyline
 90
6
 70
1
 10
404.3896093572564
 20
356.5
 10
405.5596093572564
 20
358.45
 10
408.84039064274356
 20
358.45
 10
410.0103906427436
 20
356.5
 10
408.84039064274356
 20
354.55
 10
405.5596093572564
 20
354.55
  0
TEXT
  5
B9
330
1B
100
AcDbEntity
 67
1
  8
R-LEGENDA
100
AcDbText
 10
406.1896093572564
 20
397.25
 30
0.0
 40
2.5
  1
1
  7
PL_ARIAL
 11
406.1896093572564
 21
397.25
 31
0.0
100
AcDbText
  0
TEXT
  5
BA
330
1B
100
AcDbEntity
 67
1
  8
R-LEGENDA
100
AcDbText
 10
406.1896093572564
 20
391.25
 30
0.0
 40
2.5
  1
2
  7
PL_ARIAL
 11
406.1896093572564
 21
391.25
 31
0.0
100
AcDbText
  0
TEXT
  5
BB
330
1B
100
AcDbEntity
 67
1
  8
R-LEGENDA
100
AcDbText
 10
406.1896093572564
 20
385.25
 30
0.0
 40
2.5
  1
3
  7
PL_ARIAL
 11
406.1896093572564
 21
385.25
 31
0.0
100
AcDbText
  0
TEXT
  5
BC
330
1B
100
AcDbEntity
 67
1
  8
R-LEGENDA
100
AcDbText
 10
406.1896093572564
 20
379.25
 30
0.0
 40
2.5
  1
4
  7
PL_ARIAL
 11
406.1896093572564
 21
379.25
 31
0.0
100
AcDbText
  0
TEXT
  5
BD
330
1B
100
AcDbEntity
 67
1
  8
R-LEGENDA
100
AcDbText
 10
406.1896093572564
 20
373.25
 30
0.0
 40
2.5
  1
5
  7
PL_ARIAL
 11
406.1896093572564
 21
373.25
 31
0.0
100
AcDbText
  0
TEXT
  5
BE
330
1B
100
AcDbEntity
 67
1
  8
R-LEGENDA
100
AcDbText
 10
406.1896093572564
 20
367.25
 30
0.0
 40
2.5
  1
6
  7
PL_ARIAL
 11
406.1896093572564
 21
367.25
 31
0.0
100
AcDbText
  0
TEXT
  5
BF
330
1B
100
AcDbEntity
 67
1
  8
R-LEGENDA
100
AcDbText
 10
406.1896093572564
 20
361.25
 30
0.0
 40
2.5
  1
7
  7
PL_ARIAL
 11
406.1896093572564
 21
361.25
 31
0.0
100
AcDbText
  0
TEXT
  5
C0
330
1B
100
AcDbEntity
 67
1
  8
R-LEGENDA
100
AcDbText
 10
406.1896093572564
 20
355.25
 30
0.0
 40
2.5
  1
8
  7
PL_ARIAL
 11
406.1896093572564
 21
355.25
 31
0.0
100
AcDbText
  0
HATCH
  5
C1
330
1B
100
AcDbEntity
 67
1
  8
R-TABLICZKA
 62
7
420
16777215
100
AcDbHatch
 10
0.0
 20
0.0
 30
0.0
210
0.0
220
0.0
230
1.0
  2
SOLID
 70
1
 71
0
 91
1
 92
3
 72
0
 73
1
 93
4
 10
404.0
 20
10.0
 10
584.0
 20
10.0
 10
584.0
 20
103.0
 10
404.0
 20
103.0
 97
0
 75
0
 76
1
 98
0
  0
HATCH
  5
C2
330
1B
100
AcDbEntity
 67
1
  8
R-TABLICZKA
 62
7
420
16777215
100
AcDbHatch
 10
0.0
 20
0.0
 30
0.0
210
0.0
220
0.0
230
1.0
  2
SOLID
 70
1
 71
0
 91
1
 92
3
 72
0
 73
1
 93
4
 10
404.0
 20
103.0
 10
584.0
 20
103.0
 10
584.0
 20
113.0
 10
404.0
 20
113.0
 97
0
 75
0
 76
1
 98
0
  0
LWPOLYLINE
  5
C3
330
1B
100
AcDbEntity
 67
1
  8
R-RAMKA
370
70
100
AcDbPolyline
 90
4
 70
1
 10
20.0
 20
10.0
 10
584.0
 20
10.0
 10
584.0
 20
410.0
 10
20.0
 20
410.0
  0
LWPOLYLINE
  5
C4
330
1B
100
AcDbEntity
 67
1
  8
R-RAMKA
370
70
100
AcDbPolyline
 90
2
 70
0
 10
297.0
 20
0.0
 10
297.0
 20
20.0
  0
LWPOLYLINE
  5
C5
330
1B
100
AcDbEntity
 67
1
  8
R-RAMKA
370
70
100
AcDbPolyline
 90
2
 70
0
 10
297.0
 20
420.0
 10
297.0
 20
400.0
  0
LWPOLYLINE
  5
C6
330
1B
100
AcDbEntity
 67
1
  8
R-RAMKA
370
70
100
AcDbPolyline
 90
2
 70
0
 10
0.0
 20
210.0
 10
30.0
 20
210.0
  0
LWPOLYLINE
  5
C7
330
1B
100
AcDbEntity
 67
1
  8
R-RAMKA
370
70
100
AcDbPolyline
 90
2
 70
0
 10
594.0
 20
210.0
 10
574.0
 20
210.0
  0
LWPOLYLINE
  5
C8
330
1B
100
AcDbEntity
 67
1
  8
R-RAMKA
370
35
100
AcDbPolyline
 90
2
 70
0
 10
210.0
 20
0.0
 10
210.0
 20
5.0
  0
LWPOLYLINE
  5
C9
330
1B
100
AcDbEntity
 67
1
  8
R-RAMKA
370
35
100
AcDbPolyline
 90
2
 70
0
 10
210.0
 20
420.0
 10
210.0
 20
415.0
  0
LWPOLYLINE
  5
CA
330
1B
100
AcDbEntity
 67
1
  8
R-RAMKA
370
35
100
AcDbPolyline
 90
2
 70
0
 10
402.0
 20
0.0
 10
402.0
 20
5.0
  0
LWPOLYLINE
  5
CB
330
1B
100
AcDbEntity
 67
1
  8
R-RAMKA
370
35
100
AcDbPolyline
 90
2
 70
0
 10
402.0
 20
420.0
 10
402.0
 20
415.0
  0
LWPOLYLINE
  5
CC
330
1B
100
AcDbEntity
 67
1
  8
R-RAMKA
370
35
100
AcDbPolyline
 90
2
 70
0
 10
0.0
 20
297.0
 10
5.0
 20
297.0
  0
LWPOLYLINE
  5
CD
330
1B
100
AcDbEntity
 67
1
  8
R-RAMKA
370
35
100
AcDbPolyline
 90
2
 70
0
 10
594.0
 20
297.0
 10
589.0
 20
297.0
  0
LWPOLYLINE
  5
CE
330
1B
100
AcDbEntity
 67
1
  8
R-RAMKA
370
35
100
AcDbPolyline
 90
2
 70
0
 10
47.0
 20
10.0
 10
47.0
 20
5.0
  0
LWPOLYLINE
  5
CF
330
1B
100
AcDbEntity
 67
1
  8
R-RAMKA
370
35
100
AcDbPolyline
 90
2
 70
0
 10
47.0
 20
410.0
 10
47.0
 20
415.0
  0
LWPOLYLINE
  5
D0
330
1B
100
AcDbEntity
 67
1
  8
R-RAMKA
370
35
100
AcDbPolyline
 90
2
 70
0
 10
97.0
 20
10.0
 10
97.0
 20
5.0
  0
LWPOLYLINE
  5
D1
330
1B
100
AcDbEntity
 67
1
  8
R-RAMKA
370
35
100
AcDbPolyline
 90
2
 70
0
 10
97.0
 20
410.0
 10
97.0
 20
415.0
  0
LWPOLYLINE
  5
D2
330
1B
100
AcDbEntity
 67
1
  8
R-RAMKA
370
35
100
AcDbPolyline
 90
2
 70
0
 10
147.0
 20
10.0
 10
147.0
 20
5.0
  0
LWPOLYLINE
  5
D3
330
1B
100
AcDbEntity
 67
1
  8
R-RAMKA
370
35
100
AcDbPolyline
 90
2
 70
0
 10
147.0
 20
410.0
 10
147.0
 20
415.0
  0
LWPOLYLINE
  5
D4
330
1B
100
AcDbEntity
 67
1
  8
R-RAMKA
370
35
100
AcDbPolyline
 90
2
 70
0
 10
197.0
 20
10.0
 10
197.0
 20
5.0
  0
LWPOLYLINE
  5
D5
330
1B
100
AcDbEntity
 67
1
  8
R-RAMKA
370
35
100
AcDbPolyline
 90
2
 70
0
 10
197.0
 20
410.0
 10
197.0
 20
415.0
  0
LWPOLYLINE
  5
D6
330
1B
100
AcDbEntity
 67
1
  8
R-RAMKA
370
35
100
AcDbPolyline
 90
2
 70
0
 10
247.0
 20
10.0
 10
247.0
 20
5.0
  0
LWPOLYLINE
  5
D7
330
1B
100
AcDbEntity
 67
1
  8
R-RAMKA
370
35
100
AcDbPolyline
 90
2
 70
0
 10
247.0
 20
410.0
 10
247.0
 20
415.0
  0
LWPOLYLINE
  5
D8
330
1B
100
AcDbEntity
 67
1
  8
R-RAMKA
370
35
100
AcDbPolyline
 90
2
 70
0
 10
297.0
 20
10.0
 10
297.0
 20
5.0
  0
LWPOLYLINE
  5
D9
330
1B
100
AcDbEntity
 67
1
  8
R-RAMKA
370
35
100
AcDbPolyline
 90
2
 70
0
 10
297.0
 20
410.0
 10
297.0
 20
415.0
  0
LWPOLYLINE
  5
DA
330
1B
100
AcDbEntity
 67
1
  8
R-RAMKA
370
35
100
AcDbPolyline
 90
2
 70
0
 10
347.0
 20
10.0
 10
347.0
 20
5.0
  0
LWPOLYLINE
  5
DB
330
1B
100
AcDbEntity
 67
1
  8
R-RAMKA
370
35
100
AcDbPolyline
 90
2
 70
0
 10
347.0
 20
410.0
 10
347.0
 20
415.0
  0
LWPOLYLINE
  5
DC
330
1B
100
AcDbEntity
 67
1
  8
R-RAMKA
370
35
100
AcDbPolyline
 90
2
 70
0
 10
397.0
 20
10.0
 10
397.0
 20
5.0
  0
LWPOLYLINE
  5
DD
330
1B
100
AcDbEntity
 67
1
  8
R-RAMKA
370
35
100
AcDbPolyline
 90
2
 70
0
 10
397.0
 20
410.0
 10
397.0
 20
415.0
  0
LWPOLYLINE
  5
DE
330
1B
100
AcDbEntity
 67
1
  8
R-RAMKA
370
35
100
AcDbPolyline
 90
2
 70
0
 10
447.0
 20
10.0
 10
447.0
 20
5.0
  0
LWPOLYLINE
  5
DF
330
1B
100
AcDbEntity
 67
1
  8
R-RAMKA
370
35
100
AcDbPolyline
 90
2
 70
0
 10
447.0
 20
410.0
 10
447.0
 20
415.0
  0
LWPOLYLINE
  5
E0
330
1B
100
AcDbEntity
 67
1
  8
R-RAMKA
370
35
100
AcDbPolyline
 90
2
 70
0
 10
497.0
 20
10.0
 10
497.0
 20
5.0
  0
LWPOLYLINE
  5
E1
330
1B
100
AcDbEntity
 67
1
  8
R-RAMKA
370
35
100
AcDbPolyline
 90
2
 70
0
 10
497.0
 20
410.0
 10
497.0
 20
415.0
  0
LWPOLYLINE
  5
E2
330
1B
100
AcDbEntity
 67
1
  8
R-RAMKA
370
35
100
AcDbPolyline
 90
2
 70
0
 10
547.0
 20
10.0
 10
547.0
 20
5.0
  0
LWPOLYLINE
  5
E3
330
1B
100
AcDbEntity
 67
1
  8
R-RAMKA
370
35
100
AcDbPolyline
 90
2
 70
0
 10
547.0
 20
410.0
 10
547.0
 20
415.0
  0
LWPOLYLINE
  5
E4
330
1B
100
AcDbEntity
 67
1
  8
R-RAMKA
370
35
100
AcDbPolyline
 90
2
 70
0
 10
20.0
 20
60.0
 10
15.0
 20
60.0
  0
LWPOLYLINE
  5
E5
330
1B
100
AcDbEntity
 67
1
  8
R-RAMKA
370
35
100
AcDbPolyline
 90
2
 70
0
 10
584.0
 20
60.0
 10
589.0
 20
60.0
  0
LWPOLYLINE
  5
E6
330
1B
100
AcDbEntity
 67
1
  8
R-RAMKA
370
35
100
AcDbPolyline
 90
2
 70
0
 10
20.0
 20
110.0
 10
15.0
 20
110.0
  0
LWPOLYLINE
  5
E7
330
1B
100
AcDbEntity
 67
1
  8
R-RAMKA
370
35
100
AcDbPolyline
 90
2
 70
0
 10
584.0
 20
110.0
 10
589.0
 20
110.0
  0
LWPOLYLINE
  5
E8
330
1B
100
AcDbEntity
 67
1
  8
R-RAMKA
370
35
100
AcDbPolyline
 90
2
 70
0
 10
20.0
 20
160.0
 10
15.0
 20
160.0
  0
LWPOLYLINE
  5
E9
330
1B
100
AcDbEntity
 67
1
  8
R-RAMKA
370
35
100
AcDbPolyline
 90
2
 70
0
 10
584.0
 20
160.0
 10
589.0
 20
160.0
  0
LWPOLYLINE
  5
EA
330
1B
100
AcDbEntity
 67
1
  8
R-RAMKA
370
35
100
AcDbPolyline
 90
2
 70
0
 10
20.0
 20
210.0
 10
15.0
 20
210.0
  0
LWPOLYLINE
  5
EB
330
1B
100
AcDbEntity
 67
1
  8
R-RAMKA
370
35
100
AcDbPolyline
 90
2
 70
0
 10
584.0
 20
210.0
 10
589.0
 20
210.0
  0
LWPOLYLINE
  5
EC
330
1B
100
AcDbEntity
 67
1
  8
R-RAMKA
370
35
100
AcDbPolyline
 90
2
 70
0
 10
20.0
 20
260.0
 10
15.0
 20
260.0
  0
LWPOLYLINE
  5
ED
330
1B
100
AcDbEntity
 67
1
  8
R-RAMKA
370
35
100
AcDbPolyline
 90
2
 70
0
 10
584.0
 20
260.0
 10
589.0
 20
260.0
  0
LWPOLYLINE
  5
EE
330
1B
100
AcDbEntity
 67
1
  8
R-RAMKA
370
35
100
AcDbPolyline
 90
2
 70
0
 10
20.0
 20
310.0
 10
15.0
 20
310.0
  0
LWPOLYLINE
  5
EF
330
1B
100
AcDbEntity
 67
1
  8
R-RAMKA
370
35
100
AcDbPolyline
 90
2
 70
0
 10
584.0
 20
310.0
 10
589.0
 20
310.0
  0
LWPOLYLINE
  5
F0
330
1B
100
AcDbEntity
 67
1
  8
R-RAMKA
370
35
100
AcDbPolyline
 90
2
 70
0
 10
20.0
 20
360.0
 10
15.0
 20
360.0
  0
LWPOLYLINE
  5
F1
330
1B
100
AcDbEntity
 67
1
  8
R-RAMKA
370
35
100
AcDbPolyline
 90
2
 70
0
 10
584.0
 20
360.0
 10
589.0
 20
360.0
  0
LWPOLYLINE
  5
F2
330
1B
100
AcDbEntity
 67
1
  8
R-TABLICZKA
370
25
100
AcDbPolyline
 90
2
 70
0
 10
514.0
 20
91.0
 10
514.0
 20
103.0
  0
LWPOLYLINE
  5
F3
330
1B
100
AcDbEntity
 67
1
  8
R-TABLICZKA
370
25
100
AcDbPolyline
 90
2
 70
0
 10
539.0
 20
91.0
 10
539.0
 20
103.0
  0
LWPOLYLINE
  5
F4
330
1B
100
AcDbEntity
 67
1
  8
R-TABLICZKA
370
25
100
AcDbPolyline
 90
2
 70
0
 10
404.0
 20
91.0
 10
584.0
 20
91.0
  0
LWPOLYLINE
  5
F5
330
1B
100
AcDbEntity
 67
1
  8
R-TABLICZKA
370
18
100
AcDbPolyline
 90
2
 70
0
 10
404.0
 20
83.0
 10
584.0
 20
83.0
  0
LWPOLYLINE
  5
F6
330
1B
100
AcDbEntity
 67
1
  8
R-TABLICZKA
370
18
100
AcDbPolyline
 90
2
 70
0
 10
404.0
 20
72.5
 10
584.0
 20
72.5
  0
LWPOLYLINE
  5
F7
330
1B
100
AcDbEntity
 67
1
  8
R-TABLICZKA
370
18
100
AcDbPolyline
 90
2
 70
0
 10
554.0
 20
63.5
 10
554.0
 20
72.5
  0
LWPOLYLINE
  5
F8
330
1B
100
AcDbEntity
 67
1
  8
R-TABLICZKA
370
25
100
AcDbPolyline
 90
2
 70
0
 10
404.0
 20
63.5
 10
584.0
 20
63.5
  0
LWPOLYLINE
  5
F9
330
1B
100
AcDbEntity
 67
1
  8
R-TABLICZKA
370
18
100
AcDbPolyline
 90
2
 70
0
 10
404.0
 20
59.0
 10
584.0
 20
59.0
  0
LWPOLYLINE
  5
FA
330
1B
100
AcDbEntity
 67
1
  8
R-TABLICZKA
370
18
100
AcDbPolyline
 90
2
 70
0
 10
404.0
 20
52.0
 10
584.0
 20
52.0
  0
LWPOLYLINE
  5
FB
330
1B
100
AcDbEntity
 67
1
  8
R-TABLICZKA
370
18
100
AcDbPolyline
 90
2
 70
0
 10
404.0
 20
45.0
 10
584.0
 20
45.0
  0
LWPOLYLINE
  5
FC
330
1B
100
AcDbEntity
 67
1
  8
R-TABLICZKA
370
18
100
AcDbPolyline
 90
2
 70
0
 10
404.0
 20
38.0
 10
584.0
 20
38.0
  0
LWPOLYLINE
  5
FD
330
1B
100
AcDbEntity
 67
1
  8
R-TABLICZKA
370
18
100
AcDbPolyline
 90
2
 70
0
 10
404.0
 20
31.0
 10
584.0
 20
31.0
  0
LWPOLYLINE
  5
FE
330
1B
100
AcDbEntity
 67
1
  8
R-TABLICZKA
370
18
100
AcDbPolyline
 90
2
 70
0
 10
431.0
 20
31.0
 10
431.0
 20
63.5
  0
LWPOLYLINE
  5
FF
330
1B
100
AcDbEntity
 67
1
  8
R-TABLICZKA
370
18
100
AcDbPolyline
 90
2
 70
0
 10
474.0
 20
31.0
 10
474.0
 20
63.5
  0
LWPOLYLINE
  5
100
330
1B
100
AcDbEntity
 67
1
  8
R-TABLICZKA
370
18
100
AcDbPolyline
 90
2
 70
0
 10
529.0
 20
31.0
 10
529.0
 20
63.5
  0
LWPOLYLINE
  5
101
330
1B
100
AcDbEntity
 67
1
  8
R-TABLICZKA
370
18
100
AcDbPolyline
 90
2
 70
0
 10
549.0
 20
31.0
 10
549.0
 20
63.5
  0
LWPOLYLINE
  5
102
330
1B
100
AcDbEntity
 67
1
  8
R-TABLICZKA
370
25
100
AcDbPolyline
 90
2
 70
0
 10
404.0
 20
31.0
 10
584.0
 20
31.0
  0
LWPOLYLINE
  5
103
330
1B
100
AcDbEntity
 67
1
  8
R-TABLICZKA
370
25
100
AcDbPolyline
 90
2
 70
0
 10
404.0
 20
19.0
 10
584.0
 20
19.0
  0
LWPOLYLINE
  5
104
330
1B
100
AcDbEntity
 67
1
  8
R-TABLICZKA
370
25
100
AcDbPolyline
 90
2
 70
0
 10
428.0
 20
10.0
 10
428.0
 20
19.0
  0
LWPOLYLINE
  5
105
330
1B
100
AcDbEntity
 67
1
  8
R-TABLICZKA
370
25
100
AcDbPolyline
 90
2
 70
0
 10
444.0
 20
10.0
 10
444.0
 20
19.0
  0
LWPOLYLINE
  5
106
330
1B
100
AcDbEntity
 67
1
  8
R-TABLICZKA
370
25
100
AcDbPolyline
 90
2
 70
0
 10
468.0
 20
10.0
 10
468.0
 20
19.0
  0
LWPOLYLINE
  5
107
330
1B
100
AcDbEntity
 67
1
  8
R-TABLICZKA
370
25
100
AcDbPolyline
 90
2
 70
0
 10
496.0
 20
10.0
 10
496.0
 20
19.0
  0
LWPOLYLINE
  5
108
330
1B
100
AcDbEntity
 67
1
  8
R-TABLICZKA
370
25
100
AcDbPolyline
 90
2
 70
0
 10
548.0
 20
10.0
 10
548.0
 20
19.0
  0
LWPOLYLINE
  5
109
330
1B
100
AcDbEntity
 67
1
  8
R-TABLICZKA
370
25
100
AcDbPolyline
 90
2
 70
0
 10
566.0
 20
10.0
 10
566.0
 20
19.0
  0
LWPOLYLINE
  5
10A
330
1B
100
AcDbEntity
 67
1
  8
R-TABLICZKA
370
50
100
AcDbPolyline
 90
4
 70
1
 10
404.0
 20
10.0
 10
584.0
 20
10.0
 10
584.0
 20
103.0
 10
404.0
 20
103.0
  0
LWPOLYLINE
  5
10B
330
1B
100
AcDbEntity
 67
1
  8
R-TABLICZKA
370
18
100
AcDbPolyline
 90
2
 70
0
 10
404.0
 20
108.0
 10
584.0
 20
108.0
  0
LWPOLYLINE
  5
10C
330
1B
100
AcDbEntity
 67
1
  8
R-TABLICZKA
370
18
100
AcDbPolyline
 90
2
 70
0
 10
404.0
 20
113.0
 10
584.0
 20
113.0
  0
LWPOLYLINE
  5
10D
330
1B
100
AcDbEntity
 67
1
  8
R-TABLICZKA
370
18
100
AcDbPolyline
 90
2
 70
0
 10
422.0
 20
103.0
 10
422.0
 20
113.0
  0
LWPOLYLINE
  5
10E
330
1B
100
AcDbEntity
 67
1
  8
R-TABLICZKA
370
18
100
AcDbPolyline
 90
2
 70
0
 10
544.0
 20
103.0
 10
544.0
 20
113.0
  0
LWPOLYLINE
  5
10F
330
1B
100
AcDbEntity
 67
1
  8
R-TABLICZKA
370
25
100
AcDbPolyline
 90
4
 70
1
 10
404.0
 20
103.0
 10
584.0
 20
103.0
 10
584.0
 20
113.0
 10
404.0
 20
113.0
  0
TEXT
  5
110
330
1B
100
AcDbEntity
 67
1
  8
R-OPISY
100
AcDbText
 10
31.505346354758103
 20
121.86093431372547
 30
0.0
 40
5.0
  1
ELEWACJA PÓŁNOCNA
  7
PL_ARIAL_B
 11
31.505346354758103
 21
121.86093431372547
 31
0.0
100
AcDbText
  0
TEXT
  5
111
330
1B
100
AcDbEntity
 67
1
  8
R-OPISY
100
AcDbText
 10
118.22440154440153
 20
121.86093431372547
 30
0.0
 40
3.5
  1
1:50
  7
PL_ARIAL
 11
118.22440154440153
 21
121.86093431372547
 31
0.0
100
AcDbText
  0
TEXT
  5
112
330
1B
100
AcDbEntity
 67
1
  8
R-LEGENDA
100
AcDbText
 10
404.0
 20
403.5
 30
0.0
 40
3.5
  1
KOLORYSTYKA I MATERIAŁY ELEWACJI
  7
PL_ARIAL_B
 11
404.0
 21
403.5
 31
0.0
100
AcDbText
  0
TEXT
  5
113
330
1B
100
AcDbEntity
 67
1
  8
R-LEGENDA
100
AcDbText
 10
427.0
 20
399.3
 30
0.0
 40
1.8
  1
Tynk silikonowy cienkowarstwowy, biały [TYNK_SIL]
  7
PL_ARIAL
 11
427.0
 21
399.3
 31
0.0
100
AcDbText
  0
TEXT
  5
114
330
1B
100
AcDbEntity
 67
1
  8
R-LEGENDA
420
5263440
100
AcDbText
 10
573.9995457642516
 20
399.3
 30
0.0
 40
1.8
  1
#f5f4f0
  7
PL_ARIAL
 11
573.9995457642516
 21
399.3
 31
0.0
100
AcDbText
  0
TEXT
  5
115
330
1B
100
AcDbEntity
 67
1
  8
R-LEGENDA
100
AcDbText
 10
427.0
 20
393.3
 30
0.0
 40
1.8
  1
Szkło (szyby zespolone) [SZKLO]
  7
PL_ARIAL
 11
427.0
 21
393.3
 31
0.0
100
AcDbText
  0
TEXT
  5
116
330
1B
100
AcDbEntity
 67
1
  8
R-LEGENDA
420
5263440
100
AcDbText
 10
572.1087894617307
 20
393.3
 30
0.0
 40
1.8
  1
#a9c3cd
  7
PL_ARIAL
 11
572.1087894617307
 21
393.3
 31
0.0
100
AcDbText
  0
TEXT
  5
117
330
1B
100
AcDbEntity
 67
1
  8
R-LEGENDA
100
AcDbText
 10
427.0
 20
387.3
 30
0.0
 40
1.8
  1
Balustrada — szkło klejone [SZKLO_BAL]
  7
PL_ARIAL
 11
427.0
 21
387.3
 31
0.0
100
AcDbText
  0
TEXT
  5
118
330
1B
100
AcDbEntity
 67
1
  8
R-LEGENDA
420
5263440
100
AcDbText
 10
571.9620258914376
 20
387.3
 30
0.0
 40
1.8
  1
#c9dde2
  7
PL_ARIAL
 11
571.9620258914376
 21
387.3
 31
0.0
100
AcDbText
  0
TEXT
  5
119
330
1B
100
AcDbEntity
 67
1
  8
R-LEGENDA
100
AcDbText
 10
427.0
 20
381.3
 30
0.0
 40
1.8
  1
Drzwi zewnętrzne, płycina aluminiowa [DRZWI_ZEWN]
  7
PL_ARIAL
 11
427.0
 21
381.3
 31
0.0
100
AcDbText
  0
TEXT
  5
11A
330
1B
100
AcDbEntity
 67
1
  8
R-LEGENDA
420
5263440
100
AcDbText
 10
571.9620258914376
 20
381.3
 30
0.0
 40
1.8
  1
#34383c
  7
PL_ARIAL
 11
571.9620258914376
 21
381.3
 31
0.0
100
AcDbText
  0
TEXT
  5
11B
330
1B
100
AcDbEntity
 67
1
  8
R-LEGENDA
100
AcDbText
 10
427.0
 20
375.3
 30
0.0
 40
1.8
  1
Stolarka — profile aluminiowe, antracyt [RAMA_ALU]
  7
PL_ARIAL
 11
427.0
 21
375.3
 31
0.0
100
AcDbText
  0
TEXT
  5
11C
330
1B
100
AcDbEntity
 67
1
  8
R-LEGENDA
420
5263440
100
AcDbText
 10
572.5433568021804
 20
375.3
 30
0.0
 40
1.8
  1
#2b2f33
  7
PL_ARIAL
 11
572.5433568021804
 21
375.3
 31
0.0
100
AcDbText
  0
TEXT
  5
11D
330
1B
100
AcDbEntity
 67
1
  8
R-LEGENDA
100
AcDbText
 10
427.0
 20
369.3
 30
0.0
 40
1.8
  1
Żelbet C30/37 [ZB_C30]
  7
PL_ARIAL
 11
427.0
 21
369.3
 31
0.0
100
AcDbText
  0
TEXT
  5
11E
330
1B
100
AcDbEntity
 67
1
  8
R-LEGENDA
420
5263440
100
AcDbText
 10
571.8152623211447
 20
369.3
 30
0.0
 40
1.8
  1
#b9b6ae
  7
PL_ARIAL
 11
571.8152623211447
 21
369.3
 31
0.0
100
AcDbText
  0
TEXT
  5
11F
330
1B
100
AcDbEntity
 67
1
  8
R-LEGENDA
100
AcDbText
 10
427.0
 20
363.3
 30
0.0
 40
1.8
  1
Obróbki blacharskie (blacha powlekana) [OBROBKA_BLACH]
  7
PL_ARIAL
 11
427.0
 21
363.3
 31
0.0
100
AcDbText
  0
TEXT
  5
120
330
1B
100
AcDbEntity
 67
1
  8
R-LEGENDA
420
5263440
100
AcDbText
 10
572.5433568021804
 20
363.3
 30
0.0
 40
1.8
  1
#3b3f43
  7
PL_ARIAL
 11
572.5433568021804
 21
363.3
 31
0.0
100
AcDbText
  0
TEXT
  5
121
330
1B
100
AcDbEntity
 67
1
  8
R-LEGENDA
100
AcDbText
 10
427.0
 20
357.3
 30
0.0
 40
1.8
  1
Stal konstrukcyjna S355, malowana proszkowo RAL 7016 [STAL_S355]
  7
PL_ARIAL
 11
427.0
 21
357.3
 31
0.0
100
AcDbText
  0
TEXT
  5
122
330
1B
100
AcDbEntity
 67
1
  8
R-LEGENDA
420
5263440
100
AcDbText
 10
571.8152623211447
 20
357.3
 30
0.0
 40
1.8
  1
#383e42
  7
PL_ARIAL
 11
571.8152623211447
 21
357.3
 31
0.0
100
AcDbText
  0
TEXT
  5
123
330
1B
100
AcDbEntity
 67
1
  8
R-OPISY
100
AcDbText
 10
406.0
 20
341.0
 30
0.0
 40
3.5
  1
OBJAŚNIENIA I UWAGI
  7
PL_ARIAL_B
 11
406.0
 21
341.0
 31
0.0
100
AcDbText
  0
TEXT
  5
124
330
1B
100
AcDbEntity
 67
1
  8
R-OPISY
100
AcDbText
 10
406.0
 20
334.7
 30
0.0
 40
1.8
  1
1. 
  7
PL_ARIAL
 11
406.0
 21
334.7
 31
0.0
100
AcDbText
  0
TEXT
  5
125
330
1B
100
AcDbEntity
 67
1
  8
R-OPISY
100
AcDbText
 10
408.90869861458094
 20
334.7
 30
0.0
 40
1.8
  1
Wymiary w cm (mm w indeksie górnym, np. 24⁵ = 24,5 cm), rzędne w m względem ±0,000 = 101,650 m n.p.m. (PL-EVRF2007-NH).
  7
PL_ARIAL
 11
408.90869861458094
 21
334.7
 31
0.0
100
AcDbText
  0
TEXT
  5
126
330
1B
100
AcDbEntity
 67
1
  8
R-OPISY
100
AcDbText
 10
406.0
 20
331.28
 30
0.0
 40
1.8
  1
2. 
  7
PL_ARIAL
 11
406.0
 21
331.28
 31
0.0
100
AcDbText
  0
TEXT
  5
127
330
1B
100
AcDbEntity
 67
1
  8
R-OPISY
100
AcDbText
 10
408.90869861458094
 20
331.28
 30
0.0
 40
1.8
  1
Rzędne: trójkąt zaczerniony — poziom wykończenia, niezaczerniony — konstrukcji, w połowie zaczerniony — poziom ±0,000 z rzędną bezwzględną
  7
PL_ARIAL
 11
408.90869861458094
 21
331.28
 31
0.0
100
AcDbText
  0
TEXT
  5
128
330
1B
100
AcDbEntity
 67
1
  8
R-OPISY
100
AcDbText
 10
408.90869861458094
 20
328.4
 30
0.0
 40
1.8
  1
(PN-B-01025).
  7
PL_ARIAL
 11
408.90869861458094
 21
328.4
 31
0.0
100
AcDbText
  0
TEXT
  5
129
330
1B
100
AcDbEntity
 67
1
  8
R-OPISY
100
AcDbText
 10
406.0
 20
324.97999999999996
 30
0.0
 40
1.8
  1
3. 
  7
PL_ARIAL
 11
406.0
 21
324.97999999999996
 31
0.0
100
AcDbText
  0
TEXT
  5
12A
330
1B
100
AcDbEntity
 67
1
  8
R-OPISY
100
AcDbText
 10
408.90869861458094
 20
324.97999999999996
 30
0.0
 40
1.8
  1
Wysokość budynku wg § 6 WT: od terenu przy najniżej położonym wejściu (−0,273) do wierzchu stropodachu D1 (+6,193) — H = 6,47 m (bez attyk).
  7
PL_ARIAL
 11
408.90869861458094
 21
324.97999999999996
 31
0.0
100
AcDbText
  0
TEXT
  5
12B
330
1B
100
AcDbEntity
 67
1
  8
R-OPISY
100
AcDbText
 10
406.0
 20
321.55999999999995
 30
0.0
 40
1.8
  1
4. 
  7
PL_ARIAL
 11
406.0
 21
321.55999999999995
 31
0.0
100
AcDbText
  0
TEXT
  5
12C
330
1B
100
AcDbEntity
 67
1
  8
R-OPISY
100
AcDbText
 10
408.90869861458094
 20
321.55999999999995
 30
0.0
 40
1.8
  1
Kolorystyka orientacyjna wg kolorów materiałów w modelu (do potwierdzenia wzornikiem RAL/NCS).
  7
PL_ARIAL
 11
408.90869861458094
 21
321.55999999999995
 31
0.0
100
AcDbText
  0
TEXT
  5
12D
330
1B
100
AcDbEntity
 67
1
  8
R-OPISY
100
AcDbText
 10
406.0
 20
318.13999999999993
 30
0.0
 40
1.8
  1
5. 
  7
PL_ARIAL
 11
406.0
 21
318.13999999999993
 31
0.0
100
AcDbText
  0
TEXT
  5
12E
330
1B
100
AcDbEntity
 67
1
  8
R-OPISY
100
AcDbText
 10
408.90869861458094
 20
318.13999999999993
 30
0.0
 40
1.8
  1
MODEL TESTOWY — rysunek próbny generatorów widoków; dane nie stanowią projektu.
  7
PL_ARIAL
 11
408.90869861458094
 21
318.13999999999993
 31
0.0
100
AcDbText
  0
TEXT
  5
12F
330
1B
100
AcDbEntity
 67
1
  8
R-OPISY
100
AcDbText
 10
406.0
 20
314.7199999999999
 30
0.0
 40
1.8
  1
6. 
  7
PL_ARIAL
 11
406.0
 21
314.7199999999999
 31
0.0
100
AcDbText
  0
TEXT
  5
130
330
1B
100
AcDbEntity
 67
1
  8
R-OPISY
100
AcDbText
 10
408.90869861458094
 20
314.7199999999999
 30
0.0
 40
1.8
  1
Rysunek wygenerowany automatycznie z modelu model/test/dom_testowy.yaml (wersja 1.0, 2026-09-25) — generatory lamela.views.
  7
PL_ARIAL
 11
408.90869861458094
 21
314.7199999999999
 31
0.0
100
AcDbText
  0
TEXT
  5
131
330
1B
100
AcDbEntity
 67
1
  8
R-OPISY
100
AcDbText
 10
407.27251873722463
 20
301.5199999999999
 30
0.0
 40
1.8
  1
1
  7
PL_ARIAL
 11
407.27251873722463
 21
301.5199999999999
 31
0.0
100
AcDbText
  0
TEXT
  5
132
330
1B
100
AcDbEntity
 67
1
  8
R-OPISY
100
AcDbText
 10
427.27251873722463
 20
301.5199999999999
 30
0.0
 40
1.8
  1
0
  7
PL_ARIAL
 11
427.27251873722463
 21
301.5199999999999
 31
0.0
100
AcDbText
  0
TEXT
  5
133
330
1B
100
AcDbEntity
 67
1
  8
R-OPISY
100
AcDbText
 10
447.27251873722463
 20
301.5199999999999
 30
0.0
 40
1.8
  1
1
  7
PL_ARIAL
 11
447.27251873722463
 21
301.5199999999999
 31
0.0
100
AcDbText
  0
TEXT
  5
134
330
1B
100
AcDbEntity
 67
1
  8
R-OPISY
100
AcDbText
 10
467.27251873722463
 20
301.5199999999999
 30
0.0
 40
1.8
  1
2
  7
PL_ARIAL
 11
467.27251873722463
 21
301.5199999999999
 31
0.0
100
AcDbText
  0
TEXT
  5
135
330
1B
100
AcDbEntity
 67
1
  8
R-OPISY
100
AcDbText
 10
487.27251873722463
 20
301.5199999999999
 30
0.0
 40
1.8
  1
3
  7
PL_ARIAL
 11
487.27251873722463
 21
301.5199999999999
 31
0.0
100
AcDbText
  0
TEXT
  5
136
330
1B
100
AcDbEntity
 67
1
  8
R-OPISY
100
AcDbText
 10
507.27251873722463
 20
301.5199999999999
 30
0.0
 40
1.8
  1
4
  7
PL_ARIAL
 11
507.27251873722463
 21
301.5199999999999
 31
0.0
100
AcDbText
  0
TEXT
  5
137
330
1B
100
AcDbEntity
 67
1
  8
R-OPISY
100
AcDbText
 10
527.2725187372246
 20
301.5199999999999
 30
0.0
 40
1.8
  1
5
  7
PL_ARIAL
 11
527.2725187372246
 21
301.5199999999999
 31
0.0
100
AcDbText
  0
TEXT
  5
138
330
1B
100
AcDbEntity
 67
1
  8
R-OPISY
100
AcDbText
 10
530.0
 20
298.9199999999999
 30
0.0
 40
1.8
  1
m
  7
PL_ARIAL
 11
530.0
 21
298.9199999999999
 31
0.0
100
AcDbText
  0
TEXT
  5
139
330
1B
100
AcDbEntity
 67
1
  8
R-OPISY
100
AcDbText
 10
408.0
 20
295.9199999999999
 30
0.0
 40
1.8
  1
PODZIAŁKA 1:50
  7
PL_ARIAL_B
 11
408.0
 21
295.9199999999999
 31
0.0
100
AcDbText
  0
TEXT
  5
13A
330
1B
100
AcDbEntity
 67
1
  8
R-OPISY
100
AcDbText
 10
12.8
 20
119.5
 30
0.0
 40
1.8
  1
odcinek kontrolny 100 mm (wydruk 1:1)
 50
90.0
  7
PL_ARIAL
 11
12.8
 21
119.5
 31
0.0
100
AcDbText
  0
TEXT
  5
13B
330
1B
100
AcDbEntity
 67
1
  8
R-RAMKA
100
AcDbText
 10
32.08545310015898
 20
413.25
 30
0.0
 40
3.5
  1
1
  7
PL_ARIAL
 11
32.08545310015898
 21
413.25
 31
0.0
100
AcDbText
  0
TEXT
  5
13C
330
1B
100
AcDbEntity
 67
1
  8
R-RAMKA
100
AcDbText
 10
32.08545310015898
 20
3.25
 30
0.0
 40
3.5
  1
1
  7
PL_ARIAL
 11
32.08545310015898
 21
3.25
 31
0.0
100
AcDbText
  0
TEXT
  5
13D
330
1B
100
AcDbEntity
 67
1
  8
R-RAMKA
100
AcDbText
 10
70.58545310015899
 20
413.25
 30
0.0
 40
3.5
  1
2
  7
PL_ARIAL
 11
70.58545310015899
 21
413.25
 31
0.0
100
AcDbText
  0
TEXT
  5
13E
330
1B
100
AcDbEntity
 67
1
  8
R-RAMKA
100
AcDbText
 10
70.58545310015899
 20
3.25
 30
0.0
 40
3.5
  1
2
  7
PL_ARIAL
 11
70.58545310015899
 21
3.25
 31
0.0
100
AcDbText
  0
TEXT
  5
13F
330
1B
100
AcDbEntity
 67
1
  8
R-RAMKA
100
AcDbText
 10
120.58545310015899
 20
413.25
 30
0.0
 40
3.5
  1
3
  7
PL_ARIAL
 11
120.58545310015899
 21
413.25
 31
0.0
100
AcDbText
  0
TEXT
  5
140
330
1B
100
AcDbEntity
 67
1
  8
R-RAMKA
100
AcDbText
 10
120.58545310015899
 20
3.25
 30
0.0
 40
3.5
  1
3
  7
PL_ARIAL
 11
120.58545310015899
 21
3.25
 31
0.0
100
AcDbText
  0
TEXT
  5
141
330
1B
100
AcDbEntity
 67
1
  8
R-RAMKA
100
AcDbText
 10
170.585453100159
 20
413.25
 30
0.0
 40
3.5
  1
4
  7
PL_ARIAL
 11
170.585453100159
 21
413.25
 31
0.0
100
AcDbText
  0
TEXT
  5
142
330
1B
100
AcDbEntity
 67
1
  8
R-RAMKA
100
AcDbText
 10
170.585453100159
 20
3.25
 30
0.0
 40
3.5
  1
4
  7
PL_ARIAL
 11
170.585453100159
 21
3.25
 31
0.0
100
AcDbText
  0
TEXT
  5
143
330
1B
100
AcDbEntity
 67
1
  8
R-RAMKA
100
AcDbText
 10
220.585453100159
 20
413.25
 30
0.0
 40
3.5
  1
5
  7
PL_ARIAL
 11
220.585453100159
 21
413.25
 31
0.0
100
AcDbText
  0
TEXT
  5
144
330
1B
100
AcDbEntity
 67
1
  8
R-RAMKA
100
AcDbText
 10
220.585453100159
 20
3.25
 30
0.0
 40
3.5
  1
5
  7
PL_ARIAL
 11
220.585453100159
 21
3.25
 31
0.0
100
AcDbText
  0
TEXT
  5
145
330
1B
100
AcDbEntity
 67
1
  8
R-RAMKA
100
AcDbText
 10
270.585453100159
 20
413.25
 30
0.0
 40
3.5
  1
6
  7
PL_ARIAL
 11
270.585453100159
 21
413.25
 31
0.0
100
AcDbText
  0
TEXT
  5
146
330
1B
100
AcDbEntity
 67
1
  8
R-RAMKA
100
AcDbText
 10
270.585453100159
 20
3.25
 30
0.0
 40
3.5
  1
6
  7
PL_ARIAL
 11
270.585453100159
 21
3.25
 31
0.0
100
AcDbText
  0
TEXT
  5
147
330
1B
100
AcDbEntity
 67
1
  8
R-RAMKA
100
AcDbText
 10
320.585453100159
 20
413.25
 30
0.0
 40
3.5
  1
7
  7
PL_ARIAL
 11
320.585453100159
 21
413.25
 31
0.0
100
AcDbText
  0
TEXT
  5
148
330
1B
100
AcDbEntity
 67
1
  8
R-RAMKA
100
AcDbText
 10
320.585453100159
 20
3.25
 30
0.0
 40
3.5
  1
7
  7
PL_ARIAL
 11
320.585453100159
 21
3.25
 31
0.0
100
AcDbText
  0
TEXT
  5
149
330
1B
100
AcDbEntity
 67
1
  8
R-RAMKA
100
AcDbText
 10
370.585453100159
 20
413.25
 30
0.0
 40
3.5
  1
8
  7
PL_ARIAL
 11
370.585453100159
 21
413.25
 31
0.0
100
AcDbText
  0
TEXT
  5
14A
330
1B
100
AcDbEntity
 67
1
  8
R-RAMKA
100
AcDbText
 10
370.585453100159
 20
3.25
 30
0.0
 40
3.5
  1
8
  7
PL_ARIAL
 11
370.585453100159
 21
3.25
 31
0.0
100
AcDbText
  0
TEXT
  5
14B
330
1B
100
AcDbEntity
 67
1
  8
R-RAMKA
100
AcDbText
 10
420.585453100159
 20
413.25
 30
0.0
 40
3.5
  1
9
  7
PL_ARIAL
 11
420.585453100159
 21
413.25
 31
0.0
100
AcDbText
  0
TEXT
  5
14C
330
1B
100
AcDbEntity
 67
1
  8
R-RAMKA
100
AcDbText
 10
420.585453100159
 20
3.25
 30
0.0
 40
3.5
  1
9
  7
PL_ARIAL
 11
420.585453100159
 21
3.25
 31
0.0
100
AcDbText
  0
TEXT
  5
14D
330
1B
100
AcDbEntity
 67
1
  8
R-RAMKA
100
AcDbText
 10
469.170906200318
 20
413.25
 30
0.0
 40
3.5
  1
10
  7
PL_ARIAL
 11
469.170906200318
 21
413.25
 31
0.0
100
AcDbText
  0
TEXT
  5
14E
330
1B
100
AcDbEntity
 67
1
  8
R-RAMKA
100
AcDbText
 10
469.170906200318
 20
3.25
 30
0.0
 40
3.5
  1
10
  7
PL_ARIAL
 11
469.170906200318
 21
3.25
 31
0.0
100
AcDbText
  0
TEXT
  5
14F
330
1B
100
AcDbEntity
 67
1
  8
R-RAMKA
100
AcDbText
 10
519.3596979332274
 20
413.25
 30
0.0
 40
3.5
  1
11
  7
PL_ARIAL
 11
519.3596979332274
 21
413.25
 31
0.0
100
AcDbText
  0
TEXT
  5
150
330
1B
100
AcDbEntity
 67
1
  8
R-RAMKA
100
AcDbText
 10
519.3596979332274
 20
3.25
 30
0.0
 40
3.5
  1
11
  7
PL_ARIAL
 11
519.3596979332274
 21
3.25
 31
0.0
100
AcDbText
  0
TEXT
  5
151
330
1B
100
AcDbEntity
 67
1
  8
R-RAMKA
100
AcDbText
 10
562.670906200318
 20
413.25
 30
0.0
 40
3.5
  1
12
  7
PL_ARIAL
 11
562.670906200318
 21
413.25
 31
0.0
100
AcDbText
  0
TEXT
  5
152
330
1B
100
AcDbEntity
 67
1
  8
R-RAMKA
100
AcDbText
 10
562.670906200318
 20
3.25
 30
0.0
 40
3.5
  1
12
  7
PL_ARIAL
 11
562.670906200318
 21
3.25
 31
0.0
100
AcDbText
  0
TEXT
  5
153
330
1B
100
AcDbEntity
 67
1
  8
R-RAMKA
100
AcDbText
 10
587.3032591414944
 20
383.25
 30
0.0
 40
3.5
  1
A
  7
PL_ARIAL
 11
587.3032591414944
 21
383.25
 31
0.0
100
AcDbText
  0
TEXT
  5
154
330
1B
100
AcDbEntity
 67
1
  8
R-RAMKA
100
AcDbText
 10
13.303259141494436
 20
383.25
 30
0.0
 40
3.5
  1
A
  7
PL_ARIAL
 11
13.303259141494436
 21
383.25
 31
0.0
100
AcDbText
  0
TEXT
  5
155
330
1B
100
AcDbEntity
 67
1
  8
R-RAMKA
100
AcDbText
 10
587.3032591414944
 20
333.25
 30
0.0
 40
3.5
  1
B
  7
PL_ARIAL
 11
587.3032591414944
 21
333.25
 31
0.0
100
AcDbText
  0
TEXT
  5
156
330
1B
100
AcDbEntity
 67
1
  8
R-RAMKA
100
AcDbText
 10
13.303259141494436
 20
333.25
 30
0.0
 40
3.5
  1
B
  7
PL_ARIAL
 11
13.303259141494436
 21
333.25
 31
0.0
100
AcDbText
  0
TEXT
  5
157
330
1B
100
AcDbEntity
 67
1
  8
R-RAMKA
100
AcDbText
 10
587.1629570747218
 20
283.25
 30
0.0
 40
3.5
  1
C
  7
PL_ARIAL
 11
587.1629570747218
 21
283.25
 31
0.0
100
AcDbText
  0
TEXT
  5
158
330
1B
100
AcDbEntity
 67
1
  8
R-RAMKA
100
AcDbText
 10
13.162957074721781
 20
283.25
 30
0.0
 40
3.5
  1
C
  7
PL_ARIAL
 11
13.162957074721781
 21
283.25
 31
0.0
100
AcDbText
  0
TEXT
  5
159
330
1B
100
AcDbEntity
 67
1
  8
R-RAMKA
100
AcDbText
 10
587.1629570747218
 20
233.25
 30
0.0
 40
3.5
  1
D
  7
PL_ARIAL
 11
587.1629570747218
 21
233.25
 31
0.0
100
AcDbText
  0
TEXT
  5
15A
330
1B
100
AcDbEntity
 67
1
  8
R-RAMKA
100
AcDbText
 10
13.162957074721781
 20
233.25
 30
0.0
 40
3.5
  1
D
  7
PL_ARIAL
 11
13.162957074721781
 21
233.25
 31
0.0
100
AcDbText
  0
TEXT
  5
15B
330
1B
100
AcDbEntity
 67
1
  8
R-RAMKA
100
AcDbText
 10
587.3032591414944
 20
183.25
 30
0.0
 40
3.5
  1
E
  7
PL_ARIAL
 11
587.3032591414944
 21
183.25
 31
0.0
100
AcDbText
  0
TEXT
  5
15C
330
1B
100
AcDbEntity
 67
1
  8
R-RAMKA
100
AcDbText
 10
13.303259141494436
 20
183.25
 30
0.0
 40
3.5
  1
E
  7
PL_ARIAL
 11
13.303259141494436
 21
183.25
 31
0.0
100
AcDbText
  0
TEXT
  5
15D
330
1B
100
AcDbEntity
 67
1
  8
R-RAMKA
100
AcDbText
 10
587.4463434022258
 20
133.25
 30
0.0
 40
3.5
  1
F
  7
PL_ARIAL
 11
587.4463434022258
 21
133.25
 31
0.0
100
AcDbText
  0
TEXT
  5
15E
330
1B
100
AcDbEntity
 67
1
  8
R-RAMKA
100
AcDbText
 10
13.446343402225756
 20
133.25
 30
0.0
 40
3.5
  1
F
  7
PL_ARIAL
 11
13.446343402225756
 21
133.25
 31
0.0
100
AcDbText
  0
TEXT
  5
15F
330
1B
100
AcDbEntity
 67
1
  8
R-RAMKA
100
AcDbText
 10
587.0214626391097
 20
83.25
 30
0.0
 40
3.5
  1
G
  7
PL_ARIAL
 11
587.0214626391097
 21
83.25
 31
0.0
100
AcDbText
  0
TEXT
  5
160
330
1B
100
AcDbEntity
 67
1
  8
R-RAMKA
100
AcDbText
 10
13.021462639109698
 20
83.25
 30
0.0
 40
3.5
  1
G
  7
PL_ARIAL
 11
13.021462639109698
 21
83.25
 31
0.0
100
AcDbText
  0
TEXT
  5
161
330
1B
100
AcDbEntity
 67
1
  8
R-RAMKA
100
AcDbText
 10
587.1629570747218
 20
33.25
 30
0.0
 40
3.5
  1
H
  7
PL_ARIAL
 11
587.1629570747218
 21
33.25
 31
0.0
100
AcDbText
  0
TEXT
  5
162
330
1B
100
AcDbEntity
 67
1
  8
R-RAMKA
100
AcDbText
 10
13.162957074721781
 20
33.25
 30
0.0
 40
3.5
  1
H
  7
PL_ARIAL
 11
13.162957074721781
 21
33.25
 31
0.0
100
AcDbText
  0
TEXT
  5
163
330
1B
100
AcDbEntity
 67
1
  8
R-RAMKA
100
AcDbText
 10
568.0726777197366
 20
4.1
 30
0.0
 40
1.8
  1
A2 (594×420)
  7
PL_ARIAL
 11
568.0726777197366
 21
4.1
 31
0.0
100
AcDbText
  0
TEXT
  5
164
330
1B
100
AcDbEntity
 67
1
  8
R-TABLICZKA
100
AcDbText
 10
405.2
 20
100.0
 30
0.0
 40
1.8
  1
PRACOWNIA PROJEKTOWA
  7
PL_ARIAL
 11
405.2
 21
100.0
 31
0.0
100
AcDbText
  0
TEXT
  5
165
330
1B
100
AcDbEntity
 67
1
  8
R-TABLICZKA
100
AcDbText
 10
405.2
 20
96.1
 30
0.0
 40
2.5
  1
PRACOWNIA PROJEKTOWA — nazwa do uzupełnienia
  7
PL_ARIAL_B
 11
405.2
 21
96.1
 31
0.0
100
AcDbText
  0
TEXT
  5
166
330
1B
100
AcDbEntity
 67
1
  8
R-TABLICZKA
100
AcDbText
 10
405.2
 20
92.4
 30
0.0
 40
1.8
  1
adres pracowni do uzupełnienia
  7
PL_ARIAL
 11
405.2
 21
92.4
 31
0.0
100
AcDbText
  0
TEXT
  5
167
330
1B
100
AcDbEntity
 67
1
  8
R-TABLICZKA
100
AcDbText
 10
515.2
 20
100.0
 30
0.0
 40
1.8
  1
STADIUM
  7
PL_ARIAL
 11
515.2
 21
100.0
 31
0.0
100
AcDbText
  0
TEXT
  5
168
330
1B
100
AcDbEntity
 67
1
  8
R-TABLICZKA
100
AcDbText
 10
521.4517374517375
 20
93.5
 30
0.0
 40
5.0
  1
PB
  7
PL_ARIAL_B
 11
521.4517374517375
 21
93.5
 31
0.0
100
AcDbText
  0
TEXT
  5
169
330
1B
100
AcDbEntity
 67
1
  8
R-TABLICZKA
100
AcDbText
 10
540.2
 20
100.0
 30
0.0
 40
1.8
  1
BRANŻA
  7
PL_ARIAL
 11
540.2
 21
100.0
 31
0.0
100
AcDbText
  0
TEXT
  5
16A
330
1B
100
AcDbEntity
 67
1
  8
R-TABLICZKA
100
AcDbText
 10
540.2
 20
94.44999999999999
 30
0.0
 40
2.5
  1
ARCHITEKTURA (AR)
  7
PL_ARIAL_B
 11
540.2
 21
94.44999999999999
 31
0.0
100
AcDbText
  0
TEXT
  5
16B
330
1B
100
AcDbEntity
 67
1
  8
R-TABLICZKA
100
AcDbText
 10
405.2
 20
88.0
 30
0.0
 40
1.8
  1
INWESTOR
  7
PL_ARIAL
 11
405.2
 21
88.0
 31
0.0
100
AcDbText
  0
TEXT
  5
16C
330
1B
100
AcDbEntity
 67
1
  8
R-TABLICZKA
100
AcDbText
 10
405.2
 20
84.44999999999999
 30
0.0
 40
2.5
  1
(do uzupełnienia)
  7
PL_ARIAL
 11
405.2
 21
84.44999999999999
 31
0.0
100
AcDbText
  0
TEXT
  5
16D
330
1B
100
AcDbEntity
 67
1
  8
R-TABLICZKA
100
AcDbText
 10
405.2
 20
80.0
 30
0.0
 40
1.8
  1
OBIEKT / NAZWA ZAMIERZENIA BUDOWLANEGO
  7
PL_ARIAL
 11
405.2
 21
80.0
 31
0.0
100
AcDbText
  0
TEXT
  5
16E
330
1B
100
AcDbEntity
 67
1
  8
R-TABLICZKA
100
AcDbText
 10
405.2
 20
75.19999999999999
 30
0.0
 40
2.5
  1
Budynek testowy pipeline'u (model testowy) — NIE jest projektem Domu LAMELA
  7
PL_ARIAL_B
 11
405.2
 21
75.19999999999999
 31
0.0
100
AcDbText
  0
TEXT
  5
16F
330
1B
100
AcDbEntity
 67
1
  8
R-TABLICZKA
100
AcDbText
 10
405.2
 20
69.5
 30
0.0
 40
1.8
  1
ADRES / LOKALIZACJA (NR DZIAŁKI, OBRĘB, JEDN. EWIDENCYJNA)
  7
PL_ARIAL
 11
405.2
 21
69.5
 31
0.0
100
AcDbText
  0
TEXT
  5
170
330
1B
100
AcDbEntity
 67
1
  8
R-TABLICZKA
100
AcDbText
 10
405.2
 20
65.716
 30
0.0
 40
1.8
  1
dz. nr ewid. T-1/1, obręb 0000 Testowo
  7
PL_ARIAL
 11
405.2
 21
65.716
 31
0.0
100
AcDbText
  0
TEXT
  5
171
330
1B
100
AcDbEntity
 67
1
  8
R-TABLICZKA
100
AcDbText
 10
555.2
 20
69.5
 30
0.0
 40
1.8
  1
KAT. OBIEKTU
  7
PL_ARIAL
 11
555.2
 21
69.5
 31
0.0
100
AcDbText
  0
TEXT
  5
172
330
1B
100
AcDbEntity
 67
1
  8
R-TABLICZKA
100
AcDbText
 10
568.2933227344992
 20
65.07
 30
0.0
 40
3.5
  1
I
  7
PL_ARIAL_B
 11
568.2933227344992
 21
65.07
 31
0.0
100
AcDbText
  0
TEXT
  5
173
330
1B
100
AcDbEntity
 67
1
  8
R-TABLICZKA
100
AcDbText
 10
411.4673631614808
 20
60.35
 30
0.0
 40
1.8
  1
FUNKCJA
  7
PL_ARIAL
 11
411.4673631614808
 21
60.35
 31
0.0
100
AcDbText
  0
TEXT
  5
174
330
1B
100
AcDbEntity
 67
1
  8
R-TABLICZKA
100
AcDbText
 10
441.74312968430615
 20
60.35
 30
0.0
 40
1.8
  1
IMIĘ I NAZWISKO
  7
PL_ARIAL
 11
441.74312968430615
 21
60.35
 31
0.0
100
AcDbText
  0
TEXT
  5
175
330
1B
100
AcDbEntity
 67
1
  8
R-TABLICZKA
100
AcDbText
 10
480.9770156711333
 20
60.35
 30
0.0
 40
1.8
  1
SPECJALNOŚĆ, NR UPRAWNIEŃ
  7
PL_ARIAL
 11
480.9770156711333
 21
60.35
 31
0.0
100
AcDbText
  0
TEXT
  5
176
330
1B
100
AcDbEntity
 67
1
  8
R-TABLICZKA
100
AcDbText
 10
535.7051782875312
 20
60.35
 30
0.0
 40
1.8
  1
DATA
  7
PL_ARIAL
 11
535.7051782875312
 21
60.35
 31
0.0
100
AcDbText
  0
TEXT
  5
177
330
1B
100
AcDbEntity
 67
1
  8
R-TABLICZKA
100
AcDbText
 10
561.556438791733
 20
60.35
 30
0.0
 40
1.8
  1
PODPIS
  7
PL_ARIAL
 11
561.556438791733
 21
60.35
 31
0.0
100
AcDbText
  0
TEXT
  5
178
330
1B
100
AcDbEntity
 67
1
  8
R-TABLICZKA
100
AcDbText
 10
405.2
 20
54.6
 30
0.0
 40
1.8
  1
Projektant
  7
PL_ARIAL
 11
405.2
 21
54.6
 31
0.0
100
AcDbText
  0
TEXT
  5
179
330
1B
100
AcDbEntity
 67
1
  8
R-TABLICZKA
100
AcDbText
 10
405.2
 20
47.6
 30
0.0
 40
1.8
  1
Projektant (wsp.)
  7
PL_ARIAL
 11
405.2
 21
47.6
 31
0.0
100
AcDbText
  0
TEXT
  5
17A
330
1B
100
AcDbEntity
 67
1
  8
R-TABLICZKA
100
AcDbText
 10
405.2
 20
40.6
 30
0.0
 40
1.8
  1
Sprawdzający
  7
PL_ARIAL
 11
405.2
 21
40.6
 31
0.0
100
AcDbText
  0
TEXT
  5
17B
330
1B
100
AcDbEntity
 67
1
  8
R-TABLICZKA
100
AcDbText
 10
405.2
 20
33.6
 30
0.0
 40
1.8
  1
Opracował
  7
PL_ARIAL
 11
405.2
 21
33.6
 31
0.0
100
AcDbText
  0
TEXT
  5
17C
330
1B
100
AcDbEntity
 67
1
  8
R-TABLICZKA
100
AcDbText
 10
405.2
 20
28.0
 30
0.0
 40
1.8
  1
TYTUŁ RYSUNKU
  7
PL_ARIAL
 11
405.2
 21
28.0
 31
0.0
100
AcDbText
  0
TEXT
  5
17D
330
1B
100
AcDbEntity
 67
1
  8
R-TABLICZKA
100
AcDbText
 10
405.2
 20
21.5
 30
0.0
 40
5.0
  1
ELEWACJA PÓŁNOCNA
  7
PL_ARIAL_B
 11
405.2
 21
21.5
 31
0.0
100
AcDbText
  0
TEXT
  5
17E
330
1B
100
AcDbEntity
 67
1
  8
R-TABLICZKA
100
AcDbText
 10
405.2
 20
16.0
 30
0.0
 40
1.8
  1
SKALA
  7
PL_ARIAL
 11
405.2
 21
16.0
 31
0.0
100
AcDbText
  0
TEXT
  5
17F
330
1B
100
AcDbEntity
 67
1
  8
R-TABLICZKA
100
AcDbText
 10
410.9093799682035
 20
11.57
 30
0.0
 40
3.5
  1
1:50
  7
PL_ARIAL_B
 11
410.9093799682035
 21
11.57
 31
0.0
100
AcDbText
  0
TEXT
  5
180
330
1B
100
AcDbEntity
 67
1
  8
R-TABLICZKA
100
AcDbText
 10
429.2
 20
16.0
 30
0.0
 40
1.8
  1
FORMAT
  7
PL_ARIAL
 11
429.2
 21
16.0
 31
0.0
100
AcDbText
  0
TEXT
  5
181
330
1B
100
AcDbEntity
 67
1
  8
R-TABLICZKA
100
AcDbText
 10
433.777651601181
 20
11.95
 30
0.0
 40
2.5
  1
A2
  7
PL_ARIAL
 11
433.777651601181
 21
11.95
 31
0.0
100
AcDbText
  0
TEXT
  5
182
330
1B
100
AcDbEntity
 67
1
  8
R-TABLICZKA
100
AcDbText
 10
445.2
 20
16.0
 30
0.0
 40
1.8
  1
DATA WYDANIA
  7
PL_ARIAL
 11
445.2
 21
16.0
 31
0.0
100
AcDbText
  0
TEXT
  5
183
330
1B
100
AcDbEntity
 67
1
  8
R-TABLICZKA
100
AcDbText
 10
446.706904383375
 20
11.95
 30
0.0
 40
2.5
  1
2026-09-25
  7
PL_ARIAL
 11
446.706904383375
 21
11.95
 31
0.0
100
AcDbText
  0
TEXT
  5
184
330
1B
100
AcDbEntity
 67
1
  8
R-TABLICZKA
100
AcDbText
 10
469.2
 20
16.0
 30
0.0
 40
1.8
  1
RODZAJ DOK.
  7
PL_ARIAL
 11
469.2
 21
16.0
 31
0.0
100
AcDbText
  0
TEXT
  5
185
330
1B
100
AcDbEntity
 67
1
  8
R-TABLICZKA
100
AcDbText
 10
474.93038837156485
 20
11.95
 30
0.0
 40
2.5
  1
elewacja
  7
PL_ARIAL
 11
474.93038837156485
 21
11.95
 31
0.0
100
AcDbText
  0
TEXT
  5
186
330
1B
100
AcDbEntity
 67
1
  8
R-TABLICZKA
100
AcDbText
 10
497.2
 20
16.0
 30
0.0
 40
1.8
  1
NR RYSUNKU
  7
PL_ARIAL
 11
497.2
 21
16.0
 31
0.0
100
AcDbText
  0
TEXT
  5
187
330
1B
100
AcDbEntity
 67
1
  8
R-TABLICZKA
100
AcDbText
 10
512.389507154213
 20
11.57
 30
0.0
 40
3.5
  1
T-AR-07
  7
PL_ARIAL_B
 11
512.389507154213
 21
11.57
 31
0.0
100
AcDbText
  0
TEXT
  5
188
330
1B
100
AcDbEntity
 67
1
  8
R-TABLICZKA
100
AcDbText
 10
549.2
 20
16.0
 30
0.0
 40
1.8
  1
ARKUSZ
  7
PL_ARIAL
 11
549.2
 21
16.0
 31
0.0
100
AcDbText
  0
TEXT
  5
189
330
1B
100
AcDbEntity
 67
1
  8
R-TABLICZKA
100
AcDbText
 10
554.4744492391551
 20
11.95
 30
0.0
 40
2.5
  1
7/9
  7
PL_ARIAL
 11
554.4744492391551
 21
11.95
 31
0.0
100
AcDbText
  0
TEXT
  5
18A
330
1B
100
AcDbEntity
 67
1
  8
R-TABLICZKA
100
AcDbText
 10
567.2
 20
16.0
 30
0.0
 40
1.8
  1
REW.
  7
PL_ARIAL
 11
567.2
 21
16.0
 31
0.0
100
AcDbText
  0
TEXT
  5
18B
330
1B
100
AcDbEntity
 67
1
  8
R-TABLICZKA
100
AcDbText
 10
573.5854531001589
 20
11.57
 30
0.0
 40
3.5
  1
0
  7
PL_ARIAL_B
 11
573.5854531001589
 21
11.57
 31
0.0
100
AcDbText
  0
TEXT
  5
18C
330
1B
100
AcDbEntity
 67
1
  8
R-TABLICZKA
100
AcDbText
 10
405.2
 20
104.25
 30
0.0
 40
2.5
  1
0
  7
PL_ARIAL
 11
405.2
 21
104.25
 31
0.0
100
AcDbText
  0
TEXT
  5
18D
330
1B
100
AcDbEntity
 67
1
  8
R-TABLICZKA
100
AcDbText
 10
423.2
 20
104.25
 30
0.0
 40
2.5
  1
Próba generatorów widoków z modelu testowego
  7
PL_ARIAL
 11
423.2
 21
104.25
 31
0.0
100
AcDbText
  0
TEXT
  5
18E
330
1B
100
AcDbEntity
 67
1
  8
R-TABLICZKA
100
AcDbText
 10
545.2
 20
104.25
 30
0.0
 40
2.5
  1
2026-09-25
  7
PL_ARIAL
 11
545.2
 21
104.25
 31
0.0
100
AcDbText
  0
TEXT
  5
18F
330
1B
100
AcDbEntity
 67
1
  8
R-TABLICZKA
100
AcDbText
 10
405.2
 20
109.6
 30
0.0
 40
1.8
  1
REW.
  7
PL_ARIAL
 11
405.2
 21
109.6
 31
0.0
100
AcDbText
  0
TEXT
  5
190
330
1B
100
AcDbEntity
 67
1
  8
R-TABLICZKA
100
AcDbText
 10
423.2
 20
109.6
 30
0.0
 40
1.8
  1
OPIS ZMIANY
  7
PL_ARIAL
 11
423.2
 21
109.6
 31
0.0
100
AcDbText
  0
TEXT
  5
191
330
1B
100
AcDbEntity
 67
1
  8
R-TABLICZKA
100
AcDbText
 10
545.2
 20
109.6
 30
0.0
 40
1.8
  1
DATA
  7
PL_ARIAL
 11
545.2
 21
109.6
 31
0.0
100
AcDbText
  0
VIEWPORT
  5
2FE
330
1B
100
AcDbEntity
 67
1
  8
R-RZUTNIA
100
AcDbViewport
 10
211.0
 20
217.0
 30
0.0
 40
362.9893072904838
 41
176.27813137254907
 68
2
 69
3
 12
0.18123268226209355
 22
2.8440467156862743
 13
0.0
 23
0.0
 14
10.0
 24
10.0
 15
10.0
 25
10.0
 16
0.0
 26
0.0
 36
1.0
 17
0.0
 27
0.0
 37
0.0
 42
50.0
 43
0.0
 44
0.0
 45
8.813906568627454
 50
0.0
 51
0.0
 72
100
 90
16384
  1

281
0
 71
0
 74
0
110
0.0
120
0.0
130
0.0
111
1.0
121
0.0
131
0.0
112
0.0
122
1.0
132
0.0
 79
0
146
0.0
282
0
  0
ENDSEC
  0
SECTION
  2
OBJECTS
  0
DICTIONARY
  5
A
330
0
100
AcDbDictionary
281
1
  3
ACAD_COLOR
350
B
  3
ACAD_GROUP
350
C
  3
ACAD_LAYOUT
350
D
  3
ACAD_MATERIAL
350
E
  3
ACAD_MLEADERSTYLE
350
F
  3
ACAD_MLINESTYLE
350
10
  3
ACAD_PLOTSETTINGS
350
11
  3
ACAD_PLOTSTYLENAME
350
12
  3
ACAD_SCALELIST
350
14
  3
ACAD_TABLESTYLE
350
15
  3
ACAD_VISUALSTYLE
350
16
  3
EZDXF_META
350
2D
  0
DICTIONARY
  5
B
330
A
100
AcDbDictionary
281
1
  0
DICTIONARY
  5
C
330
A
100
AcDbDictionary
281
1
  0
DICTIONARY
  5
D
330
A
100
AcDbDictionary
281
1
  3
Model
350
1A
  3
Arkusz T-AR-07
350
1E
  0
DICTIONARY
  5
E
330
A
100
AcDbDictionary
281
1
  3
ByBlock
350
1F
  3
ByLayer
350
20
  3
Global
350
21
  0
DICTIONARY
  5
F
330
A
100
AcDbDictionary
281
1
  3
Standard
350
2C
  0
DICTIONARY
  5
10
330
A
100
AcDbDictionary
281
1
  3
Standard
350
22
  0
DICTIONARY
  5
11
330
A
100
AcDbDictionary
281
1
  0
ACDBDICTIONARYWDFLT
  5
12
330
A
100
AcDbDictionary
281
1
  3
Normal
350
13
100
AcDbDictionaryWithDefault
340
13
  0
ACDBPLACEHOLDER
  5
13
330
12
  0
DICTIONARY
  5
14
330
A
100
AcDbDictionary
281
1
  0
DICTIONARY
  5
15
330
A
100
AcDbDictionary
281
1
  0
DICTIONARY
  5
16
330
A
100
AcDbDictionary
281
1
  0
LAYOUT
  5
1A
330
D
100
AcDbPlotSettings
  1

  4
A3
  6

 40
7.5
 41
20.0
 42
7.5
 43
20.0
 44
420.0
 45
297.0
 46
0.0
 47
0.0
 48
0.0
 49
0.0
140
0.0
141
0.0
142
1.0
143
1.0
 70
1024
 72
1
 73
0
 74
5
  7

 75
16
 76
0
 77
2
 78
300
147
1.0
148
0.0
149
0.0
100
AcDbLayout
  1
Model
 70
1
 71
0
 10
0.0
 20
0.0
 11
420.0
 21
297.0
 12
0.0
 22
0.0
 32
0.0
 14
1e+20
 24
1e+20
 34
1e+20
 15
-1e+20
 25
-1e+20
 35
-1e+20
146
0.0
 13
0.0
 23
0.0
 33
0.0
 16
1.0
 26
0.0
 36
0.0
 17
0.0
 27
1.0
 37
0.0
 76
1
330
17
  0
LAYOUT
  5
1E
330
D
100
AcDbPlotSettings
  1

  2
DWG to PDF.pc3
  4
LAMELA_(594.00_x_420.00_MM)
  6

 40
0.0
 41
0.0
 42
0.0
 43
0.0
 44
594.0
 45
420.0
 46
0.0
 47
0.0
 48
0.0
 49
0.0
140
0.0
141
0.0
142
1.0
143
1.0
 70
672
 72
1
 73
0
 74
5
  7

 75
16
 76
0
 77
2
 78
300
147
1.0
148
0.0
149
0.0
100
AcDbLayout
  1
Arkusz T-AR-07
 70
1
 71
1
 10
-0.0
 20
-0.0
 11
594.0
 21
420.0
 12
0.0
 22
0.0
 32
0.0
 14
1e+20
 24
1e+20
 34
1e+20
 15
-1e+20
 25
-1e+20
 35
-1e+20
146
0.0
 13
0.0
 23
0.0
 33
0.0
 16
1.0
 26
0.0
 36
0.0
 17
0.0
 27
1.0
 37
0.0
 76
1
330
1B
331
7F
  0
MATERIAL
  5
1F
102
{ACAD_REACTORS
330
E
102
}
330
E
100
AcDbMaterial
  1
ByBlock
  2

 70
0
 40
1.0
 71
1
 41
1.0
 91
-1023410177
 42
1.0
 72
1
  3

 73
1
 74
1
 75
1
 44
0.5
 73
0
 45
1.0
 46
1.0
 77
1
  4

 78
1
 79
1
170
1
 48
1.0
171
1
  6

172
1
173
1
174
1
140
1.0
141
1.0
175
1
  7

176
1
177
1
178
1
143
1.0
179
1
  8

270
1
271
1
272
1
145
1.0
146
1.0
273
1
  9

274
1
275
1
276
1
 42
1.0
 72
1
  3

 73
1
 74
1
 75
1
 94
63
  0
MATERIAL
  5
20
102
{ACAD_REACTORS
330
E
102
}
330
E
100
AcDbMaterial
  1
ByLayer
  2

 70
0
 40
1.0
 71
1
 41
1.0
 91
-1023410177
 42
1.0
 72
1
  3

 73
1
 74
1
 75
1
 44
0.5
 73
0
 45
1.0
 46
1.0
 77
1
  4

 78
1
 79
1
170
1
 48
1.0
171
1
  6

172
1
173
1
174
1
140
1.0
141
1.0
175
1
  7

176
1
177
1
178
1
143
1.0
179
1
  8

270
1
271
1
272
1
145
1.0
146
1.0
273
1
  9

274
1
275
1
276
1
 42
1.0
 72
1
  3

 73
1
 74
1
 75
1
 94
63
  0
MATERIAL
  5
21
102
{ACAD_REACTORS
330
E
102
}
330
E
100
AcDbMaterial
  1
Global
  2

 70
0
 40
1.0
 71
1
 41
1.0
 91
-1023410177
 42
1.0
 72
1
  3

 73
1
 74
1
 75
1
 44
0.5
 73
0
 45
1.0
 46
1.0
 77
1
  4

 78
1
 79
1
170
1
 48
1.0
171
1
  6

172
1
173
1
174
1
140
1.0
141
1.0
175
1
  7

176
1
177
1
178
1
143
1.0
179
1
  8

270
1
271
1
272
1
145
1.0
146
1.0
273
1
  9

274
1
275
1
276
1
 42
1.0
 72
1
  3

 73
1
 74
1
 75
1
 94
63
  0
MLINESTYLE
  5
22
102
{ACAD_REACTORS
330
10
102
}
330
10
100
AcDbMlineStyle
  2
Standard
 70
0
  3

 62
256
 51
90.0
 52
90.0
 71
2
 49
0.5
 62
256
  6
BYLAYER
 49
-0.5
 62
256
  6
BYLAYER
  0
MLEADERSTYLE
  5
2C
102
{ACAD_REACTORS
330
F
102
}
330
F
100
AcDbMLeaderStyle
179
2
170
2
171
1
172
0
 90
2
 40
0.0
 41
0.0
173
1
 91
-1056964608
 92
-2
290
1
 42
2.0
291
1
 43
8.0
  3
Standard
 44
4.0
300

342
29
174
1
175
1
176
0
178
1
 93
-1056964608
 45
4.0
292
0
297
0
 46
4.0
 94
-1056964608
 47
1.0
 49
1.0
140
1.0
294
1
141
0.0
177
0
142
1.0
295
0
296
0
143
3.75
271
0
272
9
273
9
  0
DICTIONARY
  5
2D
330
A
100
AcDbDictionary
280
1
281
1
  3
CREATED_BY_EZDXF
350
2E
  3
WRITTEN_BY_EZDXF
350
301
  0
DICTIONARYVAR
  5
2E
330
2D
100
DictionaryVariables
280
0
  1
1.4.4 @ 2026-09-25T01:49:39.916212+00:00
  0
DICTIONARYVAR
  5
301
330
2D
100
DictionaryVariables
280
0
  1
1.4.4 @ 2026-09-25T01:49:39.965187+00:00
  0
ENDSEC
  0
EOF
