  0
SECTION
  2
HEADER
  9
$ACADVER
  1
AC1032
  9
$ACADMAINTVER
 90
4
  9
$DWGCODEPAGE
  3
ANSI_1252
  9
$LASTSAVEDBY
  1
ezdxf
  9
$REQUIREDVERSIONS
160
0
  9
$INSBASE
 10
0.0
 20
0.0
 30
0.0
  9
$EXTMIN
 10
1e+20
 20
1e+20
 30
1e+20
  9
$EXTMAX
 10
-1e+20
 20
-1e+20
 30
-1e+20
  9
$LIMMIN
 10
0.0
 20
0.0
  9
$LIMMAX
 10
420.0
 20
297.0
  9
$ORTHOMODE
 70
0
  9
$REGENMODE
 70
1
  9
$FILLMODE
 70
1
  9
$QTEXTMODE
 70
0
  9
$MIRRTEXT
 70
1
  9
$LTSCALE
 40
1.0
  9
$ATTMODE
 70
1
  9
$TEXTSIZE
 40
2.5
  9
$TRACEWID
 40
1.0
  9
$TEXTSTYLE
  7
Standard
  9
$CLAYER
  8
0
  9
$CELTYPE
  6
ByLayer
  9
$CECOLOR
 62
256
  9
$CELTSCALE
 40
1.0
  9
$DISPSILH
 70
0
  9
$DIMSCALE
 40
1.0
  9
$DIMASZ
 40
2.5
  9
$DIMEXO
 40
0.625
  9
$DIMDLI
 40
3.75
  9
$DIMRND
 40
0.0
  9
$DIMDLE
 40
0.0
  9
$DIMEXE
 40
1.25
  9
$DIMTP
 40
0.0
  9
$DIMTM
 40
0.0
  9
$DIMTXT
 40
2.5
  9
$DIMCEN
 40
2.5
  9
$DIMTSZ
 40
0.0
  9
$DIMTOL
 70
0
  9
$DIMLIM
 70
0
  9
$DIMTIH
 70
0
  9
$DIMTOH
 70
0
  9
$DIMSE1
 70
0
  9
$DIMSE2
 70
0
  9
$DIMTAD
 70
1
  9
$DIMZIN
 70
8
  9
$DIMBLK
  1

  9
$DIMASO
 70
1
  9
$DIMSHO
 70
1
  9
$DIMPOST
  1

  9
$DIMAPOST
  1

  9
$DIMALT
 70
0
  9
$DIMALTD
 70
3
  9
$DIMALTF
 40
0.03937007874
  9
$DIMLFAC
 40
1.0
  9
$DIMTOFL
 70
1
  9
$DIMTVP
 40
0.0
  9
$DIMTIX
 70
0
  9
$DIMSOXD
 70
0
  9
$DIMSAH
 70
0
  9
$DIMBLK1
  1

  9
$DIMBLK2
  1

  9
$DIMSTYLE
  2
ISO-25
  9
$DIMCLRD
 70
0
  9
$DIMCLRE
 70
0
  9
$DIMCLRT
 70
0
  9
$DIMTFAC
 40
1.0
  9
$DIMGAP
 40
0.625
  9
$DIMJUST
 70
0
  9
$DIMSD1
 70
0
  9
$DIMSD2
 70
0
  9
$DIMTOLJ
 70
0
  9
$DIMTZIN
 70
8
  9
$DIMALTZ
 70
0
  9
$DIMALTTZ
 70
0
  9
$DIMUPT
 70
0
  9
$DIMDEC
 70
2
  9
$DIMTDEC
 70
2
  9
$DIMALTU
 70
2
  9
$DIMALTTD
 70
3
  9
$DIMTXSTY
  7
Standard
  9
$DIMAUNIT
 70
0
  9
$DIMADEC
 70
0
  9
$DIMALTRND
 40
0.0
  9
$DIMAZIN
 70
0
  9
$DIMDSEP
 70
44
  9
$DIMATFIT
 70
3
  9
$DIMFRAC
 70
0
  9
$DIMLDRBLK
  1

  9
$DIMLUNIT
 70
2
  9
$DIMLWD
 70
-2
  9
$DIMLWE
 70
-2
  9
$DIMTMOVE
 70
0
  9
$DIMFXL
 40
1.0
  9
$DIMFXLON
 70
0
  9
$DIMJOGANG
 40
0.785398163397
  9
$DIMTFILL
 70
0
  9
$DIMTFILLCLR
 70
0
  9
$DIMARCSYM
 70
0
  9
$DIMLTYPE
  6

  9
$DIMLTEX1
  6

  9
$DIMLTEX2
  6

  9
$DIMTXTDIRECTION
 70
0
  9
$LUNITS
 70
2
  9
$LUPREC
 70
4
  9
$SKETCHINC
 40
1.0
  9
$FILLETRAD
 40
10.0
  9
$AUNITS
 70
0
  9
$AUPREC
 70
2
  9
$MENU
  1
.
  9
$ELEVATION
 40
0.0
  9
$PELEVATION
 40
0.0
  9
$THICKNESS
 40
0.0
  9
$LIMCHECK
 70
0
  9
$CHAMFERA
 40
0.0
  9
$CHAMFERB
 40
0.0
  9
$CHAMFERC
 40
0.0
  9
$CHAMFERD
 40
0.0
  9
$SKPOLY
 70
0
  9
$TDCREATE
 40
2461309.076215278
  9
$TDUCREATE
 40
2458532.153996898
  9
$TDUPDATE
 40
2461309.076215278
  9
$TDUUPDATE
 40
2458532.1544311
  9
$TDINDWG
 40
0.0
  9
$TDUSRTIMER
 40
0.0
  9
$USRTIMER
 70
1
  9
$ANGBASE
 50
0.0
  9
$ANGDIR
 70
0
  9
$PDMODE
 70
0
  9
$PDSIZE
 40
0.0
  9
$PLINEWID
 40
0.0
  9
$SPLFRAME
 70
0
  9
$SPLINETYPE
 70
6
  9
$SPLINESEGS
 70
8
  9
$HANDSEED
  5
2AA
  9
$SURFTAB1
 70
6
  9
$SURFTAB2
 70
6
  9
$SURFTYPE
 70
6
  9
$SURFU
 70
6
  9
$SURFV
 70
6
  9
$UCSBASE
  2

  9
$UCSNAME
  2

  9
$UCSORG
 10
0.0
 20
0.0
 30
0.0
  9
$UCSXDIR
 10
1.0
 20
0.0
 30
0.0
  9
$UCSYDIR
 10
0.0
 20
1.0
 30
0.0
  9
$UCSORTHOREF
  2

  9
$UCSORTHOVIEW
 70
0
  9
$UCSORGTOP
 10
0.0
 20
0.0
 30
0.0
  9
$UCSORGBOTTOM
 10
0.0
 20
0.0
 30
0.0
  9
$UCSORGLEFT
 10
0.0
 20
0.0
 30
0.0
  9
$UCSORGRIGHT
 10
0.0
 20
0.0
 30
0.0
  9
$UCSORGFRONT
 10
0.0
 20
0.0
 30
0.0
  9
$UCSORGBACK
 10
0.0
 20
0.0
 30
0.0
  9
$PUCSBASE
  2

  9
$PUCSNAME
  2

  9
$PUCSORG
 10
0.0
 20
0.0
 30
0.0
  9
$PUCSXDIR
 10
1.0
 20
0.0
 30
0.0
  9
$PUCSYDIR
 10
0.0
 20
1.0
 30
0.0
  9
$PUCSORTHOREF
  2

  9
$PUCSORTHOVIEW
 70
0
  9
$PUCSORGTOP
 10
0.0
 20
0.0
 30
0.0
  9
$PUCSORGBOTTOM
 10
0.0
 20
0.0
 30
0.0
  9
$PUCSORGLEFT
 10
0.0
 20
0.0
 30
0.0
  9
$PUCSORGRIGHT
 10
0.0
 20
0.0
 30
0.0
  9
$PUCSORGFRONT
 10
0.0
 20
0.0
 30
0.0
  9
$PUCSORGBACK
 10
0.0
 20
0.0
 30
0.0
  9
$USERI1
 70
0
  9
$USERI2
 70
0
  9
$USERI3
 70
0
  9
$USERI4
 70
0
  9
$USERI5
 70
0
  9
$USERR1
 40
0.0
  9
$USERR2
 40
0.0
  9
$USERR3
 40
0.0
  9
$USERR4
 40
0.0
  9
$USERR5
 40
0.0
  9
$WORLDVIEW
 70
1
  9
$SHADEDGE
 70
3
  9
$SHADEDIF
 70
70
  9
$TILEMODE
 70
1
  9
$MAXACTVP
 70
64
  9
$PINSBASE
 10
0.0
 20
0.0
 30
0.0
  9
$PLIMCHECK
 70
0
  9
$PEXTMIN
 10
1e+20
 20
1e+20
 30
1e+20
  9
$PEXTMAX
 10
-1e+20
 20
-1e+20
 30
-1e+20
  9
$PLIMMIN
 10
-0.0
 20
-0.0
  9
$PLIMMAX
 10
594.0
 20
420.0
  9
$UNITMODE
 70
0
  9
$VISRETAIN
 70
1
  9
$PLINEGEN
 70
0
  9
$PSLTSCALE
 70
0
  9
$TREEDEPTH
 70
3020
  9
$CMLSTYLE
  2
Standard
  9
$CMLJUST
 70
0
  9
$CMLSCALE
 40
20.0
  9
$PROXYGRAPHICS
 70
1
  9
$MEASUREMENT
 70
1
  9
$CELWEIGHT
370
-1
  9
$ENDCAPS
280
0
  9
$JOINSTYLE
280
0
  9
$LWDISPLAY
290
1
  9
$INSUNITS
 70
6
  9
$HYPERLINKBASE
  1

  9
$STYLESHEET
  1

  9
$XEDIT
290
1
  9
$CEPSNTYPE
380
0
  9
$PSTYLEMODE
290
1
  9
$FINGERPRINTGUID
  2
{A38AAAF1-6E27-49BA-9DB4-2AD9677C3D9E}
  9
$VERSIONGUID
  2
{03FDDB72-6F59-426D-8DDC-B6BDF1644A63}
  9
$EXTNAMES
290
1
  9
$PSVPSCALE
 40
0.0
  9
$OLESTARTUP
290
0
  9
$SORTENTS
280
127
  9
$INDEXCTL
280
0
  9
$HIDETEXT
280
1
  9
$XCLIPFRAME
280
1
  9
$HALOGAP
280
0
  9
$OBSCOLOR
 70
257
  9
$OBSLTYPE
280
0
  9
$INTERSECTIONDISPLAY
280
0
  9
$INTERSECTIONCOLOR
 70
257
  9
$DIMASSOC
280
2
  9
$PROJECTNAME
  1

  9
$CAMERADISPLAY
290
0
  9
$LENSLENGTH
 40
50.0
  9
$CAMERAHEIGHT
 40
0.0
  9
$STEPSPERSEC
 40
24.0
  9
$STEPSIZE
 40
100.0
  9
$3DDWFPREC
 40
2.0
  9
$PSOLWIDTH
 40
0.005
  9
$PSOLHEIGHT
 40
0.08
  9
$LOFTANG1
 40
1.570796326795
  9
$LOFTANG2
 40
1.570796326795
  9
$LOFTMAG1
 40
0.0
  9
$LOFTMAG2
 40
0.0
  9
$LOFTPARAM
 70
7
  9
$LOFTNORMALS
280
1
  9
$LATITUDE
 40
37.795
  9
$LONGITUDE
 40
-122.394
  9
$NORTHDIRECTION
 40
0.0
  9
$TIMEZONE
 70
-8000
  9
$LIGHTGLYPHDISPLAY
280
1
  9
$TILEMODELIGHTSYNCH
280
1
  9
$CMATERIAL
347
20
  9
$SOLIDHIST
280
0
  9
$SHOWHIST
280
1
  9
$DWFFRAME
280
2
  9
$DGNFRAME
280
2
  9
$REALWORLDSCALE
290
1
  9
$INTERFERECOLOR
 62
256
  9
$CSHADOW
280
0
  9
$SHADOWPLANELOCATION
 40
0.0
  0
ENDSEC
  0
SECTION
  2
CLASSES
  0
CLASS
  1
ACDBDICTIONARYWDFLT
  2
AcDbDictionaryWithDefault
  3
ObjectDBX Classes
 90
0
 91
0
280
0
281
0
  0
CLASS
  1
SUN
  2
AcDbSun
  3
SCENEOE
 90
1153
 91
0
280
0
281
0
  0
CLASS
  1
VISUALSTYLE
  2
AcDbVisualStyle
  3
ObjectDBX Classes
 90
4095
 91
0
280
0
281
0
  0
CLASS
  1
MATERIAL
  2
AcDbMaterial
  3
ObjectDBX Classes
 90
1153
 91
0
280
0
281
0
  0
CLASS
  1
SCALE
  2
AcDbScale
  3
ObjectDBX Classes
 90
1153
 91
0
280
0
281
0
  0
CLASS
  1
TABLESTYLE
  2
AcDbTableStyle
  3
ObjectDBX Classes
 90
4095
 91
0
280
0
281
0
  0
CLASS
  1
MLEADERSTYLE
  2
AcDbMLeaderStyle
  3
ACDB_MLEADERSTYLE_CLASS
 90
4095
 91
0
280
0
281
0
  0
CLASS
  1
DICTIONARYVAR
  2
AcDbDictionaryVar
  3
ObjectDBX Classes
 90
0
 91
0
280
0
281
0
  0
CLASS
  1
CELLSTYLEMAP
  2
AcDbCellStyleMap
  3
ObjectDBX Classes
 90
1152
 91
0
280
0
281
0
  0
CLASS
  1
MENTALRAYRENDERSETTINGS
  2
AcDbMentalRayRenderSettings
  3
SCENEOE
 90
1024
 91
0
280
0
281
0
  0
CLASS
  1
ACDBDETAILVIEWSTYLE
  2
AcDbDetailViewStyle
  3
ObjectDBX Classes
 90
1025
 91
0
280
0
281
0
  0
CLASS
  1
ACDBSECTIONVIEWSTYLE
  2
AcDbSectionViewStyle
  3
ObjectDBX Classes
 90
1025
 91
0
280
0
281
0
  0
CLASS
  1
RASTERVARIABLES
  2
AcDbRasterVariables
  3
ISM
 90
0
 91
0
280
0
281
0
  0
CLASS
  1
ACDBPLACEHOLDER
  2
AcDbPlaceHolder
  3
ObjectDBX Classes
 90
0
 91
0
280
0
281
0
  0
CLASS
  1
LAYOUT
  2
AcDbLayout
  3
ObjectDBX Classes
 90
0
 91
0
280
0
281
0
  0
ENDSEC
  0
SECTION
  2
TABLES
  0
TABLE
  2
VPORT
  5
8
330
0
100
AcDbSymbolTable
 70
1
  0
VPORT
  5
23
330
8
100
AcDbSymbolTableRecord
100
AcDbViewportTableRecord
  2
*Active
 70
0
 10
0.0
 20
0.0
 11
1.0
 21
1.0
 12
0.0
 22
0.0
 13
0.0
 23
0.0
 14
0.5
 24
0.5
 15
0.5
 25
0.5
 16
0.0
 26
0.0
 36
1.0
 17
0.0
 27
0.0
 37
0.0
 40
1000.0
 41
1.34
 42
50.0
 43
0.0
 44
0.0
 50
0.0
 51
0.0
 71
0
 72
1000
 73
1
 74
3
 75
0
 76
0
 77
0
 78
0
281
0
 65
0
146
0.0
  0
ENDTAB
  0
TABLE
  2
LTYPE
  5
2
330
0
100
AcDbSymbolTable
 70
14
  0
LTYPE
  5
24
330
2
100
AcDbSymbolTableRecord
100
AcDbLinetypeTableRecord
  2
ByBlock
 70
0
  3

 72
65
 73
0
 40
0.0
  0
LTYPE
  5
25
330
2
100
AcDbSymbolTableRecord
100
AcDbLinetypeTableRecord
  2
ByLayer
 70
0
  3

 72
65
 73
0
 40
0.0
  0
LTYPE
  5
26
330
2
100
AcDbSymbolTableRecord
100
AcDbLinetypeTableRecord
  2
Continuous
 70
0
  3

 72
65
 73
0
 40
0.0
  0
LTYPE
  5
2F
330
2
100
AcDbSymbolTableRecord
100
AcDbLinetypeTableRecord
  2
KRESKOWA
 70
0
  3
Linia kreskowa (02): krawędzie niewidoczne, elementy pod/nad płaszczyzną cięcia
 72
65
 73
2
 40
5.249999999999999
 49
4.199999999999999
 74
0
 49
-1.0499999999999998
 74
0
  0
LTYPE
  5
30
330
2
100
AcDbSymbolTableRecord
100
AcDbLinetypeTableRecord
  2
KRESKOWA_DROBNA
 70
0
  3
Linia kreskowa drobna (kreska krótka 6d)
 72
65
 73
2
 40
3.1499999999999995
 49
2.0999999999999996
 74
0
 49
-1.0499999999999998
 74
0
  0
LTYPE
  5
31
330
2
100
AcDbSymbolTableRecord
100
AcDbLinetypeTableRecord
  2
PUNKTOWA
 70
0
  3
Linia punktowa (04): osie, płaszczyzny przekroju
 72
65
 73
4
 40
10.5
 49
8.399999999999999
 74
0
 49
-1.0499999999999998
 74
0
 49
0.0
 74
0
 49
-1.0499999999999998
 74
0
  0
LTYPE
  5
32
330
2
100
AcDbSymbolTableRecord
100
AcDbLinetypeTableRecord
  2
PUNKTOWA_KROTKA
 70
0
  3
Linia punktowa z kreską zwykłą (końce przekrojów, gaz)
 72
65
 73
4
 40
6.299999999999999
 49
4.199999999999999
 74
0
 49
-1.0499999999999998
 74
0
 49
0.0
 74
0
 49
-1.0499999999999998
 74
0
  0
LTYPE
  5
33
330
2
100
AcDbSymbolTableRecord
100
AcDbLinetypeTableRecord
  2
DWUPUNKTOWA
 70
0
  3
Linia dwupunktowa (05): położenia skrajne, części przyległe
 72
65
 73
6
 40
11.55
 49
8.399999999999999
 74
0
 49
-1.0499999999999998
 74
0
 49
0.0
 74
0
 49
-1.0499999999999998
 74
0
 49
0.0
 74
0
 49
-1.0499999999999998
 74
0
  0
LTYPE
  5
34
330
2
100
AcDbSymbolTableRecord
100
AcDbLinetypeTableRecord
  2
KROPKOWA
 70
0
  3
Linia kropkowa (07): elementy nieobjęte projektem
 72
65
 73
2
 40
1.0499999999999998
 49
0.0
 74
0
 49
-1.0499999999999998
 74
0
  0
LTYPE
  5
35
330
2
100
AcDbSymbolTableRecord
100
AcDbLinetypeTableRecord
  2
KRESKA_DLUGA
 70
0
  3
Linia kreskowa długa (instalacje)
 72
65
 73
2
 40
9.45
 49
8.399999999999999
 74
0
 49
-1.0499999999999998
 74
0
  0
LTYPE
  5
36
330
2
100
AcDbSymbolTableRecord
100
AcDbLinetypeTableRecord
  2
KRESKOWA_3_1
 70
0
  3
Linia kreskowa 3/1 mm (paroizolacja, R4 pkt 3.8)
 72
65
 73
2
 40
4.0
 49
3.0
 74
0
 49
-1.0
 74
0
  0
LTYPE
  5
37
330
2
100
AcDbSymbolTableRecord
100
AcDbLinetypeTableRecord
  2
HYDRO_OKNA
 70
0
  3
Białe okna pasa izolacji przeciwwodnej (czarny 3 / biały 1,5 mm)
 72
65
 73
2
 40
4.5
 49
1.5
 74
0
 49
-3.0
 74
0
  0
LTYPE
  5
38
330
2
100
AcDbSymbolTableRecord
100
AcDbLinetypeTableRecord
  2
WIELOPUNKTOWA
 70
0
  3
Linia wielopunktowa (telekomunikacja, PN-B-01027)
 72
65
 73
8
 40
13.399999999999999
 49
9.0
 74
0
 49
-1.2
 74
0
 49
0.0
 74
0
 49
-1.0
 74
0
 49
0.0
 74
0
 49
-1.0
 74
0
 49
0.0
 74
0
 49
-1.2
 74
0
  0
LTYPE
  5
39
330
2
100
AcDbSymbolTableRecord
100
AcDbLinetypeTableRecord
  2
KABEL_E
 70
0
  3
Kabel elektroenergetyczny (PN-B-01027: kreskowa 2·9·2)
 72
65
 73
2
 40
11.0
 49
9.0
 74
0
 49
-2.0
 74
0
  0
ENDTAB
  0
TABLE
  2
LAYER
  5
1
330
0
100
AcDbSymbolTable
 70
66
  0
LAYER
  5
27
330
1
100
AcDbSymbolTableRecord
100
AcDbLayerTableRecord
  2
0
 70
0
 62
7
  6
Continuous
370
-3
390
13
347
21
  0
LAYER
  5
28
330
1
100
AcDbSymbolTableRecord
100
AcDbLayerTableRecord
  2
Defpoints
 70
0
 62
7
  6
Continuous
290
0
370
-3
390
13
347
21
  0
LAYER
  5
3E
330
1
100
AcDbSymbolTableRecord
100
AcDbLayerTableRecord
  2
R-RAMKA
 70
0
 62
7
  6
Continuous
370
50
390
13
347
21
1001
AcAecLayerStandard
1000

1000
Ramka arkusza, znaki składania i centrowania
  0
LAYER
  5
40
330
1
100
AcDbSymbolTableRecord
100
AcDbLayerTableRecord
  2
R-TABLICZKA
 70
0
 62
7
  6
Continuous
370
25
390
13
347
21
1001
AcAecLayerStandard
1000

1000
Tabliczka rysunkowa (PN-EN ISO 7200)
  0
LAYER
  5
41
330
1
100
AcDbSymbolTableRecord
100
AcDbLayerTableRecord
  2
R-OPISY
 70
0
 62
7
  6
Continuous
370
25
390
13
347
21
1001
AcAecLayerStandard
1000

1000
Opisy arkusza: tytuły rzutni, uwagi, legendy
  0
LAYER
  5
42
330
1
100
AcDbSymbolTableRecord
100
AcDbLayerTableRecord
  2
R-LEGENDA
 70
0
 62
7
  6
Continuous
370
25
390
13
347
21
1001
AcAecLayerStandard
1000

1000
Legenda oznaczeń
  0
LAYER
  5
43
330
1
100
AcDbSymbolTableRecord
100
AcDbLayerTableRecord
  2
R-RZUTNIA
 70
0
 62
8
  6
Continuous
290
0
370
18
390
13
347
21
1001
AcAecLayerStandard
1000

1000
Obrys rzutni (nie drukowany)
  0
LAYER
  5
44
330
1
100
AcDbSymbolTableRecord
100
AcDbLayerTableRecord
  2
A-SCIANY-KONSTR
 70
0
 62
7
  6
Continuous
370
50
390
13
347
21
1001
AcAecLayerStandard
1000

1000
Ściany i słupy konstrukcyjne w przekroju — kontur
  0
LAYER
  5
45
330
1
100
AcDbSymbolTableRecord
100
AcDbLayerTableRecord
  2
A-SCIANY-DZIAL
 70
0
 62
7
  6
Continuous
370
35
390
13
347
21
1001
AcAecLayerStandard
1000

1000
Ścianki działowe w przekroju — kontur
  0
LAYER
  5
46
330
1
100
AcDbSymbolTableRecord
100
AcDbLayerTableRecord
  2
A-SCIANY-IZOL
 70
0
 62
4
  6
Continuous
370
35
390
13
347
21
1001
AcAecLayerStandard
1000

1000
Warstwy izolacji termicznej ścian — kontur
  0
LAYER
  5
47
330
1
100
AcDbSymbolTableRecord
100
AcDbLayerTableRecord
  2
A-SCIANY-WYK
 70
0
 62
8
  6
Continuous
370
18
390
13
347
21
1001
AcAecLayerStandard
1000

1000
Tynki, okładziny, warstwy wykończeniowe — kontur
  0
LAYER
  5
48
330
1
100
AcDbSymbolTableRecord
100
AcDbLayerTableRecord
  2
A-STROPY
 70
0
 62
7
  6
Continuous
370
50
390
13
347
21
1001
AcAecLayerStandard
1000

1000
Stropy, płyty, stropodachy w przekroju — kontur
  0
LAYER
  5
49
330
1
100
AcDbSymbolTableRecord
100
AcDbLayerTableRecord
  2
A-WARSTWY
 70
0
 62
8
  6
Continuous
370
25
390
13
347
21
1001
AcAecLayerStandard
1000

1000
Warstwy przegród poziomych (podłogi, dachy) — kontur
  0
LAYER
  5
4A
330
1
100
AcDbSymbolTableRecord
100
AcDbLayerTableRecord
  2
A-IZOL-WODNA
 70
0
 62
5
  6
Continuous
370
100
390
13
347
21
1001
AcAecLayerStandard
1000

1000
Izolacje przeciwwodne/przeciwwilgociowe/paroizolacje
  0
LAYER
  5
4B
330
1
100
AcDbSymbolTableRecord
100
AcDbLayerTableRecord
  2
A-FUNDAMENTY
 70
0
 62
7
  6
Continuous
370
50
390
13
347
21
1001
AcAecLayerStandard
1000

1000
Fundamenty w przekroju — kontur
  0
LAYER
  5
4C
330
1
100
AcDbSymbolTableRecord
100
AcDbLayerTableRecord
  2
A-KRESKOWANIE
 70
0
 62
8
  6
Continuous
370
18
390
13
347
21
1001
AcAecLayerStandard
1000

1000
Kreskowanie materiałów (PN-B-01030)
  0
LAYER
  5
4D
330
1
100
AcDbSymbolTableRecord
100
AcDbLayerTableRecord
  2
A-WYPELNIENIA
 70
0
 62
9
  6
Continuous
370
18
390
13
347
21
1001
AcAecLayerStandard
1000

1000
Wypełnienia (zaczernienia, tła)
  0
LAYER
  5
4E
330
1
100
AcDbSymbolTableRecord
100
AcDbLayerTableRecord
  2
A-WIDOK
 70
0
 62
7
  6
Continuous
370
25
390
13
347
21
1001
AcAecLayerStandard
1000

1000
Krawędzie widoczne (poza płaszczyzną cięcia)
  0
LAYER
  5
4F
330
1
100
AcDbSymbolTableRecord
100
AcDbLayerTableRecord
  2
A-NIEWIDOCZNE
 70
0
 62
8
  6
KRESKOWA
370
25
390
13
347
21
1001
AcAecLayerStandard
1000

1000
Krawędzie niewidoczne
  0
LAYER
  5
50
330
1
100
AcDbSymbolTableRecord
100
AcDbLayerTableRecord
  2
A-NAD-CIECIEM
 70
0
 62
8
  6
KRESKOWA
370
25
390
13
347
21
1001
AcAecLayerStandard
1000

1000
Elementy nad płaszczyzną cięcia (belki, nadproża, okapy)
  0
LAYER
  5
51
330
1
100
AcDbSymbolTableRecord
100
AcDbLayerTableRecord
  2
A-OKNA
 70
0
 62
3
  6
Continuous
370
35
390
13
347
21
1001
AcAecLayerStandard
1000

1000
Stolarka okienna
  0
LAYER
  5
52
330
1
100
AcDbSymbolTableRecord
100
AcDbLayerTableRecord
  2
A-DRZWI
 70
0
 62
3
  6
Continuous
370
35
390
13
347
21
1001
AcAecLayerStandard
1000

1000
Stolarka drzwiowa
  0
LAYER
  5
53
330
1
100
AcDbSymbolTableRecord
100
AcDbLayerTableRecord
  2
A-SCHODY
 70
0
 62
6
  6
Continuous
370
25
390
13
347
21
1001
AcAecLayerStandard
1000

1000
Schody, pochylnie, balustrady
  0
LAYER
  5
54
330
1
100
AcDbSymbolTableRecord
100
AcDbLayerTableRecord
  2
A-MEBLE
 70
0
 62
8
  6
Continuous
370
18
390
13
347
21
1001
AcAecLayerStandard
1000

1000
Meble i wyposażenie ruchome
  0
LAYER
  5
55
330
1
100
AcDbSymbolTableRecord
100
AcDbLayerTableRecord
  2
A-SANITARNE
 70
0
 62
6
  6
Continuous
370
25
390
13
347
21
1001
AcAecLayerStandard
1000

1000
Wyposażenie sanitarne i kuchenne
  0
LAYER
  5
56
330
1
100
AcDbSymbolTableRecord
100
AcDbLayerTableRecord
  2
A-WYMIARY
 70
0
 62
1
  6
Continuous
370
25
390
13
347
21
1001
AcAecLayerStandard
1000

1000
Wymiarowanie (PN-B-01029)
  0
LAYER
  5
57
330
1
100
AcDbSymbolTableRecord
100
AcDbLayerTableRecord
  2
A-OPISY
 70
0
 62
2
  6
Continuous
370
25
390
13
347
21
1001
AcAecLayerStandard
1000

1000
Opisy, odnośniki, opisy warstw
  0
LAYER
  5
58
330
1
100
AcDbSymbolTableRecord
100
AcDbLayerTableRecord
  2
A-POMIESZCZENIA
 70
0
 62
2
  6
Continuous
370
25
390
13
347
21
1001
AcAecLayerStandard
1000

1000
Oznaczenia pomieszczeń (PN-EN ISO 4157)
  0
LAYER
  5
59
330
1
100
AcDbSymbolTableRecord
100
AcDbLayerTableRecord
  2
A-OSIE
 70
0
 62
1
  6
PUNKTOWA
370
25
390
13
347
21
1001
AcAecLayerStandard
1000

1000
Osie konstrukcyjne
  0
LAYER
  5
5A
330
1
100
AcDbSymbolTableRecord
100
AcDbLayerTableRecord
  2
A-RZEDNE
 70
0
 62
1
  6
Continuous
370
25
390
13
347
21
1001
AcAecLayerStandard
1000

1000
Rzędne wysokościowe
  0
LAYER
  5
5B
330
1
100
AcDbSymbolTableRecord
100
AcDbLayerTableRecord
  2
A-PRZEKROJE
 70
0
 62
1
  6
PUNKTOWA_KROTKA
370
50
390
13
347
21
1001
AcAecLayerStandard
1000

1000
Oznaczenia przekrojów i widoków
  0
LAYER
  5
5C
330
1
100
AcDbSymbolTableRecord
100
AcDbLayerTableRecord
  2
A-SYMBOLE
 70
0
 62
2
  6
Continuous
370
25
390
13
347
21
1001
AcAecLayerStandard
1000

1000
Symbole ogólne (północ, spadki, odnośniki)
  0
LAYER
  5
5D
330
1
100
AcDbSymbolTableRecord
100
AcDbLayerTableRecord
  2
A-TEREN
 70
0
 62
32
  6
Continuous
370
50
390
13
347
21
1001
AcAecLayerStandard
1000

1000
Linia terenu, grunt
  0
LAYER
  5
5E
330
1
100
AcDbSymbolTableRecord
100
AcDbLayerTableRecord
  2
A-ELEWACJE
 70
0
 62
7
  6
Continuous
370
35
390
13
347
21
1001
AcAecLayerStandard
1000

1000
Elewacje — krawędzie
  0
LAYER
  5
5F
330
1
100
AcDbSymbolTableRecord
100
AcDbLayerTableRecord
  2
A-MASKA
 70
0
 62
7
  6
Continuous
370
18
390
13
347
21
1001
AcAecLayerStandard
1000

1000
Maski (tło napisów)
  0
LAYER
  5
60
330
1
100
AcDbSymbolTableRecord
100
AcDbLayerTableRecord
  2
K-KONSTR
 70
0
 62
7
  6
Continuous
370
50
390
13
347
21
1001
AcAecLayerStandard
1000

1000
Konstrukcja — kontury elementów
  0
LAYER
  5
61
330
1
100
AcDbSymbolTableRecord
100
AcDbLayerTableRecord
  2
K-ZBROJENIE
 70
0
 62
1
  6
Continuous
370
100
390
13
347
21
1001
AcAecLayerStandard
1000

1000
Zbrojenie — pręty (PN-EN ISO 3766)
  0
LAYER
  5
62
330
1
100
AcDbSymbolTableRecord
100
AcDbLayerTableRecord
  2
K-ZBROJENIE-OPIS
 70
0
 62
2
  6
Continuous
370
25
390
13
347
21
1001
AcAecLayerStandard
1000

1000
Zbrojenie — opisy pozycji
  0
LAYER
  5
63
330
1
100
AcDbSymbolTableRecord
100
AcDbLayerTableRecord
  2
K-WYMIARY
 70
0
 62
1
  6
Continuous
370
25
390
13
347
21
1001
AcAecLayerStandard
1000

1000
Konstrukcja — wymiary
  0
LAYER
  5
64
330
1
100
AcDbSymbolTableRecord
100
AcDbLayerTableRecord
  2
K-OSIE
 70
0
 62
1
  6
PUNKTOWA
370
25
390
13
347
21
1001
AcAecLayerStandard
1000

1000
Konstrukcja — osie
  0
LAYER
  5
65
330
1
100
AcDbSymbolTableRecord
100
AcDbLayerTableRecord
  2
S-WODA
 70
0
 62
5
420
20680
  6
Continuous
370
35
390
13
347
21
1001
AcAecLayerStandard
1000

1000
Instalacja wody zimnej
  0
LAYER
  5
66
330
1
100
AcDbSymbolTableRecord
100
AcDbLayerTableRecord
  2
S-CWU
 70
0
 62
1
420
13631488
  6
KRESKOWA
370
35
390
13
347
21
1001
AcAecLayerStandard
1000

1000
Instalacja ciepłej wody użytkowej
  0
LAYER
  5
67
330
1
100
AcDbSymbolTableRecord
100
AcDbLayerTableRecord
  2
S-CYRK
 70
0
 62
6
420
11534512
  6
PUNKTOWA_KROTKA
370
25
390
13
347
21
1001
AcAecLayerStandard
1000

1000
Instalacja cyrkulacji CWU
  0
LAYER
  5
68
330
1
100
AcDbSymbolTableRecord
100
AcDbLayerTableRecord
  2
S-KANAL
 70
0
 62
34
420
8013056
  6
Continuous
370
50
390
13
347
21
1001
AcAecLayerStandard
1000

1000
Kanalizacja sanitarna
  0
LAYER
  5
69
330
1
100
AcDbSymbolTableRecord
100
AcDbLayerTableRecord
  2
S-DESZCZ
 70
0
 62
150
420
32906
  6
KRESKA_DLUGA
370
35
390
13
347
21
1001
AcAecLayerStandard
1000

1000
Kanalizacja deszczowa / odwodnienie
  0
LAYER
  5
6A
330
1
100
AcDbSymbolTableRecord
100
AcDbLayerTableRecord
  2
S-OGRZ
 70
0
 62
1
420
14700544
  6
Continuous
370
25
390
13
347
21
1001
AcAecLayerStandard
1000

1000
Ogrzewanie (zasilanie/powrót, pętle podłogowe)
  0
LAYER
  5
6B
330
1
100
AcDbSymbolTableRecord
100
AcDbLayerTableRecord
  2
S-WENT
 70
0
 62
3
420
35328
  6
Continuous
370
35
390
13
347
21
1001
AcAecLayerStandard
1000

1000
Wentylacja mechaniczna
  0
LAYER
  5
6C
330
1
100
AcDbSymbolTableRecord
100
AcDbLayerTableRecord
  2
S-URZADZENIA
 70
0
 62
2
420
3158064
  6
Continuous
370
35
390
13
347
21
1001
AcAecLayerStandard
1000

1000
Urządzenia i armatura instalacji sanitarnych
  0
LAYER
  5
6D
330
1
100
AcDbSymbolTableRecord
100
AcDbLayerTableRecord
  2
S-OPISY
 70
0
 62
2
  6
Continuous
370
25
390
13
347
21
1001
AcAecLayerStandard
1000

1000
Instalacje sanitarne — opisy
  0
LAYER
  5
6E
330
1
100
AcDbSymbolTableRecord
100
AcDbLayerTableRecord
  2
E-GNIAZDA
 70
0
 62
1
420
12582912
  6
Continuous
370
35
390
13
347
21
1001
AcAecLayerStandard
1000

1000
Gniazda wtyczkowe (PN-EN 60617)
  0
LAYER
  5
6F
330
1
100
AcDbSymbolTableRecord
100
AcDbLayerTableRecord
  2
E-OSWIETLENIE
 70
0
 62
30
420
13656064
  6
Continuous
370
35
390
13
347
21
1001
AcAecLayerStandard
1000

1000
Oprawy oświetleniowe
  0
LAYER
  5
70
330
1
100
AcDbSymbolTableRecord
100
AcDbLayerTableRecord
  2
E-LACZNIKI
 70
0
 62
30
420
13656064
  6
Continuous
370
35
390
13
347
21
1001
AcAecLayerStandard
1000

1000
Łączniki, czujniki
  0
LAYER
  5
71
330
1
100
AcDbSymbolTableRecord
100
AcDbLayerTableRecord
  2
E-TRASY
 70
0
 62
8
420
6316128
  6
Continuous
370
25
390
13
347
21
1001
AcAecLayerStandard
1000

1000
Trasy przewodów
  0
LAYER
  5
72
330
1
100
AcDbSymbolTableRecord
100
AcDbLayerTableRecord
  2
E-ROZDZIELNICE
 70
0
 62
1
420
12582912
  6
Continuous
370
35
390
13
347
21
1001
AcAecLayerStandard
1000

1000
Rozdzielnice, złącza, puszki
  0
LAYER
  5
73
330
1
100
AcDbSymbolTableRecord
100
AcDbLayerTableRecord
  2
E-TELETECH
 70
0
 62
5
420
20680
  6
Continuous
370
35
390
13
347
21
1001
AcAecLayerStandard
1000

1000
Instalacje teletechniczne (LAN, TV, domofon)
  0
LAYER
  5
74
330
1
100
AcDbSymbolTableRecord
100
AcDbLayerTableRecord
  2
E-ODGROM
 70
0
 62
3
420
35328
  6
Continuous
370
35
390
13
347
21
1001
AcAecLayerStandard
1000

1000
Uziemienia, połączenia wyrównawcze, ochrona odgromowa
  0
LAYER
  5
75
330
1
100
AcDbSymbolTableRecord
100
AcDbLayerTableRecord
  2
E-OPISY
 70
0
 62
2
  6
Continuous
370
25
390
13
347
21
1001
AcAecLayerStandard
1000

1000
Instalacje elektryczne — opisy
  0
LAYER
  5
76
330
1
100
AcDbSymbolTableRecord
100
AcDbLayerTableRecord
  2
Z-GRANICE
 70
0
 62
1
  6
DWUPUNKTOWA
370
50
390
13
347
21
1001
AcAecLayerStandard
1000

1000
Granice działki, punkty graniczne
  0
LAYER
  5
77
330
1
100
AcDbSymbolTableRecord
100
AcDbLayerTableRecord
  2
Z-ZABUDOWA
 70
0
 62
7
  6
Continuous
370
50
390
13
347
21
1001
AcAecLayerStandard
1000

1000
Budynki projektowane i istniejące
  0
LAYER
  5
78
330
1
100
AcDbSymbolTableRecord
100
AcDbLayerTableRecord
  2
Z-LINIE-ZABUDOWY
 70
0
 62
1
420
12582912
  6
PUNKTOWA
370
35
390
13
347
21
1001
AcAecLayerStandard
1000

1000
Linie zabudowy (MPZP)
  0
LAYER
  5
79
330
1
100
AcDbSymbolTableRecord
100
AcDbLayerTableRecord
  2
Z-UTWARDZENIA
 70
0
 62
8
  6
Continuous
370
25
390
13
347
21
1001
AcAecLayerStandard
1000

1000
Nawierzchnie utwardzone
  0
LAYER
  5
7A
330
1
100
AcDbSymbolTableRecord
100
AcDbLayerTableRecord
  2
Z-ZIELEN
 70
0
 62
3
420
1997342
  6
Continuous
370
25
390
13
347
21
1001
AcAecLayerStandard
1000

1000
Zieleń: drzewa, krzewy, trawniki
  0
LAYER
  5
7B
330
1
100
AcDbSymbolTableRecord
100
AcDbLayerTableRecord
  2
Z-UZBROJENIE
 70
0
 62
5
  6
Continuous
370
35
390
13
347
21
1001
AcAecLayerStandard
1000

1000
Uzbrojenie terenu, sieci i przyłącza
  0
LAYER
  5
7C
330
1
100
AcDbSymbolTableRecord
100
AcDbLayerTableRecord
  2
Z-WARSTWICE
 70
0
 62
32
420
9067050
  6
Continuous
370
18
390
13
347
21
1001
AcAecLayerStandard
1000

1000
Warstwice i punkty wysokościowe
  0
LAYER
  5
7D
330
1
100
AcDbSymbolTableRecord
100
AcDbLayerTableRecord
  2
Z-OGRODZENIE
 70
0
 62
7
  6
Continuous
370
35
390
13
347
21
1001
AcAecLayerStandard
1000

1000
Ogrodzenie, bramy, furtki
  0
LAYER
  5
7E
330
1
100
AcDbSymbolTableRecord
100
AcDbLayerTableRecord
  2
Z-OPISY
 70
0
 62
2
  6
Continuous
370
25
390
13
347
21
1001
AcAecLayerStandard
1000

1000
Opisy zagospodarowania
  0
ENDTAB
  0
TABLE
  2
STYLE
  5
5
330
0
100
AcDbSymbolTable
 70
5
  0
STYLE
  5
29
330
5
100
AcDbSymbolTableRecord
100
AcDbTextStyleTableRecord
  2
Standard
 70
0
 40
0.0
 41
1.0
 50
0.0
 71
0
 42
2.5
  3
txt
  4

  0
STYLE
  5
3A
330
5
100
AcDbSymbolTableRecord
100
AcDbTextStyleTableRecord
  2
PL_ARIAL
 70
0
 40
0.0
 41
1.0
 50
0.0
 71
0
 42
2.5
  3
arial.ttf
  4

  0
STYLE
  5
3B
330
5
100
AcDbSymbolTableRecord
100
AcDbTextStyleTableRecord
  2
PL_ARIAL_B
 70
0
 40
0.0
 41
1.0
 50
0.0
 71
0
 42
2.5
  3
arialbd.ttf
  4

  0
STYLE
  5
3C
330
5
100
AcDbSymbolTableRecord
100
AcDbTextStyleTableRecord
  2
PL_ARIAL_I
 70
0
 40
0.0
 41
1.0
 50
0.0
 71
0
 42
2.5
  3
ariali.ttf
  4

  0
STYLE
  5
3D
330
5
100
AcDbSymbolTableRecord
100
AcDbTextStyleTableRecord
  2
PL_ARIAL_BI
 70
0
 40
0.0
 41
1.0
 50
0.0
 71
0
 42
2.5
  3
arialbi.ttf
  4

  0
ENDTAB
  0
TABLE
  2
VIEW
  5
7
330
0
100
AcDbSymbolTable
 70
0
  0
ENDTAB
  0
TABLE
  2
UCS
  5
6
330
0
100
AcDbSymbolTable
 70
0
  0
ENDTAB
  0
TABLE
  2
APPID
  5
3
330
0
100
AcDbSymbolTable
 70
4
  0
APPID
  5
2A
330
3
100
AcDbSymbolTableRecord
100
AcDbRegAppTableRecord
  2
ACAD
 70
0
  0
APPID
  5
3F
330
3
100
AcDbSymbolTableRecord
100
AcDbRegAppTableRecord
  2
AcAecLayerStandard
 70
0
  0
APPID
  5
2A7
330
3
100
AcDbSymbolTableRecord
100
AcDbRegAppTableRecord
  2
HATCHBACKGROUNDCOLOR
 70
0
  0
APPID
  5
2A8
330
3
100
AcDbSymbolTableRecord
100
AcDbRegAppTableRecord
  2
EZDXF
 70
0
  0
ENDTAB
  0
TABLE
  2
DIMSTYLE
  5
4
330
0
100
AcDbSymbolTable
 70
1
100
AcDbDimStyleTable
  0
DIMSTYLE
105
2B
330
4
100
AcDbSymbolTableRecord
100
AcDbDimStyleTableRecord
  2
Standard
 70
0
 40
1.0
 41
2.5
 42
0.625
 43
3.75
 44
1.25
 45
0.0
 46
0.0
 47
0.0
 48
0.0
 49
2.5
140
2.5
141
2.5
142
0.0
143
0.03937007874
144
1.0
145
0.0
146
1.0
147
0.625
148
0.0
 69
0
 70
0
 71
0
 72
0
 73
0
 74
0
 75
0
 76
0
 77
1
 78
8
 79
3
170
0
171
3
172
1
173
0
174
0
175
0
176
0
177
0
178
0
179
2
271
2
272
2
273
2
274
3
275
0
276
0
277
2
278
44
279
0
280
0
281
0
282
0
283
0
284
8
285
0
286
0
288
0
289
3
290
0
371
-2
372
-2
  0
ENDTAB
  0
TABLE
  2
BLOCK_RECORD
  5
9
330
0
100
AcDbSymbolTable
 70
2
  0
BLOCK_RECORD
  5
17
330
9
100
AcDbSymbolTableRecord
100
AcDbBlockTableRecord
  2
*Model_Space
340
1A
 70
0
280
1
281
0
  0
BLOCK_RECORD
  5
1B
330
9
100
AcDbSymbolTableRecord
100
AcDbBlockTableRecord
  2
*Paper_Space
340
1E
 70
0
280
1
281
0
  0
ENDTAB
  0
ENDSEC
  0
SECTION
  2
BLOCKS
  0
BLOCK
  5
18
330
17
100
AcDbEntity
  8
0
100
AcDbBlockBegin
  2
*Model_Space
 70
0
 10
0.0
 20
0.0
 30
0.0
  3
*Model_Space
  1

  0
ENDBLK
  5
19
330
17
100
AcDbEntity
  8
0
100
AcDbBlockEnd
  0
BLOCK
  5
1C
330
1B
100
AcDbEntity
  8
0
100
AcDbBlockBegin
  2
*Paper_Space
 70
0
 10
0.0
 20
0.0
 30
0.0
  3
*Paper_Space
  1

  0
ENDBLK
  5
1D
330
1B
100
AcDbEntity
  8
0
100
AcDbBlockEnd
  0
ENDSEC
  0
SECTION
  2
ENTITIES
  0
HATCH
  5
184
330
17
100
AcDbEntity
  8
A-ELEWACJE
 62
7
420
7698555
100
AcDbHatch
 10
0.0
 20
0.0
 30
0.0
210
0.0
220
0.0
230
1.0
  2
SOLID
 70
1
 71
0
 91
1
 92
3
 72
0
 73
1
 93
4
 10
1.185
 20
0.8750000000000001
 10
1.185
 20
0.904
 10
2.7150000000000003
 20
0.904
 10
2.7150000000000003
 20
0.8750000000000001
 97
0
 75
0
 76
1
 98
0
  0
HATCH
  5
185
330
17
100
AcDbEntity
  8
A-ELEWACJE
 62
7
420
7698555
100
AcDbHatch
 10
0.0
 20
0.0
 30
0.0
210
0.0
220
0.0
230
1.0
  2
SOLID
 70
1
 71
0
 91
1
 92
3
 72
0
 73
1
 93
4
 10
1.5850000000000002
 20
3.9350000000000005
 10
1.5850000000000002
 20
3.9640000000000004
 10
3.015
 20
3.9640000000000004
 10
3.015
 20
3.9350000000000005
 97
0
 75
0
 76
1
 98
0
  0
HATCH
  5
186
330
17
100
AcDbEntity
  8
A-ELEWACJE
 62
7
420
7040624
100
AcDbHatch
 10
0.0
 20
0.0
 30
0.0
210
0.0
220
0.0
230
1.0
  2
SOLID
 70
1
 71
0
 91
1
 92
3
 72
0
 73
1
 93
4
 10
4.377000000000001
 20
3.2100000000000004
 10
4.377000000000001
 20
3.2700000000000005
 10
4.417000000000001
 20
3.2700000000000005
 10
4.417000000000001
 20
3.2100000000000004
 97
0
 75
0
 76
1
 98
0
  0
HATCH
  5
187
330
17
100
AcDbEntity
  8
A-ELEWACJE
 62
7
420
7040624
100
AcDbHatch
 10
0.0
 20
0.0
 30
0.0
210
0.0
220
0.0
230
1.0
  2
SOLID
 70
1
 71
0
 91
1
 92
3
 72
0
 73
1
 93
4
 10
4.377000000000001
 20
6.24
 10
4.377000000000001
 20
6.300000000000001
 10
4.417000000000001
 20
6.300000000000001
 10
4.417000000000001
 20
6.24
 97
0
 75
0
 76
1
 98
0
  0
HATCH
  5
188
330
17
100
AcDbEntity
  8
A-ELEWACJE
 62
7
420
16119025
100
AcDbHatch
 10
0.0
 20
0.0
 30
0.0
210
0.0
220
0.0
230
1.0
  2
SOLID
 70
1
 71
0
 91
3
 92
3
 72
0
 73
1
 93
42
 10
-4.297
 20
6.4935
 10
1.6
 20
6.4935
 10
3.0
 20
6.4935
 10
4.297
 20
6.4935
 10
4.297
 20
2.91
 10
4.297
 20
-0.38917
 10
4.163
 20
-0.38787
 10
3.913
 20
-0.38544
 10
3.663
 20
-0.38302
 10
3.413
 20
-0.38059
 10
3.163
 20
-0.37816
 10
2.913
 20
-0.37574
 10
2.663
 20
-0.37331
 10
2.413
 20
-0.37088
 10
2.163
 20
-0.36846
 10
1.913
 20
-0.36603
 10
1.663
 20
-0.3636
 10
1.413
 20
-0.36118
 10
1.163
 20
-0.35875
 10
0.913
 20
-0.35633
 10
0.663
 20
-0.3539
 10
0.413
 20
-0.35147
 10
0.163
 20
-0.34905
 10
-0.087
 20
-0.34662
 10
-0.337
 20
-0.34419
 10
-0.587
 20
-0.34177
 10
-0.837
 20
-0.33934
 10
-1.087
 20
-0.33691
 10
-1.337
 20
-0.33449
 10
-1.587
 20
-0.33206
 10
-1.837
 20
-0.32963
 10
-2.087
 20
-0.32721
 10
-2.337
 20
-0.32478
 10
-2.587
 20
-0.32235
 10
-2.837
 20
-0.31993
 10
-3.087
 20
-0.3175
 10
-3.337
 20
-0.31508
 10
-3.587
 20
-0.31265
 10
-3.837
 20
-0.31022
 10
-4.087
 20
-0.3078
 10
-4.297
 20
-0.30576
 10
-4.297
 20
2.91
 97
0
 92
2
 72
0
 73
1
 93
8
 10
2.988
 20
5.448
 10
1.612
 20
5.448
 10
1.612
 20
3.964
 10
1.585
 20
3.964
 10
1.585
 20
3.935
 10
3.015
 20
3.935
 10
3.015
 20
3.964
 10
2.988
 20
3.964
 97
0
 92
2
 72
0
 73
1
 93
8
 10
1.212
 20
0.904
 10
1.185
 20
0.904
 10
1.185
 20
0.875
 10
2.715
 20
0.875
 10
2.715
 20
0.904
 10
2.688
 20
0.904
 10
2.688
 20
2.388
 10
1.212
 20
2.388
 97
0
 75
0
 76
1
 98
0
  0
HATCH
  5
189
330
17
100
AcDbEntity
  8
A-ELEWACJE
 62
7
420
10712656
100
AcDbHatch
 10
0.0
 20
0.0
 30
0.0
210
0.0
220
0.0
230
1.0
  2
SOLID
 70
1
 71
0
 91
1
 92
3
 72
0
 73
1
 93
8
 10
4.417
 20
3.06
 10
4.417
 20
3.21
 10
4.417
 20
3.27
 10
4.417
 20
6.24
 10
4.417
 20
6.3
 10
4.417
 20
6.45
 10
4.537
 20
6.45
 10
4.537
 20
3.06
 97
0
 75
0
 76
1
 98
0
  0
HATCH
  5
18A
330
17
100
AcDbEntity
  8
A-ELEWACJE
 62
7
420
7698555
100
AcDbHatch
 10
0.0
 20
0.0
 30
0.0
210
0.0
220
0.0
230
1.0
  2
SOLID
 70
1
 71
0
 91
1
 92
3
 72
0
 73
1
 93
8
 10
4.09
 20
6.4935
 10
3.0
 20
6.4935
 10
1.6
 20
6.4935
 10
-4.09
 20
6.4935
 10
-4.22
 20
6.4935
 10
-4.22
 20
6.5135
 10
4.22
 20
6.5135
 10
4.22
 20
6.4935
 97
0
 75
0
 76
1
 98
0
  0
HATCH
  5
18B
330
17
100
AcDbEntity
  8
A-ELEWACJE
 62
7
420
6974832
100
AcDbHatch
 10
0.0
 20
0.0
 30
0.0
210
0.0
220
0.0
230
1.0
  2
SOLID
 70
1
 71
0
 91
2
 92
3
 72
0
 73
1
 93
4
 10
2.688
 20
0.904
 10
1.212
 20
0.904
 10
1.212
 20
2.388
 10
2.688
 20
2.388
 97
0
 92
2
 72
0
 73
1
 93
4
 10
2.625
 20
2.325
 10
1.275
 20
2.325
 10
1.275
 20
0.975
 10
2.625
 20
0.975
 97
0
 75
0
 76
1
 98
0
  0
HATCH
  5
18C
330
17
100
AcDbEntity
  8
A-ELEWACJE
 62
7
420
6974832
100
AcDbHatch
 10
0.0
 20
0.0
 30
0.0
210
0.0
220
0.0
230
1.0
  2
SOLID
 70
1
 71
0
 91
2
 92
3
 72
0
 73
1
 93
4
 10
2.988
 20
3.964
 10
1.612
 20
3.964
 10
1.612
 20
5.448
 10
2.988
 20
5.448
 97
0
 92
2
 72
0
 73
1
 93
4
 10
2.925
 20
5.385
 10
1.675
 20
5.385
 10
1.675
 20
4.035
 10
2.925
 20
4.035
 97
0
 75
0
 76
1
 98
0
  0
HATCH
  5
18D
330
17
100
AcDbEntity
  8
A-ELEWACJE
 62
7
420
11125709
100
AcDbHatch
 10
0.0
 20
0.0
 30
0.0
210
0.0
220
0.0
230
1.0
  2
SOLID
 70
1
 71
0
 91
1
 92
3
 72
0
 73
1
 93
4
 10
1.275
 20
2.325
 10
2.625
 20
2.325
 10
2.625
 20
0.975
 10
1.275
 20
0.975
 97
0
 75
0
 76
1
 98
0
  0
HATCH
  5
18E
330
17
100
AcDbEntity
  8
A-ELEWACJE
 62
7
420
11125709
100
AcDbHatch
 10
0.0
 20
0.0
 30
0.0
210
0.0
220
0.0
230
1.0
  2
SOLID
 70
1
 71
0
 91
1
 92
3
 72
0
 73
1
 93
4
 10
1.675
 20
5.385
 10
2.925
 20
5.385
 10
2.925
 20
4.035
 10
1.675
 20
4.035
 97
0
 75
0
 76
1
 98
0
  0
HATCH
  5
18F
330
17
100
AcDbEntity
  8
A-ELEWACJE
 62
7
420
7698555
100
AcDbHatch
 10
0.0
 20
0.0
 30
0.0
210
0.0
220
0.0
230
1.0
  2
SOLID
 70
1
 71
0
 91
1
 92
3
 72
0
 73
1
 93
4
 10
4.337
 20
3.864
 10
4.337
 20
3.835
 10
4.297
 20
3.835
 10
4.297
 20
3.864
 97
0
 75
0
 76
1
 98
0
  0
HATCH
  5
190
330
17
100
AcDbEntity
  8
A-ELEWACJE
 62
7
420
7698555
100
AcDbHatch
 10
0.0
 20
0.0
 30
0.0
210
0.0
220
0.0
230
1.0
  2
SOLID
 70
1
 71
0
 91
1
 92
3
 72
0
 73
1
 93
4
 10
-4.337
 20
3.964
 10
-4.297
 20
3.964
 10
-4.297
 20
3.935
 10
-4.337
 20
3.935
 97
0
 75
0
 76
1
 98
0
  0
HATCH
  5
191
330
17
100
AcDbEntity
  8
A-ELEWACJE
 62
7
420
7698555
100
AcDbHatch
 10
0.0
 20
0.0
 30
0.0
210
0.0
220
0.0
230
1.0
  2
SOLID
 70
1
 71
0
 91
1
 92
3
 72
0
 73
1
 93
4
 10
4.297
 20
0.875
 10
4.297
 20
0.904
 10
4.337
 20
0.904
 10
4.337
 20
0.875
 97
0
 75
0
 76
1
 98
0
  0
HATCH
  5
192
330
17
100
AcDbEntity
  8
A-ELEWACJE
 62
7
420
7890261
100
AcDbHatch
 10
0.0
 20
0.0
 30
0.0
210
0.0
220
0.0
230
1.0
  2
SOLID
 70
1
 71
0
 91
1
 92
3
 72
0
 73
1
 93
4
 10
4.297
 20
-0.05
 10
4.297
 20
-0.02
 10
7.3
 20
-0.02
 10
7.3
 20
-0.05
 97
0
 75
0
 76
1
 98
0
  0
HATCH
  5
193
330
17
100
AcDbEntity
  8
A-ELEWACJE
 62
7
420
9867399
100
AcDbHatch
 10
0.0
 20
0.0
 30
0.0
210
0.0
220
0.0
230
1.0
  2
SOLID
 70
1
 71
0
 91
1
 92
3
 72
0
 73
1
 93
16
 10
4.297
 20
-0.05
 10
7.3
 20
-0.05
 10
7.3
 20
-0.41527
 10
7.163
 20
-0.41413
 10
6.913
 20
-0.41204
 10
6.663
 20
-0.40996
 10
6.413
 20
-0.40788
 10
6.163
 20
-0.40579
 10
5.913
 20
-0.40371
 10
5.663
 20
-0.40163
 10
5.413
 20
-0.39954
 10
5.163
 20
-0.39746
 10
4.913
 20
-0.39515
 10
4.663
 20
-0.39272
 10
4.413
 20
-0.3903
 10
4.297
 20
-0.38917
 97
0
 75
0
 76
1
 98
0
  0
HATCH
  5
194
330
17
100
AcDbEntity
  8
A-ELEWACJE
 62
7
420
7698555
100
AcDbHatch
 10
0.0
 20
0.0
 30
0.0
210
0.0
220
0.0
230
1.0
  2
SOLID
 70
1
 71
0
 91
1
 92
3
 72
0
 73
1
 93
4
 10
-4.337
 20
0.975
 10
-4.337
 20
1.004
 10
-4.297
 20
1.004
 10
-4.297
 20
0.975
 97
0
 75
0
 76
1
 98
0
  0
HATCH
  5
195
330
17
100
AcDbEntity
  8
A-ELEWACJE
 62
7
420
7698555
100
AcDbHatch
 10
0.0
 20
0.0
 30
0.0
210
0.0
220
0.0
230
1.0
  2
SOLID
 70
1
 71
0
 91
1
 92
3
 72
0
 73
1
 93
4
 10
-4.337
 20
4.335
 10
-4.337
 20
4.364
 10
-4.297
 20
4.364
 10
-4.297
 20
4.335
 97
0
 75
0
 76
1
 98
0
  0
LWPOLYLINE
  5
196
330
17
100
AcDbEntity
  8
A-KRESKOWANIE
370
25
 48
0.05
100
AcDbPolyline
 90
2
 70
0
 10
-5.798037250503491
 20
-0.3619022826858561
 10
-5.72664431023883
 20
-0.2918818836555278
  0
LWPOLYLINE
  5
197
330
17
100
AcDbEntity
  8
A-KRESKOWANIE
370
25
 48
0.05
100
AcDbPolyline
 90
2
 70
0
 10
-5.697355689761172
 20
-0.2921661555601639
 10
-5.627335290730844
 20
-0.36355909582482593
  0
LWPOLYLINE
  5
198
330
17
100
AcDbEntity
  8
A-KRESKOWANIE
370
25
 48
0.05
100
AcDbPolyline
 90
2
 70
0
 10
-5.548037250503491
 20
-0.3643287532740914
 10
-5.47664431023883
 20
-0.2943083542437631
  0
LWPOLYLINE
  5
199
330
17
100
AcDbEntity
  8
A-KRESKOWANIE
370
25
 48
0.05
100
AcDbPolyline
 90
2
 70
0
 10
-5.447355689761172
 20
-0.29459262614839915
 10
-5.377335290730844
 20
-0.3659855664130612
  0
LWPOLYLINE
  5
19A
330
17
100
AcDbEntity
  8
A-KRESKOWANIE
370
25
 48
0.05
100
AcDbPolyline
 90
2
 70
0
 10
-5.298037250503491
 20
-0.3667552238623267
 10
-5.22664431023883
 20
-0.29673482483199837
  0
LWPOLYLINE
  5
19B
330
17
100
AcDbEntity
  8
A-KRESKOWANIE
370
25
 48
0.05
100
AcDbPolyline
 90
2
 70
0
 10
-5.197355689761172
 20
-0.2970190967366344
 10
-5.127335290730844
 20
-0.36841203700129643
  0
LWPOLYLINE
  5
19C
330
17
100
AcDbEntity
  8
A-KRESKOWANIE
370
25
 48
0.05
100
AcDbPolyline
 90
2
 70
0
 10
-5.048037250503491
 20
-0.3691816944505619
 10
-4.97664431023883
 20
-0.2991612954202336
  0
LWPOLYLINE
  5
19D
330
17
100
AcDbEntity
  8
A-KRESKOWANIE
370
25
 48
0.05
100
AcDbPolyline
 90
2
 70
0
 10
-4.947355689761172
 20
-0.2994455673248697
 10
-4.877335290730844
 20
-0.37083850758953174
  0
LWPOLYLINE
  5
19E
330
17
100
AcDbEntity
  8
A-KRESKOWANIE
370
25
 48
0.05
100
AcDbPolyline
 90
2
 70
0
 10
-4.798037250503491
 20
-0.37160816503879723
 10
-4.72664431023883
 20
-0.3015877660084689
  0
LWPOLYLINE
  5
19F
330
17
100
AcDbEntity
  8
A-KRESKOWANIE
370
25
 48
0.05
100
AcDbPolyline
 90
2
 70
0
 10
-4.697355689761172
 20
-0.301872037913105
 10
-4.627335290730844
 20
-0.37326497817776705
  0
LWPOLYLINE
  5
1A0
330
17
100
AcDbEntity
  8
A-KRESKOWANIE
370
25
 48
0.05
100
AcDbPolyline
 90
2
 70
0
 10
-4.548037250503491
 20
-0.37403463562703254
 10
-4.47664431023883
 20
-0.30401423659670423
  0
LWPOLYLINE
  5
1A1
330
17
100
AcDbEntity
  8
A-KRESKOWANIE
370
25
 48
0.05
100
AcDbPolyline
 90
2
 70
0
 10
-4.447355689761172
 20
-0.3042985085013403
 10
-4.377335290730844
 20
-0.37569144876600236
  0
LWPOLYLINE
  5
1A2
330
17
100
AcDbEntity
  8
A-KRESKOWANIE
370
25
 48
0.05
100
AcDbPolyline
 90
2
 70
0
 10
-4.298037250503491
 20
-0.3764611062152678
 10
-4.22664431023883
 20
-0.3064407071849395
  0
LWPOLYLINE
  5
1A3
330
17
100
AcDbEntity
  8
A-KRESKOWANIE
370
25
 48
0.05
100
AcDbPolyline
 90
2
 70
0
 10
-4.197355689761172
 20
-0.3067249790895756
 10
-4.127335290730844
 20
-0.3781179193542376
  0
LWPOLYLINE
  5
1A4
330
17
100
AcDbEntity
  8
A-KRESKOWANIE
370
25
 48
0.05
100
AcDbPolyline
 90
2
 70
0
 10
-4.048037250503491
 20
-0.37888757680350305
 10
-3.976644310238829
 20
-0.30886717777317474
  0
LWPOLYLINE
  5
1A5
330
17
100
AcDbEntity
  8
A-KRESKOWANIE
370
25
 48
0.05
100
AcDbPolyline
 90
2
 70
0
 10
-3.947355689761172
 20
-0.3091514496778109
 10
-3.877335290730844
 20
-0.3805443899424729
  0
LWPOLYLINE
  5
1A6
330
17
100
AcDbEntity
  8
A-KRESKOWANIE
370
25
 48
0.05
100
AcDbPolyline
 90
2
 70
0
 10
-3.798037250503491
 20
-0.3813140473917384
 10
-3.726644310238829
 20
-0.3112936483614101
  0
LWPOLYLINE
  5
1A7
330
17
100
AcDbEntity
  8
A-KRESKOWANIE
370
25
 48
0.05
100
AcDbPolyline
 90
2
 70
0
 10
-3.697355689761172
 20
-0.31157792026604614
 10
-3.627335290730844
 20
-0.38297086053070817
  0
LWPOLYLINE
  5
1A8
330
17
100
AcDbEntity
  8
A-KRESKOWANIE
370
25
 48
0.05
100
AcDbPolyline
 90
2
 70
0
 10
-3.548037250503491
 20
-0.38374051797997366
 10
-3.476644310238829
 20
-0.31372011894964535
  0
LWPOLYLINE
  5
1A9
330
17
100
AcDbEntity
  8
A-KRESKOWANIE
370
25
 48
0.05
100
AcDbPolyline
 90
2
 70
0
 10
-3.447355689761172
 20
-0.3140043908542814
 10
-3.377335290730844
 20
-0.3853973311189434
  0
LWPOLYLINE
  5
1AA
330
17
100
AcDbEntity
  8
A-KRESKOWANIE
370
25
 48
0.05
100
AcDbPolyline
 90
2
 70
0
 10
-3.298037250503491
 20
-0.3861669885682089
 10
-3.226644310238829
 20
-0.3161465895378806
  0
LWPOLYLINE
  5
1AB
330
17
100
AcDbEntity
  8
A-KRESKOWANIE
370
25
 48
0.05
100
AcDbPolyline
 90
2
 70
0
 10
-3.197355689761172
 20
-0.31643086144251664
 10
-3.127335290730844
 20
-0.3878238017071787
  0
LWPOLYLINE
  5
1AC
330
17
100
AcDbEntity
  8
A-KRESKOWANIE
370
25
 48
0.05
100
AcDbPolyline
 90
2
 70
0
 10
-3.048037250503491
 20
-0.38859345915644417
 10
-2.976644310238829
 20
-0.31857306012611586
  0
LWPOLYLINE
  5
1AD
330
17
100
AcDbEntity
  8
A-KRESKOWANIE
370
25
 48
0.05
100
AcDbPolyline
 90
2
 70
0
 10
-2.947355689761172
 20
-0.318857332030752
 10
-2.877335290730844
 20
-0.39025027229541404
  0
LWPOLYLINE
  5
1AE
330
17
100
AcDbEntity
  8
A-KRESKOWANIE
370
25
 48
0.05
100
AcDbPolyline
 90
2
 70
0
 10
-2.798037250503491
 20
-0.39101992974467953
 10
-2.726644310238829
 20
-0.3209995307143512
  0
LWPOLYLINE
  5
1AF
330
17
100
AcDbEntity
  8
A-KRESKOWANIE
370
25
 48
0.05
100
AcDbPolyline
 90
2
 70
0
 10
-2.697355689761172
 20
-0.32128380261898726
 10
-2.627335290730844
 20
-0.3926767428836493
  0
LWPOLYLINE
  5
1B0
330
17
100
AcDbEntity
  8
A-KRESKOWANIE
370
25
 48
0.05
100
AcDbPolyline
 90
2
 70
0
 10
-2.548037250503491
 20
-0.3934464003329148
 10
-2.476644310238829
 20
-0.3234260013025865
  0
LWPOLYLINE
  5
1B1
330
17
100
AcDbEntity
  8
A-KRESKOWANIE
370
25
 48
0.05
100
AcDbPolyline
 90
2
 70
0
 10
-2.447355689761172
 20
-0.3237102732072225
 10
-2.377335290730844
 20
-0.39510321347188454
  0
LWPOLYLINE
  5
1B2
330
17
100
AcDbEntity
  8
A-KRESKOWANIE
370
25
 48
0.05
100
AcDbPolyline
 90
2
 70
0
 10
-2.298037250503491
 20
-0.39587287092115003
 10
-2.226644310238829
 20
-0.3258524718908217
  0
LWPOLYLINE
  5
1B3
330
17
100
AcDbEntity
  8
A-KRESKOWANIE
370
25
 48
0.05
100
AcDbPolyline
 90
2
 70
0
 10
-2.197355689761172
 20
-0.3261367437954578
 10
-2.127335290730844
 20
-0.39752968406011985
  0
LWPOLYLINE
  5
1B4
330
17
100
AcDbEntity
  8
A-KRESKOWANIE
370
25
 48
0.05
100
AcDbPolyline
 90
2
 70
0
 10
-2.048037250503491
 20
-0.39829934150938534
 10
-1.9766443102388291
 20
-0.32827894247905703
  0
LWPOLYLINE
  5
1B5
330
17
100
AcDbEntity
  8
A-KRESKOWANIE
370
25
 48
0.05
100
AcDbPolyline
 90
2
 70
0
 10
-1.9473556897611721
 20
-0.32856321438369307
 10
-1.8773352907308438
 20
-0.3999561546483551
  0
LWPOLYLINE
  5
1B6
330
17
100
AcDbEntity
  8
A-KRESKOWANIE
370
25
 48
0.05
100
AcDbPolyline
 90
2
 70
0
 10
-1.7980372505034912
 20
-0.4007258120976206
 10
-1.7266443102388291
 20
-0.3307054130672923
  0
LWPOLYLINE
  5
1B7
330
17
100
AcDbEntity
  8
A-KRESKOWANIE
370
25
 48
0.05
100
AcDbPolyline
 90
2
 70
0
 10
-1.6973556897611721
 20
-0.3309896849719284
 10
-1.6273352907308438
 20
-0.4023826252365904
  0
LWPOLYLINE
  5
1B8
330
17
100
AcDbEntity
  8
A-KRESKOWANIE
370
25
 48
0.05
100
AcDbPolyline
 90
2
 70
0
 10
-1.5480372505034912
 20
-0.4031522826858559
 10
-1.4766443102388291
 20
-0.3331318836555276
  0
LWPOLYLINE
  5
1B9
330
17
100
AcDbEntity
  8
A-KRESKOWANIE
370
25
 48
0.05
100
AcDbPolyline
 90
2
 70
0
 10
-1.4473556897611721
 20
-0.3334161555601637
 10
-1.3773352907308438
 20
-0.4048090958248257
  0
LWPOLYLINE
  5
1BA
330
17
100
AcDbEntity
  8
A-KRESKOWANIE
370
25
 48
0.05
100
AcDbPolyline
 90
2
 70
0
 10
-1.2980372505034912
 20
-0.4055787532740912
 10
-1.2266443102388291
 20
-0.3355583542437629
  0
LWPOLYLINE
  5
1BB
330
17
100
AcDbEntity
  8
A-KRESKOWANIE
370
25
 48
0.05
100
AcDbPolyline
 90
2
 70
0
 10
-1.1973556897611721
 20
-0.33584262614839894
 10
-1.1273352907308438
 20
-0.40723556641306097
  0
LWPOLYLINE
  5
1BC
330
17
100
AcDbEntity
  8
A-KRESKOWANIE
370
25
 48
0.05
100
AcDbPolyline
 90
2
 70
0
 10
-1.0480372505034912
 20
-0.40800522386232646
 10
-0.9766443102388291
 20
-0.33798482483199815
  0
LWPOLYLINE
  5
1BD
330
17
100
AcDbEntity
  8
A-KRESKOWANIE
370
25
 48
0.05
100
AcDbPolyline
 90
2
 70
0
 10
-0.9473556897611721
 20
-0.3382690967366342
 10
-0.8773352907308438
 20
-0.4096620370012962
  0
LWPOLYLINE
  5
1BE
330
17
100
AcDbEntity
  8
A-KRESKOWANIE
370
25
 48
0.05
100
AcDbPolyline
 90
2
 70
0
 10
-0.7980372505034912
 20
-0.4104316944505617
 10
-0.7266443102388291
 20
-0.3404112954202334
  0
LWPOLYLINE
  5
1BF
330
17
100
AcDbEntity
  8
A-KRESKOWANIE
370
25
 48
0.05
100
AcDbPolyline
 90
2
 70
0
 10
-0.6973556897611721
 20
-0.3406955673248695
 10
-0.6273352907308438
 20
-0.4120885075895315
  0
LWPOLYLINE
  5
1C0
330
17
100
AcDbEntity
  8
A-KRESKOWANIE
370
25
 48
0.05
100
AcDbPolyline
 90
2
 70
0
 10
-0.5480372505034912
 20
-0.412858165038797
 10
-0.47664431023882914
 20
-0.3428377660084687
  0
LWPOLYLINE
  5
1C1
330
17
100
AcDbEntity
  8
A-KRESKOWANIE
370
25
 48
0.05
100
AcDbPolyline
 90
2
 70
0
 10
-0.44735568976117207
 20
-0.3431220379131048
 10
-0.37733529073084376
 20
-0.41451497817776684
  0
LWPOLYLINE
  5
1C2
330
17
100
AcDbEntity
  8
A-KRESKOWANIE
370
25
 48
0.05
100
AcDbPolyline
 90
2
 70
0
 10
-0.2980372505034912
 20
-0.41528463562703233
 10
-0.2266443102388292
 20
-0.345264236596704
  0
LWPOLYLINE
  5
1C3
330
17
100
AcDbEntity
  8
A-KRESKOWANIE
370
25
 48
0.05
100
AcDbPolyline
 90
2
 70
0
 10
-0.19735568976117207
 20
-0.34554850850134006
 10
-0.12733529073084376
 20
-0.4169414487660021
  0
LWPOLYLINE
  5
1C4
330
17
100
AcDbEntity
  8
A-KRESKOWANIE
370
25
 48
0.05
100
AcDbPolyline
 90
2
 70
0
 10
-0.0480372505034912
 20
-0.4177111062152676
 10
0.023355689761170813
 20
-0.3476907071849393
  0
LWPOLYLINE
  5
1C5
330
17
100
AcDbEntity
  8
A-KRESKOWANIE
370
25
 48
0.05
100
AcDbPolyline
 90
2
 70
0
 10
0.052644310238827936
 20
-0.3479749790895753
 10
0.12266470926915625
 20
-0.41936791935423734
  0
LWPOLYLINE
  5
1C6
330
17
100
AcDbEntity
  8
A-KRESKOWANIE
370
25
 48
0.05
100
AcDbPolyline
 90
2
 70
0
 10
0.20196274949650875
 20
-0.42013757680350283
 10
0.2733556897611708
 20
-0.3501171777731745
  0
LWPOLYLINE
  5
1C7
330
17
100
AcDbEntity
  8
A-KRESKOWANIE
370
25
 48
0.05
100
AcDbPolyline
 90
2
 70
0
 10
0.30264431023882793
 20
-0.3504014496778107
 10
0.37266470926915624
 20
-0.4217943899424727
  0
LWPOLYLINE
  5
1C8
330
17
100
AcDbEntity
  8
A-KRESKOWANIE
370
25
 48
0.05
100
AcDbPolyline
 90
2
 70
0
 10
0.4519627494965088
 20
-0.4225640473917382
 10
0.5233556897611708
 20
-0.3525436483614099
  0
LWPOLYLINE
  5
1C9
330
17
100
AcDbEntity
  8
A-KRESKOWANIE
370
25
 48
0.05
100
AcDbPolyline
 90
2
 70
0
 10
0.5526443102388279
 20
-0.3528279202660459
 10
0.6226647092691562
 20
-0.42422086053070795
  0
LWPOLYLINE
  5
1CA
330
17
100
AcDbEntity
  8
A-KRESKOWANIE
370
25
 48
0.05
100
AcDbPolyline
 90
2
 70
0
 10
0.7019627494965088
 20
-0.42499051797997345
 10
0.7733556897611709
 20
-0.35497011894964514
  0
LWPOLYLINE
  5
1CB
330
17
100
AcDbEntity
  8
A-KRESKOWANIE
370
25
 48
0.05
100
AcDbPolyline
 90
2
 70
0
 10
0.8026443102388279
 20
-0.35525439085428123
 10
0.8726647092691562
 20
-0.42664733111894326
  0
LWPOLYLINE
  5
1CC
330
17
100
AcDbEntity
  8
A-KRESKOWANIE
370
25
 48
0.05
100
AcDbPolyline
 90
2
 70
0
 10
0.9519627494965088
 20
-0.42741698856820876
 10
1.0233556897611709
 20
-0.35739658953788045
  0
LWPOLYLINE
  5
1CD
330
17
100
AcDbEntity
  8
A-KRESKOWANIE
370
25
 48
0.05
100
AcDbPolyline
 90
2
 70
0
 10
1.0526443102388279
 20
-0.3576808614425165
 10
1.1226647092691562
 20
-0.4290738017071785
  0
LWPOLYLINE
  5
1CE
330
17
100
AcDbEntity
  8
A-KRESKOWANIE
370
25
 48
0.05
100
AcDbPolyline
 90
2
 70
0
 10
1.2019627494965088
 20
-0.429843459156444
 10
1.2733556897611709
 20
-0.3598230601261157
  0
LWPOLYLINE
  5
1CF
330
17
100
AcDbEntity
  8
A-KRESKOWANIE
370
25
 48
0.05
100
AcDbPolyline
 90
2
 70
0
 10
1.3026443102388279
 20
-0.36010733203075174
 10
1.3726647092691562
 20
-0.43150027229541377
  0
LWPOLYLINE
  5
1D0
330
17
100
AcDbEntity
  8
A-KRESKOWANIE
370
25
 48
0.05
100
AcDbPolyline
 90
2
 70
0
 10
1.4519627494965088
 20
-0.43226992974467926
 10
1.5233556897611709
 20
-0.36224953071435095
  0
LWPOLYLINE
  5
1D1
330
17
100
AcDbEntity
  8
A-KRESKOWANIE
370
25
 48
0.05
100
AcDbPolyline
 90
2
 70
0
 10
1.5526443102388279
 20
-0.36253380261898704
 10
1.6226647092691562
 20
-0.4339267428836491
  0
LWPOLYLINE
  5
1D2
330
17
100
AcDbEntity
  8
A-KRESKOWANIE
370
25
 48
0.05
100
AcDbPolyline
 90
2
 70
0
 10
1.7019627494965088
 20
-0.43469640033291457
 10
1.7733556897611709
 20
-0.36467600130258626
  0
LWPOLYLINE
  5
1D3
330
17
100
AcDbEntity
  8
A-KRESKOWANIE
370
25
 48
0.05
100
AcDbPolyline
 90
2
 70
0
 10
1.8026443102388279
 20
-0.3649602732072223
 10
1.8726647092691562
 20
-0.4363532134718843
  0
LWPOLYLINE
  5
1D4
330
17
100
AcDbEntity
  8
A-KRESKOWANIE
370
25
 48
0.05
100
AcDbPolyline
 90
2
 70
0
 10
1.9519627494965088
 20
-0.4371228709211498
 10
2.023355689761171
 20
-0.3671024718908215
  0
LWPOLYLINE
  5
1D5
330
17
100
AcDbEntity
  8
A-KRESKOWANIE
370
25
 48
0.05
100
AcDbPolyline
 90
2
 70
0
 10
2.052644310238828
 20
-0.36738674379545766
 10
2.122664709269156
 20
-0.4387796840601197
  0
LWPOLYLINE
  5
1D6
330
17
100
AcDbEntity
  8
A-KRESKOWANIE
370
25
 48
0.05
100
AcDbPolyline
 90
2
 70
0
 10
2.201962749496509
 20
-0.4395493415093852
 10
2.273355689761171
 20
-0.3695289424790569
  0
LWPOLYLINE
  5
1D7
330
17
100
AcDbEntity
  8
A-KRESKOWANIE
370
25
 48
0.05
100
AcDbPolyline
 90
2
 70
0
 10
2.302644310238828
 20
-0.36981321438369297
 10
2.372664709269156
 20
-0.441206154648355
  0
LWPOLYLINE
  5
1D8
330
17
100
AcDbEntity
  8
A-KRESKOWANIE
370
25
 48
0.05
100
AcDbPolyline
 90
2
 70
0
 10
2.451962749496509
 20
-0.44197581209762044
 10
2.523355689761171
 20
-0.37195541306729213
  0
LWPOLYLINE
  5
1D9
330
17
100
AcDbEntity
  8
A-KRESKOWANIE
370
25
 48
0.05
100
AcDbPolyline
 90
2
 70
0
 10
2.552644310238828
 20
-0.3722396849719282
 10
2.622664709269156
 20
-0.44363262523659025
  0
LWPOLYLINE
  5
1DA
330
17
100
AcDbEntity
  8
A-KRESKOWANIE
370
25
 48
0.05
100
AcDbPolyline
 90
2
 70
0
 10
2.701962749496509
 20
-0.4444022826858557
 10
2.773355689761171
 20
-0.3743818836555274
  0
LWPOLYLINE
  5
1DB
330
17
100
AcDbEntity
  8
A-KRESKOWANIE
370
25
 48
0.05
100
AcDbPolyline
 90
2
 70
0
 10
2.802644310238828
 20
-0.37466615556016347
 10
2.872664709269156
 20
-0.4460590958248255
  0
LWPOLYLINE
  5
1DC
330
17
100
AcDbEntity
  8
A-KRESKOWANIE
370
25
 48
0.05
100
AcDbPolyline
 90
2
 70
0
 10
2.951962749496509
 20
-0.446828753274091
 10
3.023355689761171
 20
-0.3768083542437627
  0
LWPOLYLINE
  5
1DD
330
17
100
AcDbEntity
  8
A-KRESKOWANIE
370
25
 48
0.05
100
AcDbPolyline
 90
2
 70
0
 10
3.052644310238828
 20
-0.3770926261483988
 10
3.122664709269156
 20
-0.4484855664130608
  0
LWPOLYLINE
  5
1DE
330
17
100
AcDbEntity
  8
A-KRESKOWANIE
370
25
 48
0.05
100
AcDbPolyline
 90
2
 70
0
 10
3.201962749496509
 20
-0.44925522386232625
 10
3.273355689761171
 20
-0.37923482483199794
  0
LWPOLYLINE
  5
1DF
330
17
100
AcDbEntity
  8
A-KRESKOWANIE
370
25
 48
0.05
100
AcDbPolyline
 90
2
 70
0
 10
3.302644310238828
 20
-0.37951909673663403
 10
3.372664709269156
 20
-0.45091203700129606
  0
LWPOLYLINE
  5
1E0
330
17
100
AcDbEntity
  8
A-KRESKOWANIE
370
25
 48
0.05
100
AcDbPolyline
 90
2
 70
0
 10
3.451962749496509
 20
-0.4516816944505615
 10
3.523355689761171
 20
-0.3816612954202332
  0
LWPOLYLINE
  5
1E1
330
17
100
AcDbEntity
  8
A-KRESKOWANIE
370
25
 48
0.05
100
AcDbPolyline
 90
2
 70
0
 10
3.552644310238828
 20
-0.3819455673248693
 10
3.622664709269156
 20
-0.4533385075895313
  0
LWPOLYLINE
  5
1E2
330
17
100
AcDbEntity
  8
A-KRESKOWANIE
370
25
 48
0.05
100
AcDbPolyline
 90
2
 70
0
 10
3.701962749496509
 20
-0.4541081650387968
 10
3.773355689761171
 20
-0.3840877660084685
  0
LWPOLYLINE
  5
1E3
330
17
100
AcDbEntity
  8
A-KRESKOWANIE
370
25
 48
0.05
100
AcDbPolyline
 90
2
 70
0
 10
3.802644310238828
 20
-0.3843720379131046
 10
3.872664709269156
 20
-0.4557649781777666
  0
LWPOLYLINE
  5
1E4
330
17
100
AcDbEntity
  8
A-KRESKOWANIE
370
25
 48
0.05
100
AcDbPolyline
 90
2
 70
0
 10
3.951962749496509
 20
-0.4565346356270321
 10
4.02335568976117
 20
-0.3865142365967038
  0
LWPOLYLINE
  5
1E5
330
17
100
AcDbEntity
  8
A-KRESKOWANIE
370
25
 48
0.05
100
AcDbPolyline
 90
2
 70
0
 10
4.052644310238828
 20
-0.3867985085013399
 10
4.122664709269156
 20
-0.45819144876600193
  0
LWPOLYLINE
  5
1E6
330
17
100
AcDbEntity
  8
A-KRESKOWANIE
370
25
 48
0.05
100
AcDbPolyline
 90
2
 70
0
 10
4.201962749496509
 20
-0.45896110621526737
 10
4.27335568976117
 20
-0.38894070718493906
  0
LWPOLYLINE
  5
1E7
330
17
100
AcDbEntity
  8
A-KRESKOWANIE
370
25
 48
0.05
100
AcDbPolyline
 90
2
 70
0
 10
4.302644310238828
 20
-0.38922497908957515
 10
4.372664709269156
 20
-0.4606179193542372
  0
LWPOLYLINE
  5
1E8
330
17
100
AcDbEntity
  8
A-KRESKOWANIE
370
25
 48
0.05
100
AcDbPolyline
 90
2
 70
0
 10
4.451962749496509
 20
-0.4613875768035026
 10
4.52335568976117
 20
-0.3913671777731743
  0
LWPOLYLINE
  5
1E9
330
17
100
AcDbEntity
  8
A-KRESKOWANIE
370
25
 48
0.05
100
AcDbPolyline
 90
2
 70
0
 10
4.552644310238828
 20
-0.3916514496778104
 10
4.622664709269156
 20
-0.46304438994247243
  0
LWPOLYLINE
  5
1EA
330
17
100
AcDbEntity
  8
A-KRESKOWANIE
370
25
 48
0.05
100
AcDbPolyline
 90
2
 70
0
 10
4.701962749496509
 20
-0.4638140473917379
 10
4.77335568976117
 20
-0.3937936483614096
  0
LWPOLYLINE
  5
1EB
330
17
100
AcDbEntity
  8
A-KRESKOWANIE
370
25
 48
0.05
100
AcDbPolyline
 90
2
 70
0
 10
4.802644310238828
 20
-0.3940779202660457
 10
4.872664709269156
 20
-0.46547086053070774
  0
LWPOLYLINE
  5
1EC
330
17
100
AcDbEntity
  8
A-KRESKOWANIE
370
25
 48
0.05
100
AcDbPolyline
 90
2
 70
0
 10
4.951994726073893
 20
-0.4662226810360408
 10
5.0233556262699
 20
-0.39616962883119117
  0
LWPOLYLINE
  5
1ED
330
17
100
AcDbEntity
  8
A-KRESKOWANIE
370
25
 48
0.05
100
AcDbPolyline
 90
2
 70
0
 10
5.052644373730098
 20
-0.3964405018877674
 10
5.122697425934947
 20
-0.4678014020837754
  0
LWPOLYLINE
  5
1EE
330
17
100
AcDbEntity
  8
A-KRESKOWANIE
370
25
 48
0.05
100
AcDbPolyline
 90
2
 70
0
 10
5.20205873401993
 20
-0.468499055726989
 10
5.27335550848046
 20
-0.3983807403484505
  0
LWPOLYLINE
  5
1EF
330
17
100
AcDbEntity
  8
A-KRESKOWANIE
370
25
 48
0.05
100
AcDbPolyline
 90
2
 70
0
 10
5.302644491519539
 20
-0.3986248152071094
 10
5.372762806898077
 20
-0.46992158966764025
  0
LWPOLYLINE
  5
1F0
330
17
100
AcDbEntity
  8
A-KRESKOWANIE
370
25
 48
0.05
100
AcDbPolyline
 90
2
 70
0
 10
5.45205873401993
 20
-0.4705823890603224
 10
5.52335550848046
 20
-0.4004640736817839
  0
LWPOLYLINE
  5
1F1
330
17
100
AcDbEntity
  8
A-KRESKOWANIE
370
25
 48
0.05
100
AcDbPolyline
 90
2
 70
0
 10
5.552644491519539
 20
-0.40070814854044284
 10
5.622762806898077
 20
-0.4720049230009737
  0
LWPOLYLINE
  5
1F2
330
17
100
AcDbEntity
  8
A-KRESKOWANIE
370
25
 48
0.05
100
AcDbPolyline
 90
2
 70
0
 10
5.70205873401993
 20
-0.47266572239365584
 10
5.77335550848046
 20
-0.4025474070151173
  0
LWPOLYLINE
  5
1F3
330
17
100
AcDbEntity
  8
A-KRESKOWANIE
370
25
 48
0.05
100
AcDbPolyline
 90
2
 70
0
 10
5.802644491519539
 20
-0.4027914818737763
 10
5.872762806898077
 20
-0.4740882563343071
  0
LWPOLYLINE
  5
1F4
330
17
100
AcDbEntity
  8
A-KRESKOWANIE
370
25
 48
0.05
100
AcDbPolyline
 90
2
 70
0
 10
5.95205873401993
 20
-0.4747490557269893
 10
6.02335550848046
 20
-0.40463074034845076
  0
LWPOLYLINE
  5
1F5
330
17
100
AcDbEntity
  8
A-KRESKOWANIE
370
25
 48
0.05
100
AcDbPolyline
 90
2
 70
0
 10
6.052644491519539
 20
-0.40487481520710966
 10
6.122762806898077
 20
-0.4761715896676405
  0
LWPOLYLINE
  5
1F6
330
17
100
AcDbEntity
  8
A-KRESKOWANIE
370
25
 48
0.05
100
AcDbPolyline
 90
2
 70
0
 10
6.20205873401993
 20
-0.47683238906032266
 10
6.27335550848046
 20
-0.40671407368178414
  0
LWPOLYLINE
  5
1F7
330
17
100
AcDbEntity
  8
A-KRESKOWANIE
370
25
 48
0.05
100
AcDbPolyline
 90
2
 70
0
 10
6.302644491519539
 20
-0.4069581485404431
 10
6.372762806898077
 20
-0.47825492300097394
  0
LWPOLYLINE
  5
1F8
330
17
100
AcDbEntity
  8
A-KRESKOWANIE
370
25
 48
0.05
100
AcDbPolyline
 90
2
 70
0
 10
6.45205873401993
 20
-0.4789157223936561
 10
6.52335550848046
 20
-0.4087974070151176
  0
LWPOLYLINE
  5
1F9
330
17
100
AcDbEntity
  8
A-KRESKOWANIE
370
25
 48
0.05
100
AcDbPolyline
 90
2
 70
0
 10
6.552644491519539
 20
-0.4090414818737765
 10
6.622762806898077
 20
-0.4803382563343073
  0
LWPOLYLINE
  5
1FA
330
17
100
AcDbEntity
  8
A-KRESKOWANIE
370
25
 48
0.05
100
AcDbPolyline
 90
2
 70
0
 10
6.70205873401993
 20
-0.4809990557269895
 10
6.77335550848046
 20
-0.41088074034845096
  0
LWPOLYLINE
  5
1FB
330
17
100
AcDbEntity
  8
A-KRESKOWANIE
370
25
 48
0.05
100
AcDbPolyline
 90
2
 70
0
 10
6.802644491519539
 20
-0.41112481520710986
 10
6.872762806898077
 20
-0.4824215896676407
  0
LWPOLYLINE
  5
1FC
330
17
100
AcDbEntity
  8
A-KRESKOWANIE
370
25
 48
0.05
100
AcDbPolyline
 90
2
 70
0
 10
6.95205873401993
 20
-0.48308238906032286
 10
7.02335550848046
 20
-0.41296407368178434
  0
LWPOLYLINE
  5
1FD
330
17
100
AcDbEntity
  8
A-KRESKOWANIE
370
25
 48
0.05
100
AcDbPolyline
 90
2
 70
0
 10
7.052644491519539
 20
-0.4132081485404433
 10
7.122762806898077
 20
-0.48450492300097414
  0
LWPOLYLINE
  5
1FE
330
17
100
AcDbEntity
  8
A-KRESKOWANIE
370
25
 48
0.05
100
AcDbPolyline
 90
2
 70
0
 10
7.20205873401993
 20
-0.4851657223936563
 10
7.27335550848046
 20
-0.4150474070151178
  0
LWPOLYLINE
  5
1FF
330
17
100
AcDbEntity
  8
A-KRESKOWANIE
370
25
 48
0.05
100
AcDbPolyline
 90
2
 70
0
 10
7.302644491519539
 20
-0.41529148187377674
 10
7.372762806898077
 20
-0.4865882563343076
  0
LWPOLYLINE
  5
200
330
17
100
AcDbEntity
  8
A-KRESKOWANIE
370
25
 48
0.05
100
AcDbPolyline
 90
2
 70
0
 10
7.45205873401993
 20
-0.48724905572698973
 10
7.52335550848046
 20
-0.4171307403484512
  0
LWPOLYLINE
  5
201
330
17
100
AcDbEntity
  8
A-KRESKOWANIE
370
25
 48
0.05
100
AcDbPolyline
 90
2
 70
0
 10
7.552644491519539
 20
-0.4173748152071101
 10
7.622762806898077
 20
-0.48867158966764096
  0
LWPOLYLINE
  5
202
330
17
100
AcDbEntity
  8
A-KRESKOWANIE
370
25
 48
0.05
100
AcDbPolyline
 90
2
 70
0
 10
7.70205873401993
 20
-0.4893323890603231
 10
7.77335550848046
 20
-0.4192140736817846
  0
LWPOLYLINE
  5
203
330
17
100
AcDbEntity
  8
A-KRESKOWANIE
370
25
 48
0.05
100
AcDbPolyline
 90
2
 70
0
 10
7.802644491519539
 20
-0.41945814854044355
 10
7.872762806898077
 20
-0.4907549230009744
  0
LWPOLYLINE
  5
204
330
17
100
AcDbEntity
  8
A-KRESKOWANIE
370
25
 48
0.05
100
AcDbPolyline
 90
2
 70
0
 10
7.952058734019931
 20
-0.49141572239365655
 10
8.023355508480462
 20
-0.42129740701511803
  0
LWPOLYLINE
  5
205
330
17
100
AcDbEntity
  8
A-KRESKOWANIE
370
25
 48
0.05
100
AcDbPolyline
 90
2
 70
0
 10
8.052644491519539
 20
-0.421541481873777
 10
8.122762806898079
 20
-0.49283825633430783
  0
LWPOLYLINE
  5
206
330
17
100
AcDbEntity
  8
A-KRESKOWANIE
370
25
 48
0.05
100
AcDbPolyline
 90
2
 70
0
 10
8.20205873401993
 20
-0.49349905572699
 10
8.273355508480462
 20
-0.42338074034845147
  0
LWPOLYLINE
  5
207
330
17
100
AcDbEntity
  8
A-KRESKOWANIE
370
25
 48
0.05
100
AcDbPolyline
 90
2
 70
0
 10
8.302644491519539
 20
-0.4236248152071104
 10
8.372762806898079
 20
-0.4949215896676412
  0
LWPOLYLINE
  5
208
330
17
100
AcDbEntity
  8
A-KRESKOWANIE
370
25
 48
0.05
100
AcDbPolyline
 90
2
 70
0
 10
8.45205873401993
 20
-0.49558238906032337
 10
8.523355508480462
 20
-0.42546407368178485
  0
LWPOLYLINE
  5
209
330
17
100
AcDbEntity
  8
A-KRESKOWANIE
370
25
 48
0.05
100
AcDbPolyline
 90
2
 70
0
 10
8.552644491519539
 20
-0.4257081485404438
 10
8.622762806898079
 20
-0.49700492300097465
  0
LWPOLYLINE
  5
20A
330
17
100
AcDbEntity
  8
A-KRESKOWANIE
370
25
 48
0.05
100
AcDbPolyline
 90
2
 70
0
 10
8.70205873401993
 20
-0.4976657223936568
 10
8.773355508480462
 20
-0.4275474070151183
  0
LWPOLYLINE
  5
20B
330
17
100
AcDbEntity
  8
A-KRESKOWANIE
370
25
 48
0.05
100
AcDbPolyline
 90
2
 70
0
 10
8.802644491519539
 20
-0.4277914818737772
 10
8.872762806898079
 20
-0.49908825633430803
  0
LWPOLYLINE
  5
20C
330
17
100
AcDbEntity
  8
A-OSIE
  6
PUNKTOWA
370
35
 48
0.02777777777777778
100
AcDbPolyline
 90
2
 70
128
 10
-4.0
 20
-1.0287111111111145
 10
-4.0
 20
-0.5037111111111144
  0
LWPOLYLINE
  5
20D
330
17
100
AcDbEntity
  8
A-OSIE
  6
PUNKTOWA
370
35
 48
0.02777777777777778
100
AcDbPolyline
 90
2
 70
128
 10
-0.5
 20
-1.0287111111111145
 10
-0.5
 20
-0.5037111111111144
  0
LWPOLYLINE
  5
20E
330
17
100
AcDbEntity
  8
A-OSIE
  6
PUNKTOWA
370
35
 48
0.02777777777777778
100
AcDbPolyline
 90
2
 70
128
 10
0.7999999999999998
 20
-1.0287111111111145
 10
0.7999999999999998
 20
-0.5037111111111144
  0
LWPOLYLINE
  5
20F
330
17
100
AcDbEntity
  8
A-OSIE
  6
PUNKTOWA
370
35
 48
0.02777777777777778
100
AcDbPolyline
 90
2
 70
128
 10
4.0
 20
-1.0287111111111145
 10
4.0
 20
-0.5037111111111144
  0
HATCH
  5
210
330
17
100
AcDbEntity
  8
A-OSIE
 62
7
420
16777215
100
AcDbHatch
 10
0.0
 20
0.0
 30
0.0
210
0.0
220
0.0
230
1.0
  2
SOLID
 70
1
 71
0
 91
1
 92
3
 72
0
 73
1
 93
48
 10
-3.75
 20
-1.2787111111111145
 10
-3.7521387846565473
 20
-1.2460795630561017
 10
-3.758518543427733
 20
-1.2140063498354843
 10
-3.7690301168721785
 20
-1.183040253019842
 10
-3.78349364905389
 20
-1.1537111111111145
 10
-3.8016616649271913
 20
-1.1265207538589344
 10
-3.823223304703363
 20
-1.1019344158144775
 10
-3.8478096427478197
 20
-1.0803727760383057
 10
-3.875
 20
-1.0622047601650049
 10
-3.9043291419087276
 20
-1.0477412279832927
 10
-3.9352952387243696
 20
-1.0372296545388475
 10
-3.967368451944987
 20
-1.030849895767662
 10
-4.0
 20
-1.0287111111111145
 10
-4.032631548055013
 20
-1.0308498957676617
 10
-4.06470476127563
 20
-1.0372296545388473
 10
-4.095670858091272
 20
-1.0477412279832927
 10
-4.125
 20
-1.0622047601650049
 10
-4.15219035725218
 20
-1.0803727760383057
 10
-4.1767766952966365
 20
-1.1019344158144775
 10
-4.198338335072809
 20
-1.1265207538589341
 10
-4.216506350946109
 20
-1.1537111111111145
 10
-4.2309698831278215
 20
-1.183040253019842
 10
-4.241481456572267
 20
-1.2140063498354843
 10
-4.247861215343453
 20
-1.2460795630561015
 10
-4.25
 20
-1.2787111111111145
 10
-4.247861215343453
 20
-1.3113426591661272
 10
-4.241481456572267
 20
-1.3434158723867446
 10
-4.2309698831278215
 20
-1.3743819692023869
 10
-4.216506350946109
 20
-1.4037111111111145
 10
-4.198338335072809
 20
-1.4309014683632946
 10
-4.1767766952966365
 20
-1.4554878064077512
 10
-4.15219035725218
 20
-1.4770494461839232
 10
-4.125
 20
-1.495217462057224
 10
-4.095670858091273
 20
-1.509680994238936
 10
-4.06470476127563
 20
-1.5201925676833814
 10
-4.032631548055013
 20
-1.526572326454567
 10
-4.0
 20
-1.5287111111111145
 10
-3.967368451944987
 20
-1.5265723264545672
 10
-3.93529523872437
 20
-1.5201925676833816
 10
-3.9043291419087276
 20
-1.5096809942389362
 10
-3.875
 20
-1.4952174620572243
 10
-3.84780964274782
 20
-1.4770494461839234
 10
-3.823223304703363
 20
-1.4554878064077514
 10
-3.8016616649271913
 20
-1.4309014683632948
 10
-3.7834936490538906
 20
-1.4037111111111145
 10
-3.7690301168721785
 20
-1.374381969202387
 10
-3.758518543427733
 20
-1.3434158723867449
 10
-3.7521387846565473
 20
-1.3113426591661277
 97
0
 75
0
 76
1
 98
0
  0
HATCH
  5
211
330
17
100
AcDbEntity
  8
A-OSIE
 62
7
420
16777215
100
AcDbHatch
 10
0.0
 20
0.0
 30
0.0
210
0.0
220
0.0
230
1.0
  2
SOLID
 70
1
 71
0
 91
1
 92
3
 72
0
 73
1
 93
48
 10
-0.25
 20
-1.2787111111111145
 10
-0.2521387846565474
 20
-1.2460795630561017
 10
-0.25851854342773295
 20
-1.2140063498354843
 10
-0.2690301168721783
 20
-1.183040253019842
 10
-0.2834936490538903
 20
-1.1537111111111145
 10
-0.30166166492719115
 20
-1.1265207538589344
 10
-0.32322330470336313
 20
-1.1019344158144775
 10
-0.34780964274781984
 20
-1.0803727760383057
 10
-0.375
 20
-1.0622047601650049
 10
-0.40432914190872754
 20
-1.0477412279832927
 10
-0.43529523872436976
 20
-1.0372296545388475
 10
-0.46736845194498705
 20
-1.030849895767662
 10
-0.5
 20
-1.0287111111111145
 10
-0.5326315480550129
 20
-1.0308498957676617
 10
-0.5647047612756302
 20
-1.0372296545388473
 10
-0.5956708580912724
 20
-1.0477412279832927
 10
-0.625
 20
-1.0622047601650049
 10
-0.6521903572521801
 20
-1.0803727760383057
 10
-0.6767766952966369
 20
-1.1019344158144775
 10
-0.6983383350728087
 20
-1.1265207538589341
 10
-0.7165063509461096
 20
-1.1537111111111145
 10
-0.7309698831278217
 20
-1.183040253019842
 10
-0.741481456572267
 20
-1.2140063498354843
 10
-0.7478612153434526
 20
-1.2460795630561015
 10
-0.75
 20
-1.2787111111111145
 10
-0.7478612153434526
 20
-1.3113426591661272
 10
-0.7414814565722672
 20
-1.3434158723867446
 10
-0.7309698831278217
 20
-1.3743819692023869
 10
-0.7165063509461097
 20
-1.4037111111111145
 10
-0.6983383350728088
 20
-1.4309014683632946
 10
-0.676776695296637
 20
-1.4554878064077512
 10
-0.6521903572521802
 20
-1.4770494461839232
 10
-0.6250000000000001
 20
-1.495217462057224
 10
-0.5956708580912726
 20
-1.509680994238936
 10
-0.5647047612756304
 20
-1.5201925676833814
 10
-0.5326315480550131
 20
-1.526572326454567
 10
-0.5
 20
-1.5287111111111145
 10
-0.46736845194498716
 20
-1.5265723264545672
 10
-0.4352952387243699
 20
-1.5201925676833816
 10
-0.4043291419087277
 20
-1.5096809942389362
 10
-0.37500000000000017
 20
-1.4952174620572243
 10
-0.34780964274782
 20
-1.4770494461839234
 10
-0.32322330470336313
 20
-1.4554878064077514
 10
-0.30166166492719126
 20
-1.4309014683632948
 10
-0.2834936490538904
 20
-1.4037111111111145
 10
-0.26903011687217837
 20
-1.374381969202387
 10
-0.25851854342773295
 20
-1.3434158723867449
 10
-0.25213878465654743
 20
-1.3113426591661277
 97
0
 75
0
 76
1
 98
0
  0
HATCH
  5
212
330
17
100
AcDbEntity
  8
A-OSIE
 62
7
420
16777215
100
AcDbHatch
 10
0.0
 20
0.0
 30
0.0
210
0.0
220
0.0
230
1.0
  2
SOLID
 70
1
 71
0
 91
1
 92
3
 72
0
 73
1
 93
48
 10
1.0499999999999998
 20
-1.2787111111111145
 10
1.0478612153434523
 20
-1.2460795630561017
 10
1.041481456572267
 20
-1.2140063498354843
 10
1.0309698831278216
 20
-1.183040253019842
 10
1.0165063509461094
 20
-1.1537111111111145
 10
0.9983383350728087
 20
-1.1265207538589344
 10
0.9767766952966367
 20
-1.1019344158144775
 10
0.9521903572521799
 20
-1.0803727760383057
 10
0.9249999999999998
 20
-1.0622047601650049
 10
0.8956708580912722
 20
-1.0477412279832927
 10
0.86470476127563
 20
-1.0372296545388475
 10
0.8326315480550127
 20
-1.030849895767662
 10
0.7999999999999998
 20
-1.0287111111111145
 10
0.7673684519449869
 20
-1.0308498957676617
 10
0.7352952387243696
 20
-1.0372296545388473
 10
0.7043291419087274
 20
-1.0477412279832927
 10
0.6749999999999998
 20
-1.0622047601650049
 10
0.6478096427478197
 20
-1.0803727760383057
 10
0.623223304703363
 20
-1.1019344158144775
 10
0.6016616649271911
 20
-1.1265207538589341
 10
0.5834936490538902
 20
-1.1537111111111145
 10
0.5690301168721781
 20
-1.183040253019842
 10
0.5585185434277328
 20
-1.2140063498354843
 10
0.5521387846565472
 20
-1.2460795630561015
 10
0.5499999999999998
 20
-1.2787111111111145
 10
0.5521387846565472
 20
-1.3113426591661272
 10
0.5585185434277327
 20
-1.3434158723867446
 10
0.5690301168721781
 20
-1.3743819692023869
 10
0.5834936490538901
 20
-1.4037111111111145
 10
0.601661664927191
 20
-1.4309014683632946
 10
0.6232233047033628
 20
-1.4554878064077512
 10
0.6478096427478196
 20
-1.4770494461839232
 10
0.6749999999999997
 20
-1.495217462057224
 10
0.7043291419087272
 20
-1.509680994238936
 10
0.7352952387243694
 20
-1.5201925676833814
 10
0.7673684519449867
 20
-1.526572326454567
 10
0.7999999999999998
 20
-1.5287111111111145
 10
0.8326315480550126
 20
-1.5265723264545672
 10
0.8647047612756299
 20
-1.5201925676833816
 10
0.8956708580912721
 20
-1.5096809942389362
 10
0.9249999999999996
 20
-1.4952174620572243
 10
0.9521903572521798
 20
-1.4770494461839234
 10
0.9767766952966367
 20
-1.4554878064077514
 10
0.9983383350728086
 20
-1.4309014683632948
 10
1.0165063509461094
 20
-1.4037111111111145
 10
1.0309698831278213
 20
-1.374381969202387
 10
1.0414814565722668
 20
-1.3434158723867449
 10
1.0478612153434523
 20
-1.3113426591661277
 97
0
 75
0
 76
1
 98
0
  0
HATCH
  5
213
330
17
100
AcDbEntity
  8
A-OSIE
 62
7
420
16777215
100
AcDbHatch
 10
0.0
 20
0.0
 30
0.0
210
0.0
220
0.0
230
1.0
  2
SOLID
 70
1
 71
0
 91
1
 92
3
 72
0
 73
1
 93
48
 10
4.25
 20
-1.2787111111111145
 10
4.247861215343453
 20
-1.2460795630561017
 10
4.241481456572267
 20
-1.2140063498354843
 10
4.2309698831278215
 20
-1.183040253019842
 10
4.216506350946109
 20
-1.1537111111111145
 10
4.198338335072809
 20
-1.1265207538589344
 10
4.1767766952966365
 20
-1.1019344158144775
 10
4.15219035725218
 20
-1.0803727760383057
 10
4.125
 20
-1.0622047601650049
 10
4.095670858091273
 20
-1.0477412279832927
 10
4.06470476127563
 20
-1.0372296545388475
 10
4.032631548055013
 20
-1.030849895767662
 10
4.0
 20
-1.0287111111111145
 10
3.967368451944987
 20
-1.0308498957676617
 10
3.93529523872437
 20
-1.0372296545388473
 10
3.9043291419087276
 20
-1.0477412279832927
 10
3.875
 20
-1.0622047601650049
 10
3.84780964274782
 20
-1.0803727760383057
 10
3.823223304703363
 20
-1.1019344158144775
 10
3.8016616649271913
 20
-1.1265207538589341
 10
3.78349364905389
 20
-1.1537111111111145
 10
3.7690301168721785
 20
-1.183040253019842
 10
3.758518543427733
 20
-1.2140063498354843
 10
3.7521387846565473
 20
-1.2460795630561015
 10
3.75
 20
-1.2787111111111145
 10
3.7521387846565473
 20
-1.3113426591661272
 10
3.758518543427733
 20
-1.3434158723867446
 10
3.7690301168721785
 20
-1.3743819692023869
 10
3.78349364905389
 20
-1.4037111111111145
 10
3.8016616649271913
 20
-1.4309014683632946
 10
3.823223304703363
 20
-1.4554878064077512
 10
3.8478096427478197
 20
-1.4770494461839232
 10
3.875
 20
-1.495217462057224
 10
3.9043291419087276
 20
-1.509680994238936
 10
3.9352952387243696
 20
-1.5201925676833814
 10
3.9673684519449868
 20
-1.526572326454567
 10
4.0
 20
-1.5287111111111145
 10
4.032631548055013
 20
-1.5265723264545672
 10
4.06470476127563
 20
-1.5201925676833816
 10
4.095670858091272
 20
-1.5096809942389362
 10
4.125
 20
-1.4952174620572243
 10
4.15219035725218
 20
-1.4770494461839234
 10
4.1767766952966365
 20
-1.4554878064077514
 10
4.198338335072808
 20
-1.4309014683632948
 10
4.216506350946109
 20
-1.4037111111111145
 10
4.2309698831278215
 20
-1.374381969202387
 10
4.241481456572267
 20
-1.3434158723867449
 10
4.247861215343453
 20
-1.3113426591661277
 97
0
 75
0
 76
1
 98
0
  0
CIRCLE
  5
214
330
17
100
AcDbEntity
  8
A-OSIE
  6
Continuous
370
35
 48
0.05
100
AcDbCircle
 10
-4.0
 20
-1.2787111111111145
 30
0.0
 40
0.25
  0
CIRCLE
  5
215
330
17
100
AcDbEntity
  8
A-OSIE
  6
Continuous
370
35
 48
0.05
100
AcDbCircle
 10
-0.5
 20
-1.2787111111111145
 30
0.0
 40
0.25
  0
CIRCLE
  5
216
330
17
100
AcDbEntity
  8
A-OSIE
  6
Continuous
370
35
 48
0.05
100
AcDbCircle
 10
0.7999999999999998
 20
-1.2787111111111145
 30
0.0
 40
0.25
  0
CIRCLE
  5
217
330
17
100
AcDbEntity
  8
A-OSIE
  6
Continuous
370
35
 48
0.05
100
AcDbCircle
 10
4.0
 20
-1.2787111111111145
 30
0.0
 40
0.25
  0
TEXT
  5
218
330
17
100
AcDbEntity
  8
A-OSIE
100
AcDbText
 10
-4.070727344992051
 20
-1.3662111111111144
 30
0.0
 40
0.17500000000000002
  1
4
  7
PL_ARIAL
 11
-4.070727344992051
 21
-1.3662111111111144
 31
0.0
100
AcDbText
  0
TEXT
  5
219
330
17
100
AcDbEntity
  8
A-OSIE
100
AcDbText
 10
-0.5707273449920509
 20
-1.3662111111111144
 30
0.0
 40
0.17500000000000002
  1
3
  7
PL_ARIAL
 11
-0.5707273449920509
 21
-1.3662111111111144
 31
0.0
100
AcDbText
  0
TEXT
  5
21A
330
17
100
AcDbEntity
  8
A-OSIE
100
AcDbText
 10
0.7292726550079489
 20
-1.3662111111111144
 30
0.0
 40
0.17500000000000002
  1
2
  7
PL_ARIAL
 11
0.7292726550079489
 21
-1.3662111111111144
 31
0.0
100
AcDbText
  0
TEXT
  5
21B
330
17
100
AcDbEntity
  8
A-OSIE
100
AcDbText
 10
3.9292726550079493
 20
-1.3662111111111144
 30
0.0
 40
0.17500000000000002
  1
1
  7
PL_ARIAL
 11
3.9292726550079493
 21
-1.3662111111111144
 31
0.0
100
AcDbText
  0
LWPOLYLINE
  5
21C
330
17
100
AcDbEntity
  8
A-ELEWACJE
370
35
 48
0.05
100
AcDbPolyline
 90
5
 70
0
 10
1.185
 20
0.8750000000000001
 10
1.185
 20
0.904
 10
2.7150000000000003
 20
0.904
 10
2.7150000000000003
 20
0.8750000000000001
 10
1.185
 20
0.8750000000000001
  0
LWPOLYLINE
  5
21D
330
17
100
AcDbEntity
  8
A-ELEWACJE
370
35
 48
0.05
100
AcDbPolyline
 90
5
 70
0
 10
1.5850000000000002
 20
3.9350000000000005
 10
1.5850000000000002
 20
3.9640000000000004
 10
3.015
 20
3.9640000000000004
 10
3.015
 20
3.9350000000000005
 10
1.5850000000000002
 20
3.9350000000000005
  0
LWPOLYLINE
  5
21E
330
17
100
AcDbEntity
  8
A-ELEWACJE
370
35
 48
0.05
100
AcDbPolyline
 90
5
 70
0
 10
4.377000000000001
 20
3.2100000000000004
 10
4.377000000000001
 20
3.2700000000000005
 10
4.417000000000001
 20
3.2700000000000005
 10
4.417000000000001
 20
3.2100000000000004
 10
4.377000000000001
 20
3.2100000000000004
  0
LWPOLYLINE
  5
21F
330
17
100
AcDbEntity
  8
A-ELEWACJE
370
35
 48
0.05
100
AcDbPolyline
 90
5
 70
0
 10
4.377000000000001
 20
6.24
 10
4.377000000000001
 20
6.300000000000001
 10
4.417000000000001
 20
6.300000000000001
 10
4.417000000000001
 20
6.24
 10
4.377000000000001
 20
6.24
  0
LWPOLYLINE
  5
220
330
17
100
AcDbEntity
  8
A-ELEWACJE
370
35
 48
0.05
100
AcDbPolyline
 90
8
 70
0
 10
-4.297
 20
-0.30536
 10
-4.297
 20
2.91
 10
-4.297
 20
6.4935
 10
1.6
 20
6.4935
 10
3.0
 20
6.4935
 10
4.297
 20
6.4935
 10
4.297
 20
2.91
 10
4.297
 20
-0.38877
  0
LWPOLYLINE
  5
221
330
17
100
AcDbEntity
  8
A-ELEWACJE
370
35
 48
0.05
100
AcDbPolyline
 90
4
 70
0
 10
2.688
 20
0.9044
 10
2.688
 20
2.388
 10
1.212
 20
2.388
 10
1.212
 20
0.9044
  0
LWPOLYLINE
  5
222
330
17
100
AcDbEntity
  8
A-ELEWACJE
370
35
 48
0.05
100
AcDbPolyline
 90
4
 70
0
 10
2.988
 20
3.9644
 10
2.988
 20
5.448
 10
1.612
 20
5.448
 10
1.612
 20
3.9644
  0
LWPOLYLINE
  5
223
330
17
100
AcDbEntity
  8
A-ELEWACJE
370
35
 48
0.05
100
AcDbPolyline
 90
6
 70
0
 10
4.417
 20
6.3004
 10
4.417
 20
6.45
 10
4.537
 20
6.45
 10
4.537
 20
3.06
 10
4.417
 20
3.06
 10
4.417
 20
3.2096
  0
LWPOLYLINE
  5
224
330
17
100
AcDbEntity
  8
A-ELEWACJE
370
35
 48
0.05
100
AcDbPolyline
 90
2
 70
0
 10
4.417
 20
3.2704
 10
4.417
 20
6.2396
  0
LWPOLYLINE
  5
225
330
17
100
AcDbEntity
  8
A-ELEWACJE
370
35
 48
0.05
100
AcDbPolyline
 90
4
 70
0
 10
-4.22
 20
6.4939
 10
-4.22
 20
6.5135
 10
4.22
 20
6.5135
 10
4.22
 20
6.4939
  0
LWPOLYLINE
  5
226
330
17
100
AcDbEntity
  8
A-ELEWACJE
370
35
 48
0.05
100
AcDbPolyline
 90
5
 70
0
 10
2.625
 20
0.975
 10
2.625
 20
2.325
 10
1.275
 20
2.325
 10
1.275
 20
0.975
 10
2.625
 20
0.975
  0
LWPOLYLINE
  5
227
330
17
100
AcDbEntity
  8
A-ELEWACJE
370
35
 48
0.05
100
AcDbPolyline
 90
5
 70
0
 10
2.925
 20
4.035
 10
2.925
 20
5.385
 10
1.675
 20
5.385
 10
1.675
 20
4.035
 10
2.925
 20
4.035
  0
LWPOLYLINE
  5
228
330
17
100
AcDbEntity
  8
A-ELEWACJE
370
35
 48
0.05
100
AcDbPolyline
 90
4
 70
0
 10
-4.2974
 20
3.935
 10
-4.337
 20
3.935
 10
-4.337
 20
3.964
 10
-4.2974
 20
3.964
  0
LWPOLYLINE
  5
229
330
17
100
AcDbEntity
  8
A-ELEWACJE
370
35
 48
0.05
100
AcDbPolyline
 90
4
 70
0
 10
4.2974
 20
3.864
 10
4.337
 20
3.864
 10
4.337
 20
3.835
 10
4.2974
 20
3.835
  0
LWPOLYLINE
  5
22A
330
17
100
AcDbEntity
  8
A-ELEWACJE
370
35
 48
0.05
100
AcDbPolyline
 90
4
 70
0
 10
4.2974
 20
0.904
 10
4.337
 20
0.904
 10
4.337
 20
0.875
 10
4.2974
 20
0.875
  0
LWPOLYLINE
  5
22B
330
17
100
AcDbEntity
  8
A-ELEWACJE
370
35
 48
0.05
100
AcDbPolyline
 90
4
 70
0
 10
4.2974
 20
-0.02
 10
7.3
 20
-0.02
 10
7.3
 20
-0.05
 10
4.2974
 20
-0.05
  0
LWPOLYLINE
  5
22C
330
17
100
AcDbEntity
  8
A-ELEWACJE
370
35
 48
0.05
100
AcDbPolyline
 90
2
 70
0
 10
7.3
 20
-0.0504
 10
7.3
 20
-0.41487
  0
LWPOLYLINE
  5
22D
330
17
100
AcDbEntity
  8
A-ELEWACJE
370
35
 48
0.05
100
AcDbPolyline
 90
4
 70
0
 10
-4.2974
 20
0.975
 10
-4.337
 20
0.975
 10
-4.337
 20
1.004
 10
-4.2974
 20
1.004
  0
LWPOLYLINE
  5
22E
330
17
100
AcDbEntity
  8
A-ELEWACJE
370
35
 48
0.05
100
AcDbPolyline
 90
4
 70
0
 10
-4.2974
 20
4.335
 10
-4.337
 20
4.335
 10
-4.337
 20
4.364
 10
-4.2974
 20
4.364
  0
LWPOLYLINE
  5
22F
330
17
100
AcDbEntity
  8
A-ELEWACJE
370
50
 48
0.05
100
AcDbPolyline
 90
54
 70
0
 10
-4.297000000000001
 20
-0.30475779603629066
 10
-4.297000000000001
 20
0.0
 10
-4.297000000000001
 20
0.9750000000000001
 10
-4.337000000000001
 20
0.9750000000000001
 10
-4.337000000000001
 20
1.004
 10
-4.297000000000001
 20
1.004
 10
-4.297000000000001
 20
2.188
 10
-4.297000000000001
 20
2.2
 10
-4.297000000000001
 20
2.2880000000000003
 10
-4.297000000000001
 20
2.3000000000000003
 10
-4.297000000000001
 20
2.91
 10
-4.297000000000001
 20
3.9350000000000005
 10
-4.337000000000001
 20
3.9350000000000005
 10
-4.337000000000001
 20
3.9640000000000004
 10
-4.297000000000001
 20
3.9640000000000004
 10
-4.297000000000001
 20
4.335
 10
-4.337000000000001
 20
4.335
 10
-4.337000000000001
 20
4.364000000000001
 10
-4.297000000000001
 20
4.364000000000001
 10
-4.297000000000001
 20
5.348000000000001
 10
-4.297000000000001
 20
5.36
 10
-4.297000000000001
 20
5.448
 10
-4.297000000000001
 20
5.460000000000001
 10
-4.297000000000001
 20
6.493500000000001
 10
-4.29
 20
6.493500000000001
 10
-4.220000000000001
 20
6.493500000000001
 10
-4.220000000000001
 20
6.5135000000000005
 10
-3.8100000000000005
 20
6.5135000000000005
 10
3.8100000000000005
 20
6.5135000000000005
 10
4.220000000000001
 20
6.5135000000000005
 10
4.220000000000001
 20
6.493500000000001
 10
4.29
 20
6.493500000000001
 10
4.297000000000001
 20
6.493500000000001
 10
4.297000000000001
 20
5.460000000000001
 10
4.297000000000001
 20
5.448
 10
4.297000000000001
 20
3.8640000000000003
 10
4.337000000000001
 20
3.8640000000000003
 10
4.337000000000001
 20
3.8350000000000004
 10
4.297000000000001
 20
3.8350000000000004
 10
4.297000000000001
 20
3.06
 10
4.297000000000001
 20
2.91
 10
4.297000000000001
 20
2.6
 10
4.297000000000001
 20
2.588
 10
4.297000000000001
 20
2.4000000000000004
 10
4.297000000000001
 20
2.3880000000000003
 10
4.297000000000001
 20
0.904
 10
4.337000000000001
 20
0.904
 10
4.337000000000001
 20
0.8750000000000001
 10
4.297000000000001
 20
0.8750000000000001
 10
4.297000000000001
 20
0.0
 10
4.297000000000001
 20
-0.02
 10
7.300000000000001
 20
-0.02
 10
7.300000000000001
 20
-0.05
 10
7.300000000000001
 20
-0.41426940972282783
  0
LWPOLYLINE
  5
230
330
17
100
AcDbEntity
  8
A-ELEWACJE
370
50
 48
0.05
100
AcDbPolyline
 90
13
 70
0
 10
4.377000000000001
 20
6.24
 10
4.377000000000001
 20
6.300000000000001
 10
4.417000000000001
 20
6.300000000000001
 10
4.417000000000001
 20
6.45
 10
4.537000000000001
 20
6.45
 10
4.537000000000001
 20
3.06
 10
4.417000000000001
 20
3.06
 10
4.417000000000001
 20
3.2100000000000004
 10
4.377000000000001
 20
3.2100000000000004
 10
4.377000000000001
 20
3.2700000000000005
 10
4.417000000000001
 20
3.2700000000000005
 10
4.417000000000001
 20
6.24
 10
4.377000000000001
 20
6.24
  0
LWPOLYLINE
  5
231
330
17
100
AcDbEntity
  8
A-ELEWACJE
  6
KRESKOWA
370
25
 48
0.05
100
AcDbPolyline
 90
2
 70
128
 10
1.8150000000000002
 20
1.2449999999999999
 10
1.2750000000000004
 20
0.975
  0
LWPOLYLINE
  5
232
330
17
100
AcDbEntity
  8
A-ELEWACJE
  6
KRESKOWA
370
25
 48
0.05
100
AcDbPolyline
 90
2
 70
128
 10
2.1750000000000003
 20
1.425
 10
1.8150000000000002
 20
1.2449999999999999
  0
LWPOLYLINE
  5
233
330
17
100
AcDbEntity
  8
A-ELEWACJE
  6
KRESKOWA
370
25
 48
0.05
100
AcDbPolyline
 90
3
 70
128
 10
1.8150000000000002
 20
1.2449999999999999
 10
1.2750000000000004
 20
2.3249999999999997
 10
2.355
 20
1.785
  0
LWPOLYLINE
  5
234
330
17
100
AcDbEntity
  8
A-ELEWACJE
  6
KRESKOWA
370
25
 48
0.05
100
AcDbPolyline
 90
3
 70
128
 10
1.8150000000000002
 20
1.2449999999999999
 10
1.9500000000000002
 20
0.975
 10
2.1750000000000003
 20
1.425
  0
LWPOLYLINE
  5
235
330
17
100
AcDbEntity
  8
A-ELEWACJE
  6
KRESKOWA
370
25
 48
0.05
100
AcDbPolyline
 90
3
 70
128
 10
2.355
 20
1.785
 10
2.625
 20
1.65
 10
2.1750000000000003
 20
1.425
  0
LWPOLYLINE
  5
236
330
17
100
AcDbEntity
  8
A-ELEWACJE
  6
KRESKOWA
370
25
 48
0.05
100
AcDbPolyline
 90
2
 70
128
 10
2.1750000000000003
 20
1.425
 10
2.355
 20
1.785
  0
LWPOLYLINE
  5
237
330
17
100
AcDbEntity
  8
A-ELEWACJE
  6
KRESKOWA
370
25
 48
0.05
100
AcDbPolyline
 90
2
 70
128
 10
2.355
 20
1.785
 10
2.625
 20
2.3249999999999997
  0
LWPOLYLINE
  5
238
330
17
100
AcDbEntity
  8
A-ELEWACJE
  6
KRESKOWA
370
25
 48
0.05
100
AcDbPolyline
 90
2
 70
128
 10
2.175
 20
4.305
 10
1.675
 20
4.035
  0
LWPOLYLINE
  5
239
330
17
100
AcDbEntity
  8
A-ELEWACJE
  6
KRESKOWA
370
25
 48
0.05
100
AcDbPolyline
 90
2
 70
128
 10
1.675
 20
5.384999999999999
 10
2.175
 20
4.305
  0
LWPOLYLINE
  5
23A
330
17
100
AcDbEntity
  8
A-ELEWACJE
  6
KRESKOWA
370
25
 48
0.05
100
AcDbPolyline
 90
2
 70
128
 10
1.675
 20
5.385
 10
2.675
 20
4.845
  0
LWPOLYLINE
  5
23B
330
17
100
AcDbEntity
  8
A-ELEWACJE
  6
KRESKOWA
370
25
 48
0.05
100
AcDbPolyline
 90
2
 70
128
 10
2.5083333333333333
 20
4.485
 10
2.175
 20
4.305
  0
LWPOLYLINE
  5
23C
330
17
100
AcDbEntity
  8
A-ELEWACJE
  6
KRESKOWA
370
25
 48
0.05
100
AcDbPolyline
 90
3
 70
128
 10
2.175
 20
4.305
 10
2.3
 20
4.035
 10
2.5083333333333333
 20
4.485
  0
LWPOLYLINE
  5
23D
330
17
100
AcDbEntity
  8
A-ELEWACJE
  6
KRESKOWA
370
25
 48
0.05
100
AcDbPolyline
 90
3
 70
128
 10
2.675
 20
4.845
 10
2.925
 20
4.71
 10
2.5083333333333333
 20
4.485
  0
LWPOLYLINE
  5
23E
330
17
100
AcDbEntity
  8
A-ELEWACJE
  6
KRESKOWA
370
25
 48
0.05
100
AcDbPolyline
 90
2
 70
128
 10
2.5083333333333333
 20
4.485
 10
2.675
 20
4.845
  0
LWPOLYLINE
  5
23F
330
17
100
AcDbEntity
  8
A-ELEWACJE
  6
KRESKOWA
370
25
 48
0.05
100
AcDbPolyline
 90
2
 70
128
 10
2.675
 20
4.845
 10
2.925
 20
5.385
  0
LWPOLYLINE
  5
240
330
17
100
AcDbEntity
  8
A-TEREN
370
140
 48
0.05
100
AcDbPolyline
 90
60
 70
0
 10
-5.837000000000001
 20
-0.2908107843137282
 10
-5.587000000000001
 20
-0.2932372549019635
 10
-5.337000000000001
 20
-0.29566372549019876
 10
-5.087000000000001
 20
-0.298090196078434
 10
-4.837000000000001
 20
-0.3005166666666693
 10
-4.587000000000001
 20
-0.3029431372549046
 10
-4.337000000000001
 20
-0.30536960784313993
 10
-4.087000000000001
 20
-0.30779607843137513
 10
-3.8370000000000006
 20
-0.3102225490196105
 10
-3.5870000000000006
 20
-0.31264901960784575
 10
-3.3370000000000006
 20
-0.315075490196081
 10
-3.0870000000000006
 20
-0.31750196078431625
 10
-2.8370000000000006
 20
-0.3199284313725516
 10
-2.5870000000000006
 20
-0.32235490196078687
 10
-2.3370000000000006
 20
-0.3247813725490221
 10
-2.0870000000000006
 20
-0.3272078431372574
 10
-1.8370000000000006
 20
-0.3296343137254927
 10
-1.5870000000000006
 20
-0.332060784313728
 10
-1.3370000000000006
 20
-0.3344872549019633
 10
-1.0870000000000006
 20
-0.33691372549019855
 10
-0.8370000000000006
 20
-0.3393401960784338
 10
-0.5870000000000006
 20
-0.3417666666666691
 10
-0.33700000000000063
 20
-0.3441931372549044
 10
-0.08700000000000063
 20
-0.34661960784313967
 10
0.16299999999999937
 20
-0.3490460784313749
 10
0.41299999999999937
 20
-0.3514725490196103
 10
0.6629999999999994
 20
-0.35389901960784553
 10
0.9129999999999994
 20
-0.35632549019608084
 10
1.1629999999999994
 20
-0.3587519607843161
 10
1.4129999999999994
 20
-0.36117843137255135
 10
1.6629999999999994
 20
-0.36360490196078665
 10
1.9129999999999994
 20
-0.3660313725490219
 10
2.1629999999999994
 20
-0.36845784313725727
 10
2.4129999999999994
 20
-0.3708843137254926
 10
2.6629999999999994
 20
-0.3733107843137278
 10
2.9129999999999994
 20
-0.3757372549019631
 10
3.1629999999999994
 20
-0.3781637254901984
 10
3.4129999999999994
 20
-0.3805901960784336
 10
3.6629999999999994
 20
-0.3830166666666689
 10
3.9129999999999994
 20
-0.3854431372549042
 10
4.162999999999999
 20
-0.3878696078431395
 10
4.412999999999999
 20
-0.3902960784313747
 10
4.662999999999999
 20
-0.39272254901961
 10
4.912999999999999
 20
-0.3951490196078453
 10
5.162999999999999
 20
-0.39746111111111326
 10
5.412999999999999
 20
-0.39954444444444664
 10
5.662999999999999
 20
-0.4016277777777801
 10
5.912999999999999
 20
-0.4037111111111135
 10
6.162999999999999
 20
-0.4057944444444469
 10
6.412999999999999
 20
-0.40787777777778034
 10
6.662999999999999
 20
-0.4099611111111137
 10
6.912999999999999
 20
-0.4120444444444471
 10
7.162999999999999
 20
-0.41412777777778054
 10
7.412999999999999
 20
-0.416211111111114
 10
7.662999999999999
 20
-0.41829444444444736
 10
7.912999999999999
 20
-0.4203777777777808
 10
8.163
 20
-0.42246111111111423
 10
8.413
 20
-0.4245444444444476
 10
8.663
 20
-0.42662777777778105
 10
8.913
 20
-0.42871111111111443
  0
HATCH
  5
241
330
17
100
AcDbEntity
  8
A-RZEDNE
 62
7
420
0
100
AcDbHatch
 10
0.0
 20
0.0
 30
0.0
210
0.0
220
0.0
230
1.0
  2
SOLID
 70
1
 71
0
 91
1
 92
3
 72
0
 73
1
 93
3
 10
7.700000000000001
 20
-0.419
 10
7.810000000000001
 20
-0.30899999999999994
 10
7.590000000000001
 20
-0.30899999999999994
 97
0
 75
0
 76
1
 98
0
  0
HATCH
  5
242
330
17
100
AcDbEntity
  8
A-RZEDNE
 62
7
420
0
100
AcDbHatch
 10
0.0
 20
0.0
 30
0.0
210
0.0
220
0.0
230
1.0
  2
SOLID
 70
1
 71
0
 91
1
 92
3
 72
0
 73
1
 93
3
 10
7.700000000000001
 20
0.0
 10
7.810000000000001
 20
0.11000000000000001
 10
7.700000000000001
 20
0.11000000000000001
 97
0
 75
0
 76
1
 98
0
  0
HATCH
  5
243
330
17
100
AcDbEntity
  8
A-RZEDNE
 62
7
420
0
100
AcDbHatch
 10
0.0
 20
0.0
 30
0.0
210
0.0
220
0.0
230
1.0
  2
SOLID
 70
1
 71
0
 91
1
 92
3
 72
0
 73
1
 93
3
 10
7.700000000000001
 20
3.06
 10
7.810000000000001
 20
3.17
 10
7.590000000000001
 20
3.17
 97
0
 75
0
 76
1
 98
0
  0
HATCH
  5
244
330
17
100
AcDbEntity
  8
A-RZEDNE
 62
7
420
0
100
AcDbHatch
 10
0.0
 20
0.0
 30
0.0
210
0.0
220
0.0
230
1.0
  2
SOLID
 70
1
 71
0
 91
1
 92
3
 72
0
 73
1
 93
3
 10
7.700000000000001
 20
6.193499999999999
 10
7.810000000000001
 20
6.3035
 10
7.590000000000001
 20
6.3035
 97
0
 75
0
 76
1
 98
0
  0
HATCH
  5
245
330
17
100
AcDbEntity
  8
A-RZEDNE
 62
7
420
0
100
AcDbHatch
 10
0.0
 20
0.0
 30
0.0
210
0.0
220
0.0
230
1.0
  2
SOLID
 70
1
 71
0
 91
1
 92
3
 72
0
 73
1
 93
3
 10
8.485754031342267
 20
6.493499999999999
 10
8.595754031342267
 20
6.6034999999999995
 10
8.375754031342268
 20
6.6034999999999995
 97
0
 75
0
 76
1
 98
0
  0
HATCH
  5
246
330
17
100
AcDbEntity
  8
A-RZEDNE
 62
7
420
0
100
AcDbHatch
 10
0.0
 20
0.0
 30
0.0
210
0.0
220
0.0
230
1.0
  2
SOLID
 70
1
 71
0
 91
1
 92
3
 72
0
 73
1
 93
3
 10
-4.487000000000001
 20
-0.301
 10
-4.377000000000001
 20
-0.19099999999999998
 10
-4.597000000000001
 20
-0.19099999999999998
 97
0
 75
0
 76
1
 98
0
  0
LWPOLYLINE
  5
247
330
17
100
AcDbEntity
  8
A-RZEDNE
370
35
 48
0.05
100
AcDbPolyline
 90
2
 70
0
 10
7.600000000000001
 20
-0.419
 10
7.820000000000001
 20
-0.419
  0
LWPOLYLINE
  5
248
330
17
100
AcDbEntity
  8
A-RZEDNE
370
35
 48
0.05
100
AcDbPolyline
 90
3
 70
1
 10
7.700000000000001
 20
-0.419
 10
7.810000000000001
 20
-0.30899999999999994
 10
7.590000000000001
 20
-0.30899999999999994
  0
LWPOLYLINE
  5
249
330
17
100
AcDbEntity
  8
A-RZEDNE
370
35
 48
0.05
100
AcDbPolyline
 90
2
 70
0
 10
7.700000000000001
 20
-0.30899999999999994
 10
7.700000000000001
 20
-0.24899999999999994
  0
LWPOLYLINE
  5
24A
330
17
100
AcDbEntity
  8
A-RZEDNE
370
35
 48
0.05
100
AcDbPolyline
 90
2
 70
0
 10
7.700000000000001
 20
-0.24899999999999994
 10
8.335754031342267
 20
-0.24899999999999994
  0
LWPOLYLINE
  5
24B
330
17
100
AcDbEntity
  8
A-RZEDNE
370
35
 48
0.05
100
AcDbPolyline
 90
2
 70
0
 10
7.600000000000001
 20
0.0
 10
7.820000000000001
 20
0.0
  0
LWPOLYLINE
  5
24C
330
17
100
AcDbEntity
  8
A-RZEDNE
370
35
 48
0.05
100
AcDbPolyline
 90
3
 70
1
 10
7.700000000000001
 20
0.0
 10
7.810000000000001
 20
0.11000000000000001
 10
7.590000000000001
 20
0.11000000000000001
  0
LWPOLYLINE
  5
24D
330
17
100
AcDbEntity
  8
A-RZEDNE
370
35
 48
0.05
100
AcDbPolyline
 90
2
 70
0
 10
7.700000000000001
 20
0.11000000000000001
 10
7.700000000000001
 20
0.335
  0
LWPOLYLINE
  5
24E
330
17
100
AcDbEntity
  8
A-RZEDNE
370
35
 48
0.05
100
AcDbPolyline
 90
2
 70
0
 10
7.700000000000001
 20
0.335
 10
8.431711333181923
 20
0.335
  0
LWPOLYLINE
  5
24F
330
17
100
AcDbEntity
  8
A-RZEDNE
370
35
 48
0.05
100
AcDbPolyline
 90
2
 70
0
 10
7.600000000000001
 20
3.06
 10
7.820000000000001
 20
3.06
  0
LWPOLYLINE
  5
250
330
17
100
AcDbEntity
  8
A-RZEDNE
370
35
 48
0.05
100
AcDbPolyline
 90
3
 70
1
 10
7.700000000000001
 20
3.06
 10
7.810000000000001
 20
3.17
 10
7.590000000000001
 20
3.17
  0
LWPOLYLINE
  5
251
330
17
100
AcDbEntity
  8
A-RZEDNE
370
35
 48
0.05
100
AcDbPolyline
 90
2
 70
0
 10
7.700000000000001
 20
3.17
 10
7.700000000000001
 20
3.23
  0
LWPOLYLINE
  5
252
330
17
100
AcDbEntity
  8
A-RZEDNE
370
35
 48
0.05
100
AcDbPolyline
 90
2
 70
0
 10
7.700000000000001
 20
3.23
 10
8.335754031342267
 20
3.23
  0
LWPOLYLINE
  5
253
330
17
100
AcDbEntity
  8
A-RZEDNE
370
35
 48
0.05
100
AcDbPolyline
 90
2
 70
0
 10
7.600000000000001
 20
6.193499999999999
 10
7.820000000000001
 20
6.193499999999999
  0
LWPOLYLINE
  5
254
330
17
100
AcDbEntity
  8
A-RZEDNE
370
35
 48
0.05
100
AcDbPolyline
 90
3
 70
1
 10
7.700000000000001
 20
6.193499999999999
 10
7.810000000000001
 20
6.3035
 10
7.590000000000001
 20
6.3035
  0
LWPOLYLINE
  5
255
330
17
100
AcDbEntity
  8
A-RZEDNE
370
35
 48
0.05
100
AcDbPolyline
 90
2
 70
0
 10
7.700000000000001
 20
6.3035
 10
7.700000000000001
 20
6.363499999999999
  0
LWPOLYLINE
  5
256
330
17
100
AcDbEntity
  8
A-RZEDNE
370
35
 48
0.05
100
AcDbPolyline
 90
2
 70
0
 10
7.700000000000001
 20
6.363499999999999
 10
8.335754031342267
 20
6.363499999999999
  0
LWPOLYLINE
  5
257
330
17
100
AcDbEntity
  8
A-RZEDNE
370
35
 48
0.05
100
AcDbPolyline
 90
3
 70
1
 10
8.485754031342267
 20
6.493499999999999
 10
8.595754031342267
 20
6.6034999999999995
 10
8.375754031342268
 20
6.6034999999999995
  0
LWPOLYLINE
  5
258
330
17
100
AcDbEntity
  8
A-RZEDNE
370
35
 48
0.05
100
AcDbPolyline
 90
2
 70
0
 10
8.485754031342267
 20
6.6034999999999995
 10
8.485754031342267
 20
6.663499999999999
  0
LWPOLYLINE
  5
259
330
17
100
AcDbEntity
  8
A-RZEDNE
370
35
 48
0.05
100
AcDbPolyline
 90
2
 70
0
 10
8.485754031342267
 20
6.663499999999999
 10
9.121508062684534
 20
6.663499999999999
  0
LWPOLYLINE
  5
25A
330
17
100
AcDbEntity
  8
A-RZEDNE
370
35
 48
0.05
100
AcDbPolyline
 90
2
 70
0
 10
-4.387000000000001
 20
-0.301
 10
-4.607000000000001
 20
-0.301
  0
LWPOLYLINE
  5
25B
330
17
100
AcDbEntity
  8
A-RZEDNE
370
35
 48
0.05
100
AcDbPolyline
 90
3
 70
1
 10
-4.487000000000001
 20
-0.301
 10
-4.377000000000001
 20
-0.19099999999999998
 10
-4.597000000000001
 20
-0.19099999999999998
  0
LWPOLYLINE
  5
25C
330
17
100
AcDbEntity
  8
A-RZEDNE
370
35
 48
0.05
100
AcDbPolyline
 90
2
 70
0
 10
-4.487000000000001
 20
-0.19099999999999998
 10
-4.487000000000001
 20
-0.13099999999999998
  0
LWPOLYLINE
  5
25D
330
17
100
AcDbEntity
  8
A-RZEDNE
370
35
 48
0.05
100
AcDbPolyline
 90
2
 70
0
 10
-4.487000000000001
 20
-0.13099999999999998
 10
-5.122754031342268
 20
-0.13099999999999998
  0
LWPOLYLINE
  5
25E
330
17
100
AcDbEntity
  8
A-WYMIARY
370
35
 48
0.05
100
AcDbPolyline
 90
2
 70
0
 10
-5.537000000000001
 20
-0.373
 10
-5.537000000000001
 20
6.292999999999999
  0
LWPOLYLINE
  5
25F
330
17
100
AcDbEntity
  8
A-WYMIARY
370
35
 48
0.05
100
AcDbPolyline
 90
2
 70
0
 10
-5.437000000000001
 20
-0.273
 10
-5.6370000000000005
 20
-0.273
  0
LWPOLYLINE
  5
260
330
17
100
AcDbEntity
  8
A-WYMIARY
370
35
 48
0.05
100
AcDbPolyline
 90
2
 70
0
 10
-5.48396699141101
 20
-0.3260330085889911
 10
-5.590033008588992
 20
-0.21996699141100895
  0
LWPOLYLINE
  5
261
330
17
100
AcDbEntity
  8
A-WYMIARY
370
35
 48
0.05
100
AcDbPolyline
 90
2
 70
0
 10
-5.437000000000001
 20
6.193
 10
-5.6370000000000005
 20
6.193
  0
LWPOLYLINE
  5
262
330
17
100
AcDbEntity
  8
A-WYMIARY
370
35
 48
0.05
100
AcDbPolyline
 90
2
 70
0
 10
-5.48396699141101
 20
6.139966991411009
 10
-5.590033008588992
 20
6.246033008588991
  0
LWPOLYLINE
  5
263
330
17
100
AcDbEntity
  8
A-WYMIARY
370
35
 48
0.05
100
AcDbPolyline
 90
2
 70
0
 10
-5.037000000000001
 20
-0.401
 10
-5.037000000000001
 20
6.614
  0
LWPOLYLINE
  5
264
330
17
100
AcDbEntity
  8
A-WYMIARY
370
35
 48
0.05
100
AcDbPolyline
 90
2
 70
0
 10
-4.937000000000001
 20
-0.301
 10
-5.1370000000000005
 20
-0.301
  0
LWPOLYLINE
  5
265
330
17
100
AcDbEntity
  8
A-WYMIARY
370
35
 48
0.05
100
AcDbPolyline
 90
2
 70
0
 10
-4.98396699141101
 20
-0.35403300858899106
 10
-5.090033008588992
 20
-0.24796699141100892
  0
LWPOLYLINE
  5
266
330
17
100
AcDbEntity
  8
A-WYMIARY
370
35
 48
0.05
100
AcDbPolyline
 90
2
 70
0
 10
-4.937000000000001
 20
0.0
 10
-5.1370000000000005
 20
0.0
  0
LWPOLYLINE
  5
267
330
17
100
AcDbEntity
  8
A-WYMIARY
370
35
 48
0.05
100
AcDbPolyline
 90
2
 70
0
 10
-4.98396699141101
 20
-0.05303300858899108
 10
-5.090033008588992
 20
0.05303300858899108
  0
LWPOLYLINE
  5
268
330
17
100
AcDbEntity
  8
A-WYMIARY
370
35
 48
0.05
100
AcDbPolyline
 90
2
 70
0
 10
-4.937000000000001
 20
3.06
 10
-5.1370000000000005
 20
3.06
  0
LWPOLYLINE
  5
269
330
17
100
AcDbEntity
  8
A-WYMIARY
370
35
 48
0.05
100
AcDbPolyline
 90
2
 70
0
 10
-4.98396699141101
 20
3.006966991411009
 10
-5.090033008588992
 20
3.113033008588991
  0
LWPOLYLINE
  5
26A
330
17
100
AcDbEntity
  8
A-WYMIARY
370
35
 48
0.05
100
AcDbPolyline
 90
2
 70
0
 10
-4.937000000000001
 20
6.193
 10
-5.1370000000000005
 20
6.193
  0
LWPOLYLINE
  5
26B
330
17
100
AcDbEntity
  8
A-WYMIARY
370
35
 48
0.05
100
AcDbPolyline
 90
2
 70
0
 10
-4.98396699141101
 20
6.139966991411009
 10
-5.090033008588992
 20
6.246033008588991
  0
LWPOLYLINE
  5
26C
330
17
100
AcDbEntity
  8
A-WYMIARY
370
35
 48
0.05
100
AcDbPolyline
 90
2
 70
0
 10
-4.937000000000001
 20
6.514
 10
-5.1370000000000005
 20
6.514
  0
LWPOLYLINE
  5
26D
330
17
100
AcDbEntity
  8
A-WYMIARY
370
35
 48
0.05
100
AcDbPolyline
 90
2
 70
0
 10
-4.98396699141101
 20
6.460966991411009
 10
-5.090033008588992
 20
6.567033008588991
  0
LWPOLYLINE
  5
26E
330
17
100
AcDbEntity
  8
A-WYMIARY
370
35
 48
0.05
100
AcDbPolyline
 90
2
 70
0
 10
-4.436999999999999
 20
-0.7787111111111145
 10
7.3999999999999995
 20
-0.7787111111111145
  0
LWPOLYLINE
  5
26F
330
17
100
AcDbEntity
  8
A-WYMIARY
370
35
 48
0.05
100
AcDbPolyline
 90
2
 70
0
 10
-4.337
 20
-0.6787111111111145
 10
-4.337
 20
-0.8787111111111144
  0
LWPOLYLINE
  5
270
330
17
100
AcDbEntity
  8
A-WYMIARY
370
35
 48
0.05
100
AcDbPolyline
 90
2
 70
0
 10
-4.390033008588991
 20
-0.8317441197001055
 10
-4.283966991411009
 20
-0.7256781025221234
  0
LWPOLYLINE
  5
271
330
17
100
AcDbEntity
  8
A-WYMIARY
370
35
 48
0.05
100
AcDbPolyline
 90
2
 70
0
 10
7.3
 20
-0.6787111111111145
 10
7.3
 20
-0.8787111111111144
  0
LWPOLYLINE
  5
272
330
17
100
AcDbEntity
  8
A-WYMIARY
370
35
 48
0.05
100
AcDbPolyline
 90
2
 70
0
 10
7.246966991411009
 20
-0.8317441197001055
 10
7.353033008588991
 20
-0.7256781025221234
  0
HATCH
  5
273
330
17
100
AcDbEntity
  8
A-OPISY
 62
7
420
0
100
AcDbHatch
 10
0.0
 20
0.0
 30
0.0
210
0.0
220
0.0
230
1.0
  2
SOLID
 70
1
 71
0
 91
1
 92
3
 72
0
 73
1
 93
24
 10
2.6565312499999996
 20
0.9387812499999999
 10
2.655764581091504
 20
0.9446046785148067
 10
2.6535168215851495
 20
0.9500312499999999
 10
2.6499411525766967
 20
0.9546911525766972
 10
2.6452812499999996
 20
0.9582668215851498
 10
2.6398546785148063
 20
0.9605145810915039
 10
2.6340312499999996
 20
0.9612812499999999
 10
2.628207821485193
 20
0.9605145810915039
 10
2.6227812499999996
 20
0.9582668215851498
 10
2.6181213474233025
 20
0.9546911525766972
 10
2.6145456784148497
 20
0.9500312499999999
 10
2.6122979189084954
 20
0.9446046785148067
 10
2.6115312499999996
 20
0.9387812499999999
 10
2.6122979189084954
 20
0.9329578214851932
 10
2.6145456784148497
 20
0.9275312499999999
 10
2.6181213474233025
 20
0.9228713474233026
 10
2.6227812499999996
 20
0.91929567841485
 10
2.628207821485193
 20
0.9170479189084959
 10
2.6340312499999996
 20
0.9162812499999999
 10
2.6398546785148063
 20
0.9170479189084959
 10
2.6452812499999996
 20
0.91929567841485
 10
2.6499411525766967
 20
0.9228713474233026
 10
2.6535168215851495
 20
0.9275312499999999
 10
2.655764581091504
 20
0.9329578214851931
 97
0
 75
0
 76
1
 98
0
  0
HATCH
  5
274
330
17
100
AcDbEntity
  8
A-OPISY
 62
7
420
0
100
AcDbHatch
 10
0.0
 20
0.0
 30
0.0
210
0.0
220
0.0
230
1.0
  2
SOLID
 70
1
 71
0
 91
1
 92
3
 72
0
 73
1
 93
24
 10
4.4995
 20
4.755
 10
4.498733331091504
 20
4.760823428514807
 10
4.496485571585151
 20
4.76625
 10
4.492909902576698
 20
4.7709099025766974
 10
4.488250000000001
 20
4.77448557158515
 10
4.482823428514807
 20
4.776733331091504
 10
4.477
 20
4.7775
 10
4.471176571485193
 20
4.776733331091504
 10
4.46575
 20
4.77448557158515
 10
4.461090097423303
 20
4.7709099025766974
 10
4.45751442841485
 20
4.76625
 10
4.4552666689084965
 20
4.760823428514807
 10
4.4545
 20
4.755
 10
4.4552666689084965
 20
4.749176571485193
 10
4.45751442841485
 20
4.7437499999999995
 10
4.461090097423303
 20
4.739090097423302
 10
4.46575
 20
4.73551442841485
 10
4.471176571485193
 20
4.733266668908496
 10
4.477
 20
4.7325
 10
4.482823428514807
 20
4.733266668908496
 10
4.488250000000001
 20
4.73551442841485
 10
4.492909902576698
 20
4.739090097423302
 10
4.496485571585151
 20
4.7437499999999995
 10
4.498733331091504
 20
4.749176571485193
 97
0
 75
0
 76
1
 98
0
  0
HATCH
  5
275
330
17
100
AcDbEntity
  8
A-OPISY
 62
7
420
0
100
AcDbHatch
 10
0.0
 20
0.0
 30
0.0
210
0.0
220
0.0
230
1.0
  2
SOLID
 70
1
 71
0
 91
1
 92
3
 72
0
 73
1
 93
24
 10
0.022500000000000003
 20
6.5035
 10
0.02173333109150404
 20
6.509323428514807
 10
0.019485571585149873
 20
6.51475
 10
0.015909902576697322
 20
6.519409902576697
 10
0.011250000000000003
 20
6.52298557158515
 10
0.005823428514806723
 20
6.525233331091504
 10
1.3777276490407726e-18
 20
6.526
 10
-0.005823428514806715
 20
6.525233331091504
 10
-0.011249999999999996
 20
6.52298557158515
 10
-0.01590990257669732
 20
6.519409902576697
 10
-0.01948557158514987
 20
6.51475
 10
-0.02173333109150404
 20
6.509323428514807
 10
-0.022500000000000003
 20
6.5035
 10
-0.021733331091504042
 20
6.497676571485193
 10
-0.019485571585149877
 20
6.492249999999999
 10
-0.01590990257669733
 20
6.487590097423302
 10
-0.011250000000000012
 20
6.4840144284148495
 10
-0.005823428514806735
 20
6.481766668908496
 10
-4.133182947122317e-18
 20
6.481
 10
0.005823428514806707
 20
6.481766668908496
 10
0.011249999999999986
 20
6.4840144284148495
 10
0.01590990257669732
 20
6.487590097423302
 10
0.019485571585149866
 20
6.492249999999999
 10
0.021733331091504035
 20
6.497676571485193
 97
0
 75
0
 76
1
 98
0
  0
LWPOLYLINE
  5
276
330
17
100
AcDbEntity
  8
A-OPISY
370
35
 48
0.05
100
AcDbPolyline
 90
2
 70
0
 10
2.6340312499999996
 20
0.9387812499999999
 10
3.2119712293189897
 20
1.3515955209421355
  0
LWPOLYLINE
  5
277
330
17
100
AcDbEntity
  8
A-OPISY
370
35
 48
0.05
100
AcDbPolyline
 90
2
 70
0
 10
4.477
 20
4.755
 10
5.05493997931899
 20
5.167814270942135
  0
LWPOLYLINE
  5
278
330
17
100
AcDbEntity
  8
A-OPISY
370
35
 48
0.05
100
AcDbPolyline
 90
2
 70
0
 10
0.0
 20
6.5035
 10
0.5779399793189898
 20
6.916314270942135
  0
HATCH
  5
279
330
17
100
AcDbEntity
  8
A-OPISY
 62
7
420
16777215
100
AcDbHatch
 10
0.0
 20
0.0
 30
0.0
210
0.0
220
0.0
230
1.0
  2
SOLID
 70
1
 71
0
 91
1
 92
3
 72
0
 73
1
 93
6
 10
-1.5420800790121791
 20
3.5976825781249993
 10
-1.4835800790121791
 20
3.6951825781249994
 10
-1.3195410147378206
 20
3.6951825781249994
 10
-1.2610410147378206
 20
3.5976825781249993
 10
-1.3195410147378206
 20
3.500182578124999
 10
-1.4835800790121791
 20
3.500182578124999
 97
0
 75
0
 76
1
 98
0
  0
HATCH
  5
27A
330
17
100
AcDbEntity
  8
A-OPISY
 62
7
420
16777215
100
AcDbHatch
 10
0.0
 20
0.0
 30
0.0
210
0.0
220
0.0
230
1.0
  2
SOLID
 70
1
 71
0
 91
1
 92
3
 72
0
 73
1
 93
6
 10
1.8094804678628207
 20
1.6500000000000001
 10
1.8679804678628207
 20
1.7475
 10
2.0320195321371792
 20
1.7475
 10
2.0905195321371792
 20
1.6500000000000001
 10
2.0320195321371792
 20
1.5525000000000002
 10
1.8679804678628207
 20
1.5525000000000002
 97
0
 75
0
 76
1
 98
0
  0
HATCH
  5
27B
330
17
100
AcDbEntity
  8
A-OPISY
 62
7
420
16777215
100
AcDbHatch
 10
0.0
 20
0.0
 30
0.0
210
0.0
220
0.0
230
1.0
  2
SOLID
 70
1
 71
0
 91
1
 92
3
 72
0
 73
1
 93
6
 10
5.24974218661282
 20
-0.22090453124999992
 10
5.308242186612819
 20
-0.12340453124999992
 10
5.472281250887178
 20
-0.12340453124999992
 10
5.530781250887178
 20
-0.22090453124999992
 10
5.472281250887178
 20
-0.3184045312499999
 10
5.308242186612819
 20
-0.3184045312499999
 97
0
 75
0
 76
1
 98
0
  0
HATCH
  5
27C
330
17
100
AcDbEntity
  8
A-OPISY
 62
7
420
16777215
100
AcDbHatch
 10
0.0
 20
0.0
 30
0.0
210
0.0
220
0.0
230
1.0
  2
SOLID
 70
1
 71
0
 91
1
 92
3
 72
0
 73
1
 93
6
 10
3.1935117178628207
 20
1.43878125
 10
3.2520117178628207
 20
1.5362812499999998
 10
3.416050782137179
 20
1.5362812499999998
 10
3.474550782137179
 20
1.43878125
 10
3.416050782137179
 20
1.34128125
 10
3.2520117178628207
 20
1.34128125
 97
0
 75
0
 76
1
 98
0
  0
HATCH
  5
27D
330
17
100
AcDbEntity
  8
A-OPISY
 62
7
420
16777215
100
AcDbHatch
 10
0.0
 20
0.0
 30
0.0
210
0.0
220
0.0
230
1.0
  2
SOLID
 70
1
 71
0
 91
1
 92
3
 72
0
 73
1
 93
6
 10
5.036480467862821
 20
5.255
 10
5.094980467862821
 20
5.3525
 10
5.25901953213718
 20
5.3525
 10
5.3175195321371795
 20
5.255
 10
5.25901953213718
 20
5.1575
 10
5.094980467862821
 20
5.1575
 97
0
 75
0
 76
1
 98
0
  0
HATCH
  5
27E
330
17
100
AcDbEntity
  8
A-OPISY
 62
7
420
16777215
100
AcDbHatch
 10
0.0
 20
0.0
 30
0.0
210
0.0
220
0.0
230
1.0
  2
SOLID
 70
1
 71
0
 91
1
 92
3
 72
0
 73
1
 93
6
 10
0.5594804678628209
 20
7.0035
 10
0.6179804678628209
 20
7.101
 10
0.7820195321371792
 20
7.101
 10
0.8405195321371792
 20
7.0035
 10
0.7820195321371792
 20
6.906
 10
0.6179804678628209
 20
6.906
 97
0
 75
0
 76
1
 98
0
  0
LWPOLYLINE
  5
27F
330
17
100
AcDbEntity
  8
A-OPISY
370
35
 48
0.05
100
AcDbPolyline
 90
6
 70
1
 10
-1.5420800790121791
 20
3.5976825781249993
 10
-1.4835800790121791
 20
3.6951825781249994
 10
-1.3195410147378206
 20
3.6951825781249994
 10
-1.2610410147378206
 20
3.5976825781249993
 10
-1.3195410147378206
 20
3.500182578124999
 10
-1.4835800790121791
 20
3.500182578124999
  0
LWPOLYLINE
  5
280
330
17
100
AcDbEntity
  8
A-OPISY
370
35
 48
0.05
100
AcDbPolyline
 90
6
 70
1
 10
1.8094804678628207
 20
1.6500000000000001
 10
1.8679804678628207
 20
1.7475
 10
2.0320195321371792
 20
1.7475
 10
2.0905195321371792
 20
1.6500000000000001
 10
2.0320195321371792
 20
1.5525000000000002
 10
1.8679804678628207
 20
1.5525000000000002
  0
LWPOLYLINE
  5
281
330
17
100
AcDbEntity
  8
A-OPISY
370
35
 48
0.05
100
AcDbPolyline
 90
6
 70
1
 10
5.24974218661282
 20
-0.22090453124999992
 10
5.308242186612819
 20
-0.12340453124999992
 10
5.472281250887178
 20
-0.12340453124999992
 10
5.530781250887178
 20
-0.22090453124999992
 10
5.472281250887178
 20
-0.3184045312499999
 10
5.308242186612819
 20
-0.3184045312499999
  0
LWPOLYLINE
  5
282
330
17
100
AcDbEntity
  8
A-OPISY
370
35
 48
0.05
100
AcDbPolyline
 90
6
 70
1
 10
3.1935117178628207
 20
1.43878125
 10
3.2520117178628207
 20
1.5362812499999998
 10
3.416050782137179
 20
1.5362812499999998
 10
3.474550782137179
 20
1.43878125
 10
3.416050782137179
 20
1.34128125
 10
3.2520117178628207
 20
1.34128125
  0
LWPOLYLINE
  5
283
330
17
100
AcDbEntity
  8
A-OPISY
370
35
 48
0.05
100
AcDbPolyline
 90
6
 70
1
 10
5.036480467862821
 20
5.255
 10
5.094980467862821
 20
5.3525
 10
5.25901953213718
 20
5.3525
 10
5.3175195321371795
 20
5.255
 10
5.25901953213718
 20
5.1575
 10
5.094980467862821
 20
5.1575
  0
LWPOLYLINE
  5
284
330
17
100
AcDbEntity
  8
A-OPISY
370
35
 48
0.05
100
AcDbPolyline
 90
6
 70
1
 10
0.5594804678628209
 20
7.0035
 10
0.6179804678628209
 20
7.101
 10
0.7820195321371792
 20
7.101
 10
0.8405195321371792
 20
7.0035
 10
0.7820195321371792
 20
6.906
 10
0.6179804678628209
 20
6.906
  0
TEXT
  5
285
330
17
100
AcDbEntity
  8
A-OPISY
100
AcDbText
 10
-1.452080079012179
 20
3.5351825781249993
 30
0.0
 40
0.125
  1
1
  7
PL_ARIAL
 11
-1.452080079012179
 21
3.5351825781249993
 31
0.0
100
AcDbText
  0
TEXT
  5
286
330
17
100
AcDbEntity
  8
A-OPISY
100
AcDbText
 10
1.8994804678628208
 20
1.5875000000000001
 30
0.0
 40
0.125
  1
2
  7
PL_ARIAL
 11
1.8994804678628208
 21
1.5875000000000001
 31
0.0
100
AcDbText
  0
TEXT
  5
287
330
17
100
AcDbEntity
  8
A-OPISY
100
AcDbText
 10
5.33974218661282
 20
-0.2834045312499999
 30
0.0
 40
0.125
  1
3
  7
PL_ARIAL
 11
5.33974218661282
 21
-0.2834045312499999
 31
0.0
100
AcDbText
  0
TEXT
  5
288
330
17
100
AcDbEntity
  8
A-OPISY
100
AcDbText
 10
3.2835117178628206
 20
1.37628125
 30
0.0
 40
0.125
  1
4
  7
PL_ARIAL
 11
3.2835117178628206
 21
1.37628125
 31
0.0
100
AcDbText
  0
TEXT
  5
289
330
17
100
AcDbEntity
  8
A-OPISY
100
AcDbText
 10
5.126480467862821
 20
5.1925
 30
0.0
 40
0.125
  1
5
  7
PL_ARIAL
 11
5.126480467862821
 21
5.1925
 31
0.0
100
AcDbText
  0
TEXT
  5
28A
330
17
100
AcDbEntity
  8
A-OPISY
100
AcDbText
 10
0.6494804678628209
 20
6.941
 30
0.0
 40
0.125
  1
6
  7
PL_ARIAL
 11
0.6494804678628209
 21
6.941
 31
0.0
100
AcDbText
  0
HATCH
  5
28B
330
17
100
AcDbEntity
  8
A-MASKA
 62
7
420
16777215
100
AcDbHatch
 10
0.0
 20
0.0
 30
0.0
210
0.0
220
0.0
230
1.0
  2
SOLID
 70
1
 71
0
 91
1
 92
3
 72
0
 73
1
 93
4
 10
7.7200000000000015
 20
-0.26149999999999995
 10
8.320754031342268
 20
-0.26149999999999995
 10
8.320754031342268
 20
-0.06899999999999995
 10
7.7200000000000015
 20
-0.06899999999999995
 97
0
 75
0
 76
1
 98
0
  0
TEXT
  5
28C
330
17
100
AcDbEntity
  8
A-RZEDNE
100
AcDbText
 10
7.740000000000001
 20
-0.21399999999999994
 30
0.0
 40
0.125
  1
−0,419
  7
PL_ARIAL
 11
7.740000000000001
 21
-0.21399999999999994
 31
0.0
100
AcDbText
  0
HATCH
  5
28D
330
17
100
AcDbEntity
  8
A-MASKA
 62
7
420
16777215
100
AcDbHatch
 10
0.0
 20
0.0
 30
0.0
210
0.0
220
0.0
230
1.0
  2
SOLID
 70
1
 71
0
 91
1
 92
3
 72
0
 73
1
 93
4
 10
7.7200000000000015
 20
0.3225
 10
8.314366341131048
 20
0.3225
 10
8.314366341131048
 20
0.515
 10
7.7200000000000015
 20
0.515
 97
0
 75
0
 76
1
 98
0
  0
TEXT
  5
28E
330
17
100
AcDbEntity
  8
A-RZEDNE
100
AcDbText
 10
7.740000000000001
 20
0.37
 30
0.0
 40
0.125
  1
±0,000
  7
PL_ARIAL
 11
7.740000000000001
 21
0.37
 31
0.0
100
AcDbText
  0
HATCH
  5
28F
330
17
100
AcDbEntity
  8
A-MASKA
 62
7
420
16777215
100
AcDbHatch
 10
0.0
 20
0.0
 30
0.0
210
0.0
220
0.0
230
1.0
  2
SOLID
 70
1
 71
0
 91
1
 92
3
 72
0
 73
1
 93
4
 10
7.7200000000000015
 20
0.11750000000000005
 10
8.416711333181922
 20
0.11750000000000005
 10
8.416711333181922
 20
0.31000000000000005
 10
7.7200000000000015
 20
0.31000000000000005
 97
0
 75
0
 76
1
 98
0
  0
TEXT
  5
290
330
17
100
AcDbEntity
  8
A-RZEDNE
100
AcDbText
 10
7.740000000000001
 20
0.16500000000000004
 30
0.0
 40
0.125
  1
101,650
  7
PL_ARIAL
 11
7.740000000000001
 21
0.16500000000000004
 31
0.0
100
AcDbText
  0
HATCH
  5
291
330
17
100
AcDbEntity
  8
A-MASKA
 62
7
420
16777215
100
AcDbHatch
 10
0.0
 20
0.0
 30
0.0
210
0.0
220
0.0
230
1.0
  2
SOLID
 70
1
 71
0
 91
1
 92
3
 72
0
 73
1
 93
4
 10
7.7200000000000015
 20
3.2175000000000002
 10
8.320754031342268
 20
3.2175000000000002
 10
8.320754031342268
 20
3.41
 10
7.7200000000000015
 20
3.41
 97
0
 75
0
 76
1
 98
0
  0
TEXT
  5
292
330
17
100
AcDbEntity
  8
A-RZEDNE
100
AcDbText
 10
7.740000000000001
 20
3.265
 30
0.0
 40
0.125
  1
+3,060
  7
PL_ARIAL
 11
7.740000000000001
 21
3.265
 31
0.0
100
AcDbText
  0
HATCH
  5
293
330
17
100
AcDbEntity
  8
A-MASKA
 62
7
420
16777215
100
AcDbHatch
 10
0.0
 20
0.0
 30
0.0
210
0.0
220
0.0
230
1.0
  2
SOLID
 70
1
 71
0
 91
1
 92
3
 72
0
 73
1
 93
4
 10
7.7200000000000015
 20
6.350999999999999
 10
8.320754031342268
 20
6.350999999999999
 10
8.320754031342268
 20
6.543499999999999
 10
7.7200000000000015
 20
6.543499999999999
 97
0
 75
0
 76
1
 98
0
  0
TEXT
  5
294
330
17
100
AcDbEntity
  8
A-RZEDNE
100
AcDbText
 10
7.740000000000001
 20
6.398499999999999
 30
0.0
 40
0.125
  1
+6,193
  7
PL_ARIAL
 11
7.740000000000001
 21
6.398499999999999
 31
0.0
100
AcDbText
  0
HATCH
  5
295
330
17
100
AcDbEntity
  8
A-MASKA
 62
7
420
16777215
100
AcDbHatch
 10
0.0
 20
0.0
 30
0.0
210
0.0
220
0.0
230
1.0
  2
SOLID
 70
1
 71
0
 91
1
 92
3
 72
0
 73
1
 93
4
 10
8.505754031342267
 20
6.650999999999999
 10
9.106508062684533
 20
6.650999999999999
 10
9.106508062684533
 20
6.843499999999999
 10
8.505754031342267
 20
6.843499999999999
 97
0
 75
0
 76
1
 98
0
  0
TEXT
  5
296
330
17
100
AcDbEntity
  8
A-RZEDNE
100
AcDbText
 10
8.525754031342267
 20
6.698499999999999
 30
0.0
 40
0.125
  1
+6,493
  7
PL_ARIAL
 11
8.525754031342267
 21
6.698499999999999
 31
0.0
100
AcDbText
  0
HATCH
  5
297
330
17
100
AcDbEntity
  8
A-MASKA
 62
7
420
16777215
100
AcDbHatch
 10
0.0
 20
0.0
 30
0.0
210
0.0
220
0.0
230
1.0
  2
SOLID
 70
1
 71
0
 91
1
 92
3
 72
0
 73
1
 93
4
 10
-5.107754031342267
 20
-0.1435
 10
-4.5070000000000014
 20
-0.1435
 10
-4.5070000000000014
 20
0.049000000000000016
 10
-5.107754031342267
 20
0.049000000000000016
 97
0
 75
0
 76
1
 98
0
  0
TEXT
  5
298
330
17
100
AcDbEntity
  8
A-RZEDNE
100
AcDbText
 10
-5.087754031342268
 20
-0.09599999999999997
 30
0.0
 40
0.125
  1
−0,301
  7
PL_ARIAL
 11
-5.087754031342268
 21
-0.09599999999999997
 31
0.0
100
AcDbText
  0
TEXT
  5
299
330
17
100
AcDbEntity
  8
A-WYMIARY
100
AcDbText
 10
-5.587000000000001
 20
2.7683173404496935
 30
0.0
 40
0.125
  1
646
 50
90.0
  7
PL_ARIAL
 11
-5.587000000000001
 21
2.7683173404496935
 31
0.0
100
AcDbText
  0
TEXT
  5
29A
330
17
100
AcDbEntity
  8
A-WYMIARY
100
AcDbText
 10
-5.649500000000001
 20
3.0789345332727684
 30
0.0
 40
0.09000000000000001
  1
6
 50
90.0
  7
PL_ARIAL
 11
-5.649500000000001
 21
3.0789345332727684
 31
0.0
100
AcDbText
  0
TEXT
  5
29B
330
17
100
AcDbEntity
  8
A-WYMIARY
100
AcDbText
 10
-5.087000000000001
 20
0.07150000000000001
 30
0.0
 40
0.125
  1
30
 50
90.0
  7
PL_ARIAL
 11
-5.087000000000001
 21
0.07150000000000001
 31
0.0
100
AcDbText
  0
TEXT
  5
29C
330
17
100
AcDbEntity
  8
A-WYMIARY
100
AcDbText
 10
-5.149500000000001
 20
0.28107812854871683
 30
0.0
 40
0.09000000000000001
  1
1
 50
90.0
  7
PL_ARIAL
 11
-5.149500000000001
 21
0.28107812854871683
 31
0.0
100
AcDbText
  0
TEXT
  5
29D
330
17
100
AcDbEntity
  8
A-WYMIARY
100
AcDbText
 10
-5.087000000000001
 20
1.3784414035884625
 30
0.0
 40
0.125
  1
306
 50
90.0
  7
PL_ARIAL
 11
-5.087000000000001
 21
1.3784414035884625
 31
0.0
100
AcDbText
  0
TEXT
  5
29E
330
17
100
AcDbEntity
  8
A-WYMIARY
100
AcDbText
 10
-5.087000000000001
 20
4.434817340449693
 30
0.0
 40
0.125
  1
313
 50
90.0
  7
PL_ARIAL
 11
-5.087000000000001
 21
4.434817340449693
 31
0.0
100
AcDbText
  0
TEXT
  5
29F
330
17
100
AcDbEntity
  8
A-WYMIARY
100
AcDbText
 10
-5.149500000000001
 20
4.7454345332727685
 30
0.0
 40
0.09000000000000001
  1
3
 50
90.0
  7
PL_ARIAL
 11
-5.149500000000001
 21
4.7454345332727685
 31
0.0
100
AcDbText
  0
TEXT
  5
2A0
330
17
100
AcDbEntity
  8
A-WYMIARY
100
AcDbText
 10
-5.087000000000001
 20
6.585500000000001
 30
0.0
 40
0.125
  1
32
 50
90.0
  7
PL_ARIAL
 11
-5.087000000000001
 21
6.585500000000001
 31
0.0
100
AcDbText
  0
TEXT
  5
2A1
330
17
100
AcDbEntity
  8
A-WYMIARY
100
AcDbText
 10
-5.149500000000001
 20
6.795078128548718
 30
0.0
 40
0.09000000000000001
  1
1
 50
90.0
  7
PL_ARIAL
 11
-5.149500000000001
 21
6.795078128548718
 31
0.0
100
AcDbText
  0
HATCH
  5
2A2
330
17
100
AcDbEntity
  8
A-MASKA
 62
7
420
16777215
100
AcDbHatch
 10
0.0
 20
0.0
 30
0.0
210
0.0
220
0.0
230
1.0
  2
SOLID
 70
1
 71
0
 91
1
 92
3
 72
0
 73
1
 93
4
 10
-5.7395000000000005
 20
1.2310440797309885
 10
-5.7395000000000005
 20
4.689196475824561
 10
-5.932
 20
4.689196475824561
 10
-5.932000000000001
 20
1.2310440797309885
 97
0
 75
0
 76
1
 98
0
  0
TEXT
  5
2A3
330
17
100
AcDbEntity
  8
A-WYMIARY
100
AcDbText
 10
-5.787000000000001
 20
1.2510440797309883
 30
0.0
 40
0.125
  1
wysokość budynku wg § 6 WT: H = 6,47 m
 50
90.0
  7
PL_ARIAL
 11
-5.787000000000001
 21
1.2510440797309883
 31
0.0
100
AcDbText
  0
TEXT
  5
2A4
330
17
100
AcDbEntity
  8
A-WYMIARY
100
AcDbText
 10
1.246040370202135
 20
-0.7287111111111144
 30
0.0
 40
0.125
  1
1163
  7
PL_ARIAL
 11
1.246040370202135
 21
-0.7287111111111144
 31
0.0
100
AcDbText
  0
TEXT
  5
2A5
330
17
100
AcDbEntity
  8
A-WYMIARY
100
AcDbText
 10
1.644211503520327
 20
-0.6662111111111144
 30
0.0
 40
0.09000000000000001
  1
7
  7
PL_ARIAL
 11
1.644211503520327
 21
-0.6662111111111144
 31
0.0
100
AcDbText
  0
VIEWPORT
  5
7F
330
1B
100
AcDbEntity
 67
1
  8
VIEWPORTS
100
AcDbViewport
 10
297.0
 20
210.0
 30
0.0
 40
594.0
 41
420.0
 68
1
 69
1
 12
297.0
 22
210.0
 13
0.0
 23
0.0
 14
10.0
 24
10.0
 15
10.0
 25
10.0
 16
0.0
 26
0.0
 36
1.0
 17
0.0
 27
0.0
 37
0.0
 42
50.0
 43
0.0
 44
0.0
 45
462.00000000000006
 50
0.0
 51
0.0
 72
100
 90
557088
  1

281
0
 71
0
 74
0
110
0.0
120
0.0
130
0.0
111
1.0
121
0.0
131
0.0
112
0.0
122
1.0
132
0.0
 79
0
146
0.0
282
0
  0
HATCH
  5
80
330
1B
100
AcDbEntity
 67
1
  8
R-LEGENDA
 62
7
420
16119024
100
AcDbHatch
 10
0.0
 20
0.0
 30
0.0
210
0.0
220
0.0
230
1.0
  2
SOLID
 70
1
 71
0
 91
1
 92
3
 72
0
 73
1
 93
4
 10
412.0
 20
396.3
 10
424.0
 20
396.3
 10
424.0
 20
400.7
 10
412.0
 20
400.7
 97
0
 75
0
 76
1
 98
0
  0
HATCH
  5
81
330
1B
100
AcDbEntity
 67
1
  8
R-LEGENDA
 62
7
420
11125709
100
AcDbHatch
 10
0.0
 20
0.0
 30
0.0
210
0.0
220
0.0
230
1.0
  2
SOLID
 70
1
 71
0
 91
1
 92
3
 72
0
 73
1
 93
4
 10
412.0
 20
390.3
 10
424.0
 20
390.3
 10
424.0
 20
394.7
 10
412.0
 20
394.7
 97
0
 75
0
 76
1
 98
0
  0
HATCH
  5
82
330
1B
100
AcDbEntity
 67
1
  8
R-LEGENDA
 62
7
420
9275261
100
AcDbHatch
 10
0.0
 20
0.0
 30
0.0
210
0.0
220
0.0
230
1.0
  2
SOLID
 70
1
 71
0
 91
1
 92
3
 72
0
 73
1
 93
4
 10
412.0
 20
384.3
 10
424.0
 20
384.3
 10
424.0
 20
388.7
 10
412.0
 20
388.7
 97
0
 75
0
 76
1
 98
0
  0
HATCH
  5
83
330
1B
100
AcDbEntity
 67
1
  8
R-LEGENDA
 62
7
420
2830131
100
AcDbHatch
 10
0.0
 20
0.0
 30
0.0
210
0.0
220
0.0
230
1.0
  2
SOLID
 70
1
 71
0
 91
1
 92
3
 72
0
 73
1
 93
4
 10
412.0
 20
378.3
 10
424.0
 20
378.3
 10
424.0
 20
382.7
 10
412.0
 20
382.7
 97
0
 75
0
 76
1
 98
0
  0
HATCH
  5
84
330
1B
100
AcDbEntity
 67
1
  8
R-LEGENDA
 62
7
420
10185537
100
AcDbHatch
 10
0.0
 20
0.0
 30
0.0
210
0.0
220
0.0
230
1.0
  2
SOLID
 70
1
 71
0
 91
1
 92
3
 72
0
 73
1
 93
4
 10
412.0
 20
372.3
 10
424.0
 20
372.3
 10
424.0
 20
376.7
 10
412.0
 20
376.7
 97
0
 75
0
 76
1
 98
0
  0
HATCH
  5
85
330
1B
100
AcDbEntity
 67
1
  8
R-LEGENDA
 62
7
420
3882819
100
AcDbHatch
 10
0.0
 20
0.0
 30
0.0
210
0.0
220
0.0
230
1.0
  2
SOLID
 70
1
 71
0
 91
1
 92
3
 72
0
 73
1
 93
4
 10
412.0
 20
366.3
 10
424.0
 20
366.3
 10
424.0
 20
370.7
 10
412.0
 20
370.7
 97
0
 75
0
 76
1
 98
0
  0
HATCH
  5
86
330
1B
100
AcDbEntity
 67
1
  8
R-OPISY
 62
7
420
0
100
AcDbHatch
 10
0.0
 20
0.0
 30
0.0
210
0.0
220
0.0
230
1.0
  2
SOLID
 70
1
 71
0
 91
1
 92
3
 72
0
 73
1
 93
4
 10
408.0
 20
310.9199999999999
 10
412.0
 20
310.9199999999999
 10
412.0
 20
312.5199999999999
 10
408.0
 20
312.5199999999999
 97
0
 75
0
 76
1
 98
0
  0
HATCH
  5
87
330
1B
100
AcDbEntity
 67
1
  8
R-OPISY
 62
7
420
0
100
AcDbHatch
 10
0.0
 20
0.0
 30
0.0
210
0.0
220
0.0
230
1.0
  2
SOLID
 70
1
 71
0
 91
1
 92
3
 72
0
 73
1
 93
4
 10
416.0
 20
310.9199999999999
 10
420.0
 20
310.9199999999999
 10
420.0
 20
312.5199999999999
 10
416.0
 20
312.5199999999999
 97
0
 75
0
 76
1
 98
0
  0
HATCH
  5
88
330
1B
100
AcDbEntity
 67
1
  8
R-OPISY
 62
7
420
0
100
AcDbHatch
 10
0.0
 20
0.0
 30
0.0
210
0.0
220
0.0
230
1.0
  2
SOLID
 70
1
 71
0
 91
1
 92
3
 72
0
 73
1
 93
4
 10
424.0
 20
310.9199999999999
 10
428.0
 20
310.9199999999999
 10
428.0
 20
312.5199999999999
 10
424.0
 20
312.5199999999999
 97
0
 75
0
 76
1
 98
0
  0
HATCH
  5
89
330
1B
100
AcDbEntity
 67
1
  8
R-OPISY
 62
7
420
0
100
AcDbHatch
 10
0.0
 20
0.0
 30
0.0
210
0.0
220
0.0
230
1.0
  2
SOLID
 70
1
 71
0
 91
1
 92
3
 72
0
 73
1
 93
4
 10
448.0
 20
310.9199999999999
 10
468.0
 20
310.9199999999999
 10
468.0
 20
312.5199999999999
 10
448.0
 20
312.5199999999999
 97
0
 75
0
 76
1
 98
0
  0
HATCH
  5
8A
330
1B
100
AcDbEntity
 67
1
  8
R-OPISY
 62
7
420
0
100
AcDbHatch
 10
0.0
 20
0.0
 30
0.0
210
0.0
220
0.0
230
1.0
  2
SOLID
 70
1
 71
0
 91
1
 92
3
 72
0
 73
1
 93
4
 10
488.0
 20
310.9199999999999
 10
508.0
 20
310.9199999999999
 10
508.0
 20
312.5199999999999
 10
488.0
 20
312.5199999999999
 97
0
 75
0
 76
1
 98
0
  0
LWPOLYLINE
  5
8B
330
1B
100
AcDbEntity
 67
1
  8
R-OPISY
370
50
100
AcDbPolyline
 90
2
 70
0
 10
59.46491937315466
 20
119.20288888888886
 10
158.10028162616396
 20
119.20288888888886
  0
LWPOLYLINE
  5
8C
330
1B
100
AcDbEntity
 67
1
  8
R-LEGENDA
370
18
100
AcDbPolyline
 90
4
 70
1
 10
412.0
 20
396.3
 10
424.0
 20
396.3
 10
424.0
 20
400.7
 10
412.0
 20
400.7
  0
LWPOLYLINE
  5
8D
330
1B
100
AcDbEntity
 67
1
  8
R-LEGENDA
370
18
100
AcDbPolyline
 90
4
 70
1
 10
412.0
 20
390.3
 10
424.0
 20
390.3
 10
424.0
 20
394.7
 10
412.0
 20
394.7
  0
LWPOLYLINE
  5
8E
330
1B
100
AcDbEntity
 67
1
  8
R-LEGENDA
370
18
100
AcDbPolyline
 90
4
 70
1
 10
412.0
 20
384.3
 10
424.0
 20
384.3
 10
424.0
 20
388.7
 10
412.0
 20
388.7
  0
LWPOLYLINE
  5
8F
330
1B
100
AcDbEntity
 67
1
  8
R-LEGENDA
370
18
100
AcDbPolyline
 90
4
 70
1
 10
412.0
 20
378.3
 10
424.0
 20
378.3
 10
424.0
 20
382.7
 10
412.0
 20
382.7
  0
LWPOLYLINE
  5
90
330
1B
100
AcDbEntity
 67
1
  8
R-LEGENDA
370
18
100
AcDbPolyline
 90
4
 70
1
 10
412.0
 20
372.3
 10
424.0
 20
372.3
 10
424.0
 20
376.7
 10
412.0
 20
376.7
  0
LWPOLYLINE
  5
91
330
1B
100
AcDbEntity
 67
1
  8
R-LEGENDA
370
18
100
AcDbPolyline
 90
4
 70
1
 10
412.0
 20
366.3
 10
424.0
 20
366.3
 10
424.0
 20
370.7
 10
412.0
 20
370.7
  0
LWPOLYLINE
  5
92
330
1B
100
AcDbEntity
 67
1
  8
R-OPISY
370
25
100
AcDbPolyline
 90
4
 70
1
 10
404.0
 20
323.9199999999999
 10
584.0
 20
323.9199999999999
 10
584.0
 20
358.5
 10
404.0
 20
358.5
  0
LWPOLYLINE
  5
93
330
1B
100
AcDbEntity
 67
1
  8
R-OPISY
370
18
100
AcDbPolyline
 90
4
 70
1
 10
408.0
 20
310.9199999999999
 10
428.0
 20
310.9199999999999
 10
428.0
 20
312.5199999999999
 10
408.0
 20
312.5199999999999
  0
LWPOLYLINE
  5
94
330
1B
100
AcDbEntity
 67
1
  8
R-OPISY
370
18
100
AcDbPolyline
 90
4
 70
1
 10
428.0
 20
310.9199999999999
 10
448.0
 20
310.9199999999999
 10
448.0
 20
312.5199999999999
 10
428.0
 20
312.5199999999999
  0
LWPOLYLINE
  5
95
330
1B
100
AcDbEntity
 67
1
  8
R-OPISY
370
18
100
AcDbPolyline
 90
4
 70
1
 10
448.0
 20
310.9199999999999
 10
468.0
 20
310.9199999999999
 10
468.0
 20
312.5199999999999
 10
448.0
 20
312.5199999999999
  0
LWPOLYLINE
  5
96
330
1B
100
AcDbEntity
 67
1
  8
R-OPISY
370
18
100
AcDbPolyline
 90
4
 70
1
 10
468.0
 20
310.9199999999999
 10
488.0
 20
310.9199999999999
 10
488.0
 20
312.5199999999999
 10
468.0
 20
312.5199999999999
  0
LWPOLYLINE
  5
97
330
1B
100
AcDbEntity
 67
1
  8
R-OPISY
370
18
100
AcDbPolyline
 90
4
 70
1
 10
488.0
 20
310.9199999999999
 10
508.0
 20
310.9199999999999
 10
508.0
 20
312.5199999999999
 10
488.0
 20
312.5199999999999
  0
LWPOLYLINE
  5
98
330
1B
100
AcDbEntity
 67
1
  8
R-OPISY
370
18
100
AcDbPolyline
 90
4
 70
1
 10
508.0
 20
310.9199999999999
 10
528.0
 20
310.9199999999999
 10
528.0
 20
312.5199999999999
 10
508.0
 20
312.5199999999999
  0
LWPOLYLINE
  5
99
330
1B
100
AcDbEntity
 67
1
  8
R-OPISY
370
35
100
AcDbPolyline
 90
2
 70
0
 10
11.0
 20
18.0
 10
11.0
 20
118.0
  0
LWPOLYLINE
  5
9A
330
1B
100
AcDbEntity
 67
1
  8
R-OPISY
370
18
100
AcDbPolyline
 90
2
 70
0
 10
11.0
 20
18.0
 10
9.4
 20
18.0
  0
LWPOLYLINE
  5
9B
330
1B
100
AcDbEntity
 67
1
  8
R-OPISY
370
18
100
AcDbPolyline
 90
2
 70
0
 10
11.0
 20
28.0
 10
10.1
 20
28.0
  0
LWPOLYLINE
  5
9C
330
1B
100
AcDbEntity
 67
1
  8
R-OPISY
370
18
100
AcDbPolyline
 90
2
 70
0
 10
11.0
 20
38.0
 10
10.1
 20
38.0
  0
LWPOLYLINE
  5
9D
330
1B
100
AcDbEntity
 67
1
  8
R-OPISY
370
18
100
AcDbPolyline
 90
2
 70
0
 10
11.0
 20
48.0
 10
10.1
 20
48.0
  0
LWPOLYLINE
  5
9E
330
1B
100
AcDbEntity
 67
1
  8
R-OPISY
370
18
100
AcDbPolyline
 90
2
 70
0
 10
11.0
 20
58.0
 10
10.1
 20
58.0
  0
LWPOLYLINE
  5
9F
330
1B
100
AcDbEntity
 67
1
  8
R-OPISY
370
18
100
AcDbPolyline
 90
2
 70
0
 10
11.0
 20
68.0
 10
9.4
 20
68.0
  0
LWPOLYLINE
  5
A0
330
1B
100
AcDbEntity
 67
1
  8
R-OPISY
370
18
100
AcDbPolyline
 90
2
 70
0
 10
11.0
 20
78.0
 10
10.1
 20
78.0
  0
LWPOLYLINE
  5
A1
330
1B
100
AcDbEntity
 67
1
  8
R-OPISY
370
18
100
AcDbPolyline
 90
2
 70
0
 10
11.0
 20
88.0
 10
10.1
 20
88.0
  0
LWPOLYLINE
  5
A2
330
1B
100
AcDbEntity
 67
1
  8
R-OPISY
370
18
100
AcDbPolyline
 90
2
 70
0
 10
11.0
 20
98.0
 10
10.1
 20
98.0
  0
LWPOLYLINE
  5
A3
330
1B
100
AcDbEntity
 67
1
  8
R-OPISY
370
18
100
AcDbPolyline
 90
2
 70
0
 10
11.0
 20
108.0
 10
10.1
 20
108.0
  0
LWPOLYLINE
  5
A4
330
1B
100
AcDbEntity
 67
1
  8
R-OPISY
370
18
100
AcDbPolyline
 90
2
 70
0
 10
11.0
 20
118.0
 10
9.4
 20
118.0
  0
HATCH
  5
A5
330
1B
100
AcDbEntity
 67
1
  8
R-LEGENDA
 62
7
420
16777215
100
AcDbHatch
 10
0.0
 20
0.0
 30
0.0
210
0.0
220
0.0
230
1.0
  2
SOLID
 70
1
 71
0
 91
1
 92
3
 72
0
 73
1
 93
6
 10
404.3896093572564
 20
398.5
 10
405.5596093572564
 20
400.45
 10
408.84039064274356
 20
400.45
 10
410.0103906427436
 20
398.5
 10
408.84039064274356
 20
396.55
 10
405.5596093572564
 20
396.55
 97
0
 75
0
 76
1
 98
0
  0
HATCH
  5
A6
330
1B
100
AcDbEntity
 67
1
  8
R-LEGENDA
 62
7
420
16777215
100
AcDbHatch
 10
0.0
 20
0.0
 30
0.0
210
0.0
220
0.0
230
1.0
  2
SOLID
 70
1
 71
0
 91
1
 92
3
 72
0
 73
1
 93
6
 10
404.3896093572564
 20
392.5
 10
405.5596093572564
 20
394.45
 10
408.84039064274356
 20
394.45
 10
410.0103906427436
 20
392.5
 10
408.84039064274356
 20
390.55
 10
405.5596093572564
 20
390.55
 97
0
 75
0
 76
1
 98
0
  0
HATCH
  5
A7
330
1B
100
AcDbEntity
 67
1
  8
R-LEGENDA
 62
7
420
16777215
100
AcDbHatch
 10
0.0
 20
0.0
 30
0.0
210
0.0
220
0.0
230
1.0
  2
SOLID
 70
1
 71
0
 91
1
 92
3
 72
0
 73
1
 93
6
 10
404.3896093572564
 20
386.5
 10
405.5596093572564
 20
388.45
 10
408.84039064274356
 20
388.45
 10
410.0103906427436
 20
386.5
 10
408.84039064274356
 20
384.55
 10
405.5596093572564
 20
384.55
 97
0
 75
0
 76
1
 98
0
  0
HATCH
  5
A8
330
1B
100
AcDbEntity
 67
1
  8
R-LEGENDA
 62
7
420
16777215
100
AcDbHatch
 10
0.0
 20
0.0
 30
0.0
210
0.0
220
0.0
230
1.0
  2
SOLID
 70
1
 71
0
 91
1
 92
3
 72
0
 73
1
 93
6
 10
404.3896093572564
 20
380.5
 10
405.5596093572564
 20
382.45
 10
408.84039064274356
 20
382.45
 10
410.0103906427436
 20
380.5
 10
408.84039064274356
 20
378.55
 10
405.5596093572564
 20
378.55
 97
0
 75
0
 76
1
 98
0
  0
HATCH
  5
A9
330
1B
100
AcDbEntity
 67
1
  8
R-LEGENDA
 62
7
420
16777215
100
AcDbHatch
 10
0.0
 20
0.0
 30
0.0
210
0.0
220
0.0
230
1.0
  2
SOLID
 70
1
 71
0
 91
1
 92
3
 72
0
 73
1
 93
6
 10
404.3896093572564
 20
374.5
 10
405.5596093572564
 20
376.45
 10
408.84039064274356
 20
376.45
 10
410.0103906427436
 20
374.5
 10
408.84039064274356
 20
372.55
 10
405.5596093572564
 20
372.55
 97
0
 75
0
 76
1
 98
0
  0
HATCH
  5
AA
330
1B
100
AcDbEntity
 67
1
  8
R-LEGENDA
 62
7
420
16777215
100
AcDbHatch
 10
0.0
 20
0.0
 30
0.0
210
0.0
220
0.0
230
1.0
  2
SOLID
 70
1
 71
0
 91
1
 92
3
 72
0
 73
1
 93
6
 10
404.3896093572564
 20
368.5
 10
405.5596093572564
 20
370.45
 10
408.84039064274356
 20
370.45
 10
410.0103906427436
 20
368.5
 10
408.84039064274356
 20
366.55
 10
405.5596093572564
 20
366.55
 97
0
 75
0
 76
1
 98
0
  0
LWPOLYLINE
  5
AB
330
1B
100
AcDbEntity
 67
1
  8
R-LEGENDA
370
18
100
AcDbPolyline
 90
6
 70
1
 10
404.3896093572564
 20
398.5
 10
405.5596093572564
 20
400.45
 10
408.84039064274356
 20
400.45
 10
410.0103906427436
 20
398.5
 10
408.84039064274356
 20
396.55
 10
405.5596093572564
 20
396.55
  0
LWPOLYLINE
  5
AC
330
1B
100
AcDbEntity
 67
1
  8
R-LEGENDA
370
18
100
AcDbPolyline
 90
6
 70
1
 10
404.3896093572564
 20
392.5
 10
405.5596093572564
 20
394.45
 10
408.84039064274356
 20
394.45
 10
410.0103906427436
 20
392.5
 10
408.84039064274356
 20
390.55
 10
405.5596093572564
 20
390.55
  0
LWPOLYLINE
  5
AD
330
1B
100
AcDbEntity
 67
1
  8
R-LEGENDA
370
18
100
AcDbPolyline
 90
6
 70
1
 10
404.3896093572564
 20
386.5
 10
405.5596093572564
 20
388.45
 10
408.84039064274356
 20
388.45
 10
410.0103906427436
 20
386.5
 10
408.84039064274356
 20
384.55
 10
405.5596093572564
 20
384.55
  0
LWPOLYLINE
  5
AE
330
1B
100
AcDbEntity
 67
1
  8
R-LEGENDA
370
18
100
AcDbPolyline
 90
6
 70
1
 10
404.3896093572564
 20
380.5
 10
405.5596093572564
 20
382.45
 10
408.84039064274356
 20
382.45
 10
410.0103906427436
 20
380.5
 10
408.84039064274356
 20
378.55
 10
405.5596093572564
 20
378.55
  0
LWPOLYLINE
  5
AF
330
1B
100
AcDbEntity
 67
1
  8
R-LEGENDA
370
18
100
AcDbPolyline
 90
6
 70
1
 10
404.3896093572564
 20
374.5
 10
405.5596093572564
 20
376.45
 10
408.84039064274356
 20
376.45
 10
410.0103906427436
 20
374.5
 10
408.84039064274356
 20
372.55
 10
405.5596093572564
 20
372.55
  0
LWPOLYLINE
  5
B0
330
1B
100
AcDbEntity
 67
1
  8
R-LEGENDA
370
18
100
AcDbPolyline
 90
6
 70
1
 10
404.3896093572564
 20
368.5
 10
405.5596093572564
 20
370.45
 10
408.84039064274356
 20
370.45
 10
410.0103906427436
 20
368.5
 10
408.84039064274356
 20
366.55
 10
405.5596093572564
 20
366.55
  0
TEXT
  5
B1
330
1B
100
AcDbEntity
 67
1
  8
R-LEGENDA
100
AcDbText
 10
406.1896093572564
 20
397.25
 30
0.0
 40
2.5
  1
1
  7
PL_ARIAL
 11
406.1896093572564
 21
397.25
 31
0.0
100
AcDbText
  0
TEXT
  5
B2
330
1B
100
AcDbEntity
 67
1
  8
R-LEGENDA
100
AcDbText
 10
406.1896093572564
 20
391.25
 30
0.0
 40
2.5
  1
2
  7
PL_ARIAL
 11
406.1896093572564
 21
391.25
 31
0.0
100
AcDbText
  0
TEXT
  5
B3
330
1B
100
AcDbEntity
 67
1
  8
R-LEGENDA
100
AcDbText
 10
406.1896093572564
 20
385.25
 30
0.0
 40
2.5
  1
3
  7
PL_ARIAL
 11
406.1896093572564
 21
385.25
 31
0.0
100
AcDbText
  0
TEXT
  5
B4
330
1B
100
AcDbEntity
 67
1
  8
R-LEGENDA
100
AcDbText
 10
406.1896093572564
 20
379.25
 30
0.0
 40
2.5
  1
4
  7
PL_ARIAL
 11
406.1896093572564
 21
379.25
 31
0.0
100
AcDbText
  0
TEXT
  5
B5
330
1B
100
AcDbEntity
 67
1
  8
R-LEGENDA
100
AcDbText
 10
406.1896093572564
 20
373.25
 30
0.0
 40
2.5
  1
5
  7
PL_ARIAL
 11
406.1896093572564
 21
373.25
 31
0.0
100
AcDbText
  0
TEXT
  5
B6
330
1B
100
AcDbEntity
 67
1
  8
R-LEGENDA
100
AcDbText
 10
406.1896093572564
 20
367.25
 30
0.0
 40
2.5
  1
6
  7
PL_ARIAL
 11
406.1896093572564
 21
367.25
 31
0.0
100
AcDbText
  0
HATCH
  5
B7
330
1B
100
AcDbEntity
 67
1
  8
R-TABLICZKA
 62
7
420
16777215
100
AcDbHatch
 10
0.0
 20
0.0
 30
0.0
210
0.0
220
0.0
230
1.0
  2
SOLID
 70
1
 71
0
 91
1
 92
3
 72
0
 73
1
 93
4
 10
404.0
 20
10.0
 10
584.0
 20
10.0
 10
584.0
 20
103.0
 10
404.0
 20
103.0
 97
0
 75
0
 76
1
 98
0
  0
HATCH
  5
B8
330
1B
100
AcDbEntity
 67
1
  8
R-TABLICZKA
 62
7
420
16777215
100
AcDbHatch
 10
0.0
 20
0.0
 30
0.0
210
0.0
220
0.0
230
1.0
  2
SOLID
 70
1
 71
0
 91
1
 92
3
 72
0
 73
1
 93
4
 10
404.0
 20
103.0
 10
584.0
 20
103.0
 10
584.0
 20
113.0
 10
404.0
 20
113.0
 97
0
 75
0
 76
1
 98
0
  0
LWPOLYLINE
  5
B9
330
1B
100
AcDbEntity
 67
1
  8
R-RAMKA
370
70
100
AcDbPolyline
 90
4
 70
1
 10
20.0
 20
10.0
 10
584.0
 20
10.0
 10
584.0
 20
410.0
 10
20.0
 20
410.0
  0
LWPOLYLINE
  5
BA
330
1B
100
AcDbEntity
 67
1
  8
R-RAMKA
370
70
100
AcDbPolyline
 90
2
 70
0
 10
297.0
 20
0.0
 10
297.0
 20
20.0
  0
LWPOLYLINE
  5
BB
330
1B
100
AcDbEntity
 67
1
  8
R-RAMKA
370
70
100
AcDbPolyline
 90
2
 70
0
 10
297.0
 20
420.0
 10
297.0
 20
400.0
  0
LWPOLYLINE
  5
BC
330
1B
100
AcDbEntity
 67
1
  8
R-RAMKA
370
70
100
AcDbPolyline
 90
2
 70
0
 10
0.0
 20
210.0
 10
30.0
 20
210.0
  0
LWPOLYLINE
  5
BD
330
1B
100
AcDbEntity
 67
1
  8
R-RAMKA
370
70
100
AcDbPolyline
 90
2
 70
0
 10
594.0
 20
210.0
 10
574.0
 20
210.0
  0
LWPOLYLINE
  5
BE
330
1B
100
AcDbEntity
 67
1
  8
R-RAMKA
370
35
100
AcDbPolyline
 90
2
 70
0
 10
210.0
 20
0.0
 10
210.0
 20
5.0
  0
LWPOLYLINE
  5
BF
330
1B
100
AcDbEntity
 67
1
  8
R-RAMKA
370
35
100
AcDbPolyline
 90
2
 70
0
 10
210.0
 20
420.0
 10
210.0
 20
415.0
  0
LWPOLYLINE
  5
C0
330
1B
100
AcDbEntity
 67
1
  8
R-RAMKA
370
35
100
AcDbPolyline
 90
2
 70
0
 10
402.0
 20
0.0
 10
402.0
 20
5.0
  0
LWPOLYLINE
  5
C1
330
1B
100
AcDbEntity
 67
1
  8
R-RAMKA
370
35
100
AcDbPolyline
 90
2
 70
0
 10
402.0
 20
420.0
 10
402.0
 20
415.0
  0
LWPOLYLINE
  5
C2
330
1B
100
AcDbEntity
 67
1
  8
R-RAMKA
370
35
100
AcDbPolyline
 90
2
 70
0
 10
0.0
 20
297.0
 10
5.0
 20
297.0
  0
LWPOLYLINE
  5
C3
330
1B
100
AcDbEntity
 67
1
  8
R-RAMKA
370
35
100
AcDbPolyline
 90
2
 70
0
 10
594.0
 20
297.0
 10
589.0
 20
297.0
  0
LWPOLYLINE
  5
C4
330
1B
100
AcDbEntity
 67
1
  8
R-RAMKA
370
35
100
AcDbPolyline
 90
2
 70
0
 10
47.0
 20
10.0
 10
47.0
 20
5.0
  0
LWPOLYLINE
  5
C5
330
1B
100
AcDbEntity
 67
1
  8
R-RAMKA
370
35
100
AcDbPolyline
 90
2
 70
0
 10
47.0
 20
410.0
 10
47.0
 20
415.0
  0
LWPOLYLINE
  5
C6
330
1B
100
AcDbEntity
 67
1
  8
R-RAMKA
370
35
100
AcDbPolyline
 90
2
 70
0
 10
97.0
 20
10.0
 10
97.0
 20
5.0
  0
LWPOLYLINE
  5
C7
330
1B
100
AcDbEntity
 67
1
  8
R-RAMKA
370
35
100
AcDbPolyline
 90
2
 70
0
 10
97.0
 20
410.0
 10
97.0
 20
415.0
  0
LWPOLYLINE
  5
C8
330
1B
100
AcDbEntity
 67
1
  8
R-RAMKA
370
35
100
AcDbPolyline
 90
2
 70
0
 10
147.0
 20
10.0
 10
147.0
 20
5.0
  0
LWPOLYLINE
  5
C9
330
1B
100
AcDbEntity
 67
1
  8
R-RAMKA
370
35
100
AcDbPolyline
 90
2
 70
0
 10
147.0
 20
410.0
 10
147.0
 20
415.0
  0
LWPOLYLINE
  5
CA
330
1B
100
AcDbEntity
 67
1
  8
R-RAMKA
370
35
100
AcDbPolyline
 90
2
 70
0
 10
197.0
 20
10.0
 10
197.0
 20
5.0
  0
LWPOLYLINE
  5
CB
330
1B
100
AcDbEntity
 67
1
  8
R-RAMKA
370
35
100
AcDbPolyline
 90
2
 70
0
 10
197.0
 20
410.0
 10
197.0
 20
415.0
  0
LWPOLYLINE
  5
CC
330
1B
100
AcDbEntity
 67
1
  8
R-RAMKA
370
35
100
AcDbPolyline
 90
2
 70
0
 10
247.0
 20
10.0
 10
247.0
 20
5.0
  0
LWPOLYLINE
  5
CD
330
1B
100
AcDbEntity
 67
1
  8
R-RAMKA
370
35
100
AcDbPolyline
 90
2
 70
0
 10
247.0
 20
410.0
 10
247.0
 20
415.0
  0
LWPOLYLINE
  5
CE
330
1B
100
AcDbEntity
 67
1
  8
R-RAMKA
370
35
100
AcDbPolyline
 90
2
 70
0
 10
297.0
 20
10.0
 10
297.0
 20
5.0
  0
LWPOLYLINE
  5
CF
330
1B
100
AcDbEntity
 67
1
  8
R-RAMKA
370
35
100
AcDbPolyline
 90
2
 70
0
 10
297.0
 20
410.0
 10
297.0
 20
415.0
  0
LWPOLYLINE
  5
D0
330
1B
100
AcDbEntity
 67
1
  8
R-RAMKA
370
35
100
AcDbPolyline
 90
2
 70
0
 10
347.0
 20
10.0
 10
347.0
 20
5.0
  0
LWPOLYLINE
  5
D1
330
1B
100
AcDbEntity
 67
1
  8
R-RAMKA
370
35
100
AcDbPolyline
 90
2
 70
0
 10
347.0
 20
410.0
 10
347.0
 20
415.0
  0
LWPOLYLINE
  5
D2
330
1B
100
AcDbEntity
 67
1
  8
R-RAMKA
370
35
100
AcDbPolyline
 90
2
 70
0
 10
397.0
 20
10.0
 10
397.0
 20
5.0
  0
LWPOLYLINE
  5
D3
330
1B
100
AcDbEntity
 67
1
  8
R-RAMKA
370
35
100
AcDbPolyline
 90
2
 70
0
 10
397.0
 20
410.0
 10
397.0
 20
415.0
  0
LWPOLYLINE
  5
D4
330
1B
100
AcDbEntity
 67
1
  8
R-RAMKA
370
35
100
AcDbPolyline
 90
2
 70
0
 10
447.0
 20
10.0
 10
447.0
 20
5.0
  0
LWPOLYLINE
  5
D5
330
1B
100
AcDbEntity
 67
1
  8
R-RAMKA
370
35
100
AcDbPolyline
 90
2
 70
0
 10
447.0
 20
410.0
 10
447.0
 20
415.0
  0
LWPOLYLINE
  5
D6
330
1B
100
AcDbEntity
 67
1
  8
R-RAMKA
370
35
100
AcDbPolyline
 90
2
 70
0
 10
497.0
 20
10.0
 10
497.0
 20
5.0
  0
LWPOLYLINE
  5
D7
330
1B
100
AcDbEntity
 67
1
  8
R-RAMKA
370
35
100
AcDbPolyline
 90
2
 70
0
 10
497.0
 20
410.0
 10
497.0
 20
415.0
  0
LWPOLYLINE
  5
D8
330
1B
100
AcDbEntity
 67
1
  8
R-RAMKA
370
35
100
AcDbPolyline
 90
2
 70
0
 10
547.0
 20
10.0
 10
547.0
 20
5.0
  0
LWPOLYLINE
  5
D9
330
1B
100
AcDbEntity
 67
1
  8
R-RAMKA
370
35
100
AcDbPolyline
 90
2
 70
0
 10
547.0
 20
410.0
 10
547.0
 20
415.0
  0
LWPOLYLINE
  5
DA
330
1B
100
AcDbEntity
 67
1
  8
R-RAMKA
370
35
100
AcDbPolyline
 90
2
 70
0
 10
20.0
 20
60.0
 10
15.0
 20
60.0
  0
LWPOLYLINE
  5
DB
330
1B
100
AcDbEntity
 67
1
  8
R-RAMKA
370
35
100
AcDbPolyline
 90
2
 70
0
 10
584.0
 20
60.0
 10
589.0
 20
60.0
  0
LWPOLYLINE
  5
DC
330
1B
100
AcDbEntity
 67
1
  8
R-RAMKA
370
35
100
AcDbPolyline
 90
2
 70
0
 10
20.0
 20
110.0
 10
15.0
 20
110.0
  0
LWPOLYLINE
  5
DD
330
1B
100
AcDbEntity
 67
1
  8
R-RAMKA
370
35
100
AcDbPolyline
 90
2
 70
0
 10
584.0
 20
110.0
 10
589.0
 20
110.0
  0
LWPOLYLINE
  5
DE
330
1B
100
AcDbEntity
 67
1
  8
R-RAMKA
370
35
100
AcDbPolyline
 90
2
 70
0
 10
20.0
 20
160.0
 10
15.0
 20
160.0
  0
LWPOLYLINE
  5
DF
330
1B
100
AcDbEntity
 67
1
  8
R-RAMKA
370
35
100
AcDbPolyline
 90
2
 70
0
 10
584.0
 20
160.0
 10
589.0
 20
160.0
  0
LWPOLYLINE
  5
E0
330
1B
100
AcDbEntity
 67
1
  8
R-RAMKA
370
35
100
AcDbPolyline
 90
2
 70
0
 10
20.0
 20
210.0
 10
15.0
 20
210.0
  0
LWPOLYLINE
  5
E1
330
1B
100
AcDbEntity
 67
1
  8
R-RAMKA
370
35
100
AcDbPolyline
 90
2
 70
0
 10
584.0
 20
210.0
 10
589.0
 20
210.0
  0
LWPOLYLINE
  5
E2
330
1B
100
AcDbEntity
 67
1
  8
R-RAMKA
370
35
100
AcDbPolyline
 90
2
 70
0
 10
20.0
 20
260.0
 10
15.0
 20
260.0
  0
LWPOLYLINE
  5
E3
330
1B
100
AcDbEntity
 67
1
  8
R-RAMKA
370
35
100
AcDbPolyline
 90
2
 70
0
 10
584.0
 20
260.0
 10
589.0
 20
260.0
  0
LWPOLYLINE
  5
E4
330
1B
100
AcDbEntity
 67
1
  8
R-RAMKA
370
35
100
AcDbPolyline
 90
2
 70
0
 10
20.0
 20
310.0
 10
15.0
 20
310.0
  0
LWPOLYLINE
  5
E5
330
1B
100
AcDbEntity
 67
1
  8
R-RAMKA
370
35
100
AcDbPolyline
 90
2
 70
0
 10
584.0
 20
310.0
 10
589.0
 20
310.0
  0
LWPOLYLINE
  5
E6
330
1B
100
AcDbEntity
 67
1
  8
R-RAMKA
370
35
100
AcDbPolyline
 90
2
 70
0
 10
20.0
 20
360.0
 10
15.0
 20
360.0
  0
LWPOLYLINE
  5
E7
330
1B
100
AcDbEntity
 67
1
  8
R-RAMKA
370
35
100
AcDbPolyline
 90
2
 70
0
 10
584.0
 20
360.0
 10
589.0
 20
360.0
  0
LWPOLYLINE
  5
E8
330
1B
100
AcDbEntity
 67
1
  8
R-TABLICZKA
370
25
100
AcDbPolyline
 90
2
 70
0
 10
514.0
 20
91.0
 10
514.0
 20
103.0
  0
LWPOLYLINE
  5
E9
330
1B
100
AcDbEntity
 67
1
  8
R-TABLICZKA
370
25
100
AcDbPolyline
 90
2
 70
0
 10
539.0
 20
91.0
 10
539.0
 20
103.0
  0
LWPOLYLINE
  5
EA
330
1B
100
AcDbEntity
 67
1
  8
R-TABLICZKA
370
25
100
AcDbPolyline
 90
2
 70
0
 10
404.0
 20
91.0
 10
584.0
 20
91.0
  0
LWPOLYLINE
  5
EB
330
1B
100
AcDbEntity
 67
1
  8
R-TABLICZKA
370
18
100
AcDbPolyline
 90
2
 70
0
 10
404.0
 20
83.0
 10
584.0
 20
83.0
  0
LWPOLYLINE
  5
EC
330
1B
100
AcDbEntity
 67
1
  8
R-TABLICZKA
370
18
100
AcDbPolyline
 90
2
 70
0
 10
404.0
 20
72.5
 10
584.0
 20
72.5
  0
LWPOLYLINE
  5
ED
330
1B
100
AcDbEntity
 67
1
  8
R-TABLICZKA
370
18
100
AcDbPolyline
 90
2
 70
0
 10
554.0
 20
63.5
 10
554.0
 20
72.5
  0
LWPOLYLINE
  5
EE
330
1B
100
AcDbEntity
 67
1
  8
R-TABLICZKA
370
25
100
AcDbPolyline
 90
2
 70
0
 10
404.0
 20
63.5
 10
584.0
 20
63.5
  0
LWPOLYLINE
  5
EF
330
1B
100
AcDbEntity
 67
1
  8
R-TABLICZKA
370
18
100
AcDbPolyline
 90
2
 70
0
 10
404.0
 20
59.0
 10
584.0
 20
59.0
  0
LWPOLYLINE
  5
F0
330
1B
100
AcDbEntity
 67
1
  8
R-TABLICZKA
370
18
100
AcDbPolyline
 90
2
 70
0
 10
404.0
 20
52.0
 10
584.0
 20
52.0
  0
LWPOLYLINE
  5
F1
330
1B
100
AcDbEntity
 67
1
  8
R-TABLICZKA
370
18
100
AcDbPolyline
 90
2
 70
0
 10
404.0
 20
45.0
 10
584.0
 20
45.0
  0
LWPOLYLINE
  5
F2
330
1B
100
AcDbEntity
 67
1
  8
R-TABLICZKA
370
18
100
AcDbPolyline
 90
2
 70
0
 10
404.0
 20
38.0
 10
584.0
 20
38.0
  0
LWPOLYLINE
  5
F3
330
1B
100
AcDbEntity
 67
1
  8
R-TABLICZKA
370
18
100
AcDbPolyline
 90
2
 70
0
 10
404.0
 20
31.0
 10
584.0
 20
31.0
  0
LWPOLYLINE
  5
F4
330
1B
100
AcDbEntity
 67
1
  8
R-TABLICZKA
370
18
100
AcDbPolyline
 90
2
 70
0
 10
431.0
 20
31.0
 10
431.0
 20
63.5
  0
LWPOLYLINE
  5
F5
330
1B
100
AcDbEntity
 67
1
  8
R-TABLICZKA
370
18
100
AcDbPolyline
 90
2
 70
0
 10
474.0
 20
31.0
 10
474.0
 20
63.5
  0
LWPOLYLINE
  5
F6
330
1B
100
AcDbEntity
 67
1
  8
R-TABLICZKA
370
18
100
AcDbPolyline
 90
2
 70
0
 10
529.0
 20
31.0
 10
529.0
 20
63.5
  0
LWPOLYLINE
  5
F7
330
1B
100
AcDbEntity
 67
1
  8
R-TABLICZKA
370
18
100
AcDbPolyline
 90
2
 70
0
 10
549.0
 20
31.0
 10
549.0
 20
63.5
  0
LWPOLYLINE
  5
F8
330
1B
100
AcDbEntity
 67
1
  8
R-TABLICZKA
370
25
100
AcDbPolyline
 90
2
 70
0
 10
404.0
 20
31.0
 10
584.0
 20
31.0
  0
LWPOLYLINE
  5
F9
330
1B
100
AcDbEntity
 67
1
  8
R-TABLICZKA
370
25
100
AcDbPolyline
 90
2
 70
0
 10
404.0
 20
19.0
 10
584.0
 20
19.0
  0
LWPOLYLINE
  5
FA
330
1B
100
AcDbEntity
 67
1
  8
R-TABLICZKA
370
25
100
AcDbPolyline
 90
2
 70
0
 10
428.0
 20
10.0
 10
428.0
 20
19.0
  0
LWPOLYLINE
  5
FB
330
1B
100
AcDbEntity
 67
1
  8
R-TABLICZKA
370
25
100
AcDbPolyline
 90
2
 70
0
 10
444.0
 20
10.0
 10
444.0
 20
19.0
  0
LWPOLYLINE
  5
FC
330
1B
100
AcDbEntity
 67
1
  8
R-TABLICZKA
370
25
100
AcDbPolyline
 90
2
 70
0
 10
468.0
 20
10.0
 10
468.0
 20
19.0
  0
LWPOLYLINE
  5
FD
330
1B
100
AcDbEntity
 67
1
  8
R-TABLICZKA
370
25
100
AcDbPolyline
 90
2
 70
0
 10
496.0
 20
10.0
 10
496.0
 20
19.0
  0
LWPOLYLINE
  5
FE
330
1B
100
AcDbEntity
 67
1
  8
R-TABLICZKA
370
25
100
AcDbPolyline
 90
2
 70
0
 10
548.0
 20
10.0
 10
548.0
 20
19.0
  0
LWPOLYLINE
  5
FF
330
1B
100
AcDbEntity
 67
1
  8
R-TABLICZKA
370
25
100
AcDbPolyline
 90
2
 70
0
 10
566.0
 20
10.0
 10
566.0
 20
19.0
  0
LWPOLYLINE
  5
100
330
1B
100
AcDbEntity
 67
1
  8
R-TABLICZKA
370
50
100
AcDbPolyline
 90
4
 70
1
 10
404.0
 20
10.0
 10
584.0
 20
10.0
 10
584.0
 20
103.0
 10
404.0
 20
103.0
  0
LWPOLYLINE
  5
101
330
1B
100
AcDbEntity
 67
1
  8
R-TABLICZKA
370
18
100
AcDbPolyline
 90
2
 70
0
 10
404.0
 20
108.0
 10
584.0
 20
108.0
  0
LWPOLYLINE
  5
102
330
1B
100
AcDbEntity
 67
1
  8
R-TABLICZKA
370
18
100
AcDbPolyline
 90
2
 70
0
 10
404.0
 20
113.0
 10
584.0
 20
113.0
  0
LWPOLYLINE
  5
103
330
1B
100
AcDbEntity
 67
1
  8
R-TABLICZKA
370
18
100
AcDbPolyline
 90
2
 70
0
 10
422.0
 20
103.0
 10
422.0
 20
113.0
  0
LWPOLYLINE
  5
104
330
1B
100
AcDbEntity
 67
1
  8
R-TABLICZKA
370
18
100
AcDbPolyline
 90
2
 70
0
 10
544.0
 20
103.0
 10
544.0
 20
113.0
  0
LWPOLYLINE
  5
105
330
1B
100
AcDbEntity
 67
1
  8
R-TABLICZKA
370
25
100
AcDbPolyline
 90
4
 70
1
 10
404.0
 20
103.0
 10
584.0
 20
103.0
 10
584.0
 20
113.0
 10
404.0
 20
113.0
  0
TEXT
  5
106
330
1B
100
AcDbEntity
 67
1
  8
R-OPISY
100
AcDbText
 10
59.46491937315466
 20
120.70288888888886
 30
0.0
 40
5.0
  1
ELEWACJA ZACHODNIA
  7
PL_ARIAL_B
 11
59.46491937315466
 21
120.70288888888886
 31
0.0
100
AcDbText
  0
TEXT
  5
107
330
1B
100
AcDbEntity
 67
1
  8
R-OPISY
100
AcDbText
 10
148.19964569611628
 20
120.70288888888886
 30
0.0
 40
3.5
  1
1:50
  7
PL_ARIAL
 11
148.19964569611628
 21
120.70288888888886
 31
0.0
100
AcDbText
  0
TEXT
  5
108
330
1B
100
AcDbEntity
 67
1
  8
R-LEGENDA
100
AcDbText
 10
404.0
 20
403.5
 30
0.0
 40
3.5
  1
KOLORYSTYKA I MATERIAŁY ELEWACJI
  7
PL_ARIAL_B
 11
404.0
 21
403.5
 31
0.0
100
AcDbText
  0
TEXT
  5
109
330
1B
100
AcDbEntity
 67
1
  8
R-LEGENDA
100
AcDbText
 10
427.0
 20
399.3
 30
0.0
 40
1.8
  1
Tynk silikonowy cienkowarstwowy, biały [TYNK_SIL]
  7
PL_ARIAL
 11
427.0
 21
399.3
 31
0.0
100
AcDbText
  0
TEXT
  5
10A
330
1B
100
AcDbEntity
 67
1
  8
R-LEGENDA
420
5263440
100
AcDbText
 10
573.9995457642516
 20
399.3
 30
0.0
 40
1.8
  1
#f5f4f0
  7
PL_ARIAL
 11
573.9995457642516
 21
399.3
 31
0.0
100
AcDbText
  0
TEXT
  5
10B
330
1B
100
AcDbEntity
 67
1
  8
R-LEGENDA
100
AcDbText
 10
427.0
 20
393.3
 30
0.0
 40
1.8
  1
Szkło (szyby zespolone) [SZKLO]
  7
PL_ARIAL
 11
427.0
 21
393.3
 31
0.0
100
AcDbText
  0
TEXT
  5
10C
330
1B
100
AcDbEntity
 67
1
  8
R-LEGENDA
420
5263440
100
AcDbText
 10
572.1087894617307
 20
393.3
 30
0.0
 40
1.8
  1
#a9c3cd
  7
PL_ARIAL
 11
572.1087894617307
 21
393.3
 31
0.0
100
AcDbText
  0
TEXT
  5
10D
330
1B
100
AcDbEntity
 67
1
  8
R-LEGENDA
100
AcDbText
 10
427.0
 20
387.3
 30
0.0
 40
1.8
  1
Podbudowa nawierzchni (kruszywo) [NAW_PODBUDOWA]
  7
PL_ARIAL
 11
427.0
 21
387.3
 31
0.0
100
AcDbText
  0
TEXT
  5
10E
330
1B
100
AcDbEntity
 67
1
  8
R-LEGENDA
420
5263440
100
AcDbText
 10
571.8152623211447
 20
387.3
 30
0.0
 40
1.8
  1
#8d877d
  7
PL_ARIAL
 11
571.8152623211447
 21
387.3
 31
0.0
100
AcDbText
  0
TEXT
  5
10F
330
1B
100
AcDbEntity
 67
1
  8
R-LEGENDA
100
AcDbText
 10
427.0
 20
381.3
 30
0.0
 40
1.8
  1
Stolarka — profile aluminiowe, antracyt [RAMA_ALU]
  7
PL_ARIAL
 11
427.0
 21
381.3
 31
0.0
100
AcDbText
  0
TEXT
  5
110
330
1B
100
AcDbEntity
 67
1
  8
R-LEGENDA
420
5263440
100
AcDbText
 10
572.5433568021804
 20
381.3
 30
0.0
 40
1.8
  1
#2b2f33
  7
PL_ARIAL
 11
572.5433568021804
 21
381.3
 31
0.0
100
AcDbText
  0
TEXT
  5
111
330
1B
100
AcDbEntity
 67
1
  8
R-LEGENDA
100
AcDbText
 10
427.0
 20
375.3
 30
0.0
 40
1.8
  1
Drewno termojesion (lamele elewacyjne) [DREWNO_TERMO]
  7
PL_ARIAL
 11
427.0
 21
375.3
 31
0.0
100
AcDbText
  0
TEXT
  5
112
330
1B
100
AcDbEntity
 67
1
  8
R-LEGENDA
420
5263440
100
AcDbText
 10
571.8152623211447
 20
375.3
 30
0.0
 40
1.8
  1
#9b6b41
  7
PL_ARIAL
 11
571.8152623211447
 21
375.3
 31
0.0
100
AcDbText
  0
TEXT
  5
113
330
1B
100
AcDbEntity
 67
1
  8
R-LEGENDA
100
AcDbText
 10
427.0
 20
369.3
 30
0.0
 40
1.8
  1
Obróbki blacharskie (blacha powlekana) [OBROBKA_BLACH]
  7
PL_ARIAL
 11
427.0
 21
369.3
 31
0.0
100
AcDbText
  0
TEXT
  5
114
330
1B
100
AcDbEntity
 67
1
  8
R-LEGENDA
420
5263440
100
AcDbText
 10
572.5433568021804
 20
369.3
 30
0.0
 40
1.8
  1
#3b3f43
  7
PL_ARIAL
 11
572.5433568021804
 21
369.3
 31
0.0
100
AcDbText
  0
TEXT
  5
115
330
1B
100
AcDbEntity
 67
1
  8
R-OPISY
100
AcDbText
 10
406.0
 20
353.0
 30
0.0
 40
3.5
  1
OBJAŚNIENIA I UWAGI
  7
PL_ARIAL_B
 11
406.0
 21
353.0
 31
0.0
100
AcDbText
  0
TEXT
  5
116
330
1B
100
AcDbEntity
 67
1
  8
R-OPISY
100
AcDbText
 10
406.0
 20
346.7
 30
0.0
 40
1.8
  1
1. 
  7
PL_ARIAL
 11
406.0
 21
346.7
 31
0.0
100
AcDbText
  0
TEXT
  5
117
330
1B
100
AcDbEntity
 67
1
  8
R-OPISY
100
AcDbText
 10
408.90869861458094
 20
346.7
 30
0.0
 40
1.8
  1
Wymiary w cm (mm w indeksie górnym, np. 24⁵ = 24,5 cm), rzędne w m względem ±0,000 = 101,650 m n.p.m. (PL-EVRF2007-NH).
  7
PL_ARIAL
 11
408.90869861458094
 21
346.7
 31
0.0
100
AcDbText
  0
TEXT
  5
118
330
1B
100
AcDbEntity
 67
1
  8
R-OPISY
100
AcDbText
 10
406.0
 20
343.28
 30
0.0
 40
1.8
  1
2. 
  7
PL_ARIAL
 11
406.0
 21
343.28
 31
0.0
100
AcDbText
  0
TEXT
  5
119
330
1B
100
AcDbEntity
 67
1
  8
R-OPISY
100
AcDbText
 10
408.90869861458094
 20
343.28
 30
0.0
 40
1.8
  1
Rzędne: trójkąt zaczerniony — poziom wykończenia, niezaczerniony — konstrukcji, w połowie zaczerniony — poziom ±0,000 z rzędną bezwzględną
  7
PL_ARIAL
 11
408.90869861458094
 21
343.28
 31
0.0
100
AcDbText
  0
TEXT
  5
11A
330
1B
100
AcDbEntity
 67
1
  8
R-OPISY
100
AcDbText
 10
408.90869861458094
 20
340.4
 30
0.0
 40
1.8
  1
(PN-B-01025).
  7
PL_ARIAL
 11
408.90869861458094
 21
340.4
 31
0.0
100
AcDbText
  0
TEXT
  5
11B
330
1B
100
AcDbEntity
 67
1
  8
R-OPISY
100
AcDbText
 10
406.0
 20
336.97999999999996
 30
0.0
 40
1.8
  1
3. 
  7
PL_ARIAL
 11
406.0
 21
336.97999999999996
 31
0.0
100
AcDbText
  0
TEXT
  5
11C
330
1B
100
AcDbEntity
 67
1
  8
R-OPISY
100
AcDbText
 10
408.90869861458094
 20
336.97999999999996
 30
0.0
 40
1.8
  1
Wysokość budynku wg § 6 WT: od terenu przy najniżej położonym wejściu (−0,273) do wierzchu stropodachu D1 (+6,193) — H = 6,47 m (bez attyk).
  7
PL_ARIAL
 11
408.90869861458094
 21
336.97999999999996
 31
0.0
100
AcDbText
  0
TEXT
  5
11D
330
1B
100
AcDbEntity
 67
1
  8
R-OPISY
100
AcDbText
 10
406.0
 20
333.55999999999995
 30
0.0
 40
1.8
  1
4. 
  7
PL_ARIAL
 11
406.0
 21
333.55999999999995
 31
0.0
100
AcDbText
  0
TEXT
  5
11E
330
1B
100
AcDbEntity
 67
1
  8
R-OPISY
100
AcDbText
 10
408.90869861458094
 20
333.55999999999995
 30
0.0
 40
1.8
  1
Kolorystyka orientacyjna wg kolorów materiałów w modelu (do potwierdzenia wzornikiem RAL/NCS).
  7
PL_ARIAL
 11
408.90869861458094
 21
333.55999999999995
 31
0.0
100
AcDbText
  0
TEXT
  5
11F
330
1B
100
AcDbEntity
 67
1
  8
R-OPISY
100
AcDbText
 10
406.0
 20
330.13999999999993
 30
0.0
 40
1.8
  1
5. 
  7
PL_ARIAL
 11
406.0
 21
330.13999999999993
 31
0.0
100
AcDbText
  0
TEXT
  5
120
330
1B
100
AcDbEntity
 67
1
  8
R-OPISY
100
AcDbText
 10
408.90869861458094
 20
330.13999999999993
 30
0.0
 40
1.8
  1
MODEL TESTOWY — rysunek próbny generatorów widoków; dane nie stanowią projektu.
  7
PL_ARIAL
 11
408.90869861458094
 21
330.13999999999993
 31
0.0
100
AcDbText
  0
TEXT
  5
121
330
1B
100
AcDbEntity
 67
1
  8
R-OPISY
100
AcDbText
 10
406.0
 20
326.7199999999999
 30
0.0
 40
1.8
  1
6. 
  7
PL_ARIAL
 11
406.0
 21
326.7199999999999
 31
0.0
100
AcDbText
  0
TEXT
  5
122
330
1B
100
AcDbEntity
 67
1
  8
R-OPISY
100
AcDbText
 10
408.90869861458094
 20
326.7199999999999
 30
0.0
 40
1.8
  1
Rysunek wygenerowany automatycznie z modelu model/test/dom_testowy.yaml (wersja 1.0, 2026-09-25) — generatory lamela.views.
  7
PL_ARIAL
 11
408.90869861458094
 21
326.7199999999999
 31
0.0
100
AcDbText
  0
TEXT
  5
123
330
1B
100
AcDbEntity
 67
1
  8
R-OPISY
100
AcDbText
 10
407.27251873722463
 20
313.5199999999999
 30
0.0
 40
1.8
  1
1
  7
PL_ARIAL
 11
407.27251873722463
 21
313.5199999999999
 31
0.0
100
AcDbText
  0
TEXT
  5
124
330
1B
100
AcDbEntity
 67
1
  8
R-OPISY
100
AcDbText
 10
427.27251873722463
 20
313.5199999999999
 30
0.0
 40
1.8
  1
0
  7
PL_ARIAL
 11
427.27251873722463
 21
313.5199999999999
 31
0.0
100
AcDbText
  0
TEXT
  5
125
330
1B
100
AcDbEntity
 67
1
  8
R-OPISY
100
AcDbText
 10
447.27251873722463
 20
313.5199999999999
 30
0.0
 40
1.8
  1
1
  7
PL_ARIAL
 11
447.27251873722463
 21
313.5199999999999
 31
0.0
100
AcDbText
  0
TEXT
  5
126
330
1B
100
AcDbEntity
 67
1
  8
R-OPISY
100
AcDbText
 10
467.27251873722463
 20
313.5199999999999
 30
0.0
 40
1.8
  1
2
  7
PL_ARIAL
 11
467.27251873722463
 21
313.5199999999999
 31
0.0
100
AcDbText
  0
TEXT
  5
127
330
1B
100
AcDbEntity
 67
1
  8
R-OPISY
100
AcDbText
 10
487.27251873722463
 20
313.5199999999999
 30
0.0
 40
1.8
  1
3
  7
PL_ARIAL
 11
487.27251873722463
 21
313.5199999999999
 31
0.0
100
AcDbText
  0
TEXT
  5
128
330
1B
100
AcDbEntity
 67
1
  8
R-OPISY
100
AcDbText
 10
507.27251873722463
 20
313.5199999999999
 30
0.0
 40
1.8
  1
4
  7
PL_ARIAL
 11
507.27251873722463
 21
313.5199999999999
 31
0.0
100
AcDbText
  0
TEXT
  5
129
330
1B
100
AcDbEntity
 67
1
  8
R-OPISY
100
AcDbText
 10
527.2725187372246
 20
313.5199999999999
 30
0.0
 40
1.8
  1
5
  7
PL_ARIAL
 11
527.2725187372246
 21
313.5199999999999
 31
0.0
100
AcDbText
  0
TEXT
  5
12A
330
1B
100
AcDbEntity
 67
1
  8
R-OPISY
100
AcDbText
 10
530.0
 20
310.9199999999999
 30
0.0
 40
1.8
  1
m
  7
PL_ARIAL
 11
530.0
 21
310.9199999999999
 31
0.0
100
AcDbText
  0
TEXT
  5
12B
330
1B
100
AcDbEntity
 67
1
  8
R-OPISY
100
AcDbText
 10
408.0
 20
307.9199999999999
 30
0.0
 40
1.8
  1
PODZIAŁKA 1:50
  7
PL_ARIAL_B
 11
408.0
 21
307.9199999999999
 31
0.0
100
AcDbText
  0
TEXT
  5
12C
330
1B
100
AcDbEntity
 67
1
  8
R-OPISY
100
AcDbText
 10
12.8
 20
119.5
 30
0.0
 40
1.8
  1
odcinek kontrolny 100 mm (wydruk 1:1)
 50
90.0
  7
PL_ARIAL
 11
12.8
 21
119.5
 31
0.0
100
AcDbText
  0
TEXT
  5
12D
330
1B
100
AcDbEntity
 67
1
  8
R-RAMKA
100
AcDbText
 10
32.08545310015898
 20
413.25
 30
0.0
 40
3.5
  1
1
  7
PL_ARIAL
 11
32.08545310015898
 21
413.25
 31
0.0
100
AcDbText
  0
TEXT
  5
12E
330
1B
100
AcDbEntity
 67
1
  8
R-RAMKA
100
AcDbText
 10
32.08545310015898
 20
3.25
 30
0.0
 40
3.5
  1
1
  7
PL_ARIAL
 11
32.08545310015898
 21
3.25
 31
0.0
100
AcDbText
  0
TEXT
  5
12F
330
1B
100
AcDbEntity
 67
1
  8
R-RAMKA
100
AcDbText
 10
70.58545310015899
 20
413.25
 30
0.0
 40
3.5
  1
2
  7
PL_ARIAL
 11
70.58545310015899
 21
413.25
 31
0.0
100
AcDbText
  0
TEXT
  5
130
330
1B
100
AcDbEntity
 67
1
  8
R-RAMKA
100
AcDbText
 10
70.58545310015899
 20
3.25
 30
0.0
 40
3.5
  1
2
  7
PL_ARIAL
 11
70.58545310015899
 21
3.25
 31
0.0
100
AcDbText
  0
TEXT
  5
131
330
1B
100
AcDbEntity
 67
1
  8
R-RAMKA
100
AcDbText
 10
120.58545310015899
 20
413.25
 30
0.0
 40
3.5
  1
3
  7
PL_ARIAL
 11
120.58545310015899
 21
413.25
 31
0.0
100
AcDbText
  0
TEXT
  5
132
330
1B
100
AcDbEntity
 67
1
  8
R-RAMKA
100
AcDbText
 10
120.58545310015899
 20
3.25
 30
0.0
 40
3.5
  1
3
  7
PL_ARIAL
 11
120.58545310015899
 21
3.25
 31
0.0
100
AcDbText
  0
TEXT
  5
133
330
1B
100
AcDbEntity
 67
1
  8
R-RAMKA
100
AcDbText
 10
170.585453100159
 20
413.25
 30
0.0
 40
3.5
  1
4
  7
PL_ARIAL
 11
170.585453100159
 21
413.25
 31
0.0
100
AcDbText
  0
TEXT
  5
134
330
1B
100
AcDbEntity
 67
1
  8
R-RAMKA
100
AcDbText
 10
170.585453100159
 20
3.25
 30
0.0
 40
3.5
  1
4
  7
PL_ARIAL
 11
170.585453100159
 21
3.25
 31
0.0
100
AcDbText
  0
TEXT
  5
135
330
1B
100
AcDbEntity
 67
1
  8
R-RAMKA
100
AcDbText
 10
220.585453100159
 20
413.25
 30
0.0
 40
3.5
  1
5
  7
PL_ARIAL
 11
220.585453100159
 21
413.25
 31
0.0
100
AcDbText
  0
TEXT
  5
136
330
1B
100
AcDbEntity
 67
1
  8
R-RAMKA
100
AcDbText
 10
220.585453100159
 20
3.25
 30
0.0
 40
3.5
  1
5
  7
PL_ARIAL
 11
220.585453100159
 21
3.25
 31
0.0
100
AcDbText
  0
TEXT
  5
137
330
1B
100
AcDbEntity
 67
1
  8
R-RAMKA
100
AcDbText
 10
270.585453100159
 20
413.25
 30
0.0
 40
3.5
  1
6
  7
PL_ARIAL
 11
270.585453100159
 21
413.25
 31
0.0
100
AcDbText
  0
TEXT
  5
138
330
1B
100
AcDbEntity
 67
1
  8
R-RAMKA
100
AcDbText
 10
270.585453100159
 20
3.25
 30
0.0
 40
3.5
  1
6
  7
PL_ARIAL
 11
270.585453100159
 21
3.25
 31
0.0
100
AcDbText
  0
TEXT
  5
139
330
1B
100
AcDbEntity
 67
1
  8
R-RAMKA
100
AcDbText
 10
320.585453100159
 20
413.25
 30
0.0
 40
3.5
  1
7
  7
PL_ARIAL
 11
320.585453100159
 21
413.25
 31
0.0
100
AcDbText
  0
TEXT
  5
13A
330
1B
100
AcDbEntity
 67
1
  8
R-RAMKA
100
AcDbText
 10
320.585453100159
 20
3.25
 30
0.0
 40
3.5
  1
7
  7
PL_ARIAL
 11
320.585453100159
 21
3.25
 31
0.0
100
AcDbText
  0
TEXT
  5
13B
330
1B
100
AcDbEntity
 67
1
  8
R-RAMKA
100
AcDbText
 10
370.585453100159
 20
413.25
 30
0.0
 40
3.5
  1
8
  7
PL_ARIAL
 11
370.585453100159
 21
413.25
 31
0.0
100
AcDbText
  0
TEXT
  5
13C
330
1B
100
AcDbEntity
 67
1
  8
R-RAMKA
100
AcDbText
 10
370.585453100159
 20
3.25
 30
0.0
 40
3.5
  1
8
  7
PL_ARIAL
 11
370.585453100159
 21
3.25
 31
0.0
100
AcDbText
  0
TEXT
  5
13D
330
1B
100
AcDbEntity
 67
1
  8
R-RAMKA
100
AcDbText
 10
420.585453100159
 20
413.25
 30
0.0
 40
3.5
  1
9
  7
PL_ARIAL
 11
420.585453100159
 21
413.25
 31
0.0
100
AcDbText
  0
TEXT
  5
13E
330
1B
100
AcDbEntity
 67
1
  8
R-RAMKA
100
AcDbText
 10
420.585453100159
 20
3.25
 30
0.0
 40
3.5
  1
9
  7
PL_ARIAL
 11
420.585453100159
 21
3.25
 31
0.0
100
AcDbText
  0
TEXT
  5
13F
330
1B
100
AcDbEntity
 67
1
  8
R-RAMKA
100
AcDbText
 10
469.170906200318
 20
413.25
 30
0.0
 40
3.5
  1
10
  7
PL_ARIAL
 11
469.170906200318
 21
413.25
 31
0.0
100
AcDbText
  0
TEXT
  5
140
330
1B
100
AcDbEntity
 67
1
  8
R-RAMKA
100
AcDbText
 10
469.170906200318
 20
3.25
 30
0.0
 40
3.5
  1
10
  7
PL_ARIAL
 11
469.170906200318
 21
3.25
 31
0.0
100
AcDbText
  0
TEXT
  5
141
330
1B
100
AcDbEntity
 67
1
  8
R-RAMKA
100
AcDbText
 10
519.3596979332274
 20
413.25
 30
0.0
 40
3.5
  1
11
  7
PL_ARIAL
 11
519.3596979332274
 21
413.25
 31
0.0
100
AcDbText
  0
TEXT
  5
142
330
1B
100
AcDbEntity
 67
1
  8
R-RAMKA
100
AcDbText
 10
519.3596979332274
 20
3.25
 30
0.0
 40
3.5
  1
11
  7
PL_ARIAL
 11
519.3596979332274
 21
3.25
 31
0.0
100
AcDbText
  0
TEXT
  5
143
330
1B
100
AcDbEntity
 67
1
  8
R-RAMKA
100
AcDbText
 10
562.670906200318
 20
413.25
 30
0.0
 40
3.5
  1
12
  7
PL_ARIAL
 11
562.670906200318
 21
413.25
 31
0.0
100
AcDbText
  0
TEXT
  5
144
330
1B
100
AcDbEntity
 67
1
  8
R-RAMKA
100
AcDbText
 10
562.670906200318
 20
3.25
 30
0.0
 40
3.5
  1
12
  7
PL_ARIAL
 11
562.670906200318
 21
3.25
 31
0.0
100
AcDbText
  0
TEXT
  5
145
330
1B
100
AcDbEntity
 67
1
  8
R-RAMKA
100
AcDbText
 10
587.3032591414944
 20
383.25
 30
0.0
 40
3.5
  1
A
  7
PL_ARIAL
 11
587.3032591414944
 21
383.25
 31
0.0
100
AcDbText
  0
TEXT
  5
146
330
1B
100
AcDbEntity
 67
1
  8
R-RAMKA
100
AcDbText
 10
13.303259141494436
 20
383.25
 30
0.0
 40
3.5
  1
A
  7
PL_ARIAL
 11
13.303259141494436
 21
383.25
 31
0.0
100
AcDbText
  0
TEXT
  5
147
330
1B
100
AcDbEntity
 67
1
  8
R-RAMKA
100
AcDbText
 10
587.3032591414944
 20
333.25
 30
0.0
 40
3.5
  1
B
  7
PL_ARIAL
 11
587.3032591414944
 21
333.25
 31
0.0
100
AcDbText
  0
TEXT
  5
148
330
1B
100
AcDbEntity
 67
1
  8
R-RAMKA
100
AcDbText
 10
13.303259141494436
 20
333.25
 30
0.0
 40
3.5
  1
B
  7
PL_ARIAL
 11
13.303259141494436
 21
333.25
 31
0.0
100
AcDbText
  0
TEXT
  5
149
330
1B
100
AcDbEntity
 67
1
  8
R-RAMKA
100
AcDbText
 10
587.1629570747218
 20
283.25
 30
0.0
 40
3.5
  1
C
  7
PL_ARIAL
 11
587.1629570747218
 21
283.25
 31
0.0
100
AcDbText
  0
TEXT
  5
14A
330
1B
100
AcDbEntity
 67
1
  8
R-RAMKA
100
AcDbText
 10
13.162957074721781
 20
283.25
 30
0.0
 40
3.5
  1
C
  7
PL_ARIAL
 11
13.162957074721781
 21
283.25
 31
0.0
100
AcDbText
  0
TEXT
  5
14B
330
1B
100
AcDbEntity
 67
1
  8
R-RAMKA
100
AcDbText
 10
587.1629570747218
 20
233.25
 30
0.0
 40
3.5
  1
D
  7
PL_ARIAL
 11
587.1629570747218
 21
233.25
 31
0.0
100
AcDbText
  0
TEXT
  5
14C
330
1B
100
AcDbEntity
 67
1
  8
R-RAMKA
100
AcDbText
 10
13.162957074721781
 20
233.25
 30
0.0
 40
3.5
  1
D
  7
PL_ARIAL
 11
13.162957074721781
 21
233.25
 31
0.0
100
AcDbText
  0
TEXT
  5
14D
330
1B
100
AcDbEntity
 67
1
  8
R-RAMKA
100
AcDbText
 10
587.3032591414944
 20
183.25
 30
0.0
 40
3.5
  1
E
  7
PL_ARIAL
 11
587.3032591414944
 21
183.25
 31
0.0
100
AcDbText
  0
TEXT
  5
14E
330
1B
100
AcDbEntity
 67
1
  8
R-RAMKA
100
AcDbText
 10
13.303259141494436
 20
183.25
 30
0.0
 40
3.5
  1
E
  7
PL_ARIAL
 11
13.303259141494436
 21
183.25
 31
0.0
100
AcDbText
  0
TEXT
  5
14F
330
1B
100
AcDbEntity
 67
1
  8
R-RAMKA
100
AcDbText
 10
587.4463434022258
 20
133.25
 30
0.0
 40
3.5
  1
F
  7
PL_ARIAL
 11
587.4463434022258
 21
133.25
 31
0.0
100
AcDbText
  0
TEXT
  5
150
330
1B
100
AcDbEntity
 67
1
  8
R-RAMKA
100
AcDbText
 10
13.446343402225756
 20
133.25
 30
0.0
 40
3.5
  1
F
  7
PL_ARIAL
 11
13.446343402225756
 21
133.25
 31
0.0
100
AcDbText
  0
TEXT
  5
151
330
1B
100
AcDbEntity
 67
1
  8
R-RAMKA
100
AcDbText
 10
587.0214626391097
 20
83.25
 30
0.0
 40
3.5
  1
G
  7
PL_ARIAL
 11
587.0214626391097
 21
83.25
 31
0.0
100
AcDbText
  0
TEXT
  5
152
330
1B
100
AcDbEntity
 67
1
  8
R-RAMKA
100
AcDbText
 10
13.021462639109698
 20
83.25
 30
0.0
 40
3.5
  1
G
  7
PL_ARIAL
 11
13.021462639109698
 21
83.25
 31
0.0
100
AcDbText
  0
TEXT
  5
153
330
1B
100
AcDbEntity
 67
1
  8
R-RAMKA
100
AcDbText
 10
587.1629570747218
 20
33.25
 30
0.0
 40
3.5
  1
H
  7
PL_ARIAL
 11
587.1629570747218
 21
33.25
 31
0.0
100
AcDbText
  0
TEXT
  5
154
330
1B
100
AcDbEntity
 67
1
  8
R-RAMKA
100
AcDbText
 10
13.162957074721781
 20
33.25
 30
0.0
 40
3.5
  1
H
  7
PL_ARIAL
 11
13.162957074721781
 21
33.25
 31
0.0
100
AcDbText
  0
TEXT
  5
155
330
1B
100
AcDbEntity
 67
1
  8
R-RAMKA
100
AcDbText
 10
568.0726777197366
 20
4.1
 30
0.0
 40
1.8
  1
A2 (594×420)
  7
PL_ARIAL
 11
568.0726777197366
 21
4.1
 31
0.0
100
AcDbText
  0
TEXT
  5
156
330
1B
100
AcDbEntity
 67
1
  8
R-TABLICZKA
100
AcDbText
 10
405.2
 20
100.0
 30
0.0
 40
1.8
  1
PRACOWNIA PROJEKTOWA
  7
PL_ARIAL
 11
405.2
 21
100.0
 31
0.0
100
AcDbText
  0
TEXT
  5
157
330
1B
100
AcDbEntity
 67
1
  8
R-TABLICZKA
100
AcDbText
 10
405.2
 20
96.1
 30
0.0
 40
2.5
  1
PRACOWNIA PROJEKTOWA — nazwa do uzupełnienia
  7
PL_ARIAL_B
 11
405.2
 21
96.1
 31
0.0
100
AcDbText
  0
TEXT
  5
158
330
1B
100
AcDbEntity
 67
1
  8
R-TABLICZKA
100
AcDbText
 10
405.2
 20
92.4
 30
0.0
 40
1.8
  1
adres pracowni do uzupełnienia
  7
PL_ARIAL
 11
405.2
 21
92.4
 31
0.0
100
AcDbText
  0
TEXT
  5
159
330
1B
100
AcDbEntity
 67
1
  8
R-TABLICZKA
100
AcDbText
 10
515.2
 20
100.0
 30
0.0
 40
1.8
  1
STADIUM
  7
PL_ARIAL
 11
515.2
 21
100.0
 31
0.0
100
AcDbText
  0
TEXT
  5
15A
330
1B
100
AcDbEntity
 67
1
  8
R-TABLICZKA
100
AcDbText
 10
521.4517374517375
 20
93.5
 30
0.0
 40
5.0
  1
PB
  7
PL_ARIAL_B
 11
521.4517374517375
 21
93.5
 31
0.0
100
AcDbText
  0
TEXT
  5
15B
330
1B
100
AcDbEntity
 67
1
  8
R-TABLICZKA
100
AcDbText
 10
540.2
 20
100.0
 30
0.0
 40
1.8
  1
BRANŻA
  7
PL_ARIAL
 11
540.2
 21
100.0
 31
0.0
100
AcDbText
  0
TEXT
  5
15C
330
1B
100
AcDbEntity
 67
1
  8
R-TABLICZKA
100
AcDbText
 10
540.2
 20
94.44999999999999
 30
0.0
 40
2.5
  1
ARCHITEKTURA (AR)
  7
PL_ARIAL_B
 11
540.2
 21
94.44999999999999
 31
0.0
100
AcDbText
  0
TEXT
  5
15D
330
1B
100
AcDbEntity
 67
1
  8
R-TABLICZKA
100
AcDbText
 10
405.2
 20
88.0
 30
0.0
 40
1.8
  1
INWESTOR
  7
PL_ARIAL
 11
405.2
 21
88.0
 31
0.0
100
AcDbText
  0
TEXT
  5
15E
330
1B
100
AcDbEntity
 67
1
  8
R-TABLICZKA
100
AcDbText
 10
405.2
 20
84.44999999999999
 30
0.0
 40
2.5
  1
(do uzupełnienia)
  7
PL_ARIAL
 11
405.2
 21
84.44999999999999
 31
0.0
100
AcDbText
  0
TEXT
  5
15F
330
1B
100
AcDbEntity
 67
1
  8
R-TABLICZKA
100
AcDbText
 10
405.2
 20
80.0
 30
0.0
 40
1.8
  1
OBIEKT / NAZWA ZAMIERZENIA BUDOWLANEGO
  7
PL_ARIAL
 11
405.2
 21
80.0
 31
0.0
100
AcDbText
  0
TEXT
  5
160
330
1B
100
AcDbEntity
 67
1
  8
R-TABLICZKA
100
AcDbText
 10
405.2
 20
75.19999999999999
 30
0.0
 40
2.5
  1
Budynek testowy pipeline'u (model testowy) — NIE jest projektem Domu LAMELA
  7
PL_ARIAL_B
 11
405.2
 21
75.19999999999999
 31
0.0
100
AcDbText
  0
TEXT
  5
161
330
1B
100
AcDbEntity
 67
1
  8
R-TABLICZKA
100
AcDbText
 10
405.2
 20
69.5
 30
0.0
 40
1.8
  1
ADRES / LOKALIZACJA (NR DZIAŁKI, OBRĘB, JEDN. EWIDENCYJNA)
  7
PL_ARIAL
 11
405.2
 21
69.5
 31
0.0
100
AcDbText
  0
TEXT
  5
162
330
1B
100
AcDbEntity
 67
1
  8
R-TABLICZKA
100
AcDbText
 10
405.2
 20
65.716
 30
0.0
 40
1.8
  1
dz. nr ewid. T-1/1, obręb 0000 Testowo
  7
PL_ARIAL
 11
405.2
 21
65.716
 31
0.0
100
AcDbText
  0
TEXT
  5
163
330
1B
100
AcDbEntity
 67
1
  8
R-TABLICZKA
100
AcDbText
 10
555.2
 20
69.5
 30
0.0
 40
1.8
  1
KAT. OBIEKTU
  7
PL_ARIAL
 11
555.2
 21
69.5
 31
0.0
100
AcDbText
  0
TEXT
  5
164
330
1B
100
AcDbEntity
 67
1
  8
R-TABLICZKA
100
AcDbText
 10
568.2933227344992
 20
65.07
 30
0.0
 40
3.5
  1
I
  7
PL_ARIAL_B
 11
568.2933227344992
 21
65.07
 31
0.0
100
AcDbText
  0
TEXT
  5
165
330
1B
100
AcDbEntity
 67
1
  8
R-TABLICZKA
100
AcDbText
 10
411.4673631614808
 20
60.35
 30
0.0
 40
1.8
  1
FUNKCJA
  7
PL_ARIAL
 11
411.4673631614808
 21
60.35
 31
0.0
100
AcDbText
  0
TEXT
  5
166
330
1B
100
AcDbEntity
 67
1
  8
R-TABLICZKA
100
AcDbText
 10
441.74312968430615
 20
60.35
 30
0.0
 40
1.8
  1
IMIĘ I NAZWISKO
  7
PL_ARIAL
 11
441.74312968430615
 21
60.35
 31
0.0
100
AcDbText
  0
TEXT
  5
167
330
1B
100
AcDbEntity
 67
1
  8
R-TABLICZKA
100
AcDbText
 10
480.9770156711333
 20
60.35
 30
0.0
 40
1.8
  1
SPECJALNOŚĆ, NR UPRAWNIEŃ
  7
PL_ARIAL
 11
480.9770156711333
 21
60.35
 31
0.0
100
AcDbText
  0
TEXT
  5
168
330
1B
100
AcDbEntity
 67
1
  8
R-TABLICZKA
100
AcDbText
 10
535.7051782875312
 20
60.35
 30
0.0
 40
1.8
  1
DATA
  7
PL_ARIAL
 11
535.7051782875312
 21
60.35
 31
0.0
100
AcDbText
  0
TEXT
  5
169
330
1B
100
AcDbEntity
 67
1
  8
R-TABLICZKA
100
AcDbText
 10
561.556438791733
 20
60.35
 30
0.0
 40
1.8
  1
PODPIS
  7
PL_ARIAL
 11
561.556438791733
 21
60.35
 31
0.0
100
AcDbText
  0
TEXT
  5
16A
330
1B
100
AcDbEntity
 67
1
  8
R-TABLICZKA
100
AcDbText
 10
405.2
 20
54.6
 30
0.0
 40
1.8
  1
Projektant
  7
PL_ARIAL
 11
405.2
 21
54.6
 31
0.0
100
AcDbText
  0
TEXT
  5
16B
330
1B
100
AcDbEntity
 67
1
  8
R-TABLICZKA
100
AcDbText
 10
405.2
 20
47.6
 30
0.0
 40
1.8
  1
Projektant (wsp.)
  7
PL_ARIAL
 11
405.2
 21
47.6
 31
0.0
100
AcDbText
  0
TEXT
  5
16C
330
1B
100
AcDbEntity
 67
1
  8
R-TABLICZKA
100
AcDbText
 10
405.2
 20
40.6
 30
0.0
 40
1.8
  1
Sprawdzający
  7
PL_ARIAL
 11
405.2
 21
40.6
 31
0.0
100
AcDbText
  0
TEXT
  5
16D
330
1B
100
AcDbEntity
 67
1
  8
R-TABLICZKA
100
AcDbText
 10
405.2
 20
33.6
 30
0.0
 40
1.8
  1
Opracował
  7
PL_ARIAL
 11
405.2
 21
33.6
 31
0.0
100
AcDbText
  0
TEXT
  5
16E
330
1B
100
AcDbEntity
 67
1
  8
R-TABLICZKA
100
AcDbText
 10
405.2
 20
28.0
 30
0.0
 40
1.8
  1
TYTUŁ RYSUNKU
  7
PL_ARIAL
 11
405.2
 21
28.0
 31
0.0
100
AcDbText
  0
TEXT
  5
16F
330
1B
100
AcDbEntity
 67
1
  8
R-TABLICZKA
100
AcDbText
 10
405.2
 20
21.5
 30
0.0
 40
5.0
  1
ELEWACJA ZACHODNIA
  7
PL_ARIAL_B
 11
405.2
 21
21.5
 31
0.0
100
AcDbText
  0
TEXT
  5
170
330
1B
100
AcDbEntity
 67
1
  8
R-TABLICZKA
100
AcDbText
 10
405.2
 20
16.0
 30
0.0
 40
1.8
  1
SKALA
  7
PL_ARIAL
 11
405.2
 21
16.0
 31
0.0
100
AcDbText
  0
TEXT
  5
171
330
1B
100
AcDbEntity
 67
1
  8
R-TABLICZKA
100
AcDbText
 10
410.9093799682035
 20
11.57
 30
0.0
 40
3.5
  1
1:50
  7
PL_ARIAL_B
 11
410.9093799682035
 21
11.57
 31
0.0
100
AcDbText
  0
TEXT
  5
172
330
1B
100
AcDbEntity
 67
1
  8
R-TABLICZKA
100
AcDbText
 10
429.2
 20
16.0
 30
0.0
 40
1.8
  1
FORMAT
  7
PL_ARIAL
 11
429.2
 21
16.0
 31
0.0
100
AcDbText
  0
TEXT
  5
173
330
1B
100
AcDbEntity
 67
1
  8
R-TABLICZKA
100
AcDbText
 10
433.777651601181
 20
11.95
 30
0.0
 40
2.5
  1
A2
  7
PL_ARIAL
 11
433.777651601181
 21
11.95
 31
0.0
100
AcDbText
  0
TEXT
  5
174
330
1B
100
AcDbEntity
 67
1
  8
R-TABLICZKA
100
AcDbText
 10
445.2
 20
16.0
 30
0.0
 40
1.8
  1
DATA WYDANIA
  7
PL_ARIAL
 11
445.2
 21
16.0
 31
0.0
100
AcDbText
  0
TEXT
  5
175
330
1B
100
AcDbEntity
 67
1
  8
R-TABLICZKA
100
AcDbText
 10
446.706904383375
 20
11.95
 30
0.0
 40
2.5
  1
2026-09-25
  7
PL_ARIAL
 11
446.706904383375
 21
11.95
 31
0.0
100
AcDbText
  0
TEXT
  5
176
330
1B
100
AcDbEntity
 67
1
  8
R-TABLICZKA
100
AcDbText
 10
469.2
 20
16.0
 30
0.0
 40
1.8
  1
RODZAJ DOK.
  7
PL_ARIAL
 11
469.2
 21
16.0
 31
0.0
100
AcDbText
  0
TEXT
  5
177
330
1B
100
AcDbEntity
 67
1
  8
R-TABLICZKA
100
AcDbText
 10
474.93038837156485
 20
11.95
 30
0.0
 40
2.5
  1
elewacja
  7
PL_ARIAL
 11
474.93038837156485
 21
11.95
 31
0.0
100
AcDbText
  0
TEXT
  5
178
330
1B
100
AcDbEntity
 67
1
  8
R-TABLICZKA
100
AcDbText
 10
497.2
 20
16.0
 30
0.0
 40
1.8
  1
NR RYSUNKU
  7
PL_ARIAL
 11
497.2
 21
16.0
 31
0.0
100
AcDbText
  0
TEXT
  5
179
330
1B
100
AcDbEntity
 67
1
  8
R-TABLICZKA
100
AcDbText
 10
512.389507154213
 20
11.57
 30
0.0
 40
3.5
  1
T-AR-09
  7
PL_ARIAL_B
 11
512.389507154213
 21
11.57
 31
0.0
100
AcDbText
  0
TEXT
  5
17A
330
1B
100
AcDbEntity
 67
1
  8
R-TABLICZKA
100
AcDbText
 10
549.2
 20
16.0
 30
0.0
 40
1.8
  1
ARKUSZ
  7
PL_ARIAL
 11
549.2
 21
16.0
 31
0.0
100
AcDbText
  0
TEXT
  5
17B
330
1B
100
AcDbEntity
 67
1
  8
R-TABLICZKA
100
AcDbText
 10
554.4744492391551
 20
11.95
 30
0.0
 40
2.5
  1
9/9
  7
PL_ARIAL
 11
554.4744492391551
 21
11.95
 31
0.0
100
AcDbText
  0
TEXT
  5
17C
330
1B
100
AcDbEntity
 67
1
  8
R-TABLICZKA
100
AcDbText
 10
567.2
 20
16.0
 30
0.0
 40
1.8
  1
REW.
  7
PL_ARIAL
 11
567.2
 21
16.0
 31
0.0
100
AcDbText
  0
TEXT
  5
17D
330
1B
100
AcDbEntity
 67
1
  8
R-TABLICZKA
100
AcDbText
 10
573.5854531001589
 20
11.57
 30
0.0
 40
3.5
  1
0
  7
PL_ARIAL_B
 11
573.5854531001589
 21
11.57
 31
0.0
100
AcDbText
  0
TEXT
  5
17E
330
1B
100
AcDbEntity
 67
1
  8
R-TABLICZKA
100
AcDbText
 10
405.2
 20
104.25
 30
0.0
 40
2.5
  1
0
  7
PL_ARIAL
 11
405.2
 21
104.25
 31
0.0
100
AcDbText
  0
TEXT
  5
17F
330
1B
100
AcDbEntity
 67
1
  8
R-TABLICZKA
100
AcDbText
 10
423.2
 20
104.25
 30
0.0
 40
2.5
  1
Próba generatorów widoków z modelu testowego
  7
PL_ARIAL
 11
423.2
 21
104.25
 31
0.0
100
AcDbText
  0
TEXT
  5
180
330
1B
100
AcDbEntity
 67
1
  8
R-TABLICZKA
100
AcDbText
 10
545.2
 20
104.25
 30
0.0
 40
2.5
  1
2026-09-25
  7
PL_ARIAL
 11
545.2
 21
104.25
 31
0.0
100
AcDbText
  0
TEXT
  5
181
330
1B
100
AcDbEntity
 67
1
  8
R-TABLICZKA
100
AcDbText
 10
405.2
 20
109.6
 30
0.0
 40
1.8
  1
REW.
  7
PL_ARIAL
 11
405.2
 21
109.6
 31
0.0
100
AcDbText
  0
TEXT
  5
182
330
1B
100
AcDbEntity
 67
1
  8
R-TABLICZKA
100
AcDbText
 10
423.2
 20
109.6
 30
0.0
 40
1.8
  1
OPIS ZMIANY
  7
PL_ARIAL
 11
423.2
 21
109.6
 31
0.0
100
AcDbText
  0
TEXT
  5
183
330
1B
100
AcDbEntity
 67
1
  8
R-TABLICZKA
100
AcDbText
 10
545.2
 20
109.6
 30
0.0
 40
1.8
  1
DATA
  7
PL_ARIAL
 11
545.2
 21
109.6
 31
0.0
100
AcDbText
  0
VIEWPORT
  5
2A6
330
1B
100
AcDbEntity
 67
1
  8
R-RZUTNIA
100
AcDbViewport
 10
211.0
 20
217.0
 30
0.0
 40
307.0701612536907
 41
178.59422222222224
 68
2
 69
3
 12
1.5947540313422657
 22
2.7861444444444428
 13
0.0
 23
0.0
 14
10.0
 24
10.0
 15
10.0
 25
10.0
 16
0.0
 26
0.0
 36
1.0
 17
0.0
 27
0.0
 37
0.0
 42
50.0
 43
0.0
 44
0.0
 45
8.929711111111112
 50
0.0
 51
0.0
 72
100
 90
16384
  1

281
0
 71
0
 74
0
110
0.0
120
0.0
130
0.0
111
1.0
121
0.0
131
0.0
112
0.0
122
1.0
132
0.0
 79
0
146
0.0
282
0
  0
ENDSEC
  0
SECTION
  2
OBJECTS
  0
DICTIONARY
  5
A
330
0
100
AcDbDictionary
281
1
  3
ACAD_COLOR
350
B
  3
ACAD_GROUP
350
C
  3
ACAD_LAYOUT
350
D
  3
ACAD_MATERIAL
350
E
  3
ACAD_MLEADERSTYLE
350
F
  3
ACAD_MLINESTYLE
350
10
  3
ACAD_PLOTSETTINGS
350
11
  3
ACAD_PLOTSTYLENAME
350
12
  3
ACAD_SCALELIST
350
14
  3
ACAD_TABLESTYLE
350
15
  3
ACAD_VISUALSTYLE
350
16
  3
EZDXF_META
350
2D
  0
DICTIONARY
  5
B
330
A
100
AcDbDictionary
281
1
  0
DICTIONARY
  5
C
330
A
100
AcDbDictionary
281
1
  0
DICTIONARY
  5
D
330
A
100
AcDbDictionary
281
1
  3
Model
350
1A
  3
Arkusz T-AR-09
350
1E
  0
DICTIONARY
  5
E
330
A
100
AcDbDictionary
281
1
  3
ByBlock
350
1F
  3
ByLayer
350
20
  3
Global
350
21
  0
DICTIONARY
  5
F
330
A
100
AcDbDictionary
281
1
  3
Standard
350
2C
  0
DICTIONARY
  5
10
330
A
100
AcDbDictionary
281
1
  3
Standard
350
22
  0
DICTIONARY
  5
11
330
A
100
AcDbDictionary
281
1
  0
ACDBDICTIONARYWDFLT
  5
12
330
A
100
AcDbDictionary
281
1
  3
Normal
350
13
100
AcDbDictionaryWithDefault
340
13
  0
ACDBPLACEHOLDER
  5
13
330
12
  0
DICTIONARY
  5
14
330
A
100
AcDbDictionary
281
1
  0
DICTIONARY
  5
15
330
A
100
AcDbDictionary
281
1
  0
DICTIONARY
  5
16
330
A
100
AcDbDictionary
281
1
  0
LAYOUT
  5
1A
330
D
100
AcDbPlotSettings
  1

  4
A3
  6

 40
7.5
 41
20.0
 42
7.5
 43
20.0
 44
420.0
 45
297.0
 46
0.0
 47
0.0
 48
0.0
 49
0.0
140
0.0
141
0.0
142
1.0
143
1.0
 70
1024
 72
1
 73
0
 74
5
  7

 75
16
 76
0
 77
2
 78
300
147
1.0
148
0.0
149
0.0
100
AcDbLayout
  1
Model
 70
1
 71
0
 10
0.0
 20
0.0
 11
420.0
 21
297.0
 12
0.0
 22
0.0
 32
0.0
 14
1e+20
 24
1e+20
 34
1e+20
 15
-1e+20
 25
-1e+20
 35
-1e+20
146
0.0
 13
0.0
 23
0.0
 33
0.0
 16
1.0
 26
0.0
 36
0.0
 17
0.0
 27
1.0
 37
0.0
 76
1
330
17
  0
LAYOUT
  5
1E
330
D
100
AcDbPlotSettings
  1

  2
DWG to PDF.pc3
  4
LAMELA_(594.00_x_420.00_MM)
  6

 40
0.0
 41
0.0
 42
0.0
 43
0.0
 44
594.0
 45
420.0
 46
0.0
 47
0.0
 48
0.0
 49
0.0
140
0.0
141
0.0
142
1.0
143
1.0
 70
672
 72
1
 73
0
 74
5
  7

 75
16
 76
0
 77
2
 78
300
147
1.0
148
0.0
149
0.0
100
AcDbLayout
  1
Arkusz T-AR-09
 70
1
 71
1
 10
-0.0
 20
-0.0
 11
594.0
 21
420.0
 12
0.0
 22
0.0
 32
0.0
 14
1e+20
 24
1e+20
 34
1e+20
 15
-1e+20
 25
-1e+20
 35
-1e+20
146
0.0
 13
0.0
 23
0.0
 33
0.0
 16
1.0
 26
0.0
 36
0.0
 17
0.0
 27
1.0
 37
0.0
 76
1
330
1B
331
7F
  0
MATERIAL
  5
1F
102
{ACAD_REACTORS
330
E
102
}
330
E
100
AcDbMaterial
  1
ByBlock
  2

 70
0
 40
1.0
 71
1
 41
1.0
 91
-1023410177
 42
1.0
 72
1
  3

 73
1
 74
1
 75
1
 44
0.5
 73
0
 45
1.0
 46
1.0
 77
1
  4

 78
1
 79
1
170
1
 48
1.0
171
1
  6

172
1
173
1
174
1
140
1.0
141
1.0
175
1
  7

176
1
177
1
178
1
143
1.0
179
1
  8

270
1
271
1
272
1
145
1.0
146
1.0
273
1
  9

274
1
275
1
276
1
 42
1.0
 72
1
  3

 73
1
 74
1
 75
1
 94
63
  0
MATERIAL
  5
20
102
{ACAD_REACTORS
330
E
102
}
330
E
100
AcDbMaterial
  1
ByLayer
  2

 70
0
 40
1.0
 71
1
 41
1.0
 91
-1023410177
 42
1.0
 72
1
  3

 73
1
 74
1
 75
1
 44
0.5
 73
0
 45
1.0
 46
1.0
 77
1
  4

 78
1
 79
1
170
1
 48
1.0
171
1
  6

172
1
173
1
174
1
140
1.0
141
1.0
175
1
  7

176
1
177
1
178
1
143
1.0
179
1
  8

270
1
271
1
272
1
145
1.0
146
1.0
273
1
  9

274
1
275
1
276
1
 42
1.0
 72
1
  3

 73
1
 74
1
 75
1
 94
63
  0
MATERIAL
  5
21
102
{ACAD_REACTORS
330
E
102
}
330
E
100
AcDbMaterial
  1
Global
  2

 70
0
 40
1.0
 71
1
 41
1.0
 91
-1023410177
 42
1.0
 72
1
  3

 73
1
 74
1
 75
1
 44
0.5
 73
0
 45
1.0
 46
1.0
 77
1
  4

 78
1
 79
1
170
1
 48
1.0
171
1
  6

172
1
173
1
174
1
140
1.0
141
1.0
175
1
  7

176
1
177
1
178
1
143
1.0
179
1
  8

270
1
271
1
272
1
145
1.0
146
1.0
273
1
  9

274
1
275
1
276
1
 42
1.0
 72
1
  3

 73
1
 74
1
 75
1
 94
63
  0
MLINESTYLE
  5
22
102
{ACAD_REACTORS
330
10
102
}
330
10
100
AcDbMlineStyle
  2
Standard
 70
0
  3

 62
256
 51
90.0
 52
90.0
 71
2
 49
0.5
 62
256
  6
BYLAYER
 49
-0.5
 62
256
  6
BYLAYER
  0
MLEADERSTYLE
  5
2C
102
{ACAD_REACTORS
330
F
102
}
330
F
100
AcDbMLeaderStyle
179
2
170
2
171
1
172
0
 90
2
 40
0.0
 41
0.0
173
1
 91
-1056964608
 92
-2
290
1
 42
2.0
291
1
 43
8.0
  3
Standard
 44
4.0
300

342
29
174
1
175
1
176
0
178
1
 93
-1056964608
 45
4.0
292
0
297
0
 46
4.0
 94
-1056964608
 47
1.0
 49
1.0
140
1.0
294
1
141
0.0
177
0
142
1.0
295
0
296
0
143
3.75
271
0
272
9
273
9
  0
DICTIONARY
  5
2D
330
A
100
AcDbDictionary
280
1
281
1
  3
CREATED_BY_EZDXF
350
2E
  3
WRITTEN_BY_EZDXF
350
2A9
  0
DICTIONARYVAR
  5
2E
330
2D
100
DictionaryVariables
280
0
  1
1.4.4 @ 2026-09-25T01:49:45.227934+00:00
  0
DICTIONARYVAR
  5
2A9
330
2D
100
DictionaryVariables
280
0
  1
1.4.4 @ 2026-09-25T01:49:45.271526+00:00
  0
ENDSEC
  0
EOF
