  0
SECTION
  2
HEADER
  9
$ACADVER
  1
AC1032
  9
$ACADMAINTVER
 90
4
  9
$DWGCODEPAGE
  3
ANSI_1252
  9
$LASTSAVEDBY
  1
ezdxf
  9
$REQUIREDVERSIONS
160
0
  9
$INSBASE
 10
0.0
 20
0.0
 30
0.0
  9
$EXTMIN
 10
1e+20
 20
1e+20
 30
1e+20
  9
$EXTMAX
 10
-1e+20
 20
-1e+20
 30
-1e+20
  9
$LIMMIN
 10
0.0
 20
0.0
  9
$LIMMAX
 10
420.0
 20
297.0
  9
$ORTHOMODE
 70
0
  9
$REGENMODE
 70
1
  9
$FILLMODE
 70
1
  9
$QTEXTMODE
 70
0
  9
$MIRRTEXT
 70
1
  9
$LTSCALE
 40
1.0
  9
$ATTMODE
 70
1
  9
$TEXTSIZE
 40
2.5
  9
$TRACEWID
 40
1.0
  9
$TEXTSTYLE
  7
Standard
  9
$CLAYER
  8
0
  9
$CELTYPE
  6
ByLayer
  9
$CECOLOR
 62
256
  9
$CELTSCALE
 40
1.0
  9
$DISPSILH
 70
0
  9
$DIMSCALE
 40
1.0
  9
$DIMASZ
 40
2.5
  9
$DIMEXO
 40
0.625
  9
$DIMDLI
 40
3.75
  9
$DIMRND
 40
0.0
  9
$DIMDLE
 40
0.0
  9
$DIMEXE
 40
1.25
  9
$DIMTP
 40
0.0
  9
$DIMTM
 40
0.0
  9
$DIMTXT
 40
2.5
  9
$DIMCEN
 40
2.5
  9
$DIMTSZ
 40
0.0
  9
$DIMTOL
 70
0
  9
$DIMLIM
 70
0
  9
$DIMTIH
 70
0
  9
$DIMTOH
 70
0
  9
$DIMSE1
 70
0
  9
$DIMSE2
 70
0
  9
$DIMTAD
 70
1
  9
$DIMZIN
 70
8
  9
$DIMBLK
  1

  9
$DIMASO
 70
1
  9
$DIMSHO
 70
1
  9
$DIMPOST
  1

  9
$DIMAPOST
  1

  9
$DIMALT
 70
0
  9
$DIMALTD
 70
3
  9
$DIMALTF
 40
0.03937007874
  9
$DIMLFAC
 40
1.0
  9
$DIMTOFL
 70
1
  9
$DIMTVP
 40
0.0
  9
$DIMTIX
 70
0
  9
$DIMSOXD
 70
0
  9
$DIMSAH
 70
0
  9
$DIMBLK1
  1

  9
$DIMBLK2
  1

  9
$DIMSTYLE
  2
ISO-25
  9
$DIMCLRD
 70
0
  9
$DIMCLRE
 70
0
  9
$DIMCLRT
 70
0
  9
$DIMTFAC
 40
1.0
  9
$DIMGAP
 40
0.625
  9
$DIMJUST
 70
0
  9
$DIMSD1
 70
0
  9
$DIMSD2
 70
0
  9
$DIMTOLJ
 70
0
  9
$DIMTZIN
 70
8
  9
$DIMALTZ
 70
0
  9
$DIMALTTZ
 70
0
  9
$DIMUPT
 70
0
  9
$DIMDEC
 70
2
  9
$DIMTDEC
 70
2
  9
$DIMALTU
 70
2
  9
$DIMALTTD
 70
3
  9
$DIMTXSTY
  7
Standard
  9
$DIMAUNIT
 70
0
  9
$DIMADEC
 70
0
  9
$DIMALTRND
 40
0.0
  9
$DIMAZIN
 70
0
  9
$DIMDSEP
 70
44
  9
$DIMATFIT
 70
3
  9
$DIMFRAC
 70
0
  9
$DIMLDRBLK
  1

  9
$DIMLUNIT
 70
2
  9
$DIMLWD
 70
-2
  9
$DIMLWE
 70
-2
  9
$DIMTMOVE
 70
0
  9
$DIMFXL
 40
1.0
  9
$DIMFXLON
 70
0
  9
$DIMJOGANG
 40
0.785398163397
  9
$DIMTFILL
 70
0
  9
$DIMTFILLCLR
 70
0
  9
$DIMARCSYM
 70
0
  9
$DIMLTYPE
  6

  9
$DIMLTEX1
  6

  9
$DIMLTEX2
  6

  9
$DIMTXTDIRECTION
 70
0
  9
$LUNITS
 70
2
  9
$LUPREC
 70
4
  9
$SKETCHINC
 40
1.0
  9
$FILLETRAD
 40
10.0
  9
$AUNITS
 70
0
  9
$AUPREC
 70
2
  9
$MENU
  1
.
  9
$ELEVATION
 40
0.0
  9
$PELEVATION
 40
0.0
  9
$THICKNESS
 40
0.0
  9
$LIMCHECK
 70
0
  9
$CHAMFERA
 40
0.0
  9
$CHAMFERB
 40
0.0
  9
$CHAMFERC
 40
0.0
  9
$CHAMFERD
 40
0.0
  9
$SKPOLY
 70
0
  9
$TDCREATE
 40
2461309.282824074
  9
$TDUCREATE
 40
2458532.153996898
  9
$TDUPDATE
 40
2461309.282824074
  9
$TDUUPDATE
 40
2458532.1544311
  9
$TDINDWG
 40
0.0
  9
$TDUSRTIMER
 40
0.0
  9
$USRTIMER
 70
1
  9
$ANGBASE
 50
0.0
  9
$ANGDIR
 70
0
  9
$PDMODE
 70
0
  9
$PDSIZE
 40
0.0
  9
$PLINEWID
 40
0.0
  9
$SPLFRAME
 70
0
  9
$SPLINETYPE
 70
6
  9
$SPLINESEGS
 70
8
  9
$HANDSEED
  5
3B0
  9
$SURFTAB1
 70
6
  9
$SURFTAB2
 70
6
  9
$SURFTYPE
 70
6
  9
$SURFU
 70
6
  9
$SURFV
 70
6
  9
$UCSBASE
  2

  9
$UCSNAME
  2

  9
$UCSORG
 10
0.0
 20
0.0
 30
0.0
  9
$UCSXDIR
 10
1.0
 20
0.0
 30
0.0
  9
$UCSYDIR
 10
0.0
 20
1.0
 30
0.0
  9
$UCSORTHOREF
  2

  9
$UCSORTHOVIEW
 70
0
  9
$UCSORGTOP
 10
0.0
 20
0.0
 30
0.0
  9
$UCSORGBOTTOM
 10
0.0
 20
0.0
 30
0.0
  9
$UCSORGLEFT
 10
0.0
 20
0.0
 30
0.0
  9
$UCSORGRIGHT
 10
0.0
 20
0.0
 30
0.0
  9
$UCSORGFRONT
 10
0.0
 20
0.0
 30
0.0
  9
$UCSORGBACK
 10
0.0
 20
0.0
 30
0.0
  9
$PUCSBASE
  2

  9
$PUCSNAME
  2

  9
$PUCSORG
 10
0.0
 20
0.0
 30
0.0
  9
$PUCSXDIR
 10
1.0
 20
0.0
 30
0.0
  9
$PUCSYDIR
 10
0.0
 20
1.0
 30
0.0
  9
$PUCSORTHOREF
  2

  9
$PUCSORTHOVIEW
 70
0
  9
$PUCSORGTOP
 10
0.0
 20
0.0
 30
0.0
  9
$PUCSORGBOTTOM
 10
0.0
 20
0.0
 30
0.0
  9
$PUCSORGLEFT
 10
0.0
 20
0.0
 30
0.0
  9
$PUCSORGRIGHT
 10
0.0
 20
0.0
 30
0.0
  9
$PUCSORGFRONT
 10
0.0
 20
0.0
 30
0.0
  9
$PUCSORGBACK
 10
0.0
 20
0.0
 30
0.0
  9
$USERI1
 70
0
  9
$USERI2
 70
0
  9
$USERI3
 70
0
  9
$USERI4
 70
0
  9
$USERI5
 70
0
  9
$USERR1
 40
0.0
  9
$USERR2
 40
0.0
  9
$USERR3
 40
0.0
  9
$USERR4
 40
0.0
  9
$USERR5
 40
0.0
  9
$WORLDVIEW
 70
1
  9
$SHADEDGE
 70
3
  9
$SHADEDIF
 70
70
  9
$TILEMODE
 70
1
  9
$MAXACTVP
 70
64
  9
$PINSBASE
 10
0.0
 20
0.0
 30
0.0
  9
$PLIMCHECK
 70
0
  9
$PEXTMIN
 10
1e+20
 20
1e+20
 30
1e+20
  9
$PEXTMAX
 10
-1e+20
 20
-1e+20
 30
-1e+20
  9
$PLIMMIN
 10
-0.0
 20
-0.0
  9
$PLIMMAX
 10
230.0
 20
594.0
  9
$UNITMODE
 70
0
  9
$VISRETAIN
 70
1
  9
$PLINEGEN
 70
0
  9
$PSLTSCALE
 70
0
  9
$TREEDEPTH
 70
3020
  9
$CMLSTYLE
  2
Standard
  9
$CMLJUST
 70
0
  9
$CMLSCALE
 40
20.0
  9
$PROXYGRAPHICS
 70
1
  9
$MEASUREMENT
 70
1
  9
$CELWEIGHT
370
-1
  9
$ENDCAPS
280
0
  9
$JOINSTYLE
280
0
  9
$LWDISPLAY
290
1
  9
$INSUNITS
 70
6
  9
$HYPERLINKBASE
  1

  9
$STYLESHEET
  1

  9
$XEDIT
290
1
  9
$CEPSNTYPE
380
0
  9
$PSTYLEMODE
290
1
  9
$FINGERPRINTGUID
  2
{CE5B25AD-F44B-4C01-9B7C-A4A70C2CA199}
  9
$VERSIONGUID
  2
{7C11C584-9CD6-4D99-808D-4EE2E3D826AE}
  9
$EXTNAMES
290
1
  9
$PSVPSCALE
 40
0.0
  9
$OLESTARTUP
290
0
  9
$SORTENTS
280
127
  9
$INDEXCTL
280
0
  9
$HIDETEXT
280
1
  9
$XCLIPFRAME
280
1
  9
$HALOGAP
280
0
  9
$OBSCOLOR
 70
257
  9
$OBSLTYPE
280
0
  9
$INTERSECTIONDISPLAY
280
0
  9
$INTERSECTIONCOLOR
 70
257
  9
$DIMASSOC
280
2
  9
$PROJECTNAME
  1

  9
$CAMERADISPLAY
290
0
  9
$LENSLENGTH
 40
50.0
  9
$CAMERAHEIGHT
 40
0.0
  9
$STEPSPERSEC
 40
24.0
  9
$STEPSIZE
 40
100.0
  9
$3DDWFPREC
 40
2.0
  9
$PSOLWIDTH
 40
0.005
  9
$PSOLHEIGHT
 40
0.08
  9
$LOFTANG1
 40
1.570796326795
  9
$LOFTANG2
 40
1.570796326795
  9
$LOFTMAG1
 40
0.0
  9
$LOFTMAG2
 40
0.0
  9
$LOFTPARAM
 70
7
  9
$LOFTNORMALS
280
1
  9
$LATITUDE
 40
37.795
  9
$LONGITUDE
 40
-122.394
  9
$NORTHDIRECTION
 40
0.0
  9
$TIMEZONE
 70
-8000
  9
$LIGHTGLYPHDISPLAY
280
1
  9
$TILEMODELIGHTSYNCH
280
1
  9
$CMATERIAL
347
20
  9
$SOLIDHIST
280
0
  9
$SHOWHIST
280
1
  9
$DWFFRAME
280
2
  9
$DGNFRAME
280
2
  9
$REALWORLDSCALE
290
1
  9
$INTERFERECOLOR
 62
256
  9
$CSHADOW
280
0
  9
$SHADOWPLANELOCATION
 40
0.0
  0
ENDSEC
  0
SECTION
  2
CLASSES
  0
CLASS
  1
ACDBDICTIONARYWDFLT
  2
AcDbDictionaryWithDefault
  3
ObjectDBX Classes
 90
0
 91
0
280
0
281
0
  0
CLASS
  1
SUN
  2
AcDbSun
  3
SCENEOE
 90
1153
 91
0
280
0
281
0
  0
CLASS
  1
VISUALSTYLE
  2
AcDbVisualStyle
  3
ObjectDBX Classes
 90
4095
 91
0
280
0
281
0
  0
CLASS
  1
MATERIAL
  2
AcDbMaterial
  3
ObjectDBX Classes
 90
1153
 91
0
280
0
281
0
  0
CLASS
  1
SCALE
  2
AcDbScale
  3
ObjectDBX Classes
 90
1153
 91
0
280
0
281
0
  0
CLASS
  1
TABLESTYLE
  2
AcDbTableStyle
  3
ObjectDBX Classes
 90
4095
 91
0
280
0
281
0
  0
CLASS
  1
MLEADERSTYLE
  2
AcDbMLeaderStyle
  3
ACDB_MLEADERSTYLE_CLASS
 90
4095
 91
0
280
0
281
0
  0
CLASS
  1
DICTIONARYVAR
  2
AcDbDictionaryVar
  3
ObjectDBX Classes
 90
0
 91
0
280
0
281
0
  0
CLASS
  1
CELLSTYLEMAP
  2
AcDbCellStyleMap
  3
ObjectDBX Classes
 90
1152
 91
0
280
0
281
0
  0
CLASS
  1
MENTALRAYRENDERSETTINGS
  2
AcDbMentalRayRenderSettings
  3
SCENEOE
 90
1024
 91
0
280
0
281
0
  0
CLASS
  1
ACDBDETAILVIEWSTYLE
  2
AcDbDetailViewStyle
  3
ObjectDBX Classes
 90
1025
 91
0
280
0
281
0
  0
CLASS
  1
ACDBSECTIONVIEWSTYLE
  2
AcDbSectionViewStyle
  3
ObjectDBX Classes
 90
1025
 91
0
280
0
281
0
  0
CLASS
  1
RASTERVARIABLES
  2
AcDbRasterVariables
  3
ISM
 90
0
 91
0
280
0
281
0
  0
CLASS
  1
ACDBPLACEHOLDER
  2
AcDbPlaceHolder
  3
ObjectDBX Classes
 90
0
 91
0
280
0
281
0
  0
CLASS
  1
LAYOUT
  2
AcDbLayout
  3
ObjectDBX Classes
 90
0
 91
0
280
0
281
0
  0
ENDSEC
  0
SECTION
  2
TABLES
  0
TABLE
  2
VPORT
  5
8
330
0
100
AcDbSymbolTable
 70
1
  0
VPORT
  5
23
330
8
100
AcDbSymbolTableRecord
100
AcDbViewportTableRecord
  2
*Active
 70
0
 10
0.0
 20
0.0
 11
1.0
 21
1.0
 12
0.0
 22
0.0
 13
0.0
 23
0.0
 14
0.5
 24
0.5
 15
0.5
 25
0.5
 16
0.0
 26
0.0
 36
1.0
 17
0.0
 27
0.0
 37
0.0
 40
1000.0
 41
1.34
 42
50.0
 43
0.0
 44
0.0
 50
0.0
 51
0.0
 71
0
 72
1000
 73
1
 74
3
 75
0
 76
0
 77
0
 78
0
281
0
 65
0
146
0.0
  0
ENDTAB
  0
TABLE
  2
LTYPE
  5
2
330
0
100
AcDbSymbolTable
 70
14
  0
LTYPE
  5
24
330
2
100
AcDbSymbolTableRecord
100
AcDbLinetypeTableRecord
  2
ByBlock
 70
0
  3

 72
65
 73
0
 40
0.0
  0
LTYPE
  5
25
330
2
100
AcDbSymbolTableRecord
100
AcDbLinetypeTableRecord
  2
ByLayer
 70
0
  3

 72
65
 73
0
 40
0.0
  0
LTYPE
  5
26
330
2
100
AcDbSymbolTableRecord
100
AcDbLinetypeTableRecord
  2
Continuous
 70
0
  3

 72
65
 73
0
 40
0.0
  0
LTYPE
  5
2F
330
2
100
AcDbSymbolTableRecord
100
AcDbLinetypeTableRecord
  2
KRESKOWA
 70
0
  3
Linia kreskowa (02): krawędzie niewidoczne, elementy pod/nad płaszczyzną cięcia
 72
65
 73
2
 40
5.249999999999999
 49
4.199999999999999
 74
0
 49
-1.0499999999999998
 74
0
  0
LTYPE
  5
30
330
2
100
AcDbSymbolTableRecord
100
AcDbLinetypeTableRecord
  2
KRESKOWA_DROBNA
 70
0
  3
Linia kreskowa drobna (kreska krótka 6d)
 72
65
 73
2
 40
3.1499999999999995
 49
2.0999999999999996
 74
0
 49
-1.0499999999999998
 74
0
  0
LTYPE
  5
31
330
2
100
AcDbSymbolTableRecord
100
AcDbLinetypeTableRecord
  2
PUNKTOWA
 70
0
  3
Linia punktowa (04): osie, płaszczyzny przekroju
 72
65
 73
4
 40
10.5
 49
8.399999999999999
 74
0
 49
-1.0499999999999998
 74
0
 49
0.0
 74
0
 49
-1.0499999999999998
 74
0
  0
LTYPE
  5
32
330
2
100
AcDbSymbolTableRecord
100
AcDbLinetypeTableRecord
  2
PUNKTOWA_KROTKA
 70
0
  3
Linia punktowa z kreską zwykłą (końce przekrojów, gaz)
 72
65
 73
4
 40
6.299999999999999
 49
4.199999999999999
 74
0
 49
-1.0499999999999998
 74
0
 49
0.0
 74
0
 49
-1.0499999999999998
 74
0
  0
LTYPE
  5
33
330
2
100
AcDbSymbolTableRecord
100
AcDbLinetypeTableRecord
  2
DWUPUNKTOWA
 70
0
  3
Linia dwupunktowa (05): położenia skrajne, części przyległe
 72
65
 73
6
 40
11.55
 49
8.399999999999999
 74
0
 49
-1.0499999999999998
 74
0
 49
0.0
 74
0
 49
-1.0499999999999998
 74
0
 49
0.0
 74
0
 49
-1.0499999999999998
 74
0
  0
LTYPE
  5
34
330
2
100
AcDbSymbolTableRecord
100
AcDbLinetypeTableRecord
  2
KROPKOWA
 70
0
  3
Linia kropkowa (07): elementy nieobjęte projektem
 72
65
 73
2
 40
1.0499999999999998
 49
0.0
 74
0
 49
-1.0499999999999998
 74
0
  0
LTYPE
  5
35
330
2
100
AcDbSymbolTableRecord
100
AcDbLinetypeTableRecord
  2
KRESKA_DLUGA
 70
0
  3
Linia kreskowa długa (instalacje)
 72
65
 73
2
 40
9.45
 49
8.399999999999999
 74
0
 49
-1.0499999999999998
 74
0
  0
LTYPE
  5
36
330
2
100
AcDbSymbolTableRecord
100
AcDbLinetypeTableRecord
  2
KRESKOWA_3_1
 70
0
  3
Linia kreskowa 3/1 mm (paroizolacja, R4 pkt 3.8)
 72
65
 73
2
 40
4.0
 49
3.0
 74
0
 49
-1.0
 74
0
  0
LTYPE
  5
37
330
2
100
AcDbSymbolTableRecord
100
AcDbLinetypeTableRecord
  2
HYDRO_OKNA
 70
0
  3
Białe okna pasa izolacji przeciwwodnej (czarny 3 / biały 1,5 mm)
 72
65
 73
2
 40
4.5
 49
1.5
 74
0
 49
-3.0
 74
0
  0
LTYPE
  5
38
330
2
100
AcDbSymbolTableRecord
100
AcDbLinetypeTableRecord
  2
WIELOPUNKTOWA
 70
0
  3
Linia wielopunktowa (telekomunikacja, PN-B-01027)
 72
65
 73
8
 40
13.399999999999999
 49
9.0
 74
0
 49
-1.2
 74
0
 49
0.0
 74
0
 49
-1.0
 74
0
 49
0.0
 74
0
 49
-1.0
 74
0
 49
0.0
 74
0
 49
-1.2
 74
0
  0
LTYPE
  5
39
330
2
100
AcDbSymbolTableRecord
100
AcDbLinetypeTableRecord
  2
KABEL_E
 70
0
  3
Kabel elektroenergetyczny (PN-B-01027: kreskowa 2·9·2)
 72
65
 73
2
 40
11.0
 49
9.0
 74
0
 49
-2.0
 74
0
  0
ENDTAB
  0
TABLE
  2
LAYER
  5
1
330
0
100
AcDbSymbolTable
 70
103
  0
LAYER
  5
27
330
1
100
AcDbSymbolTableRecord
100
AcDbLayerTableRecord
  2
0
 70
0
 62
7
  6
Continuous
370
-3
390
13
347
21
  0
LAYER
  5
28
330
1
100
AcDbSymbolTableRecord
100
AcDbLayerTableRecord
  2
Defpoints
 70
0
 62
7
  6
Continuous
290
0
370
-3
390
13
347
21
  0
LAYER
  5
3E
330
1
100
AcDbSymbolTableRecord
100
AcDbLayerTableRecord
  2
R-RAMKA
 70
0
 62
7
  6
Continuous
370
50
390
13
347
21
1001
AcAecLayerStandard
1000

1000
Ramka arkusza, znaki składania i centrowania
  0
LAYER
  5
40
330
1
100
AcDbSymbolTableRecord
100
AcDbLayerTableRecord
  2
R-TABLICZKA
 70
0
 62
7
  6
Continuous
370
25
390
13
347
21
1001
AcAecLayerStandard
1000

1000
Tabliczka rysunkowa (PN-EN ISO 7200)
  0
LAYER
  5
41
330
1
100
AcDbSymbolTableRecord
100
AcDbLayerTableRecord
  2
R-OPISY
 70
0
 62
7
  6
Continuous
370
25
390
13
347
21
1001
AcAecLayerStandard
1000

1000
Opisy arkusza: tytuły rzutni, uwagi, legendy
  0
LAYER
  5
42
330
1
100
AcDbSymbolTableRecord
100
AcDbLayerTableRecord
  2
R-LEGENDA
 70
0
 62
7
  6
Continuous
370
25
390
13
347
21
1001
AcAecLayerStandard
1000

1000
Legenda oznaczeń
  0
LAYER
  5
43
330
1
100
AcDbSymbolTableRecord
100
AcDbLayerTableRecord
  2
R-RZUTNIA
 70
0
 62
8
  6
Continuous
290
0
370
18
390
13
347
21
1001
AcAecLayerStandard
1000

1000
Obrys rzutni (nie drukowany)
  0
LAYER
  5
44
330
1
100
AcDbSymbolTableRecord
100
AcDbLayerTableRecord
  2
A-SCIANY-KONSTR
 70
0
 62
7
  6
Continuous
370
50
390
13
347
21
1001
AcAecLayerStandard
1000

1000
Ściany i słupy konstrukcyjne w przekroju — kontur
  0
LAYER
  5
45
330
1
100
AcDbSymbolTableRecord
100
AcDbLayerTableRecord
  2
A-SCIANY-DZIAL
 70
0
 62
7
  6
Continuous
370
35
390
13
347
21
1001
AcAecLayerStandard
1000

1000
Ścianki działowe w przekroju — kontur
  0
LAYER
  5
46
330
1
100
AcDbSymbolTableRecord
100
AcDbLayerTableRecord
  2
A-SCIANY-IZOL
 70
0
 62
4
  6
Continuous
370
35
390
13
347
21
1001
AcAecLayerStandard
1000

1000
Warstwy izolacji termicznej ścian — kontur
  0
LAYER
  5
47
330
1
100
AcDbSymbolTableRecord
100
AcDbLayerTableRecord
  2
A-SCIANY-WYK
 70
0
 62
8
  6
Continuous
370
18
390
13
347
21
1001
AcAecLayerStandard
1000

1000
Tynki, okładziny, warstwy wykończeniowe — kontur
  0
LAYER
  5
48
330
1
100
AcDbSymbolTableRecord
100
AcDbLayerTableRecord
  2
A-STROPY
 70
0
 62
7
  6
Continuous
370
50
390
13
347
21
1001
AcAecLayerStandard
1000

1000
Stropy, płyty, stropodachy w przekroju — kontur
  0
LAYER
  5
49
330
1
100
AcDbSymbolTableRecord
100
AcDbLayerTableRecord
  2
A-WARSTWY
 70
0
 62
8
  6
Continuous
370
25
390
13
347
21
1001
AcAecLayerStandard
1000

1000
Warstwy przegród poziomych (podłogi, dachy) — kontur
  0
LAYER
  5
4A
330
1
100
AcDbSymbolTableRecord
100
AcDbLayerTableRecord
  2
A-IZOL-WODNA
 70
0
 62
5
  6
Continuous
370
100
390
13
347
21
1001
AcAecLayerStandard
1000

1000
Izolacje przeciwwodne/przeciwwilgociowe/paroizolacje
  0
LAYER
  5
4B
330
1
100
AcDbSymbolTableRecord
100
AcDbLayerTableRecord
  2
A-FUNDAMENTY
 70
0
 62
7
  6
Continuous
370
50
390
13
347
21
1001
AcAecLayerStandard
1000

1000
Fundamenty w przekroju — kontur
  0
LAYER
  5
4C
330
1
100
AcDbSymbolTableRecord
100
AcDbLayerTableRecord
  2
A-KRESKOWANIE
 70
0
 62
8
  6
Continuous
370
18
390
13
347
21
1001
AcAecLayerStandard
1000

1000
Kreskowanie materiałów (PN-B-01030)
  0
LAYER
  5
4D
330
1
100
AcDbSymbolTableRecord
100
AcDbLayerTableRecord
  2
A-WYPELNIENIA
 70
0
 62
9
  6
Continuous
370
18
390
13
347
21
1001
AcAecLayerStandard
1000

1000
Wypełnienia (zaczernienia, tła)
  0
LAYER
  5
4E
330
1
100
AcDbSymbolTableRecord
100
AcDbLayerTableRecord
  2
A-WIDOK
 70
0
 62
7
  6
Continuous
370
25
390
13
347
21
1001
AcAecLayerStandard
1000

1000
Krawędzie widoczne (poza płaszczyzną cięcia)
  0
LAYER
  5
4F
330
1
100
AcDbSymbolTableRecord
100
AcDbLayerTableRecord
  2
A-NIEWIDOCZNE
 70
0
 62
8
  6
KRESKOWA
370
25
390
13
347
21
1001
AcAecLayerStandard
1000

1000
Krawędzie niewidoczne
  0
LAYER
  5
50
330
1
100
AcDbSymbolTableRecord
100
AcDbLayerTableRecord
  2
A-NAD-CIECIEM
 70
0
 62
8
  6
KRESKOWA
370
25
390
13
347
21
1001
AcAecLayerStandard
1000

1000
Elementy nad płaszczyzną cięcia (belki, nadproża, okapy)
  0
LAYER
  5
51
330
1
100
AcDbSymbolTableRecord
100
AcDbLayerTableRecord
  2
A-OKNA
 70
0
 62
3
  6
Continuous
370
35
390
13
347
21
1001
AcAecLayerStandard
1000

1000
Stolarka okienna
  0
LAYER
  5
52
330
1
100
AcDbSymbolTableRecord
100
AcDbLayerTableRecord
  2
A-DRZWI
 70
0
 62
3
  6
Continuous
370
35
390
13
347
21
1001
AcAecLayerStandard
1000

1000
Stolarka drzwiowa
  0
LAYER
  5
53
330
1
100
AcDbSymbolTableRecord
100
AcDbLayerTableRecord
  2
A-SCHODY
 70
0
 62
6
  6
Continuous
370
25
390
13
347
21
1001
AcAecLayerStandard
1000

1000
Schody, pochylnie, balustrady
  0
LAYER
  5
54
330
1
100
AcDbSymbolTableRecord
100
AcDbLayerTableRecord
  2
A-MEBLE
 70
0
 62
8
  6
Continuous
370
18
390
13
347
21
1001
AcAecLayerStandard
1000

1000
Meble i wyposażenie ruchome
  0
LAYER
  5
55
330
1
100
AcDbSymbolTableRecord
100
AcDbLayerTableRecord
  2
A-SANITARNE
 70
0
 62
6
  6
Continuous
370
25
390
13
347
21
1001
AcAecLayerStandard
1000

1000
Wyposażenie sanitarne i kuchenne
  0
LAYER
  5
56
330
1
100
AcDbSymbolTableRecord
100
AcDbLayerTableRecord
  2
A-WYMIARY
 70
0
 62
1
  6
Continuous
370
25
390
13
347
21
1001
AcAecLayerStandard
1000

1000
Wymiarowanie (PN-B-01029)
  0
LAYER
  5
57
330
1
100
AcDbSymbolTableRecord
100
AcDbLayerTableRecord
  2
A-OPISY
 70
0
 62
2
  6
Continuous
370
25
390
13
347
21
1001
AcAecLayerStandard
1000

1000
Opisy, odnośniki, opisy warstw
  0
LAYER
  5
58
330
1
100
AcDbSymbolTableRecord
100
AcDbLayerTableRecord
  2
A-POMIESZCZENIA
 70
0
 62
2
  6
Continuous
370
25
390
13
347
21
1001
AcAecLayerStandard
1000

1000
Oznaczenia pomieszczeń (PN-EN ISO 4157)
  0
LAYER
  5
59
330
1
100
AcDbSymbolTableRecord
100
AcDbLayerTableRecord
  2
A-OSIE
 70
0
 62
1
  6
PUNKTOWA
370
25
390
13
347
21
1001
AcAecLayerStandard
1000

1000
Osie konstrukcyjne
  0
LAYER
  5
5A
330
1
100
AcDbSymbolTableRecord
100
AcDbLayerTableRecord
  2
A-RZEDNE
 70
0
 62
1
  6
Continuous
370
25
390
13
347
21
1001
AcAecLayerStandard
1000

1000
Rzędne wysokościowe
  0
LAYER
  5
5B
330
1
100
AcDbSymbolTableRecord
100
AcDbLayerTableRecord
  2
A-PRZEKROJE
 70
0
 62
1
  6
PUNKTOWA_KROTKA
370
50
390
13
347
21
1001
AcAecLayerStandard
1000

1000
Oznaczenia przekrojów i widoków
  0
LAYER
  5
5C
330
1
100
AcDbSymbolTableRecord
100
AcDbLayerTableRecord
  2
A-SYMBOLE
 70
0
 62
2
  6
Continuous
370
25
390
13
347
21
1001
AcAecLayerStandard
1000

1000
Symbole ogólne (północ, spadki, odnośniki)
  0
LAYER
  5
5D
330
1
100
AcDbSymbolTableRecord
100
AcDbLayerTableRecord
  2
A-TEREN
 70
0
 62
32
  6
Continuous
370
50
390
13
347
21
1001
AcAecLayerStandard
1000

1000
Linia terenu, grunt
  0
LAYER
  5
5E
330
1
100
AcDbSymbolTableRecord
100
AcDbLayerTableRecord
  2
A-ELEWACJE
 70
0
 62
7
  6
Continuous
370
35
390
13
347
21
1001
AcAecLayerStandard
1000

1000
Elewacje — krawędzie
  0
LAYER
  5
5F
330
1
100
AcDbSymbolTableRecord
100
AcDbLayerTableRecord
  2
A-MASKA
 70
0
 62
7
  6
Continuous
370
18
390
13
347
21
1001
AcAecLayerStandard
1000

1000
Maski (tło napisów)
  0
LAYER
  5
60
330
1
100
AcDbSymbolTableRecord
100
AcDbLayerTableRecord
  2
K-KONSTR
 70
0
 62
7
  6
Continuous
370
50
390
13
347
21
1001
AcAecLayerStandard
1000

1000
Konstrukcja — kontury elementów
  0
LAYER
  5
61
330
1
100
AcDbSymbolTableRecord
100
AcDbLayerTableRecord
  2
K-ZBROJENIE
 70
0
 62
1
  6
Continuous
370
100
390
13
347
21
1001
AcAecLayerStandard
1000

1000
Zbrojenie — pręty (PN-EN ISO 3766)
  0
LAYER
  5
62
330
1
100
AcDbSymbolTableRecord
100
AcDbLayerTableRecord
  2
K-ZBROJENIE-OPIS
 70
0
 62
2
  6
Continuous
370
25
390
13
347
21
1001
AcAecLayerStandard
1000

1000
Zbrojenie — opisy pozycji
  0
LAYER
  5
63
330
1
100
AcDbSymbolTableRecord
100
AcDbLayerTableRecord
  2
K-WYMIARY
 70
0
 62
1
  6
Continuous
370
25
390
13
347
21
1001
AcAecLayerStandard
1000

1000
Konstrukcja — wymiary
  0
LAYER
  5
64
330
1
100
AcDbSymbolTableRecord
100
AcDbLayerTableRecord
  2
K-OSIE
 70
0
 62
1
  6
PUNKTOWA
370
25
390
13
347
21
1001
AcAecLayerStandard
1000

1000
Konstrukcja — osie
  0
LAYER
  5
65
330
1
100
AcDbSymbolTableRecord
100
AcDbLayerTableRecord
  2
S-WODA
 70
0
 62
5
420
20680
  6
Continuous
370
35
390
13
347
21
1001
AcAecLayerStandard
1000

1000
Instalacja wody zimnej
  0
LAYER
  5
66
330
1
100
AcDbSymbolTableRecord
100
AcDbLayerTableRecord
  2
S-CWU
 70
0
 62
1
420
13631488
  6
KRESKOWA
370
35
390
13
347
21
1001
AcAecLayerStandard
1000

1000
Instalacja ciepłej wody użytkowej
  0
LAYER
  5
67
330
1
100
AcDbSymbolTableRecord
100
AcDbLayerTableRecord
  2
S-CYRK
 70
0
 62
6
420
11534512
  6
PUNKTOWA_KROTKA
370
25
390
13
347
21
1001
AcAecLayerStandard
1000

1000
Instalacja cyrkulacji CWU
  0
LAYER
  5
68
330
1
100
AcDbSymbolTableRecord
100
AcDbLayerTableRecord
  2
S-KANAL
 70
0
 62
34
420
8013056
  6
Continuous
370
50
390
13
347
21
1001
AcAecLayerStandard
1000

1000
Kanalizacja sanitarna
  0
LAYER
  5
69
330
1
100
AcDbSymbolTableRecord
100
AcDbLayerTableRecord
  2
S-DESZCZ
 70
0
 62
150
420
32906
  6
KRESKA_DLUGA
370
35
390
13
347
21
1001
AcAecLayerStandard
1000

1000
Kanalizacja deszczowa / odwodnienie
  0
LAYER
  5
6A
330
1
100
AcDbSymbolTableRecord
100
AcDbLayerTableRecord
  2
S-OGRZ
 70
0
 62
1
420
14700544
  6
Continuous
370
25
390
13
347
21
1001
AcAecLayerStandard
1000

1000
Ogrzewanie (zasilanie/powrót, pętle podłogowe)
  0
LAYER
  5
6B
330
1
100
AcDbSymbolTableRecord
100
AcDbLayerTableRecord
  2
S-WENT
 70
0
 62
3
420
35328
  6
Continuous
370
35
390
13
347
21
1001
AcAecLayerStandard
1000

1000
Wentylacja mechaniczna
  0
LAYER
  5
6C
330
1
100
AcDbSymbolTableRecord
100
AcDbLayerTableRecord
  2
S-URZADZENIA
 70
0
 62
2
420
3158064
  6
Continuous
370
35
390
13
347
21
1001
AcAecLayerStandard
1000

1000
Urządzenia i armatura instalacji sanitarnych
  0
LAYER
  5
6D
330
1
100
AcDbSymbolTableRecord
100
AcDbLayerTableRecord
  2
S-OPISY
 70
0
 62
2
  6
Continuous
370
25
390
13
347
21
1001
AcAecLayerStandard
1000

1000
Instalacje sanitarne — opisy
  0
LAYER
  5
6E
330
1
100
AcDbSymbolTableRecord
100
AcDbLayerTableRecord
  2
E-GNIAZDA
 70
0
 62
1
420
12582912
  6
Continuous
370
35
390
13
347
21
1001
AcAecLayerStandard
1000

1000
Gniazda wtyczkowe (PN-EN 60617)
  0
LAYER
  5
6F
330
1
100
AcDbSymbolTableRecord
100
AcDbLayerTableRecord
  2
E-OSWIETLENIE
 70
0
 62
30
420
13656064
  6
Continuous
370
35
390
13
347
21
1001
AcAecLayerStandard
1000

1000
Oprawy oświetleniowe
  0
LAYER
  5
70
330
1
100
AcDbSymbolTableRecord
100
AcDbLayerTableRecord
  2
E-LACZNIKI
 70
0
 62
30
420
13656064
  6
Continuous
370
35
390
13
347
21
1001
AcAecLayerStandard
1000

1000
Łączniki, czujniki
  0
LAYER
  5
71
330
1
100
AcDbSymbolTableRecord
100
AcDbLayerTableRecord
  2
E-TRASY
 70
0
 62
8
420
6316128
  6
Continuous
370
25
390
13
347
21
1001
AcAecLayerStandard
1000

1000
Trasy przewodów
  0
LAYER
  5
72
330
1
100
AcDbSymbolTableRecord
100
AcDbLayerTableRecord
  2
E-ROZDZIELNICE
 70
0
 62
1
420
12582912
  6
Continuous
370
35
390
13
347
21
1001
AcAecLayerStandard
1000

1000
Rozdzielnice, złącza, puszki
  0
LAYER
  5
73
330
1
100
AcDbSymbolTableRecord
100
AcDbLayerTableRecord
  2
E-TELETECH
 70
0
 62
5
420
20680
  6
Continuous
370
35
390
13
347
21
1001
AcAecLayerStandard
1000

1000
Instalacje teletechniczne (LAN, TV, domofon)
  0
LAYER
  5
74
330
1
100
AcDbSymbolTableRecord
100
AcDbLayerTableRecord
  2
E-ODGROM
 70
0
 62
3
420
35328
  6
Continuous
370
35
390
13
347
21
1001
AcAecLayerStandard
1000

1000
Uziemienia, połączenia wyrównawcze, ochrona odgromowa
  0
LAYER
  5
75
330
1
100
AcDbSymbolTableRecord
100
AcDbLayerTableRecord
  2
E-OPISY
 70
0
 62
2
  6
Continuous
370
25
390
13
347
21
1001
AcAecLayerStandard
1000

1000
Instalacje elektryczne — opisy
  0
LAYER
  5
76
330
1
100
AcDbSymbolTableRecord
100
AcDbLayerTableRecord
  2
Z-GRANICE
 70
0
 62
1
  6
DWUPUNKTOWA
370
50
390
13
347
21
1001
AcAecLayerStandard
1000

1000
Granice działki, punkty graniczne
  0
LAYER
  5
77
330
1
100
AcDbSymbolTableRecord
100
AcDbLayerTableRecord
  2
Z-ZABUDOWA
 70
0
 62
7
  6
Continuous
370
50
390
13
347
21
1001
AcAecLayerStandard
1000

1000
Budynki projektowane i istniejące
  0
LAYER
  5
78
330
1
100
AcDbSymbolTableRecord
100
AcDbLayerTableRecord
  2
Z-LINIE-ZABUDOWY
 70
0
 62
1
420
12582912
  6
PUNKTOWA
370
35
390
13
347
21
1001
AcAecLayerStandard
1000

1000
Linie zabudowy (MPZP)
  0
LAYER
  5
79
330
1
100
AcDbSymbolTableRecord
100
AcDbLayerTableRecord
  2
Z-UTWARDZENIA
 70
0
 62
8
  6
Continuous
370
25
390
13
347
21
1001
AcAecLayerStandard
1000

1000
Nawierzchnie utwardzone
  0
LAYER
  5
7A
330
1
100
AcDbSymbolTableRecord
100
AcDbLayerTableRecord
  2
Z-ZIELEN
 70
0
 62
3
420
1997342
  6
Continuous
370
25
390
13
347
21
1001
AcAecLayerStandard
1000

1000
Zieleń: drzewa, krzewy, trawniki
  0
LAYER
  5
7B
330
1
100
AcDbSymbolTableRecord
100
AcDbLayerTableRecord
  2
Z-UZBROJENIE
 70
0
 62
5
  6
Continuous
370
35
390
13
347
21
1001
AcAecLayerStandard
1000

1000
Uzbrojenie terenu, sieci i przyłącza
  0
LAYER
  5
7C
330
1
100
AcDbSymbolTableRecord
100
AcDbLayerTableRecord
  2
Z-WARSTWICE
 70
0
 62
32
420
9067050
  6
Continuous
370
18
390
13
347
21
1001
AcAecLayerStandard
1000

1000
Warstwice i punkty wysokościowe
  0
LAYER
  5
7D
330
1
100
AcDbSymbolTableRecord
100
AcDbLayerTableRecord
  2
Z-OGRODZENIE
 70
0
 62
7
  6
Continuous
370
35
390
13
347
21
1001
AcAecLayerStandard
1000

1000
Ogrodzenie, bramy, furtki
  0
LAYER
  5
7E
330
1
100
AcDbSymbolTableRecord
100
AcDbLayerTableRecord
  2
Z-OPISY
 70
0
 62
2
  6
Continuous
370
25
390
13
347
21
1001
AcAecLayerStandard
1000

1000
Opisy zagospodarowania
  0
LAYER
  5
7F
330
1
100
AcDbSymbolTableRecord
100
AcDbLayerTableRecord
  2
Z-MAPA
 70
0
 62
8
420
5921370
  6
Continuous
370
18
390
13
347
21
1001
AcAecLayerStandard
1000

1000
Podkład: mapa do celów projektowych (przykładowa, fikcyjna)
  0
LAYER
  5
80
330
1
100
AcDbSymbolTableRecord
100
AcDbLayerTableRecord
  2
Z-MAPA-OPISY
 70
0
 62
8
420
5921370
  6
Continuous
370
25
390
13
347
21
1001
AcAecLayerStandard
1000

1000
Podkład: opisy mapy (numery działek, budynki, sieci)
  0
LAYER
  5
81
330
1
100
AcDbSymbolTableRecord
100
AcDbLayerTableRecord
  2
Z-MAPA-RAMKA
 70
0
 62
7
  6
Continuous
370
35
390
13
347
21
1001
AcAecLayerStandard
1000

1000
Ramka i opis podkładu mapowego
  0
LAYER
  5
82
330
1
100
AcDbSymbolTableRecord
100
AcDbLayerTableRecord
  2
Z-DZIALKA
 70
0
 62
1
  6
Continuous
370
35
390
13
347
21
1001
AcAecLayerStandard
1000

1000
Granica działki budowlanej (PN-B-01027 poz. 2.7)
  0
LAYER
  5
83
330
1
100
AcDbSymbolTableRecord
100
AcDbLayerTableRecord
  2
Z-LZ
 70
0
 62
1
420
12582912
  6
Continuous
370
35
390
13
347
21
1001
AcAecLayerStandard
1000

1000
Nieprzekraczalna linia zabudowy (MPZP, PN-B-01027 poz. 2.2)
  0
LAYER
  5
84
330
1
100
AcDbSymbolTableRecord
100
AcDbLayerTableRecord
  2
Z-DROGA
 70
0
 62
8
420
4210752
  6
Continuous
370
35
390
13
347
21
1001
AcAecLayerStandard
1000

1000
Droga publiczna: linie rozgraniczające, jezdnia
  0
LAYER
  5
85
330
1
100
AcDbSymbolTableRecord
100
AcDbLayerTableRecord
  2
Z-BUDYNEK
 70
0
 62
7
  6
Continuous
370
100
390
13
347
21
1001
AcAecLayerStandard
1000

1000
Budynek projektowany — obrys przyziemia 1,0 m nad terenem (PN-B-01027 poz. 1.1)
  0
LAYER
  5
86
330
1
100
AcDbSymbolTableRecord
100
AcDbLayerTableRecord
  2
Z-BUDYNEK-NAD
 70
0
 62
7
  6
KRESKOWA
370
50
390
13
347
21
1001
AcAecLayerStandard
1000

1000
Obrys wyższych kondygnacji, płyt i okapów (PN-B-01027 poz. 1.6)
  0
LAYER
  5
87
330
1
100
AcDbSymbolTableRecord
100
AcDbLayerTableRecord
  2
Z-WYMIARY
 70
0
 62
1
  6
Continuous
370
18
390
13
347
21
1001
AcAecLayerStandard
1000

1000
Wymiarowanie PZT — linie 0,18 (PN-B-01027 poz. 4)
  0
LAYER
  5
88
330
1
100
AcDbSymbolTableRecord
100
AcDbLayerTableRecord
  2
Z-RZEDNE
 70
0
 62
32
420
7029795
  6
Continuous
370
18
390
13
347
21
1001
AcAecLayerStandard
1000

1000
Rzędne terenu istniejącego i projektowanego (PN-B-01025)
  0
LAYER
  5
89
330
1
100
AcDbSymbolTableRecord
100
AcDbLayerTableRecord
  2
Z-RZEDNE-PROJ
 70
0
 62
1
  6
Continuous
370
18
390
13
347
21
1001
AcAecLayerStandard
1000

1000
Rzędne terenu projektowanego
  0
LAYER
  5
8A
330
1
100
AcDbSymbolTableRecord
100
AcDbLayerTableRecord
  2
Z-ODWODNIENIE
 70
0
 62
150
420
32906
  6
Continuous
370
25
390
13
347
21
1001
AcAecLayerStandard
1000

1000
Odwodnienie terenu, spadki, kierunki spływu
  0
LAYER
  5
8B
330
1
100
AcDbSymbolTableRecord
100
AcDbLayerTableRecord
  2
Z-SIECI-IST
 70
0
 62
5
  6
Continuous
370
25
390
13
347
21
1001
AcAecLayerStandard
1000

1000
Uzbrojenie istniejące (wg mapy)
  0
LAYER
  5
8C
330
1
100
AcDbSymbolTableRecord
100
AcDbLayerTableRecord
  2
Z-SIECI-PROJ
 70
0
 62
5
  6
Continuous
370
50
390
13
347
21
1001
AcAecLayerStandard
1000

1000
Uzbrojenie projektowane (przyłącza, kolektory)
  0
LAYER
  5
8D
330
1
100
AcDbSymbolTableRecord
100
AcDbLayerTableRecord
  2
Z-KOLIZJE
 70
0
 62
6
420
12583104
  6
Continuous
370
35
390
13
347
21
1001
AcAecLayerStandard
1000

1000
Kolizje, zbliżenia i skrzyżowania sieci
  0
LAYER
  5
8E
330
1
100
AcDbSymbolTableRecord
100
AcDbLayerTableRecord
  2
Z-TYCZENIE
 70
0
 62
1
  6
Continuous
370
25
390
13
347
21
1001
AcAecLayerStandard
1000

1000
Punkty tyczenia budynku
  0
LAYER
  5
8F
330
1
100
AcDbSymbolTableRecord
100
AcDbLayerTableRecord
  2
Z-STREFY
 70
0
 62
6
420
11534512
  6
Continuous
370
25
390
13
347
21
1001
AcAecLayerStandard
1000

1000
Strefy (R290 pompy ciepła)
  0
LAYER
  5
90
330
1
100
AcDbSymbolTableRecord
100
AcDbLayerTableRecord
  2
Z-TLO
 70
0
 62
7
  6
Continuous
370
18
390
13
347
21
1001
AcAecLayerStandard
1000

1000
Tło (maski wypełnień)
  0
LAYER
  5
91
330
1
100
AcDbSymbolTableRecord
100
AcDbLayerTableRecord
  2
I-PODKLAD
 70
0
 62
8
420
10132122
  6
Continuous
370
18
390
13
347
21
1001
AcAecLayerStandard
1000

1000
Podkład architektoniczny — rzut AR (szary, cienki)
  0
LAYER
  5
92
330
1
100
AcDbSymbolTableRecord
100
AcDbLayerTableRecord
  2
I-PODKLAD-SCIANY
 70
0
 62
8
420
7237230
  6
Continuous
370
25
390
13
347
21
1001
AcAecLayerStandard
1000

1000
Podkład architektoniczny — kontury ścian przeciętych
  0
LAYER
  5
93
330
1
100
AcDbSymbolTableRecord
100
AcDbLayerTableRecord
  2
I-PODKLAD-WYPELN
 70
0
 62
254
420
15132390
  6
Continuous
370
18
390
13
347
21
1001
AcAecLayerStandard
1000

1000
Podkład architektoniczny — wypełnienie ścian przeciętych
  0
LAYER
  5
94
330
1
100
AcDbSymbolTableRecord
100
AcDbLayerTableRecord
  2
I-POMIESZCZENIA
 70
0
 62
8
420
4868682
  6
Continuous
370
25
390
13
347
21
1001
AcAecLayerStandard
1000

1000
Podkład — numery i nazwy pomieszczeń
  0
LAYER
  5
95
330
1
100
AcDbSymbolTableRecord
100
AcDbLayerTableRecord
  2
I-OSIE
 70
0
 62
8
420
8026746
  6
PUNKTOWA
370
18
390
13
347
21
1001
AcAecLayerStandard
1000

1000
Podkład — osie konstrukcyjne
  0
LAYER
  5
96
330
1
100
AcDbSymbolTableRecord
100
AcDbLayerTableRecord
  2
I-BRAKI
 70
0
 62
6
420
11534474
  6
KRESKOWA
370
25
390
13
347
21
1001
AcAecLayerStandard
1000

1000
Elementy do uzupełnienia w modelu [DO UZUPEŁNIENIA] / proponowane
  0
LAYER
  5
97
330
1
100
AcDbSymbolTableRecord
100
AcDbLayerTableRecord
  2
E-PV
 70
0
 62
200
420
5975171
  6
Continuous
370
35
390
13
347
21
1001
AcAecLayerStandard
1000

1000
Instalacja fotowoltaiczna: moduły, trasy DC
  0
LAYER
  5
98
330
1
100
AcDbSymbolTableRecord
100
AcDbLayerTableRecord
  2
E-ALARM
 70
0
 62
5
420
2056104
  6
Continuous
370
35
390
13
347
21
1001
AcAecLayerStandard
1000

1000
Sygnalizacja włamania i napadu (SSWiN), czujki
  0
LAYER
  5
99
330
1
100
AcDbSymbolTableRecord
100
AcDbLayerTableRecord
  2
S-PC
 70
0
 62
1
420
12597547
  6
Continuous
370
35
390
13
347
21
1001
AcAecLayerStandard
1000

1000
Pompa ciepła — przewody czynnika grzewczego (zasilanie/powrót)
  0
LAYER
  5
9A
330
1
100
AcDbSymbolTableRecord
100
AcDbLayerTableRecord
  2
A-DET-HYDRO
 70
0
 62
5
420
1402304
  6
Continuous
370
50
390
13
347
21
1001
AcAecLayerStandard
1000

1000
Detal — hydroizolacja / ochrona przed wodą (linia niebieska)
  0
LAYER
  5
9B
330
1
100
AcDbSymbolTableRecord
100
AcDbLayerTableRecord
  2
A-DET-SZCZEL
 70
0
 62
1
420
13840175
  6
KRESKOWA
370
35
390
13
347
21
1001
AcAecLayerStandard
1000

1000
Detal — szczelność powietrzna (czerwona przerywana)
  0
LAYER
  5
9C
330
1
100
AcDbSymbolTableRecord
100
AcDbLayerTableRecord
  2
A-DET-PARO
 70
0
 62
6
420
8069026
  6
Continuous
370
35
390
13
347
21
1001
AcAecLayerStandard
1000

1000
Detal — paroizolacja / kontrola pary (fioletowa)
  0
LAYER
  5
9D
330
1
100
AcDbSymbolTableRecord
100
AcDbLayerTableRecord
  2
A-DET-IZOL
 70
0
 62
30
420
15690752
  6
Continuous
370
35
390
13
347
21
1001
AcAecLayerStandard
1000

1000
Detal — obrys izolacji cieplnej (pomarańczowy)
  0
LAYER
  5
9E
330
1
100
AcDbSymbolTableRecord
100
AcDbLayerTableRecord
  2
A-DET-TASMA
 70
0
 62
6
  6
Continuous
370
50
390
13
347
21
1001
AcAecLayerStandard
1000

1000
Detal — taśmy uszczelniające (paroszczelne / paroprzepuszczalne)
  0
LAYER
  5
9F
330
1
100
AcDbSymbolTableRecord
100
AcDbLayerTableRecord
  2
A-DET-MEMBRANY
 70
0
 62
8
420
4545124
  6
PUNKTOWA_KROTKA
370
25
390
13
347
21
1001
AcAecLayerStandard
1000

1000
Detal — membrany wiatroizolacyjne, włókniny, bariery
  0
LAYER
  5
A0
330
1
100
AcDbSymbolTableRecord
100
AcDbLayerTableRecord
  2
A-DET-OBROBKI
 70
0
 62
7
  6
Continuous
370
35
390
13
347
21
1001
AcAecLayerStandard
1000

1000
Detal — obróbki blacharskie, okapniki, rynny
  0
LAYER
  5
A1
330
1
100
AcDbSymbolTableRecord
100
AcDbLayerTableRecord
  2
A-DET-PRZERWA
 70
0
 62
8
  6
Continuous
370
25
390
13
347
21
1001
AcAecLayerStandard
1000

1000
Detal — linie przerwania
  0
LAYER
  5
A2
330
1
100
AcDbSymbolTableRecord
100
AcDbLayerTableRecord
  2
A-DET-OPIS
 70
0
 62
2
  6
Continuous
370
25
390
13
347
21
1001
AcAecLayerStandard
1000

1000
Detal — pole opisu (wyniki mostków, ocena 4 linii)
  0
LAYER
  5
A3
330
1
100
AcDbSymbolTableRecord
100
AcDbLayerTableRecord
  2
E-UZIOM
 70
0
 62
7
  6
Continuous
370
25
390
13
347
21
1001
AcAecLayerStandard
1000

1000
E-UZIOM
  0
ENDTAB
  0
TABLE
  2
STYLE
  5
5
330
0
100
AcDbSymbolTable
 70
5
  0
STYLE
  5
29
330
5
100
AcDbSymbolTableRecord
100
AcDbTextStyleTableRecord
  2
Standard
 70
0
 40
0.0
 41
1.0
 50
0.0
 71
0
 42
2.5
  3
txt
  4

  0
STYLE
  5
3A
330
5
100
AcDbSymbolTableRecord
100
AcDbTextStyleTableRecord
  2
PL_ARIAL
 70
0
 40
0.0
 41
1.0
 50
0.0
 71
0
 42
2.5
  3
arial.ttf
  4

  0
STYLE
  5
3B
330
5
100
AcDbSymbolTableRecord
100
AcDbTextStyleTableRecord
  2
PL_ARIAL_B
 70
0
 40
0.0
 41
1.0
 50
0.0
 71
0
 42
2.5
  3
arialbd.ttf
  4

  0
STYLE
  5
3C
330
5
100
AcDbSymbolTableRecord
100
AcDbTextStyleTableRecord
  2
PL_ARIAL_I
 70
0
 40
0.0
 41
1.0
 50
0.0
 71
0
 42
2.5
  3
ariali.ttf
  4

  0
STYLE
  5
3D
330
5
100
AcDbSymbolTableRecord
100
AcDbTextStyleTableRecord
  2
PL_ARIAL_BI
 70
0
 40
0.0
 41
1.0
 50
0.0
 71
0
 42
2.5
  3
arialbi.ttf
  4

  0
ENDTAB
  0
TABLE
  2
VIEW
  5
7
330
0
100
AcDbSymbolTable
 70
0
  0
ENDTAB
  0
TABLE
  2
UCS
  5
6
330
0
100
AcDbSymbolTable
 70
0
  0
ENDTAB
  0
TABLE
  2
APPID
  5
3
330
0
100
AcDbSymbolTable
 70
4
  0
APPID
  5
2A
330
3
100
AcDbSymbolTableRecord
100
AcDbRegAppTableRecord
  2
ACAD
 70
0
  0
APPID
  5
3F
330
3
100
AcDbSymbolTableRecord
100
AcDbRegAppTableRecord
  2
AcAecLayerStandard
 70
0
  0
APPID
  5
3AD
330
3
100
AcDbSymbolTableRecord
100
AcDbRegAppTableRecord
  2
HATCHBACKGROUNDCOLOR
 70
0
  0
APPID
  5
3AE
330
3
100
AcDbSymbolTableRecord
100
AcDbRegAppTableRecord
  2
EZDXF
 70
0
  0
ENDTAB
  0
TABLE
  2
DIMSTYLE
  5
4
330
0
100
AcDbSymbolTable
 70
1
100
AcDbDimStyleTable
  0
DIMSTYLE
105
2B
330
4
100
AcDbSymbolTableRecord
100
AcDbDimStyleTableRecord
  2
Standard
 70
0
 40
1.0
 41
2.5
 42
0.625
 43
3.75
 44
1.25
 45
0.0
 46
0.0
 47
0.0
 48
0.0
 49
2.5
140
2.5
141
2.5
142
0.0
143
0.03937007874
144
1.0
145
0.0
146
1.0
147
0.625
148
0.0
 69
0
 70
0
 71
0
 72
0
 73
0
 74
0
 75
0
 76
0
 77
1
 78
8
 79
3
170
0
171
3
172
1
173
0
174
0
175
0
176
0
177
0
178
0
179
2
271
2
272
2
273
2
274
3
275
0
276
0
277
2
278
44
279
0
280
0
281
0
282
0
283
0
284
8
285
0
286
0
288
0
289
3
290
0
371
-2
372
-2
  0
ENDTAB
  0
TABLE
  2
BLOCK_RECORD
  5
9
330
0
100
AcDbSymbolTable
 70
2
  0
BLOCK_RECORD
  5
17
330
9
100
AcDbSymbolTableRecord
100
AcDbBlockTableRecord
  2
*Model_Space
340
1A
 70
0
280
1
281
0
  0
BLOCK_RECORD
  5
1B
330
9
100
AcDbSymbolTableRecord
100
AcDbBlockTableRecord
  2
*Paper_Space
340
1E
 70
0
280
1
281
0
  0
ENDTAB
  0
ENDSEC
  0
SECTION
  2
BLOCKS
  0
BLOCK
  5
18
330
17
100
AcDbEntity
  8
0
100
AcDbBlockBegin
  2
*Model_Space
 70
0
 10
0.0
 20
0.0
 30
0.0
  3
*Model_Space
  1

  0
ENDBLK
  5
19
330
17
100
AcDbEntity
  8
0
100
AcDbBlockEnd
  0
BLOCK
  5
1C
330
1B
100
AcDbEntity
  8
0
100
AcDbBlockBegin
  2
*Paper_Space
 70
0
 10
0.0
 20
0.0
 30
0.0
  3
*Paper_Space
  1

  0
ENDBLK
  5
1D
330
1B
100
AcDbEntity
  8
0
100
AcDbBlockEnd
  0
ENDSEC
  0
SECTION
  2
ENTITIES
  0
HATCH
  5
11A
330
17
100
AcDbEntity
  8
R-OPISY
 62
7
420
15658734
100
AcDbHatch
 10
0.0
 20
0.0
 30
0.0
210
0.0
220
0.0
230
1.0
  2
SOLID
 70
1
 71
0
 91
1
 92
3
 72
0
 73
1
 93
4
 10
0.0
 20
-0.0105
 10
0.18
 20
-0.0105
 10
0.18
 20
-0.006
 10
0.0
 20
-0.006
 97
0
 75
0
 76
1
 98
0
  0
HATCH
  5
11B
330
17
100
AcDbEntity
  8
R-OPISY
 62
7
420
15658734
100
AcDbHatch
 10
0.0
 20
0.0
 30
0.0
210
0.0
220
0.0
230
1.0
  2
SOLID
 70
1
 71
0
 91
1
 92
3
 72
0
 73
1
 93
4
 10
0.0
 20
-0.0695
 10
0.18
 20
-0.0695
 10
0.18
 20
-0.0625
 10
0.0
 20
-0.0625
 97
0
 75
0
 76
1
 98
0
  0
HATCH
  5
11C
330
17
100
AcDbEntity
  8
R-OPISY
 62
7
420
15658734
100
AcDbHatch
 10
0.0
 20
0.0
 30
0.0
210
0.0
220
0.0
230
1.0
  2
SOLID
 70
1
 71
0
 91
1
 92
3
 72
0
 73
1
 93
4
 10
0.0
 20
-0.35950000000000004
 10
0.18
 20
-0.35950000000000004
 10
0.18
 20
-0.35500000000000004
 10
0.0
 20
-0.35500000000000004
 97
0
 75
0
 76
1
 98
0
  0
LWPOLYLINE
  5
11D
330
17
100
AcDbEntity
  8
R-OPISY
370
25
 48
0.001
100
AcDbPolyline
 90
2
 70
0
 10
0.0
 20
-0.0105
 10
0.18
 20
-0.0105
  0
LWPOLYLINE
  5
11E
330
17
100
AcDbEntity
  8
R-OPISY
370
13
 48
0.001
100
AcDbPolyline
 90
2
 70
0
 10
0.0
 20
-0.015
 10
0.18
 20
-0.015
  0
LWPOLYLINE
  5
11F
330
17
100
AcDbEntity
  8
R-OPISY
370
13
 48
0.001
100
AcDbPolyline
 90
2
 70
0
 10
0.0
 20
-0.0195
 10
0.18
 20
-0.0195
  0
LWPOLYLINE
  5
120
330
17
100
AcDbEntity
  8
R-OPISY
370
13
 48
0.001
100
AcDbPolyline
 90
2
 70
0
 10
0.0
 20
-0.024
 10
0.18
 20
-0.024
  0
LWPOLYLINE
  5
121
330
17
100
AcDbEntity
  8
R-OPISY
370
13
 48
0.001
100
AcDbPolyline
 90
2
 70
0
 10
0.0
 20
-0.0285
 10
0.18
 20
-0.0285
  0
LWPOLYLINE
  5
122
330
17
100
AcDbEntity
  8
R-OPISY
370
13
 48
0.001
100
AcDbPolyline
 90
2
 70
0
 10
0.0
 20
-0.033
 10
0.18
 20
-0.033
  0
LWPOLYLINE
  5
123
330
17
100
AcDbEntity
  8
R-OPISY
370
13
 48
0.001
100
AcDbPolyline
 90
2
 70
0
 10
0.0
 20
-0.0375
 10
0.18
 20
-0.0375
  0
LWPOLYLINE
  5
124
330
17
100
AcDbEntity
  8
R-OPISY
370
13
 48
0.001
100
AcDbPolyline
 90
2
 70
0
 10
0.0
 20
-0.042
 10
0.18
 20
-0.042
  0
LWPOLYLINE
  5
125
330
17
100
AcDbEntity
  8
R-OPISY
370
13
 48
0.001
100
AcDbPolyline
 90
2
 70
0
 10
0.0
 20
-0.0465
 10
0.18
 20
-0.0465
  0
LWPOLYLINE
  5
126
330
17
100
AcDbEntity
  8
R-OPISY
370
13
 48
0.001
100
AcDbPolyline
 90
2
 70
0
 10
0.016
 20
-0.0465
 10
0.016
 20
-0.006
  0
LWPOLYLINE
  5
127
330
17
100
AcDbEntity
  8
R-OPISY
370
13
 48
0.001
100
AcDbPolyline
 90
2
 70
0
 10
0.034
 20
-0.0465
 10
0.034
 20
-0.006
  0
LWPOLYLINE
  5
128
330
17
100
AcDbEntity
  8
R-OPISY
370
13
 48
0.001
100
AcDbPolyline
 90
2
 70
0
 10
0.064
 20
-0.0465
 10
0.064
 20
-0.006
  0
LWPOLYLINE
  5
129
330
17
100
AcDbEntity
  8
R-OPISY
370
13
 48
0.001
100
AcDbPolyline
 90
2
 70
0
 10
0.124
 20
-0.0465
 10
0.124
 20
-0.006
  0
LWPOLYLINE
  5
12A
330
17
100
AcDbEntity
  8
R-OPISY
370
35
 48
0.001
100
AcDbPolyline
 90
4
 70
1
 10
0.0
 20
-0.0465
 10
0.18
 20
-0.0465
 10
0.18
 20
-0.006
 10
0.0
 20
-0.006
  0
LWPOLYLINE
  5
12B
330
17
100
AcDbEntity
  8
R-OPISY
370
25
 48
0.001
100
AcDbPolyline
 90
2
 70
0
 10
0.0
 20
-0.0695
 10
0.18
 20
-0.0695
  0
LWPOLYLINE
  5
12C
330
17
100
AcDbEntity
  8
R-OPISY
370
13
 48
0.001
100
AcDbPolyline
 90
2
 70
0
 10
0.0
 20
-0.074
 10
0.18
 20
-0.074
  0
LWPOLYLINE
  5
12D
330
17
100
AcDbEntity
  8
R-OPISY
370
13
 48
0.001
100
AcDbPolyline
 90
2
 70
0
 10
0.0
 20
-0.0785
 10
0.18
 20
-0.0785
  0
LWPOLYLINE
  5
12E
330
17
100
AcDbEntity
  8
R-OPISY
370
13
 48
0.001
100
AcDbPolyline
 90
2
 70
0
 10
0.0
 20
-0.083
 10
0.18
 20
-0.083
  0
LWPOLYLINE
  5
12F
330
17
100
AcDbEntity
  8
R-OPISY
370
13
 48
0.001
100
AcDbPolyline
 90
2
 70
0
 10
0.0
 20
-0.08750000000000001
 10
0.18
 20
-0.08750000000000001
  0
LWPOLYLINE
  5
130
330
17
100
AcDbEntity
  8
R-OPISY
370
13
 48
0.001
100
AcDbPolyline
 90
2
 70
0
 10
0.0
 20
-0.092
 10
0.18
 20
-0.092
  0
LWPOLYLINE
  5
131
330
17
100
AcDbEntity
  8
R-OPISY
370
13
 48
0.001
100
AcDbPolyline
 90
2
 70
0
 10
0.0
 20
-0.0965
 10
0.18
 20
-0.0965
  0
LWPOLYLINE
  5
132
330
17
100
AcDbEntity
  8
R-OPISY
370
13
 48
0.001
100
AcDbPolyline
 90
2
 70
0
 10
0.0
 20
-0.101
 10
0.18
 20
-0.101
  0
LWPOLYLINE
  5
133
330
17
100
AcDbEntity
  8
R-OPISY
370
13
 48
0.001
100
AcDbPolyline
 90
2
 70
0
 10
0.0
 20
-0.1055
 10
0.18
 20
-0.1055
  0
LWPOLYLINE
  5
134
330
17
100
AcDbEntity
  8
R-OPISY
370
13
 48
0.001
100
AcDbPolyline
 90
2
 70
0
 10
0.0
 20
-0.11
 10
0.18
 20
-0.11
  0
LWPOLYLINE
  5
135
330
17
100
AcDbEntity
  8
R-OPISY
370
13
 48
0.001
100
AcDbPolyline
 90
2
 70
0
 10
0.0
 20
-0.1145
 10
0.18
 20
-0.1145
  0
LWPOLYLINE
  5
136
330
17
100
AcDbEntity
  8
R-OPISY
370
13
 48
0.001
100
AcDbPolyline
 90
2
 70
0
 10
0.0
 20
-0.11900000000000001
 10
0.18
 20
-0.11900000000000001
  0
LWPOLYLINE
  5
137
330
17
100
AcDbEntity
  8
R-OPISY
370
13
 48
0.001
100
AcDbPolyline
 90
2
 70
0
 10
0.0
 20
-0.1235
 10
0.18
 20
-0.1235
  0
LWPOLYLINE
  5
138
330
17
100
AcDbEntity
  8
R-OPISY
370
13
 48
0.001
100
AcDbPolyline
 90
2
 70
0
 10
0.0
 20
-0.128
 10
0.18
 20
-0.128
  0
LWPOLYLINE
  5
139
330
17
100
AcDbEntity
  8
R-OPISY
370
13
 48
0.001
100
AcDbPolyline
 90
2
 70
0
 10
0.0
 20
-0.1325
 10
0.18
 20
-0.1325
  0
LWPOLYLINE
  5
13A
330
17
100
AcDbEntity
  8
R-OPISY
370
13
 48
0.001
100
AcDbPolyline
 90
2
 70
0
 10
0.0
 20
-0.137
 10
0.18
 20
-0.137
  0
LWPOLYLINE
  5
13B
330
17
100
AcDbEntity
  8
R-OPISY
370
13
 48
0.001
100
AcDbPolyline
 90
2
 70
0
 10
0.0
 20
-0.14150000000000001
 10
0.18
 20
-0.14150000000000001
  0
LWPOLYLINE
  5
13C
330
17
100
AcDbEntity
  8
R-OPISY
370
13
 48
0.001
100
AcDbPolyline
 90
2
 70
0
 10
0.0
 20
-0.146
 10
0.18
 20
-0.146
  0
LWPOLYLINE
  5
13D
330
17
100
AcDbEntity
  8
R-OPISY
370
13
 48
0.001
100
AcDbPolyline
 90
2
 70
0
 10
0.0
 20
-0.1505
 10
0.18
 20
-0.1505
  0
LWPOLYLINE
  5
13E
330
17
100
AcDbEntity
  8
R-OPISY
370
13
 48
0.001
100
AcDbPolyline
 90
2
 70
0
 10
0.0
 20
-0.155
 10
0.18
 20
-0.155
  0
LWPOLYLINE
  5
13F
330
17
100
AcDbEntity
  8
R-OPISY
370
13
 48
0.001
100
AcDbPolyline
 90
2
 70
0
 10
0.0
 20
-0.1595
 10
0.18
 20
-0.1595
  0
LWPOLYLINE
  5
140
330
17
100
AcDbEntity
  8
R-OPISY
370
13
 48
0.001
100
AcDbPolyline
 90
2
 70
0
 10
0.0
 20
-0.164
 10
0.18
 20
-0.164
  0
LWPOLYLINE
  5
141
330
17
100
AcDbEntity
  8
R-OPISY
370
13
 48
0.001
100
AcDbPolyline
 90
2
 70
0
 10
0.0
 20
-0.1685
 10
0.18
 20
-0.1685
  0
LWPOLYLINE
  5
142
330
17
100
AcDbEntity
  8
R-OPISY
370
13
 48
0.001
100
AcDbPolyline
 90
2
 70
0
 10
0.0
 20
-0.17300000000000001
 10
0.18
 20
-0.17300000000000001
  0
LWPOLYLINE
  5
143
330
17
100
AcDbEntity
  8
R-OPISY
370
13
 48
0.001
100
AcDbPolyline
 90
2
 70
0
 10
0.0
 20
-0.1775
 10
0.18
 20
-0.1775
  0
LWPOLYLINE
  5
144
330
17
100
AcDbEntity
  8
R-OPISY
370
13
 48
0.001
100
AcDbPolyline
 90
2
 70
0
 10
0.0
 20
-0.182
 10
0.18
 20
-0.182
  0
LWPOLYLINE
  5
145
330
17
100
AcDbEntity
  8
R-OPISY
370
13
 48
0.001
100
AcDbPolyline
 90
2
 70
0
 10
0.0
 20
-0.1865
 10
0.18
 20
-0.1865
  0
LWPOLYLINE
  5
146
330
17
100
AcDbEntity
  8
R-OPISY
370
13
 48
0.001
100
AcDbPolyline
 90
2
 70
0
 10
0.0
 20
-0.191
 10
0.18
 20
-0.191
  0
LWPOLYLINE
  5
147
330
17
100
AcDbEntity
  8
R-OPISY
370
13
 48
0.001
100
AcDbPolyline
 90
2
 70
0
 10
0.0
 20
-0.1955
 10
0.18
 20
-0.1955
  0
LWPOLYLINE
  5
148
330
17
100
AcDbEntity
  8
R-OPISY
370
13
 48
0.001
100
AcDbPolyline
 90
2
 70
0
 10
0.0
 20
-0.2
 10
0.18
 20
-0.2
  0
LWPOLYLINE
  5
149
330
17
100
AcDbEntity
  8
R-OPISY
370
13
 48
0.001
100
AcDbPolyline
 90
2
 70
0
 10
0.0
 20
-0.20450000000000002
 10
0.18
 20
-0.20450000000000002
  0
LWPOLYLINE
  5
14A
330
17
100
AcDbEntity
  8
R-OPISY
370
13
 48
0.001
100
AcDbPolyline
 90
2
 70
0
 10
0.0
 20
-0.209
 10
0.18
 20
-0.209
  0
LWPOLYLINE
  5
14B
330
17
100
AcDbEntity
  8
R-OPISY
370
13
 48
0.001
100
AcDbPolyline
 90
2
 70
0
 10
0.0
 20
-0.2135
 10
0.18
 20
-0.2135
  0
LWPOLYLINE
  5
14C
330
17
100
AcDbEntity
  8
R-OPISY
370
13
 48
0.001
100
AcDbPolyline
 90
2
 70
0
 10
0.0
 20
-0.218
 10
0.18
 20
-0.218
  0
LWPOLYLINE
  5
14D
330
17
100
AcDbEntity
  8
R-OPISY
370
13
 48
0.001
100
AcDbPolyline
 90
2
 70
0
 10
0.0
 20
-0.2225
 10
0.18
 20
-0.2225
  0
LWPOLYLINE
  5
14E
330
17
100
AcDbEntity
  8
R-OPISY
370
13
 48
0.001
100
AcDbPolyline
 90
2
 70
0
 10
0.0
 20
-0.227
 10
0.18
 20
-0.227
  0
LWPOLYLINE
  5
14F
330
17
100
AcDbEntity
  8
R-OPISY
370
13
 48
0.001
100
AcDbPolyline
 90
2
 70
0
 10
0.0
 20
-0.2315
 10
0.18
 20
-0.2315
  0
LWPOLYLINE
  5
150
330
17
100
AcDbEntity
  8
R-OPISY
370
13
 48
0.001
100
AcDbPolyline
 90
2
 70
0
 10
0.0
 20
-0.23600000000000002
 10
0.18
 20
-0.23600000000000002
  0
LWPOLYLINE
  5
151
330
17
100
AcDbEntity
  8
R-OPISY
370
13
 48
0.001
100
AcDbPolyline
 90
2
 70
0
 10
0.0
 20
-0.2405
 10
0.18
 20
-0.2405
  0
LWPOLYLINE
  5
152
330
17
100
AcDbEntity
  8
R-OPISY
370
13
 48
0.001
100
AcDbPolyline
 90
2
 70
0
 10
0.0
 20
-0.245
 10
0.18
 20
-0.245
  0
LWPOLYLINE
  5
153
330
17
100
AcDbEntity
  8
R-OPISY
370
13
 48
0.001
100
AcDbPolyline
 90
2
 70
0
 10
0.0
 20
-0.2495
 10
0.18
 20
-0.2495
  0
LWPOLYLINE
  5
154
330
17
100
AcDbEntity
  8
R-OPISY
370
13
 48
0.001
100
AcDbPolyline
 90
2
 70
0
 10
0.0
 20
-0.254
 10
0.18
 20
-0.254
  0
LWPOLYLINE
  5
155
330
17
100
AcDbEntity
  8
R-OPISY
370
13
 48
0.001
100
AcDbPolyline
 90
2
 70
0
 10
0.0
 20
-0.2585
 10
0.18
 20
-0.2585
  0
LWPOLYLINE
  5
156
330
17
100
AcDbEntity
  8
R-OPISY
370
13
 48
0.001
100
AcDbPolyline
 90
2
 70
0
 10
0.0
 20
-0.263
 10
0.18
 20
-0.263
  0
LWPOLYLINE
  5
157
330
17
100
AcDbEntity
  8
R-OPISY
370
13
 48
0.001
100
AcDbPolyline
 90
2
 70
0
 10
0.0
 20
-0.2675
 10
0.18
 20
-0.2675
  0
LWPOLYLINE
  5
158
330
17
100
AcDbEntity
  8
R-OPISY
370
13
 48
0.001
100
AcDbPolyline
 90
2
 70
0
 10
0.0
 20
-0.272
 10
0.18
 20
-0.272
  0
LWPOLYLINE
  5
159
330
17
100
AcDbEntity
  8
R-OPISY
370
13
 48
0.001
100
AcDbPolyline
 90
2
 70
0
 10
0.0
 20
-0.2765
 10
0.18
 20
-0.2765
  0
LWPOLYLINE
  5
15A
330
17
100
AcDbEntity
  8
R-OPISY
370
13
 48
0.001
100
AcDbPolyline
 90
2
 70
0
 10
0.0
 20
-0.281
 10
0.18
 20
-0.281
  0
LWPOLYLINE
  5
15B
330
17
100
AcDbEntity
  8
R-OPISY
370
13
 48
0.001
100
AcDbPolyline
 90
2
 70
0
 10
0.0
 20
-0.28550000000000003
 10
0.18
 20
-0.28550000000000003
  0
LWPOLYLINE
  5
15C
330
17
100
AcDbEntity
  8
R-OPISY
370
13
 48
0.001
100
AcDbPolyline
 90
2
 70
0
 10
0.0
 20
-0.29
 10
0.18
 20
-0.29
  0
LWPOLYLINE
  5
15D
330
17
100
AcDbEntity
  8
R-OPISY
370
13
 48
0.001
100
AcDbPolyline
 90
2
 70
0
 10
0.0
 20
-0.2945
 10
0.18
 20
-0.2945
  0
LWPOLYLINE
  5
15E
330
17
100
AcDbEntity
  8
R-OPISY
370
13
 48
0.001
100
AcDbPolyline
 90
2
 70
0
 10
0.0
 20
-0.299
 10
0.18
 20
-0.299
  0
LWPOLYLINE
  5
15F
330
17
100
AcDbEntity
  8
R-OPISY
370
13
 48
0.001
100
AcDbPolyline
 90
2
 70
0
 10
0.0
 20
-0.3035
 10
0.18
 20
-0.3035
  0
LWPOLYLINE
  5
160
330
17
100
AcDbEntity
  8
R-OPISY
370
13
 48
0.001
100
AcDbPolyline
 90
2
 70
0
 10
0.0
 20
-0.308
 10
0.18
 20
-0.308
  0
LWPOLYLINE
  5
161
330
17
100
AcDbEntity
  8
R-OPISY
370
13
 48
0.001
100
AcDbPolyline
 90
2
 70
0
 10
0.0
 20
-0.3125
 10
0.18
 20
-0.3125
  0
LWPOLYLINE
  5
162
330
17
100
AcDbEntity
  8
R-OPISY
370
13
 48
0.001
100
AcDbPolyline
 90
2
 70
0
 10
0.0
 20
-0.317
 10
0.18
 20
-0.317
  0
LWPOLYLINE
  5
163
330
17
100
AcDbEntity
  8
R-OPISY
370
13
 48
0.001
100
AcDbPolyline
 90
2
 70
0
 10
0.0
 20
-0.3215
 10
0.18
 20
-0.3215
  0
LWPOLYLINE
  5
164
330
17
100
AcDbEntity
  8
R-OPISY
370
13
 48
0.001
100
AcDbPolyline
 90
2
 70
0
 10
0.0
 20
-0.326
 10
0.18
 20
-0.326
  0
LWPOLYLINE
  5
165
330
17
100
AcDbEntity
  8
R-OPISY
370
13
 48
0.001
100
AcDbPolyline
 90
2
 70
0
 10
0.01
 20
-0.326
 10
0.01
 20
-0.0625
  0
LWPOLYLINE
  5
166
330
17
100
AcDbEntity
  8
R-OPISY
370
13
 48
0.001
100
AcDbPolyline
 90
2
 70
0
 10
0.019
 20
-0.326
 10
0.019
 20
-0.0625
  0
LWPOLYLINE
  5
167
330
17
100
AcDbEntity
  8
R-OPISY
370
13
 48
0.001
100
AcDbPolyline
 90
2
 70
0
 10
0.062
 20
-0.326
 10
0.062
 20
-0.0625
  0
LWPOLYLINE
  5
168
330
17
100
AcDbEntity
  8
R-OPISY
370
13
 48
0.001
100
AcDbPolyline
 90
2
 70
0
 10
0.077
 20
-0.326
 10
0.077
 20
-0.0625
  0
LWPOLYLINE
  5
169
330
17
100
AcDbEntity
  8
R-OPISY
370
13
 48
0.001
100
AcDbPolyline
 90
2
 70
0
 10
0.089
 20
-0.326
 10
0.089
 20
-0.0625
  0
LWPOLYLINE
  5
16A
330
17
100
AcDbEntity
  8
R-OPISY
370
13
 48
0.001
100
AcDbPolyline
 90
2
 70
0
 10
0.1
 20
-0.326
 10
0.1
 20
-0.0625
  0
LWPOLYLINE
  5
16B
330
17
100
AcDbEntity
  8
R-OPISY
370
13
 48
0.001
100
AcDbPolyline
 90
2
 70
0
 10
0.11
 20
-0.326
 10
0.11
 20
-0.0625
  0
LWPOLYLINE
  5
16C
330
17
100
AcDbEntity
  8
R-OPISY
370
13
 48
0.001
100
AcDbPolyline
 90
2
 70
0
 10
0.12
 20
-0.326
 10
0.12
 20
-0.0625
  0
LWPOLYLINE
  5
16D
330
17
100
AcDbEntity
  8
R-OPISY
370
13
 48
0.001
100
AcDbPolyline
 90
2
 70
0
 10
0.13
 20
-0.326
 10
0.13
 20
-0.0625
  0
LWPOLYLINE
  5
16E
330
17
100
AcDbEntity
  8
R-OPISY
370
13
 48
0.001
100
AcDbPolyline
 90
2
 70
0
 10
0.14
 20
-0.326
 10
0.14
 20
-0.0625
  0
LWPOLYLINE
  5
16F
330
17
100
AcDbEntity
  8
R-OPISY
370
13
 48
0.001
100
AcDbPolyline
 90
2
 70
0
 10
0.15
 20
-0.326
 10
0.15
 20
-0.0625
  0
LWPOLYLINE
  5
170
330
17
100
AcDbEntity
  8
R-OPISY
370
13
 48
0.001
100
AcDbPolyline
 90
2
 70
0
 10
0.16
 20
-0.326
 10
0.16
 20
-0.0625
  0
LWPOLYLINE
  5
171
330
17
100
AcDbEntity
  8
R-OPISY
370
13
 48
0.001
100
AcDbPolyline
 90
2
 70
0
 10
0.17
 20
-0.326
 10
0.17
 20
-0.0625
  0
LWPOLYLINE
  5
172
330
17
100
AcDbEntity
  8
R-OPISY
370
35
 48
0.001
100
AcDbPolyline
 90
4
 70
1
 10
0.0
 20
-0.326
 10
0.18
 20
-0.326
 10
0.18
 20
-0.0625
 10
0.0
 20
-0.0625
  0
LWPOLYLINE
  5
173
330
17
100
AcDbEntity
  8
R-OPISY
370
35
 48
0.001
100
AcDbPolyline
 90
2
 70
0
 10
0.0202
 20
-0.07175000000000001
 10
0.0272
 20
-0.07175000000000001
  0
LWPOLYLINE
  5
174
330
17
100
AcDbEntity
  8
R-OPISY
370
35
 48
0.001
100
AcDbPolyline
 90
2
 70
0
 10
0.0202
 20
-0.07625
 10
0.0272
 20
-0.07625
  0
LWPOLYLINE
  5
175
330
17
100
AcDbEntity
  8
R-OPISY
370
35
 48
0.001
100
AcDbPolyline
 90
2
 70
0
 10
0.0202
 20
-0.08075
 10
0.0272
 20
-0.08075
  0
LWPOLYLINE
  5
176
330
17
100
AcDbEntity
  8
R-OPISY
370
35
 48
0.001
100
AcDbPolyline
 90
2
 70
0
 10
0.0202
 20
-0.08525
 10
0.0272
 20
-0.08525
  0
LWPOLYLINE
  5
177
330
17
100
AcDbEntity
  8
R-OPISY
370
35
 48
0.001
100
AcDbPolyline
 90
2
 70
0
 10
0.0202
 20
-0.08975
 10
0.0272
 20
-0.08975
  0
LWPOLYLINE
  5
178
330
17
100
AcDbEntity
  8
R-OPISY
370
35
 48
0.001
100
AcDbPolyline
 90
2
 70
0
 10
0.0202
 20
-0.09425
 10
0.0272
 20
-0.09425
  0
LWPOLYLINE
  5
179
330
17
100
AcDbEntity
  8
R-OPISY
370
35
 48
0.001
100
AcDbPolyline
 90
2
 70
0
 10
0.0202
 20
-0.09875
 10
0.0272
 20
-0.09875
  0
LWPOLYLINE
  5
17A
330
17
100
AcDbEntity
  8
R-OPISY
370
35
 48
0.001
100
AcDbPolyline
 90
2
 70
0
 10
0.0202
 20
-0.10325000000000001
 10
0.0272
 20
-0.10325000000000001
  0
LWPOLYLINE
  5
17B
330
17
100
AcDbEntity
  8
R-OPISY
370
35
 48
0.001
100
AcDbPolyline
 90
2
 70
0
 10
0.0202
 20
-0.10775
 10
0.0272
 20
-0.10775
  0
LWPOLYLINE
  5
17C
330
17
100
AcDbEntity
  8
R-OPISY
370
35
 48
0.001
100
AcDbPolyline
 90
2
 70
0
 10
0.0202
 20
-0.11225
 10
0.0272
 20
-0.11225
  0
LWPOLYLINE
  5
17D
330
17
100
AcDbEntity
  8
R-OPISY
370
35
 48
0.001
100
AcDbPolyline
 90
2
 70
0
 10
0.0202
 20
-0.11675
 10
0.0272
 20
-0.11675
  0
LWPOLYLINE
  5
17E
330
17
100
AcDbEntity
  8
R-OPISY
370
35
 48
0.001
100
AcDbPolyline
 90
2
 70
0
 10
0.0202
 20
-0.12125
 10
0.0272
 20
-0.12125
  0
LWPOLYLINE
  5
17F
330
17
100
AcDbEntity
  8
R-OPISY
370
35
 48
0.001
100
AcDbPolyline
 90
2
 70
0
 10
0.0202
 20
-0.12575
 10
0.0272
 20
-0.12575
  0
LWPOLYLINE
  5
180
330
17
100
AcDbEntity
  8
R-OPISY
370
35
 48
0.001
100
AcDbPolyline
 90
2
 70
0
 10
0.0202
 20
-0.13025
 10
0.0272
 20
-0.13025
  0
LWPOLYLINE
  5
181
330
17
100
AcDbEntity
  8
R-OPISY
370
35
 48
0.001
100
AcDbPolyline
 90
2
 70
0
 10
0.0202
 20
-0.13475
 10
0.0272
 20
-0.13475
  0
LWPOLYLINE
  5
182
330
17
100
AcDbEntity
  8
R-OPISY
370
35
 48
0.001
100
AcDbPolyline
 90
2
 70
0
 10
0.0202
 20
-0.13925
 10
0.0272
 20
-0.13925
  0
LWPOLYLINE
  5
183
330
17
100
AcDbEntity
  8
R-OPISY
370
35
 48
0.001
100
AcDbPolyline
 90
2
 70
0
 10
0.0202
 20
-0.14375000000000002
 10
0.0272
 20
-0.14375000000000002
  0
LWPOLYLINE
  5
184
330
17
100
AcDbEntity
  8
R-OPISY
370
35
 48
0.001
100
AcDbPolyline
 90
2
 70
0
 10
0.0202
 20
-0.14825
 10
0.0272
 20
-0.14825
  0
LWPOLYLINE
  5
185
330
17
100
AcDbEntity
  8
R-OPISY
370
35
 48
0.001
100
AcDbPolyline
 90
2
 70
0
 10
0.0202
 20
-0.15275
 10
0.0272
 20
-0.15275
  0
LWPOLYLINE
  5
186
330
17
100
AcDbEntity
  8
R-OPISY
370
35
 48
0.001
100
AcDbPolyline
 90
2
 70
0
 10
0.0202
 20
-0.15725
 10
0.0272
 20
-0.15725
  0
LWPOLYLINE
  5
187
330
17
100
AcDbEntity
  8
R-OPISY
370
35
 48
0.001
100
AcDbPolyline
 90
2
 70
0
 10
0.0202
 20
-0.16175
 10
0.0272
 20
-0.16175
  0
LWPOLYLINE
  5
188
330
17
100
AcDbEntity
  8
R-OPISY
370
35
 48
0.001
100
AcDbPolyline
 90
2
 70
0
 10
0.0202
 20
-0.16625
 10
0.0272
 20
-0.16625
  0
LWPOLYLINE
  5
189
330
17
100
AcDbEntity
  8
R-OPISY
370
35
 48
0.001
100
AcDbPolyline
 90
2
 70
0
 10
0.0202
 20
-0.17075
 10
0.0272
 20
-0.17075
  0
LWPOLYLINE
  5
18A
330
17
100
AcDbEntity
  8
R-OPISY
370
35
 48
0.001
100
AcDbPolyline
 90
2
 70
0
 10
0.0202
 20
-0.17525000000000002
 10
0.0272
 20
-0.17525000000000002
  0
LWPOLYLINE
  5
18B
330
17
100
AcDbEntity
  8
R-OPISY
370
35
 48
0.001
100
AcDbPolyline
 90
2
 70
0
 10
0.0202
 20
-0.17975
 10
0.0272
 20
-0.17975
  0
LWPOLYLINE
  5
18C
330
17
100
AcDbEntity
  8
R-OPISY
370
35
 48
0.001
100
AcDbPolyline
 90
2
 70
0
 10
0.0202
 20
-0.18425
 10
0.0272
 20
-0.18425
  0
LWPOLYLINE
  5
18D
330
17
100
AcDbEntity
  8
R-OPISY
370
35
 48
0.001
100
AcDbPolyline
 90
2
 70
0
 10
0.0202
 20
-0.18875
 10
0.0272
 20
-0.18875
  0
LWPOLYLINE
  5
18E
330
17
100
AcDbEntity
  8
R-OPISY
370
35
 48
0.001
100
AcDbPolyline
 90
2
 70
0
 10
0.0202
 20
-0.19325
 10
0.0272
 20
-0.19325
  0
LWPOLYLINE
  5
18F
330
17
100
AcDbEntity
  8
R-OPISY
370
35
 48
0.001
100
AcDbPolyline
 90
2
 70
0
 10
0.0202
 20
-0.19775
 10
0.0272
 20
-0.19775
  0
LWPOLYLINE
  5
190
330
17
100
AcDbEntity
  8
R-OPISY
370
35
 48
0.001
100
AcDbPolyline
 90
2
 70
0
 10
0.0202
 20
-0.20225
 10
0.0272
 20
-0.20225
  0
LWPOLYLINE
  5
191
330
17
100
AcDbEntity
  8
R-OPISY
370
35
 48
0.001
100
AcDbPolyline
 90
4
 70
1
 10
0.021599999999999998
 20
-0.20761400000000002
 10
0.0258
 20
-0.20761400000000002
 10
0.0258
 20
-0.205886
 10
0.021599999999999998
 20
-0.205886
  0
LWPOLYLINE
  5
192
330
17
100
AcDbEntity
  8
R-OPISY
370
35
 48
0.001
100
AcDbPolyline
 90
2
 70
0
 10
0.021599999999999998
 20
-0.205886
 10
0.02258
 20
-0.206426
  0
LWPOLYLINE
  5
193
330
17
100
AcDbEntity
  8
R-OPISY
370
35
 48
0.001
100
AcDbPolyline
 90
2
 70
0
 10
0.0202
 20
-0.21125
 10
0.0272
 20
-0.21125
  0
LWPOLYLINE
  5
194
330
17
100
AcDbEntity
  8
R-OPISY
370
35
 48
0.001
100
AcDbPolyline
 90
2
 70
0
 10
0.0202
 20
-0.21575
 10
0.0272
 20
-0.21575
  0
LWPOLYLINE
  5
195
330
17
100
AcDbEntity
  8
R-OPISY
370
35
 48
0.001
100
AcDbPolyline
 90
2
 70
0
 10
0.0202
 20
-0.22025
 10
0.0272
 20
-0.22025
  0
LWPOLYLINE
  5
196
330
17
100
AcDbEntity
  8
R-OPISY
370
35
 48
0.001
100
AcDbPolyline
 90
2
 70
0
 10
0.0202
 20
-0.22475
 10
0.0272
 20
-0.22475
  0
LWPOLYLINE
  5
197
330
17
100
AcDbEntity
  8
R-OPISY
370
35
 48
0.001
100
AcDbPolyline
 90
2
 70
0
 10
0.0202
 20
-0.22925
 10
0.0272
 20
-0.22925
  0
LWPOLYLINE
  5
198
330
17
100
AcDbEntity
  8
R-OPISY
370
35
 48
0.001
100
AcDbPolyline
 90
2
 70
0
 10
0.0202
 20
-0.23375
 10
0.0272
 20
-0.23375
  0
LWPOLYLINE
  5
199
330
17
100
AcDbEntity
  8
R-OPISY
370
35
 48
0.001
100
AcDbPolyline
 90
4
 70
1
 10
0.021599999999999998
 20
-0.23911400000000002
 10
0.0258
 20
-0.23911400000000002
 10
0.0258
 20
-0.237386
 10
0.021599999999999998
 20
-0.237386
  0
LWPOLYLINE
  5
19A
330
17
100
AcDbEntity
  8
R-OPISY
370
35
 48
0.001
100
AcDbPolyline
 90
2
 70
0
 10
0.021599999999999998
 20
-0.237386
 10
0.02258
 20
-0.237926
  0
LWPOLYLINE
  5
19B
330
17
100
AcDbEntity
  8
R-OPISY
370
35
 48
0.001
100
AcDbPolyline
 90
2
 70
0
 10
0.0202
 20
-0.24275
 10
0.0272
 20
-0.24275
  0
LWPOLYLINE
  5
19C
330
17
100
AcDbEntity
  8
R-OPISY
370
35
 48
0.001
100
AcDbPolyline
 90
2
 70
0
 10
0.0202
 20
-0.24725
 10
0.0272
 20
-0.24725
  0
LWPOLYLINE
  5
19D
330
17
100
AcDbEntity
  8
R-OPISY
370
35
 48
0.001
100
AcDbPolyline
 90
2
 70
0
 10
0.0202
 20
-0.25175000000000003
 10
0.0272
 20
-0.25175000000000003
  0
LWPOLYLINE
  5
19E
330
17
100
AcDbEntity
  8
R-OPISY
370
35
 48
0.001
100
AcDbPolyline
 90
2
 70
0
 10
0.0202
 20
-0.25625
 10
0.0272
 20
-0.25625
  0
LWPOLYLINE
  5
19F
330
17
100
AcDbEntity
  8
R-OPISY
370
35
 48
0.001
100
AcDbPolyline
 90
2
 70
0
 10
0.0202
 20
-0.26075
 10
0.0272
 20
-0.26075
  0
LWPOLYLINE
  5
1A0
330
17
100
AcDbEntity
  8
R-OPISY
370
35
 48
0.001
100
AcDbPolyline
 90
2
 70
0
 10
0.0202
 20
-0.26525
 10
0.0272
 20
-0.26525
  0
LWPOLYLINE
  5
1A1
330
17
100
AcDbEntity
  8
R-OPISY
370
35
 48
0.001
100
AcDbPolyline
 90
4
 70
1
 10
0.021599999999999998
 20
-0.27061399999999997
 10
0.0258
 20
-0.27061399999999997
 10
0.0258
 20
-0.268886
 10
0.021599999999999998
 20
-0.268886
  0
LWPOLYLINE
  5
1A2
330
17
100
AcDbEntity
  8
R-OPISY
370
35
 48
0.001
100
AcDbPolyline
 90
2
 70
0
 10
0.021599999999999998
 20
-0.268886
 10
0.02258
 20
-0.269426
  0
LWPOLYLINE
  5
1A3
330
17
100
AcDbEntity
  8
R-OPISY
370
35
 48
0.001
100
AcDbPolyline
 90
2
 70
0
 10
0.0202
 20
-0.27425
 10
0.0272
 20
-0.27425
  0
LWPOLYLINE
  5
1A4
330
17
100
AcDbEntity
  8
R-OPISY
370
35
 48
0.001
100
AcDbPolyline
 90
3
 70
0
 10
0.0202
 20
-0.27794
 10
0.0272
 20
-0.27794
 10
0.0272
 20
-0.27956000000000003
  0
LWPOLYLINE
  5
1A5
330
17
100
AcDbEntity
  8
R-OPISY
370
35
 48
0.001
100
AcDbPolyline
 90
4
 70
0
 10
0.0202
 20
-0.28406000000000003
 10
0.0202
 20
-0.28244
 10
0.0272
 20
-0.28244
 10
0.0272
 20
-0.28406000000000003
  0
LWPOLYLINE
  5
1A6
330
17
100
AcDbEntity
  8
R-OPISY
370
35
 48
0.001
100
AcDbPolyline
 90
4
 70
0
 10
0.0202
 20
-0.28856
 10
0.0202
 20
-0.28694000000000003
 10
0.0272
 20
-0.28694000000000003
 10
0.0272
 20
-0.28856
  0
LWPOLYLINE
  5
1A7
330
17
100
AcDbEntity
  8
R-OPISY
370
35
 48
0.001
100
AcDbPolyline
 90
4
 70
0
 10
0.0202
 20
-0.29306
 10
0.0202
 20
-0.29144
 10
0.0272
 20
-0.29144
 10
0.0272
 20
-0.29306
  0
LWPOLYLINE
  5
1A8
330
17
100
AcDbEntity
  8
R-OPISY
370
35
 48
0.001
100
AcDbPolyline
 90
4
 70
0
 10
0.0202
 20
-0.29756
 10
0.0202
 20
-0.29594
 10
0.0272
 20
-0.29594
 10
0.0272
 20
-0.29756
  0
LWPOLYLINE
  5
1A9
330
17
100
AcDbEntity
  8
R-OPISY
370
35
 48
0.001
100
AcDbPolyline
 90
4
 70
0
 10
0.0202
 20
-0.30206
 10
0.0202
 20
-0.30044
 10
0.0272
 20
-0.30044
 10
0.0272
 20
-0.30206
  0
LWPOLYLINE
  5
1AA
330
17
100
AcDbEntity
  8
R-OPISY
370
35
 48
0.001
100
AcDbPolyline
 90
4
 70
0
 10
0.0202
 20
-0.30656
 10
0.0202
 20
-0.30494
 10
0.0272
 20
-0.30494
 10
0.0272
 20
-0.30656
  0
LWPOLYLINE
  5
1AB
330
17
100
AcDbEntity
  8
R-OPISY
370
25
 48
0.001
100
AcDbPolyline
 90
2
 70
0
 10
0.0
 20
-0.35950000000000004
 10
0.18
 20
-0.35950000000000004
  0
LWPOLYLINE
  5
1AC
330
17
100
AcDbEntity
  8
R-OPISY
370
13
 48
0.001
100
AcDbPolyline
 90
2
 70
0
 10
0.0
 20
-0.36400000000000005
 10
0.18
 20
-0.36400000000000005
  0
LWPOLYLINE
  5
1AD
330
17
100
AcDbEntity
  8
R-OPISY
370
13
 48
0.001
100
AcDbPolyline
 90
2
 70
0
 10
0.0
 20
-0.36850000000000005
 10
0.18
 20
-0.36850000000000005
  0
LWPOLYLINE
  5
1AE
330
17
100
AcDbEntity
  8
R-OPISY
370
13
 48
0.001
100
AcDbPolyline
 90
2
 70
0
 10
0.0
 20
-0.37300000000000005
 10
0.18
 20
-0.37300000000000005
  0
LWPOLYLINE
  5
1AF
330
17
100
AcDbEntity
  8
R-OPISY
370
13
 48
0.001
100
AcDbPolyline
 90
2
 70
0
 10
0.0
 20
-0.37750000000000006
 10
0.18
 20
-0.37750000000000006
  0
LWPOLYLINE
  5
1B0
330
17
100
AcDbEntity
  8
R-OPISY
370
13
 48
0.001
100
AcDbPolyline
 90
2
 70
0
 10
0.016
 20
-0.37750000000000006
 10
0.016
 20
-0.35500000000000004
  0
LWPOLYLINE
  5
1B1
330
17
100
AcDbEntity
  8
R-OPISY
370
13
 48
0.001
100
AcDbPolyline
 90
2
 70
0
 10
0.034
 20
-0.37750000000000006
 10
0.034
 20
-0.35500000000000004
  0
LWPOLYLINE
  5
1B2
330
17
100
AcDbEntity
  8
R-OPISY
370
13
 48
0.001
100
AcDbPolyline
 90
2
 70
0
 10
0.064
 20
-0.37750000000000006
 10
0.064
 20
-0.35500000000000004
  0
LWPOLYLINE
  5
1B3
330
17
100
AcDbEntity
  8
R-OPISY
370
13
 48
0.001
100
AcDbPolyline
 90
2
 70
0
 10
0.124
 20
-0.37750000000000006
 10
0.124
 20
-0.35500000000000004
  0
LWPOLYLINE
  5
1B4
330
17
100
AcDbEntity
  8
R-OPISY
370
35
 48
0.001
100
AcDbPolyline
 90
4
 70
1
 10
0.0
 20
-0.37750000000000006
 10
0.18
 20
-0.37750000000000006
 10
0.18
 20
-0.35500000000000004
 10
0.0
 20
-0.35500000000000004
  0
TEXT
  5
1B5
330
17
100
AcDbEntity
  8
A-WIDOK
100
AcDbText
 10
0.0
 20
-0.32880000000000004
 30
0.0
 40
0.0018000000000000002
  1
Beton C25/30, klasa ekspozycji XC2; otulina: wierzch 35 mm, spód i boki 50 mm (PN-EN 1992-1-1 tabl. 4.4N + 4.4.1.3(4), NA); stal B500SP.
  7
PL_ARIAL
 11
0.0
 21
-0.32880000000000004
 31
0.0
100
AcDbText
  0
TEXT
  5
1B6
330
17
100
AcDbEntity
  8
A-WIDOK
100
AcDbText
 10
0.0
 20
-0.3316
 30
0.0
 40
0.0018000000000000002
  1
Zakotwienia/zakłady (8.4, 8.7, dobre warunki, 50 % łączonych): Ø6: l_bd = 23 cm, l₀ = 32 cm; Ø8: l_bd = 30 cm, l₀ = 43 cm; Ø10: l_bd = 38 cm, l₀ = 53 cm;
  7
PL_ARIAL
 11
0.0
 21
-0.3316
 31
0.0
100
AcDbText
  0
TEXT
  5
1B7
330
17
100
AcDbEntity
  8
A-WIDOK
100
AcDbText
 10
0.0
 20
-0.33440000000000003
 30
0.0
 40
0.0018000000000000002
  1
Ø12: l_bd = 45 cm, l₀ = 64 cm; Ø14: l_bd = 53 cm, l₀ = 74 cm; Ø16: l_bd = 60 cm, l₀ = 85 cm; Ø20: l_bd = 75 cm, l₀ = 106 cm; Ø25: l_bd = 94 cm, l₀ = 133
  7
PL_ARIAL
 11
0.0
 21
-0.33440000000000003
 31
0.0
100
AcDbText
  0
TEXT
  5
1B8
330
17
100
AcDbEntity
  8
A-WIDOK
100
AcDbText
 10
0.0
 20
-0.33720000000000006
 30
0.0
 40
0.0018000000000000002
  1
cm.
  7
PL_ARIAL
 11
0.0
 21
-0.33720000000000006
 31
0.0
100
AcDbText
  0
TEXT
  5
1B9
330
17
100
AcDbEntity
  8
A-WIDOK
100
AcDbText
 10
0.0
 20
-0.3400000000000001
 30
0.0
 40
0.0018000000000000002
  1
Masa stali całego elementu (warstwy dolna + górna): 11841,2 kg.
  7
PL_ARIAL
 11
0.0
 21
-0.3400000000000001
 31
0.0
100
AcDbText
  0
TEXT
  5
1BA
330
17
100
AcDbEntity
  8
R-OPISY
100
AcDbText
 10
0.0
 20
-0.003
 30
0.0
 40
0.0025
  1
DOZBROJENIA PŁYTY DOLNE (MES; pręty między prętami siatki, zasięg obszaru + l_bd)
  7
PL_ARIAL_B
 11
0.0
 21
-0.003
 31
0.0
100
AcDbText
  0
TEXT
  5
1BB
330
17
100
AcDbEntity
  8
R-OPISY
100
AcDbText
 10
0.0035652055416761294
 20
-0.00915
 30
0.0
 40
0.0018000000000000002
  1
Obszar
  7
PL_ARIAL_B
 11
0.0035652055416761294
 21
-0.00915
 31
0.0
100
AcDbText
  0
TEXT
  5
1BC
330
17
100
AcDbEntity
  8
R-OPISY
100
AcDbText
 10
0.019668884851237793
 20
-0.00915
 30
0.0
 40
0.0018000000000000002
  1
Warstwa
  7
PL_ARIAL_B
 11
0.019668884851237793
 21
-0.00915
 31
0.0
100
AcDbText
  0
TEXT
  5
1BD
330
17
100
AcDbEntity
  8
R-OPISY
100
AcDbText
 10
0.04631083352259823
 20
-0.00915
 30
0.0
 40
0.0018000000000000002
  1
Poz.
  7
PL_ARIAL_B
 11
0.04631083352259823
 21
-0.00915
 31
0.0
100
AcDbText
  0
TEXT
  5
1BE
330
17
100
AcDbEntity
  8
R-OPISY
100
AcDbText
 10
0.09072766295707473
 20
-0.00915
 30
0.0
 40
0.0018000000000000002
  1
Pręty
  7
PL_ARIAL_B
 11
0.09072766295707473
 21
-0.00915
 31
0.0
100
AcDbText
  0
TEXT
  5
1BF
330
17
100
AcDbEntity
  8
R-OPISY
100
AcDbText
 10
0.13503797410856233
 20
-0.00915
 30
0.0
 40
0.0018000000000000002
  1
A_s,req / A_s,prov [mm²/m]
  7
PL_ARIAL_B
 11
0.13503797410856233
 21
-0.00915
 31
0.0
100
AcDbText
  0
TEXT
  5
1C0
330
17
100
AcDbEntity
  8
R-OPISY
100
AcDbText
 10
0.005673654326595503
 20
-0.01365
 30
0.0
 40
0.0018000000000000002
  1
D1x
  7
PL_ARIAL
 11
0.005673654326595503
 21
-0.01365
 31
0.0
100
AcDbText
  0
TEXT
  5
1C1
330
17
100
AcDbEntity
  8
R-OPISY
100
AcDbText
 10
0.017
 20
-0.01365
 30
0.0
 40
0.0018000000000000002
  1
dół x
  7
PL_ARIAL
 11
0.017
 21
-0.01365
 31
0.0
100
AcDbText
  0
TEXT
  5
1C2
330
17
100
AcDbEntity
  8
R-OPISY
100
AcDbText
 10
0.035
 20
-0.01365
 30
0.0
 40
0.0018000000000000002
  1
18
  7
PL_ARIAL
 11
0.035
 21
-0.01365
 31
0.0
100
AcDbText
  0
TEXT
  5
1C3
330
17
100
AcDbEntity
  8
R-OPISY
100
AcDbText
 10
0.065
 20
-0.01365
 30
0.0
 40
0.0018000000000000002
  1
18 Ø20 co 15
  7
PL_ARIAL
 11
0.065
 21
-0.01365
 31
0.0
100
AcDbText
  0
TEXT
  5
1C4
330
17
100
AcDbEntity
  8
R-OPISY
100
AcDbText
 10
0.125
 20
-0.01365
 30
0.0
 40
0.0018000000000000002
  1
2583 / 3121
  7
PL_ARIAL
 11
0.125
 21
-0.01365
 31
0.0
100
AcDbText
  0
TEXT
  5
1C5
330
17
100
AcDbEntity
  8
R-OPISY
100
AcDbText
 10
0.005673654326595503
 20
-0.018150000000000003
 30
0.0
 40
0.0018000000000000002
  1
D2x
  7
PL_ARIAL
 11
0.005673654326595503
 21
-0.018150000000000003
 31
0.0
100
AcDbText
  0
TEXT
  5
1C6
330
17
100
AcDbEntity
  8
R-OPISY
100
AcDbText
 10
0.017
 20
-0.018150000000000003
 30
0.0
 40
0.0018000000000000002
  1
dół x
  7
PL_ARIAL
 11
0.017
 21
-0.018150000000000003
 31
0.0
100
AcDbText
  0
TEXT
  5
1C7
330
17
100
AcDbEntity
  8
R-OPISY
100
AcDbText
 10
0.035
 20
-0.018150000000000003
 30
0.0
 40
0.0018000000000000002
  1
19
  7
PL_ARIAL
 11
0.035
 21
-0.018150000000000003
 31
0.0
100
AcDbText
  0
TEXT
  5
1C8
330
17
100
AcDbEntity
  8
R-OPISY
100
AcDbText
 10
0.065
 20
-0.018150000000000003
 30
0.0
 40
0.0018000000000000002
  1
14 Ø8 co 15
  7
PL_ARIAL
 11
0.065
 21
-0.018150000000000003
 31
0.0
100
AcDbText
  0
TEXT
  5
1C9
330
17
100
AcDbEntity
  8
R-OPISY
100
AcDbText
 10
0.125
 20
-0.018150000000000003
 30
0.0
 40
0.0018000000000000002
  1
1263 / 1361
  7
PL_ARIAL
 11
0.125
 21
-0.018150000000000003
 31
0.0
100
AcDbText
  0
TEXT
  5
1CA
330
17
100
AcDbEntity
  8
R-OPISY
100
AcDbText
 10
0.005673654326595503
 20
-0.022650000000000003
 30
0.0
 40
0.0018000000000000002
  1
D3x
  7
PL_ARIAL
 11
0.005673654326595503
 21
-0.022650000000000003
 31
0.0
100
AcDbText
  0
TEXT
  5
1CB
330
17
100
AcDbEntity
  8
R-OPISY
100
AcDbText
 10
0.017
 20
-0.022650000000000003
 30
0.0
 40
0.0018000000000000002
  1
dół x
  7
PL_ARIAL
 11
0.017
 21
-0.022650000000000003
 31
0.0
100
AcDbText
  0
TEXT
  5
1CC
330
17
100
AcDbEntity
  8
R-OPISY
100
AcDbText
 10
0.035
 20
-0.022650000000000003
 30
0.0
 40
0.0018000000000000002
  1
20
  7
PL_ARIAL
 11
0.035
 21
-0.022650000000000003
 31
0.0
100
AcDbText
  0
TEXT
  5
1CD
330
17
100
AcDbEntity
  8
R-OPISY
100
AcDbText
 10
0.065
 20
-0.022650000000000003
 30
0.0
 40
0.0018000000000000002
  1
11 Ø8 co 15
  7
PL_ARIAL
 11
0.065
 21
-0.022650000000000003
 31
0.0
100
AcDbText
  0
TEXT
  5
1CE
330
17
100
AcDbEntity
  8
R-OPISY
100
AcDbText
 10
0.125
 20
-0.022650000000000003
 30
0.0
 40
0.0018000000000000002
  1
1272 / 1361
  7
PL_ARIAL
 11
0.125
 21
-0.022650000000000003
 31
0.0
100
AcDbText
  0
TEXT
  5
1CF
330
17
100
AcDbEntity
  8
R-OPISY
100
AcDbText
 10
0.005673654326595503
 20
-0.02715
 30
0.0
 40
0.0018000000000000002
  1
D4x
  7
PL_ARIAL
 11
0.005673654326595503
 21
-0.02715
 31
0.0
100
AcDbText
  0
TEXT
  5
1D0
330
17
100
AcDbEntity
  8
R-OPISY
100
AcDbText
 10
0.017
 20
-0.02715
 30
0.0
 40
0.0018000000000000002
  1
dół x
  7
PL_ARIAL
 11
0.017
 21
-0.02715
 31
0.0
100
AcDbText
  0
TEXT
  5
1D1
330
17
100
AcDbEntity
  8
R-OPISY
100
AcDbText
 10
0.065
 20
-0.02715
 30
0.0
 40
0.0018000000000000002
  1
0 Ø8 co 15
  7
PL_ARIAL
 11
0.065
 21
-0.02715
 31
0.0
100
AcDbText
  0
TEXT
  5
1D2
330
17
100
AcDbEntity
  8
R-OPISY
100
AcDbText
 10
0.125
 20
-0.02715
 30
0.0
 40
0.0018000000000000002
  1
1086 / 1361
  7
PL_ARIAL
 11
0.125
 21
-0.02715
 31
0.0
100
AcDbText
  0
TEXT
  5
1D3
330
17
100
AcDbEntity
  8
R-OPISY
100
AcDbText
 10
0.005673654326595503
 20
-0.03165
 30
0.0
 40
0.0018000000000000002
  1
D1y
  7
PL_ARIAL
 11
0.005673654326595503
 21
-0.03165
 31
0.0
100
AcDbText
  0
TEXT
  5
1D4
330
17
100
AcDbEntity
  8
R-OPISY
100
AcDbText
 10
0.017
 20
-0.03165
 30
0.0
 40
0.0018000000000000002
  1
dół y
  7
PL_ARIAL
 11
0.017
 21
-0.03165
 31
0.0
100
AcDbText
  0
TEXT
  5
1D5
330
17
100
AcDbEntity
  8
R-OPISY
100
AcDbText
 10
0.035
 20
-0.03165
 30
0.0
 40
0.0018000000000000002
  1
21
  7
PL_ARIAL
 11
0.035
 21
-0.03165
 31
0.0
100
AcDbText
  0
TEXT
  5
1D6
330
17
100
AcDbEntity
  8
R-OPISY
100
AcDbText
 10
0.065
 20
-0.03165
 30
0.0
 40
0.0018000000000000002
  1
62 Ø25 co 15
  7
PL_ARIAL
 11
0.065
 21
-0.03165
 31
0.0
100
AcDbText
  0
TEXT
  5
1D7
330
17
100
AcDbEntity
  8
R-OPISY
100
AcDbText
 10
0.125
 20
-0.03165
 30
0.0
 40
0.0018000000000000002
  1
5243 / 4299
  7
PL_ARIAL
 11
0.125
 21
-0.03165
 31
0.0
100
AcDbText
  0
TEXT
  5
1D8
330
17
100
AcDbEntity
  8
R-OPISY
100
AcDbText
 10
0.005673654326595503
 20
-0.03615
 30
0.0
 40
0.0018000000000000002
  1
D2y
  7
PL_ARIAL
 11
0.005673654326595503
 21
-0.03615
 31
0.0
100
AcDbText
  0
TEXT
  5
1D9
330
17
100
AcDbEntity
  8
R-OPISY
100
AcDbText
 10
0.017
 20
-0.03615
 30
0.0
 40
0.0018000000000000002
  1
dół y
  7
PL_ARIAL
 11
0.017
 21
-0.03615
 31
0.0
100
AcDbText
  0
TEXT
  5
1DA
330
17
100
AcDbEntity
  8
R-OPISY
100
AcDbText
 10
0.035
 20
-0.03615
 30
0.0
 40
0.0018000000000000002
  1
22
  7
PL_ARIAL
 11
0.035
 21
-0.03615
 31
0.0
100
AcDbText
  0
TEXT
  5
1DB
330
17
100
AcDbEntity
  8
R-OPISY
100
AcDbText
 10
0.065
 20
-0.03615
 30
0.0
 40
0.0018000000000000002
  1
12 Ø10 co 15
  7
PL_ARIAL
 11
0.065
 21
-0.03615
 31
0.0
100
AcDbText
  0
TEXT
  5
1DC
330
17
100
AcDbEntity
  8
R-OPISY
100
AcDbText
 10
0.125
 20
-0.03615
 30
0.0
 40
0.0018000000000000002
  1
1474 / 1550
  7
PL_ARIAL
 11
0.125
 21
-0.03615
 31
0.0
100
AcDbText
  0
TEXT
  5
1DD
330
17
100
AcDbEntity
  8
R-OPISY
100
AcDbText
 10
0.005673654326595503
 20
-0.04065
 30
0.0
 40
0.0018000000000000002
  1
D3y
  7
PL_ARIAL
 11
0.005673654326595503
 21
-0.04065
 31
0.0
100
AcDbText
  0
TEXT
  5
1DE
330
17
100
AcDbEntity
  8
R-OPISY
100
AcDbText
 10
0.017
 20
-0.04065
 30
0.0
 40
0.0018000000000000002
  1
dół y
  7
PL_ARIAL
 11
0.017
 21
-0.04065
 31
0.0
100
AcDbText
  0
TEXT
  5
1DF
330
17
100
AcDbEntity
  8
R-OPISY
100
AcDbText
 10
0.035
 20
-0.04065
 30
0.0
 40
0.0018000000000000002
  1
23
  7
PL_ARIAL
 11
0.035
 21
-0.04065
 31
0.0
100
AcDbText
  0
TEXT
  5
1E0
330
17
100
AcDbEntity
  8
R-OPISY
100
AcDbText
 10
0.065
 20
-0.04065
 30
0.0
 40
0.0018000000000000002
  1
10 Ø20 co 15
  7
PL_ARIAL
 11
0.065
 21
-0.04065
 31
0.0
100
AcDbText
  0
TEXT
  5
1E1
330
17
100
AcDbEntity
  8
R-OPISY
100
AcDbText
 10
0.125
 20
-0.04065
 30
0.0
 40
0.0018000000000000002
  1
2556 / 3121
  7
PL_ARIAL
 11
0.125
 21
-0.04065
 31
0.0
100
AcDbText
  0
TEXT
  5
1E2
330
17
100
AcDbEntity
  8
R-OPISY
100
AcDbText
 10
0.005673654326595503
 20
-0.045149999999999996
 30
0.0
 40
0.0018000000000000002
  1
D4y
  7
PL_ARIAL
 11
0.005673654326595503
 21
-0.045149999999999996
 31
0.0
100
AcDbText
  0
TEXT
  5
1E3
330
17
100
AcDbEntity
  8
R-OPISY
100
AcDbText
 10
0.017
 20
-0.045149999999999996
 30
0.0
 40
0.0018000000000000002
  1
dół y
  7
PL_ARIAL
 11
0.017
 21
-0.045149999999999996
 31
0.0
100
AcDbText
  0
TEXT
  5
1E4
330
17
100
AcDbEntity
  8
R-OPISY
100
AcDbText
 10
0.035
 20
-0.045149999999999996
 30
0.0
 40
0.0018000000000000002
  1
24
  7
PL_ARIAL
 11
0.035
 21
-0.045149999999999996
 31
0.0
100
AcDbText
  0
TEXT
  5
1E5
330
17
100
AcDbEntity
  8
R-OPISY
100
AcDbText
 10
0.065
 20
-0.045149999999999996
 30
0.0
 40
0.0018000000000000002
  1
15 Ø10 co 15
  7
PL_ARIAL
 11
0.065
 21
-0.045149999999999996
 31
0.0
100
AcDbText
  0
TEXT
  5
1E6
330
17
100
AcDbEntity
  8
R-OPISY
100
AcDbText
 10
0.125
 20
-0.045149999999999996
 30
0.0
 40
0.0018000000000000002
  1
1456 / 1550
  7
PL_ARIAL
 11
0.125
 21
-0.045149999999999996
 31
0.0
100
AcDbText
  0
TEXT
  5
1E7
330
17
100
AcDbEntity
  8
R-OPISY
100
AcDbText
 10
0.0
 20
-0.0605
 30
0.0
 40
0.0035
  1
ZESTAWIENIE STALI — FUNDAMENT (płyta, żebra, pogrubienia)
  7
PL_ARIAL_B
 11
0.0
 21
-0.0605
 31
0.0
100
AcDbText
  0
TEXT
  5
1E8
330
17
100
AcDbEntity
  8
R-OPISY
100
AcDbText
 10
0.0023108335225982286
 20
-0.0669
 30
0.0
 40
0.0018000000000000002
  1
Poz.
  7
PL_ARIAL_B
 11
0.0023108335225982286
 21
-0.0669
 31
0.0
100
AcDbText
  0
TEXT
  5
1E9
330
17
100
AcDbEntity
  8
R-OPISY
100
AcDbText
 10
0.01348246650011356
 20
-0.0656
 30
0.0
 40
0.0018000000000000002
  1
Ø
  7
PL_ARIAL_B
 11
0.01348246650011356
 21
-0.0656
 31
0.0
100
AcDbText
  0
TEXT
  5
1EA
330
17
100
AcDbEntity
  8
R-OPISY
100
AcDbText
 10
0.011302271178741767
 20
-0.0682
 30
0.0
 40
0.0018000000000000002
  1
[mm]
  7
PL_ARIAL_B
 11
0.011302271178741767
 21
-0.0682
 31
0.0
100
AcDbText
  0
TEXT
  5
1EB
330
17
100
AcDbEntity
  8
R-OPISY
100
AcDbText
 10
0.029957756075403137
 20
-0.0656
 30
0.0
 40
0.0018000000000000002
  1
Kształt ISO 3766,
  7
PL_ARIAL_B
 11
0.029957756075403137
 21
-0.0656
 31
0.0
100
AcDbText
  0
TEXT
  5
1EC
330
17
100
AcDbEntity
  8
R-OPISY
100
AcDbText
 10
0.03213876902112196
 20
-0.0682
 30
0.0
 40
0.0018000000000000002
  1
wymiary [cm]
  7
PL_ARIAL_B
 11
0.03213876902112196
 21
-0.0682
 31
0.0
100
AcDbText
  0
TEXT
  5
1ED
330
17
100
AcDbEntity
  8
R-OPISY
100
AcDbText
 10
0.0662303202362026
 20
-0.0656
 30
0.0
 40
0.0018000000000000002
  1
Dług.
  7
PL_ARIAL_B
 11
0.0662303202362026
 21
-0.0656
 31
0.0
100
AcDbText
  0
TEXT
  5
1EE
330
17
100
AcDbEntity
  8
R-OPISY
100
AcDbText
 10
0.06673806495571202
 20
-0.0682
 30
0.0
 40
0.0018000000000000002
  1
[cm]
  7
PL_ARIAL_B
 11
0.06673806495571202
 21
-0.0682
 31
0.0
100
AcDbText
  0
TEXT
  5
1EF
330
17
100
AcDbEntity
  8
R-OPISY
100
AcDbText
 10
0.07892945718828072
 20
-0.0656
 30
0.0
 40
0.0018000000000000002
  1
Liczba
  7
PL_ARIAL_B
 11
0.07892945718828072
 21
-0.0656
 31
0.0
100
AcDbText
  0
TEXT
  5
1F0
330
17
100
AcDbEntity
  8
R-OPISY
100
AcDbText
 10
0.07994821712468772
 20
-0.0682
 30
0.0
 40
0.0018000000000000002
  1
[szt.]
  7
PL_ARIAL_B
 11
0.07994821712468772
 21
-0.0682
 31
0.0
100
AcDbText
  0
TEXT
  5
1F1
330
17
100
AcDbEntity
  8
R-OPISY
100
AcDbText
 10
0.0910097660685896
 20
-0.0669
 30
0.0
 40
0.0018000000000000002
  1
Elem.
  7
PL_ARIAL_B
 11
0.0910097660685896
 21
-0.0669
 31
0.0
100
AcDbText
  0
TEXT
  5
1F2
330
17
100
AcDbEntity
  8
R-OPISY
100
AcDbText
 10
0.10325498523733817
 20
-0.0656
 30
0.0
 40
0.0018000000000000002
  1
Ø6
  7
PL_ARIAL_B
 11
0.10325498523733817
 21
-0.0656
 31
0.0
100
AcDbText
  0
TEXT
  5
1F3
330
17
100
AcDbEntity
  8
R-OPISY
100
AcDbText
 10
0.10296554621848739
 20
-0.0682
 30
0.0
 40
0.0018000000000000002
  1
[m]
  7
PL_ARIAL_B
 11
0.10296554621848739
 21
-0.0682
 31
0.0
100
AcDbText
  0
TEXT
  5
1F4
330
17
100
AcDbEntity
  8
R-OPISY
100
AcDbText
 10
0.11325498523733818
 20
-0.0656
 30
0.0
 40
0.0018000000000000002
  1
Ø8
  7
PL_ARIAL_B
 11
0.11325498523733818
 21
-0.0656
 31
0.0
100
AcDbText
  0
TEXT
  5
1F5
330
17
100
AcDbEntity
  8
R-OPISY
100
AcDbText
 10
0.1129655462184874
 20
-0.0682
 30
0.0
 40
0.0018000000000000002
  1
[m]
  7
PL_ARIAL_B
 11
0.1129655462184874
 21
-0.0682
 31
0.0
100
AcDbText
  0
TEXT
  5
1F6
330
17
100
AcDbEntity
  8
R-OPISY
100
AcDbText
 10
0.1225275039745628
 20
-0.0656
 30
0.0
 40
0.0018000000000000002
  1
Ø10
  7
PL_ARIAL_B
 11
0.1225275039745628
 21
-0.0656
 31
0.0
100
AcDbText
  0
TEXT
  5
1F7
330
17
100
AcDbEntity
  8
R-OPISY
100
AcDbText
 10
0.12296554621848739
 20
-0.0682
 30
0.0
 40
0.0018000000000000002
  1
[m]
  7
PL_ARIAL_B
 11
0.12296554621848739
 21
-0.0682
 31
0.0
100
AcDbText
  0
TEXT
  5
1F8
330
17
100
AcDbEntity
  8
R-OPISY
100
AcDbText
 10
0.1325275039745628
 20
-0.0656
 30
0.0
 40
0.0018000000000000002
  1
Ø12
  7
PL_ARIAL_B
 11
0.1325275039745628
 21
-0.0656
 31
0.0
100
AcDbText
  0
TEXT
  5
1F9
330
17
100
AcDbEntity
  8
R-OPISY
100
AcDbText
 10
0.1329655462184874
 20
-0.0682
 30
0.0
 40
0.0018000000000000002
  1
[m]
  7
PL_ARIAL_B
 11
0.1329655462184874
 21
-0.0682
 31
0.0
100
AcDbText
  0
TEXT
  5
1FA
330
17
100
AcDbEntity
  8
R-OPISY
100
AcDbText
 10
0.1425275039745628
 20
-0.0656
 30
0.0
 40
0.0018000000000000002
  1
Ø14
  7
PL_ARIAL_B
 11
0.1425275039745628
 21
-0.0656
 31
0.0
100
AcDbText
  0
TEXT
  5
1FB
330
17
100
AcDbEntity
  8
R-OPISY
100
AcDbText
 10
0.1429655462184874
 20
-0.0682
 30
0.0
 40
0.0018000000000000002
  1
[m]
  7
PL_ARIAL_B
 11
0.1429655462184874
 21
-0.0682
 31
0.0
100
AcDbText
  0
TEXT
  5
1FC
330
17
100
AcDbEntity
  8
R-OPISY
100
AcDbText
 10
0.1525275039745628
 20
-0.0656
 30
0.0
 40
0.0018000000000000002
  1
Ø16
  7
PL_ARIAL_B
 11
0.1525275039745628
 21
-0.0656
 31
0.0
100
AcDbText
  0
TEXT
  5
1FD
330
17
100
AcDbEntity
  8
R-OPISY
100
AcDbText
 10
0.1529655462184874
 20
-0.0682
 30
0.0
 40
0.0018000000000000002
  1
[m]
  7
PL_ARIAL_B
 11
0.1529655462184874
 21
-0.0682
 31
0.0
100
AcDbText
  0
TEXT
  5
1FE
330
17
100
AcDbEntity
  8
R-OPISY
100
AcDbText
 10
0.1625275039745628
 20
-0.0656
 30
0.0
 40
0.0018000000000000002
  1
Ø20
  7
PL_ARIAL_B
 11
0.1625275039745628
 21
-0.0656
 31
0.0
100
AcDbText
  0
TEXT
  5
1FF
330
17
100
AcDbEntity
  8
R-OPISY
100
AcDbText
 10
0.1629655462184874
 20
-0.0682
 30
0.0
 40
0.0018000000000000002
  1
[m]
  7
PL_ARIAL_B
 11
0.1629655462184874
 21
-0.0682
 31
0.0
100
AcDbText
  0
TEXT
  5
200
330
17
100
AcDbEntity
  8
R-OPISY
100
AcDbText
 10
0.17252750397456282
 20
-0.0656
 30
0.0
 40
0.0018000000000000002
  1
Ø25
  7
PL_ARIAL_B
 11
0.17252750397456282
 21
-0.0656
 31
0.0
100
AcDbText
  0
TEXT
  5
201
330
17
100
AcDbEntity
  8
R-OPISY
100
AcDbText
 10
0.17296554621848742
 20
-0.0682
 30
0.0
 40
0.0018000000000000002
  1
[m]
  7
PL_ARIAL_B
 11
0.17296554621848742
 21
-0.0682
 31
0.0
100
AcDbText
  0
TEXT
  5
202
330
17
100
AcDbEntity
  8
R-OPISY
100
AcDbText
 10
0.004272518737224619
 20
-0.07265
 30
0.0
 40
0.0018000000000000002
  1
1
  7
PL_ARIAL
 11
0.004272518737224619
 21
-0.07265
 31
0.0
100
AcDbText
  0
TEXT
  5
203
330
17
100
AcDbEntity
  8
R-OPISY
100
AcDbText
 10
0.01304503747444924
 20
-0.07265
 30
0.0
 40
0.0018000000000000002
  1
14
  7
PL_ARIAL
 11
0.01304503747444924
 21
-0.07265
 31
0.0
100
AcDbText
  0
TEXT
  5
204
330
17
100
AcDbEntity
  8
R-OPISY
100
AcDbText
 10
0.07163511242334772
 20
-0.07265
 30
0.0
 40
0.0018000000000000002
  1
962
  7
PL_ARIAL
 11
0.07163511242334772
 21
-0.07265
 31
0.0
100
AcDbText
  0
TEXT
  5
205
330
17
100
AcDbEntity
  8
R-OPISY
100
AcDbText
 10
0.08363511242334772
 20
-0.07265
 30
0.0
 40
0.0018000000000000002
  1
120
  7
PL_ARIAL
 11
0.08363511242334772
 21
-0.07265
 31
0.0
100
AcDbText
  0
TEXT
  5
206
330
17
100
AcDbEntity
  8
R-OPISY
100
AcDbText
 10
0.08966518282988871
 20
-0.07265
 30
0.0
 40
0.0018000000000000002
  1
PF1+PF
  7
PL_ARIAL
 11
0.08966518282988871
 21
-0.07265
 31
0.0
100
AcDbText
  0
TEXT
  5
207
330
17
100
AcDbEntity
  8
R-OPISY
100
AcDbText
 10
0.13973754258460142
 20
-0.07265
 30
0.0
 40
0.0018000000000000002
  1
1154,40
  7
PL_ARIAL
 11
0.13973754258460142
 21
-0.07265
 31
0.0
100
AcDbText
  0
TEXT
  5
208
330
17
100
AcDbEntity
  8
R-OPISY
100
AcDbText
 10
0.004272518737224619
 20
-0.07715
 30
0.0
 40
0.0018000000000000002
  1
2
  7
PL_ARIAL
 11
0.004272518737224619
 21
-0.07715
 31
0.0
100
AcDbText
  0
TEXT
  5
209
330
17
100
AcDbEntity
  8
R-OPISY
100
AcDbText
 10
0.01304503747444924
 20
-0.07715
 30
0.0
 40
0.0018000000000000002
  1
14
  7
PL_ARIAL
 11
0.01304503747444924
 21
-0.07715
 31
0.0
100
AcDbText
  0
TEXT
  5
20A
330
17
100
AcDbEntity
  8
R-OPISY
100
AcDbText
 10
0.07163511242334772
 20
-0.07715
 30
0.0
 40
0.0018000000000000002
  1
652
  7
PL_ARIAL
 11
0.07163511242334772
 21
-0.07715
 31
0.0
100
AcDbText
  0
TEXT
  5
20B
330
17
100
AcDbEntity
  8
R-OPISY
100
AcDbText
 10
0.08509007494889848
 20
-0.07715
 30
0.0
 40
0.0018000000000000002
  1
78
  7
PL_ARIAL
 11
0.08509007494889848
 21
-0.07715
 31
0.0
100
AcDbText
  0
TEXT
  5
20C
330
17
100
AcDbEntity
  8
R-OPISY
100
AcDbText
 10
0.08966518282988871
 20
-0.07715
 30
0.0
 40
0.0018000000000000002
  1
PF1+PF
  7
PL_ARIAL
 11
0.08966518282988871
 21
-0.07715
 31
0.0
100
AcDbText
  0
TEXT
  5
20D
330
17
100
AcDbEntity
  8
R-OPISY
100
AcDbText
 10
0.14099831932773108
 20
-0.07715
 30
0.0
 40
0.0018000000000000002
  1
508,56
  7
PL_ARIAL
 11
0.14099831932773108
 21
-0.07715
 31
0.0
100
AcDbText
  0
TEXT
  5
20E
330
17
100
AcDbEntity
  8
R-OPISY
100
AcDbText
 10
0.004272518737224619
 20
-0.08165
 30
0.0
 40
0.0018000000000000002
  1
3
  7
PL_ARIAL
 11
0.004272518737224619
 21
-0.08165
 31
0.0
100
AcDbText
  0
TEXT
  5
20F
330
17
100
AcDbEntity
  8
R-OPISY
100
AcDbText
 10
0.01304503747444924
 20
-0.08165
 30
0.0
 40
0.0018000000000000002
  1
14
  7
PL_ARIAL
 11
0.01304503747444924
 21
-0.08165
 31
0.0
100
AcDbText
  0
TEXT
  5
210
330
17
100
AcDbEntity
  8
R-OPISY
100
AcDbText
 10
0.07309007494889848
 20
-0.08165
 30
0.0
 40
0.0018000000000000002
  1
30
  7
PL_ARIAL
 11
0.07309007494889848
 21
-0.08165
 31
0.0
100
AcDbText
  0
TEXT
  5
211
330
17
100
AcDbEntity
  8
R-OPISY
100
AcDbText
 10
0.08654503747444924
 20
-0.08165
 30
0.0
 40
0.0018000000000000002
  1
2
  7
PL_ARIAL
 11
0.08654503747444924
 21
-0.08165
 31
0.0
100
AcDbText
  0
TEXT
  5
212
330
17
100
AcDbEntity
  8
R-OPISY
100
AcDbText
 10
0.08966518282988871
 20
-0.08165
 30
0.0
 40
0.0018000000000000002
  1
PF1+PF
  7
PL_ARIAL
 11
0.08966518282988871
 21
-0.08165
 31
0.0
100
AcDbText
  0
TEXT
  5
213
330
17
100
AcDbEntity
  8
R-OPISY
100
AcDbText
 10
0.1439082443788326
 20
-0.08165
 30
0.0
 40
0.0018000000000000002
  1
0,60
  7
PL_ARIAL
 11
0.1439082443788326
 21
-0.08165
 31
0.0
100
AcDbText
  0
TEXT
  5
214
330
17
100
AcDbEntity
  8
R-OPISY
100
AcDbText
 10
0.004272518737224619
 20
-0.08615
 30
0.0
 40
0.0018000000000000002
  1
4
  7
PL_ARIAL
 11
0.004272518737224619
 21
-0.08615
 31
0.0
100
AcDbText
  0
TEXT
  5
215
330
17
100
AcDbEntity
  8
R-OPISY
100
AcDbText
 10
0.01304503747444924
 20
-0.08615
 30
0.0
 40
0.0018000000000000002
  1
14
  7
PL_ARIAL
 11
0.01304503747444924
 21
-0.08615
 31
0.0
100
AcDbText
  0
TEXT
  5
216
330
17
100
AcDbEntity
  8
R-OPISY
100
AcDbText
 10
0.07163511242334772
 20
-0.08615
 30
0.0
 40
0.0018000000000000002
  1
885
  7
PL_ARIAL
 11
0.07163511242334772
 21
-0.08615
 31
0.0
100
AcDbText
  0
TEXT
  5
217
330
17
100
AcDbEntity
  8
R-OPISY
100
AcDbText
 10
0.08363511242334772
 20
-0.08615
 30
0.0
 40
0.0018000000000000002
  1
241
  7
PL_ARIAL
 11
0.08363511242334772
 21
-0.08615
 31
0.0
100
AcDbText
  0
TEXT
  5
218
330
17
100
AcDbEntity
  8
R-OPISY
100
AcDbText
 10
0.08966518282988871
 20
-0.08615
 30
0.0
 40
0.0018000000000000002
  1
PF1+PF
  7
PL_ARIAL
 11
0.08966518282988871
 21
-0.08615
 31
0.0
100
AcDbText
  0
TEXT
  5
219
330
17
100
AcDbEntity
  8
R-OPISY
100
AcDbText
 10
0.13954335680218033
 20
-0.08615
 30
0.0
 40
0.0018000000000000002
  1
2132,85
  7
PL_ARIAL
 11
0.13954335680218033
 21
-0.08615
 31
0.0
100
AcDbText
  0
TEXT
  5
21A
330
17
100
AcDbEntity
  8
R-OPISY
100
AcDbText
 10
0.004272518737224619
 20
-0.09065
 30
0.0
 40
0.0018000000000000002
  1
5
  7
PL_ARIAL
 11
0.004272518737224619
 21
-0.09065
 31
0.0
100
AcDbText
  0
TEXT
  5
21B
330
17
100
AcDbEntity
  8
R-OPISY
100
AcDbText
 10
0.01304503747444924
 20
-0.09065
 30
0.0
 40
0.0018000000000000002
  1
14
  7
PL_ARIAL
 11
0.01304503747444924
 21
-0.09065
 31
0.0
100
AcDbText
  0
TEXT
  5
21C
330
17
100
AcDbEntity
  8
R-OPISY
100
AcDbText
 10
0.07163511242334772
 20
-0.09065
 30
0.0
 40
0.0018000000000000002
  1
915
  7
PL_ARIAL
 11
0.07163511242334772
 21
-0.09065
 31
0.0
100
AcDbText
  0
TEXT
  5
21D
330
17
100
AcDbEntity
  8
R-OPISY
100
AcDbText
 10
0.08654503747444924
 20
-0.09065
 30
0.0
 40
0.0018000000000000002
  1
2
  7
PL_ARIAL
 11
0.08654503747444924
 21
-0.09065
 31
0.0
100
AcDbText
  0
TEXT
  5
21E
330
17
100
AcDbEntity
  8
R-OPISY
100
AcDbText
 10
0.08966518282988871
 20
-0.09065
 30
0.0
 40
0.0018000000000000002
  1
PF1+PF
  7
PL_ARIAL
 11
0.08966518282988871
 21
-0.09065
 31
0.0
100
AcDbText
  0
TEXT
  5
21F
330
17
100
AcDbEntity
  8
R-OPISY
100
AcDbText
 10
0.14245328185328185
 20
-0.09065
 30
0.0
 40
0.0018000000000000002
  1
18,30
  7
PL_ARIAL
 11
0.14245328185328185
 21
-0.09065
 31
0.0
100
AcDbText
  0
TEXT
  5
220
330
17
100
AcDbEntity
  8
R-OPISY
100
AcDbText
 10
0.004272518737224619
 20
-0.09515
 30
0.0
 40
0.0018000000000000002
  1
6
  7
PL_ARIAL
 11
0.004272518737224619
 21
-0.09515
 31
0.0
100
AcDbText
  0
TEXT
  5
221
330
17
100
AcDbEntity
  8
R-OPISY
100
AcDbText
 10
0.01304503747444924
 20
-0.09515
 30
0.0
 40
0.0018000000000000002
  1
14
  7
PL_ARIAL
 11
0.01304503747444924
 21
-0.09515
 31
0.0
100
AcDbText
  0
TEXT
  5
222
330
17
100
AcDbEntity
  8
R-OPISY
100
AcDbText
 10
0.07163511242334772
 20
-0.09515
 30
0.0
 40
0.0018000000000000002
  1
317
  7
PL_ARIAL
 11
0.07163511242334772
 21
-0.09515
 31
0.0
100
AcDbText
  0
TEXT
  5
223
330
17
100
AcDbEntity
  8
R-OPISY
100
AcDbText
 10
0.08509007494889848
 20
-0.09515
 30
0.0
 40
0.0018000000000000002
  1
41
  7
PL_ARIAL
 11
0.08509007494889848
 21
-0.09515
 31
0.0
100
AcDbText
  0
TEXT
  5
224
330
17
100
AcDbEntity
  8
R-OPISY
100
AcDbText
 10
0.08966518282988871
 20
-0.09515
 30
0.0
 40
0.0018000000000000002
  1
PF1+PF
  7
PL_ARIAL
 11
0.08966518282988871
 21
-0.09515
 31
0.0
100
AcDbText
  0
TEXT
  5
225
330
17
100
AcDbEntity
  8
R-OPISY
100
AcDbText
 10
0.14099831932773108
 20
-0.09515
 30
0.0
 40
0.0018000000000000002
  1
129,97
  7
PL_ARIAL
 11
0.14099831932773108
 21
-0.09515
 31
0.0
100
AcDbText
  0
TEXT
  5
226
330
17
100
AcDbEntity
  8
R-OPISY
100
AcDbText
 10
0.004272518737224619
 20
-0.09965
 30
0.0
 40
0.0018000000000000002
  1
7
  7
PL_ARIAL
 11
0.004272518737224619
 21
-0.09965
 31
0.0
100
AcDbText
  0
TEXT
  5
227
330
17
100
AcDbEntity
  8
R-OPISY
100
AcDbText
 10
0.01304503747444924
 20
-0.09965
 30
0.0
 40
0.0018000000000000002
  1
14
  7
PL_ARIAL
 11
0.01304503747444924
 21
-0.09965
 31
0.0
100
AcDbText
  0
TEXT
  5
228
330
17
100
AcDbEntity
  8
R-OPISY
100
AcDbText
 10
0.07163511242334772
 20
-0.09965
 30
0.0
 40
0.0018000000000000002
  1
668
  7
PL_ARIAL
 11
0.07163511242334772
 21
-0.09965
 31
0.0
100
AcDbText
  0
TEXT
  5
229
330
17
100
AcDbEntity
  8
R-OPISY
100
AcDbText
 10
0.08509007494889848
 20
-0.09965
 30
0.0
 40
0.0018000000000000002
  1
40
  7
PL_ARIAL
 11
0.08509007494889848
 21
-0.09965
 31
0.0
100
AcDbText
  0
TEXT
  5
22A
330
17
100
AcDbEntity
  8
R-OPISY
100
AcDbText
 10
0.08966518282988871
 20
-0.09965
 30
0.0
 40
0.0018000000000000002
  1
PF1+PF
  7
PL_ARIAL
 11
0.08966518282988871
 21
-0.09965
 31
0.0
100
AcDbText
  0
TEXT
  5
22B
330
17
100
AcDbEntity
  8
R-OPISY
100
AcDbText
 10
0.14099831932773108
 20
-0.09965
 30
0.0
 40
0.0018000000000000002
  1
267,20
  7
PL_ARIAL
 11
0.14099831932773108
 21
-0.09965
 31
0.0
100
AcDbText
  0
TEXT
  5
22C
330
17
100
AcDbEntity
  8
R-OPISY
100
AcDbText
 10
0.004272518737224619
 20
-0.10415
 30
0.0
 40
0.0018000000000000002
  1
8
  7
PL_ARIAL
 11
0.004272518737224619
 21
-0.10415
 31
0.0
100
AcDbText
  0
TEXT
  5
22D
330
17
100
AcDbEntity
  8
R-OPISY
100
AcDbText
 10
0.01304503747444924
 20
-0.10415
 30
0.0
 40
0.0018000000000000002
  1
14
  7
PL_ARIAL
 11
0.01304503747444924
 21
-0.10415
 31
0.0
100
AcDbText
  0
TEXT
  5
22E
330
17
100
AcDbEntity
  8
R-OPISY
100
AcDbText
 10
0.07163511242334772
 20
-0.10415
 30
0.0
 40
0.0018000000000000002
  1
678
  7
PL_ARIAL
 11
0.07163511242334772
 21
-0.10415
 31
0.0
100
AcDbText
  0
TEXT
  5
22F
330
17
100
AcDbEntity
  8
R-OPISY
100
AcDbText
 10
0.08654503747444924
 20
-0.10415
 30
0.0
 40
0.0018000000000000002
  1
2
  7
PL_ARIAL
 11
0.08654503747444924
 21
-0.10415
 31
0.0
100
AcDbText
  0
TEXT
  5
230
330
17
100
AcDbEntity
  8
R-OPISY
100
AcDbText
 10
0.08966518282988871
 20
-0.10415
 30
0.0
 40
0.0018000000000000002
  1
PF1+PF
  7
PL_ARIAL
 11
0.08966518282988871
 21
-0.10415
 31
0.0
100
AcDbText
  0
TEXT
  5
231
330
17
100
AcDbEntity
  8
R-OPISY
100
AcDbText
 10
0.14245328185328185
 20
-0.10415
 30
0.0
 40
0.0018000000000000002
  1
13,56
  7
PL_ARIAL
 11
0.14245328185328185
 21
-0.10415
 31
0.0
100
AcDbText
  0
TEXT
  5
232
330
17
100
AcDbEntity
  8
R-OPISY
100
AcDbText
 10
0.004272518737224619
 20
-0.10865
 30
0.0
 40
0.0018000000000000002
  1
9
  7
PL_ARIAL
 11
0.004272518737224619
 21
-0.10865
 31
0.0
100
AcDbText
  0
TEXT
  5
233
330
17
100
AcDbEntity
  8
R-OPISY
100
AcDbText
 10
0.01304503747444924
 20
-0.10865
 30
0.0
 40
0.0018000000000000002
  1
14
  7
PL_ARIAL
 11
0.01304503747444924
 21
-0.10865
 31
0.0
100
AcDbText
  0
TEXT
  5
234
330
17
100
AcDbEntity
  8
R-OPISY
100
AcDbText
 10
0.07163511242334772
 20
-0.10865
 30
0.0
 40
0.0018000000000000002
  1
648
  7
PL_ARIAL
 11
0.07163511242334772
 21
-0.10865
 31
0.0
100
AcDbText
  0
TEXT
  5
235
330
17
100
AcDbEntity
  8
R-OPISY
100
AcDbText
 10
0.08528426073131955
 20
-0.10865
 30
0.0
 40
0.0018000000000000002
  1
11
  7
PL_ARIAL
 11
0.08528426073131955
 21
-0.10865
 31
0.0
100
AcDbText
  0
TEXT
  5
236
330
17
100
AcDbEntity
  8
R-OPISY
100
AcDbText
 10
0.08966518282988871
 20
-0.10865
 30
0.0
 40
0.0018000000000000002
  1
PF1+PF
  7
PL_ARIAL
 11
0.08966518282988871
 21
-0.10865
 31
0.0
100
AcDbText
  0
TEXT
  5
237
330
17
100
AcDbEntity
  8
R-OPISY
100
AcDbText
 10
0.14245328185328185
 20
-0.10865
 30
0.0
 40
0.0018000000000000002
  1
71,28
  7
PL_ARIAL
 11
0.14245328185328185
 21
-0.10865
 31
0.0
100
AcDbText
  0
TEXT
  5
238
330
17
100
AcDbEntity
  8
R-OPISY
100
AcDbText
 10
0.003545037474449239
 20
-0.11315
 30
0.0
 40
0.0018000000000000002
  1
10
  7
PL_ARIAL
 11
0.003545037474449239
 21
-0.11315
 31
0.0
100
AcDbText
  0
TEXT
  5
239
330
17
100
AcDbEntity
  8
R-OPISY
100
AcDbText
 10
0.01304503747444924
 20
-0.11315
 30
0.0
 40
0.0018000000000000002
  1
14
  7
PL_ARIAL
 11
0.01304503747444924
 21
-0.11315
 31
0.0
100
AcDbText
  0
TEXT
  5
23A
330
17
100
AcDbEntity
  8
R-OPISY
100
AcDbText
 10
0.07163511242334772
 20
-0.11315
 30
0.0
 40
0.0018000000000000002
  1
618
  7
PL_ARIAL
 11
0.07163511242334772
 21
-0.11315
 31
0.0
100
AcDbText
  0
TEXT
  5
23B
330
17
100
AcDbEntity
  8
R-OPISY
100
AcDbText
 10
0.08654503747444924
 20
-0.11315
 30
0.0
 40
0.0018000000000000002
  1
2
  7
PL_ARIAL
 11
0.08654503747444924
 21
-0.11315
 31
0.0
100
AcDbText
  0
TEXT
  5
23C
330
17
100
AcDbEntity
  8
R-OPISY
100
AcDbText
 10
0.08966518282988871
 20
-0.11315
 30
0.0
 40
0.0018000000000000002
  1
PF1+PF
  7
PL_ARIAL
 11
0.08966518282988871
 21
-0.11315
 31
0.0
100
AcDbText
  0
TEXT
  5
23D
330
17
100
AcDbEntity
  8
R-OPISY
100
AcDbText
 10
0.14245328185328185
 20
-0.11315
 30
0.0
 40
0.0018000000000000002
  1
12,36
  7
PL_ARIAL
 11
0.14245328185328185
 21
-0.11315
 31
0.0
100
AcDbText
  0
TEXT
  5
23E
330
17
100
AcDbEntity
  8
R-OPISY
100
AcDbText
 10
0.003642130365659777
 20
-0.11765
 30
0.0
 40
0.0018000000000000002
  1
11
  7
PL_ARIAL
 11
0.003642130365659777
 21
-0.11765
 31
0.0
100
AcDbText
  0
TEXT
  5
23F
330
17
100
AcDbEntity
  8
R-OPISY
100
AcDbText
 10
0.01304503747444924
 20
-0.11765
 30
0.0
 40
0.0018000000000000002
  1
14
  7
PL_ARIAL
 11
0.01304503747444924
 21
-0.11765
 31
0.0
100
AcDbText
  0
TEXT
  5
240
330
17
100
AcDbEntity
  8
R-OPISY
100
AcDbText
 10
0.07163511242334772
 20
-0.11765
 30
0.0
 40
0.0018000000000000002
  1
680
  7
PL_ARIAL
 11
0.07163511242334772
 21
-0.11765
 31
0.0
100
AcDbText
  0
TEXT
  5
241
330
17
100
AcDbEntity
  8
R-OPISY
100
AcDbText
 10
0.08509007494889848
 20
-0.11765
 30
0.0
 40
0.0018000000000000002
  1
43
  7
PL_ARIAL
 11
0.08509007494889848
 21
-0.11765
 31
0.0
100
AcDbText
  0
TEXT
  5
242
330
17
100
AcDbEntity
  8
R-OPISY
100
AcDbText
 10
0.08966518282988871
 20
-0.11765
 30
0.0
 40
0.0018000000000000002
  1
PF1+PF
  7
PL_ARIAL
 11
0.08966518282988871
 21
-0.11765
 31
0.0
100
AcDbText
  0
TEXT
  5
243
330
17
100
AcDbEntity
  8
R-OPISY
100
AcDbText
 10
0.14099831932773108
 20
-0.11765
 30
0.0
 40
0.0018000000000000002
  1
292,40
  7
PL_ARIAL
 11
0.14099831932773108
 21
-0.11765
 31
0.0
100
AcDbText
  0
TEXT
  5
244
330
17
100
AcDbEntity
  8
R-OPISY
100
AcDbText
 10
0.003545037474449239
 20
-0.12215
 30
0.0
 40
0.0018000000000000002
  1
12
  7
PL_ARIAL
 11
0.003545037474449239
 21
-0.12215
 31
0.0
100
AcDbText
  0
TEXT
  5
245
330
17
100
AcDbEntity
  8
R-OPISY
100
AcDbText
 10
0.01304503747444924
 20
-0.12215
 30
0.0
 40
0.0018000000000000002
  1
14
  7
PL_ARIAL
 11
0.01304503747444924
 21
-0.12215
 31
0.0
100
AcDbText
  0
TEXT
  5
246
330
17
100
AcDbEntity
  8
R-OPISY
100
AcDbText
 10
0.07163511242334772
 20
-0.12215
 30
0.0
 40
0.0018000000000000002
  1
638
  7
PL_ARIAL
 11
0.07163511242334772
 21
-0.12215
 31
0.0
100
AcDbText
  0
TEXT
  5
247
330
17
100
AcDbEntity
  8
R-OPISY
100
AcDbText
 10
0.08363511242334772
 20
-0.12215
 30
0.0
 40
0.0018000000000000002
  1
160
  7
PL_ARIAL
 11
0.08363511242334772
 21
-0.12215
 31
0.0
100
AcDbText
  0
TEXT
  5
248
330
17
100
AcDbEntity
  8
R-OPISY
100
AcDbText
 10
0.08966518282988871
 20
-0.12215
 30
0.0
 40
0.0018000000000000002
  1
PF1+PF
  7
PL_ARIAL
 11
0.08966518282988871
 21
-0.12215
 31
0.0
100
AcDbText
  0
TEXT
  5
249
330
17
100
AcDbEntity
  8
R-OPISY
100
AcDbText
 10
0.13954335680218033
 20
-0.12215
 30
0.0
 40
0.0018000000000000002
  1
1020,80
  7
PL_ARIAL
 11
0.13954335680218033
 21
-0.12215
 31
0.0
100
AcDbText
  0
TEXT
  5
24A
330
17
100
AcDbEntity
  8
R-OPISY
100
AcDbText
 10
0.003545037474449239
 20
-0.12665
 30
0.0
 40
0.0018000000000000002
  1
13
  7
PL_ARIAL
 11
0.003545037474449239
 21
-0.12665
 31
0.0
100
AcDbText
  0
TEXT
  5
24B
330
17
100
AcDbEntity
  8
R-OPISY
100
AcDbText
 10
0.01304503747444924
 20
-0.12665
 30
0.0
 40
0.0018000000000000002
  1
14
  7
PL_ARIAL
 11
0.01304503747444924
 21
-0.12665
 31
0.0
100
AcDbText
  0
TEXT
  5
24C
330
17
100
AcDbEntity
  8
R-OPISY
100
AcDbText
 10
0.07163511242334772
 20
-0.12665
 30
0.0
 40
0.0018000000000000002
  1
886
  7
PL_ARIAL
 11
0.07163511242334772
 21
-0.12665
 31
0.0
100
AcDbText
  0
TEXT
  5
24D
330
17
100
AcDbEntity
  8
R-OPISY
100
AcDbText
 10
0.08654503747444924
 20
-0.12665
 30
0.0
 40
0.0018000000000000002
  1
1
  7
PL_ARIAL
 11
0.08654503747444924
 21
-0.12665
 31
0.0
100
AcDbText
  0
TEXT
  5
24E
330
17
100
AcDbEntity
  8
R-OPISY
100
AcDbText
 10
0.08966518282988871
 20
-0.12665
 30
0.0
 40
0.0018000000000000002
  1
PF1+PF
  7
PL_ARIAL
 11
0.08966518282988871
 21
-0.12665
 31
0.0
100
AcDbText
  0
TEXT
  5
24F
330
17
100
AcDbEntity
  8
R-OPISY
100
AcDbText
 10
0.1439082443788326
 20
-0.12665
 30
0.0
 40
0.0018000000000000002
  1
8,86
  7
PL_ARIAL
 11
0.1439082443788326
 21
-0.12665
 31
0.0
100
AcDbText
  0
TEXT
  5
250
330
17
100
AcDbEntity
  8
R-OPISY
100
AcDbText
 10
0.003545037474449239
 20
-0.13115000000000002
 30
0.0
 40
0.0018000000000000002
  1
14
  7
PL_ARIAL
 11
0.003545037474449239
 21
-0.13115000000000002
 31
0.0
100
AcDbText
  0
TEXT
  5
251
330
17
100
AcDbEntity
  8
R-OPISY
100
AcDbText
 10
0.01304503747444924
 20
-0.13115000000000002
 30
0.0
 40
0.0018000000000000002
  1
14
  7
PL_ARIAL
 11
0.01304503747444924
 21
-0.13115000000000002
 31
0.0
100
AcDbText
  0
TEXT
  5
252
330
17
100
AcDbEntity
  8
R-OPISY
100
AcDbText
 10
0.07163511242334772
 20
-0.13115000000000002
 30
0.0
 40
0.0018000000000000002
  1
289
  7
PL_ARIAL
 11
0.07163511242334772
 21
-0.13115000000000002
 31
0.0
100
AcDbText
  0
TEXT
  5
253
330
17
100
AcDbEntity
  8
R-OPISY
100
AcDbText
 10
0.08509007494889848
 20
-0.13115000000000002
 30
0.0
 40
0.0018000000000000002
  1
86
  7
PL_ARIAL
 11
0.08509007494889848
 21
-0.13115000000000002
 31
0.0
100
AcDbText
  0
TEXT
  5
254
330
17
100
AcDbEntity
  8
R-OPISY
100
AcDbText
 10
0.08966518282988871
 20
-0.13115000000000002
 30
0.0
 40
0.0018000000000000002
  1
PF1+PF
  7
PL_ARIAL
 11
0.08966518282988871
 21
-0.13115000000000002
 31
0.0
100
AcDbText
  0
TEXT
  5
255
330
17
100
AcDbEntity
  8
R-OPISY
100
AcDbText
 10
0.14099831932773108
 20
-0.13115000000000002
 30
0.0
 40
0.0018000000000000002
  1
248,54
  7
PL_ARIAL
 11
0.14099831932773108
 21
-0.13115000000000002
 31
0.0
100
AcDbText
  0
TEXT
  5
256
330
17
100
AcDbEntity
  8
R-OPISY
100
AcDbText
 10
0.003545037474449239
 20
-0.13565000000000002
 30
0.0
 40
0.0018000000000000002
  1
15
  7
PL_ARIAL
 11
0.003545037474449239
 21
-0.13565000000000002
 31
0.0
100
AcDbText
  0
TEXT
  5
257
330
17
100
AcDbEntity
  8
R-OPISY
100
AcDbText
 10
0.01304503747444924
 20
-0.13565000000000002
 30
0.0
 40
0.0018000000000000002
  1
14
  7
PL_ARIAL
 11
0.01304503747444924
 21
-0.13565000000000002
 31
0.0
100
AcDbText
  0
TEXT
  5
258
330
17
100
AcDbEntity
  8
R-OPISY
100
AcDbText
 10
0.07163511242334772
 20
-0.13565000000000002
 30
0.0
 40
0.0018000000000000002
  1
639
  7
PL_ARIAL
 11
0.07163511242334772
 21
-0.13565000000000002
 31
0.0
100
AcDbText
  0
TEXT
  5
259
330
17
100
AcDbEntity
  8
R-OPISY
100
AcDbText
 10
0.08509007494889848
 20
-0.13565000000000002
 30
0.0
 40
0.0018000000000000002
  1
80
  7
PL_ARIAL
 11
0.08509007494889848
 21
-0.13565000000000002
 31
0.0
100
AcDbText
  0
TEXT
  5
25A
330
17
100
AcDbEntity
  8
R-OPISY
100
AcDbText
 10
0.08966518282988871
 20
-0.13565000000000002
 30
0.0
 40
0.0018000000000000002
  1
PF1+PF
  7
PL_ARIAL
 11
0.08966518282988871
 21
-0.13565000000000002
 31
0.0
100
AcDbText
  0
TEXT
  5
25B
330
17
100
AcDbEntity
  8
R-OPISY
100
AcDbText
 10
0.14119250511015216
 20
-0.13565000000000002
 30
0.0
 40
0.0018000000000000002
  1
511,20
  7
PL_ARIAL
 11
0.14119250511015216
 21
-0.13565000000000002
 31
0.0
100
AcDbText
  0
TEXT
  5
25C
330
17
100
AcDbEntity
  8
R-OPISY
100
AcDbText
 10
0.003545037474449239
 20
-0.14015000000000002
 30
0.0
 40
0.0018000000000000002
  1
16
  7
PL_ARIAL
 11
0.003545037474449239
 21
-0.14015000000000002
 31
0.0
100
AcDbText
  0
TEXT
  5
25D
330
17
100
AcDbEntity
  8
R-OPISY
100
AcDbText
 10
0.01304503747444924
 20
-0.14015000000000002
 30
0.0
 40
0.0018000000000000002
  1
14
  7
PL_ARIAL
 11
0.01304503747444924
 21
-0.14015000000000002
 31
0.0
100
AcDbText
  0
TEXT
  5
25E
330
17
100
AcDbEntity
  8
R-OPISY
100
AcDbText
 10
0.07309007494889848
 20
-0.14015000000000002
 30
0.0
 40
0.0018000000000000002
  1
54
  7
PL_ARIAL
 11
0.07309007494889848
 21
-0.14015000000000002
 31
0.0
100
AcDbText
  0
TEXT
  5
25F
330
17
100
AcDbEntity
  8
R-OPISY
100
AcDbText
 10
0.08654503747444924
 20
-0.14015000000000002
 30
0.0
 40
0.0018000000000000002
  1
2
  7
PL_ARIAL
 11
0.08654503747444924
 21
-0.14015000000000002
 31
0.0
100
AcDbText
  0
TEXT
  5
260
330
17
100
AcDbEntity
  8
R-OPISY
100
AcDbText
 10
0.08966518282988871
 20
-0.14015000000000002
 30
0.0
 40
0.0018000000000000002
  1
PF1+PF
  7
PL_ARIAL
 11
0.08966518282988871
 21
-0.14015000000000002
 31
0.0
100
AcDbText
  0
TEXT
  5
261
330
17
100
AcDbEntity
  8
R-OPISY
100
AcDbText
 10
0.1439082443788326
 20
-0.14015000000000002
 30
0.0
 40
0.0018000000000000002
  1
1,08
  7
PL_ARIAL
 11
0.1439082443788326
 21
-0.14015000000000002
 31
0.0
100
AcDbText
  0
TEXT
  5
262
330
17
100
AcDbEntity
  8
R-OPISY
100
AcDbText
 10
0.003545037474449239
 20
-0.14465000000000003
 30
0.0
 40
0.0018000000000000002
  1
17
  7
PL_ARIAL
 11
0.003545037474449239
 21
-0.14465000000000003
 31
0.0
100
AcDbText
  0
TEXT
  5
263
330
17
100
AcDbEntity
  8
R-OPISY
100
AcDbText
 10
0.01304503747444924
 20
-0.14465000000000003
 30
0.0
 40
0.0018000000000000002
  1
14
  7
PL_ARIAL
 11
0.01304503747444924
 21
-0.14465000000000003
 31
0.0
100
AcDbText
  0
TEXT
  5
264
330
17
100
AcDbEntity
  8
R-OPISY
100
AcDbText
 10
0.07163511242334772
 20
-0.14465000000000003
 30
0.0
 40
0.0018000000000000002
  1
651
  7
PL_ARIAL
 11
0.07163511242334772
 21
-0.14465000000000003
 31
0.0
100
AcDbText
  0
TEXT
  5
265
330
17
100
AcDbEntity
  8
R-OPISY
100
AcDbText
 10
0.08509007494889848
 20
-0.14465000000000003
 30
0.0
 40
0.0018000000000000002
  1
85
  7
PL_ARIAL
 11
0.08509007494889848
 21
-0.14465000000000003
 31
0.0
100
AcDbText
  0
TEXT
  5
266
330
17
100
AcDbEntity
  8
R-OPISY
100
AcDbText
 10
0.08966518282988871
 20
-0.14465000000000003
 30
0.0
 40
0.0018000000000000002
  1
PF1+PF
  7
PL_ARIAL
 11
0.08966518282988871
 21
-0.14465000000000003
 31
0.0
100
AcDbText
  0
TEXT
  5
267
330
17
100
AcDbEntity
  8
R-OPISY
100
AcDbText
 10
0.14099831932773108
 20
-0.14465000000000003
 30
0.0
 40
0.0018000000000000002
  1
553,35
  7
PL_ARIAL
 11
0.14099831932773108
 21
-0.14465000000000003
 31
0.0
100
AcDbText
  0
TEXT
  5
268
330
17
100
AcDbEntity
  8
R-OPISY
100
AcDbText
 10
0.003545037474449239
 20
-0.14915
 30
0.0
 40
0.0018000000000000002
  1
18
  7
PL_ARIAL
 11
0.003545037474449239
 21
-0.14915
 31
0.0
100
AcDbText
  0
TEXT
  5
269
330
17
100
AcDbEntity
  8
R-OPISY
100
AcDbText
 10
0.01304503747444924
 20
-0.14915
 30
0.0
 40
0.0018000000000000002
  1
20
  7
PL_ARIAL
 11
0.01304503747444924
 21
-0.14915
 31
0.0
100
AcDbText
  0
TEXT
  5
26A
330
17
100
AcDbEntity
  8
R-OPISY
100
AcDbText
 10
0.07163511242334772
 20
-0.14915
 30
0.0
 40
0.0018000000000000002
  1
419
  7
PL_ARIAL
 11
0.07163511242334772
 21
-0.14915
 31
0.0
100
AcDbText
  0
TEXT
  5
26B
330
17
100
AcDbEntity
  8
R-OPISY
100
AcDbText
 10
0.08509007494889848
 20
-0.14915
 30
0.0
 40
0.0018000000000000002
  1
18
  7
PL_ARIAL
 11
0.08509007494889848
 21
-0.14915
 31
0.0
100
AcDbText
  0
TEXT
  5
26C
330
17
100
AcDbEntity
  8
R-OPISY
100
AcDbText
 10
0.08966518282988871
 20
-0.14915
 30
0.0
 40
0.0018000000000000002
  1
PF1+PF
  7
PL_ARIAL
 11
0.08966518282988871
 21
-0.14915
 31
0.0
100
AcDbText
  0
TEXT
  5
26D
330
17
100
AcDbEntity
  8
R-OPISY
100
AcDbText
 10
0.16245328185328187
 20
-0.14915
 30
0.0
 40
0.0018000000000000002
  1
75,42
  7
PL_ARIAL
 11
0.16245328185328187
 21
-0.14915
 31
0.0
100
AcDbText
  0
TEXT
  5
26E
330
17
100
AcDbEntity
  8
R-OPISY
100
AcDbText
 10
0.003545037474449239
 20
-0.15365
 30
0.0
 40
0.0018000000000000002
  1
19
  7
PL_ARIAL
 11
0.003545037474449239
 21
-0.15365
 31
0.0
100
AcDbText
  0
TEXT
  5
26F
330
17
100
AcDbEntity
  8
R-OPISY
100
AcDbText
 10
0.01377251873722462
 20
-0.15365
 30
0.0
 40
0.0018000000000000002
  1
8
  7
PL_ARIAL
 11
0.01377251873722462
 21
-0.15365
 31
0.0
100
AcDbText
  0
TEXT
  5
270
330
17
100
AcDbEntity
  8
R-OPISY
100
AcDbText
 10
0.07163511242334772
 20
-0.15365
 30
0.0
 40
0.0018000000000000002
  1
195
  7
PL_ARIAL
 11
0.07163511242334772
 21
-0.15365
 31
0.0
100
AcDbText
  0
TEXT
  5
271
330
17
100
AcDbEntity
  8
R-OPISY
100
AcDbText
 10
0.08509007494889848
 20
-0.15365
 30
0.0
 40
0.0018000000000000002
  1
14
  7
PL_ARIAL
 11
0.08509007494889848
 21
-0.15365
 31
0.0
100
AcDbText
  0
TEXT
  5
272
330
17
100
AcDbEntity
  8
R-OPISY
100
AcDbText
 10
0.08966518282988871
 20
-0.15365
 30
0.0
 40
0.0018000000000000002
  1
PF1+PF
  7
PL_ARIAL
 11
0.08966518282988871
 21
-0.15365
 31
0.0
100
AcDbText
  0
TEXT
  5
273
330
17
100
AcDbEntity
  8
R-OPISY
100
AcDbText
 10
0.11245328185328186
 20
-0.15365
 30
0.0
 40
0.0018000000000000002
  1
27,30
  7
PL_ARIAL
 11
0.11245328185328186
 21
-0.15365
 31
0.0
100
AcDbText
  0
TEXT
  5
274
330
17
100
AcDbEntity
  8
R-OPISY
100
AcDbText
 10
0.003545037474449239
 20
-0.15815
 30
0.0
 40
0.0018000000000000002
  1
20
  7
PL_ARIAL
 11
0.003545037474449239
 21
-0.15815
 31
0.0
100
AcDbText
  0
TEXT
  5
275
330
17
100
AcDbEntity
  8
R-OPISY
100
AcDbText
 10
0.01377251873722462
 20
-0.15815
 30
0.0
 40
0.0018000000000000002
  1
8
  7
PL_ARIAL
 11
0.01377251873722462
 21
-0.15815
 31
0.0
100
AcDbText
  0
TEXT
  5
276
330
17
100
AcDbEntity
  8
R-OPISY
100
AcDbText
 10
0.07163511242334772
 20
-0.15815
 30
0.0
 40
0.0018000000000000002
  1
101
  7
PL_ARIAL
 11
0.07163511242334772
 21
-0.15815
 31
0.0
100
AcDbText
  0
TEXT
  5
277
330
17
100
AcDbEntity
  8
R-OPISY
100
AcDbText
 10
0.08528426073131955
 20
-0.15815
 30
0.0
 40
0.0018000000000000002
  1
11
  7
PL_ARIAL
 11
0.08528426073131955
 21
-0.15815
 31
0.0
100
AcDbText
  0
TEXT
  5
278
330
17
100
AcDbEntity
  8
R-OPISY
100
AcDbText
 10
0.08966518282988871
 20
-0.15815
 30
0.0
 40
0.0018000000000000002
  1
PF1+PF
  7
PL_ARIAL
 11
0.08966518282988871
 21
-0.15815
 31
0.0
100
AcDbText
  0
TEXT
  5
279
330
17
100
AcDbEntity
  8
R-OPISY
100
AcDbText
 10
0.11284165341812402
 20
-0.15815
 30
0.0
 40
0.0018000000000000002
  1
11,11
  7
PL_ARIAL
 11
0.11284165341812402
 21
-0.15815
 31
0.0
100
AcDbText
  0
TEXT
  5
27A
330
17
100
AcDbEntity
  8
R-OPISY
100
AcDbText
 10
0.003545037474449239
 20
-0.16265000000000002
 30
0.0
 40
0.0018000000000000002
  1
21
  7
PL_ARIAL
 11
0.003545037474449239
 21
-0.16265000000000002
 31
0.0
100
AcDbText
  0
TEXT
  5
27B
330
17
100
AcDbEntity
  8
R-OPISY
100
AcDbText
 10
0.01304503747444924
 20
-0.16265000000000002
 30
0.0
 40
0.0018000000000000002
  1
25
  7
PL_ARIAL
 11
0.01304503747444924
 21
-0.16265000000000002
 31
0.0
100
AcDbText
  0
TEXT
  5
27C
330
17
100
AcDbEntity
  8
R-OPISY
100
AcDbText
 10
0.07163511242334772
 20
-0.16265000000000002
 30
0.0
 40
0.0018000000000000002
  1
432
  7
PL_ARIAL
 11
0.07163511242334772
 21
-0.16265000000000002
 31
0.0
100
AcDbText
  0
TEXT
  5
27D
330
17
100
AcDbEntity
  8
R-OPISY
100
AcDbText
 10
0.08509007494889848
 20
-0.16265000000000002
 30
0.0
 40
0.0018000000000000002
  1
62
  7
PL_ARIAL
 11
0.08509007494889848
 21
-0.16265000000000002
 31
0.0
100
AcDbText
  0
TEXT
  5
27E
330
17
100
AcDbEntity
  8
R-OPISY
100
AcDbText
 10
0.08966518282988871
 20
-0.16265000000000002
 30
0.0
 40
0.0018000000000000002
  1
PF1+PF
  7
PL_ARIAL
 11
0.08966518282988871
 21
-0.16265000000000002
 31
0.0
100
AcDbText
  0
TEXT
  5
27F
330
17
100
AcDbEntity
  8
R-OPISY
100
AcDbText
 10
0.17099831932773107
 20
-0.16265000000000002
 30
0.0
 40
0.0018000000000000002
  1
267,84
  7
PL_ARIAL
 11
0.17099831932773107
 21
-0.16265000000000002
 31
0.0
100
AcDbText
  0
TEXT
  5
280
330
17
100
AcDbEntity
  8
R-OPISY
100
AcDbText
 10
0.003545037474449239
 20
-0.16715000000000002
 30
0.0
 40
0.0018000000000000002
  1
22
  7
PL_ARIAL
 11
0.003545037474449239
 21
-0.16715000000000002
 31
0.0
100
AcDbText
  0
TEXT
  5
281
330
17
100
AcDbEntity
  8
R-OPISY
100
AcDbText
 10
0.01304503747444924
 20
-0.16715000000000002
 30
0.0
 40
0.0018000000000000002
  1
10
  7
PL_ARIAL
 11
0.01304503747444924
 21
-0.16715000000000002
 31
0.0
100
AcDbText
  0
TEXT
  5
282
330
17
100
AcDbEntity
  8
R-OPISY
100
AcDbText
 10
0.07163511242334772
 20
-0.16715000000000002
 30
0.0
 40
0.0018000000000000002
  1
133
  7
PL_ARIAL
 11
0.07163511242334772
 21
-0.16715000000000002
 31
0.0
100
AcDbText
  0
TEXT
  5
283
330
17
100
AcDbEntity
  8
R-OPISY
100
AcDbText
 10
0.08509007494889848
 20
-0.16715000000000002
 30
0.0
 40
0.0018000000000000002
  1
12
  7
PL_ARIAL
 11
0.08509007494889848
 21
-0.16715000000000002
 31
0.0
100
AcDbText
  0
TEXT
  5
284
330
17
100
AcDbEntity
  8
R-OPISY
100
AcDbText
 10
0.08966518282988871
 20
-0.16715000000000002
 30
0.0
 40
0.0018000000000000002
  1
PF1+PF
  7
PL_ARIAL
 11
0.08966518282988871
 21
-0.16715000000000002
 31
0.0
100
AcDbText
  0
TEXT
  5
285
330
17
100
AcDbEntity
  8
R-OPISY
100
AcDbText
 10
0.12245328185328186
 20
-0.16715000000000002
 30
0.0
 40
0.0018000000000000002
  1
15,96
  7
PL_ARIAL
 11
0.12245328185328186
 21
-0.16715000000000002
 31
0.0
100
AcDbText
  0
TEXT
  5
286
330
17
100
AcDbEntity
  8
R-OPISY
100
AcDbText
 10
0.003545037474449239
 20
-0.17165000000000002
 30
0.0
 40
0.0018000000000000002
  1
23
  7
PL_ARIAL
 11
0.003545037474449239
 21
-0.17165000000000002
 31
0.0
100
AcDbText
  0
TEXT
  5
287
330
17
100
AcDbEntity
  8
R-OPISY
100
AcDbText
 10
0.01304503747444924
 20
-0.17165000000000002
 30
0.0
 40
0.0018000000000000002
  1
20
  7
PL_ARIAL
 11
0.01304503747444924
 21
-0.17165000000000002
 31
0.0
100
AcDbText
  0
TEXT
  5
288
330
17
100
AcDbEntity
  8
R-OPISY
100
AcDbText
 10
0.07163511242334772
 20
-0.17165000000000002
 30
0.0
 40
0.0018000000000000002
  1
264
  7
PL_ARIAL
 11
0.07163511242334772
 21
-0.17165000000000002
 31
0.0
100
AcDbText
  0
TEXT
  5
289
330
17
100
AcDbEntity
  8
R-OPISY
100
AcDbText
 10
0.08509007494889848
 20
-0.17165000000000002
 30
0.0
 40
0.0018000000000000002
  1
10
  7
PL_ARIAL
 11
0.08509007494889848
 21
-0.17165000000000002
 31
0.0
100
AcDbText
  0
TEXT
  5
28A
330
17
100
AcDbEntity
  8
R-OPISY
100
AcDbText
 10
0.08966518282988871
 20
-0.17165000000000002
 30
0.0
 40
0.0018000000000000002
  1
PF1+PF
  7
PL_ARIAL
 11
0.08966518282988871
 21
-0.17165000000000002
 31
0.0
100
AcDbText
  0
TEXT
  5
28B
330
17
100
AcDbEntity
  8
R-OPISY
100
AcDbText
 10
0.16245328185328187
 20
-0.17165000000000002
 30
0.0
 40
0.0018000000000000002
  1
26,40
  7
PL_ARIAL
 11
0.16245328185328187
 21
-0.17165000000000002
 31
0.0
100
AcDbText
  0
TEXT
  5
28C
330
17
100
AcDbEntity
  8
R-OPISY
100
AcDbText
 10
0.003545037474449239
 20
-0.17615000000000003
 30
0.0
 40
0.0018000000000000002
  1
24
  7
PL_ARIAL
 11
0.003545037474449239
 21
-0.17615000000000003
 31
0.0
100
AcDbText
  0
TEXT
  5
28D
330
17
100
AcDbEntity
  8
R-OPISY
100
AcDbText
 10
0.01304503747444924
 20
-0.17615000000000003
 30
0.0
 40
0.0018000000000000002
  1
10
  7
PL_ARIAL
 11
0.01304503747444924
 21
-0.17615000000000003
 31
0.0
100
AcDbText
  0
TEXT
  5
28E
330
17
100
AcDbEntity
  8
R-OPISY
100
AcDbText
 10
0.07163511242334772
 20
-0.17615000000000003
 30
0.0
 40
0.0018000000000000002
  1
159
  7
PL_ARIAL
 11
0.07163511242334772
 21
-0.17615000000000003
 31
0.0
100
AcDbText
  0
TEXT
  5
28F
330
17
100
AcDbEntity
  8
R-OPISY
100
AcDbText
 10
0.08509007494889848
 20
-0.17615000000000003
 30
0.0
 40
0.0018000000000000002
  1
15
  7
PL_ARIAL
 11
0.08509007494889848
 21
-0.17615000000000003
 31
0.0
100
AcDbText
  0
TEXT
  5
290
330
17
100
AcDbEntity
  8
R-OPISY
100
AcDbText
 10
0.08966518282988871
 20
-0.17615000000000003
 30
0.0
 40
0.0018000000000000002
  1
PF1+PF
  7
PL_ARIAL
 11
0.08966518282988871
 21
-0.17615000000000003
 31
0.0
100
AcDbText
  0
TEXT
  5
291
330
17
100
AcDbEntity
  8
R-OPISY
100
AcDbText
 10
0.12245328185328186
 20
-0.17615000000000003
 30
0.0
 40
0.0018000000000000002
  1
23,85
  7
PL_ARIAL
 11
0.12245328185328186
 21
-0.17615000000000003
 31
0.0
100
AcDbText
  0
TEXT
  5
292
330
17
100
AcDbEntity
  8
R-OPISY
100
AcDbText
 10
0.003545037474449239
 20
-0.18065
 30
0.0
 40
0.0018000000000000002
  1
25
  7
PL_ARIAL
 11
0.003545037474449239
 21
-0.18065
 31
0.0
100
AcDbText
  0
TEXT
  5
293
330
17
100
AcDbEntity
  8
R-OPISY
100
AcDbText
 10
0.01377251873722462
 20
-0.18065
 30
0.0
 40
0.0018000000000000002
  1
8
  7
PL_ARIAL
 11
0.01377251873722462
 21
-0.18065
 31
0.0
100
AcDbText
  0
TEXT
  5
294
330
17
100
AcDbEntity
  8
R-OPISY
100
AcDbText
 10
0.07163511242334772
 20
-0.18065
 30
0.0
 40
0.0018000000000000002
  1
228
  7
PL_ARIAL
 11
0.07163511242334772
 21
-0.18065
 31
0.0
100
AcDbText
  0
TEXT
  5
295
330
17
100
AcDbEntity
  8
R-OPISY
100
AcDbText
 10
0.08509007494889848
 20
-0.18065
 30
0.0
 40
0.0018000000000000002
  1
26
  7
PL_ARIAL
 11
0.08509007494889848
 21
-0.18065
 31
0.0
100
AcDbText
  0
TEXT
  5
296
330
17
100
AcDbEntity
  8
R-OPISY
100
AcDbText
 10
0.08966518282988871
 20
-0.18065
 30
0.0
 40
0.0018000000000000002
  1
PF1+PF
  7
PL_ARIAL
 11
0.08966518282988871
 21
-0.18065
 31
0.0
100
AcDbText
  0
TEXT
  5
297
330
17
100
AcDbEntity
  8
R-OPISY
100
AcDbText
 10
0.11245328185328186
 20
-0.18065
 30
0.0
 40
0.0018000000000000002
  1
59,28
  7
PL_ARIAL
 11
0.11245328185328186
 21
-0.18065
 31
0.0
100
AcDbText
  0
TEXT
  5
298
330
17
100
AcDbEntity
  8
R-OPISY
100
AcDbText
 10
0.003545037474449239
 20
-0.18515
 30
0.0
 40
0.0018000000000000002
  1
26
  7
PL_ARIAL
 11
0.003545037474449239
 21
-0.18515
 31
0.0
100
AcDbText
  0
TEXT
  5
299
330
17
100
AcDbEntity
  8
R-OPISY
100
AcDbText
 10
0.01377251873722462
 20
-0.18515
 30
0.0
 40
0.0018000000000000002
  1
8
  7
PL_ARIAL
 11
0.01377251873722462
 21
-0.18515
 31
0.0
100
AcDbText
  0
TEXT
  5
29A
330
17
100
AcDbEntity
  8
R-OPISY
100
AcDbText
 10
0.07182929820576879
 20
-0.18515
 30
0.0
 40
0.0018000000000000002
  1
117
  7
PL_ARIAL
 11
0.07182929820576879
 21
-0.18515
 31
0.0
100
AcDbText
  0
TEXT
  5
29B
330
17
100
AcDbEntity
  8
R-OPISY
100
AcDbText
 10
0.08509007494889848
 20
-0.18515
 30
0.0
 40
0.0018000000000000002
  1
10
  7
PL_ARIAL
 11
0.08509007494889848
 21
-0.18515
 31
0.0
100
AcDbText
  0
TEXT
  5
29C
330
17
100
AcDbEntity
  8
R-OPISY
100
AcDbText
 10
0.08966518282988871
 20
-0.18515
 30
0.0
 40
0.0018000000000000002
  1
PF1+PF
  7
PL_ARIAL
 11
0.08966518282988871
 21
-0.18515
 31
0.0
100
AcDbText
  0
TEXT
  5
29D
330
17
100
AcDbEntity
  8
R-OPISY
100
AcDbText
 10
0.11264746763570294
 20
-0.18515
 30
0.0
 40
0.0018000000000000002
  1
11,70
  7
PL_ARIAL
 11
0.11264746763570294
 21
-0.18515
 31
0.0
100
AcDbText
  0
TEXT
  5
29E
330
17
100
AcDbEntity
  8
R-OPISY
100
AcDbText
 10
0.003545037474449239
 20
-0.18965
 30
0.0
 40
0.0018000000000000002
  1
27
  7
PL_ARIAL
 11
0.003545037474449239
 21
-0.18965
 31
0.0
100
AcDbText
  0
TEXT
  5
29F
330
17
100
AcDbEntity
  8
R-OPISY
100
AcDbText
 10
0.01377251873722462
 20
-0.18965
 30
0.0
 40
0.0018000000000000002
  1
8
  7
PL_ARIAL
 11
0.01377251873722462
 21
-0.18965
 31
0.0
100
AcDbText
  0
TEXT
  5
2A0
330
17
100
AcDbEntity
  8
R-OPISY
100
AcDbText
 10
0.07163511242334772
 20
-0.18965
 30
0.0
 40
0.0018000000000000002
  1
100
  7
PL_ARIAL
 11
0.07163511242334772
 21
-0.18965
 31
0.0
100
AcDbText
  0
TEXT
  5
2A1
330
17
100
AcDbEntity
  8
R-OPISY
100
AcDbText
 10
0.08509007494889848
 20
-0.18965
 30
0.0
 40
0.0018000000000000002
  1
10
  7
PL_ARIAL
 11
0.08509007494889848
 21
-0.18965
 31
0.0
100
AcDbText
  0
TEXT
  5
2A2
330
17
100
AcDbEntity
  8
R-OPISY
100
AcDbText
 10
0.08966518282988871
 20
-0.18965
 30
0.0
 40
0.0018000000000000002
  1
PF1+PF
  7
PL_ARIAL
 11
0.08966518282988871
 21
-0.18965
 31
0.0
100
AcDbText
  0
TEXT
  5
2A3
330
17
100
AcDbEntity
  8
R-OPISY
100
AcDbText
 10
0.11245328185328186
 20
-0.18965
 30
0.0
 40
0.0018000000000000002
  1
10,00
  7
PL_ARIAL
 11
0.11245328185328186
 21
-0.18965
 31
0.0
100
AcDbText
  0
TEXT
  5
2A4
330
17
100
AcDbEntity
  8
R-OPISY
100
AcDbText
 10
0.003545037474449239
 20
-0.19415000000000002
 30
0.0
 40
0.0018000000000000002
  1
28
  7
PL_ARIAL
 11
0.003545037474449239
 21
-0.19415000000000002
 31
0.0
100
AcDbText
  0
TEXT
  5
2A5
330
17
100
AcDbEntity
  8
R-OPISY
100
AcDbText
 10
0.01304503747444924
 20
-0.19415000000000002
 30
0.0
 40
0.0018000000000000002
  1
10
  7
PL_ARIAL
 11
0.01304503747444924
 21
-0.19415000000000002
 31
0.0
100
AcDbText
  0
TEXT
  5
2A6
330
17
100
AcDbEntity
  8
R-OPISY
100
AcDbText
 10
0.07163511242334772
 20
-0.19415000000000002
 30
0.0
 40
0.0018000000000000002
  1
401
  7
PL_ARIAL
 11
0.07163511242334772
 21
-0.19415000000000002
 31
0.0
100
AcDbText
  0
TEXT
  5
2A7
330
17
100
AcDbEntity
  8
R-OPISY
100
AcDbText
 10
0.08509007494889848
 20
-0.19415000000000002
 30
0.0
 40
0.0018000000000000002
  1
82
  7
PL_ARIAL
 11
0.08509007494889848
 21
-0.19415000000000002
 31
0.0
100
AcDbText
  0
TEXT
  5
2A8
330
17
100
AcDbEntity
  8
R-OPISY
100
AcDbText
 10
0.08966518282988871
 20
-0.19415000000000002
 30
0.0
 40
0.0018000000000000002
  1
PF1+PF
  7
PL_ARIAL
 11
0.08966518282988871
 21
-0.19415000000000002
 31
0.0
100
AcDbText
  0
TEXT
  5
2A9
330
17
100
AcDbEntity
  8
R-OPISY
100
AcDbText
 10
0.1209983193277311
 20
-0.19415000000000002
 30
0.0
 40
0.0018000000000000002
  1
328,82
  7
PL_ARIAL
 11
0.1209983193277311
 21
-0.19415000000000002
 31
0.0
100
AcDbText
  0
TEXT
  5
2AA
330
17
100
AcDbEntity
  8
R-OPISY
100
AcDbText
 10
0.003545037474449239
 20
-0.19865000000000002
 30
0.0
 40
0.0018000000000000002
  1
29
  7
PL_ARIAL
 11
0.003545037474449239
 21
-0.19865000000000002
 31
0.0
100
AcDbText
  0
TEXT
  5
2AB
330
17
100
AcDbEntity
  8
R-OPISY
100
AcDbText
 10
0.01304503747444924
 20
-0.19865000000000002
 30
0.0
 40
0.0018000000000000002
  1
12
  7
PL_ARIAL
 11
0.01304503747444924
 21
-0.19865000000000002
 31
0.0
100
AcDbText
  0
TEXT
  5
2AC
330
17
100
AcDbEntity
  8
R-OPISY
100
AcDbText
 10
0.07018014989779696
 20
-0.19865000000000002
 30
0.0
 40
0.0018000000000000002
  1
1250
  7
PL_ARIAL
 11
0.07018014989779696
 21
-0.19865000000000002
 31
0.0
100
AcDbText
  0
TEXT
  5
2AD
330
17
100
AcDbEntity
  8
R-OPISY
100
AcDbText
 10
0.08509007494889848
 20
-0.19865000000000002
 30
0.0
 40
0.0018000000000000002
  1
23
  7
PL_ARIAL
 11
0.08509007494889848
 21
-0.19865000000000002
 31
0.0
100
AcDbText
  0
TEXT
  5
2AE
330
17
100
AcDbEntity
  8
R-OPISY
100
AcDbText
 10
0.09217447195094254
 20
-0.19865000000000002
 30
0.0
 40
0.0018000000000000002
  1
ZF1
  7
PL_ARIAL
 11
0.09217447195094254
 21
-0.19865000000000002
 31
0.0
100
AcDbText
  0
TEXT
  5
2AF
330
17
100
AcDbEntity
  8
R-OPISY
100
AcDbText
 10
0.1309983193277311
 20
-0.19865000000000002
 30
0.0
 40
0.0018000000000000002
  1
287,50
  7
PL_ARIAL
 11
0.1309983193277311
 21
-0.19865000000000002
 31
0.0
100
AcDbText
  0
TEXT
  5
2B0
330
17
100
AcDbEntity
  8
R-OPISY
100
AcDbText
 10
0.003545037474449239
 20
-0.20315000000000003
 30
0.0
 40
0.0018000000000000002
  1
30
  7
PL_ARIAL
 11
0.003545037474449239
 21
-0.20315000000000003
 31
0.0
100
AcDbText
  0
TEXT
  5
2B1
330
17
100
AcDbEntity
  8
R-OPISY
100
AcDbText
 10
0.01304503747444924
 20
-0.20315000000000003
 30
0.0
 40
0.0018000000000000002
  1
25
  7
PL_ARIAL
 11
0.01304503747444924
 21
-0.20315000000000003
 31
0.0
100
AcDbText
  0
TEXT
  5
2B2
330
17
100
AcDbEntity
  8
R-OPISY
100
AcDbText
 10
0.07018014989779696
 20
-0.20315000000000003
 30
0.0
 40
0.0018000000000000002
  1
1250
  7
PL_ARIAL
 11
0.07018014989779696
 21
-0.20315000000000003
 31
0.0
100
AcDbText
  0
TEXT
  5
2B3
330
17
100
AcDbEntity
  8
R-OPISY
100
AcDbText
 10
0.08509007494889848
 20
-0.20315000000000003
 30
0.0
 40
0.0018000000000000002
  1
10
  7
PL_ARIAL
 11
0.08509007494889848
 21
-0.20315000000000003
 31
0.0
100
AcDbText
  0
TEXT
  5
2B4
330
17
100
AcDbEntity
  8
R-OPISY
100
AcDbText
 10
0.09217447195094254
 20
-0.20315000000000003
 30
0.0
 40
0.0018000000000000002
  1
ZF1
  7
PL_ARIAL
 11
0.09217447195094254
 21
-0.20315000000000003
 31
0.0
100
AcDbText
  0
TEXT
  5
2B5
330
17
100
AcDbEntity
  8
R-OPISY
100
AcDbText
 10
0.17099831932773107
 20
-0.20315000000000003
 30
0.0
 40
0.0018000000000000002
  1
125,00
  7
PL_ARIAL
 11
0.17099831932773107
 21
-0.20315000000000003
 31
0.0
100
AcDbText
  0
TEXT
  5
2B6
330
17
100
AcDbEntity
  8
R-OPISY
100
AcDbText
 10
0.003545037474449239
 20
-0.20765000000000003
 30
0.0
 40
0.0018000000000000002
  1
31
  7
PL_ARIAL
 11
0.003545037474449239
 21
-0.20765000000000003
 31
0.0
100
AcDbText
  0
TEXT
  5
2B7
330
17
100
AcDbEntity
  8
R-OPISY
100
AcDbText
 10
0.01377251873722462
 20
-0.20765000000000003
 30
0.0
 40
0.0018000000000000002
  1
6
  7
PL_ARIAL
 11
0.01377251873722462
 21
-0.20765000000000003
 31
0.0
100
AcDbText
  0
TEXT
  5
2B8
330
17
100
AcDbEntity
  8
R-OPISY
100
AcDbText
 10
0.07163511242334772
 20
-0.20765000000000003
 30
0.0
 40
0.0018000000000000002
  1
208
  7
PL_ARIAL
 11
0.07163511242334772
 21
-0.20765000000000003
 31
0.0
100
AcDbText
  0
TEXT
  5
2B9
330
17
100
AcDbEntity
  8
R-OPISY
100
AcDbText
 10
0.08363511242334772
 20
-0.20765000000000003
 30
0.0
 40
0.0018000000000000002
  1
163
  7
PL_ARIAL
 11
0.08363511242334772
 21
-0.20765000000000003
 31
0.0
100
AcDbText
  0
TEXT
  5
2BA
330
17
100
AcDbEntity
  8
R-OPISY
100
AcDbText
 10
0.09217447195094254
 20
-0.20765000000000003
 30
0.0
 40
0.0018000000000000002
  1
ZF1
  7
PL_ARIAL
 11
0.09217447195094254
 21
-0.20765000000000003
 31
0.0
100
AcDbText
  0
TEXT
  5
2BB
330
17
100
AcDbEntity
  8
R-OPISY
100
AcDbText
 10
0.1009983193277311
 20
-0.20765000000000003
 30
0.0
 40
0.0018000000000000002
  1
339,04
  7
PL_ARIAL
 11
0.1009983193277311
 21
-0.20765000000000003
 31
0.0
100
AcDbText
  0
TEXT
  5
2BC
330
17
100
AcDbEntity
  8
R-OPISY
100
AcDbText
 10
0.003545037474449239
 20
-0.21215
 30
0.0
 40
0.0018000000000000002
  1
32
  7
PL_ARIAL
 11
0.003545037474449239
 21
-0.21215
 31
0.0
100
AcDbText
  0
TEXT
  5
2BD
330
17
100
AcDbEntity
  8
R-OPISY
100
AcDbText
 10
0.01304503747444924
 20
-0.21215
 30
0.0
 40
0.0018000000000000002
  1
12
  7
PL_ARIAL
 11
0.01304503747444924
 21
-0.21215
 31
0.0
100
AcDbText
  0
TEXT
  5
2BE
330
17
100
AcDbEntity
  8
R-OPISY
100
AcDbText
 10
0.07163511242334772
 20
-0.21215
 30
0.0
 40
0.0018000000000000002
  1
688
  7
PL_ARIAL
 11
0.07163511242334772
 21
-0.21215
 31
0.0
100
AcDbText
  0
TEXT
  5
2BF
330
17
100
AcDbEntity
  8
R-OPISY
100
AcDbText
 10
0.08654503747444924
 20
-0.21215
 30
0.0
 40
0.0018000000000000002
  1
8
  7
PL_ARIAL
 11
0.08654503747444924
 21
-0.21215
 31
0.0
100
AcDbText
  0
TEXT
  5
2C0
330
17
100
AcDbEntity
  8
R-OPISY
100
AcDbText
 10
0.09217447195094254
 20
-0.21215
 30
0.0
 40
0.0018000000000000002
  1
ZF2
  7
PL_ARIAL
 11
0.09217447195094254
 21
-0.21215
 31
0.0
100
AcDbText
  0
TEXT
  5
2C1
330
17
100
AcDbEntity
  8
R-OPISY
100
AcDbText
 10
0.13245328185328187
 20
-0.21215
 30
0.0
 40
0.0018000000000000002
  1
55,04
  7
PL_ARIAL
 11
0.13245328185328187
 21
-0.21215
 31
0.0
100
AcDbText
  0
TEXT
  5
2C2
330
17
100
AcDbEntity
  8
R-OPISY
100
AcDbText
 10
0.003545037474449239
 20
-0.21665
 30
0.0
 40
0.0018000000000000002
  1
33
  7
PL_ARIAL
 11
0.003545037474449239
 21
-0.21665
 31
0.0
100
AcDbText
  0
TEXT
  5
2C3
330
17
100
AcDbEntity
  8
R-OPISY
100
AcDbText
 10
0.01304503747444924
 20
-0.21665
 30
0.0
 40
0.0018000000000000002
  1
12
  7
PL_ARIAL
 11
0.01304503747444924
 21
-0.21665
 31
0.0
100
AcDbText
  0
TEXT
  5
2C4
330
17
100
AcDbEntity
  8
R-OPISY
100
AcDbText
 10
0.07182929820576879
 20
-0.21665
 30
0.0
 40
0.0018000000000000002
  1
112
  7
PL_ARIAL
 11
0.07182929820576879
 21
-0.21665
 31
0.0
100
AcDbText
  0
TEXT
  5
2C5
330
17
100
AcDbEntity
  8
R-OPISY
100
AcDbText
 10
0.08654503747444924
 20
-0.21665
 30
0.0
 40
0.0018000000000000002
  1
4
  7
PL_ARIAL
 11
0.08654503747444924
 21
-0.21665
 31
0.0
100
AcDbText
  0
TEXT
  5
2C6
330
17
100
AcDbEntity
  8
R-OPISY
100
AcDbText
 10
0.09217447195094254
 20
-0.21665
 30
0.0
 40
0.0018000000000000002
  1
ZF6
  7
PL_ARIAL
 11
0.09217447195094254
 21
-0.21665
 31
0.0
100
AcDbText
  0
TEXT
  5
2C7
330
17
100
AcDbEntity
  8
R-OPISY
100
AcDbText
 10
0.1339082443788326
 20
-0.21665
 30
0.0
 40
0.0018000000000000002
  1
4,48
  7
PL_ARIAL
 11
0.1339082443788326
 21
-0.21665
 31
0.0
100
AcDbText
  0
TEXT
  5
2C8
330
17
100
AcDbEntity
  8
R-OPISY
100
AcDbText
 10
0.003545037474449239
 20
-0.22115
 30
0.0
 40
0.0018000000000000002
  1
34
  7
PL_ARIAL
 11
0.003545037474449239
 21
-0.22115
 31
0.0
100
AcDbText
  0
TEXT
  5
2C9
330
17
100
AcDbEntity
  8
R-OPISY
100
AcDbText
 10
0.01304503747444924
 20
-0.22115
 30
0.0
 40
0.0018000000000000002
  1
12
  7
PL_ARIAL
 11
0.01304503747444924
 21
-0.22115
 31
0.0
100
AcDbText
  0
TEXT
  5
2CA
330
17
100
AcDbEntity
  8
R-OPISY
100
AcDbText
 10
0.07163511242334772
 20
-0.22115
 30
0.0
 40
0.0018000000000000002
  1
925
  7
PL_ARIAL
 11
0.07163511242334772
 21
-0.22115
 31
0.0
100
AcDbText
  0
TEXT
  5
2CB
330
17
100
AcDbEntity
  8
R-OPISY
100
AcDbText
 10
0.08654503747444924
 20
-0.22115
 30
0.0
 40
0.0018000000000000002
  1
9
  7
PL_ARIAL
 11
0.08654503747444924
 21
-0.22115
 31
0.0
100
AcDbText
  0
TEXT
  5
2CC
330
17
100
AcDbEntity
  8
R-OPISY
100
AcDbText
 10
0.09217447195094254
 20
-0.22115
 30
0.0
 40
0.0018000000000000002
  1
ZF8
  7
PL_ARIAL
 11
0.09217447195094254
 21
-0.22115
 31
0.0
100
AcDbText
  0
TEXT
  5
2CD
330
17
100
AcDbEntity
  8
R-OPISY
100
AcDbText
 10
0.13245328185328187
 20
-0.22115
 30
0.0
 40
0.0018000000000000002
  1
83,25
  7
PL_ARIAL
 11
0.13245328185328187
 21
-0.22115
 31
0.0
100
AcDbText
  0
TEXT
  5
2CE
330
17
100
AcDbEntity
  8
R-OPISY
100
AcDbText
 10
0.003545037474449239
 20
-0.22565000000000002
 30
0.0
 40
0.0018000000000000002
  1
35
  7
PL_ARIAL
 11
0.003545037474449239
 21
-0.22565000000000002
 31
0.0
100
AcDbText
  0
TEXT
  5
2CF
330
17
100
AcDbEntity
  8
R-OPISY
100
AcDbText
 10
0.01304503747444924
 20
-0.22565000000000002
 30
0.0
 40
0.0018000000000000002
  1
20
  7
PL_ARIAL
 11
0.01304503747444924
 21
-0.22565000000000002
 31
0.0
100
AcDbText
  0
TEXT
  5
2D0
330
17
100
AcDbEntity
  8
R-OPISY
100
AcDbText
 10
0.07163511242334772
 20
-0.22565000000000002
 30
0.0
 40
0.0018000000000000002
  1
925
  7
PL_ARIAL
 11
0.07163511242334772
 21
-0.22565000000000002
 31
0.0
100
AcDbText
  0
TEXT
  5
2D1
330
17
100
AcDbEntity
  8
R-OPISY
100
AcDbText
 10
0.08509007494889848
 20
-0.22565000000000002
 30
0.0
 40
0.0018000000000000002
  1
10
  7
PL_ARIAL
 11
0.08509007494889848
 21
-0.22565000000000002
 31
0.0
100
AcDbText
  0
TEXT
  5
2D2
330
17
100
AcDbEntity
  8
R-OPISY
100
AcDbText
 10
0.09217447195094254
 20
-0.22565000000000002
 30
0.0
 40
0.0018000000000000002
  1
ZF8
  7
PL_ARIAL
 11
0.09217447195094254
 21
-0.22565000000000002
 31
0.0
100
AcDbText
  0
TEXT
  5
2D3
330
17
100
AcDbEntity
  8
R-OPISY
100
AcDbText
 10
0.16245328185328187
 20
-0.22565000000000002
 30
0.0
 40
0.0018000000000000002
  1
92,50
  7
PL_ARIAL
 11
0.16245328185328187
 21
-0.22565000000000002
 31
0.0
100
AcDbText
  0
TEXT
  5
2D4
330
17
100
AcDbEntity
  8
R-OPISY
100
AcDbText
 10
0.003545037474449239
 20
-0.23015000000000002
 30
0.0
 40
0.0018000000000000002
  1
36
  7
PL_ARIAL
 11
0.003545037474449239
 21
-0.23015000000000002
 31
0.0
100
AcDbText
  0
TEXT
  5
2D5
330
17
100
AcDbEntity
  8
R-OPISY
100
AcDbText
 10
0.01304503747444924
 20
-0.23015000000000002
 30
0.0
 40
0.0018000000000000002
  1
12
  7
PL_ARIAL
 11
0.01304503747444924
 21
-0.23015000000000002
 31
0.0
100
AcDbText
  0
TEXT
  5
2D6
330
17
100
AcDbEntity
  8
R-OPISY
100
AcDbText
 10
0.07163511242334772
 20
-0.23015000000000002
 30
0.0
 40
0.0018000000000000002
  1
628
  7
PL_ARIAL
 11
0.07163511242334772
 21
-0.23015000000000002
 31
0.0
100
AcDbText
  0
TEXT
  5
2D7
330
17
100
AcDbEntity
  8
R-OPISY
100
AcDbText
 10
0.08509007494889848
 20
-0.23015000000000002
 30
0.0
 40
0.0018000000000000002
  1
15
  7
PL_ARIAL
 11
0.08509007494889848
 21
-0.23015000000000002
 31
0.0
100
AcDbText
  0
TEXT
  5
2D8
330
17
100
AcDbEntity
  8
R-OPISY
100
AcDbText
 10
0.09217447195094254
 20
-0.23015000000000002
 30
0.0
 40
0.0018000000000000002
  1
ZF9
  7
PL_ARIAL
 11
0.09217447195094254
 21
-0.23015000000000002
 31
0.0
100
AcDbText
  0
TEXT
  5
2D9
330
17
100
AcDbEntity
  8
R-OPISY
100
AcDbText
 10
0.13245328185328187
 20
-0.23015000000000002
 30
0.0
 40
0.0018000000000000002
  1
94,20
  7
PL_ARIAL
 11
0.13245328185328187
 21
-0.23015000000000002
 31
0.0
100
AcDbText
  0
TEXT
  5
2DA
330
17
100
AcDbEntity
  8
R-OPISY
100
AcDbText
 10
0.003545037474449239
 20
-0.23465000000000003
 30
0.0
 40
0.0018000000000000002
  1
37
  7
PL_ARIAL
 11
0.003545037474449239
 21
-0.23465000000000003
 31
0.0
100
AcDbText
  0
TEXT
  5
2DB
330
17
100
AcDbEntity
  8
R-OPISY
100
AcDbText
 10
0.01304503747444924
 20
-0.23465000000000003
 30
0.0
 40
0.0018000000000000002
  1
16
  7
PL_ARIAL
 11
0.01304503747444924
 21
-0.23465000000000003
 31
0.0
100
AcDbText
  0
TEXT
  5
2DC
330
17
100
AcDbEntity
  8
R-OPISY
100
AcDbText
 10
0.07163511242334772
 20
-0.23465000000000003
 30
0.0
 40
0.0018000000000000002
  1
628
  7
PL_ARIAL
 11
0.07163511242334772
 21
-0.23465000000000003
 31
0.0
100
AcDbText
  0
TEXT
  5
2DD
330
17
100
AcDbEntity
  8
R-OPISY
100
AcDbText
 10
0.08654503747444924
 20
-0.23465000000000003
 30
0.0
 40
0.0018000000000000002
  1
8
  7
PL_ARIAL
 11
0.08654503747444924
 21
-0.23465000000000003
 31
0.0
100
AcDbText
  0
TEXT
  5
2DE
330
17
100
AcDbEntity
  8
R-OPISY
100
AcDbText
 10
0.09217447195094254
 20
-0.23465000000000003
 30
0.0
 40
0.0018000000000000002
  1
ZF9
  7
PL_ARIAL
 11
0.09217447195094254
 21
-0.23465000000000003
 31
0.0
100
AcDbText
  0
TEXT
  5
2DF
330
17
100
AcDbEntity
  8
R-OPISY
100
AcDbText
 10
0.15245328185328186
 20
-0.23465000000000003
 30
0.0
 40
0.0018000000000000002
  1
50,24
  7
PL_ARIAL
 11
0.15245328185328186
 21
-0.23465000000000003
 31
0.0
100
AcDbText
  0
TEXT
  5
2E0
330
17
100
AcDbEntity
  8
R-OPISY
100
AcDbText
 10
0.003545037474449239
 20
-0.23915000000000003
 30
0.0
 40
0.0018000000000000002
  1
38
  7
PL_ARIAL
 11
0.003545037474449239
 21
-0.23915000000000003
 31
0.0
100
AcDbText
  0
TEXT
  5
2E1
330
17
100
AcDbEntity
  8
R-OPISY
100
AcDbText
 10
0.01377251873722462
 20
-0.23915000000000003
 30
0.0
 40
0.0018000000000000002
  1
6
  7
PL_ARIAL
 11
0.01377251873722462
 21
-0.23915000000000003
 31
0.0
100
AcDbText
  0
TEXT
  5
2E2
330
17
100
AcDbEntity
  8
R-OPISY
100
AcDbText
 10
0.07163511242334772
 20
-0.23915000000000003
 30
0.0
 40
0.0018000000000000002
  1
178
  7
PL_ARIAL
 11
0.07163511242334772
 21
-0.23915000000000003
 31
0.0
100
AcDbText
  0
TEXT
  5
2E3
330
17
100
AcDbEntity
  8
R-OPISY
100
AcDbText
 10
0.08509007494889848
 20
-0.23915000000000003
 30
0.0
 40
0.0018000000000000002
  1
93
  7
PL_ARIAL
 11
0.08509007494889848
 21
-0.23915000000000003
 31
0.0
100
AcDbText
  0
TEXT
  5
2E4
330
17
100
AcDbEntity
  8
R-OPISY
100
AcDbText
 10
0.09217447195094254
 20
-0.23915000000000003
 30
0.0
 40
0.0018000000000000002
  1
ZF9
  7
PL_ARIAL
 11
0.09217447195094254
 21
-0.23915000000000003
 31
0.0
100
AcDbText
  0
TEXT
  5
2E5
330
17
100
AcDbEntity
  8
R-OPISY
100
AcDbText
 10
0.1009983193277311
 20
-0.23915000000000003
 30
0.0
 40
0.0018000000000000002
  1
165,54
  7
PL_ARIAL
 11
0.1009983193277311
 21
-0.23915000000000003
 31
0.0
100
AcDbText
  0
TEXT
  5
2E6
330
17
100
AcDbEntity
  8
R-OPISY
100
AcDbText
 10
0.003545037474449239
 20
-0.24365
 30
0.0
 40
0.0018000000000000002
  1
39
  7
PL_ARIAL
 11
0.003545037474449239
 21
-0.24365
 31
0.0
100
AcDbText
  0
TEXT
  5
2E7
330
17
100
AcDbEntity
  8
R-OPISY
100
AcDbText
 10
0.01304503747444924
 20
-0.24365
 30
0.0
 40
0.0018000000000000002
  1
12
  7
PL_ARIAL
 11
0.01304503747444924
 21
-0.24365
 31
0.0
100
AcDbText
  0
TEXT
  5
2E8
330
17
100
AcDbEntity
  8
R-OPISY
100
AcDbText
 10
0.07163511242334772
 20
-0.24365
 30
0.0
 40
0.0018000000000000002
  1
171
  7
PL_ARIAL
 11
0.07163511242334772
 21
-0.24365
 31
0.0
100
AcDbText
  0
TEXT
  5
2E9
330
17
100
AcDbEntity
  8
R-OPISY
100
AcDbText
 10
0.08654503747444924
 20
-0.24365
 30
0.0
 40
0.0018000000000000002
  1
5
  7
PL_ARIAL
 11
0.08654503747444924
 21
-0.24365
 31
0.0
100
AcDbText
  0
TEXT
  5
2EA
330
17
100
AcDbEntity
  8
R-OPISY
100
AcDbText
 10
0.09144699068816715
 20
-0.24365
 30
0.0
 40
0.0018000000000000002
  1
ZF10
  7
PL_ARIAL
 11
0.09144699068816715
 21
-0.24365
 31
0.0
100
AcDbText
  0
TEXT
  5
2EB
330
17
100
AcDbEntity
  8
R-OPISY
100
AcDbText
 10
0.1339082443788326
 20
-0.24365
 30
0.0
 40
0.0018000000000000002
  1
8,55
  7
PL_ARIAL
 11
0.1339082443788326
 21
-0.24365
 31
0.0
100
AcDbText
  0
TEXT
  5
2EC
330
17
100
AcDbEntity
  8
R-OPISY
100
AcDbText
 10
0.003545037474449239
 20
-0.24815
 30
0.0
 40
0.0018000000000000002
  1
40
  7
PL_ARIAL
 11
0.003545037474449239
 21
-0.24815
 31
0.0
100
AcDbText
  0
TEXT
  5
2ED
330
17
100
AcDbEntity
  8
R-OPISY
100
AcDbText
 10
0.01304503747444924
 20
-0.24815
 30
0.0
 40
0.0018000000000000002
  1
12
  7
PL_ARIAL
 11
0.01304503747444924
 21
-0.24815
 31
0.0
100
AcDbText
  0
TEXT
  5
2EE
330
17
100
AcDbEntity
  8
R-OPISY
100
AcDbText
 10
0.07163511242334772
 20
-0.24815
 30
0.0
 40
0.0018000000000000002
  1
390
  7
PL_ARIAL
 11
0.07163511242334772
 21
-0.24815
 31
0.0
100
AcDbText
  0
TEXT
  5
2EF
330
17
100
AcDbEntity
  8
R-OPISY
100
AcDbText
 10
0.08654503747444924
 20
-0.24815
 30
0.0
 40
0.0018000000000000002
  1
6
  7
PL_ARIAL
 11
0.08654503747444924
 21
-0.24815
 31
0.0
100
AcDbText
  0
TEXT
  5
2F0
330
17
100
AcDbEntity
  8
R-OPISY
100
AcDbText
 10
0.0915440835793777
 20
-0.24815
 30
0.0
 40
0.0018000000000000002
  1
ZF11
  7
PL_ARIAL
 11
0.0915440835793777
 21
-0.24815
 31
0.0
100
AcDbText
  0
TEXT
  5
2F1
330
17
100
AcDbEntity
  8
R-OPISY
100
AcDbText
 10
0.13245328185328187
 20
-0.24815
 30
0.0
 40
0.0018000000000000002
  1
23,40
  7
PL_ARIAL
 11
0.13245328185328187
 21
-0.24815
 31
0.0
100
AcDbText
  0
TEXT
  5
2F2
330
17
100
AcDbEntity
  8
R-OPISY
100
AcDbText
 10
0.003545037474449239
 20
-0.25265000000000004
 30
0.0
 40
0.0018000000000000002
  1
41
  7
PL_ARIAL
 11
0.003545037474449239
 21
-0.25265000000000004
 31
0.0
100
AcDbText
  0
TEXT
  5
2F3
330
17
100
AcDbEntity
  8
R-OPISY
100
AcDbText
 10
0.01304503747444924
 20
-0.25265000000000004
 30
0.0
 40
0.0018000000000000002
  1
20
  7
PL_ARIAL
 11
0.01304503747444924
 21
-0.25265000000000004
 31
0.0
100
AcDbText
  0
TEXT
  5
2F4
330
17
100
AcDbEntity
  8
R-OPISY
100
AcDbText
 10
0.07163511242334772
 20
-0.25265000000000004
 30
0.0
 40
0.0018000000000000002
  1
403
  7
PL_ARIAL
 11
0.07163511242334772
 21
-0.25265000000000004
 31
0.0
100
AcDbText
  0
TEXT
  5
2F5
330
17
100
AcDbEntity
  8
R-OPISY
100
AcDbText
 10
0.08654503747444924
 20
-0.25265000000000004
 30
0.0
 40
0.0018000000000000002
  1
7
  7
PL_ARIAL
 11
0.08654503747444924
 21
-0.25265000000000004
 31
0.0
100
AcDbText
  0
TEXT
  5
2F6
330
17
100
AcDbEntity
  8
R-OPISY
100
AcDbText
 10
0.09144699068816715
 20
-0.25265000000000004
 30
0.0
 40
0.0018000000000000002
  1
ZF12
  7
PL_ARIAL
 11
0.09144699068816715
 21
-0.25265000000000004
 31
0.0
100
AcDbText
  0
TEXT
  5
2F7
330
17
100
AcDbEntity
  8
R-OPISY
100
AcDbText
 10
0.16245328185328187
 20
-0.25265000000000004
 30
0.0
 40
0.0018000000000000002
  1
28,21
  7
PL_ARIAL
 11
0.16245328185328187
 21
-0.25265000000000004
 31
0.0
100
AcDbText
  0
TEXT
  5
2F8
330
17
100
AcDbEntity
  8
R-OPISY
100
AcDbText
 10
0.003545037474449239
 20
-0.25715
 30
0.0
 40
0.0018000000000000002
  1
42
  7
PL_ARIAL
 11
0.003545037474449239
 21
-0.25715
 31
0.0
100
AcDbText
  0
TEXT
  5
2F9
330
17
100
AcDbEntity
  8
R-OPISY
100
AcDbText
 10
0.01304503747444924
 20
-0.25715
 30
0.0
 40
0.0018000000000000002
  1
12
  7
PL_ARIAL
 11
0.01304503747444924
 21
-0.25715
 31
0.0
100
AcDbText
  0
TEXT
  5
2FA
330
17
100
AcDbEntity
  8
R-OPISY
100
AcDbText
 10
0.07163511242334772
 20
-0.25715
 30
0.0
 40
0.0018000000000000002
  1
403
  7
PL_ARIAL
 11
0.07163511242334772
 21
-0.25715
 31
0.0
100
AcDbText
  0
TEXT
  5
2FB
330
17
100
AcDbEntity
  8
R-OPISY
100
AcDbText
 10
0.08654503747444924
 20
-0.25715
 30
0.0
 40
0.0018000000000000002
  1
6
  7
PL_ARIAL
 11
0.08654503747444924
 21
-0.25715
 31
0.0
100
AcDbText
  0
TEXT
  5
2FC
330
17
100
AcDbEntity
  8
R-OPISY
100
AcDbText
 10
0.09144699068816715
 20
-0.25715
 30
0.0
 40
0.0018000000000000002
  1
ZF12
  7
PL_ARIAL
 11
0.09144699068816715
 21
-0.25715
 31
0.0
100
AcDbText
  0
TEXT
  5
2FD
330
17
100
AcDbEntity
  8
R-OPISY
100
AcDbText
 10
0.13245328185328187
 20
-0.25715
 30
0.0
 40
0.0018000000000000002
  1
24,18
  7
PL_ARIAL
 11
0.13245328185328187
 21
-0.25715
 31
0.0
100
AcDbText
  0
TEXT
  5
2FE
330
17
100
AcDbEntity
  8
R-OPISY
100
AcDbText
 10
0.003545037474449239
 20
-0.26165
 30
0.0
 40
0.0018000000000000002
  1
43
  7
PL_ARIAL
 11
0.003545037474449239
 21
-0.26165
 31
0.0
100
AcDbText
  0
TEXT
  5
2FF
330
17
100
AcDbEntity
  8
R-OPISY
100
AcDbText
 10
0.01304503747444924
 20
-0.26165
 30
0.0
 40
0.0018000000000000002
  1
16
  7
PL_ARIAL
 11
0.01304503747444924
 21
-0.26165
 31
0.0
100
AcDbText
  0
TEXT
  5
300
330
17
100
AcDbEntity
  8
R-OPISY
100
AcDbText
 10
0.07163511242334772
 20
-0.26165
 30
0.0
 40
0.0018000000000000002
  1
403
  7
PL_ARIAL
 11
0.07163511242334772
 21
-0.26165
 31
0.0
100
AcDbText
  0
TEXT
  5
301
330
17
100
AcDbEntity
  8
R-OPISY
100
AcDbText
 10
0.08509007494889848
 20
-0.26165
 30
0.0
 40
0.0018000000000000002
  1
19
  7
PL_ARIAL
 11
0.08509007494889848
 21
-0.26165
 31
0.0
100
AcDbText
  0
TEXT
  5
302
330
17
100
AcDbEntity
  8
R-OPISY
100
AcDbText
 10
0.09144699068816715
 20
-0.26165
 30
0.0
 40
0.0018000000000000002
  1
ZF13
  7
PL_ARIAL
 11
0.09144699068816715
 21
-0.26165
 31
0.0
100
AcDbText
  0
TEXT
  5
303
330
17
100
AcDbEntity
  8
R-OPISY
100
AcDbText
 10
0.15245328185328186
 20
-0.26165
 30
0.0
 40
0.0018000000000000002
  1
76,57
  7
PL_ARIAL
 11
0.15245328185328186
 21
-0.26165
 31
0.0
100
AcDbText
  0
TEXT
  5
304
330
17
100
AcDbEntity
  8
R-OPISY
100
AcDbText
 10
0.003545037474449239
 20
-0.26615
 30
0.0
 40
0.0018000000000000002
  1
44
  7
PL_ARIAL
 11
0.003545037474449239
 21
-0.26615
 31
0.0
100
AcDbText
  0
TEXT
  5
305
330
17
100
AcDbEntity
  8
R-OPISY
100
AcDbText
 10
0.01304503747444924
 20
-0.26615
 30
0.0
 40
0.0018000000000000002
  1
12
  7
PL_ARIAL
 11
0.01304503747444924
 21
-0.26615
 31
0.0
100
AcDbText
  0
TEXT
  5
306
330
17
100
AcDbEntity
  8
R-OPISY
100
AcDbText
 10
0.07163511242334772
 20
-0.26615
 30
0.0
 40
0.0018000000000000002
  1
328
  7
PL_ARIAL
 11
0.07163511242334772
 21
-0.26615
 31
0.0
100
AcDbText
  0
TEXT
  5
307
330
17
100
AcDbEntity
  8
R-OPISY
100
AcDbText
 10
0.08654503747444924
 20
-0.26615
 30
0.0
 40
0.0018000000000000002
  1
4
  7
PL_ARIAL
 11
0.08654503747444924
 21
-0.26615
 31
0.0
100
AcDbText
  0
TEXT
  5
308
330
17
100
AcDbEntity
  8
R-OPISY
100
AcDbText
 10
0.09144699068816715
 20
-0.26615
 30
0.0
 40
0.0018000000000000002
  1
ZF15
  7
PL_ARIAL
 11
0.09144699068816715
 21
-0.26615
 31
0.0
100
AcDbText
  0
TEXT
  5
309
330
17
100
AcDbEntity
  8
R-OPISY
100
AcDbText
 10
0.13245328185328187
 20
-0.26615
 30
0.0
 40
0.0018000000000000002
  1
13,12
  7
PL_ARIAL
 11
0.13245328185328187
 21
-0.26615
 31
0.0
100
AcDbText
  0
TEXT
  5
30A
330
17
100
AcDbEntity
  8
R-OPISY
100
AcDbText
 10
0.003545037474449239
 20
-0.27065
 30
0.0
 40
0.0018000000000000002
  1
45
  7
PL_ARIAL
 11
0.003545037474449239
 21
-0.27065
 31
0.0
100
AcDbText
  0
TEXT
  5
30B
330
17
100
AcDbEntity
  8
R-OPISY
100
AcDbText
 10
0.01377251873722462
 20
-0.27065
 30
0.0
 40
0.0018000000000000002
  1
6
  7
PL_ARIAL
 11
0.01377251873722462
 21
-0.27065
 31
0.0
100
AcDbText
  0
TEXT
  5
30C
330
17
100
AcDbEntity
  8
R-OPISY
100
AcDbText
 10
0.07163511242334772
 20
-0.27065
 30
0.0
 40
0.0018000000000000002
  1
188
  7
PL_ARIAL
 11
0.07163511242334772
 21
-0.27065
 31
0.0
100
AcDbText
  0
TEXT
  5
30D
330
17
100
AcDbEntity
  8
R-OPISY
100
AcDbText
 10
0.08509007494889848
 20
-0.27065
 30
0.0
 40
0.0018000000000000002
  1
44
  7
PL_ARIAL
 11
0.08509007494889848
 21
-0.27065
 31
0.0
100
AcDbText
  0
TEXT
  5
30E
330
17
100
AcDbEntity
  8
R-OPISY
100
AcDbText
 10
0.09144699068816715
 20
-0.27065
 30
0.0
 40
0.0018000000000000002
  1
ZF16
  7
PL_ARIAL
 11
0.09144699068816715
 21
-0.27065
 31
0.0
100
AcDbText
  0
TEXT
  5
30F
330
17
100
AcDbEntity
  8
R-OPISY
100
AcDbText
 10
0.10245328185328186
 20
-0.27065
 30
0.0
 40
0.0018000000000000002
  1
82,72
  7
PL_ARIAL
 11
0.10245328185328186
 21
-0.27065
 31
0.0
100
AcDbText
  0
TEXT
  5
310
330
17
100
AcDbEntity
  8
R-OPISY
100
AcDbText
 10
0.003545037474449239
 20
-0.27515
 30
0.0
 40
0.0018000000000000002
  1
46
  7
PL_ARIAL
 11
0.003545037474449239
 21
-0.27515
 31
0.0
100
AcDbText
  0
TEXT
  5
311
330
17
100
AcDbEntity
  8
R-OPISY
100
AcDbText
 10
0.01304503747444924
 20
-0.27515
 30
0.0
 40
0.0018000000000000002
  1
12
  7
PL_ARIAL
 11
0.01304503747444924
 21
-0.27515
 31
0.0
100
AcDbText
  0
TEXT
  5
312
330
17
100
AcDbEntity
  8
R-OPISY
100
AcDbText
 10
0.07163511242334772
 20
-0.27515
 30
0.0
 40
0.0018000000000000002
  1
678
  7
PL_ARIAL
 11
0.07163511242334772
 21
-0.27515
 31
0.0
100
AcDbText
  0
TEXT
  5
313
330
17
100
AcDbEntity
  8
R-OPISY
100
AcDbText
 10
0.08654503747444924
 20
-0.27515
 30
0.0
 40
0.0018000000000000002
  1
4
  7
PL_ARIAL
 11
0.08654503747444924
 21
-0.27515
 31
0.0
100
AcDbText
  0
TEXT
  5
314
330
17
100
AcDbEntity
  8
R-OPISY
100
AcDbText
 10
0.09144699068816715
 20
-0.27515
 30
0.0
 40
0.0018000000000000002
  1
ZF17
  7
PL_ARIAL
 11
0.09144699068816715
 21
-0.27515
 31
0.0
100
AcDbText
  0
TEXT
  5
315
330
17
100
AcDbEntity
  8
R-OPISY
100
AcDbText
 10
0.13245328185328187
 20
-0.27515
 30
0.0
 40
0.0018000000000000002
  1
27,12
  7
PL_ARIAL
 11
0.13245328185328187
 21
-0.27515
 31
0.0
100
AcDbText
  0
TEXT
  5
316
330
17
100
AcDbEntity
  8
R-OPISY
100
AcDbText
 10
0.003545037474449239
 20
-0.27965
 30
0.0
 40
0.0018000000000000002
  1
47
  7
PL_ARIAL
 11
0.003545037474449239
 21
-0.27965
 31
0.0
100
AcDbText
  0
TEXT
  5
317
330
17
100
AcDbEntity
  8
R-OPISY
100
AcDbText
 10
0.01304503747444924
 20
-0.27965
 30
0.0
 40
0.0018000000000000002
  1
20
  7
PL_ARIAL
 11
0.01304503747444924
 21
-0.27965
 31
0.0
100
AcDbText
  0
TEXT
  5
318
330
17
100
AcDbEntity
  8
R-OPISY
100
AcDbText
 10
0.07163511242334772
 20
-0.27965
 30
0.0
 40
0.0018000000000000002
  1
215
  7
PL_ARIAL
 11
0.07163511242334772
 21
-0.27965
 31
0.0
100
AcDbText
  0
TEXT
  5
319
330
17
100
AcDbEntity
  8
R-OPISY
100
AcDbText
 10
0.08509007494889848
 20
-0.27965
 30
0.0
 40
0.0018000000000000002
  1
24
  7
PL_ARIAL
 11
0.08509007494889848
 21
-0.27965
 31
0.0
100
AcDbText
  0
TEXT
  5
31A
330
17
100
AcDbEntity
  8
R-OPISY
100
AcDbText
 10
0.0905003861003861
 20
-0.27965
 30
0.0
 40
0.0018000000000000002
  1
naroża
  7
PL_ARIAL
 11
0.0905003861003861
 21
-0.27965
 31
0.0
100
AcDbText
  0
TEXT
  5
31B
330
17
100
AcDbEntity
  8
R-OPISY
100
AcDbText
 10
0.16245328185328187
 20
-0.27965
 30
0.0
 40
0.0018000000000000002
  1
51,60
  7
PL_ARIAL
 11
0.16245328185328187
 21
-0.27965
 31
0.0
100
AcDbText
  0
TEXT
  5
31C
330
17
100
AcDbEntity
  8
R-OPISY
100
AcDbText
 10
0.003545037474449239
 20
-0.28415
 30
0.0
 40
0.0018000000000000002
  1
48
  7
PL_ARIAL
 11
0.003545037474449239
 21
-0.28415
 31
0.0
100
AcDbText
  0
TEXT
  5
31D
330
17
100
AcDbEntity
  8
R-OPISY
100
AcDbText
 10
0.01304503747444924
 20
-0.28415
 30
0.0
 40
0.0018000000000000002
  1
14
  7
PL_ARIAL
 11
0.01304503747444924
 21
-0.28415
 31
0.0
100
AcDbText
  0
TEXT
  5
31E
330
17
100
AcDbEntity
  8
R-OPISY
100
AcDbText
 10
0.07182929820576879
 20
-0.28415
 30
0.0
 40
0.0018000000000000002
  1
116
  7
PL_ARIAL
 11
0.07182929820576879
 21
-0.28415
 31
0.0
100
AcDbText
  0
TEXT
  5
31F
330
17
100
AcDbEntity
  8
R-OPISY
100
AcDbText
 10
0.08509007494889848
 20
-0.28415
 30
0.0
 40
0.0018000000000000002
  1
16
  7
PL_ARIAL
 11
0.08509007494889848
 21
-0.28415
 31
0.0
100
AcDbText
  0
TEXT
  5
320
330
17
100
AcDbEntity
  8
R-OPISY
100
AcDbText
 10
0.09210088575970929
 20
-0.28415
 30
0.0
 40
0.0018000000000000002
  1
SF1
  7
PL_ARIAL
 11
0.09210088575970929
 21
-0.28415
 31
0.0
100
AcDbText
  0
TEXT
  5
321
330
17
100
AcDbEntity
  8
R-OPISY
100
AcDbText
 10
0.14245328185328185
 20
-0.28415
 30
0.0
 40
0.0018000000000000002
  1
18,56
  7
PL_ARIAL
 11
0.14245328185328185
 21
-0.28415
 31
0.0
100
AcDbText
  0
TEXT
  5
322
330
17
100
AcDbEntity
  8
R-OPISY
100
AcDbText
 10
0.003545037474449239
 20
-0.28865
 30
0.0
 40
0.0018000000000000002
  1
49
  7
PL_ARIAL
 11
0.003545037474449239
 21
-0.28865
 31
0.0
100
AcDbText
  0
TEXT
  5
323
330
17
100
AcDbEntity
  8
R-OPISY
100
AcDbText
 10
0.01304503747444924
 20
-0.28865
 30
0.0
 40
0.0018000000000000002
  1
14
  7
PL_ARIAL
 11
0.01304503747444924
 21
-0.28865
 31
0.0
100
AcDbText
  0
TEXT
  5
324
330
17
100
AcDbEntity
  8
R-OPISY
100
AcDbText
 10
0.07182929820576879
 20
-0.28865
 30
0.0
 40
0.0018000000000000002
  1
115
  7
PL_ARIAL
 11
0.07182929820576879
 21
-0.28865
 31
0.0
100
AcDbText
  0
TEXT
  5
325
330
17
100
AcDbEntity
  8
R-OPISY
100
AcDbText
 10
0.08509007494889848
 20
-0.28865
 30
0.0
 40
0.0018000000000000002
  1
17
  7
PL_ARIAL
 11
0.08509007494889848
 21
-0.28865
 31
0.0
100
AcDbText
  0
TEXT
  5
326
330
17
100
AcDbEntity
  8
R-OPISY
100
AcDbText
 10
0.09210088575970929
 20
-0.28865
 30
0.0
 40
0.0018000000000000002
  1
SF1
  7
PL_ARIAL
 11
0.09210088575970929
 21
-0.28865
 31
0.0
100
AcDbText
  0
TEXT
  5
327
330
17
100
AcDbEntity
  8
R-OPISY
100
AcDbText
 10
0.14245328185328185
 20
-0.28865
 30
0.0
 40
0.0018000000000000002
  1
19,55
  7
PL_ARIAL
 11
0.14245328185328185
 21
-0.28865
 31
0.0
100
AcDbText
  0
TEXT
  5
328
330
17
100
AcDbEntity
  8
R-OPISY
100
AcDbText
 10
0.003545037474449239
 20
-0.29315
 30
0.0
 40
0.0018000000000000002
  1
50
  7
PL_ARIAL
 11
0.003545037474449239
 21
-0.29315
 31
0.0
100
AcDbText
  0
TEXT
  5
329
330
17
100
AcDbEntity
  8
R-OPISY
100
AcDbText
 10
0.01304503747444924
 20
-0.29315
 30
0.0
 40
0.0018000000000000002
  1
20
  7
PL_ARIAL
 11
0.01304503747444924
 21
-0.29315
 31
0.0
100
AcDbText
  0
TEXT
  5
32A
330
17
100
AcDbEntity
  8
R-OPISY
100
AcDbText
 10
0.07182929820576879
 20
-0.29315
 30
0.0
 40
0.0018000000000000002
  1
110
  7
PL_ARIAL
 11
0.07182929820576879
 21
-0.29315
 31
0.0
100
AcDbText
  0
TEXT
  5
32B
330
17
100
AcDbEntity
  8
R-OPISY
100
AcDbText
 10
0.08654503747444924
 20
-0.29315
 30
0.0
 40
0.0018000000000000002
  1
7
  7
PL_ARIAL
 11
0.08654503747444924
 21
-0.29315
 31
0.0
100
AcDbText
  0
TEXT
  5
32C
330
17
100
AcDbEntity
  8
R-OPISY
100
AcDbText
 10
0.09210088575970929
 20
-0.29315
 30
0.0
 40
0.0018000000000000002
  1
SF2
  7
PL_ARIAL
 11
0.09210088575970929
 21
-0.29315
 31
0.0
100
AcDbText
  0
TEXT
  5
32D
330
17
100
AcDbEntity
  8
R-OPISY
100
AcDbText
 10
0.1639082443788326
 20
-0.29315
 30
0.0
 40
0.0018000000000000002
  1
7,70
  7
PL_ARIAL
 11
0.1639082443788326
 21
-0.29315
 31
0.0
100
AcDbText
  0
TEXT
  5
32E
330
17
100
AcDbEntity
  8
R-OPISY
100
AcDbText
 10
0.003545037474449239
 20
-0.29765
 30
0.0
 40
0.0018000000000000002
  1
51
  7
PL_ARIAL
 11
0.003545037474449239
 21
-0.29765
 31
0.0
100
AcDbText
  0
TEXT
  5
32F
330
17
100
AcDbEntity
  8
R-OPISY
100
AcDbText
 10
0.01304503747444924
 20
-0.29765
 30
0.0
 40
0.0018000000000000002
  1
20
  7
PL_ARIAL
 11
0.01304503747444924
 21
-0.29765
 31
0.0
100
AcDbText
  0
TEXT
  5
330
330
17
100
AcDbEntity
  8
R-OPISY
100
AcDbText
 10
0.07163511242334772
 20
-0.29765
 30
0.0
 40
0.0018000000000000002
  1
109
  7
PL_ARIAL
 11
0.07163511242334772
 21
-0.29765
 31
0.0
100
AcDbText
  0
TEXT
  5
331
330
17
100
AcDbEntity
  8
R-OPISY
100
AcDbText
 10
0.08654503747444924
 20
-0.29765
 30
0.0
 40
0.0018000000000000002
  1
7
  7
PL_ARIAL
 11
0.08654503747444924
 21
-0.29765
 31
0.0
100
AcDbText
  0
TEXT
  5
332
330
17
100
AcDbEntity
  8
R-OPISY
100
AcDbText
 10
0.09210088575970929
 20
-0.29765
 30
0.0
 40
0.0018000000000000002
  1
SF2
  7
PL_ARIAL
 11
0.09210088575970929
 21
-0.29765
 31
0.0
100
AcDbText
  0
TEXT
  5
333
330
17
100
AcDbEntity
  8
R-OPISY
100
AcDbText
 10
0.1639082443788326
 20
-0.29765
 30
0.0
 40
0.0018000000000000002
  1
7,63
  7
PL_ARIAL
 11
0.1639082443788326
 21
-0.29765
 31
0.0
100
AcDbText
  0
TEXT
  5
334
330
17
100
AcDbEntity
  8
R-OPISY
100
AcDbText
 10
0.003545037474449239
 20
-0.30215000000000003
 30
0.0
 40
0.0018000000000000002
  1
52
  7
PL_ARIAL
 11
0.003545037474449239
 21
-0.30215000000000003
 31
0.0
100
AcDbText
  0
TEXT
  5
335
330
17
100
AcDbEntity
  8
R-OPISY
100
AcDbText
 10
0.01304503747444924
 20
-0.30215000000000003
 30
0.0
 40
0.0018000000000000002
  1
12
  7
PL_ARIAL
 11
0.01304503747444924
 21
-0.30215000000000003
 31
0.0
100
AcDbText
  0
TEXT
  5
336
330
17
100
AcDbEntity
  8
R-OPISY
100
AcDbText
 10
0.07182929820576879
 20
-0.30215000000000003
 30
0.0
 40
0.0018000000000000002
  1
117
  7
PL_ARIAL
 11
0.07182929820576879
 21
-0.30215000000000003
 31
0.0
100
AcDbText
  0
TEXT
  5
337
330
17
100
AcDbEntity
  8
R-OPISY
100
AcDbText
 10
0.08654503747444924
 20
-0.30215000000000003
 30
0.0
 40
0.0018000000000000002
  1
9
  7
PL_ARIAL
 11
0.08654503747444924
 21
-0.30215000000000003
 31
0.0
100
AcDbText
  0
TEXT
  5
338
330
17
100
AcDbEntity
  8
R-OPISY
100
AcDbText
 10
0.09210088575970929
 20
-0.30215000000000003
 30
0.0
 40
0.0018000000000000002
  1
SF3
  7
PL_ARIAL
 11
0.09210088575970929
 21
-0.30215000000000003
 31
0.0
100
AcDbText
  0
TEXT
  5
339
330
17
100
AcDbEntity
  8
R-OPISY
100
AcDbText
 10
0.13245328185328187
 20
-0.30215000000000003
 30
0.0
 40
0.0018000000000000002
  1
10,53
  7
PL_ARIAL
 11
0.13245328185328187
 21
-0.30215000000000003
 31
0.0
100
AcDbText
  0
TEXT
  5
33A
330
17
100
AcDbEntity
  8
R-OPISY
100
AcDbText
 10
0.003545037474449239
 20
-0.30665000000000003
 30
0.0
 40
0.0018000000000000002
  1
53
  7
PL_ARIAL
 11
0.003545037474449239
 21
-0.30665000000000003
 31
0.0
100
AcDbText
  0
TEXT
  5
33B
330
17
100
AcDbEntity
  8
R-OPISY
100
AcDbText
 10
0.01304503747444924
 20
-0.30665000000000003
 30
0.0
 40
0.0018000000000000002
  1
12
  7
PL_ARIAL
 11
0.01304503747444924
 21
-0.30665000000000003
 31
0.0
100
AcDbText
  0
TEXT
  5
33C
330
17
100
AcDbEntity
  8
R-OPISY
100
AcDbText
 10
0.07182929820576879
 20
-0.30665000000000003
 30
0.0
 40
0.0018000000000000002
  1
116
  7
PL_ARIAL
 11
0.07182929820576879
 21
-0.30665000000000003
 31
0.0
100
AcDbText
  0
TEXT
  5
33D
330
17
100
AcDbEntity
  8
R-OPISY
100
AcDbText
 10
0.08654503747444924
 20
-0.30665000000000003
 30
0.0
 40
0.0018000000000000002
  1
9
  7
PL_ARIAL
 11
0.08654503747444924
 21
-0.30665000000000003
 31
0.0
100
AcDbText
  0
TEXT
  5
33E
330
17
100
AcDbEntity
  8
R-OPISY
100
AcDbText
 10
0.09210088575970929
 20
-0.30665000000000003
 30
0.0
 40
0.0018000000000000002
  1
SF3
  7
PL_ARIAL
 11
0.09210088575970929
 21
-0.30665000000000003
 31
0.0
100
AcDbText
  0
TEXT
  5
33F
330
17
100
AcDbEntity
  8
R-OPISY
100
AcDbText
 10
0.13245328185328187
 20
-0.30665000000000003
 30
0.0
 40
0.0018000000000000002
  1
10,44
  7
PL_ARIAL
 11
0.13245328185328187
 21
-0.30665000000000003
 31
0.0
100
AcDbText
  0
TEXT
  5
340
330
17
100
AcDbEntity
  8
R-OPISY
100
AcDbText
 10
0.02
 20
-0.31115000000000004
 30
0.0
 40
0.0018000000000000002
  1
Długość całkowita [m]
  7
PL_ARIAL
 11
0.02
 21
-0.31115000000000004
 31
0.0
100
AcDbText
  0
TEXT
  5
341
330
17
100
AcDbEntity
  8
R-OPISY
100
AcDbText
 10
0.10245328185328186
 20
-0.31115000000000004
 30
0.0
 40
0.0018000000000000002
  1
587,3
  7
PL_ARIAL
 11
0.10245328185328186
 21
-0.31115000000000004
 31
0.0
100
AcDbText
  0
TEXT
  5
342
330
17
100
AcDbEntity
  8
R-OPISY
100
AcDbText
 10
0.11264746763570294
 20
-0.31115000000000004
 30
0.0
 40
0.0018000000000000002
  1
119,4
  7
PL_ARIAL
 11
0.11264746763570294
 21
-0.31115000000000004
 31
0.0
100
AcDbText
  0
TEXT
  5
343
330
17
100
AcDbEntity
  8
R-OPISY
100
AcDbText
 10
0.12245328185328186
 20
-0.31115000000000004
 30
0.0
 40
0.0018000000000000002
  1
368,6
  7
PL_ARIAL
 11
0.12245328185328186
 21
-0.31115000000000004
 31
0.0
100
AcDbText
  0
TEXT
  5
344
330
17
100
AcDbEntity
  8
R-OPISY
100
AcDbText
 10
0.13245328185328187
 20
-0.31115000000000004
 30
0.0
 40
0.0018000000000000002
  1
641,8
  7
PL_ARIAL
 11
0.13245328185328187
 21
-0.31115000000000004
 31
0.0
100
AcDbText
  0
TEXT
  5
345
330
17
100
AcDbEntity
  8
R-OPISY
100
AcDbText
 10
0.14099831932773108
 20
-0.31115000000000004
 30
0.0
 40
0.0018000000000000002
  1
6983,4
  7
PL_ARIAL
 11
0.14099831932773108
 21
-0.31115000000000004
 31
0.0
100
AcDbText
  0
TEXT
  5
346
330
17
100
AcDbEntity
  8
R-OPISY
100
AcDbText
 10
0.15245328185328186
 20
-0.31115000000000004
 30
0.0
 40
0.0018000000000000002
  1
126,8
  7
PL_ARIAL
 11
0.15245328185328186
 21
-0.31115000000000004
 31
0.0
100
AcDbText
  0
TEXT
  5
347
330
17
100
AcDbEntity
  8
R-OPISY
100
AcDbText
 10
0.16245328185328187
 20
-0.31115000000000004
 30
0.0
 40
0.0018000000000000002
  1
289,5
  7
PL_ARIAL
 11
0.16245328185328187
 21
-0.31115000000000004
 31
0.0
100
AcDbText
  0
TEXT
  5
348
330
17
100
AcDbEntity
  8
R-OPISY
100
AcDbText
 10
0.17245328185328185
 20
-0.31115000000000004
 30
0.0
 40
0.0018000000000000002
  1
392,8
  7
PL_ARIAL
 11
0.17245328185328185
 21
-0.31115000000000004
 31
0.0
100
AcDbText
  0
TEXT
  5
349
330
17
100
AcDbEntity
  8
R-OPISY
100
AcDbText
 10
0.02
 20
-0.31565000000000004
 30
0.0
 40
0.0018000000000000002
  1
Masa jednostkowa [kg/m]
  7
PL_ARIAL
 11
0.02
 21
-0.31565000000000004
 31
0.0
100
AcDbText
  0
TEXT
  5
34A
330
17
100
AcDbEntity
  8
R-OPISY
100
AcDbText
 10
0.10245328185328186
 20
-0.31565000000000004
 30
0.0
 40
0.0018000000000000002
  1
0,222
  7
PL_ARIAL
 11
0.10245328185328186
 21
-0.31565000000000004
 31
0.0
100
AcDbText
  0
TEXT
  5
34B
330
17
100
AcDbEntity
  8
R-OPISY
100
AcDbText
 10
0.11245328185328186
 20
-0.31565000000000004
 30
0.0
 40
0.0018000000000000002
  1
0,395
  7
PL_ARIAL
 11
0.11245328185328186
 21
-0.31565000000000004
 31
0.0
100
AcDbText
  0
TEXT
  5
34C
330
17
100
AcDbEntity
  8
R-OPISY
100
AcDbText
 10
0.12245328185328186
 20
-0.31565000000000004
 30
0.0
 40
0.0018000000000000002
  1
0,617
  7
PL_ARIAL
 11
0.12245328185328186
 21
-0.31565000000000004
 31
0.0
100
AcDbText
  0
TEXT
  5
34D
330
17
100
AcDbEntity
  8
R-OPISY
100
AcDbText
 10
0.13245328185328187
 20
-0.31565000000000004
 30
0.0
 40
0.0018000000000000002
  1
0,888
  7
PL_ARIAL
 11
0.13245328185328187
 21
-0.31565000000000004
 31
0.0
100
AcDbText
  0
TEXT
  5
34E
330
17
100
AcDbEntity
  8
R-OPISY
100
AcDbText
 10
0.14245328185328185
 20
-0.31565000000000004
 30
0.0
 40
0.0018000000000000002
  1
1,208
  7
PL_ARIAL
 11
0.14245328185328185
 21
-0.31565000000000004
 31
0.0
100
AcDbText
  0
TEXT
  5
34F
330
17
100
AcDbEntity
  8
R-OPISY
100
AcDbText
 10
0.15245328185328186
 20
-0.31565000000000004
 30
0.0
 40
0.0018000000000000002
  1
1,578
  7
PL_ARIAL
 11
0.15245328185328186
 21
-0.31565000000000004
 31
0.0
100
AcDbText
  0
TEXT
  5
350
330
17
100
AcDbEntity
  8
R-OPISY
100
AcDbText
 10
0.16245328185328187
 20
-0.31565000000000004
 30
0.0
 40
0.0018000000000000002
  1
2,466
  7
PL_ARIAL
 11
0.16245328185328187
 21
-0.31565000000000004
 31
0.0
100
AcDbText
  0
TEXT
  5
351
330
17
100
AcDbEntity
  8
R-OPISY
100
AcDbText
 10
0.17245328185328185
 20
-0.31565000000000004
 30
0.0
 40
0.0018000000000000002
  1
3,853
  7
PL_ARIAL
 11
0.17245328185328185
 21
-0.31565000000000004
 31
0.0
100
AcDbText
  0
TEXT
  5
352
330
17
100
AcDbEntity
  8
R-OPISY
100
AcDbText
 10
0.02
 20
-0.32015000000000005
 30
0.0
 40
0.0018000000000000002
  1
Masa [kg]
  7
PL_ARIAL
 11
0.02
 21
-0.32015000000000005
 31
0.0
100
AcDbText
  0
TEXT
  5
353
330
17
100
AcDbEntity
  8
R-OPISY
100
AcDbText
 10
0.10245328185328186
 20
-0.32015000000000005
 30
0.0
 40
0.0018000000000000002
  1
130,4
  7
PL_ARIAL
 11
0.10245328185328186
 21
-0.32015000000000005
 31
0.0
100
AcDbText
  0
TEXT
  5
354
330
17
100
AcDbEntity
  8
R-OPISY
100
AcDbText
 10
0.11390824437883262
 20
-0.32015000000000005
 30
0.0
 40
0.0018000000000000002
  1
47,1
  7
PL_ARIAL
 11
0.11390824437883262
 21
-0.32015000000000005
 31
0.0
100
AcDbText
  0
TEXT
  5
355
330
17
100
AcDbEntity
  8
R-OPISY
100
AcDbText
 10
0.12245328185328186
 20
-0.32015000000000005
 30
0.0
 40
0.0018000000000000002
  1
227,3
  7
PL_ARIAL
 11
0.12245328185328186
 21
-0.32015000000000005
 31
0.0
100
AcDbText
  0
TEXT
  5
356
330
17
100
AcDbEntity
  8
R-OPISY
100
AcDbText
 10
0.13245328185328187
 20
-0.32015000000000005
 30
0.0
 40
0.0018000000000000002
  1
569,8
  7
PL_ARIAL
 11
0.13245328185328187
 21
-0.32015000000000005
 31
0.0
100
AcDbText
  0
TEXT
  5
357
330
17
100
AcDbEntity
  8
R-OPISY
100
AcDbText
 10
0.14099831932773108
 20
-0.32015000000000005
 30
0.0
 40
0.0018000000000000002
  1
8438,9
  7
PL_ARIAL
 11
0.14099831932773108
 21
-0.32015000000000005
 31
0.0
100
AcDbText
  0
TEXT
  5
358
330
17
100
AcDbEntity
  8
R-OPISY
100
AcDbText
 10
0.15245328185328186
 20
-0.32015000000000005
 30
0.0
 40
0.0018000000000000002
  1
200,1
  7
PL_ARIAL
 11
0.15245328185328186
 21
-0.32015000000000005
 31
0.0
100
AcDbText
  0
TEXT
  5
359
330
17
100
AcDbEntity
  8
R-OPISY
100
AcDbText
 10
0.16245328185328187
 20
-0.32015000000000005
 30
0.0
 40
0.0018000000000000002
  1
713,9
  7
PL_ARIAL
 11
0.16245328185328187
 21
-0.32015000000000005
 31
0.0
100
AcDbText
  0
TEXT
  5
35A
330
17
100
AcDbEntity
  8
R-OPISY
100
AcDbText
 10
0.17099831932773107
 20
-0.32015000000000005
 30
0.0
 40
0.0018000000000000002
  1
1513,8
  7
PL_ARIAL
 11
0.17099831932773107
 21
-0.32015000000000005
 31
0.0
100
AcDbText
  0
TEXT
  5
35B
330
17
100
AcDbEntity
  8
R-OPISY
100
AcDbText
 10
0.02
 20
-0.32465
 30
0.0
 40
0.0018000000000000002
  1
RAZEM stal B500SP [kg]
  7
PL_ARIAL
 11
0.02
 21
-0.32465
 31
0.0
100
AcDbText
  0
TEXT
  5
35C
330
17
100
AcDbEntity
  8
R-OPISY
100
AcDbText
 10
0.1697375425846014
 20
-0.32465
 30
0.0
 40
0.0018000000000000002
  1
11841,2
  7
PL_ARIAL
 11
0.1697375425846014
 21
-0.32465
 31
0.0
100
AcDbText
  0
TEXT
  5
35D
330
17
100
AcDbEntity
  8
R-OPISY
100
AcDbText
 10
0.029
 20
-0.07265
 30
0.0
 40
0.0018000000000000002
  1
00: a=962
  7
PL_ARIAL
 11
0.029
 21
-0.07265
 31
0.0
100
AcDbText
  0
TEXT
  5
35E
330
17
100
AcDbEntity
  8
R-OPISY
100
AcDbText
 10
0.029
 20
-0.07715
 30
0.0
 40
0.0018000000000000002
  1
00: a=652
  7
PL_ARIAL
 11
0.029
 21
-0.07715
 31
0.0
100
AcDbText
  0
TEXT
  5
35F
330
17
100
AcDbEntity
  8
R-OPISY
100
AcDbText
 10
0.029
 20
-0.08165
 30
0.0
 40
0.0018000000000000002
  1
00: a=30
  7
PL_ARIAL
 11
0.029
 21
-0.08165
 31
0.0
100
AcDbText
  0
TEXT
  5
360
330
17
100
AcDbEntity
  8
R-OPISY
100
AcDbText
 10
0.029
 20
-0.08615
 30
0.0
 40
0.0018000000000000002
  1
00: a=885
  7
PL_ARIAL
 11
0.029
 21
-0.08615
 31
0.0
100
AcDbText
  0
TEXT
  5
361
330
17
100
AcDbEntity
  8
R-OPISY
100
AcDbText
 10
0.029
 20
-0.09065
 30
0.0
 40
0.0018000000000000002
  1
00: a=915
  7
PL_ARIAL
 11
0.029
 21
-0.09065
 31
0.0
100
AcDbText
  0
TEXT
  5
362
330
17
100
AcDbEntity
  8
R-OPISY
100
AcDbText
 10
0.029
 20
-0.09515
 30
0.0
 40
0.0018000000000000002
  1
00: a=317
  7
PL_ARIAL
 11
0.029
 21
-0.09515
 31
0.0
100
AcDbText
  0
TEXT
  5
363
330
17
100
AcDbEntity
  8
R-OPISY
100
AcDbText
 10
0.029
 20
-0.09965
 30
0.0
 40
0.0018000000000000002
  1
00: a=668
  7
PL_ARIAL
 11
0.029
 21
-0.09965
 31
0.0
100
AcDbText
  0
TEXT
  5
364
330
17
100
AcDbEntity
  8
R-OPISY
100
AcDbText
 10
0.029
 20
-0.10415
 30
0.0
 40
0.0018000000000000002
  1
00: a=678
  7
PL_ARIAL
 11
0.029
 21
-0.10415
 31
0.0
100
AcDbText
  0
TEXT
  5
365
330
17
100
AcDbEntity
  8
R-OPISY
100
AcDbText
 10
0.029
 20
-0.10865
 30
0.0
 40
0.0018000000000000002
  1
00: a=648
  7
PL_ARIAL
 11
0.029
 21
-0.10865
 31
0.0
100
AcDbText
  0
TEXT
  5
366
330
17
100
AcDbEntity
  8
R-OPISY
100
AcDbText
 10
0.029
 20
-0.11315
 30
0.0
 40
0.0018000000000000002
  1
00: a=618
  7
PL_ARIAL
 11
0.029
 21
-0.11315
 31
0.0
100
AcDbText
  0
TEXT
  5
367
330
17
100
AcDbEntity
  8
R-OPISY
100
AcDbText
 10
0.029
 20
-0.11765
 30
0.0
 40
0.0018000000000000002
  1
00: a=680
  7
PL_ARIAL
 11
0.029
 21
-0.11765
 31
0.0
100
AcDbText
  0
TEXT
  5
368
330
17
100
AcDbEntity
  8
R-OPISY
100
AcDbText
 10
0.029
 20
-0.12215
 30
0.0
 40
0.0018000000000000002
  1
00: a=638
  7
PL_ARIAL
 11
0.029
 21
-0.12215
 31
0.0
100
AcDbText
  0
TEXT
  5
369
330
17
100
AcDbEntity
  8
R-OPISY
100
AcDbText
 10
0.029
 20
-0.12665
 30
0.0
 40
0.0018000000000000002
  1
00: a=886
  7
PL_ARIAL
 11
0.029
 21
-0.12665
 31
0.0
100
AcDbText
  0
TEXT
  5
36A
330
17
100
AcDbEntity
  8
R-OPISY
100
AcDbText
 10
0.029
 20
-0.13115000000000002
 30
0.0
 40
0.0018000000000000002
  1
00: a=289
  7
PL_ARIAL
 11
0.029
 21
-0.13115000000000002
 31
0.0
100
AcDbText
  0
TEXT
  5
36B
330
17
100
AcDbEntity
  8
R-OPISY
100
AcDbText
 10
0.029
 20
-0.13565000000000002
 30
0.0
 40
0.0018000000000000002
  1
00: a=639
  7
PL_ARIAL
 11
0.029
 21
-0.13565000000000002
 31
0.0
100
AcDbText
  0
TEXT
  5
36C
330
17
100
AcDbEntity
  8
R-OPISY
100
AcDbText
 10
0.029
 20
-0.14015000000000002
 30
0.0
 40
0.0018000000000000002
  1
00: a=54
  7
PL_ARIAL
 11
0.029
 21
-0.14015000000000002
 31
0.0
100
AcDbText
  0
TEXT
  5
36D
330
17
100
AcDbEntity
  8
R-OPISY
100
AcDbText
 10
0.029
 20
-0.14465000000000003
 30
0.0
 40
0.0018000000000000002
  1
00: a=651
  7
PL_ARIAL
 11
0.029
 21
-0.14465000000000003
 31
0.0
100
AcDbText
  0
TEXT
  5
36E
330
17
100
AcDbEntity
  8
R-OPISY
100
AcDbText
 10
0.029
 20
-0.14915
 30
0.0
 40
0.0018000000000000002
  1
00: a=419
  7
PL_ARIAL
 11
0.029
 21
-0.14915
 31
0.0
100
AcDbText
  0
TEXT
  5
36F
330
17
100
AcDbEntity
  8
R-OPISY
100
AcDbText
 10
0.029
 20
-0.15365
 30
0.0
 40
0.0018000000000000002
  1
00: a=195
  7
PL_ARIAL
 11
0.029
 21
-0.15365
 31
0.0
100
AcDbText
  0
TEXT
  5
370
330
17
100
AcDbEntity
  8
R-OPISY
100
AcDbText
 10
0.029
 20
-0.15815
 30
0.0
 40
0.0018000000000000002
  1
00: a=101
  7
PL_ARIAL
 11
0.029
 21
-0.15815
 31
0.0
100
AcDbText
  0
TEXT
  5
371
330
17
100
AcDbEntity
  8
R-OPISY
100
AcDbText
 10
0.029
 20
-0.16265000000000002
 30
0.0
 40
0.0018000000000000002
  1
00: a=432
  7
PL_ARIAL
 11
0.029
 21
-0.16265000000000002
 31
0.0
100
AcDbText
  0
TEXT
  5
372
330
17
100
AcDbEntity
  8
R-OPISY
100
AcDbText
 10
0.029
 20
-0.16715000000000002
 30
0.0
 40
0.0018000000000000002
  1
00: a=133
  7
PL_ARIAL
 11
0.029
 21
-0.16715000000000002
 31
0.0
100
AcDbText
  0
TEXT
  5
373
330
17
100
AcDbEntity
  8
R-OPISY
100
AcDbText
 10
0.029
 20
-0.17165000000000002
 30
0.0
 40
0.0018000000000000002
  1
00: a=264
  7
PL_ARIAL
 11
0.029
 21
-0.17165000000000002
 31
0.0
100
AcDbText
  0
TEXT
  5
374
330
17
100
AcDbEntity
  8
R-OPISY
100
AcDbText
 10
0.029
 20
-0.17615000000000003
 30
0.0
 40
0.0018000000000000002
  1
00: a=159
  7
PL_ARIAL
 11
0.029
 21
-0.17615000000000003
 31
0.0
100
AcDbText
  0
TEXT
  5
375
330
17
100
AcDbEntity
  8
R-OPISY
100
AcDbText
 10
0.029
 20
-0.18065
 30
0.0
 40
0.0018000000000000002
  1
00: a=228
  7
PL_ARIAL
 11
0.029
 21
-0.18065
 31
0.0
100
AcDbText
  0
TEXT
  5
376
330
17
100
AcDbEntity
  8
R-OPISY
100
AcDbText
 10
0.029
 20
-0.18515
 30
0.0
 40
0.0018000000000000002
  1
00: a=117
  7
PL_ARIAL
 11
0.029
 21
-0.18515
 31
0.0
100
AcDbText
  0
TEXT
  5
377
330
17
100
AcDbEntity
  8
R-OPISY
100
AcDbText
 10
0.029
 20
-0.18965
 30
0.0
 40
0.0018000000000000002
  1
00: a=100
  7
PL_ARIAL
 11
0.029
 21
-0.18965
 31
0.0
100
AcDbText
  0
TEXT
  5
378
330
17
100
AcDbEntity
  8
R-OPISY
100
AcDbText
 10
0.029
 20
-0.19415000000000002
 30
0.0
 40
0.0018000000000000002
  1
00: a=401
  7
PL_ARIAL
 11
0.029
 21
-0.19415000000000002
 31
0.0
100
AcDbText
  0
TEXT
  5
379
330
17
100
AcDbEntity
  8
R-OPISY
100
AcDbText
 10
0.029
 20
-0.19865000000000002
 30
0.0
 40
0.0018000000000000002
  1
00: a=1250
  7
PL_ARIAL
 11
0.029
 21
-0.19865000000000002
 31
0.0
100
AcDbText
  0
TEXT
  5
37A
330
17
100
AcDbEntity
  8
R-OPISY
100
AcDbText
 10
0.029
 20
-0.20315000000000003
 30
0.0
 40
0.0018000000000000002
  1
00: a=1250
  7
PL_ARIAL
 11
0.029
 21
-0.20315000000000003
 31
0.0
100
AcDbText
  0
TEXT
  5
37B
330
17
100
AcDbEntity
  8
R-OPISY
100
AcDbText
 10
0.029
 20
-0.20765000000000003
 30
0.0
 40
0.0018000000000000002
  1
51: a=51 b=46
  7
PL_ARIAL
 11
0.029
 21
-0.20765000000000003
 31
0.0
100
AcDbText
  0
TEXT
  5
37C
330
17
100
AcDbEntity
  8
R-OPISY
100
AcDbText
 10
0.029
 20
-0.21215
 30
0.0
 40
0.0018000000000000002
  1
00: a=688
  7
PL_ARIAL
 11
0.029
 21
-0.21215
 31
0.0
100
AcDbText
  0
TEXT
  5
37D
330
17
100
AcDbEntity
  8
R-OPISY
100
AcDbText
 10
0.029
 20
-0.21665
 30
0.0
 40
0.0018000000000000002
  1
00: a=112
  7
PL_ARIAL
 11
0.029
 21
-0.21665
 31
0.0
100
AcDbText
  0
TEXT
  5
37E
330
17
100
AcDbEntity
  8
R-OPISY
100
AcDbText
 10
0.029
 20
-0.22115
 30
0.0
 40
0.0018000000000000002
  1
00: a=925
  7
PL_ARIAL
 11
0.029
 21
-0.22115
 31
0.0
100
AcDbText
  0
TEXT
  5
37F
330
17
100
AcDbEntity
  8
R-OPISY
100
AcDbText
 10
0.029
 20
-0.22565000000000002
 30
0.0
 40
0.0018000000000000002
  1
00: a=925
  7
PL_ARIAL
 11
0.029
 21
-0.22565000000000002
 31
0.0
100
AcDbText
  0
TEXT
  5
380
330
17
100
AcDbEntity
  8
R-OPISY
100
AcDbText
 10
0.029
 20
-0.23015000000000002
 30
0.0
 40
0.0018000000000000002
  1
00: a=628
  7
PL_ARIAL
 11
0.029
 21
-0.23015000000000002
 31
0.0
100
AcDbText
  0
TEXT
  5
381
330
17
100
AcDbEntity
  8
R-OPISY
100
AcDbText
 10
0.029
 20
-0.23465000000000003
 30
0.0
 40
0.0018000000000000002
  1
00: a=628
  7
PL_ARIAL
 11
0.029
 21
-0.23465000000000003
 31
0.0
100
AcDbText
  0
TEXT
  5
382
330
17
100
AcDbEntity
  8
R-OPISY
100
AcDbText
 10
0.029
 20
-0.23915000000000003
 30
0.0
 40
0.0018000000000000002
  1
51: a=41 b=41
  7
PL_ARIAL
 11
0.029
 21
-0.23915000000000003
 31
0.0
100
AcDbText
  0
TEXT
  5
383
330
17
100
AcDbEntity
  8
R-OPISY
100
AcDbText
 10
0.029
 20
-0.24365
 30
0.0
 40
0.0018000000000000002
  1
00: a=171
  7
PL_ARIAL
 11
0.029
 21
-0.24365
 31
0.0
100
AcDbText
  0
TEXT
  5
384
330
17
100
AcDbEntity
  8
R-OPISY
100
AcDbText
 10
0.029
 20
-0.24815
 30
0.0
 40
0.0018000000000000002
  1
00: a=390
  7
PL_ARIAL
 11
0.029
 21
-0.24815
 31
0.0
100
AcDbText
  0
TEXT
  5
385
330
17
100
AcDbEntity
  8
R-OPISY
100
AcDbText
 10
0.029
 20
-0.25265000000000004
 30
0.0
 40
0.0018000000000000002
  1
00: a=403
  7
PL_ARIAL
 11
0.029
 21
-0.25265000000000004
 31
0.0
100
AcDbText
  0
TEXT
  5
386
330
17
100
AcDbEntity
  8
R-OPISY
100
AcDbText
 10
0.029
 20
-0.25715
 30
0.0
 40
0.0018000000000000002
  1
00: a=403
  7
PL_ARIAL
 11
0.029
 21
-0.25715
 31
0.0
100
AcDbText
  0
TEXT
  5
387
330
17
100
AcDbEntity
  8
R-OPISY
100
AcDbText
 10
0.029
 20
-0.26165
 30
0.0
 40
0.0018000000000000002
  1
00: a=403
  7
PL_ARIAL
 11
0.029
 21
-0.26165
 31
0.0
100
AcDbText
  0
TEXT
  5
388
330
17
100
AcDbEntity
  8
R-OPISY
100
AcDbText
 10
0.029
 20
-0.26615
 30
0.0
 40
0.0018000000000000002
  1
00: a=328
  7
PL_ARIAL
 11
0.029
 21
-0.26615
 31
0.0
100
AcDbText
  0
TEXT
  5
389
330
17
100
AcDbEntity
  8
R-OPISY
100
AcDbText
 10
0.029
 20
-0.27065
 30
0.0
 40
0.0018000000000000002
  1
51: a=41 b=46
  7
PL_ARIAL
 11
0.029
 21
-0.27065
 31
0.0
100
AcDbText
  0
TEXT
  5
38A
330
17
100
AcDbEntity
  8
R-OPISY
100
AcDbText
 10
0.029
 20
-0.27515
 30
0.0
 40
0.0018000000000000002
  1
00: a=678
  7
PL_ARIAL
 11
0.029
 21
-0.27515
 31
0.0
100
AcDbText
  0
TEXT
  5
38B
330
17
100
AcDbEntity
  8
R-OPISY
100
AcDbText
 10
0.029
 20
-0.27965
 30
0.0
 40
0.0018000000000000002
  1
11: a=110 b=110
  7
PL_ARIAL
 11
0.029
 21
-0.27965
 31
0.0
100
AcDbText
  0
TEXT
  5
38C
330
17
100
AcDbEntity
  8
R-OPISY
100
AcDbText
 10
0.029
 20
-0.28415
 30
0.0
 40
0.0018000000000000002
  1
21: a=15 b=91 c=15
  7
PL_ARIAL
 11
0.029
 21
-0.28415
 31
0.0
100
AcDbText
  0
TEXT
  5
38D
330
17
100
AcDbEntity
  8
R-OPISY
100
AcDbText
 10
0.029
 20
-0.28865
 30
0.0
 40
0.0018000000000000002
  1
21: a=15 b=90 c=15
  7
PL_ARIAL
 11
0.029
 21
-0.28865
 31
0.0
100
AcDbText
  0
TEXT
  5
38E
330
17
100
AcDbEntity
  8
R-OPISY
100
AcDbText
 10
0.029
 20
-0.29315
 30
0.0
 40
0.0018000000000000002
  1
21: a=15 b=91 c=15
  7
PL_ARIAL
 11
0.029
 21
-0.29315
 31
0.0
100
AcDbText
  0
TEXT
  5
38F
330
17
100
AcDbEntity
  8
R-OPISY
100
AcDbText
 10
0.029
 20
-0.29765
 30
0.0
 40
0.0018000000000000002
  1
21: a=15 b=90 c=15
  7
PL_ARIAL
 11
0.029
 21
-0.29765
 31
0.0
100
AcDbText
  0
TEXT
  5
390
330
17
100
AcDbEntity
  8
R-OPISY
100
AcDbText
 10
0.029
 20
-0.30215000000000003
 30
0.0
 40
0.0018000000000000002
  1
21: a=15 b=91 c=15
  7
PL_ARIAL
 11
0.029
 21
-0.30215000000000003
 31
0.0
100
AcDbText
  0
TEXT
  5
391
330
17
100
AcDbEntity
  8
R-OPISY
100
AcDbText
 10
0.029
 20
-0.30665000000000003
 30
0.0
 40
0.0018000000000000002
  1
21: a=15 b=90 c=15
  7
PL_ARIAL
 11
0.029
 21
-0.30665000000000003
 31
0.0
100
AcDbText
  0
TEXT
  5
392
330
17
100
AcDbEntity
  8
R-OPISY
100
AcDbText
 10
0.0
 20
-0.3520000000000001
 30
0.0
 40
0.0025
  1
DOZBROJENIA PŁYTY GÓRNE (MES; pręty między prętami siatki, zasięg obszaru + l_bd)
  7
PL_ARIAL_B
 11
0.0
 21
-0.3520000000000001
 31
0.0
100
AcDbText
  0
TEXT
  5
393
330
17
100
AcDbEntity
  8
R-OPISY
100
AcDbText
 10
0.0035652055416761294
 20
-0.3581500000000001
 30
0.0
 40
0.0018000000000000002
  1
Obszar
  7
PL_ARIAL_B
 11
0.0035652055416761294
 21
-0.3581500000000001
 31
0.0
100
AcDbText
  0
TEXT
  5
394
330
17
100
AcDbEntity
  8
R-OPISY
100
AcDbText
 10
0.019668884851237793
 20
-0.3581500000000001
 30
0.0
 40
0.0018000000000000002
  1
Warstwa
  7
PL_ARIAL_B
 11
0.019668884851237793
 21
-0.3581500000000001
 31
0.0
100
AcDbText
  0
TEXT
  5
395
330
17
100
AcDbEntity
  8
R-OPISY
100
AcDbText
 10
0.04631083352259823
 20
-0.3581500000000001
 30
0.0
 40
0.0018000000000000002
  1
Poz.
  7
PL_ARIAL_B
 11
0.04631083352259823
 21
-0.3581500000000001
 31
0.0
100
AcDbText
  0
TEXT
  5
396
330
17
100
AcDbEntity
  8
R-OPISY
100
AcDbText
 10
0.09072766295707473
 20
-0.3581500000000001
 30
0.0
 40
0.0018000000000000002
  1
Pręty
  7
PL_ARIAL_B
 11
0.09072766295707473
 21
-0.3581500000000001
 31
0.0
100
AcDbText
  0
TEXT
  5
397
330
17
100
AcDbEntity
  8
R-OPISY
100
AcDbText
 10
0.13503797410856233
 20
-0.3581500000000001
 30
0.0
 40
0.0018000000000000002
  1
A_s,req / A_s,prov [mm²/m]
  7
PL_ARIAL_B
 11
0.13503797410856233
 21
-0.3581500000000001
 31
0.0
100
AcDbText
  0
TEXT
  5
398
330
17
100
AcDbEntity
  8
R-OPISY
100
AcDbText
 10
0.005673654326595503
 20
-0.3626500000000001
 30
0.0
 40
0.0018000000000000002
  1
D1x
  7
PL_ARIAL
 11
0.005673654326595503
 21
-0.3626500000000001
 31
0.0
100
AcDbText
  0
TEXT
  5
399
330
17
100
AcDbEntity
  8
R-OPISY
100
AcDbText
 10
0.017
 20
-0.3626500000000001
 30
0.0
 40
0.0018000000000000002
  1
góra x
  7
PL_ARIAL
 11
0.017
 21
-0.3626500000000001
 31
0.0
100
AcDbText
  0
TEXT
  5
39A
330
17
100
AcDbEntity
  8
R-OPISY
100
AcDbText
 10
0.035
 20
-0.3626500000000001
 30
0.0
 40
0.0018000000000000002
  1
25
  7
PL_ARIAL
 11
0.035
 21
-0.3626500000000001
 31
0.0
100
AcDbText
  0
TEXT
  5
39B
330
17
100
AcDbEntity
  8
R-OPISY
100
AcDbText
 10
0.065
 20
-0.3626500000000001
 30
0.0
 40
0.0018000000000000002
  1
26 Ø8 co 7,5
  7
PL_ARIAL
 11
0.065
 21
-0.3626500000000001
 31
0.0
100
AcDbText
  0
TEXT
  5
39C
330
17
100
AcDbEntity
  8
R-OPISY
100
AcDbText
 10
0.125
 20
-0.3626500000000001
 30
0.0
 40
0.0018000000000000002
  1
2215 / 2723
  7
PL_ARIAL
 11
0.125
 21
-0.3626500000000001
 31
0.0
100
AcDbText
  0
TEXT
  5
39D
330
17
100
AcDbEntity
  8
R-OPISY
100
AcDbText
 10
0.005673654326595503
 20
-0.3671500000000001
 30
0.0
 40
0.0018000000000000002
  1
D2x
  7
PL_ARIAL
 11
0.005673654326595503
 21
-0.3671500000000001
 31
0.0
100
AcDbText
  0
TEXT
  5
39E
330
17
100
AcDbEntity
  8
R-OPISY
100
AcDbText
 10
0.017
 20
-0.3671500000000001
 30
0.0
 40
0.0018000000000000002
  1
góra x
  7
PL_ARIAL
 11
0.017
 21
-0.3671500000000001
 31
0.0
100
AcDbText
  0
TEXT
  5
39F
330
17
100
AcDbEntity
  8
R-OPISY
100
AcDbText
 10
0.035
 20
-0.3671500000000001
 30
0.0
 40
0.0018000000000000002
  1
26
  7
PL_ARIAL
 11
0.035
 21
-0.3671500000000001
 31
0.0
100
AcDbText
  0
TEXT
  5
3A0
330
17
100
AcDbEntity
  8
R-OPISY
100
AcDbText
 10
0.065
 20
-0.3671500000000001
 30
0.0
 40
0.0018000000000000002
  1
10 Ø8 co 7,5
  7
PL_ARIAL
 11
0.065
 21
-0.3671500000000001
 31
0.0
100
AcDbText
  0
TEXT
  5
3A1
330
17
100
AcDbEntity
  8
R-OPISY
100
AcDbText
 10
0.125
 20
-0.3671500000000001
 30
0.0
 40
0.0018000000000000002
  1
2608 / 2723
  7
PL_ARIAL
 11
0.125
 21
-0.3671500000000001
 31
0.0
100
AcDbText
  0
TEXT
  5
3A2
330
17
100
AcDbEntity
  8
R-OPISY
100
AcDbText
 10
0.005673654326595503
 20
-0.3716500000000001
 30
0.0
 40
0.0018000000000000002
  1
D3x
  7
PL_ARIAL
 11
0.005673654326595503
 21
-0.3716500000000001
 31
0.0
100
AcDbText
  0
TEXT
  5
3A3
330
17
100
AcDbEntity
  8
R-OPISY
100
AcDbText
 10
0.017
 20
-0.3716500000000001
 30
0.0
 40
0.0018000000000000002
  1
góra x
  7
PL_ARIAL
 11
0.017
 21
-0.3716500000000001
 31
0.0
100
AcDbText
  0
TEXT
  5
3A4
330
17
100
AcDbEntity
  8
R-OPISY
100
AcDbText
 10
0.035
 20
-0.3716500000000001
 30
0.0
 40
0.0018000000000000002
  1
27
  7
PL_ARIAL
 11
0.035
 21
-0.3716500000000001
 31
0.0
100
AcDbText
  0
TEXT
  5
3A5
330
17
100
AcDbEntity
  8
R-OPISY
100
AcDbText
 10
0.065
 20
-0.3716500000000001
 30
0.0
 40
0.0018000000000000002
  1
10 Ø8 co 7,5
  7
PL_ARIAL
 11
0.065
 21
-0.3716500000000001
 31
0.0
100
AcDbText
  0
TEXT
  5
3A6
330
17
100
AcDbEntity
  8
R-OPISY
100
AcDbText
 10
0.125
 20
-0.3716500000000001
 30
0.0
 40
0.0018000000000000002
  1
2429 / 2723
  7
PL_ARIAL
 11
0.125
 21
-0.3716500000000001
 31
0.0
100
AcDbText
  0
TEXT
  5
3A7
330
17
100
AcDbEntity
  8
R-OPISY
100
AcDbText
 10
0.005673654326595503
 20
-0.3761500000000001
 30
0.0
 40
0.0018000000000000002
  1
D1y
  7
PL_ARIAL
 11
0.005673654326595503
 21
-0.3761500000000001
 31
0.0
100
AcDbText
  0
TEXT
  5
3A8
330
17
100
AcDbEntity
  8
R-OPISY
100
AcDbText
 10
0.017
 20
-0.3761500000000001
 30
0.0
 40
0.0018000000000000002
  1
góra y
  7
PL_ARIAL
 11
0.017
 21
-0.3761500000000001
 31
0.0
100
AcDbText
  0
TEXT
  5
3A9
330
17
100
AcDbEntity
  8
R-OPISY
100
AcDbText
 10
0.035
 20
-0.3761500000000001
 30
0.0
 40
0.0018000000000000002
  1
28
  7
PL_ARIAL
 11
0.035
 21
-0.3761500000000001
 31
0.0
100
AcDbText
  0
TEXT
  5
3AA
330
17
100
AcDbEntity
  8
R-OPISY
100
AcDbText
 10
0.065
 20
-0.3761500000000001
 30
0.0
 40
0.0018000000000000002
  1
82 Ø10 co 7,5
  7
PL_ARIAL
 11
0.065
 21
-0.3761500000000001
 31
0.0
100
AcDbText
  0
TEXT
  5
3AB
330
17
100
AcDbEntity
  8
R-OPISY
100
AcDbText
 10
0.125
 20
-0.3761500000000001
 30
0.0
 40
0.0018000000000000002
  1
3020 / 3100
  7
PL_ARIAL
 11
0.125
 21
-0.3761500000000001
 31
0.0
100
AcDbText
  0
VIEWPORT
  5
A4
330
1B
100
AcDbEntity
 67
1
  8
VIEWPORTS
100
AcDbViewport
 10
115.0
 20
297.0
 30
0.0
 40
230.0
 41
594.0
 68
1
 69
1
 12
115.0
 22
297.0
 13
0.0
 23
0.0
 14
10.0
 24
10.0
 15
10.0
 25
10.0
 16
0.0
 26
0.0
 36
1.0
 17
0.0
 27
0.0
 37
0.0
 42
50.0
 43
0.0
 44
0.0
 45
653.4000000000001
 50
0.0
 51
0.0
 72
100
 90
557088
  1

281
0
 71
0
 74
0
110
0.0
120
0.0
130
0.0
111
1.0
121
0.0
131
0.0
112
0.0
122
1.0
132
0.0
 79
0
146
0.0
282
0
  0
LWPOLYLINE
  5
A5
330
1B
100
AcDbEntity
 67
1
  8
R-OPISY
370
50
100
AcDbPolyline
 90
2
 70
0
 10
30.5
 20
186.49999999999994
 10
159.0271405859641
 20
186.49999999999994
  0
LWPOLYLINE
  5
A6
330
1B
100
AcDbEntity
 67
1
  8
R-OPISY
370
25
100
AcDbPolyline
 90
4
 70
1
 10
40.0
 20
150.17999999999998
 10
220.0
 20
150.17999999999998
 10
220.0
 20
174.49999999999994
 10
40.0
 20
174.49999999999994
  0
LWPOLYLINE
  5
A7
330
1B
100
AcDbEntity
 67
1
  8
R-OPISY
370
35
100
AcDbPolyline
 90
2
 70
0
 10
11.0
 20
18.0
 10
11.0
 20
118.0
  0
LWPOLYLINE
  5
A8
330
1B
100
AcDbEntity
 67
1
  8
R-OPISY
370
18
100
AcDbPolyline
 90
2
 70
0
 10
11.0
 20
18.0
 10
9.4
 20
18.0
  0
LWPOLYLINE
  5
A9
330
1B
100
AcDbEntity
 67
1
  8
R-OPISY
370
18
100
AcDbPolyline
 90
2
 70
0
 10
11.0
 20
28.0
 10
10.1
 20
28.0
  0
LWPOLYLINE
  5
AA
330
1B
100
AcDbEntity
 67
1
  8
R-OPISY
370
18
100
AcDbPolyline
 90
2
 70
0
 10
11.0
 20
38.0
 10
10.1
 20
38.0
  0
LWPOLYLINE
  5
AB
330
1B
100
AcDbEntity
 67
1
  8
R-OPISY
370
18
100
AcDbPolyline
 90
2
 70
0
 10
11.0
 20
48.0
 10
10.1
 20
48.0
  0
LWPOLYLINE
  5
AC
330
1B
100
AcDbEntity
 67
1
  8
R-OPISY
370
18
100
AcDbPolyline
 90
2
 70
0
 10
11.0
 20
58.0
 10
10.1
 20
58.0
  0
LWPOLYLINE
  5
AD
330
1B
100
AcDbEntity
 67
1
  8
R-OPISY
370
18
100
AcDbPolyline
 90
2
 70
0
 10
11.0
 20
68.0
 10
9.4
 20
68.0
  0
LWPOLYLINE
  5
AE
330
1B
100
AcDbEntity
 67
1
  8
R-OPISY
370
18
100
AcDbPolyline
 90
2
 70
0
 10
11.0
 20
78.0
 10
10.1
 20
78.0
  0
LWPOLYLINE
  5
AF
330
1B
100
AcDbEntity
 67
1
  8
R-OPISY
370
18
100
AcDbPolyline
 90
2
 70
0
 10
11.0
 20
88.0
 10
10.1
 20
88.0
  0
LWPOLYLINE
  5
B0
330
1B
100
AcDbEntity
 67
1
  8
R-OPISY
370
18
100
AcDbPolyline
 90
2
 70
0
 10
11.0
 20
98.0
 10
10.1
 20
98.0
  0
LWPOLYLINE
  5
B1
330
1B
100
AcDbEntity
 67
1
  8
R-OPISY
370
18
100
AcDbPolyline
 90
2
 70
0
 10
11.0
 20
108.0
 10
10.1
 20
108.0
  0
LWPOLYLINE
  5
B2
330
1B
100
AcDbEntity
 67
1
  8
R-OPISY
370
18
100
AcDbPolyline
 90
2
 70
0
 10
11.0
 20
118.0
 10
9.4
 20
118.0
  0
HATCH
  5
B3
330
1B
100
AcDbEntity
 67
1
  8
R-TABLICZKA
 62
7
420
16777215
100
AcDbHatch
 10
0.0
 20
0.0
 30
0.0
210
0.0
220
0.0
230
1.0
  2
SOLID
 70
1
 71
0
 91
1
 92
3
 72
0
 73
1
 93
4
 10
40.0
 20
10.0
 10
220.0
 20
10.0
 10
220.0
 20
103.0
 10
40.0
 20
103.0
 97
0
 75
0
 76
1
 98
0
  0
HATCH
  5
B4
330
1B
100
AcDbEntity
 67
1
  8
R-TABLICZKA
 62
7
420
16777215
100
AcDbHatch
 10
0.0
 20
0.0
 30
0.0
210
0.0
220
0.0
230
1.0
  2
SOLID
 70
1
 71
0
 91
1
 92
3
 72
0
 73
1
 93
4
 10
40.0
 20
103.0
 10
220.0
 20
103.0
 10
220.0
 20
113.0
 10
40.0
 20
113.0
 97
0
 75
0
 76
1
 98
0
  0
LWPOLYLINE
  5
B5
330
1B
100
AcDbEntity
 67
1
  8
R-RAMKA
370
70
100
AcDbPolyline
 90
4
 70
1
 10
20.0
 20
10.0
 10
220.0
 20
10.0
 10
220.0
 20
584.0
 10
20.0
 20
584.0
  0
LWPOLYLINE
  5
B6
330
1B
100
AcDbEntity
 67
1
  8
R-RAMKA
370
70
100
AcDbPolyline
 90
2
 70
0
 10
115.0
 20
0.0
 10
115.0
 20
20.0
  0
LWPOLYLINE
  5
B7
330
1B
100
AcDbEntity
 67
1
  8
R-RAMKA
370
70
100
AcDbPolyline
 90
2
 70
0
 10
115.0
 20
594.0
 10
115.0
 20
574.0
  0
LWPOLYLINE
  5
B8
330
1B
100
AcDbEntity
 67
1
  8
R-RAMKA
370
70
100
AcDbPolyline
 90
2
 70
0
 10
0.0
 20
297.0
 10
30.0
 20
297.0
  0
LWPOLYLINE
  5
B9
330
1B
100
AcDbEntity
 67
1
  8
R-RAMKA
370
70
100
AcDbPolyline
 90
2
 70
0
 10
230.0
 20
297.0
 10
210.0
 20
297.0
  0
LWPOLYLINE
  5
BA
330
1B
100
AcDbEntity
 67
1
  8
R-RAMKA
370
35
100
AcDbPolyline
 90
2
 70
0
 10
30.0
 20
0.0
 10
30.0
 20
5.0
  0
LWPOLYLINE
  5
BB
330
1B
100
AcDbEntity
 67
1
  8
R-RAMKA
370
35
100
AcDbPolyline
 90
2
 70
0
 10
30.0
 20
594.0
 10
30.0
 20
589.0
  0
LWPOLYLINE
  5
BC
330
1B
100
AcDbEntity
 67
1
  8
R-RAMKA
370
35
100
AcDbPolyline
 90
2
 70
0
 10
40.0
 20
0.0
 10
40.0
 20
5.0
  0
LWPOLYLINE
  5
BD
330
1B
100
AcDbEntity
 67
1
  8
R-RAMKA
370
35
100
AcDbPolyline
 90
2
 70
0
 10
40.0
 20
594.0
 10
40.0
 20
589.0
  0
LWPOLYLINE
  5
BE
330
1B
100
AcDbEntity
 67
1
  8
R-RAMKA
370
35
100
AcDbPolyline
 90
2
 70
0
 10
0.0
 20
297.0
 10
5.0
 20
297.0
  0
LWPOLYLINE
  5
BF
330
1B
100
AcDbEntity
 67
1
  8
R-RAMKA
370
35
100
AcDbPolyline
 90
2
 70
0
 10
230.0
 20
297.0
 10
225.0
 20
297.0
  0
LWPOLYLINE
  5
C0
330
1B
100
AcDbEntity
 67
1
  8
R-TABLICZKA
370
25
100
AcDbPolyline
 90
2
 70
0
 10
150.0
 20
91.0
 10
150.0
 20
103.0
  0
LWPOLYLINE
  5
C1
330
1B
100
AcDbEntity
 67
1
  8
R-TABLICZKA
370
25
100
AcDbPolyline
 90
2
 70
0
 10
175.0
 20
91.0
 10
175.0
 20
103.0
  0
LWPOLYLINE
  5
C2
330
1B
100
AcDbEntity
 67
1
  8
R-TABLICZKA
370
25
100
AcDbPolyline
 90
2
 70
0
 10
40.0
 20
91.0
 10
220.0
 20
91.0
  0
LWPOLYLINE
  5
C3
330
1B
100
AcDbEntity
 67
1
  8
R-TABLICZKA
370
18
100
AcDbPolyline
 90
2
 70
0
 10
40.0
 20
83.0
 10
220.0
 20
83.0
  0
LWPOLYLINE
  5
C4
330
1B
100
AcDbEntity
 67
1
  8
R-TABLICZKA
370
18
100
AcDbPolyline
 90
2
 70
0
 10
40.0
 20
72.5
 10
220.0
 20
72.5
  0
LWPOLYLINE
  5
C5
330
1B
100
AcDbEntity
 67
1
  8
R-TABLICZKA
370
18
100
AcDbPolyline
 90
2
 70
0
 10
190.0
 20
63.5
 10
190.0
 20
72.5
  0
LWPOLYLINE
  5
C6
330
1B
100
AcDbEntity
 67
1
  8
R-TABLICZKA
370
25
100
AcDbPolyline
 90
2
 70
0
 10
40.0
 20
63.5
 10
220.0
 20
63.5
  0
LWPOLYLINE
  5
C7
330
1B
100
AcDbEntity
 67
1
  8
R-TABLICZKA
370
18
100
AcDbPolyline
 90
2
 70
0
 10
40.0
 20
59.0
 10
220.0
 20
59.0
  0
LWPOLYLINE
  5
C8
330
1B
100
AcDbEntity
 67
1
  8
R-TABLICZKA
370
18
100
AcDbPolyline
 90
2
 70
0
 10
40.0
 20
52.0
 10
220.0
 20
52.0
  0
LWPOLYLINE
  5
C9
330
1B
100
AcDbEntity
 67
1
  8
R-TABLICZKA
370
18
100
AcDbPolyline
 90
2
 70
0
 10
40.0
 20
45.0
 10
220.0
 20
45.0
  0
LWPOLYLINE
  5
CA
330
1B
100
AcDbEntity
 67
1
  8
R-TABLICZKA
370
18
100
AcDbPolyline
 90
2
 70
0
 10
40.0
 20
38.0
 10
220.0
 20
38.0
  0
LWPOLYLINE
  5
CB
330
1B
100
AcDbEntity
 67
1
  8
R-TABLICZKA
370
18
100
AcDbPolyline
 90
2
 70
0
 10
40.0
 20
31.0
 10
220.0
 20
31.0
  0
LWPOLYLINE
  5
CC
330
1B
100
AcDbEntity
 67
1
  8
R-TABLICZKA
370
18
100
AcDbPolyline
 90
2
 70
0
 10
67.0
 20
31.0
 10
67.0
 20
63.5
  0
LWPOLYLINE
  5
CD
330
1B
100
AcDbEntity
 67
1
  8
R-TABLICZKA
370
18
100
AcDbPolyline
 90
2
 70
0
 10
110.0
 20
31.0
 10
110.0
 20
63.5
  0
LWPOLYLINE
  5
CE
330
1B
100
AcDbEntity
 67
1
  8
R-TABLICZKA
370
18
100
AcDbPolyline
 90
2
 70
0
 10
165.0
 20
31.0
 10
165.0
 20
63.5
  0
LWPOLYLINE
  5
CF
330
1B
100
AcDbEntity
 67
1
  8
R-TABLICZKA
370
18
100
AcDbPolyline
 90
2
 70
0
 10
185.0
 20
31.0
 10
185.0
 20
63.5
  0
LWPOLYLINE
  5
D0
330
1B
100
AcDbEntity
 67
1
  8
R-TABLICZKA
370
25
100
AcDbPolyline
 90
2
 70
0
 10
40.0
 20
31.0
 10
220.0
 20
31.0
  0
LWPOLYLINE
  5
D1
330
1B
100
AcDbEntity
 67
1
  8
R-TABLICZKA
370
25
100
AcDbPolyline
 90
2
 70
0
 10
40.0
 20
19.0
 10
220.0
 20
19.0
  0
LWPOLYLINE
  5
D2
330
1B
100
AcDbEntity
 67
1
  8
R-TABLICZKA
370
25
100
AcDbPolyline
 90
2
 70
0
 10
64.0
 20
10.0
 10
64.0
 20
19.0
  0
LWPOLYLINE
  5
D3
330
1B
100
AcDbEntity
 67
1
  8
R-TABLICZKA
370
25
100
AcDbPolyline
 90
2
 70
0
 10
80.0
 20
10.0
 10
80.0
 20
19.0
  0
LWPOLYLINE
  5
D4
330
1B
100
AcDbEntity
 67
1
  8
R-TABLICZKA
370
25
100
AcDbPolyline
 90
2
 70
0
 10
104.0
 20
10.0
 10
104.0
 20
19.0
  0
LWPOLYLINE
  5
D5
330
1B
100
AcDbEntity
 67
1
  8
R-TABLICZKA
370
25
100
AcDbPolyline
 90
2
 70
0
 10
132.0
 20
10.0
 10
132.0
 20
19.0
  0
LWPOLYLINE
  5
D6
330
1B
100
AcDbEntity
 67
1
  8
R-TABLICZKA
370
25
100
AcDbPolyline
 90
2
 70
0
 10
184.0
 20
10.0
 10
184.0
 20
19.0
  0
LWPOLYLINE
  5
D7
330
1B
100
AcDbEntity
 67
1
  8
R-TABLICZKA
370
25
100
AcDbPolyline
 90
2
 70
0
 10
202.0
 20
10.0
 10
202.0
 20
19.0
  0
LWPOLYLINE
  5
D8
330
1B
100
AcDbEntity
 67
1
  8
R-TABLICZKA
370
50
100
AcDbPolyline
 90
4
 70
1
 10
40.0
 20
10.0
 10
220.0
 20
10.0
 10
220.0
 20
103.0
 10
40.0
 20
103.0
  0
LWPOLYLINE
  5
D9
330
1B
100
AcDbEntity
 67
1
  8
R-TABLICZKA
370
18
100
AcDbPolyline
 90
2
 70
0
 10
40.0
 20
108.0
 10
220.0
 20
108.0
  0
LWPOLYLINE
  5
DA
330
1B
100
AcDbEntity
 67
1
  8
R-TABLICZKA
370
18
100
AcDbPolyline
 90
2
 70
0
 10
40.0
 20
113.0
 10
220.0
 20
113.0
  0
LWPOLYLINE
  5
DB
330
1B
100
AcDbEntity
 67
1
  8
R-TABLICZKA
370
18
100
AcDbPolyline
 90
2
 70
0
 10
58.0
 20
103.0
 10
58.0
 20
113.0
  0
LWPOLYLINE
  5
DC
330
1B
100
AcDbEntity
 67
1
  8
R-TABLICZKA
370
18
100
AcDbPolyline
 90
2
 70
0
 10
180.0
 20
103.0
 10
180.0
 20
113.0
  0
LWPOLYLINE
  5
DD
330
1B
100
AcDbEntity
 67
1
  8
R-TABLICZKA
370
25
100
AcDbPolyline
 90
4
 70
1
 10
40.0
 20
103.0
 10
220.0
 20
103.0
 10
220.0
 20
113.0
 10
40.0
 20
113.0
  0
TEXT
  5
DE
330
1B
100
AcDbEntity
 67
1
  8
R-OPISY
100
AcDbText
 10
30.5
 20
187.99999999999994
 30
0.0
 40
5.0
  1
ZESTAWIENIE STALI — FUNDAMENT
  7
PL_ARIAL_B
 11
30.5
 21
187.99999999999994
 31
0.0
100
AcDbText
  0
TEXT
  5
DF
330
1B
100
AcDbEntity
 67
1
  8
R-OPISY
100
AcDbText
 10
42.0
 20
168.99999999999994
 30
0.0
 40
3.5
  1
OBJAŚNIENIA I UWAGI
  7
PL_ARIAL_B
 11
42.0
 21
168.99999999999994
 31
0.0
100
AcDbText
  0
TEXT
  5
E0
330
1B
100
AcDbEntity
 67
1
  8
R-OPISY
100
AcDbText
 10
42.0
 20
162.69999999999993
 30
0.0
 40
1.8
  1
1. 
  7
PL_ARIAL
 11
42.0
 21
162.69999999999993
 31
0.0
100
AcDbText
  0
TEXT
  5
E1
330
1B
100
AcDbEntity
 67
1
  8
R-OPISY
100
AcDbText
 10
44.90869861458097
 20
162.69999999999993
 30
0.0
 40
1.8
  1
Długości prętów w cm, średnice w mm, masy w kg (tabele — bez podziałki).
  7
PL_ARIAL
 11
44.90869861458097
 21
162.69999999999993
 31
0.0
100
AcDbText
  0
TEXT
  5
E2
330
1B
100
AcDbEntity
 67
1
  8
R-OPISY
100
AcDbText
 10
42.0
 20
159.27999999999994
 30
0.0
 40
1.8
  1
2. 
  7
PL_ARIAL
 11
42.0
 21
159.27999999999994
 31
0.0
100
AcDbText
  0
TEXT
  5
E3
330
1B
100
AcDbEntity
 67
1
  8
R-OPISY
100
AcDbText
 10
44.90869861458097
 20
159.27999999999994
 30
0.0
 40
1.8
  1
Tabele wygenerowane z obliczeń i geometrii zbrojenia (numery pozycji jak na arkuszach zbrojenia elementu); masy — ρ = 7850 kg/m³, długości
  7
PL_ARIAL
 11
44.90869861458097
 21
159.27999999999994
 31
0.0
100
AcDbText
  0
TEXT
  5
E4
330
1B
100
AcDbEntity
 67
1
  8
R-OPISY
100
AcDbText
 10
44.90869861458097
 20
156.39999999999995
 30
0.0
 40
1.8
  1
rozwinięcia wg PN-EN ISO 3766.
  7
PL_ARIAL
 11
44.90869861458097
 21
156.39999999999995
 31
0.0
100
AcDbText
  0
TEXT
  5
E5
330
1B
100
AcDbEntity
 67
1
  8
R-OPISY
100
AcDbText
 10
42.0
 20
152.97999999999996
 30
0.0
 40
1.8
  1
3. 
  7
PL_ARIAL
 11
42.0
 21
152.97999999999996
 31
0.0
100
AcDbText
  0
TEXT
  5
E6
330
1B
100
AcDbEntity
 67
1
  8
R-OPISY
100
AcDbText
 10
44.90869861458097
 20
152.97999999999996
 30
0.0
 40
1.8
  1
Rysunek wygenerowany automatycznie z modelu model/budynek.yaml (wersja 1.0, 2026-09-25) — generatory lamela.views.
  7
PL_ARIAL
 11
44.90869861458097
 21
152.97999999999996
 31
0.0
100
AcDbText
  0
TEXT
  5
E7
330
1B
100
AcDbEntity
 67
1
  8
R-OPISY
100
AcDbText
 10
12.8
 20
119.5
 30
0.0
 40
1.8
  1
odcinek kontrolny 100 mm (wydruk 1:1)
 50
90.0
  7
PL_ARIAL
 11
12.8
 21
119.5
 31
0.0
100
AcDbText
  0
TEXT
  5
E8
330
1B
100
AcDbEntity
 67
1
  8
R-RAMKA
100
AcDbText
 10
40.8
 20
0.8
 30
0.0
 40
1.8
  1
1
  7
PL_ARIAL
 11
40.8
 21
0.8
 31
0.0
100
AcDbText
  0
TEXT
  5
E9
330
1B
100
AcDbEntity
 67
1
  8
R-RAMKA
100
AcDbText
 10
30.8
 20
0.8
 30
0.0
 40
1.8
  1
2
  7
PL_ARIAL
 11
30.8
 21
0.8
 31
0.0
100
AcDbText
  0
TEXT
  5
EA
330
1B
100
AcDbEntity
 67
1
  8
R-RAMKA
100
AcDbText
 10
0.8
 20
297.8
 30
0.0
 40
1.8
  1
3
  7
PL_ARIAL
 11
0.8
 21
297.8
 31
0.0
100
AcDbText
  0
TEXT
  5
EB
330
1B
100
AcDbEntity
 67
1
  8
R-RAMKA
100
AcDbText
 10
180.80676811265045
 20
4.1
 30
0.0
 40
1.8
  1
230×594 (format niestandardowy)
  7
PL_ARIAL
 11
180.80676811265045
 21
4.1
 31
0.0
100
AcDbText
  0
TEXT
  5
EC
330
1B
100
AcDbEntity
 67
1
  8
R-TABLICZKA
100
AcDbText
 10
41.2
 20
100.0
 30
0.0
 40
1.8
  1
PRACOWNIA PROJEKTOWA
  7
PL_ARIAL
 11
41.2
 21
100.0
 31
0.0
100
AcDbText
  0
TEXT
  5
ED
330
1B
100
AcDbEntity
 67
1
  8
R-TABLICZKA
100
AcDbText
 10
41.2
 20
96.1
 30
0.0
 40
2.5
  1
PRACOWNIA PROJEKTOWA — nazwa do uzupełnienia
  7
PL_ARIAL_B
 11
41.2
 21
96.1
 31
0.0
100
AcDbText
  0
TEXT
  5
EE
330
1B
100
AcDbEntity
 67
1
  8
R-TABLICZKA
100
AcDbText
 10
41.2
 20
92.4
 30
0.0
 40
1.8
  1
adres pracowni do uzupełnienia
  7
PL_ARIAL
 11
41.2
 21
92.4
 31
0.0
100
AcDbText
  0
TEXT
  5
EF
330
1B
100
AcDbEntity
 67
1
  8
R-TABLICZKA
100
AcDbText
 10
151.2
 20
100.0
 30
0.0
 40
1.8
  1
STADIUM
  7
PL_ARIAL
 11
151.2
 21
100.0
 31
0.0
100
AcDbText
  0
TEXT
  5
F0
330
1B
100
AcDbEntity
 67
1
  8
R-TABLICZKA
100
AcDbText
 10
157.8565750624574
 20
93.5
 30
0.0
 40
5.0
  1
PT
  7
PL_ARIAL_B
 11
157.8565750624574
 21
93.5
 31
0.0
100
AcDbText
  0
TEXT
  5
F1
330
1B
100
AcDbEntity
 67
1
  8
R-TABLICZKA
100
AcDbText
 10
176.2
 20
100.0
 30
0.0
 40
1.8
  1
BRANŻA
  7
PL_ARIAL
 11
176.2
 21
100.0
 31
0.0
100
AcDbText
  0
TEXT
  5
F2
330
1B
100
AcDbEntity
 67
1
  8
R-TABLICZKA
100
AcDbText
 10
176.2
 20
94.44999999999999
 30
0.0
 40
2.5
  1
KONSTRUKCJA (BO)
  7
PL_ARIAL_B
 11
176.2
 21
94.44999999999999
 31
0.0
100
AcDbText
  0
TEXT
  5
F3
330
1B
100
AcDbEntity
 67
1
  8
R-TABLICZKA
100
AcDbText
 10
41.2
 20
88.0
 30
0.0
 40
1.8
  1
INWESTOR
  7
PL_ARIAL
 11
41.2
 21
88.0
 31
0.0
100
AcDbText
  0
TEXT
  5
F4
330
1B
100
AcDbEntity
 67
1
  8
R-TABLICZKA
100
AcDbText
 10
41.2
 20
84.44999999999999
 30
0.0
 40
2.5
  1
(do uzupełnienia)
  7
PL_ARIAL
 11
41.2
 21
84.44999999999999
 31
0.0
100
AcDbText
  0
TEXT
  5
F5
330
1B
100
AcDbEntity
 67
1
  8
R-TABLICZKA
100
AcDbText
 10
41.2
 20
80.0
 30
0.0
 40
1.8
  1
OBIEKT / NAZWA ZAMIERZENIA BUDOWLANEGO
  7
PL_ARIAL
 11
41.2
 21
80.0
 31
0.0
100
AcDbText
  0
TEXT
  5
F6
330
1B
100
AcDbEntity
 67
1
  8
R-TABLICZKA
100
AcDbText
 10
41.2
 20
75.19999999999999
 30
0.0
 40
2.5
  1
Budynek mieszkalny jednorodzinny wolnostojący „Dom LAMELA”
  7
PL_ARIAL_B
 11
41.2
 21
75.19999999999999
 31
0.0
100
AcDbText
  0
TEXT
  5
F7
330
1B
100
AcDbEntity
 67
1
  8
R-TABLICZKA
100
AcDbText
 10
41.2
 20
69.5
 30
0.0
 40
1.8
  1
ADRES / LOKALIZACJA (NR DZIAŁKI, OBRĘB, JEDN. EWIDENCYJNA)
  7
PL_ARIAL
 11
41.2
 21
69.5
 31
0.0
100
AcDbText
  0
TEXT
  5
F8
330
1B
100
AcDbEntity
 67
1
  8
R-TABLICZKA
100
AcDbText
 10
41.2
 20
65.716
 30
0.0
 40
1.8
  1
ul. Lipowa (fikcyjna), dz. nr ewid. 123/4, obręb 0005 Przykładowo, gm. Przykładowo (fikcyjna)
  7
PL_ARIAL
 11
41.2
 21
65.716
 31
0.0
100
AcDbText
  0
TEXT
  5
F9
330
1B
100
AcDbEntity
 67
1
  8
R-TABLICZKA
100
AcDbText
 10
191.2
 20
69.5
 30
0.0
 40
1.8
  1
KAT. OBIEKTU
  7
PL_ARIAL
 11
191.2
 21
69.5
 31
0.0
100
AcDbText
  0
TEXT
  5
FA
330
1B
100
AcDbEntity
 67
1
  8
R-TABLICZKA
100
AcDbText
 10
204.2933227344992
 20
65.07
 30
0.0
 40
3.5
  1
I
  7
PL_ARIAL_B
 11
204.2933227344992
 21
65.07
 31
0.0
100
AcDbText
  0
TEXT
  5
FB
330
1B
100
AcDbEntity
 67
1
  8
R-TABLICZKA
100
AcDbText
 10
47.467363161480804
 20
60.35
 30
0.0
 40
1.8
  1
FUNKCJA
  7
PL_ARIAL
 11
47.467363161480804
 21
60.35
 31
0.0
100
AcDbText
  0
TEXT
  5
FC
330
1B
100
AcDbEntity
 67
1
  8
R-TABLICZKA
100
AcDbText
 10
77.74312968430615
 20
60.35
 30
0.0
 40
1.8
  1
IMIĘ I NAZWISKO
  7
PL_ARIAL
 11
77.74312968430615
 21
60.35
 31
0.0
100
AcDbText
  0
TEXT
  5
FD
330
1B
100
AcDbEntity
 67
1
  8
R-TABLICZKA
100
AcDbText
 10
116.97701567113332
 20
60.35
 30
0.0
 40
1.8
  1
SPECJALNOŚĆ, NR UPRAWNIEŃ
  7
PL_ARIAL
 11
116.97701567113332
 21
60.35
 31
0.0
100
AcDbText
  0
TEXT
  5
FE
330
1B
100
AcDbEntity
 67
1
  8
R-TABLICZKA
100
AcDbText
 10
171.70517828753123
 20
60.35
 30
0.0
 40
1.8
  1
DATA
  7
PL_ARIAL
 11
171.70517828753123
 21
60.35
 31
0.0
100
AcDbText
  0
TEXT
  5
FF
330
1B
100
AcDbEntity
 67
1
  8
R-TABLICZKA
100
AcDbText
 10
197.55643879173292
 20
60.35
 30
0.0
 40
1.8
  1
PODPIS
  7
PL_ARIAL
 11
197.55643879173292
 21
60.35
 31
0.0
100
AcDbText
  0
TEXT
  5
100
330
1B
100
AcDbEntity
 67
1
  8
R-TABLICZKA
100
AcDbText
 10
41.2
 20
54.6
 30
0.0
 40
1.8
  1
Projektant
  7
PL_ARIAL
 11
41.2
 21
54.6
 31
0.0
100
AcDbText
  0
TEXT
  5
101
330
1B
100
AcDbEntity
 67
1
  8
R-TABLICZKA
100
AcDbText
 10
41.2
 20
47.6
 30
0.0
 40
1.8
  1
Projektant (wsp.)
  7
PL_ARIAL
 11
41.2
 21
47.6
 31
0.0
100
AcDbText
  0
TEXT
  5
102
330
1B
100
AcDbEntity
 67
1
  8
R-TABLICZKA
100
AcDbText
 10
41.2
 20
40.6
 30
0.0
 40
1.8
  1
Sprawdzający
  7
PL_ARIAL
 11
41.2
 21
40.6
 31
0.0
100
AcDbText
  0
TEXT
  5
103
330
1B
100
AcDbEntity
 67
1
  8
R-TABLICZKA
100
AcDbText
 10
41.2
 20
33.6
 30
0.0
 40
1.8
  1
Opracował
  7
PL_ARIAL
 11
41.2
 21
33.6
 31
0.0
100
AcDbText
  0
TEXT
  5
104
330
1B
100
AcDbEntity
 67
1
  8
R-TABLICZKA
100
AcDbText
 10
41.2
 20
28.0
 30
0.0
 40
1.8
  1
TYTUŁ RYSUNKU
  7
PL_ARIAL
 11
41.2
 21
28.0
 31
0.0
100
AcDbText
  0
TEXT
  5
105
330
1B
100
AcDbEntity
 67
1
  8
R-TABLICZKA
100
AcDbText
 10
41.2
 20
21.5
 30
0.0
 40
5.0
  1
ZESTAWIENIE STALI — FUNDAMENT
  7
PL_ARIAL_B
 11
41.2
 21
21.5
 31
0.0
100
AcDbText
  0
TEXT
  5
106
330
1B
100
AcDbEntity
 67
1
  8
R-TABLICZKA
100
AcDbText
 10
41.2
 20
16.0
 30
0.0
 40
1.8
  1
SKALA
  7
PL_ARIAL
 11
41.2
 21
16.0
 31
0.0
100
AcDbText
  0
TEXT
  5
107
330
1B
100
AcDbEntity
 67
1
  8
R-TABLICZKA
100
AcDbText
 10
49.45627980922099
 20
11.57
 30
0.0
 40
3.5
  1
—
  7
PL_ARIAL_B
 11
49.45627980922099
 21
11.57
 31
0.0
100
AcDbText
  0
TEXT
  5
108
330
1B
100
AcDbEntity
 67
1
  8
R-TABLICZKA
100
AcDbText
 10
65.2
 20
16.0
 30
0.0
 40
1.8
  1
FORMAT
  7
PL_ARIAL
 11
65.2
 21
16.0
 31
0.0
100
AcDbText
  0
TEXT
  5
109
330
1B
100
AcDbEntity
 67
1
  8
R-TABLICZKA
100
AcDbText
 10
66.87104247104247
 20
12.216000000000001
 30
0.0
 40
1.8
  1
230×594
  7
PL_ARIAL
 11
66.87104247104247
 21
12.216000000000001
 31
0.0
100
AcDbText
  0
TEXT
  5
10A
330
1B
100
AcDbEntity
 67
1
  8
R-TABLICZKA
100
AcDbText
 10
81.2
 20
16.0
 30
0.0
 40
1.8
  1
DATA WYDANIA
  7
PL_ARIAL
 11
81.2
 21
16.0
 31
0.0
100
AcDbText
  0
TEXT
  5
10B
330
1B
100
AcDbEntity
 67
1
  8
R-TABLICZKA
100
AcDbText
 10
82.70690438337498
 20
11.95
 30
0.0
 40
2.5
  1
2026-09-25
  7
PL_ARIAL
 11
82.70690438337498
 21
11.95
 31
0.0
100
AcDbText
  0
TEXT
  5
10C
330
1B
100
AcDbEntity
 67
1
  8
R-TABLICZKA
100
AcDbText
 10
105.2
 20
16.0
 30
0.0
 40
1.8
  1
RODZAJ DOK.
  7
PL_ARIAL
 11
105.2
 21
16.0
 31
0.0
100
AcDbText
  0
TEXT
  5
10D
330
1B
100
AcDbEntity
 67
1
  8
R-TABLICZKA
100
AcDbText
 10
108.47508516920281
 20
12.216000000000001
 30
0.0
 40
1.8
  1
zestawienie stali
  7
PL_ARIAL
 11
108.47508516920281
 21
12.216000000000001
 31
0.0
100
AcDbText
  0
TEXT
  5
10E
330
1B
100
AcDbEntity
 67
1
  8
R-TABLICZKA
100
AcDbText
 10
133.2
 20
16.0
 30
0.0
 40
1.8
  1
NR RYSUNKU
  7
PL_ARIAL
 11
133.2
 21
16.0
 31
0.0
100
AcDbText
  0
TEXT
  5
10F
330
1B
100
AcDbEntity
 67
1
  8
R-TABLICZKA
100
AcDbText
 10
146.5512718600954
 20
11.57
 30
0.0
 40
3.5
  1
PT-BO-05
  7
PL_ARIAL_B
 11
146.5512718600954
 21
11.57
 31
0.0
100
AcDbText
  0
TEXT
  5
110
330
1B
100
AcDbEntity
 67
1
  8
R-TABLICZKA
100
AcDbText
 10
185.2
 20
16.0
 30
0.0
 40
1.8
  1
ARKUSZ
  7
PL_ARIAL
 11
185.2
 21
16.0
 31
0.0
100
AcDbText
  0
TEXT
  5
111
330
1B
100
AcDbEntity
 67
1
  8
R-TABLICZKA
100
AcDbText
 10
189.46405859641155
 20
11.95
 30
0.0
 40
2.5
  1
5/26
  7
PL_ARIAL
 11
189.46405859641155
 21
11.95
 31
0.0
100
AcDbText
  0
TEXT
  5
112
330
1B
100
AcDbEntity
 67
1
  8
R-TABLICZKA
100
AcDbText
 10
203.2
 20
16.0
 30
0.0
 40
1.8
  1
REW.
  7
PL_ARIAL
 11
203.2
 21
16.0
 31
0.0
100
AcDbText
  0
TEXT
  5
113
330
1B
100
AcDbEntity
 67
1
  8
R-TABLICZKA
100
AcDbText
 10
209.585453100159
 20
11.57
 30
0.0
 40
3.5
  1
0
  7
PL_ARIAL_B
 11
209.585453100159
 21
11.57
 31
0.0
100
AcDbText
  0
TEXT
  5
114
330
1B
100
AcDbEntity
 67
1
  8
R-TABLICZKA
100
AcDbText
 10
41.2
 20
104.25
 30
0.0
 40
2.5
  1
0
  7
PL_ARIAL
 11
41.2
 21
104.25
 31
0.0
100
AcDbText
  0
TEXT
  5
115
330
1B
100
AcDbEntity
 67
1
  8
R-TABLICZKA
100
AcDbText
 10
59.2
 20
104.25
 30
0.0
 40
2.5
  1
Wydanie — rysunek wygenerowany z modelu
  7
PL_ARIAL
 11
59.2
 21
104.25
 31
0.0
100
AcDbText
  0
TEXT
  5
116
330
1B
100
AcDbEntity
 67
1
  8
R-TABLICZKA
100
AcDbText
 10
181.2
 20
104.25
 30
0.0
 40
2.5
  1
2026-09-25
  7
PL_ARIAL
 11
181.2
 21
104.25
 31
0.0
100
AcDbText
  0
TEXT
  5
117
330
1B
100
AcDbEntity
 67
1
  8
R-TABLICZKA
100
AcDbText
 10
41.2
 20
109.6
 30
0.0
 40
1.8
  1
REW.
  7
PL_ARIAL
 11
41.2
 21
109.6
 31
0.0
100
AcDbText
  0
TEXT
  5
118
330
1B
100
AcDbEntity
 67
1
  8
R-TABLICZKA
100
AcDbText
 10
59.2
 20
109.6
 30
0.0
 40
1.8
  1
OPIS ZMIANY
  7
PL_ARIAL
 11
59.2
 21
109.6
 31
0.0
100
AcDbText
  0
TEXT
  5
119
330
1B
100
AcDbEntity
 67
1
  8
R-TABLICZKA
100
AcDbText
 10
181.2
 20
109.6
 30
0.0
 40
1.8
  1
DATA
  7
PL_ARIAL
 11
181.2
 21
109.6
 31
0.0
100
AcDbText
  0
VIEWPORT
  5
3AC
330
1B
100
AcDbEntity
 67
1
  8
R-RZUTNIA
100
AcDbViewport
 10
121.5
 20
386.5
 30
0.0
 40
186.0
 41
383.00000000000006
 68
2
 69
3
 12
0.09
 22
-0.189
 13
0.0
 23
0.0
 14
10.0
 24
10.0
 15
10.0
 25
10.0
 16
0.0
 26
0.0
 36
1.0
 17
0.0
 27
0.0
 37
0.0
 42
50.0
 43
0.0
 44
0.0
 45
0.38300000000000006
 50
0.0
 51
0.0
 72
100
 90
16384
  1

281
0
 71
0
 74
0
110
0.0
120
0.0
130
0.0
111
1.0
121
0.0
131
0.0
112
0.0
122
1.0
132
0.0
 79
0
146
0.0
282
0
  0
ENDSEC
  0
SECTION
  2
OBJECTS
  0
DICTIONARY
  5
A
330
0
100
AcDbDictionary
281
1
  3
ACAD_COLOR
350
B
  3
ACAD_GROUP
350
C
  3
ACAD_LAYOUT
350
D
  3
ACAD_MATERIAL
350
E
  3
ACAD_MLEADERSTYLE
350
F
  3
ACAD_MLINESTYLE
350
10
  3
ACAD_PLOTSETTINGS
350
11
  3
ACAD_PLOTSTYLENAME
350
12
  3
ACAD_SCALELIST
350
14
  3
ACAD_TABLESTYLE
350
15
  3
ACAD_VISUALSTYLE
350
16
  3
EZDXF_META
350
2D
  0
DICTIONARY
  5
B
330
A
100
AcDbDictionary
281
1
  0
DICTIONARY
  5
C
330
A
100
AcDbDictionary
281
1
  0
DICTIONARY
  5
D
330
A
100
AcDbDictionary
281
1
  3
Model
350
1A
  3
Arkusz PT-BO-05
350
1E
  0
DICTIONARY
  5
E
330
A
100
AcDbDictionary
281
1
  3
ByBlock
350
1F
  3
ByLayer
350
20
  3
Global
350
21
  0
DICTIONARY
  5
F
330
A
100
AcDbDictionary
281
1
  3
Standard
350
2C
  0
DICTIONARY
  5
10
330
A
100
AcDbDictionary
281
1
  3
Standard
350
22
  0
DICTIONARY
  5
11
330
A
100
AcDbDictionary
281
1
  0
ACDBDICTIONARYWDFLT
  5
12
330
A
100
AcDbDictionary
281
1
  3
Normal
350
13
100
AcDbDictionaryWithDefault
340
13
  0
ACDBPLACEHOLDER
  5
13
330
12
  0
DICTIONARY
  5
14
330
A
100
AcDbDictionary
281
1
  0
DICTIONARY
  5
15
330
A
100
AcDbDictionary
281
1
  0
DICTIONARY
  5
16
330
A
100
AcDbDictionary
281
1
  0
LAYOUT
  5
1A
330
D
100
AcDbPlotSettings
  1

  4
A3
  6

 40
7.5
 41
20.0
 42
7.5
 43
20.0
 44
420.0
 45
297.0
 46
0.0
 47
0.0
 48
0.0
 49
0.0
140
0.0
141
0.0
142
1.0
143
1.0
 70
1024
 72
1
 73
0
 74
5
  7

 75
16
 76
0
 77
2
 78
300
147
1.0
148
0.0
149
0.0
100
AcDbLayout
  1
Model
 70
1
 71
0
 10
0.0
 20
0.0
 11
420.0
 21
297.0
 12
0.0
 22
0.0
 32
0.0
 14
1e+20
 24
1e+20
 34
1e+20
 15
-1e+20
 25
-1e+20
 35
-1e+20
146
0.0
 13
0.0
 23
0.0
 33
0.0
 16
1.0
 26
0.0
 36
0.0
 17
0.0
 27
1.0
 37
0.0
 76
1
330
17
  0
LAYOUT
  5
1E
330
D
100
AcDbPlotSettings
  1

  2
DWG to PDF.pc3
  4
LAMELA_(230.00_x_594.00_MM)
  6

 40
0.0
 41
0.0
 42
0.0
 43
0.0
 44
230.0
 45
594.0
 46
0.0
 47
0.0
 48
0.0
 49
0.0
140
0.0
141
0.0
142
1.0
143
1.0
 70
672
 72
1
 73
0
 74
5
  7

 75
16
 76
0
 77
2
 78
300
147
1.0
148
0.0
149
0.0
100
AcDbLayout
  1
Arkusz PT-BO-05
 70
1
 71
1
 10
-0.0
 20
-0.0
 11
230.0
 21
594.0
 12
0.0
 22
0.0
 32
0.0
 14
1e+20
 24
1e+20
 34
1e+20
 15
-1e+20
 25
-1e+20
 35
-1e+20
146
0.0
 13
0.0
 23
0.0
 33
0.0
 16
1.0
 26
0.0
 36
0.0
 17
0.0
 27
1.0
 37
0.0
 76
1
330
1B
331
A4
  0
MATERIAL
  5
1F
102
{ACAD_REACTORS
330
E
102
}
330
E
100
AcDbMaterial
  1
ByBlock
  2

 70
0
 40
1.0
 71
1
 41
1.0
 91
-1023410177
 42
1.0
 72
1
  3

 73
1
 74
1
 75
1
 44
0.5
 73
0
 45
1.0
 46
1.0
 77
1
  4

 78
1
 79
1
170
1
 48
1.0
171
1
  6

172
1
173
1
174
1
140
1.0
141
1.0
175
1
  7

176
1
177
1
178
1
143
1.0
179
1
  8

270
1
271
1
272
1
145
1.0
146
1.0
273
1
  9

274
1
275
1
276
1
 42
1.0
 72
1
  3

 73
1
 74
1
 75
1
 94
63
  0
MATERIAL
  5
20
102
{ACAD_REACTORS
330
E
102
}
330
E
100
AcDbMaterial
  1
ByLayer
  2

 70
0
 40
1.0
 71
1
 41
1.0
 91
-1023410177
 42
1.0
 72
1
  3

 73
1
 74
1
 75
1
 44
0.5
 73
0
 45
1.0
 46
1.0
 77
1
  4

 78
1
 79
1
170
1
 48
1.0
171
1
  6

172
1
173
1
174
1
140
1.0
141
1.0
175
1
  7

176
1
177
1
178
1
143
1.0
179
1
  8

270
1
271
1
272
1
145
1.0
146
1.0
273
1
  9

274
1
275
1
276
1
 42
1.0
 72
1
  3

 73
1
 74
1
 75
1
 94
63
  0
MATERIAL
  5
21
102
{ACAD_REACTORS
330
E
102
}
330
E
100
AcDbMaterial
  1
Global
  2

 70
0
 40
1.0
 71
1
 41
1.0
 91
-1023410177
 42
1.0
 72
1
  3

 73
1
 74
1
 75
1
 44
0.5
 73
0
 45
1.0
 46
1.0
 77
1
  4

 78
1
 79
1
170
1
 48
1.0
171
1
  6

172
1
173
1
174
1
140
1.0
141
1.0
175
1
  7

176
1
177
1
178
1
143
1.0
179
1
  8

270
1
271
1
272
1
145
1.0
146
1.0
273
1
  9

274
1
275
1
276
1
 42
1.0
 72
1
  3

 73
1
 74
1
 75
1
 94
63
  0
MLINESTYLE
  5
22
102
{ACAD_REACTORS
330
10
102
}
330
10
100
AcDbMlineStyle
  2
Standard
 70
0
  3

 62
256
 51
90.0
 52
90.0
 71
2
 49
0.5
 62
256
  6
BYLAYER
 49
-0.5
 62
256
  6
BYLAYER
  0
MLEADERSTYLE
  5
2C
102
{ACAD_REACTORS
330
F
102
}
330
F
100
AcDbMLeaderStyle
179
2
170
2
171
1
172
0
 90
2
 40
0.0
 41
0.0
173
1
 91
-1056964608
 92
-2
290
1
 42
2.0
291
1
 43
8.0
  3
Standard
 44
4.0
300

342
29
174
1
175
1
176
0
178
1
 93
-1056964608
 45
4.0
292
0
297
0
 46
4.0
 94
-1056964608
 47
1.0
 49
1.0
140
1.0
294
1
141
0.0
177
0
142
1.0
295
0
296
0
143
3.75
271
0
272
9
273
9
  0
DICTIONARY
  5
2D
330
A
100
AcDbDictionary
280
1
281
1
  3
CREATED_BY_EZDXF
350
2E
  3
WRITTEN_BY_EZDXF
350
3AF
  0
DICTIONARYVAR
  5
2E
330
2D
100
DictionaryVariables
280
0
  1
1.4.4 @ 2026-09-25T06:47:16.758665+00:00
  0
DICTIONARYVAR
  5
3AF
330
2D
100
DictionaryVariables
280
0
  1
1.4.4 @ 2026-09-25T06:47:16.855723+00:00
  0
ENDSEC
  0
EOF
