  0
SECTION
  2
HEADER
  9
$ACADVER
  1
AC1032
  9
$ACADMAINTVER
 90
4
  9
$DWGCODEPAGE
  3
ANSI_1252
  9
$LASTSAVEDBY
  1
ezdxf
  9
$REQUIREDVERSIONS
160
0
  9
$INSBASE
 10
0.0
 20
0.0
 30
0.0
  9
$EXTMIN
 10
1e+20
 20
1e+20
 30
1e+20
  9
$EXTMAX
 10
-1e+20
 20
-1e+20
 30
-1e+20
  9
$LIMMIN
 10
0.0
 20
0.0
  9
$LIMMAX
 10
420.0
 20
297.0
  9
$ORTHOMODE
 70
0
  9
$REGENMODE
 70
1
  9
$FILLMODE
 70
1
  9
$QTEXTMODE
 70
0
  9
$MIRRTEXT
 70
1
  9
$LTSCALE
 40
1.0
  9
$ATTMODE
 70
1
  9
$TEXTSIZE
 40
2.5
  9
$TRACEWID
 40
1.0
  9
$TEXTSTYLE
  7
Standard
  9
$CLAYER
  8
0
  9
$CELTYPE
  6
ByLayer
  9
$CECOLOR
 62
256
  9
$CELTSCALE
 40
1.0
  9
$DISPSILH
 70
0
  9
$DIMSCALE
 40
1.0
  9
$DIMASZ
 40
2.5
  9
$DIMEXO
 40
0.625
  9
$DIMDLI
 40
3.75
  9
$DIMRND
 40
0.0
  9
$DIMDLE
 40
0.0
  9
$DIMEXE
 40
1.25
  9
$DIMTP
 40
0.0
  9
$DIMTM
 40
0.0
  9
$DIMTXT
 40
2.5
  9
$DIMCEN
 40
2.5
  9
$DIMTSZ
 40
0.0
  9
$DIMTOL
 70
0
  9
$DIMLIM
 70
0
  9
$DIMTIH
 70
0
  9
$DIMTOH
 70
0
  9
$DIMSE1
 70
0
  9
$DIMSE2
 70
0
  9
$DIMTAD
 70
1
  9
$DIMZIN
 70
8
  9
$DIMBLK
  1

  9
$DIMASO
 70
1
  9
$DIMSHO
 70
1
  9
$DIMPOST
  1

  9
$DIMAPOST
  1

  9
$DIMALT
 70
0
  9
$DIMALTD
 70
3
  9
$DIMALTF
 40
0.03937007874
  9
$DIMLFAC
 40
1.0
  9
$DIMTOFL
 70
1
  9
$DIMTVP
 40
0.0
  9
$DIMTIX
 70
0
  9
$DIMSOXD
 70
0
  9
$DIMSAH
 70
0
  9
$DIMBLK1
  1

  9
$DIMBLK2
  1

  9
$DIMSTYLE
  2
ISO-25
  9
$DIMCLRD
 70
0
  9
$DIMCLRE
 70
0
  9
$DIMCLRT
 70
0
  9
$DIMTFAC
 40
1.0
  9
$DIMGAP
 40
0.625
  9
$DIMJUST
 70
0
  9
$DIMSD1
 70
0
  9
$DIMSD2
 70
0
  9
$DIMTOLJ
 70
0
  9
$DIMTZIN
 70
8
  9
$DIMALTZ
 70
0
  9
$DIMALTTZ
 70
0
  9
$DIMUPT
 70
0
  9
$DIMDEC
 70
2
  9
$DIMTDEC
 70
2
  9
$DIMALTU
 70
2
  9
$DIMALTTD
 70
3
  9
$DIMTXSTY
  7
Standard
  9
$DIMAUNIT
 70
0
  9
$DIMADEC
 70
0
  9
$DIMALTRND
 40
0.0
  9
$DIMAZIN
 70
0
  9
$DIMDSEP
 70
44
  9
$DIMATFIT
 70
3
  9
$DIMFRAC
 70
0
  9
$DIMLDRBLK
  1

  9
$DIMLUNIT
 70
2
  9
$DIMLWD
 70
-2
  9
$DIMLWE
 70
-2
  9
$DIMTMOVE
 70
0
  9
$DIMFXL
 40
1.0
  9
$DIMFXLON
 70
0
  9
$DIMJOGANG
 40
0.785398163397
  9
$DIMTFILL
 70
0
  9
$DIMTFILLCLR
 70
0
  9
$DIMARCSYM
 70
0
  9
$DIMLTYPE
  6

  9
$DIMLTEX1
  6

  9
$DIMLTEX2
  6

  9
$DIMTXTDIRECTION
 70
0
  9
$LUNITS
 70
2
  9
$LUPREC
 70
4
  9
$SKETCHINC
 40
1.0
  9
$FILLETRAD
 40
10.0
  9
$AUNITS
 70
0
  9
$AUPREC
 70
2
  9
$MENU
  1
.
  9
$ELEVATION
 40
0.0
  9
$PELEVATION
 40
0.0
  9
$THICKNESS
 40
0.0
  9
$LIMCHECK
 70
0
  9
$CHAMFERA
 40
0.0
  9
$CHAMFERB
 40
0.0
  9
$CHAMFERC
 40
0.0
  9
$CHAMFERD
 40
0.0
  9
$SKPOLY
 70
0
  9
$TDCREATE
 40
2461309.220439815
  9
$TDUCREATE
 40
2458532.153996898
  9
$TDUPDATE
 40
2461309.220439815
  9
$TDUUPDATE
 40
2458532.1544311
  9
$TDINDWG
 40
0.0
  9
$TDUSRTIMER
 40
0.0
  9
$USRTIMER
 70
1
  9
$ANGBASE
 50
0.0
  9
$ANGDIR
 70
0
  9
$PDMODE
 70
0
  9
$PDSIZE
 40
0.0
  9
$PLINEWID
 40
0.0
  9
$SPLFRAME
 70
0
  9
$SPLINETYPE
 70
6
  9
$SPLINESEGS
 70
8
  9
$HANDSEED
  5
282
  9
$SURFTAB1
 70
6
  9
$SURFTAB2
 70
6
  9
$SURFTYPE
 70
6
  9
$SURFU
 70
6
  9
$SURFV
 70
6
  9
$UCSBASE
  2

  9
$UCSNAME
  2

  9
$UCSORG
 10
0.0
 20
0.0
 30
0.0
  9
$UCSXDIR
 10
1.0
 20
0.0
 30
0.0
  9
$UCSYDIR
 10
0.0
 20
1.0
 30
0.0
  9
$UCSORTHOREF
  2

  9
$UCSORTHOVIEW
 70
0
  9
$UCSORGTOP
 10
0.0
 20
0.0
 30
0.0
  9
$UCSORGBOTTOM
 10
0.0
 20
0.0
 30
0.0
  9
$UCSORGLEFT
 10
0.0
 20
0.0
 30
0.0
  9
$UCSORGRIGHT
 10
0.0
 20
0.0
 30
0.0
  9
$UCSORGFRONT
 10
0.0
 20
0.0
 30
0.0
  9
$UCSORGBACK
 10
0.0
 20
0.0
 30
0.0
  9
$PUCSBASE
  2

  9
$PUCSNAME
  2

  9
$PUCSORG
 10
0.0
 20
0.0
 30
0.0
  9
$PUCSXDIR
 10
1.0
 20
0.0
 30
0.0
  9
$PUCSYDIR
 10
0.0
 20
1.0
 30
0.0
  9
$PUCSORTHOREF
  2

  9
$PUCSORTHOVIEW
 70
0
  9
$PUCSORGTOP
 10
0.0
 20
0.0
 30
0.0
  9
$PUCSORGBOTTOM
 10
0.0
 20
0.0
 30
0.0
  9
$PUCSORGLEFT
 10
0.0
 20
0.0
 30
0.0
  9
$PUCSORGRIGHT
 10
0.0
 20
0.0
 30
0.0
  9
$PUCSORGFRONT
 10
0.0
 20
0.0
 30
0.0
  9
$PUCSORGBACK
 10
0.0
 20
0.0
 30
0.0
  9
$USERI1
 70
0
  9
$USERI2
 70
0
  9
$USERI3
 70
0
  9
$USERI4
 70
0
  9
$USERI5
 70
0
  9
$USERR1
 40
0.0
  9
$USERR2
 40
0.0
  9
$USERR3
 40
0.0
  9
$USERR4
 40
0.0
  9
$USERR5
 40
0.0
  9
$WORLDVIEW
 70
1
  9
$SHADEDGE
 70
3
  9
$SHADEDIF
 70
70
  9
$TILEMODE
 70
1
  9
$MAXACTVP
 70
64
  9
$PINSBASE
 10
0.0
 20
0.0
 30
0.0
  9
$PLIMCHECK
 70
0
  9
$PEXTMIN
 10
1e+20
 20
1e+20
 30
1e+20
  9
$PEXTMAX
 10
-1e+20
 20
-1e+20
 30
-1e+20
  9
$PLIMMIN
 10
-0.0
 20
-0.0
  9
$PLIMMAX
 10
891.0
 20
420.0
  9
$UNITMODE
 70
0
  9
$VISRETAIN
 70
1
  9
$PLINEGEN
 70
0
  9
$PSLTSCALE
 70
0
  9
$TREEDEPTH
 70
3020
  9
$CMLSTYLE
  2
Standard
  9
$CMLJUST
 70
0
  9
$CMLSCALE
 40
20.0
  9
$PROXYGRAPHICS
 70
1
  9
$MEASUREMENT
 70
1
  9
$CELWEIGHT
370
-1
  9
$ENDCAPS
280
0
  9
$JOINSTYLE
280
0
  9
$LWDISPLAY
290
1
  9
$INSUNITS
 70
6
  9
$HYPERLINKBASE
  1

  9
$STYLESHEET
  1

  9
$XEDIT
290
1
  9
$CEPSNTYPE
380
0
  9
$PSTYLEMODE
290
1
  9
$FINGERPRINTGUID
  2
{17C72673-BB33-47EF-A81F-2C6F53D165ED}
  9
$VERSIONGUID
  2
{183E18D4-263C-453A-9F1D-C93DCBA071E3}
  9
$EXTNAMES
290
1
  9
$PSVPSCALE
 40
0.0
  9
$OLESTARTUP
290
0
  9
$SORTENTS
280
127
  9
$INDEXCTL
280
0
  9
$HIDETEXT
280
1
  9
$XCLIPFRAME
280
1
  9
$HALOGAP
280
0
  9
$OBSCOLOR
 70
257
  9
$OBSLTYPE
280
0
  9
$INTERSECTIONDISPLAY
280
0
  9
$INTERSECTIONCOLOR
 70
257
  9
$DIMASSOC
280
2
  9
$PROJECTNAME
  1

  9
$CAMERADISPLAY
290
0
  9
$LENSLENGTH
 40
50.0
  9
$CAMERAHEIGHT
 40
0.0
  9
$STEPSPERSEC
 40
24.0
  9
$STEPSIZE
 40
100.0
  9
$3DDWFPREC
 40
2.0
  9
$PSOLWIDTH
 40
0.005
  9
$PSOLHEIGHT
 40
0.08
  9
$LOFTANG1
 40
1.570796326795
  9
$LOFTANG2
 40
1.570796326795
  9
$LOFTMAG1
 40
0.0
  9
$LOFTMAG2
 40
0.0
  9
$LOFTPARAM
 70
7
  9
$LOFTNORMALS
280
1
  9
$LATITUDE
 40
37.795
  9
$LONGITUDE
 40
-122.394
  9
$NORTHDIRECTION
 40
0.0
  9
$TIMEZONE
 70
-8000
  9
$LIGHTGLYPHDISPLAY
280
1
  9
$TILEMODELIGHTSYNCH
280
1
  9
$CMATERIAL
347
20
  9
$SOLIDHIST
280
0
  9
$SHOWHIST
280
1
  9
$DWFFRAME
280
2
  9
$DGNFRAME
280
2
  9
$REALWORLDSCALE
290
1
  9
$INTERFERECOLOR
 62
256
  9
$CSHADOW
280
0
  9
$SHADOWPLANELOCATION
 40
0.0
  0
ENDSEC
  0
SECTION
  2
CLASSES
  0
CLASS
  1
ACDBDICTIONARYWDFLT
  2
AcDbDictionaryWithDefault
  3
ObjectDBX Classes
 90
0
 91
0
280
0
281
0
  0
CLASS
  1
SUN
  2
AcDbSun
  3
SCENEOE
 90
1153
 91
0
280
0
281
0
  0
CLASS
  1
VISUALSTYLE
  2
AcDbVisualStyle
  3
ObjectDBX Classes
 90
4095
 91
0
280
0
281
0
  0
CLASS
  1
MATERIAL
  2
AcDbMaterial
  3
ObjectDBX Classes
 90
1153
 91
0
280
0
281
0
  0
CLASS
  1
SCALE
  2
AcDbScale
  3
ObjectDBX Classes
 90
1153
 91
0
280
0
281
0
  0
CLASS
  1
TABLESTYLE
  2
AcDbTableStyle
  3
ObjectDBX Classes
 90
4095
 91
0
280
0
281
0
  0
CLASS
  1
MLEADERSTYLE
  2
AcDbMLeaderStyle
  3
ACDB_MLEADERSTYLE_CLASS
 90
4095
 91
0
280
0
281
0
  0
CLASS
  1
DICTIONARYVAR
  2
AcDbDictionaryVar
  3
ObjectDBX Classes
 90
0
 91
0
280
0
281
0
  0
CLASS
  1
CELLSTYLEMAP
  2
AcDbCellStyleMap
  3
ObjectDBX Classes
 90
1152
 91
0
280
0
281
0
  0
CLASS
  1
MENTALRAYRENDERSETTINGS
  2
AcDbMentalRayRenderSettings
  3
SCENEOE
 90
1024
 91
0
280
0
281
0
  0
CLASS
  1
ACDBDETAILVIEWSTYLE
  2
AcDbDetailViewStyle
  3
ObjectDBX Classes
 90
1025
 91
0
280
0
281
0
  0
CLASS
  1
ACDBSECTIONVIEWSTYLE
  2
AcDbSectionViewStyle
  3
ObjectDBX Classes
 90
1025
 91
0
280
0
281
0
  0
CLASS
  1
RASTERVARIABLES
  2
AcDbRasterVariables
  3
ISM
 90
0
 91
0
280
0
281
0
  0
CLASS
  1
ACDBPLACEHOLDER
  2
AcDbPlaceHolder
  3
ObjectDBX Classes
 90
0
 91
0
280
0
281
0
  0
CLASS
  1
LAYOUT
  2
AcDbLayout
  3
ObjectDBX Classes
 90
0
 91
0
280
0
281
0
  0
ENDSEC
  0
SECTION
  2
TABLES
  0
TABLE
  2
VPORT
  5
8
330
0
100
AcDbSymbolTable
 70
1
  0
VPORT
  5
23
330
8
100
AcDbSymbolTableRecord
100
AcDbViewportTableRecord
  2
*Active
 70
0
 10
0.0
 20
0.0
 11
1.0
 21
1.0
 12
0.0
 22
0.0
 13
0.0
 23
0.0
 14
0.5
 24
0.5
 15
0.5
 25
0.5
 16
0.0
 26
0.0
 36
1.0
 17
0.0
 27
0.0
 37
0.0
 40
1000.0
 41
1.34
 42
50.0
 43
0.0
 44
0.0
 50
0.0
 51
0.0
 71
0
 72
1000
 73
1
 74
3
 75
0
 76
0
 77
0
 78
0
281
0
 65
0
146
0.0
  0
ENDTAB
  0
TABLE
  2
LTYPE
  5
2
330
0
100
AcDbSymbolTable
 70
14
  0
LTYPE
  5
24
330
2
100
AcDbSymbolTableRecord
100
AcDbLinetypeTableRecord
  2
ByBlock
 70
0
  3

 72
65
 73
0
 40
0.0
  0
LTYPE
  5
25
330
2
100
AcDbSymbolTableRecord
100
AcDbLinetypeTableRecord
  2
ByLayer
 70
0
  3

 72
65
 73
0
 40
0.0
  0
LTYPE
  5
26
330
2
100
AcDbSymbolTableRecord
100
AcDbLinetypeTableRecord
  2
Continuous
 70
0
  3

 72
65
 73
0
 40
0.0
  0
LTYPE
  5
2F
330
2
100
AcDbSymbolTableRecord
100
AcDbLinetypeTableRecord
  2
KRESKOWA
 70
0
  3
Linia kreskowa (02): krawędzie niewidoczne, elementy pod/nad płaszczyzną cięcia
 72
65
 73
2
 40
5.249999999999999
 49
4.199999999999999
 74
0
 49
-1.0499999999999998
 74
0
  0
LTYPE
  5
30
330
2
100
AcDbSymbolTableRecord
100
AcDbLinetypeTableRecord
  2
KRESKOWA_DROBNA
 70
0
  3
Linia kreskowa drobna (kreska krótka 6d)
 72
65
 73
2
 40
3.1499999999999995
 49
2.0999999999999996
 74
0
 49
-1.0499999999999998
 74
0
  0
LTYPE
  5
31
330
2
100
AcDbSymbolTableRecord
100
AcDbLinetypeTableRecord
  2
PUNKTOWA
 70
0
  3
Linia punktowa (04): osie, płaszczyzny przekroju
 72
65
 73
4
 40
10.5
 49
8.399999999999999
 74
0
 49
-1.0499999999999998
 74
0
 49
0.0
 74
0
 49
-1.0499999999999998
 74
0
  0
LTYPE
  5
32
330
2
100
AcDbSymbolTableRecord
100
AcDbLinetypeTableRecord
  2
PUNKTOWA_KROTKA
 70
0
  3
Linia punktowa z kreską zwykłą (końce przekrojów, gaz)
 72
65
 73
4
 40
6.299999999999999
 49
4.199999999999999
 74
0
 49
-1.0499999999999998
 74
0
 49
0.0
 74
0
 49
-1.0499999999999998
 74
0
  0
LTYPE
  5
33
330
2
100
AcDbSymbolTableRecord
100
AcDbLinetypeTableRecord
  2
DWUPUNKTOWA
 70
0
  3
Linia dwupunktowa (05): położenia skrajne, części przyległe
 72
65
 73
6
 40
11.55
 49
8.399999999999999
 74
0
 49
-1.0499999999999998
 74
0
 49
0.0
 74
0
 49
-1.0499999999999998
 74
0
 49
0.0
 74
0
 49
-1.0499999999999998
 74
0
  0
LTYPE
  5
34
330
2
100
AcDbSymbolTableRecord
100
AcDbLinetypeTableRecord
  2
KROPKOWA
 70
0
  3
Linia kropkowa (07): elementy nieobjęte projektem
 72
65
 73
2
 40
1.0499999999999998
 49
0.0
 74
0
 49
-1.0499999999999998
 74
0
  0
LTYPE
  5
35
330
2
100
AcDbSymbolTableRecord
100
AcDbLinetypeTableRecord
  2
KRESKA_DLUGA
 70
0
  3
Linia kreskowa długa (instalacje)
 72
65
 73
2
 40
9.45
 49
8.399999999999999
 74
0
 49
-1.0499999999999998
 74
0
  0
LTYPE
  5
36
330
2
100
AcDbSymbolTableRecord
100
AcDbLinetypeTableRecord
  2
KRESKOWA_3_1
 70
0
  3
Linia kreskowa 3/1 mm (paroizolacja, R4 pkt 3.8)
 72
65
 73
2
 40
4.0
 49
3.0
 74
0
 49
-1.0
 74
0
  0
LTYPE
  5
37
330
2
100
AcDbSymbolTableRecord
100
AcDbLinetypeTableRecord
  2
HYDRO_OKNA
 70
0
  3
Białe okna pasa izolacji przeciwwodnej (czarny 3 / biały 1,5 mm)
 72
65
 73
2
 40
4.5
 49
1.5
 74
0
 49
-3.0
 74
0
  0
LTYPE
  5
38
330
2
100
AcDbSymbolTableRecord
100
AcDbLinetypeTableRecord
  2
WIELOPUNKTOWA
 70
0
  3
Linia wielopunktowa (telekomunikacja, PN-B-01027)
 72
65
 73
8
 40
13.399999999999999
 49
9.0
 74
0
 49
-1.2
 74
0
 49
0.0
 74
0
 49
-1.0
 74
0
 49
0.0
 74
0
 49
-1.0
 74
0
 49
0.0
 74
0
 49
-1.2
 74
0
  0
LTYPE
  5
39
330
2
100
AcDbSymbolTableRecord
100
AcDbLinetypeTableRecord
  2
KABEL_E
 70
0
  3
Kabel elektroenergetyczny (PN-B-01027: kreskowa 2·9·2)
 72
65
 73
2
 40
11.0
 49
9.0
 74
0
 49
-2.0
 74
0
  0
ENDTAB
  0
TABLE
  2
LAYER
  5
1
330
0
100
AcDbSymbolTable
 70
103
  0
LAYER
  5
27
330
1
100
AcDbSymbolTableRecord
100
AcDbLayerTableRecord
  2
0
 70
0
 62
7
  6
Continuous
370
-3
390
13
347
21
  0
LAYER
  5
28
330
1
100
AcDbSymbolTableRecord
100
AcDbLayerTableRecord
  2
Defpoints
 70
0
 62
7
  6
Continuous
290
0
370
-3
390
13
347
21
  0
LAYER
  5
3E
330
1
100
AcDbSymbolTableRecord
100
AcDbLayerTableRecord
  2
R-RAMKA
 70
0
 62
7
  6
Continuous
370
50
390
13
347
21
1001
AcAecLayerStandard
1000

1000
Ramka arkusza, znaki składania i centrowania
  0
LAYER
  5
40
330
1
100
AcDbSymbolTableRecord
100
AcDbLayerTableRecord
  2
R-TABLICZKA
 70
0
 62
7
  6
Continuous
370
25
390
13
347
21
1001
AcAecLayerStandard
1000

1000
Tabliczka rysunkowa (PN-EN ISO 7200)
  0
LAYER
  5
41
330
1
100
AcDbSymbolTableRecord
100
AcDbLayerTableRecord
  2
R-OPISY
 70
0
 62
7
  6
Continuous
370
25
390
13
347
21
1001
AcAecLayerStandard
1000

1000
Opisy arkusza: tytuły rzutni, uwagi, legendy
  0
LAYER
  5
42
330
1
100
AcDbSymbolTableRecord
100
AcDbLayerTableRecord
  2
R-LEGENDA
 70
0
 62
7
  6
Continuous
370
25
390
13
347
21
1001
AcAecLayerStandard
1000

1000
Legenda oznaczeń
  0
LAYER
  5
43
330
1
100
AcDbSymbolTableRecord
100
AcDbLayerTableRecord
  2
R-RZUTNIA
 70
0
 62
8
  6
Continuous
290
0
370
18
390
13
347
21
1001
AcAecLayerStandard
1000

1000
Obrys rzutni (nie drukowany)
  0
LAYER
  5
44
330
1
100
AcDbSymbolTableRecord
100
AcDbLayerTableRecord
  2
A-SCIANY-KONSTR
 70
0
 62
7
  6
Continuous
370
50
390
13
347
21
1001
AcAecLayerStandard
1000

1000
Ściany i słupy konstrukcyjne w przekroju — kontur
  0
LAYER
  5
45
330
1
100
AcDbSymbolTableRecord
100
AcDbLayerTableRecord
  2
A-SCIANY-DZIAL
 70
0
 62
7
  6
Continuous
370
35
390
13
347
21
1001
AcAecLayerStandard
1000

1000
Ścianki działowe w przekroju — kontur
  0
LAYER
  5
46
330
1
100
AcDbSymbolTableRecord
100
AcDbLayerTableRecord
  2
A-SCIANY-IZOL
 70
0
 62
4
  6
Continuous
370
35
390
13
347
21
1001
AcAecLayerStandard
1000

1000
Warstwy izolacji termicznej ścian — kontur
  0
LAYER
  5
47
330
1
100
AcDbSymbolTableRecord
100
AcDbLayerTableRecord
  2
A-SCIANY-WYK
 70
0
 62
8
  6
Continuous
370
18
390
13
347
21
1001
AcAecLayerStandard
1000

1000
Tynki, okładziny, warstwy wykończeniowe — kontur
  0
LAYER
  5
48
330
1
100
AcDbSymbolTableRecord
100
AcDbLayerTableRecord
  2
A-STROPY
 70
0
 62
7
  6
Continuous
370
50
390
13
347
21
1001
AcAecLayerStandard
1000

1000
Stropy, płyty, stropodachy w przekroju — kontur
  0
LAYER
  5
49
330
1
100
AcDbSymbolTableRecord
100
AcDbLayerTableRecord
  2
A-WARSTWY
 70
0
 62
8
  6
Continuous
370
25
390
13
347
21
1001
AcAecLayerStandard
1000

1000
Warstwy przegród poziomych (podłogi, dachy) — kontur
  0
LAYER
  5
4A
330
1
100
AcDbSymbolTableRecord
100
AcDbLayerTableRecord
  2
A-IZOL-WODNA
 70
0
 62
5
  6
Continuous
370
100
390
13
347
21
1001
AcAecLayerStandard
1000

1000
Izolacje przeciwwodne/przeciwwilgociowe/paroizolacje
  0
LAYER
  5
4B
330
1
100
AcDbSymbolTableRecord
100
AcDbLayerTableRecord
  2
A-FUNDAMENTY
 70
0
 62
7
  6
Continuous
370
50
390
13
347
21
1001
AcAecLayerStandard
1000

1000
Fundamenty w przekroju — kontur
  0
LAYER
  5
4C
330
1
100
AcDbSymbolTableRecord
100
AcDbLayerTableRecord
  2
A-KRESKOWANIE
 70
0
 62
8
  6
Continuous
370
18
390
13
347
21
1001
AcAecLayerStandard
1000

1000
Kreskowanie materiałów (PN-B-01030)
  0
LAYER
  5
4D
330
1
100
AcDbSymbolTableRecord
100
AcDbLayerTableRecord
  2
A-WYPELNIENIA
 70
0
 62
9
  6
Continuous
370
18
390
13
347
21
1001
AcAecLayerStandard
1000

1000
Wypełnienia (zaczernienia, tła)
  0
LAYER
  5
4E
330
1
100
AcDbSymbolTableRecord
100
AcDbLayerTableRecord
  2
A-WIDOK
 70
0
 62
7
  6
Continuous
370
25
390
13
347
21
1001
AcAecLayerStandard
1000

1000
Krawędzie widoczne (poza płaszczyzną cięcia)
  0
LAYER
  5
4F
330
1
100
AcDbSymbolTableRecord
100
AcDbLayerTableRecord
  2
A-NIEWIDOCZNE
 70
0
 62
8
  6
KRESKOWA
370
25
390
13
347
21
1001
AcAecLayerStandard
1000

1000
Krawędzie niewidoczne
  0
LAYER
  5
50
330
1
100
AcDbSymbolTableRecord
100
AcDbLayerTableRecord
  2
A-NAD-CIECIEM
 70
0
 62
8
  6
KRESKOWA
370
25
390
13
347
21
1001
AcAecLayerStandard
1000

1000
Elementy nad płaszczyzną cięcia (belki, nadproża, okapy)
  0
LAYER
  5
51
330
1
100
AcDbSymbolTableRecord
100
AcDbLayerTableRecord
  2
A-OKNA
 70
0
 62
3
  6
Continuous
370
35
390
13
347
21
1001
AcAecLayerStandard
1000

1000
Stolarka okienna
  0
LAYER
  5
52
330
1
100
AcDbSymbolTableRecord
100
AcDbLayerTableRecord
  2
A-DRZWI
 70
0
 62
3
  6
Continuous
370
35
390
13
347
21
1001
AcAecLayerStandard
1000

1000
Stolarka drzwiowa
  0
LAYER
  5
53
330
1
100
AcDbSymbolTableRecord
100
AcDbLayerTableRecord
  2
A-SCHODY
 70
0
 62
6
  6
Continuous
370
25
390
13
347
21
1001
AcAecLayerStandard
1000

1000
Schody, pochylnie, balustrady
  0
LAYER
  5
54
330
1
100
AcDbSymbolTableRecord
100
AcDbLayerTableRecord
  2
A-MEBLE
 70
0
 62
8
  6
Continuous
370
18
390
13
347
21
1001
AcAecLayerStandard
1000

1000
Meble i wyposażenie ruchome
  0
LAYER
  5
55
330
1
100
AcDbSymbolTableRecord
100
AcDbLayerTableRecord
  2
A-SANITARNE
 70
0
 62
6
  6
Continuous
370
25
390
13
347
21
1001
AcAecLayerStandard
1000

1000
Wyposażenie sanitarne i kuchenne
  0
LAYER
  5
56
330
1
100
AcDbSymbolTableRecord
100
AcDbLayerTableRecord
  2
A-WYMIARY
 70
0
 62
1
  6
Continuous
370
25
390
13
347
21
1001
AcAecLayerStandard
1000

1000
Wymiarowanie (PN-B-01029)
  0
LAYER
  5
57
330
1
100
AcDbSymbolTableRecord
100
AcDbLayerTableRecord
  2
A-OPISY
 70
0
 62
2
  6
Continuous
370
25
390
13
347
21
1001
AcAecLayerStandard
1000

1000
Opisy, odnośniki, opisy warstw
  0
LAYER
  5
58
330
1
100
AcDbSymbolTableRecord
100
AcDbLayerTableRecord
  2
A-POMIESZCZENIA
 70
0
 62
2
  6
Continuous
370
25
390
13
347
21
1001
AcAecLayerStandard
1000

1000
Oznaczenia pomieszczeń (PN-EN ISO 4157)
  0
LAYER
  5
59
330
1
100
AcDbSymbolTableRecord
100
AcDbLayerTableRecord
  2
A-OSIE
 70
0
 62
1
  6
PUNKTOWA
370
25
390
13
347
21
1001
AcAecLayerStandard
1000

1000
Osie konstrukcyjne
  0
LAYER
  5
5A
330
1
100
AcDbSymbolTableRecord
100
AcDbLayerTableRecord
  2
A-RZEDNE
 70
0
 62
1
  6
Continuous
370
25
390
13
347
21
1001
AcAecLayerStandard
1000

1000
Rzędne wysokościowe
  0
LAYER
  5
5B
330
1
100
AcDbSymbolTableRecord
100
AcDbLayerTableRecord
  2
A-PRZEKROJE
 70
0
 62
1
  6
PUNKTOWA_KROTKA
370
50
390
13
347
21
1001
AcAecLayerStandard
1000

1000
Oznaczenia przekrojów i widoków
  0
LAYER
  5
5C
330
1
100
AcDbSymbolTableRecord
100
AcDbLayerTableRecord
  2
A-SYMBOLE
 70
0
 62
2
  6
Continuous
370
25
390
13
347
21
1001
AcAecLayerStandard
1000

1000
Symbole ogólne (północ, spadki, odnośniki)
  0
LAYER
  5
5D
330
1
100
AcDbSymbolTableRecord
100
AcDbLayerTableRecord
  2
A-TEREN
 70
0
 62
32
  6
Continuous
370
50
390
13
347
21
1001
AcAecLayerStandard
1000

1000
Linia terenu, grunt
  0
LAYER
  5
5E
330
1
100
AcDbSymbolTableRecord
100
AcDbLayerTableRecord
  2
A-ELEWACJE
 70
0
 62
7
  6
Continuous
370
35
390
13
347
21
1001
AcAecLayerStandard
1000

1000
Elewacje — krawędzie
  0
LAYER
  5
5F
330
1
100
AcDbSymbolTableRecord
100
AcDbLayerTableRecord
  2
A-MASKA
 70
0
 62
7
  6
Continuous
370
18
390
13
347
21
1001
AcAecLayerStandard
1000

1000
Maski (tło napisów)
  0
LAYER
  5
60
330
1
100
AcDbSymbolTableRecord
100
AcDbLayerTableRecord
  2
K-KONSTR
 70
0
 62
7
  6
Continuous
370
50
390
13
347
21
1001
AcAecLayerStandard
1000

1000
Konstrukcja — kontury elementów
  0
LAYER
  5
61
330
1
100
AcDbSymbolTableRecord
100
AcDbLayerTableRecord
  2
K-ZBROJENIE
 70
0
 62
1
  6
Continuous
370
100
390
13
347
21
1001
AcAecLayerStandard
1000

1000
Zbrojenie — pręty (PN-EN ISO 3766)
  0
LAYER
  5
62
330
1
100
AcDbSymbolTableRecord
100
AcDbLayerTableRecord
  2
K-ZBROJENIE-OPIS
 70
0
 62
2
  6
Continuous
370
25
390
13
347
21
1001
AcAecLayerStandard
1000

1000
Zbrojenie — opisy pozycji
  0
LAYER
  5
63
330
1
100
AcDbSymbolTableRecord
100
AcDbLayerTableRecord
  2
K-WYMIARY
 70
0
 62
1
  6
Continuous
370
25
390
13
347
21
1001
AcAecLayerStandard
1000

1000
Konstrukcja — wymiary
  0
LAYER
  5
64
330
1
100
AcDbSymbolTableRecord
100
AcDbLayerTableRecord
  2
K-OSIE
 70
0
 62
1
  6
PUNKTOWA
370
25
390
13
347
21
1001
AcAecLayerStandard
1000

1000
Konstrukcja — osie
  0
LAYER
  5
65
330
1
100
AcDbSymbolTableRecord
100
AcDbLayerTableRecord
  2
S-WODA
 70
0
 62
5
420
20680
  6
Continuous
370
35
390
13
347
21
1001
AcAecLayerStandard
1000

1000
Instalacja wody zimnej
  0
LAYER
  5
66
330
1
100
AcDbSymbolTableRecord
100
AcDbLayerTableRecord
  2
S-CWU
 70
0
 62
1
420
13631488
  6
KRESKOWA
370
35
390
13
347
21
1001
AcAecLayerStandard
1000

1000
Instalacja ciepłej wody użytkowej
  0
LAYER
  5
67
330
1
100
AcDbSymbolTableRecord
100
AcDbLayerTableRecord
  2
S-CYRK
 70
0
 62
6
420
11534512
  6
PUNKTOWA_KROTKA
370
25
390
13
347
21
1001
AcAecLayerStandard
1000

1000
Instalacja cyrkulacji CWU
  0
LAYER
  5
68
330
1
100
AcDbSymbolTableRecord
100
AcDbLayerTableRecord
  2
S-KANAL
 70
0
 62
34
420
8013056
  6
Continuous
370
50
390
13
347
21
1001
AcAecLayerStandard
1000

1000
Kanalizacja sanitarna
  0
LAYER
  5
69
330
1
100
AcDbSymbolTableRecord
100
AcDbLayerTableRecord
  2
S-DESZCZ
 70
0
 62
150
420
32906
  6
KRESKA_DLUGA
370
35
390
13
347
21
1001
AcAecLayerStandard
1000

1000
Kanalizacja deszczowa / odwodnienie
  0
LAYER
  5
6A
330
1
100
AcDbSymbolTableRecord
100
AcDbLayerTableRecord
  2
S-OGRZ
 70
0
 62
1
420
14700544
  6
Continuous
370
25
390
13
347
21
1001
AcAecLayerStandard
1000

1000
Ogrzewanie (zasilanie/powrót, pętle podłogowe)
  0
LAYER
  5
6B
330
1
100
AcDbSymbolTableRecord
100
AcDbLayerTableRecord
  2
S-WENT
 70
0
 62
3
420
35328
  6
Continuous
370
35
390
13
347
21
1001
AcAecLayerStandard
1000

1000
Wentylacja mechaniczna
  0
LAYER
  5
6C
330
1
100
AcDbSymbolTableRecord
100
AcDbLayerTableRecord
  2
S-URZADZENIA
 70
0
 62
2
420
3158064
  6
Continuous
370
35
390
13
347
21
1001
AcAecLayerStandard
1000

1000
Urządzenia i armatura instalacji sanitarnych
  0
LAYER
  5
6D
330
1
100
AcDbSymbolTableRecord
100
AcDbLayerTableRecord
  2
S-OPISY
 70
0
 62
2
  6
Continuous
370
25
390
13
347
21
1001
AcAecLayerStandard
1000

1000
Instalacje sanitarne — opisy
  0
LAYER
  5
6E
330
1
100
AcDbSymbolTableRecord
100
AcDbLayerTableRecord
  2
E-GNIAZDA
 70
0
 62
1
420
12582912
  6
Continuous
370
35
390
13
347
21
1001
AcAecLayerStandard
1000

1000
Gniazda wtyczkowe (PN-EN 60617)
  0
LAYER
  5
6F
330
1
100
AcDbSymbolTableRecord
100
AcDbLayerTableRecord
  2
E-OSWIETLENIE
 70
0
 62
30
420
13656064
  6
Continuous
370
35
390
13
347
21
1001
AcAecLayerStandard
1000

1000
Oprawy oświetleniowe
  0
LAYER
  5
70
330
1
100
AcDbSymbolTableRecord
100
AcDbLayerTableRecord
  2
E-LACZNIKI
 70
0
 62
30
420
13656064
  6
Continuous
370
35
390
13
347
21
1001
AcAecLayerStandard
1000

1000
Łączniki, czujniki
  0
LAYER
  5
71
330
1
100
AcDbSymbolTableRecord
100
AcDbLayerTableRecord
  2
E-TRASY
 70
0
 62
8
420
6316128
  6
Continuous
370
25
390
13
347
21
1001
AcAecLayerStandard
1000

1000
Trasy przewodów
  0
LAYER
  5
72
330
1
100
AcDbSymbolTableRecord
100
AcDbLayerTableRecord
  2
E-ROZDZIELNICE
 70
0
 62
1
420
12582912
  6
Continuous
370
35
390
13
347
21
1001
AcAecLayerStandard
1000

1000
Rozdzielnice, złącza, puszki
  0
LAYER
  5
73
330
1
100
AcDbSymbolTableRecord
100
AcDbLayerTableRecord
  2
E-TELETECH
 70
0
 62
5
420
20680
  6
Continuous
370
35
390
13
347
21
1001
AcAecLayerStandard
1000

1000
Instalacje teletechniczne (LAN, TV, domofon)
  0
LAYER
  5
74
330
1
100
AcDbSymbolTableRecord
100
AcDbLayerTableRecord
  2
E-ODGROM
 70
0
 62
3
420
35328
  6
Continuous
370
35
390
13
347
21
1001
AcAecLayerStandard
1000

1000
Uziemienia, połączenia wyrównawcze, ochrona odgromowa
  0
LAYER
  5
75
330
1
100
AcDbSymbolTableRecord
100
AcDbLayerTableRecord
  2
E-OPISY
 70
0
 62
2
  6
Continuous
370
25
390
13
347
21
1001
AcAecLayerStandard
1000

1000
Instalacje elektryczne — opisy
  0
LAYER
  5
76
330
1
100
AcDbSymbolTableRecord
100
AcDbLayerTableRecord
  2
Z-GRANICE
 70
0
 62
1
  6
DWUPUNKTOWA
370
50
390
13
347
21
1001
AcAecLayerStandard
1000

1000
Granice działki, punkty graniczne
  0
LAYER
  5
77
330
1
100
AcDbSymbolTableRecord
100
AcDbLayerTableRecord
  2
Z-ZABUDOWA
 70
0
 62
7
  6
Continuous
370
50
390
13
347
21
1001
AcAecLayerStandard
1000

1000
Budynki projektowane i istniejące
  0
LAYER
  5
78
330
1
100
AcDbSymbolTableRecord
100
AcDbLayerTableRecord
  2
Z-LINIE-ZABUDOWY
 70
0
 62
1
420
12582912
  6
PUNKTOWA
370
35
390
13
347
21
1001
AcAecLayerStandard
1000

1000
Linie zabudowy (MPZP)
  0
LAYER
  5
79
330
1
100
AcDbSymbolTableRecord
100
AcDbLayerTableRecord
  2
Z-UTWARDZENIA
 70
0
 62
8
  6
Continuous
370
25
390
13
347
21
1001
AcAecLayerStandard
1000

1000
Nawierzchnie utwardzone
  0
LAYER
  5
7A
330
1
100
AcDbSymbolTableRecord
100
AcDbLayerTableRecord
  2
Z-ZIELEN
 70
0
 62
3
420
1997342
  6
Continuous
370
25
390
13
347
21
1001
AcAecLayerStandard
1000

1000
Zieleń: drzewa, krzewy, trawniki
  0
LAYER
  5
7B
330
1
100
AcDbSymbolTableRecord
100
AcDbLayerTableRecord
  2
Z-UZBROJENIE
 70
0
 62
5
  6
Continuous
370
35
390
13
347
21
1001
AcAecLayerStandard
1000

1000
Uzbrojenie terenu, sieci i przyłącza
  0
LAYER
  5
7C
330
1
100
AcDbSymbolTableRecord
100
AcDbLayerTableRecord
  2
Z-WARSTWICE
 70
0
 62
32
420
9067050
  6
Continuous
370
18
390
13
347
21
1001
AcAecLayerStandard
1000

1000
Warstwice i punkty wysokościowe
  0
LAYER
  5
7D
330
1
100
AcDbSymbolTableRecord
100
AcDbLayerTableRecord
  2
Z-OGRODZENIE
 70
0
 62
7
  6
Continuous
370
35
390
13
347
21
1001
AcAecLayerStandard
1000

1000
Ogrodzenie, bramy, furtki
  0
LAYER
  5
7E
330
1
100
AcDbSymbolTableRecord
100
AcDbLayerTableRecord
  2
Z-OPISY
 70
0
 62
2
  6
Continuous
370
25
390
13
347
21
1001
AcAecLayerStandard
1000

1000
Opisy zagospodarowania
  0
LAYER
  5
7F
330
1
100
AcDbSymbolTableRecord
100
AcDbLayerTableRecord
  2
Z-MAPA
 70
0
 62
8
420
5921370
  6
Continuous
370
18
390
13
347
21
1001
AcAecLayerStandard
1000

1000
Podkład: mapa do celów projektowych (przykładowa, fikcyjna)
  0
LAYER
  5
80
330
1
100
AcDbSymbolTableRecord
100
AcDbLayerTableRecord
  2
Z-MAPA-OPISY
 70
0
 62
8
420
5921370
  6
Continuous
370
25
390
13
347
21
1001
AcAecLayerStandard
1000

1000
Podkład: opisy mapy (numery działek, budynki, sieci)
  0
LAYER
  5
81
330
1
100
AcDbSymbolTableRecord
100
AcDbLayerTableRecord
  2
Z-MAPA-RAMKA
 70
0
 62
7
  6
Continuous
370
35
390
13
347
21
1001
AcAecLayerStandard
1000

1000
Ramka i opis podkładu mapowego
  0
LAYER
  5
82
330
1
100
AcDbSymbolTableRecord
100
AcDbLayerTableRecord
  2
Z-DZIALKA
 70
0
 62
1
  6
Continuous
370
35
390
13
347
21
1001
AcAecLayerStandard
1000

1000
Granica działki budowlanej (PN-B-01027 poz. 2.7)
  0
LAYER
  5
83
330
1
100
AcDbSymbolTableRecord
100
AcDbLayerTableRecord
  2
Z-LZ
 70
0
 62
1
420
12582912
  6
Continuous
370
35
390
13
347
21
1001
AcAecLayerStandard
1000

1000
Nieprzekraczalna linia zabudowy (MPZP, PN-B-01027 poz. 2.2)
  0
LAYER
  5
84
330
1
100
AcDbSymbolTableRecord
100
AcDbLayerTableRecord
  2
Z-DROGA
 70
0
 62
8
420
4210752
  6
Continuous
370
35
390
13
347
21
1001
AcAecLayerStandard
1000

1000
Droga publiczna: linie rozgraniczające, jezdnia
  0
LAYER
  5
85
330
1
100
AcDbSymbolTableRecord
100
AcDbLayerTableRecord
  2
Z-BUDYNEK
 70
0
 62
7
  6
Continuous
370
100
390
13
347
21
1001
AcAecLayerStandard
1000

1000
Budynek projektowany — obrys przyziemia 1,0 m nad terenem (PN-B-01027 poz. 1.1)
  0
LAYER
  5
86
330
1
100
AcDbSymbolTableRecord
100
AcDbLayerTableRecord
  2
Z-BUDYNEK-NAD
 70
0
 62
7
  6
KRESKOWA
370
50
390
13
347
21
1001
AcAecLayerStandard
1000

1000
Obrys wyższych kondygnacji, płyt i okapów (PN-B-01027 poz. 1.6)
  0
LAYER
  5
87
330
1
100
AcDbSymbolTableRecord
100
AcDbLayerTableRecord
  2
Z-WYMIARY
 70
0
 62
1
  6
Continuous
370
18
390
13
347
21
1001
AcAecLayerStandard
1000

1000
Wymiarowanie PZT — linie 0,18 (PN-B-01027 poz. 4)
  0
LAYER
  5
88
330
1
100
AcDbSymbolTableRecord
100
AcDbLayerTableRecord
  2
Z-RZEDNE
 70
0
 62
32
420
7029795
  6
Continuous
370
18
390
13
347
21
1001
AcAecLayerStandard
1000

1000
Rzędne terenu istniejącego i projektowanego (PN-B-01025)
  0
LAYER
  5
89
330
1
100
AcDbSymbolTableRecord
100
AcDbLayerTableRecord
  2
Z-RZEDNE-PROJ
 70
0
 62
1
  6
Continuous
370
18
390
13
347
21
1001
AcAecLayerStandard
1000

1000
Rzędne terenu projektowanego
  0
LAYER
  5
8A
330
1
100
AcDbSymbolTableRecord
100
AcDbLayerTableRecord
  2
Z-ODWODNIENIE
 70
0
 62
150
420
32906
  6
Continuous
370
25
390
13
347
21
1001
AcAecLayerStandard
1000

1000
Odwodnienie terenu, spadki, kierunki spływu
  0
LAYER
  5
8B
330
1
100
AcDbSymbolTableRecord
100
AcDbLayerTableRecord
  2
Z-SIECI-IST
 70
0
 62
5
  6
Continuous
370
25
390
13
347
21
1001
AcAecLayerStandard
1000

1000
Uzbrojenie istniejące (wg mapy)
  0
LAYER
  5
8C
330
1
100
AcDbSymbolTableRecord
100
AcDbLayerTableRecord
  2
Z-SIECI-PROJ
 70
0
 62
5
  6
Continuous
370
50
390
13
347
21
1001
AcAecLayerStandard
1000

1000
Uzbrojenie projektowane (przyłącza, kolektory)
  0
LAYER
  5
8D
330
1
100
AcDbSymbolTableRecord
100
AcDbLayerTableRecord
  2
Z-KOLIZJE
 70
0
 62
6
420
12583104
  6
Continuous
370
35
390
13
347
21
1001
AcAecLayerStandard
1000

1000
Kolizje, zbliżenia i skrzyżowania sieci
  0
LAYER
  5
8E
330
1
100
AcDbSymbolTableRecord
100
AcDbLayerTableRecord
  2
Z-TYCZENIE
 70
0
 62
1
  6
Continuous
370
25
390
13
347
21
1001
AcAecLayerStandard
1000

1000
Punkty tyczenia budynku
  0
LAYER
  5
8F
330
1
100
AcDbSymbolTableRecord
100
AcDbLayerTableRecord
  2
Z-STREFY
 70
0
 62
6
420
11534512
  6
Continuous
370
25
390
13
347
21
1001
AcAecLayerStandard
1000

1000
Strefy (R290 pompy ciepła)
  0
LAYER
  5
90
330
1
100
AcDbSymbolTableRecord
100
AcDbLayerTableRecord
  2
Z-TLO
 70
0
 62
7
  6
Continuous
370
18
390
13
347
21
1001
AcAecLayerStandard
1000

1000
Tło (maski wypełnień)
  0
LAYER
  5
91
330
1
100
AcDbSymbolTableRecord
100
AcDbLayerTableRecord
  2
I-PODKLAD
 70
0
 62
8
420
10132122
  6
Continuous
370
18
390
13
347
21
1001
AcAecLayerStandard
1000

1000
Podkład architektoniczny — rzut AR (szary, cienki)
  0
LAYER
  5
92
330
1
100
AcDbSymbolTableRecord
100
AcDbLayerTableRecord
  2
I-PODKLAD-SCIANY
 70
0
 62
8
420
7237230
  6
Continuous
370
25
390
13
347
21
1001
AcAecLayerStandard
1000

1000
Podkład architektoniczny — kontury ścian przeciętych
  0
LAYER
  5
93
330
1
100
AcDbSymbolTableRecord
100
AcDbLayerTableRecord
  2
I-PODKLAD-WYPELN
 70
0
 62
254
420
15132390
  6
Continuous
370
18
390
13
347
21
1001
AcAecLayerStandard
1000

1000
Podkład architektoniczny — wypełnienie ścian przeciętych
  0
LAYER
  5
94
330
1
100
AcDbSymbolTableRecord
100
AcDbLayerTableRecord
  2
I-POMIESZCZENIA
 70
0
 62
8
420
4868682
  6
Continuous
370
25
390
13
347
21
1001
AcAecLayerStandard
1000

1000
Podkład — numery i nazwy pomieszczeń
  0
LAYER
  5
95
330
1
100
AcDbSymbolTableRecord
100
AcDbLayerTableRecord
  2
I-OSIE
 70
0
 62
8
420
8026746
  6
PUNKTOWA
370
18
390
13
347
21
1001
AcAecLayerStandard
1000

1000
Podkład — osie konstrukcyjne
  0
LAYER
  5
96
330
1
100
AcDbSymbolTableRecord
100
AcDbLayerTableRecord
  2
I-BRAKI
 70
0
 62
6
420
11534474
  6
KRESKOWA
370
25
390
13
347
21
1001
AcAecLayerStandard
1000

1000
Elementy do uzupełnienia w modelu [DO UZUPEŁNIENIA] / proponowane
  0
LAYER
  5
97
330
1
100
AcDbSymbolTableRecord
100
AcDbLayerTableRecord
  2
E-PV
 70
0
 62
200
420
5975171
  6
Continuous
370
35
390
13
347
21
1001
AcAecLayerStandard
1000

1000
Instalacja fotowoltaiczna: moduły, trasy DC
  0
LAYER
  5
98
330
1
100
AcDbSymbolTableRecord
100
AcDbLayerTableRecord
  2
E-ALARM
 70
0
 62
5
420
2056104
  6
Continuous
370
35
390
13
347
21
1001
AcAecLayerStandard
1000

1000
Sygnalizacja włamania i napadu (SSWiN), czujki
  0
LAYER
  5
99
330
1
100
AcDbSymbolTableRecord
100
AcDbLayerTableRecord
  2
S-PC
 70
0
 62
1
420
12597547
  6
Continuous
370
35
390
13
347
21
1001
AcAecLayerStandard
1000

1000
Pompa ciepła — przewody czynnika grzewczego (zasilanie/powrót)
  0
LAYER
  5
9A
330
1
100
AcDbSymbolTableRecord
100
AcDbLayerTableRecord
  2
A-DET-HYDRO
 70
0
 62
5
420
1402304
  6
Continuous
370
50
390
13
347
21
1001
AcAecLayerStandard
1000

1000
Detal — hydroizolacja / ochrona przed wodą (linia niebieska)
  0
LAYER
  5
9B
330
1
100
AcDbSymbolTableRecord
100
AcDbLayerTableRecord
  2
A-DET-SZCZEL
 70
0
 62
1
420
13840175
  6
KRESKOWA
370
35
390
13
347
21
1001
AcAecLayerStandard
1000

1000
Detal — szczelność powietrzna (czerwona przerywana)
  0
LAYER
  5
9C
330
1
100
AcDbSymbolTableRecord
100
AcDbLayerTableRecord
  2
A-DET-PARO
 70
0
 62
6
420
8069026
  6
Continuous
370
35
390
13
347
21
1001
AcAecLayerStandard
1000

1000
Detal — paroizolacja / kontrola pary (fioletowa)
  0
LAYER
  5
9D
330
1
100
AcDbSymbolTableRecord
100
AcDbLayerTableRecord
  2
A-DET-IZOL
 70
0
 62
30
420
15690752
  6
Continuous
370
35
390
13
347
21
1001
AcAecLayerStandard
1000

1000
Detal — obrys izolacji cieplnej (pomarańczowy)
  0
LAYER
  5
9E
330
1
100
AcDbSymbolTableRecord
100
AcDbLayerTableRecord
  2
A-DET-TASMA
 70
0
 62
6
  6
Continuous
370
50
390
13
347
21
1001
AcAecLayerStandard
1000

1000
Detal — taśmy uszczelniające (paroszczelne / paroprzepuszczalne)
  0
LAYER
  5
9F
330
1
100
AcDbSymbolTableRecord
100
AcDbLayerTableRecord
  2
A-DET-MEMBRANY
 70
0
 62
8
420
4545124
  6
PUNKTOWA_KROTKA
370
25
390
13
347
21
1001
AcAecLayerStandard
1000

1000
Detal — membrany wiatroizolacyjne, włókniny, bariery
  0
LAYER
  5
A0
330
1
100
AcDbSymbolTableRecord
100
AcDbLayerTableRecord
  2
A-DET-OBROBKI
 70
0
 62
7
  6
Continuous
370
35
390
13
347
21
1001
AcAecLayerStandard
1000

1000
Detal — obróbki blacharskie, okapniki, rynny
  0
LAYER
  5
A1
330
1
100
AcDbSymbolTableRecord
100
AcDbLayerTableRecord
  2
A-DET-PRZERWA
 70
0
 62
8
  6
Continuous
370
25
390
13
347
21
1001
AcAecLayerStandard
1000

1000
Detal — linie przerwania
  0
LAYER
  5
A2
330
1
100
AcDbSymbolTableRecord
100
AcDbLayerTableRecord
  2
A-DET-OPIS
 70
0
 62
2
  6
Continuous
370
25
390
13
347
21
1001
AcAecLayerStandard
1000

1000
Detal — pole opisu (wyniki mostków, ocena 4 linii)
  0
LAYER
  5
A3
330
1
100
AcDbSymbolTableRecord
100
AcDbLayerTableRecord
  2
I-SCHEMAT
 70
0
 62
7
  6
Continuous
370
25
390
13
347
21
1001
AcAecLayerStandard
1000

1000
Schematy instalacji (odtworzone z bibliotek obliczeniowych)
  0
ENDTAB
  0
TABLE
  2
STYLE
  5
5
330
0
100
AcDbSymbolTable
 70
5
  0
STYLE
  5
29
330
5
100
AcDbSymbolTableRecord
100
AcDbTextStyleTableRecord
  2
Standard
 70
0
 40
0.0
 41
1.0
 50
0.0
 71
0
 42
2.5
  3
txt
  4

  0
STYLE
  5
3A
330
5
100
AcDbSymbolTableRecord
100
AcDbTextStyleTableRecord
  2
PL_ARIAL
 70
0
 40
0.0
 41
1.0
 50
0.0
 71
0
 42
2.5
  3
arial.ttf
  4

  0
STYLE
  5
3B
330
5
100
AcDbSymbolTableRecord
100
AcDbTextStyleTableRecord
  2
PL_ARIAL_B
 70
0
 40
0.0
 41
1.0
 50
0.0
 71
0
 42
2.5
  3
arialbd.ttf
  4

  0
STYLE
  5
3C
330
5
100
AcDbSymbolTableRecord
100
AcDbTextStyleTableRecord
  2
PL_ARIAL_I
 70
0
 40
0.0
 41
1.0
 50
0.0
 71
0
 42
2.5
  3
ariali.ttf
  4

  0
STYLE
  5
3D
330
5
100
AcDbSymbolTableRecord
100
AcDbTextStyleTableRecord
  2
PL_ARIAL_BI
 70
0
 40
0.0
 41
1.0
 50
0.0
 71
0
 42
2.5
  3
arialbi.ttf
  4

  0
ENDTAB
  0
TABLE
  2
VIEW
  5
7
330
0
100
AcDbSymbolTable
 70
0
  0
ENDTAB
  0
TABLE
  2
UCS
  5
6
330
0
100
AcDbSymbolTable
 70
0
  0
ENDTAB
  0
TABLE
  2
APPID
  5
3
330
0
100
AcDbSymbolTable
 70
4
  0
APPID
  5
2A
330
3
100
AcDbSymbolTableRecord
100
AcDbRegAppTableRecord
  2
ACAD
 70
0
  0
APPID
  5
3F
330
3
100
AcDbSymbolTableRecord
100
AcDbRegAppTableRecord
  2
AcAecLayerStandard
 70
0
  0
APPID
  5
27F
330
3
100
AcDbSymbolTableRecord
100
AcDbRegAppTableRecord
  2
HATCHBACKGROUNDCOLOR
 70
0
  0
APPID
  5
280
330
3
100
AcDbSymbolTableRecord
100
AcDbRegAppTableRecord
  2
EZDXF
 70
0
  0
ENDTAB
  0
TABLE
  2
DIMSTYLE
  5
4
330
0
100
AcDbSymbolTable
 70
1
100
AcDbDimStyleTable
  0
DIMSTYLE
105
2B
330
4
100
AcDbSymbolTableRecord
100
AcDbDimStyleTableRecord
  2
Standard
 70
0
 40
1.0
 41
2.5
 42
0.625
 43
3.75
 44
1.25
 45
0.0
 46
0.0
 47
0.0
 48
0.0
 49
2.5
140
2.5
141
2.5
142
0.0
143
0.03937007874
144
1.0
145
0.0
146
1.0
147
0.625
148
0.0
 69
0
 70
0
 71
0
 72
0
 73
0
 74
0
 75
0
 76
0
 77
1
 78
8
 79
3
170
0
171
3
172
1
173
0
174
0
175
0
176
0
177
0
178
0
179
2
271
2
272
2
273
2
274
3
275
0
276
0
277
2
278
44
279
0
280
0
281
0
282
0
283
0
284
8
285
0
286
0
288
0
289
3
290
0
371
-2
372
-2
  0
ENDTAB
  0
TABLE
  2
BLOCK_RECORD
  5
9
330
0
100
AcDbSymbolTable
 70
2
  0
BLOCK_RECORD
  5
17
330
9
100
AcDbSymbolTableRecord
100
AcDbBlockTableRecord
  2
*Model_Space
340
1A
 70
0
280
1
281
0
  0
BLOCK_RECORD
  5
1B
330
9
100
AcDbSymbolTableRecord
100
AcDbBlockTableRecord
  2
*Paper_Space
340
1E
 70
0
280
1
281
0
  0
ENDTAB
  0
ENDSEC
  0
SECTION
  2
BLOCKS
  0
BLOCK
  5
18
330
17
100
AcDbEntity
  8
0
100
AcDbBlockBegin
  2
*Model_Space
 70
0
 10
0.0
 20
0.0
 30
0.0
  3
*Model_Space
  1

  0
ENDBLK
  5
19
330
17
100
AcDbEntity
  8
0
100
AcDbBlockEnd
  0
BLOCK
  5
1C
330
1B
100
AcDbEntity
  8
0
100
AcDbBlockBegin
  2
*Paper_Space
 70
0
 10
0.0
 20
0.0
 30
0.0
  3
*Paper_Space
  1

  0
ENDBLK
  5
1D
330
1B
100
AcDbEntity
  8
0
100
AcDbBlockEnd
  0
ENDSEC
  0
SECTION
  2
ENTITIES
  0
LWPOLYLINE
  5
1D1
330
17
100
AcDbEntity
  8
I-PODKLAD
  6
KRESKA_DLUGA
370
18
 48
0.05
100
AcDbPolyline
 90
2
 70
128
 10
0.0
 20
0.0
 10
23.0
 20
0.0
  0
LWPOLYLINE
  5
1D2
330
17
100
AcDbEntity
  8
I-PODKLAD
  6
KRESKA_DLUGA
370
18
 48
0.05
100
AcDbPolyline
 90
2
 70
128
 10
0.0
 20
3.15
 10
23.0
 20
3.15
  0
LWPOLYLINE
  5
1D3
330
17
100
AcDbEntity
  8
I-PODKLAD
  6
KRESKA_DLUGA
370
18
 48
0.05
100
AcDbPolyline
 90
2
 70
128
 10
0.0
 20
6.3
 10
23.0
 20
6.3
  0
LWPOLYLINE
  5
1D4
330
17
100
AcDbEntity
  8
I-PODKLAD
  6
KRESKA_DLUGA
370
18
 48
0.05
100
AcDbPolyline
 90
2
 70
128
 10
0.0
 20
-0.3275744554459564
 10
23.0
 20
-0.3275744554459564
  0
HATCH
  5
1D5
330
17
100
AcDbEntity
  8
S-KANAL
 62
7
420
0
100
AcDbHatch
 10
0.0
 20
0.0
 30
0.0
210
0.0
220
0.0
230
1.0
  2
SOLID
 70
1
 71
0
 91
1
 92
3
 72
0
 73
1
 93
3
 10
2.35
 20
0.10700000000000001
 10
2.4465264254814465
 20
0.13312755602376067
 10
2.4474939195843706
 20
0.0847528508775557
 97
0
 75
0
 76
1
 98
0
  0
HATCH
  5
1D6
330
17
100
AcDbEntity
  8
S-KANAL
 62
7
420
0
100
AcDbHatch
 10
0.0
 20
0.0
 30
0.0
210
0.0
220
0.0
230
1.0
  2
SOLID
 70
1
 71
0
 91
1
 92
3
 72
0
 73
1
 93
3
 10
8.35
 20
0.10700000000000001
 10
8.446526425481446
 20
0.13312755602376067
 10
8.447493919584371
 20
0.0847528508775557
 97
0
 75
0
 76
1
 98
0
  0
HATCH
  5
1D7
330
17
100
AcDbEntity
  8
S-KANAL
 62
7
420
0
100
AcDbHatch
 10
0.0
 20
0.0
 30
0.0
210
0.0
220
0.0
230
1.0
  2
SOLID
 70
1
 71
0
 91
1
 92
3
 72
0
 73
1
 93
3
 10
8.35
 20
3.257
 10
8.446526425481446
 20
3.2831275560237607
 10
8.447493919584371
 20
3.234752850877556
 97
0
 75
0
 76
1
 98
0
  0
HATCH
  5
1D8
330
17
100
AcDbEntity
  8
S-KANAL
 62
7
420
0
100
AcDbHatch
 10
0.0
 20
0.0
 30
0.0
210
0.0
220
0.0
230
1.0
  2
SOLID
 70
1
 71
0
 91
1
 92
3
 72
0
 73
1
 93
3
 10
14.35
 20
0.10700000000000001
 10
14.446526425481446
 20
0.13312755602376067
 10
14.447493919584371
 20
0.0847528508775557
 97
0
 75
0
 76
1
 98
0
  0
HATCH
  5
1D9
330
17
100
AcDbEntity
  8
S-KANAL
 62
7
420
0
100
AcDbHatch
 10
0.0
 20
0.0
 30
0.0
210
0.0
220
0.0
230
1.0
  2
SOLID
 70
1
 71
0
 91
1
 92
3
 72
0
 73
1
 93
3
 10
14.35
 20
3.257
 10
14.446526425481446
 20
3.2831275560237607
 10
14.447493919584371
 20
3.234752850877556
 97
0
 75
0
 76
1
 98
0
  0
HATCH
  5
1DA
330
17
100
AcDbEntity
  8
S-KANAL
 62
7
420
0
100
AcDbHatch
 10
0.0
 20
0.0
 30
0.0
210
0.0
220
0.0
230
1.0
  2
SOLID
 70
1
 71
0
 91
1
 92
3
 72
0
 73
1
 93
3
 10
14.35
 20
6.406999999999999
 10
14.446526425481446
 20
6.43312755602376
 10
14.447493919584371
 20
6.384752850877555
 97
0
 75
0
 76
1
 98
0
  0
LWPOLYLINE
  5
1DB
330
17
100
AcDbEntity
  8
S-KANAL
  6
Continuous
370
70
 48
0.05
100
AcDbPolyline
 90
2
 70
128
 10
2.0
 20
-0.9777101490550978
 10
2.0
 20
3.805
  0
LWPOLYLINE
  5
1DC
330
17
100
AcDbEntity
  8
S-KANAL
  6
Continuous
370
70
 48
0.05
100
AcDbPolyline
 90
2
 70
128
 10
1.88
 20
3.805
 10
2.12
 20
3.805
  0
LWPOLYLINE
  5
1DD
330
17
100
AcDbEntity
  8
S-KANAL
  6
Continuous
370
70
 48
0.05
100
AcDbPolyline
 90
2
 70
128
 10
2.0
 20
0.1
 10
3.8499999999999996
 20
0.14600000000000002
  0
LWPOLYLINE
  5
1DE
330
17
100
AcDbEntity
  8
S-KANAL
370
35
 48
0.05
100
AcDbPolyline
 90
3
 70
1
 10
2.35
 20
0.10700000000000001
 10
2.4465264254814465
 20
0.13312755602376067
 10
2.4474939195843706
 20
0.0847528508775557
  0
LWPOLYLINE
  5
1DF
330
17
100
AcDbEntity
  8
S-KANAL
  6
Continuous
370
50
 48
0.05
100
AcDbPolyline
 90
2
 70
128
 10
2.9
 20
0.11800000000000001
 10
2.9
 20
0.45
  0
LWPOLYLINE
  5
1E0
330
17
100
AcDbEntity
  8
S-KANAL
  6
Continuous
370
50
 48
0.05
100
AcDbPolyline
 90
2
 70
128
 10
3.75
 20
0.135
 10
3.75
 20
0.45
  0
LWPOLYLINE
  5
1E1
330
17
100
AcDbEntity
  8
S-KANAL
  6
Continuous
370
70
 48
0.05
100
AcDbPolyline
 90
2
 70
128
 10
8.0
 20
-1.2587101490550978
 10
8.0
 20
4.35
  0
LWPOLYLINE
  5
1E2
330
17
100
AcDbEntity
  8
S-KANAL
  6
Continuous
370
70
 48
0.05
100
AcDbPolyline
 90
2
 70
128
 10
8.0
 20
0.1
 10
11.55
 20
0.18
  0
LWPOLYLINE
  5
1E3
330
17
100
AcDbEntity
  8
S-KANAL
370
35
 48
0.05
100
AcDbPolyline
 90
3
 70
1
 10
8.35
 20
0.10700000000000001
 10
8.446526425481446
 20
0.13312755602376067
 10
8.447493919584371
 20
0.0847528508775557
  0
LWPOLYLINE
  5
1E4
330
17
100
AcDbEntity
  8
S-KANAL
  6
Continuous
370
50
 48
0.05
100
AcDbPolyline
 90
2
 70
128
 10
8.9
 20
0.11800000000000002
 10
8.9
 20
0.45
  0
LWPOLYLINE
  5
1E5
330
17
100
AcDbEntity
  8
S-KANAL
  6
Continuous
370
50
 48
0.05
100
AcDbPolyline
 90
2
 70
128
 10
9.75
 20
0.135
 10
9.75
 20
0.45
  0
LWPOLYLINE
  5
1E6
330
17
100
AcDbEntity
  8
S-KANAL
  6
Continuous
370
50
 48
0.05
100
AcDbPolyline
 90
2
 70
128
 10
10.6
 20
0.152
 10
10.6
 20
0.45
  0
LWPOLYLINE
  5
1E7
330
17
100
AcDbEntity
  8
S-KANAL
  6
Continuous
370
50
 48
0.05
100
AcDbPolyline
 90
2
 70
128
 10
11.45
 20
0.16899999999999998
 10
11.45
 20
0.45
  0
LWPOLYLINE
  5
1E8
330
17
100
AcDbEntity
  8
S-KANAL
  6
Continuous
370
70
 48
0.05
100
AcDbPolyline
 90
2
 70
128
 10
8.0
 20
3.25
 10
13.25
 20
3.364
  0
LWPOLYLINE
  5
1E9
330
17
100
AcDbEntity
  8
S-KANAL
370
35
 48
0.05
100
AcDbPolyline
 90
3
 70
1
 10
8.35
 20
3.257
 10
8.446526425481446
 20
3.2831275560237607
 10
8.447493919584371
 20
3.234752850877556
  0
LWPOLYLINE
  5
1EA
330
17
100
AcDbEntity
  8
S-KANAL
  6
Continuous
370
50
 48
0.05
100
AcDbPolyline
 90
2
 70
128
 10
8.9
 20
3.268
 10
8.9
 20
3.6
  0
LWPOLYLINE
  5
1EB
330
17
100
AcDbEntity
  8
S-KANAL
  6
Continuous
370
50
 48
0.05
100
AcDbPolyline
 90
2
 70
128
 10
9.75
 20
3.285
 10
9.75
 20
3.6
  0
LWPOLYLINE
  5
1EC
330
17
100
AcDbEntity
  8
S-KANAL
  6
Continuous
370
50
 48
0.05
100
AcDbPolyline
 90
2
 70
128
 10
10.6
 20
3.302
 10
10.6
 20
3.6
  0
LWPOLYLINE
  5
1ED
330
17
100
AcDbEntity
  8
S-KANAL
  6
Continuous
370
50
 48
0.05
100
AcDbPolyline
 90
2
 70
128
 10
11.45
 20
3.319
 10
11.45
 20
3.6
  0
LWPOLYLINE
  5
1EE
330
17
100
AcDbEntity
  8
S-KANAL
  6
Continuous
370
50
 48
0.05
100
AcDbPolyline
 90
2
 70
128
 10
12.3
 20
3.336
 10
12.3
 20
3.6
  0
LWPOLYLINE
  5
1EF
330
17
100
AcDbEntity
  8
S-KANAL
  6
Continuous
370
50
 48
0.05
100
AcDbPolyline
 90
2
 70
128
 10
13.15
 20
3.353
 10
13.15
 20
3.6
  0
LWPOLYLINE
  5
1F0
330
17
100
AcDbEntity
  8
S-KANAL
  6
Continuous
370
70
 48
0.05
100
AcDbPolyline
 90
2
 70
128
 10
14.0
 20
-1.3877101490550978
 10
14.0
 20
10.026000000000002
  0
LWPOLYLINE
  5
1F1
330
17
100
AcDbEntity
  8
S-KANAL
  6
Continuous
370
70
 48
0.05
100
AcDbPolyline
 90
2
 70
128
 10
13.88
 20
10.026000000000002
 10
14.12
 20
10.026000000000002
  0
LWPOLYLINE
  5
1F2
330
17
100
AcDbEntity
  8
S-KANAL
  6
Continuous
370
70
 48
0.05
100
AcDbPolyline
 90
2
 70
128
 10
14.0
 20
0.1
 10
16.7
 20
0.16299999999999998
  0
LWPOLYLINE
  5
1F3
330
17
100
AcDbEntity
  8
S-KANAL
370
35
 48
0.05
100
AcDbPolyline
 90
3
 70
1
 10
14.35
 20
0.10700000000000001
 10
14.446526425481446
 20
0.13312755602376067
 10
14.447493919584371
 20
0.0847528508775557
  0
LWPOLYLINE
  5
1F4
330
17
100
AcDbEntity
  8
S-KANAL
  6
Continuous
370
50
 48
0.05
100
AcDbPolyline
 90
2
 70
128
 10
14.9
 20
0.11800000000000002
 10
14.9
 20
0.45
  0
LWPOLYLINE
  5
1F5
330
17
100
AcDbEntity
  8
S-KANAL
  6
Continuous
370
50
 48
0.05
100
AcDbPolyline
 90
2
 70
128
 10
15.75
 20
0.135
 10
15.75
 20
0.45
  0
LWPOLYLINE
  5
1F6
330
17
100
AcDbEntity
  8
S-KANAL
  6
Continuous
370
50
 48
0.05
100
AcDbPolyline
 90
2
 70
128
 10
16.6
 20
0.15200000000000002
 10
16.6
 20
0.45
  0
LWPOLYLINE
  5
1F7
330
17
100
AcDbEntity
  8
S-KANAL
  6
Continuous
370
70
 48
0.05
100
AcDbPolyline
 90
2
 70
128
 10
14.0
 20
3.25
 10
16.7
 20
3.313
  0
LWPOLYLINE
  5
1F8
330
17
100
AcDbEntity
  8
S-KANAL
370
35
 48
0.05
100
AcDbPolyline
 90
3
 70
1
 10
14.35
 20
3.257
 10
14.446526425481446
 20
3.2831275560237607
 10
14.447493919584371
 20
3.234752850877556
  0
LWPOLYLINE
  5
1F9
330
17
100
AcDbEntity
  8
S-KANAL
  6
Continuous
370
50
 48
0.05
100
AcDbPolyline
 90
2
 70
128
 10
14.9
 20
3.268
 10
14.9
 20
3.6
  0
LWPOLYLINE
  5
1FA
330
17
100
AcDbEntity
  8
S-KANAL
  6
Continuous
370
50
 48
0.05
100
AcDbPolyline
 90
2
 70
128
 10
15.75
 20
3.285
 10
15.75
 20
3.6
  0
LWPOLYLINE
  5
1FB
330
17
100
AcDbEntity
  8
S-KANAL
  6
Continuous
370
50
 48
0.05
100
AcDbPolyline
 90
2
 70
128
 10
16.6
 20
3.302
 10
16.6
 20
3.6
  0
LWPOLYLINE
  5
1FC
330
17
100
AcDbEntity
  8
S-KANAL
  6
Continuous
370
70
 48
0.05
100
AcDbPolyline
 90
2
 70
128
 10
14.0
 20
6.3999999999999995
 10
16.7
 20
6.462999999999999
  0
LWPOLYLINE
  5
1FD
330
17
100
AcDbEntity
  8
S-KANAL
370
35
 48
0.05
100
AcDbPolyline
 90
3
 70
1
 10
14.35
 20
6.406999999999999
 10
14.446526425481446
 20
6.43312755602376
 10
14.447493919584371
 20
6.384752850877555
  0
LWPOLYLINE
  5
1FE
330
17
100
AcDbEntity
  8
S-KANAL
  6
Continuous
370
50
 48
0.05
100
AcDbPolyline
 90
2
 70
128
 10
14.9
 20
6.417999999999999
 10
14.9
 20
6.75
  0
LWPOLYLINE
  5
1FF
330
17
100
AcDbEntity
  8
S-KANAL
  6
Continuous
370
50
 48
0.05
100
AcDbPolyline
 90
2
 70
128
 10
15.75
 20
6.435
 10
15.75
 20
6.75
  0
LWPOLYLINE
  5
200
330
17
100
AcDbEntity
  8
S-KANAL
  6
Continuous
370
50
 48
0.05
100
AcDbPolyline
 90
2
 70
128
 10
16.6
 20
6.451999999999999
 10
16.6
 20
6.75
  0
LWPOLYLINE
  5
201
330
17
100
AcDbEntity
  8
S-KANAL
  6
KRESKOWA
370
70
 48
0.05
100
AcDbPolyline
 90
2
 70
128
 10
2.0
 20
-0.9777101490550978
 10
8.0
 20
-1.2587101490550978
  0
LWPOLYLINE
  5
202
330
17
100
AcDbEntity
  8
S-KANAL
  6
KRESKOWA
370
70
 48
0.05
100
AcDbPolyline
 90
2
 70
128
 10
8.0
 20
-1.2587101490550978
 10
14.0
 20
-1.3877101490550978
  0
LWPOLYLINE
  5
203
330
17
100
AcDbEntity
  8
S-KANAL
  6
KRESKOWA
370
70
 48
0.05
100
AcDbPolyline
 90
2
 70
128
 10
14.0
 20
-1.3877101490550978
 10
20.0
 20
-1.4481101490550978
  0
LWPOLYLINE
  5
204
330
17
100
AcDbEntity
  8
S-KANAL
  6
KRESKOWA
370
70
 48
0.05
100
AcDbPolyline
 90
2
 70
128
 10
20.0
 20
-1.4481101490550978
 10
22.79
 20
-1.5091101490550978
  0
LWPOLYLINE
  5
205
330
17
100
AcDbEntity
  8
S-KANAL
  6
Continuous
370
50
 48
0.05
100
AcDbPolyline
 90
4
 70
129
 10
22.79
 20
-1.7591101490550978
 10
23.21
 20
-1.7591101490550978
 10
23.21
 20
-0.3275744554459564
 10
22.79
 20
-0.3275744554459564
  0
HATCH
  5
206
330
17
100
AcDbEntity
  8
S-KANAL
 62
7
420
16777215
100
AcDbHatch
 10
0.0
 20
0.0
 30
0.0
210
0.0
220
0.0
230
1.0
  2
SOLID
 70
1
 71
0
 91
1
 92
3
 72
0
 73
1
 93
4
 10
2.09
 20
0.94
 10
2.21
 20
0.94
 10
2.21
 20
1.06
 10
2.09
 20
1.06
 97
0
 75
0
 76
1
 98
0
  0
HATCH
  5
207
330
17
100
AcDbEntity
  8
S-KANAL
 62
7
420
16777215
100
AcDbHatch
 10
0.0
 20
0.0
 30
0.0
210
0.0
220
0.0
230
1.0
  2
SOLID
 70
1
 71
0
 91
1
 92
3
 72
0
 73
1
 93
4
 10
8.09
 20
0.94
 10
8.21
 20
0.94
 10
8.21
 20
1.06
 10
8.09
 20
1.06
 97
0
 75
0
 76
1
 98
0
  0
HATCH
  5
208
330
17
100
AcDbEntity
  8
S-KANAL
 62
7
420
16777215
100
AcDbHatch
 10
0.0
 20
0.0
 30
0.0
210
0.0
220
0.0
230
1.0
  2
SOLID
 70
1
 71
0
 91
1
 92
3
 72
0
 73
1
 93
4
 10
14.09
 20
0.94
 10
14.21
 20
0.94
 10
14.21
 20
1.06
 10
14.09
 20
1.06
 97
0
 75
0
 76
1
 98
0
  0
LWPOLYLINE
  5
209
330
17
100
AcDbEntity
  8
S-KANAL
370
35
 48
0.05
100
AcDbPolyline
 90
4
 70
1
 10
2.09
 20
0.94
 10
2.21
 20
0.94
 10
2.21
 20
1.06
 10
2.09
 20
1.06
  0
HATCH
  5
20A
330
17
100
AcDbEntity
  8
S-KANAL
 62
7
420
0
100
AcDbHatch
 10
0.0
 20
0.0
 30
0.0
210
0.0
220
0.0
230
1.0
  2
SOLID
 70
1
 71
0
 91
1
 92
3
 72
0
 73
1
 93
3
 10
2.09
 20
0.94
 10
2.21
 20
0.94
 10
2.21
 20
1.06
 97
0
 75
0
 76
1
 98
0
  0
LWPOLYLINE
  5
20B
330
17
100
AcDbEntity
  8
S-KANAL
370
35
 48
0.05
100
AcDbPolyline
 90
4
 70
1
 10
8.09
 20
0.94
 10
8.21
 20
0.94
 10
8.21
 20
1.06
 10
8.09
 20
1.06
  0
HATCH
  5
20C
330
17
100
AcDbEntity
  8
S-KANAL
 62
7
420
0
100
AcDbHatch
 10
0.0
 20
0.0
 30
0.0
210
0.0
220
0.0
230
1.0
  2
SOLID
 70
1
 71
0
 91
1
 92
3
 72
0
 73
1
 93
3
 10
8.09
 20
0.94
 10
8.21
 20
0.94
 10
8.21
 20
1.06
 97
0
 75
0
 76
1
 98
0
  0
LWPOLYLINE
  5
20D
330
17
100
AcDbEntity
  8
S-KANAL
370
35
 48
0.05
100
AcDbPolyline
 90
4
 70
1
 10
14.09
 20
0.94
 10
14.21
 20
0.94
 10
14.21
 20
1.06
 10
14.09
 20
1.06
  0
HATCH
  5
20E
330
17
100
AcDbEntity
  8
S-KANAL
 62
7
420
0
100
AcDbHatch
 10
0.0
 20
0.0
 30
0.0
210
0.0
220
0.0
230
1.0
  2
SOLID
 70
1
 71
0
 91
1
 92
3
 72
0
 73
1
 93
3
 10
14.09
 20
0.94
 10
14.21
 20
0.94
 10
14.21
 20
1.06
 97
0
 75
0
 76
1
 98
0
  0
HATCH
  5
20F
330
17
100
AcDbEntity
  8
S-OPISY
 62
7
420
0
100
AcDbHatch
 10
0.0
 20
0.0
 30
0.0
210
0.0
220
0.0
230
1.0
  2
SOLID
 70
1
 71
0
 91
1
 92
3
 72
0
 73
1
 93
24
 10
2.0175
 20
3.805
 10
2.0169037019600586
 20
3.8095293332892943
 10
2.015155444566228
 20
3.81375
 10
2.0123743686707645
 20
3.8173743686707646
 10
2.00875
 20
3.820155444566228
 10
2.004529333289294
 20
3.821903701960059
 10
2.0
 20
3.8225000000000002
 10
1.9954706667107058
 20
3.821903701960059
 10
1.99125
 20
3.820155444566228
 10
1.9876256313292355
 20
3.8173743686707646
 10
1.9848445554337724
 20
3.81375
 10
1.9830962980399414
 20
3.8095293332892943
 10
1.9825
 20
3.805
 10
1.9830962980399414
 20
3.800470666710706
 10
1.9848445554337724
 20
3.79625
 10
1.9876256313292353
 20
3.7926256313292357
 10
1.99125
 20
3.7898445554337723
 10
1.9954706667107058
 20
3.7880962980399415
 10
2.0
 20
3.7875
 10
2.004529333289294
 20
3.7880962980399415
 10
2.00875
 20
3.7898445554337723
 10
2.0123743686707645
 20
3.7926256313292357
 10
2.015155444566228
 20
3.79625
 10
2.0169037019600586
 20
3.800470666710706
 97
0
 75
0
 76
1
 98
0
  0
HATCH
  5
210
330
17
100
AcDbEntity
  8
S-OPISY
 62
7
420
0
100
AcDbHatch
 10
0.0
 20
0.0
 30
0.0
210
0.0
220
0.0
230
1.0
  2
SOLID
 70
1
 71
0
 91
1
 92
3
 72
0
 73
1
 93
24
 10
8.0175
 20
4.35
 10
8.016903701960059
 20
4.354529333289293
 10
8.015155444566227
 20
4.35875
 10
8.012374368670764
 20
4.362374368670764
 10
8.00875
 20
4.365155444566227
 10
8.004529333289295
 20
4.366903701960059
 10
8.0
 20
4.3675
 10
7.995470666710706
 20
4.366903701960059
 10
7.99125
 20
4.365155444566227
 10
7.9876256313292355
 20
4.362374368670764
 10
7.984844555433773
 20
4.35875
 10
7.983096298039941
 20
4.354529333289293
 10
7.9825
 20
4.35
 10
7.983096298039941
 20
4.345470666710706
 10
7.984844555433773
 20
4.34125
 10
7.9876256313292355
 20
4.337625631329235
 10
7.99125
 20
4.334844555433772
 10
7.995470666710706
 20
4.333096298039941
 10
8.0
 20
4.3325
 10
8.004529333289295
 20
4.333096298039941
 10
8.00875
 20
4.334844555433772
 10
8.012374368670764
 20
4.337625631329235
 10
8.015155444566227
 20
4.34125
 10
8.016903701960059
 20
4.345470666710706
 97
0
 75
0
 76
1
 98
0
  0
HATCH
  5
211
330
17
100
AcDbEntity
  8
S-OPISY
 62
7
420
0
100
AcDbHatch
 10
0.0
 20
0.0
 30
0.0
210
0.0
220
0.0
230
1.0
  2
SOLID
 70
1
 71
0
 91
1
 92
3
 72
0
 73
1
 93
24
 10
14.0175
 20
10.026000000000002
 10
14.016903701960059
 20
10.030529333289296
 10
14.015155444566227
 20
10.03475
 10
14.012374368670764
 20
10.038374368670766
 10
14.00875
 20
10.041155444566229
 10
14.004529333289295
 20
10.04290370196006
 10
14.0
 20
10.043500000000002
 10
13.995470666710705
 20
10.04290370196006
 10
13.99125
 20
10.041155444566229
 10
13.987625631329236
 20
10.038374368670766
 10
13.984844555433773
 20
10.03475
 10
13.983096298039941
 20
10.030529333289296
 10
13.9825
 20
10.026000000000002
 10
13.983096298039941
 20
10.021470666710707
 10
13.984844555433773
 20
10.017250000000002
 10
13.987625631329236
 20
10.013625631329237
 10
13.99125
 20
10.010844555433774
 10
13.995470666710705
 20
10.009096298039942
 10
14.0
 20
10.008500000000002
 10
14.004529333289295
 20
10.009096298039942
 10
14.00875
 20
10.010844555433774
 10
14.012374368670764
 20
10.013625631329237
 10
14.015155444566227
 20
10.017250000000002
 10
14.016903701960059
 20
10.021470666710707
 97
0
 75
0
 76
1
 98
0
  0
HATCH
  5
212
330
17
100
AcDbEntity
  8
S-OPISY
 62
7
420
0
100
AcDbHatch
 10
0.0
 20
0.0
 30
0.0
210
0.0
220
0.0
230
1.0
  2
SOLID
 70
1
 71
0
 91
1
 92
3
 72
0
 73
1
 93
24
 10
5.0175
 20
-1.1182101490550977
 10
5.016903701960059
 20
-1.1136808157658036
 10
5.015155444566227
 20
-1.1094601490550977
 10
5.0123743686707645
 20
-1.105835780384333
 10
5.00875
 20
-1.10305470448887
 10
5.004529333289294
 20
-1.101306447095039
 10
5.0
 20
-1.1007101490550977
 10
4.995470666710706
 20
-1.101306447095039
 10
4.99125
 20
-1.10305470448887
 10
4.9876256313292355
 20
-1.105835780384333
 10
4.984844555433773
 20
-1.1094601490550977
 10
4.983096298039941
 20
-1.1136808157658036
 10
4.9825
 20
-1.1182101490550977
 10
4.983096298039941
 20
-1.122739482344392
 10
4.984844555433773
 20
-1.1269601490550978
 10
4.9876256313292355
 20
-1.1305845177258622
 10
4.99125
 20
-1.1333655936213254
 10
4.995470666710706
 20
-1.1351138510151564
 10
5.0
 20
-1.1357101490550978
 10
5.004529333289294
 20
-1.1351138510151564
 10
5.00875
 20
-1.1333655936213254
 10
5.0123743686707645
 20
-1.1305845177258624
 10
5.015155444566227
 20
-1.1269601490550978
 10
5.016903701960059
 20
-1.122739482344392
 97
0
 75
0
 76
1
 98
0
  0
HATCH
  5
213
330
17
100
AcDbEntity
  8
S-OPISY
 62
7
420
0
100
AcDbHatch
 10
0.0
 20
0.0
 30
0.0
210
0.0
220
0.0
230
1.0
  2
SOLID
 70
1
 71
0
 91
1
 92
3
 72
0
 73
1
 93
24
 10
2.0175
 20
-0.9777101490550978
 10
2.0169037019600586
 20
-0.9731808157658037
 10
2.015155444566228
 20
-0.9689601490550978
 10
2.0123743686707645
 20
-0.9653357803843332
 10
2.00875
 20
-0.9625547044888701
 10
2.004529333289294
 20
-0.960806447095039
 10
2.0
 20
-0.9602101490550978
 10
1.9954706667107058
 20
-0.960806447095039
 10
1.99125
 20
-0.9625547044888701
 10
1.9876256313292355
 20
-0.9653357803843332
 10
1.9848445554337724
 20
-0.9689601490550978
 10
1.9830962980399414
 20
-0.9731808157658036
 10
1.9825
 20
-0.9777101490550978
 10
1.9830962980399414
 20
-0.9822394823443918
 10
1.9848445554337724
 20
-0.9864601490550978
 10
1.9876256313292353
 20
-0.9900845177258624
 10
1.99125
 20
-0.9928655936213254
 10
1.9954706667107058
 20
-0.9946138510151564
 10
2.0
 20
-0.9952101490550977
 10
2.004529333289294
 20
-0.9946138510151565
 10
2.00875
 20
-0.9928655936213254
 10
2.0123743686707645
 20
-0.9900845177258624
 10
2.015155444566228
 20
-0.9864601490550978
 10
2.0169037019600586
 20
-0.982239482344392
 97
0
 75
0
 76
1
 98
0
  0
HATCH
  5
214
330
17
100
AcDbEntity
  8
S-OPISY
 62
7
420
0
100
AcDbHatch
 10
0.0
 20
0.0
 30
0.0
210
0.0
220
0.0
230
1.0
  2
SOLID
 70
1
 71
0
 91
1
 92
3
 72
0
 73
1
 93
24
 10
11.0175
 20
-1.3232101490550978
 10
11.016903701960059
 20
-1.3186808157658036
 10
11.015155444566227
 20
-1.3144601490550978
 10
11.012374368670764
 20
-1.3108357803843331
 10
11.00875
 20
-1.3080547044888702
 10
11.004529333289295
 20
-1.3063064470950392
 10
11.0
 20
-1.3057101490550977
 10
10.995470666710705
 20
-1.3063064470950392
 10
10.99125
 20
-1.3080547044888702
 10
10.987625631329236
 20
-1.3108357803843331
 10
10.984844555433773
 20
-1.3144601490550978
 10
10.983096298039941
 20
-1.3186808157658036
 10
10.9825
 20
-1.3232101490550978
 10
10.983096298039941
 20
-1.327739482344392
 10
10.984844555433773
 20
-1.3319601490550979
 10
10.987625631329236
 20
-1.3355845177258623
 10
10.99125
 20
-1.3383655936213255
 10
10.995470666710705
 20
-1.3401138510151565
 10
11.0
 20
-1.3407101490550979
 10
11.004529333289295
 20
-1.3401138510151565
 10
11.00875
 20
-1.3383655936213255
 10
11.012374368670764
 20
-1.3355845177258625
 10
11.015155444566227
 20
-1.3319601490550979
 10
11.016903701960059
 20
-1.327739482344392
 97
0
 75
0
 76
1
 98
0
  0
HATCH
  5
215
330
17
100
AcDbEntity
  8
S-OPISY
 62
7
420
0
100
AcDbHatch
 10
0.0
 20
0.0
 30
0.0
210
0.0
220
0.0
230
1.0
  2
SOLID
 70
1
 71
0
 91
1
 92
3
 72
0
 73
1
 93
24
 10
8.0175
 20
-1.2587101490550978
 10
8.016903701960059
 20
-1.2541808157658036
 10
8.015155444566227
 20
-1.2499601490550978
 10
8.012374368670764
 20
-1.2463357803843333
 10
8.00875
 20
-1.2435547044888702
 10
8.004529333289295
 20
-1.2418064470950392
 10
8.0
 20
-1.2412101490550977
 10
7.995470666710706
 20
-1.2418064470950392
 10
7.99125
 20
-1.2435547044888702
 10
7.9876256313292355
 20
-1.2463357803843331
 10
7.984844555433773
 20
-1.2499601490550978
 10
7.983096298039941
 20
-1.2541808157658036
 10
7.9825
 20
-1.2587101490550978
 10
7.983096298039941
 20
-1.263239482344392
 10
7.984844555433773
 20
-1.2674601490550979
 10
7.9876256313292355
 20
-1.2710845177258623
 10
7.99125
 20
-1.2738655936213255
 10
7.995470666710706
 20
-1.2756138510151565
 10
8.0
 20
-1.2762101490550979
 10
8.004529333289295
 20
-1.2756138510151565
 10
8.00875
 20
-1.2738655936213255
 10
8.012374368670764
 20
-1.2710845177258625
 10
8.015155444566227
 20
-1.2674601490550979
 10
8.016903701960059
 20
-1.263239482344392
 97
0
 75
0
 76
1
 98
0
  0
HATCH
  5
216
330
17
100
AcDbEntity
  8
S-OPISY
 62
7
420
0
100
AcDbHatch
 10
0.0
 20
0.0
 30
0.0
210
0.0
220
0.0
230
1.0
  2
SOLID
 70
1
 71
0
 91
1
 92
3
 72
0
 73
1
 93
24
 10
17.0175
 20
-1.4179101490550978
 10
17.016903701960057
 20
-1.4133808157658037
 10
17.01515544456623
 20
-1.4091601490550978
 10
17.012374368670766
 20
-1.4055357803843331
 10
17.00875
 20
-1.4027547044888702
 10
17.004529333289295
 20
-1.4010064470950392
 10
17.0
 20
-1.4004101490550978
 10
16.995470666710705
 20
-1.4010064470950392
 10
16.99125
 20
-1.4027547044888702
 10
16.987625631329234
 20
-1.4055357803843331
 10
16.98484455543377
 20
-1.4091601490550978
 10
16.983096298039943
 20
-1.4133808157658037
 10
16.9825
 20
-1.4179101490550978
 10
16.983096298039943
 20
-1.422439482344392
 10
16.98484455543377
 20
-1.4266601490550979
 10
16.987625631329234
 20
-1.4302845177258623
 10
16.99125
 20
-1.4330655936213255
 10
16.995470666710705
 20
-1.4348138510151565
 10
17.0
 20
-1.435410149055098
 10
17.004529333289295
 20
-1.4348138510151565
 10
17.00875
 20
-1.4330655936213255
 10
17.012374368670766
 20
-1.4302845177258625
 10
17.01515544456623
 20
-1.4266601490550979
 10
17.016903701960057
 20
-1.422439482344392
 97
0
 75
0
 76
1
 98
0
  0
HATCH
  5
217
330
17
100
AcDbEntity
  8
S-OPISY
 62
7
420
0
100
AcDbHatch
 10
0.0
 20
0.0
 30
0.0
210
0.0
220
0.0
230
1.0
  2
SOLID
 70
1
 71
0
 91
1
 92
3
 72
0
 73
1
 93
24
 10
14.0175
 20
-1.3877101490550978
 10
14.016903701960059
 20
-1.3831808157658037
 10
14.015155444566227
 20
-1.3789601490550978
 10
14.012374368670764
 20
-1.3753357803843334
 10
14.00875
 20
-1.3725547044888702
 10
14.004529333289295
 20
-1.3708064470950392
 10
14.0
 20
-1.3702101490550977
 10
13.995470666710705
 20
-1.3708064470950392
 10
13.99125
 20
-1.3725547044888702
 10
13.987625631329236
 20
-1.3753357803843331
 10
13.984844555433773
 20
-1.3789601490550978
 10
13.983096298039941
 20
-1.3831808157658037
 10
13.9825
 20
-1.3877101490550978
 10
13.983096298039941
 20
-1.392239482344392
 10
13.984844555433773
 20
-1.3964601490550979
 10
13.987625631329236
 20
-1.4000845177258623
 10
13.99125
 20
-1.4028655936213255
 10
13.995470666710705
 20
-1.4046138510151565
 10
14.0
 20
-1.405210149055098
 10
14.004529333289295
 20
-1.4046138510151565
 10
14.00875
 20
-1.4028655936213255
 10
14.012374368670764
 20
-1.4000845177258625
 10
14.015155444566227
 20
-1.3964601490550979
 10
14.016903701960059
 20
-1.392239482344392
 97
0
 75
0
 76
1
 98
0
  0
HATCH
  5
218
330
17
100
AcDbEntity
  8
S-OPISY
 62
7
420
0
100
AcDbHatch
 10
0.0
 20
0.0
 30
0.0
210
0.0
220
0.0
230
1.0
  2
SOLID
 70
1
 71
0
 91
1
 92
3
 72
0
 73
1
 93
24
 10
20.0175
 20
-1.4481101490550978
 10
20.016903701960057
 20
-1.4435808157658037
 10
20.01515544456623
 20
-1.4393601490550978
 10
20.012374368670766
 20
-1.4357357803843334
 10
20.00875
 20
-1.4329547044888702
 10
20.004529333289295
 20
-1.4312064470950392
 10
20.0
 20
-1.4306101490550978
 10
19.995470666710705
 20
-1.4312064470950392
 10
19.99125
 20
-1.4329547044888702
 10
19.987625631329234
 20
-1.4357357803843331
 10
19.98484455543377
 20
-1.4393601490550978
 10
19.983096298039943
 20
-1.4435808157658037
 10
19.9825
 20
-1.4481101490550978
 10
19.983096298039943
 20
-1.452639482344392
 10
19.98484455543377
 20
-1.4568601490550979
 10
19.987625631329234
 20
-1.4604845177258623
 10
19.99125
 20
-1.4632655936213255
 10
19.995470666710705
 20
-1.4650138510151565
 10
20.0
 20
-1.465610149055098
 10
20.004529333289295
 20
-1.4650138510151565
 10
20.00875
 20
-1.4632655936213255
 10
20.012374368670766
 20
-1.4604845177258625
 10
20.01515544456623
 20
-1.4568601490550979
 10
20.016903701960057
 20
-1.452639482344392
 97
0
 75
0
 76
1
 98
0
  0
HATCH
  5
219
330
17
100
AcDbEntity
  8
S-OPISY
 62
7
420
0
100
AcDbHatch
 10
0.0
 20
0.0
 30
0.0
210
0.0
220
0.0
230
1.0
  2
SOLID
 70
1
 71
0
 91
1
 92
3
 72
0
 73
1
 93
24
 10
21.5175
 20
-1.4786101490550978
 10
21.516903701960057
 20
-1.4740808157658036
 10
21.51515544456623
 20
-1.4698601490550978
 10
21.512374368670766
 20
-1.4662357803843333
 10
21.50875
 20
-1.4634547044888702
 10
21.504529333289295
 20
-1.4617064470950392
 10
21.5
 20
-1.4611101490550977
 10
21.495470666710705
 20
-1.4617064470950392
 10
21.49125
 20
-1.4634547044888702
 10
21.487625631329234
 20
-1.466235780384333
 10
21.48484455543377
 20
-1.4698601490550978
 10
21.483096298039943
 20
-1.4740808157658036
 10
21.4825
 20
-1.4786101490550978
 10
21.483096298039943
 20
-1.483139482344392
 10
21.48484455543377
 20
-1.4873601490550978
 10
21.487625631329234
 20
-1.4909845177258623
 10
21.49125
 20
-1.4937655936213254
 10
21.495470666710705
 20
-1.4955138510151564
 10
21.5
 20
-1.4961101490550979
 10
21.504529333289295
 20
-1.4955138510151564
 10
21.50875
 20
-1.4937655936213254
 10
21.512374368670766
 20
-1.4909845177258625
 10
21.51515544456623
 20
-1.4873601490550978
 10
21.516903701960057
 20
-1.483139482344392
 97
0
 75
0
 76
1
 98
0
  0
HATCH
  5
21A
330
17
100
AcDbEntity
  8
S-OPISY
 62
7
420
0
100
AcDbHatch
 10
0.0
 20
0.0
 30
0.0
210
0.0
220
0.0
230
1.0
  2
SOLID
 70
1
 71
0
 91
1
 92
3
 72
0
 73
1
 93
24
 10
23.0175
 20
-0.3275744554459564
 10
23.016903701960057
 20
-0.3230451221566623
 10
23.01515544456623
 20
-0.31882445544595645
 10
23.012374368670766
 20
-0.31520008677519185
 10
23.00875
 20
-0.31241901087972873
 10
23.004529333289295
 20
-0.31067075348589773
 10
23.0
 20
-0.3100744554459564
 10
22.995470666710705
 20
-0.31067075348589773
 10
22.99125
 20
-0.31241901087972873
 10
22.987625631329234
 20
-0.31520008677519185
 10
22.98484455543377
 20
-0.31882445544595645
 10
22.983096298039943
 20
-0.3230451221566623
 10
22.9825
 20
-0.3275744554459564
 10
22.983096298039943
 20
-0.33210378873525054
 10
22.98484455543377
 20
-0.3363244554459564
 10
22.987625631329234
 20
-0.339948824116721
 10
22.99125
 20
-0.3427299000121841
 10
22.995470666710705
 20
-0.3444781574060151
 10
23.0
 20
-0.34507445544595644
 10
23.004529333289295
 20
-0.3444781574060151
 10
23.00875
 20
-0.3427299000121841
 10
23.012374368670766
 20
-0.339948824116721
 10
23.01515544456623
 20
-0.3363244554459564
 10
23.016903701960057
 20
-0.33210378873525054
 97
0
 75
0
 76
1
 98
0
  0
LWPOLYLINE
  5
21B
330
17
100
AcDbEntity
  8
S-OPISY
370
25
 48
0.05
100
AcDbPolyline
 90
2
 70
0
 10
2.0
 20
3.805
 10
2.25
 20
3.805
  0
LWPOLYLINE
  5
21C
330
17
100
AcDbEntity
  8
S-OPISY
370
25
 48
0.05
100
AcDbPolyline
 90
2
 70
0
 10
8.0
 20
4.35
 10
8.25
 20
4.35
  0
LWPOLYLINE
  5
21D
330
17
100
AcDbEntity
  8
S-OPISY
370
25
 48
0.05
100
AcDbPolyline
 90
2
 70
0
 10
14.0
 20
10.026000000000002
 10
14.25
 20
10.026000000000002
  0
LWPOLYLINE
  5
21E
330
17
100
AcDbEntity
  8
S-OPISY
370
25
 48
0.05
100
AcDbPolyline
 90
2
 70
0
 10
5.0
 20
-1.1182101490550977
 10
5.25
 20
-1.1182101490550977
  0
LWPOLYLINE
  5
21F
330
17
100
AcDbEntity
  8
S-OPISY
370
25
 48
0.05
100
AcDbPolyline
 90
2
 70
0
 10
2.0
 20
-0.9777101490550978
 10
2.2
 20
-0.9777101490550978
  0
LWPOLYLINE
  5
220
330
17
100
AcDbEntity
  8
S-OPISY
370
25
 48
0.05
100
AcDbPolyline
 90
2
 70
0
 10
11.0
 20
-1.3232101490550978
 10
11.25
 20
-1.3232101490550978
  0
LWPOLYLINE
  5
221
330
17
100
AcDbEntity
  8
S-OPISY
370
25
 48
0.05
100
AcDbPolyline
 90
2
 70
0
 10
8.0
 20
-1.2587101490550978
 10
8.2
 20
-1.2587101490550978
  0
LWPOLYLINE
  5
222
330
17
100
AcDbEntity
  8
S-OPISY
370
25
 48
0.05
100
AcDbPolyline
 90
2
 70
0
 10
17.0
 20
-1.4179101490550978
 10
17.25
 20
-1.4179101490550978
  0
LWPOLYLINE
  5
223
330
17
100
AcDbEntity
  8
S-OPISY
370
25
 48
0.05
100
AcDbPolyline
 90
2
 70
0
 10
14.0
 20
-1.3877101490550978
 10
14.2
 20
-1.3877101490550978
  0
LWPOLYLINE
  5
224
330
17
100
AcDbEntity
  8
S-OPISY
370
25
 48
0.05
100
AcDbPolyline
 90
2
 70
0
 10
20.0
 20
-1.4481101490550978
 10
20.25
 20
-1.4481101490550978
  0
LWPOLYLINE
  5
225
330
17
100
AcDbEntity
  8
S-OPISY
370
25
 48
0.05
100
AcDbPolyline
 90
2
 70
0
 10
21.5
 20
-1.4786101490550978
 10
21.5
 20
-1.6588601490550978
  0
LWPOLYLINE
  5
226
330
17
100
AcDbEntity
  8
S-OPISY
370
25
 48
0.05
100
AcDbPolyline
 90
2
 70
0
 10
23.0
 20
-0.3275744554459564
 10
23.25
 20
-0.3275744554459564
  0
HATCH
  5
227
330
17
100
AcDbEntity
  8
S-KANAL
 62
7
420
16777215
100
AcDbHatch
 10
0.0
 20
0.0
 30
0.0
210
0.0
220
0.0
230
1.0
  2
SOLID
 70
1
 71
0
 91
1
 92
3
 72
0
 73
1
 93
48
 10
8.137189416307063
 20
4.47
 10
8.13601574183251
 20
4.487906812123452
 10
8.132514800304515
 20
4.505507233726766
 10
8.126746493803266
 20
4.52250011671655
 10
8.118809519652276
 20
4.538594708153531
 10
8.108839681679813
 20
4.55351562511596
 10
8.09700756657775
 20
4.5670075665777485
 10
8.083515625115961
 20
4.578839681679813
 10
8.068594708153531
 20
4.588809519652275
 10
8.05250011671655
 20
4.596746493803265
 10
8.035507233726767
 20
4.602514800304515
 10
8.017906812123453
 20
4.60601574183251
 10
8.0
 20
4.6071894163070635
 10
7.982093187876548
 20
4.60601574183251
 10
7.964492766273234
 20
4.602514800304515
 10
7.94749988328345
 20
4.596746493803265
 10
7.931405291846469
 20
4.588809519652275
 10
7.91648437488404
 20
4.578839681679813
 10
7.902992433422251
 20
4.5670075665777485
 10
7.891160318320186
 20
4.55351562511596
 10
7.881190480347724
 20
4.538594708153531
 10
7.873253506196734
 20
4.52250011671655
 10
7.867485199695484
 20
4.5055072337267665
 10
7.8639842581674895
 20
4.487906812123453
 10
7.862810583692936
 20
4.47
 10
7.8639842581674895
 20
4.452093187876548
 10
7.867485199695484
 20
4.434492766273234
 10
7.873253506196734
 20
4.417499883283449
 10
7.881190480347724
 20
4.401405291846468
 10
7.891160318320186
 20
4.38648437488404
 10
7.902992433422251
 20
4.372992433422251
 10
7.91648437488404
 20
4.361160318320186
 10
7.931405291846469
 20
4.351190480347724
 10
7.94749988328345
 20
4.343253506196734
 10
7.964492766273233
 20
4.337485199695484
 10
7.982093187876547
 20
4.333984258167489
 10
8.0
 20
4.332810583692936
 10
8.017906812123453
 20
4.333984258167489
 10
8.035507233726767
 20
4.337485199695484
 10
8.05250011671655
 20
4.343253506196734
 10
8.068594708153531
 20
4.351190480347723
 10
8.08351562511596
 20
4.361160318320186
 10
8.09700756657775
 20
4.372992433422251
 10
8.108839681679813
 20
4.38648437488404
 10
8.118809519652276
 20
4.401405291846468
 10
8.126746493803266
 20
4.417499883283449
 10
8.132514800304515
 20
4.434492766273233
 10
8.13601574183251
 20
4.452093187876547
 97
0
 75
0
 76
1
 98
0
  0
LWPOLYLINE
  5
228
330
17
100
AcDbEntity
  8
S-KANAL
370
35
 48
0.05
100
AcDbPolyline
 90
48
 70
1
 10
8.137189416307063
 20
4.47
 10
8.13601574183251
 20
4.487906812123452
 10
8.132514800304515
 20
4.505507233726766
 10
8.126746493803266
 20
4.52250011671655
 10
8.118809519652276
 20
4.538594708153531
 10
8.108839681679813
 20
4.55351562511596
 10
8.09700756657775
 20
4.5670075665777485
 10
8.083515625115961
 20
4.578839681679813
 10
8.068594708153531
 20
4.588809519652275
 10
8.05250011671655
 20
4.596746493803265
 10
8.035507233726767
 20
4.602514800304515
 10
8.017906812123453
 20
4.60601574183251
 10
8.0
 20
4.6071894163070635
 10
7.982093187876548
 20
4.60601574183251
 10
7.964492766273234
 20
4.602514800304515
 10
7.94749988328345
 20
4.596746493803265
 10
7.931405291846469
 20
4.588809519652275
 10
7.91648437488404
 20
4.578839681679813
 10
7.902992433422251
 20
4.5670075665777485
 10
7.891160318320186
 20
4.55351562511596
 10
7.881190480347724
 20
4.538594708153531
 10
7.873253506196734
 20
4.52250011671655
 10
7.867485199695484
 20
4.5055072337267665
 10
7.8639842581674895
 20
4.487906812123453
 10
7.862810583692936
 20
4.47
 10
7.8639842581674895
 20
4.452093187876548
 10
7.867485199695484
 20
4.434492766273234
 10
7.873253506196734
 20
4.417499883283449
 10
7.881190480347724
 20
4.401405291846468
 10
7.891160318320186
 20
4.38648437488404
 10
7.902992433422251
 20
4.372992433422251
 10
7.91648437488404
 20
4.361160318320186
 10
7.931405291846469
 20
4.351190480347724
 10
7.94749988328345
 20
4.343253506196734
 10
7.964492766273233
 20
4.337485199695484
 10
7.982093187876547
 20
4.333984258167489
 10
8.0
 20
4.332810583692936
 10
8.017906812123453
 20
4.333984258167489
 10
8.035507233726767
 20
4.337485199695484
 10
8.05250011671655
 20
4.343253506196734
 10
8.068594708153531
 20
4.351190480347723
 10
8.08351562511596
 20
4.361160318320186
 10
8.09700756657775
 20
4.372992433422251
 10
8.108839681679813
 20
4.38648437488404
 10
8.118809519652276
 20
4.401405291846468
 10
8.126746493803266
 20
4.417499883283449
 10
8.132514800304515
 20
4.434492766273233
 10
8.13601574183251
 20
4.452093187876547
  0
TEXT
  5
229
330
17
100
AcDbEntity
  8
S-KANAL
100
AcDbText
 10
7.912810583692937
 20
4.425
 30
0.0
 40
0.09000000000000001
  1
ZN
  7
PL_ARIAL
 11
7.912810583692937
 21
4.425
 31
0.0
100
AcDbText
  0
TEXT
  5
22A
330
17
100
AcDbEntity
  8
S-KANAL
100
AcDbText
 10
2.25
 20
1.087145128321599
 30
0.0
 40
0.09000000000000001
  1
Cz
  7
PL_ARIAL
 11
2.25
 21
1.087145128321599
 31
0.0
100
AcDbText
  0
TEXT
  5
22B
330
17
100
AcDbEntity
  8
S-KANAL
100
AcDbText
 10
8.25
 20
1.087145128321599
 30
0.0
 40
0.09000000000000001
  1
Cz
  7
PL_ARIAL
 11
8.25
 21
1.087145128321599
 31
0.0
100
AcDbText
  0
TEXT
  5
22C
330
17
100
AcDbEntity
  8
S-KANAL
100
AcDbText
 10
14.25
 20
1.087145128321599
 30
0.0
 40
0.09000000000000001
  1
Cz
  7
PL_ARIAL
 11
14.25
 21
1.087145128321599
 31
0.0
100
AcDbText
  0
TEXT
  5
22D
330
17
100
AcDbEntity
  8
S-OPISY
100
AcDbText
 10
0.1
 20
0.05
 30
0.0
 40
0.09000000000000001
  1
Parter ±0,000
  7
PL_ARIAL
 11
0.1
 21
0.05
 31
0.0
100
AcDbText
  0
TEXT
  5
22E
330
17
100
AcDbEntity
  8
S-OPISY
100
AcDbText
 10
0.1
 20
3.1999999999999997
 30
0.0
 40
0.09000000000000001
  1
I piętro +3,150
  7
PL_ARIAL
 11
0.1
 21
3.1999999999999997
 31
0.0
100
AcDbText
  0
TEXT
  5
22F
330
17
100
AcDbEntity
  8
S-OPISY
100
AcDbText
 10
0.1
 20
6.35
 30
0.0
 40
0.09000000000000001
  1
II piętro +6,300
  7
PL_ARIAL
 11
0.1
 21
6.35
 31
0.0
100
AcDbText
  0
TEXT
  5
230
330
17
100
AcDbEntity
  8
S-OPISY
100
AcDbText
 10
0.1
 20
-0.27757445544595644
 30
0.0
 40
0.09000000000000001
  1
teren przy studzience −0,328
  7
PL_ARIAL
 11
0.1
 21
-0.27757445544595644
 31
0.0
100
AcDbText
  0
HATCH
  5
231
330
17
100
AcDbEntity
  8
A-MASKA
 62
7
420
16777215
100
AcDbHatch
 10
0.0
 20
0.0
 30
0.0
210
0.0
220
0.0
230
1.0
  2
SOLID
 70
1
 71
0
 91
1
 92
3
 72
0
 73
1
 93
4
 10
2.2325
 20
3.72945
 10
3.9143794004088126
 20
3.72945
 10
3.9143794004088126
 20
3.87425
 10
2.2325
 20
3.87425
 97
0
 75
0
 76
1
 98
0
  0
TEXT
  5
232
330
17
100
AcDbEntity
  8
S-OPISY
100
AcDbText
 10
2.25
 20
3.76675
 30
0.0
 40
0.09000000000000001
  1
wywiewka Ø75 wylot +3,805
  7
PL_ARIAL
 11
2.25
 21
3.76675
 31
0.0
100
AcDbText
  0
TEXT
  5
233
330
17
100
AcDbEntity
  8
S-OPISY
100
AcDbText
 10
1.8115035203270498
 20
0.25391973810020485
 30
0.0
 40
0.125
  1
Pion P3 PP-HT 75
 50
90.0
  7
PL_ARIAL_B
 11
1.8115035203270498
 21
0.25391973810020485
 31
0.0
100
AcDbText
  0
TEXT
  5
234
330
17
100
AcDbEntity
  8
S-OPISY
100
AcDbText
 10
2.823674767204179
 20
0.55
 30
0.0
 40
0.09000000000000001
  1
ZL
  7
PL_ARIAL
 11
2.823674767204179
 21
0.55
 31
0.0
100
AcDbText
  0
TEXT
  5
235
330
17
100
AcDbEntity
  8
S-OPISY
100
AcDbText
 10
2.932854871678401
 20
0.22000000000000003
 30
0.0
 40
0.09000000000000001
  1
Ø50
 50
90.0
  7
PL_ARIAL
 11
2.932854871678401
 21
0.22000000000000003
 31
0.0
100
AcDbText
  0
TEXT
  5
236
330
17
100
AcDbEntity
  8
S-OPISY
100
AcDbText
 10
3.644628662275721
 20
0.55
 30
0.0
 40
0.09000000000000001
  1
WP
  7
PL_ARIAL
 11
3.644628662275721
 21
0.55
 31
0.0
100
AcDbText
  0
TEXT
  5
237
330
17
100
AcDbEntity
  8
S-OPISY
100
AcDbText
 10
3.782854871678401
 20
0.22000000000000003
 30
0.0
 40
0.09000000000000001
  1
Ø50
 50
90.0
  7
PL_ARIAL
 11
3.782854871678401
 21
0.22000000000000003
 31
0.0
100
AcDbText
  0
TEXT
  5
238
330
17
100
AcDbEntity
  8
S-OPISY
100
AcDbText
 10
2.25
 20
-0.05
 30
0.0
 40
0.09000000000000001
  1
Ø50, i = 2,0 %
  7
PL_ARIAL
 11
2.25
 21
-0.05
 31
0.0
100
AcDbText
  0
HATCH
  5
239
330
17
100
AcDbEntity
  8
A-MASKA
 62
7
420
16777215
100
AcDbHatch
 10
0.0
 20
0.0
 30
0.0
210
0.0
220
0.0
230
1.0
  2
SOLID
 70
1
 71
0
 91
1
 92
3
 72
0
 73
1
 93
4
 10
8.2325
 20
4.27445
 10
10.52134283443107
 20
4.27445
 10
10.52134283443107
 20
4.41925
 10
8.2325
 20
4.41925
 97
0
 75
0
 76
1
 98
0
  0
TEXT
  5
23A
330
17
100
AcDbEntity
  8
S-OPISY
100
AcDbText
 10
8.25
 20
4.31175
 30
0.0
 40
0.09000000000000001
  1
zawór napowietrzający (PN-EN 12380)
  7
PL_ARIAL
 11
8.25
 21
4.31175
 31
0.0
100
AcDbText
  0
TEXT
  5
23B
330
17
100
AcDbEntity
  8
S-OPISY
100
AcDbText
 10
7.811503520327049
 20
0.0629002059630257
 30
0.0
 40
0.125
  1
Pion K2 PP-HT 110
 50
90.0
  7
PL_ARIAL_B
 11
7.811503520327049
 21
0.0629002059630257
 31
0.0
100
AcDbText
  0
TEXT
  5
23C
330
17
100
AcDbEntity
  8
S-OPISY
100
AcDbText
 10
8.791020894844424
 20
0.55
 30
0.0
 40
0.09000000000000001
  1
WC
  7
PL_ARIAL
 11
8.791020894844424
 21
0.55
 31
0.0
100
AcDbText
  0
TEXT
  5
23D
330
17
100
AcDbEntity
  8
S-OPISY
100
AcDbText
 10
8.932854871678401
 20
0.16000000000000003
 30
0.0
 40
0.09000000000000001
  1
Ø110
 50
90.0
  7
PL_ARIAL
 11
8.932854871678401
 21
0.16000000000000003
 31
0.0
100
AcDbText
  0
TEXT
  5
23E
330
17
100
AcDbEntity
  8
S-OPISY
100
AcDbText
 10
9.67367476720418
 20
0.55
 30
0.0
 40
0.09000000000000001
  1
ZL
  7
PL_ARIAL
 11
9.67367476720418
 21
0.55
 31
0.0
100
AcDbText
  0
TEXT
  5
23F
330
17
100
AcDbEntity
  8
S-OPISY
100
AcDbText
 10
9.782854871678401
 20
0.22000000000000003
 30
0.0
 40
0.09000000000000001
  1
Ø50
 50
90.0
  7
PL_ARIAL
 11
9.782854871678401
 21
0.22000000000000003
 31
0.0
100
AcDbText
  0
TEXT
  5
240
330
17
100
AcDbEntity
  8
S-OPISY
100
AcDbText
 10
10.505564387917328
 20
0.55
 30
0.0
 40
0.09000000000000001
  1
ZM
  7
PL_ARIAL
 11
10.505564387917328
 21
0.55
 31
0.0
100
AcDbText
  0
TEXT
  5
241
330
17
100
AcDbEntity
  8
S-OPISY
100
AcDbText
 10
10.6328548716784
 20
0.22000000000000003
 30
0.0
 40
0.09000000000000001
  1
Ø50
 50
90.0
  7
PL_ARIAL
 11
10.6328548716784
 21
0.22000000000000003
 31
0.0
100
AcDbText
  0
TEXT
  5
242
330
17
100
AcDbEntity
  8
S-OPISY
100
AcDbText
 10
11.304646831705654
 20
0.55
 30
0.0
 40
0.09000000000000001
  1
UMY
  7
PL_ARIAL
 11
11.304646831705654
 21
0.55
 31
0.0
100
AcDbText
  0
TEXT
  5
243
330
17
100
AcDbEntity
  8
S-OPISY
100
AcDbText
 10
11.4828548716784
 20
0.22000000000000003
 30
0.0
 40
0.09000000000000001
  1
Ø40
 50
90.0
  7
PL_ARIAL
 11
11.4828548716784
 21
0.22000000000000003
 31
0.0
100
AcDbText
  0
TEXT
  5
244
330
17
100
AcDbEntity
  8
S-OPISY
100
AcDbText
 10
8.25
 20
-0.05
 30
0.0
 40
0.09000000000000001
  1
Ø110, i = 2,0 %
  7
PL_ARIAL
 11
8.25
 21
-0.05
 31
0.0
100
AcDbText
  0
TEXT
  5
245
330
17
100
AcDbEntity
  8
S-OPISY
100
AcDbText
 10
8.791020894844424
 20
3.7
 30
0.0
 40
0.09000000000000001
  1
WC
  7
PL_ARIAL
 11
8.791020894844424
 21
3.7
 31
0.0
100
AcDbText
  0
TEXT
  5
246
330
17
100
AcDbEntity
  8
S-OPISY
100
AcDbText
 10
8.932854871678401
 20
3.3099999999999996
 30
0.0
 40
0.09000000000000001
  1
Ø110
 50
90.0
  7
PL_ARIAL
 11
8.932854871678401
 21
3.3099999999999996
 31
0.0
100
AcDbText
  0
TEXT
  5
247
330
17
100
AcDbEntity
  8
S-OPISY
100
AcDbText
 10
9.624034749034749
 20
3.7
 30
0.0
 40
0.09000000000000001
  1
NAT
  7
PL_ARIAL
 11
9.624034749034749
 21
3.7
 31
0.0
100
AcDbText
  0
TEXT
  5
248
330
17
100
AcDbEntity
  8
S-OPISY
100
AcDbText
 10
9.782854871678401
 20
3.3699999999999997
 30
0.0
 40
0.09000000000000001
  1
Ø50
 50
90.0
  7
PL_ARIAL
 11
9.782854871678401
 21
3.3699999999999997
 31
0.0
100
AcDbText
  0
TEXT
  5
249
330
17
100
AcDbEntity
  8
S-OPISY
100
AcDbText
 10
10.509131274131274
 20
3.7
 30
0.0
 40
0.09000000000000001
  1
PR
  7
PL_ARIAL
 11
10.509131274131274
 21
3.7
 31
0.0
100
AcDbText
  0
TEXT
  5
24A
330
17
100
AcDbEntity
  8
S-OPISY
100
AcDbText
 10
10.6328548716784
 20
3.3699999999999997
 30
0.0
 40
0.09000000000000001
  1
Ø50
 50
90.0
  7
PL_ARIAL
 11
10.6328548716784
 21
3.3699999999999997
 31
0.0
100
AcDbText
  0
TEXT
  5
24B
330
17
100
AcDbEntity
  8
S-OPISY
100
AcDbText
 10
11.373674767204179
 20
3.7
 30
0.0
 40
0.09000000000000001
  1
ZL
  7
PL_ARIAL
 11
11.373674767204179
 21
3.7
 31
0.0
100
AcDbText
  0
TEXT
  5
24C
330
17
100
AcDbEntity
  8
S-OPISY
100
AcDbText
 10
11.4828548716784
 20
3.3699999999999997
 30
0.0
 40
0.09000000000000001
  1
Ø50
 50
90.0
  7
PL_ARIAL
 11
11.4828548716784
 21
3.3699999999999997
 31
0.0
100
AcDbText
  0
TEXT
  5
24D
330
17
100
AcDbEntity
  8
S-OPISY
100
AcDbText
 10
12.154646831705655
 20
3.7
 30
0.0
 40
0.09000000000000001
  1
UMY
  7
PL_ARIAL
 11
12.154646831705655
 21
3.7
 31
0.0
100
AcDbText
  0
TEXT
  5
24E
330
17
100
AcDbEntity
  8
S-OPISY
100
AcDbText
 10
12.332854871678402
 20
3.3699999999999997
 30
0.0
 40
0.09000000000000001
  1
Ø40
 50
90.0
  7
PL_ARIAL
 11
12.332854871678402
 21
3.3699999999999997
 31
0.0
100
AcDbText
  0
TEXT
  5
24F
330
17
100
AcDbEntity
  8
S-OPISY
100
AcDbText
 10
13.059131274131275
 20
3.7
 30
0.0
 40
0.09000000000000001
  1
SU
  7
PL_ARIAL
 11
13.059131274131275
 21
3.7
 31
0.0
100
AcDbText
  0
TEXT
  5
250
330
17
100
AcDbEntity
  8
S-OPISY
100
AcDbText
 10
13.182854871678401
 20
3.3699999999999997
 30
0.0
 40
0.09000000000000001
  1
Ø40
 50
90.0
  7
PL_ARIAL
 11
13.182854871678401
 21
3.3699999999999997
 31
0.0
100
AcDbText
  0
TEXT
  5
251
330
17
100
AcDbEntity
  8
S-OPISY
100
AcDbText
 10
8.25
 20
3.1
 30
0.0
 40
0.09000000000000001
  1
Ø110, i = 2,0 %
  7
PL_ARIAL
 11
8.25
 21
3.1
 31
0.0
100
AcDbText
  0
HATCH
  5
252
330
17
100
AcDbEntity
  8
A-MASKA
 62
7
420
16777215
100
AcDbHatch
 10
0.0
 20
0.0
 30
0.0
210
0.0
220
0.0
230
1.0
  2
SOLID
 70
1
 71
0
 91
1
 92
3
 72
0
 73
1
 93
4
 10
14.2325
 20
9.950450000000002
 10
16.050166363842834
 20
9.950450000000002
 10
16.050166363842834
 20
10.095250000000002
 10
14.2325
 20
10.095250000000002
 97
0
 75
0
 76
1
 98
0
  0
TEXT
  5
253
330
17
100
AcDbEntity
  8
S-OPISY
100
AcDbText
 10
14.25
 20
9.987750000000002
 30
0.0
 40
0.09000000000000001
  1
wywiewka Ø110 wylot +10,026
  7
PL_ARIAL
 11
14.25
 21
9.987750000000002
 31
0.0
100
AcDbText
  0
TEXT
  5
254
330
17
100
AcDbEntity
  8
S-OPISY
100
AcDbText
 10
13.811503520327049
 20
-0.0015997940369743002
 30
0.0
 40
0.125
  1
Pion K1 PP-HT 110
 50
90.0
  7
PL_ARIAL_B
 11
13.811503520327049
 21
-0.0015997940369743002
 31
0.0
100
AcDbText
  0
TEXT
  5
255
330
17
100
AcDbEntity
  8
S-OPISY
100
AcDbText
 10
14.791020894844424
 20
0.55
 30
0.0
 40
0.09000000000000001
  1
WC
  7
PL_ARIAL
 11
14.791020894844424
 21
0.55
 31
0.0
100
AcDbText
  0
TEXT
  5
256
330
17
100
AcDbEntity
  8
S-OPISY
100
AcDbText
 10
14.932854871678401
 20
0.16000000000000003
 30
0.0
 40
0.09000000000000001
  1
Ø110
 50
90.0
  7
PL_ARIAL
 11
14.932854871678401
 21
0.16000000000000003
 31
0.0
100
AcDbText
  0
TEXT
  5
257
330
17
100
AcDbEntity
  8
S-OPISY
100
AcDbText
 10
15.624034749034749
 20
0.55
 30
0.0
 40
0.09000000000000001
  1
NAT
  7
PL_ARIAL
 11
15.624034749034749
 21
0.55
 31
0.0
100
AcDbText
  0
TEXT
  5
258
330
17
100
AcDbEntity
  8
S-OPISY
100
AcDbText
 10
15.782854871678401
 20
0.22000000000000003
 30
0.0
 40
0.09000000000000001
  1
Ø50
 50
90.0
  7
PL_ARIAL
 11
15.782854871678401
 21
0.22000000000000003
 31
0.0
100
AcDbText
  0
TEXT
  5
259
330
17
100
AcDbEntity
  8
S-OPISY
100
AcDbText
 10
16.454646831705656
 20
0.55
 30
0.0
 40
0.09000000000000001
  1
UMY
  7
PL_ARIAL
 11
16.454646831705656
 21
0.55
 31
0.0
100
AcDbText
  0
TEXT
  5
25A
330
17
100
AcDbEntity
  8
S-OPISY
100
AcDbText
 10
16.6328548716784
 20
0.22000000000000003
 30
0.0
 40
0.09000000000000001
  1
Ø40
 50
90.0
  7
PL_ARIAL
 11
16.6328548716784
 21
0.22000000000000003
 31
0.0
100
AcDbText
  0
TEXT
  5
25B
330
17
100
AcDbEntity
  8
S-OPISY
100
AcDbText
 10
14.25
 20
-0.05
 30
0.0
 40
0.09000000000000001
  1
Ø110, i = 2,0 %
  7
PL_ARIAL
 11
14.25
 21
-0.05
 31
0.0
100
AcDbText
  0
TEXT
  5
25C
330
17
100
AcDbEntity
  8
S-OPISY
100
AcDbText
 10
14.791020894844424
 20
3.7
 30
0.0
 40
0.09000000000000001
  1
WC
  7
PL_ARIAL
 11
14.791020894844424
 21
3.7
 31
0.0
100
AcDbText
  0
TEXT
  5
25D
330
17
100
AcDbEntity
  8
S-OPISY
100
AcDbText
 10
14.932854871678401
 20
3.3099999999999996
 30
0.0
 40
0.09000000000000001
  1
Ø110
 50
90.0
  7
PL_ARIAL
 11
14.932854871678401
 21
3.3099999999999996
 31
0.0
100
AcDbText
  0
TEXT
  5
25E
330
17
100
AcDbEntity
  8
S-OPISY
100
AcDbText
 10
15.599812627753805
 20
3.7
 30
0.0
 40
0.09000000000000001
  1
WAN
  7
PL_ARIAL
 11
15.599812627753805
 21
3.7
 31
0.0
100
AcDbText
  0
TEXT
  5
25F
330
17
100
AcDbEntity
  8
S-OPISY
100
AcDbText
 10
15.782854871678401
 20
3.3699999999999997
 30
0.0
 40
0.09000000000000001
  1
Ø50
 50
90.0
  7
PL_ARIAL
 11
15.782854871678401
 21
3.3699999999999997
 31
0.0
100
AcDbText
  0
TEXT
  5
260
330
17
100
AcDbEntity
  8
S-OPISY
100
AcDbText
 10
16.454646831705656
 20
3.7
 30
0.0
 40
0.09000000000000001
  1
UMY
  7
PL_ARIAL
 11
16.454646831705656
 21
3.7
 31
0.0
100
AcDbText
  0
TEXT
  5
261
330
17
100
AcDbEntity
  8
S-OPISY
100
AcDbText
 10
16.6328548716784
 20
3.3699999999999997
 30
0.0
 40
0.09000000000000001
  1
Ø40
 50
90.0
  7
PL_ARIAL
 11
16.6328548716784
 21
3.3699999999999997
 31
0.0
100
AcDbText
  0
TEXT
  5
262
330
17
100
AcDbEntity
  8
S-OPISY
100
AcDbText
 10
14.25
 20
3.1
 30
0.0
 40
0.09000000000000001
  1
Ø110, i = 2,0 %
  7
PL_ARIAL
 11
14.25
 21
3.1
 31
0.0
100
AcDbText
  0
TEXT
  5
263
330
17
100
AcDbEntity
  8
S-OPISY
100
AcDbText
 10
14.791020894844424
 20
6.85
 30
0.0
 40
0.09000000000000001
  1
WC
  7
PL_ARIAL
 11
14.791020894844424
 21
6.85
 31
0.0
100
AcDbText
  0
TEXT
  5
264
330
17
100
AcDbEntity
  8
S-OPISY
100
AcDbText
 10
14.932854871678401
 20
6.46
 30
0.0
 40
0.09000000000000001
  1
Ø110
 50
90.0
  7
PL_ARIAL
 11
14.932854871678401
 21
6.46
 31
0.0
100
AcDbText
  0
TEXT
  5
265
330
17
100
AcDbEntity
  8
S-OPISY
100
AcDbText
 10
15.624034749034749
 20
6.85
 30
0.0
 40
0.09000000000000001
  1
NAT
  7
PL_ARIAL
 11
15.624034749034749
 21
6.85
 31
0.0
100
AcDbText
  0
TEXT
  5
266
330
17
100
AcDbEntity
  8
S-OPISY
100
AcDbText
 10
15.782854871678401
 20
6.5200000000000005
 30
0.0
 40
0.09000000000000001
  1
Ø50
 50
90.0
  7
PL_ARIAL
 11
15.782854871678401
 21
6.5200000000000005
 31
0.0
100
AcDbText
  0
TEXT
  5
267
330
17
100
AcDbEntity
  8
S-OPISY
100
AcDbText
 10
16.454646831705656
 20
6.85
 30
0.0
 40
0.09000000000000001
  1
UMY
  7
PL_ARIAL
 11
16.454646831705656
 21
6.85
 31
0.0
100
AcDbText
  0
TEXT
  5
268
330
17
100
AcDbEntity
  8
S-OPISY
100
AcDbText
 10
16.6328548716784
 20
6.5200000000000005
 30
0.0
 40
0.09000000000000001
  1
Ø40
 50
90.0
  7
PL_ARIAL
 11
16.6328548716784
 21
6.5200000000000005
 31
0.0
100
AcDbText
  0
TEXT
  5
269
330
17
100
AcDbEntity
  8
S-OPISY
100
AcDbText
 10
14.25
 20
6.25
 30
0.0
 40
0.09000000000000001
  1
Ø110, i = 2,0 %
  7
PL_ARIAL
 11
14.25
 21
6.25
 31
0.0
100
AcDbText
  0
HATCH
  5
26A
330
17
100
AcDbEntity
  8
A-MASKA
 62
7
420
16777215
100
AcDbHatch
 10
0.0
 20
0.0
 30
0.0
210
0.0
220
0.0
230
1.0
  2
SOLID
 70
1
 71
0
 91
1
 92
3
 72
0
 73
1
 93
4
 10
5.2325
 20
-1.1937601490550978
 10
7.557931523960936
 20
-1.1937601490550978
 10
7.557931523960936
 20
-1.0489601490550977
 10
5.2325
 20
-1.0489601490550977
 97
0
 75
0
 76
1
 98
0
  0
TEXT
  5
26B
330
17
100
AcDbEntity
  8
S-OPISY
100
AcDbText
 10
5.25
 20
-1.1564601490550976
 30
0.0
 40
0.09000000000000001
  1
PVC-U SN8 110, i = 2,0 %, L = 14,05 m
  7
PL_ARIAL
 11
5.25
 21
-1.1564601490550976
 31
0.0
100
AcDbText
  0
HATCH
  5
26C
330
17
100
AcDbEntity
  8
A-MASKA
 62
7
420
16777215
100
AcDbHatch
 10
0.0
 20
0.0
 30
0.0
210
0.0
220
0.0
230
1.0
  2
SOLID
 70
1
 71
0
 91
1
 92
3
 72
0
 73
1
 93
4
 10
2.1825
 20
-1.053260149055098
 10
2.8758306836248013
 20
-1.053260149055098
 10
2.8758306836248013
 20
-0.9084601490550978
 10
2.1825
 20
-0.9084601490550978
 97
0
 75
0
 76
1
 98
0
  0
TEXT
  5
26D
330
17
100
AcDbEntity
  8
S-OPISY
100
AcDbText
 10
2.2
 20
-1.0159601490550978
 30
0.0
 40
0.09000000000000001
  1
dno −0,978
  7
PL_ARIAL
 11
2.2
 21
-1.0159601490550978
 31
0.0
100
AcDbText
  0
HATCH
  5
26E
330
17
100
AcDbEntity
  8
A-MASKA
 62
7
420
16777215
100
AcDbHatch
 10
0.0
 20
0.0
 30
0.0
210
0.0
220
0.0
230
1.0
  2
SOLID
 70
1
 71
0
 91
1
 92
3
 72
0
 73
1
 93
4
 10
11.2325
 20
-1.3987601490550978
 10
13.485183397683398
 20
-1.3987601490550978
 10
13.485183397683398
 20
-1.2539601490550978
 10
11.2325
 20
-1.2539601490550978
 97
0
 75
0
 76
1
 98
0
  0
TEXT
  5
26F
330
17
100
AcDbEntity
  8
S-OPISY
100
AcDbText
 10
11.25
 20
-1.3614601490550977
 30
0.0
 40
0.09000000000000001
  1
PVC-U SN8 110, i = 2,0 %, L = 6,45 m
  7
PL_ARIAL
 11
11.25
 21
-1.3614601490550977
 31
0.0
100
AcDbText
  0
HATCH
  5
270
330
17
100
AcDbEntity
  8
A-MASKA
 62
7
420
16777215
100
AcDbHatch
 10
0.0
 20
0.0
 30
0.0
210
0.0
220
0.0
230
1.0
  2
SOLID
 70
1
 71
0
 91
1
 92
3
 72
0
 73
1
 93
4
 10
8.1825
 20
-1.3342601490550976
 10
8.8758306836248
 20
-1.3342601490550976
 10
8.8758306836248
 20
-1.1894601490550978
 10
8.1825
 20
-1.1894601490550978
 97
0
 75
0
 76
1
 98
0
  0
TEXT
  5
271
330
17
100
AcDbEntity
  8
S-OPISY
100
AcDbText
 10
8.2
 20
-1.2969601490550977
 30
0.0
 40
0.09000000000000001
  1
dno −1,259
  7
PL_ARIAL
 11
8.2
 21
-1.2969601490550977
 31
0.0
100
AcDbText
  0
HATCH
  5
272
330
17
100
AcDbEntity
  8
A-MASKA
 62
7
420
16777215
100
AcDbHatch
 10
0.0
 20
0.0
 30
0.0
210
0.0
220
0.0
230
1.0
  2
SOLID
 70
1
 71
0
 91
1
 92
3
 72
0
 73
1
 93
4
 10
17.2325
 20
-1.4934601490550978
 10
19.485183397683397
 20
-1.4934601490550978
 10
19.485183397683397
 20
-1.3486601490550978
 10
17.2325
 20
-1.3486601490550978
 97
0
 75
0
 76
1
 98
0
  0
TEXT
  5
273
330
17
100
AcDbEntity
  8
S-OPISY
100
AcDbText
 10
17.25
 20
-1.4561601490550977
 30
0.0
 40
0.09000000000000001
  1
PVC-U SN8 110, i = 2,0 %, L = 3,02 m
  7
PL_ARIAL
 11
17.25
 21
-1.4561601490550977
 31
0.0
100
AcDbText
  0
HATCH
  5
274
330
17
100
AcDbEntity
  8
A-MASKA
 62
7
420
16777215
100
AcDbHatch
 10
0.0
 20
0.0
 30
0.0
210
0.0
220
0.0
230
1.0
  2
SOLID
 70
1
 71
0
 91
1
 92
3
 72
0
 73
1
 93
4
 10
14.1825
 20
-1.4632601490550976
 10
14.8758306836248
 20
-1.4632601490550976
 10
14.8758306836248
 20
-1.3184601490550978
 10
14.1825
 20
-1.3184601490550978
 97
0
 75
0
 76
1
 98
0
  0
TEXT
  5
275
330
17
100
AcDbEntity
  8
S-OPISY
100
AcDbText
 10
14.2
 20
-1.4259601490550977
 30
0.0
 40
0.09000000000000001
  1
dno −1,388
  7
PL_ARIAL
 11
14.2
 21
-1.4259601490550977
 31
0.0
100
AcDbText
  0
HATCH
  5
276
330
17
100
AcDbEntity
  8
A-MASKA
 62
7
420
16777215
100
AcDbHatch
 10
0.0
 20
0.0
 30
0.0
210
0.0
220
0.0
230
1.0
  2
SOLID
 70
1
 71
0
 91
1
 92
3
 72
0
 73
1
 93
4
 10
20.2325
 20
-1.5236601490550976
 10
22.052762321144673
 20
-1.5236601490550976
 10
22.052762321144673
 20
-1.3788601490550978
 10
20.2325
 20
-1.3788601490550978
 97
0
 75
0
 76
1
 98
0
  0
TEXT
  5
277
330
17
100
AcDbEntity
  8
S-OPISY
100
AcDbText
 10
20.25
 20
-1.4863601490550977
 30
0.0
 40
0.09000000000000001
  1
wyjście z budynku, dno −1,448
  7
PL_ARIAL
 11
20.25
 21
-1.4863601490550977
 31
0.0
100
AcDbText
  0
HATCH
  5
278
330
17
100
AcDbEntity
  8
A-MASKA
 62
7
420
16777215
100
AcDbHatch
 10
0.0
 20
0.0
 30
0.0
210
0.0
220
0.0
230
1.0
  2
SOLID
 70
1
 71
0
 91
1
 92
3
 72
0
 73
1
 93
4
 10
21.4825
 20
-1.8041601490550976
 10
23.745976039064274
 20
-1.8041601490550976
 10
23.745976039064274
 20
-1.6593601490550978
 10
21.4825
 20
-1.6593601490550978
 97
0
 75
0
 76
1
 98
0
  0
TEXT
  5
279
330
17
100
AcDbEntity
  8
S-OPISY
100
AcDbText
 10
21.5
 20
-1.7668601490550977
 30
0.0
 40
0.09000000000000001
  1
przykanalik PVC-U SN8 160, i = 2,0 %
  7
PL_ARIAL
 11
21.5
 21
-1.7668601490550977
 31
0.0
100
AcDbText
  0
HATCH
  5
27A
330
17
100
AcDbEntity
  8
A-MASKA
 62
7
420
16777215
100
AcDbHatch
 10
0.0
 20
0.0
 30
0.0
210
0.0
220
0.0
230
1.0
  2
SOLID
 70
1
 71
0
 91
1
 92
3
 72
0
 73
1
 93
4
 10
23.2325
 20
-0.33337445544595645
 10
24.590681921417215
 20
-0.33337445544595645
 10
24.590681921417215
 20
-0.18857445544595647
 10
23.2325
 20
-0.18857445544595647
 97
0
 75
0
 76
1
 98
0
  0
TEXT
  5
27B
330
17
100
AcDbEntity
  8
S-OPISY
100
AcDbText
 10
23.25
 20
-0.29607445544595645
 30
0.0
 40
0.09000000000000001
  1
studzienka SR1 Ø425
  7
PL_ARIAL_B
 11
23.25
 21
-0.29607445544595645
 31
0.0
100
AcDbText
  0
HATCH
  5
27C
330
17
100
AcDbEntity
  8
A-MASKA
 62
7
420
16777215
100
AcDbHatch
 10
0.0
 20
0.0
 30
0.0
210
0.0
220
0.0
230
1.0
  2
SOLID
 70
1
 71
0
 91
1
 92
3
 72
0
 73
1
 93
4
 10
23.2325
 20
-0.5328744554459564
 10
24.84894901203725
 20
-0.5328744554459564
 10
24.84894901203725
 20
-0.3880744554459564
 10
23.2325
 20
-0.3880744554459564
 97
0
 75
0
 76
1
 98
0
  0
TEXT
  5
27D
330
17
100
AcDbEntity
  8
S-OPISY
100
AcDbText
 10
23.25
 20
-0.4955744554459564
 30
0.0
 40
0.09000000000000001
  1
dno −1,509 → sieć wg PZT
  7
PL_ARIAL
 11
23.25
 21
-0.4955744554459564
 31
0.0
100
AcDbText
  0
VIEWPORT
  5
A4
330
1B
100
AcDbEntity
 67
1
  8
VIEWPORTS
100
AcDbViewport
 10
445.5
 20
210.0
 30
0.0
 40
891.0
 41
420.0
 68
1
 69
1
 12
445.5
 22
210.0
 13
0.0
 23
0.0
 14
10.0
 24
10.0
 15
10.0
 25
10.0
 16
0.0
 26
0.0
 36
1.0
 17
0.0
 27
0.0
 37
0.0
 42
50.0
 43
0.0
 44
0.0
 45
462.00000000000006
 50
0.0
 51
0.0
 72
100
 90
557088
  1

281
0
 71
0
 74
0
110
0.0
120
0.0
130
0.0
111
1.0
121
0.0
131
0.0
112
0.0
122
1.0
132
0.0
 79
0
146
0.0
282
0
  0
HATCH
  5
A5
330
1B
100
AcDbEntity
 67
1
  8
R-OPISY
 62
7
420
15658734
100
AcDbHatch
 10
0.0
 20
0.0
 30
0.0
210
0.0
220
0.0
230
1.0
  2
SOLID
 70
1
 71
0
 91
1
 92
3
 72
0
 73
1
 93
4
 10
701.0
 20
369.6
 10
881.0
 20
369.6
 10
881.0
 20
375.6
 10
701.0
 20
375.6
 97
0
 75
0
 76
1
 98
0
  0
LWPOLYLINE
  5
A6
330
1B
100
AcDbEntity
 67
1
  8
R-OPISY
370
50
100
AcDbPolyline
 90
2
 70
0
 10
110.01050987962756
 20
86.50589850944901
 10
286.32438678173975
 20
86.50589850944901
  0
LWPOLYLINE
  5
A7
330
1B
100
AcDbEntity
 67
1
  8
R-OPISY
370
25
100
AcDbPolyline
 90
2
 70
0
 10
701.0
 20
369.6
 10
881.0
 20
369.6
  0
LWPOLYLINE
  5
A8
330
1B
100
AcDbEntity
 67
1
  8
R-OPISY
370
13
100
AcDbPolyline
 90
2
 70
0
 10
701.0
 20
365.40000000000003
 10
881.0
 20
365.40000000000003
  0
LWPOLYLINE
  5
A9
330
1B
100
AcDbEntity
 67
1
  8
R-OPISY
370
13
100
AcDbPolyline
 90
2
 70
0
 10
701.0
 20
361.20000000000005
 10
881.0
 20
361.20000000000005
  0
LWPOLYLINE
  5
AA
330
1B
100
AcDbEntity
 67
1
  8
R-OPISY
370
13
100
AcDbPolyline
 90
2
 70
0
 10
701.0
 20
357.00000000000006
 10
881.0
 20
357.00000000000006
  0
LWPOLYLINE
  5
AB
330
1B
100
AcDbEntity
 67
1
  8
R-OPISY
370
13
100
AcDbPolyline
 90
2
 70
0
 10
701.0
 20
352.80000000000007
 10
881.0
 20
352.80000000000007
  0
LWPOLYLINE
  5
AC
330
1B
100
AcDbEntity
 67
1
  8
R-OPISY
370
13
100
AcDbPolyline
 90
2
 70
0
 10
701.0
 20
348.6000000000001
 10
881.0
 20
348.6000000000001
  0
LWPOLYLINE
  5
AD
330
1B
100
AcDbEntity
 67
1
  8
R-OPISY
370
13
100
AcDbPolyline
 90
2
 70
0
 10
701.0
 20
344.4000000000001
 10
881.0
 20
344.4000000000001
  0
LWPOLYLINE
  5
AE
330
1B
100
AcDbEntity
 67
1
  8
R-OPISY
370
13
100
AcDbPolyline
 90
2
 70
0
 10
701.0
 20
340.2000000000001
 10
881.0
 20
340.2000000000001
  0
LWPOLYLINE
  5
AF
330
1B
100
AcDbEntity
 67
1
  8
R-OPISY
370
13
100
AcDbPolyline
 90
2
 70
0
 10
734.75
 20
340.2000000000001
 10
734.75
 20
375.6
  0
LWPOLYLINE
  5
B0
330
1B
100
AcDbEntity
 67
1
  8
R-OPISY
370
13
100
AcDbPolyline
 90
2
 70
0
 10
776.9375
 20
340.2000000000001
 10
776.9375
 20
375.6
  0
LWPOLYLINE
  5
B1
330
1B
100
AcDbEntity
 67
1
  8
R-OPISY
370
13
100
AcDbPolyline
 90
2
 70
0
 10
802.25
 20
340.2000000000001
 10
802.25
 20
375.6
  0
LWPOLYLINE
  5
B2
330
1B
100
AcDbEntity
 67
1
  8
R-OPISY
370
13
100
AcDbPolyline
 90
2
 70
0
 10
827.5625
 20
340.2000000000001
 10
827.5625
 20
375.6
  0
LWPOLYLINE
  5
B3
330
1B
100
AcDbEntity
 67
1
  8
R-OPISY
370
13
100
AcDbPolyline
 90
2
 70
0
 10
855.6875
 20
340.2000000000001
 10
855.6875
 20
375.6
  0
LWPOLYLINE
  5
B4
330
1B
100
AcDbEntity
 67
1
  8
R-OPISY
370
35
100
AcDbPolyline
 90
4
 70
1
 10
701.0
 20
340.2000000000001
 10
881.0
 20
340.2000000000001
 10
881.0
 20
375.6
 10
701.0
 20
375.6
  0
LWPOLYLINE
  5
B5
330
1B
100
AcDbEntity
 67
1
  8
R-OPISY
370
25
100
AcDbPolyline
 90
4
 70
1
 10
701.0
 20
304.04
 10
881.0
 20
304.04
 10
881.0
 20
335.2000000000001
 10
701.0
 20
335.2000000000001
  0
LWPOLYLINE
  5
B6
330
1B
100
AcDbEntity
 67
1
  8
R-OPISY
370
35
100
AcDbPolyline
 90
2
 70
0
 10
11.0
 20
18.0
 10
11.0
 20
118.0
  0
LWPOLYLINE
  5
B7
330
1B
100
AcDbEntity
 67
1
  8
R-OPISY
370
18
100
AcDbPolyline
 90
2
 70
0
 10
11.0
 20
18.0
 10
9.4
 20
18.0
  0
LWPOLYLINE
  5
B8
330
1B
100
AcDbEntity
 67
1
  8
R-OPISY
370
18
100
AcDbPolyline
 90
2
 70
0
 10
11.0
 20
28.0
 10
10.1
 20
28.0
  0
LWPOLYLINE
  5
B9
330
1B
100
AcDbEntity
 67
1
  8
R-OPISY
370
18
100
AcDbPolyline
 90
2
 70
0
 10
11.0
 20
38.0
 10
10.1
 20
38.0
  0
LWPOLYLINE
  5
BA
330
1B
100
AcDbEntity
 67
1
  8
R-OPISY
370
18
100
AcDbPolyline
 90
2
 70
0
 10
11.0
 20
48.0
 10
10.1
 20
48.0
  0
LWPOLYLINE
  5
BB
330
1B
100
AcDbEntity
 67
1
  8
R-OPISY
370
18
100
AcDbPolyline
 90
2
 70
0
 10
11.0
 20
58.0
 10
10.1
 20
58.0
  0
LWPOLYLINE
  5
BC
330
1B
100
AcDbEntity
 67
1
  8
R-OPISY
370
18
100
AcDbPolyline
 90
2
 70
0
 10
11.0
 20
68.0
 10
9.4
 20
68.0
  0
LWPOLYLINE
  5
BD
330
1B
100
AcDbEntity
 67
1
  8
R-OPISY
370
18
100
AcDbPolyline
 90
2
 70
0
 10
11.0
 20
78.0
 10
10.1
 20
78.0
  0
LWPOLYLINE
  5
BE
330
1B
100
AcDbEntity
 67
1
  8
R-OPISY
370
18
100
AcDbPolyline
 90
2
 70
0
 10
11.0
 20
88.0
 10
10.1
 20
88.0
  0
LWPOLYLINE
  5
BF
330
1B
100
AcDbEntity
 67
1
  8
R-OPISY
370
18
100
AcDbPolyline
 90
2
 70
0
 10
11.0
 20
98.0
 10
10.1
 20
98.0
  0
LWPOLYLINE
  5
C0
330
1B
100
AcDbEntity
 67
1
  8
R-OPISY
370
18
100
AcDbPolyline
 90
2
 70
0
 10
11.0
 20
108.0
 10
10.1
 20
108.0
  0
LWPOLYLINE
  5
C1
330
1B
100
AcDbEntity
 67
1
  8
R-OPISY
370
18
100
AcDbPolyline
 90
2
 70
0
 10
11.0
 20
118.0
 10
9.4
 20
118.0
  0
LWPOLYLINE
  5
C2
330
1B
100
AcDbEntity
 67
1
  8
S-KANAL
370
35
100
AcDbPolyline
 90
2
 70
0
 10
702.0
 20
396.5
 10
716.0
 20
396.5
  0
LWPOLYLINE
  5
C3
330
1B
100
AcDbEntity
 67
1
  8
S-KANAL
  6
KRESKOWA
370
35
100
AcDbPolyline
 90
2
 70
128
 10
702.0
 20
391.3
 10
716.0
 20
391.3
  0
HATCH
  5
C4
330
1B
100
AcDbEntity
 67
1
  8
S-KANAL
 62
7
420
16777215
100
AcDbHatch
 10
0.0
 20
0.0
 30
0.0
210
0.0
220
0.0
230
1.0
  2
SOLID
 70
1
 71
0
 91
1
 92
3
 72
0
 73
1
 93
4
 10
797.8
 20
395.3
 10
800.2
 20
395.3
 10
800.2
 20
397.7
 10
797.8
 20
397.7
 97
0
 75
0
 76
1
 98
0
  0
LWPOLYLINE
  5
C5
330
1B
100
AcDbEntity
 67
1
  8
S-KANAL
370
18
100
AcDbPolyline
 90
4
 70
1
 10
797.8
 20
395.3
 10
800.2
 20
395.3
 10
800.2
 20
397.7
 10
797.8
 20
397.7
  0
HATCH
  5
C6
330
1B
100
AcDbEntity
 67
1
  8
S-KANAL
 62
7
420
0
100
AcDbHatch
 10
0.0
 20
0.0
 30
0.0
210
0.0
220
0.0
230
1.0
  2
SOLID
 70
1
 71
0
 91
1
 92
3
 72
0
 73
1
 93
3
 10
797.8
 20
395.3
 10
800.2
 20
395.3
 10
800.2
 20
397.7
 97
0
 75
0
 76
1
 98
0
  0
HATCH
  5
C7
330
1B
100
AcDbEntity
 67
1
  8
S-KANAL
 62
7
420
16777215
100
AcDbHatch
 10
0.0
 20
0.0
 30
0.0
210
0.0
220
0.0
230
1.0
  2
SOLID
 70
1
 71
0
 91
1
 92
3
 72
0
 73
1
 93
48
 10
801.7437883261413
 20
391.3
 10
801.7203148366502
 20
391.6581362424691
 10
801.6502960060903
 20
392.01014467453535
 10
801.5349298760653
 20
392.350002334331
 10
801.3761903930455
 20
392.67189416307065
 10
801.1767936335963
 20
392.9703125023192
 10
800.940151331555
 20
393.240151331555
 10
800.6703125023192
 20
393.4767936335963
 10
800.3718941630706
 20
393.67619039304554
 10
800.050002334331
 20
393.8349298760653
 10
799.7101446745353
 20
393.9502960060903
 10
799.3581362424691
 20
394.02031483665024
 10
799.0
 20
394.0437883261413
 10
798.6418637575309
 20
394.02031483665024
 10
798.2898553254647
 20
393.9502960060903
 10
797.949997665669
 20
393.83492987606536
 10
797.6281058369294
 20
393.67619039304554
 10
797.3296874976808
 20
393.4767936335963
 10
797.059848668445
 20
393.240151331555
 10
796.8232063664037
 20
392.9703125023192
 10
796.6238096069545
 20
392.67189416307065
 10
796.4650701239347
 20
392.350002334331
 10
796.3497039939097
 20
392.01014467453535
 10
796.2796851633498
 20
391.6581362424691
 10
796.2562116738587
 20
391.3
 10
796.2796851633498
 20
390.94186375753094
 10
796.3497039939097
 20
390.58985532546467
 10
796.4650701239347
 20
390.249997665669
 10
796.6238096069545
 20
389.9281058369294
 10
796.8232063664037
 20
389.62968749768083
 10
797.059848668445
 20
389.359848668445
 10
797.3296874976808
 20
389.12320636640374
 10
797.6281058369294
 20
388.9238096069545
 10
797.949997665669
 20
388.7650701239347
 10
798.2898553254647
 20
388.6497039939097
 10
798.6418637575309
 20
388.5796851633498
 10
799.0
 20
388.55621167385874
 10
799.3581362424691
 20
388.5796851633498
 10
799.7101446745353
 20
388.6497039939097
 10
800.050002334331
 20
388.76507012393466
 10
800.3718941630706
 20
388.9238096069545
 10
800.6703125023192
 20
389.12320636640374
 10
800.940151331555
 20
389.359848668445
 10
801.1767936335963
 20
389.62968749768083
 10
801.3761903930455
 20
389.9281058369294
 10
801.5349298760653
 20
390.249997665669
 10
801.6502960060903
 20
390.58985532546467
 10
801.7203148366502
 20
390.94186375753094
 97
0
 75
0
 76
1
 98
0
  0
LWPOLYLINE
  5
C8
330
1B
100
AcDbEntity
 67
1
  8
S-KANAL
370
18
100
AcDbPolyline
 90
48
 70
1
 10
801.7437883261413
 20
391.3
 10
801.7203148366502
 20
391.6581362424691
 10
801.6502960060903
 20
392.01014467453535
 10
801.5349298760653
 20
392.350002334331
 10
801.3761903930455
 20
392.67189416307065
 10
801.1767936335963
 20
392.9703125023192
 10
800.940151331555
 20
393.240151331555
 10
800.6703125023192
 20
393.4767936335963
 10
800.3718941630706
 20
393.67619039304554
 10
800.050002334331
 20
393.8349298760653
 10
799.7101446745353
 20
393.9502960060903
 10
799.3581362424691
 20
394.02031483665024
 10
799.0
 20
394.0437883261413
 10
798.6418637575309
 20
394.02031483665024
 10
798.2898553254647
 20
393.9502960060903
 10
797.949997665669
 20
393.83492987606536
 10
797.6281058369294
 20
393.67619039304554
 10
797.3296874976808
 20
393.4767936335963
 10
797.059848668445
 20
393.240151331555
 10
796.8232063664037
 20
392.9703125023192
 10
796.6238096069545
 20
392.67189416307065
 10
796.4650701239347
 20
392.350002334331
 10
796.3497039939097
 20
392.01014467453535
 10
796.2796851633498
 20
391.6581362424691
 10
796.2562116738587
 20
391.3
 10
796.2796851633498
 20
390.94186375753094
 10
796.3497039939097
 20
390.58985532546467
 10
796.4650701239347
 20
390.249997665669
 10
796.6238096069545
 20
389.9281058369294
 10
796.8232063664037
 20
389.62968749768083
 10
797.059848668445
 20
389.359848668445
 10
797.3296874976808
 20
389.12320636640374
 10
797.6281058369294
 20
388.9238096069545
 10
797.949997665669
 20
388.7650701239347
 10
798.2898553254647
 20
388.6497039939097
 10
798.6418637575309
 20
388.5796851633498
 10
799.0
 20
388.55621167385874
 10
799.3581362424691
 20
388.5796851633498
 10
799.7101446745353
 20
388.6497039939097
 10
800.050002334331
 20
388.76507012393466
 10
800.3718941630706
 20
388.9238096069545
 10
800.6703125023192
 20
389.12320636640374
 10
800.940151331555
 20
389.359848668445
 10
801.1767936335963
 20
389.62968749768083
 10
801.3761903930455
 20
389.9281058369294
 10
801.5349298760653
 20
390.249997665669
 10
801.6502960060903
 20
390.58985532546467
 10
801.7203148366502
 20
390.94186375753094
  0
TEXT
  5
C9
330
1B
100
AcDbEntity
 67
1
  8
S-KANAL
100
AcDbText
 10
797.2562116738587
 20
390.40000000000003
 30
0.0
 40
1.8
  1
ZN
  7
PL_ARIAL
 11
797.2562116738587
 21
390.40000000000003
 31
0.0
100
AcDbText
  0
HATCH
  5
CA
330
1B
100
AcDbEntity
 67
1
  8
R-TABLICZKA
 62
7
420
16777215
100
AcDbHatch
 10
0.0
 20
0.0
 30
0.0
210
0.0
220
0.0
230
1.0
  2
SOLID
 70
1
 71
0
 91
1
 92
3
 72
0
 73
1
 93
4
 10
701.0
 20
10.0
 10
881.0
 20
10.0
 10
881.0
 20
103.0
 10
701.0
 20
103.0
 97
0
 75
0
 76
1
 98
0
  0
HATCH
  5
CB
330
1B
100
AcDbEntity
 67
1
  8
R-TABLICZKA
 62
7
420
16777215
100
AcDbHatch
 10
0.0
 20
0.0
 30
0.0
210
0.0
220
0.0
230
1.0
  2
SOLID
 70
1
 71
0
 91
1
 92
3
 72
0
 73
1
 93
4
 10
701.0
 20
103.0
 10
881.0
 20
103.0
 10
881.0
 20
113.0
 10
701.0
 20
113.0
 97
0
 75
0
 76
1
 98
0
  0
LWPOLYLINE
  5
CC
330
1B
100
AcDbEntity
 67
1
  8
R-RAMKA
370
70
100
AcDbPolyline
 90
4
 70
1
 10
20.0
 20
10.0
 10
881.0
 20
10.0
 10
881.0
 20
410.0
 10
20.0
 20
410.0
  0
LWPOLYLINE
  5
CD
330
1B
100
AcDbEntity
 67
1
  8
R-RAMKA
370
70
100
AcDbPolyline
 90
2
 70
0
 10
445.5
 20
0.0
 10
445.5
 20
20.0
  0
LWPOLYLINE
  5
CE
330
1B
100
AcDbEntity
 67
1
  8
R-RAMKA
370
70
100
AcDbPolyline
 90
2
 70
0
 10
445.5
 20
420.0
 10
445.5
 20
400.0
  0
LWPOLYLINE
  5
CF
330
1B
100
AcDbEntity
 67
1
  8
R-RAMKA
370
70
100
AcDbPolyline
 90
2
 70
0
 10
0.0
 20
210.0
 10
30.0
 20
210.0
  0
LWPOLYLINE
  5
D0
330
1B
100
AcDbEntity
 67
1
  8
R-RAMKA
370
70
100
AcDbPolyline
 90
2
 70
0
 10
891.0
 20
210.0
 10
871.0
 20
210.0
  0
LWPOLYLINE
  5
D1
330
1B
100
AcDbEntity
 67
1
  8
R-RAMKA
370
35
100
AcDbPolyline
 90
2
 70
0
 10
210.0
 20
0.0
 10
210.0
 20
5.0
  0
LWPOLYLINE
  5
D2
330
1B
100
AcDbEntity
 67
1
  8
R-RAMKA
370
35
100
AcDbPolyline
 90
2
 70
0
 10
210.0
 20
420.0
 10
210.0
 20
415.0
  0
LWPOLYLINE
  5
D3
330
1B
100
AcDbEntity
 67
1
  8
R-RAMKA
370
35
100
AcDbPolyline
 90
2
 70
0
 10
360.5
 20
0.0
 10
360.5
 20
5.0
  0
LWPOLYLINE
  5
D4
330
1B
100
AcDbEntity
 67
1
  8
R-RAMKA
370
35
100
AcDbPolyline
 90
2
 70
0
 10
360.5
 20
420.0
 10
360.5
 20
415.0
  0
LWPOLYLINE
  5
D5
330
1B
100
AcDbEntity
 67
1
  8
R-RAMKA
370
35
100
AcDbPolyline
 90
2
 70
0
 10
511.0
 20
0.0
 10
511.0
 20
5.0
  0
LWPOLYLINE
  5
D6
330
1B
100
AcDbEntity
 67
1
  8
R-RAMKA
370
35
100
AcDbPolyline
 90
2
 70
0
 10
511.0
 20
420.0
 10
511.0
 20
415.0
  0
LWPOLYLINE
  5
D7
330
1B
100
AcDbEntity
 67
1
  8
R-RAMKA
370
35
100
AcDbPolyline
 90
2
 70
0
 10
701.0
 20
0.0
 10
701.0
 20
5.0
  0
LWPOLYLINE
  5
D8
330
1B
100
AcDbEntity
 67
1
  8
R-RAMKA
370
35
100
AcDbPolyline
 90
2
 70
0
 10
701.0
 20
420.0
 10
701.0
 20
415.0
  0
LWPOLYLINE
  5
D9
330
1B
100
AcDbEntity
 67
1
  8
R-RAMKA
370
35
100
AcDbPolyline
 90
2
 70
0
 10
0.0
 20
297.0
 10
5.0
 20
297.0
  0
LWPOLYLINE
  5
DA
330
1B
100
AcDbEntity
 67
1
  8
R-RAMKA
370
35
100
AcDbPolyline
 90
2
 70
0
 10
891.0
 20
297.0
 10
886.0
 20
297.0
  0
LWPOLYLINE
  5
DB
330
1B
100
AcDbEntity
 67
1
  8
R-RAMKA
370
35
100
AcDbPolyline
 90
2
 70
0
 10
45.5
 20
10.0
 10
45.5
 20
5.0
  0
LWPOLYLINE
  5
DC
330
1B
100
AcDbEntity
 67
1
  8
R-RAMKA
370
35
100
AcDbPolyline
 90
2
 70
0
 10
45.5
 20
410.0
 10
45.5
 20
415.0
  0
LWPOLYLINE
  5
DD
330
1B
100
AcDbEntity
 67
1
  8
R-RAMKA
370
35
100
AcDbPolyline
 90
2
 70
0
 10
95.5
 20
10.0
 10
95.5
 20
5.0
  0
LWPOLYLINE
  5
DE
330
1B
100
AcDbEntity
 67
1
  8
R-RAMKA
370
35
100
AcDbPolyline
 90
2
 70
0
 10
95.5
 20
410.0
 10
95.5
 20
415.0
  0
LWPOLYLINE
  5
DF
330
1B
100
AcDbEntity
 67
1
  8
R-RAMKA
370
35
100
AcDbPolyline
 90
2
 70
0
 10
145.5
 20
10.0
 10
145.5
 20
5.0
  0
LWPOLYLINE
  5
E0
330
1B
100
AcDbEntity
 67
1
  8
R-RAMKA
370
35
100
AcDbPolyline
 90
2
 70
0
 10
145.5
 20
410.0
 10
145.5
 20
415.0
  0
LWPOLYLINE
  5
E1
330
1B
100
AcDbEntity
 67
1
  8
R-RAMKA
370
35
100
AcDbPolyline
 90
2
 70
0
 10
195.5
 20
10.0
 10
195.5
 20
5.0
  0
LWPOLYLINE
  5
E2
330
1B
100
AcDbEntity
 67
1
  8
R-RAMKA
370
35
100
AcDbPolyline
 90
2
 70
0
 10
195.5
 20
410.0
 10
195.5
 20
415.0
  0
LWPOLYLINE
  5
E3
330
1B
100
AcDbEntity
 67
1
  8
R-RAMKA
370
35
100
AcDbPolyline
 90
2
 70
0
 10
245.5
 20
10.0
 10
245.5
 20
5.0
  0
LWPOLYLINE
  5
E4
330
1B
100
AcDbEntity
 67
1
  8
R-RAMKA
370
35
100
AcDbPolyline
 90
2
 70
0
 10
245.5
 20
410.0
 10
245.5
 20
415.0
  0
LWPOLYLINE
  5
E5
330
1B
100
AcDbEntity
 67
1
  8
R-RAMKA
370
35
100
AcDbPolyline
 90
2
 70
0
 10
295.5
 20
10.0
 10
295.5
 20
5.0
  0
LWPOLYLINE
  5
E6
330
1B
100
AcDbEntity
 67
1
  8
R-RAMKA
370
35
100
AcDbPolyline
 90
2
 70
0
 10
295.5
 20
410.0
 10
295.5
 20
415.0
  0
LWPOLYLINE
  5
E7
330
1B
100
AcDbEntity
 67
1
  8
R-RAMKA
370
35
100
AcDbPolyline
 90
2
 70
0
 10
345.5
 20
10.0
 10
345.5
 20
5.0
  0
LWPOLYLINE
  5
E8
330
1B
100
AcDbEntity
 67
1
  8
R-RAMKA
370
35
100
AcDbPolyline
 90
2
 70
0
 10
345.5
 20
410.0
 10
345.5
 20
415.0
  0
LWPOLYLINE
  5
E9
330
1B
100
AcDbEntity
 67
1
  8
R-RAMKA
370
35
100
AcDbPolyline
 90
2
 70
0
 10
395.5
 20
10.0
 10
395.5
 20
5.0
  0
LWPOLYLINE
  5
EA
330
1B
100
AcDbEntity
 67
1
  8
R-RAMKA
370
35
100
AcDbPolyline
 90
2
 70
0
 10
395.5
 20
410.0
 10
395.5
 20
415.0
  0
LWPOLYLINE
  5
EB
330
1B
100
AcDbEntity
 67
1
  8
R-RAMKA
370
35
100
AcDbPolyline
 90
2
 70
0
 10
445.5
 20
10.0
 10
445.5
 20
5.0
  0
LWPOLYLINE
  5
EC
330
1B
100
AcDbEntity
 67
1
  8
R-RAMKA
370
35
100
AcDbPolyline
 90
2
 70
0
 10
445.5
 20
410.0
 10
445.5
 20
415.0
  0
LWPOLYLINE
  5
ED
330
1B
100
AcDbEntity
 67
1
  8
R-RAMKA
370
35
100
AcDbPolyline
 90
2
 70
0
 10
495.5
 20
10.0
 10
495.5
 20
5.0
  0
LWPOLYLINE
  5
EE
330
1B
100
AcDbEntity
 67
1
  8
R-RAMKA
370
35
100
AcDbPolyline
 90
2
 70
0
 10
495.5
 20
410.0
 10
495.5
 20
415.0
  0
LWPOLYLINE
  5
EF
330
1B
100
AcDbEntity
 67
1
  8
R-RAMKA
370
35
100
AcDbPolyline
 90
2
 70
0
 10
545.5
 20
10.0
 10
545.5
 20
5.0
  0
LWPOLYLINE
  5
F0
330
1B
100
AcDbEntity
 67
1
  8
R-RAMKA
370
35
100
AcDbPolyline
 90
2
 70
0
 10
545.5
 20
410.0
 10
545.5
 20
415.0
  0
LWPOLYLINE
  5
F1
330
1B
100
AcDbEntity
 67
1
  8
R-RAMKA
370
35
100
AcDbPolyline
 90
2
 70
0
 10
595.5
 20
10.0
 10
595.5
 20
5.0
  0
LWPOLYLINE
  5
F2
330
1B
100
AcDbEntity
 67
1
  8
R-RAMKA
370
35
100
AcDbPolyline
 90
2
 70
0
 10
595.5
 20
410.0
 10
595.5
 20
415.0
  0
LWPOLYLINE
  5
F3
330
1B
100
AcDbEntity
 67
1
  8
R-RAMKA
370
35
100
AcDbPolyline
 90
2
 70
0
 10
645.5
 20
10.0
 10
645.5
 20
5.0
  0
LWPOLYLINE
  5
F4
330
1B
100
AcDbEntity
 67
1
  8
R-RAMKA
370
35
100
AcDbPolyline
 90
2
 70
0
 10
645.5
 20
410.0
 10
645.5
 20
415.0
  0
LWPOLYLINE
  5
F5
330
1B
100
AcDbEntity
 67
1
  8
R-RAMKA
370
35
100
AcDbPolyline
 90
2
 70
0
 10
695.5
 20
10.0
 10
695.5
 20
5.0
  0
LWPOLYLINE
  5
F6
330
1B
100
AcDbEntity
 67
1
  8
R-RAMKA
370
35
100
AcDbPolyline
 90
2
 70
0
 10
695.5
 20
410.0
 10
695.5
 20
415.0
  0
LWPOLYLINE
  5
F7
330
1B
100
AcDbEntity
 67
1
  8
R-RAMKA
370
35
100
AcDbPolyline
 90
2
 70
0
 10
745.5
 20
10.0
 10
745.5
 20
5.0
  0
LWPOLYLINE
  5
F8
330
1B
100
AcDbEntity
 67
1
  8
R-RAMKA
370
35
100
AcDbPolyline
 90
2
 70
0
 10
745.5
 20
410.0
 10
745.5
 20
415.0
  0
LWPOLYLINE
  5
F9
330
1B
100
AcDbEntity
 67
1
  8
R-RAMKA
370
35
100
AcDbPolyline
 90
2
 70
0
 10
795.5
 20
10.0
 10
795.5
 20
5.0
  0
LWPOLYLINE
  5
FA
330
1B
100
AcDbEntity
 67
1
  8
R-RAMKA
370
35
100
AcDbPolyline
 90
2
 70
0
 10
795.5
 20
410.0
 10
795.5
 20
415.0
  0
LWPOLYLINE
  5
FB
330
1B
100
AcDbEntity
 67
1
  8
R-RAMKA
370
35
100
AcDbPolyline
 90
2
 70
0
 10
845.5
 20
10.0
 10
845.5
 20
5.0
  0
LWPOLYLINE
  5
FC
330
1B
100
AcDbEntity
 67
1
  8
R-RAMKA
370
35
100
AcDbPolyline
 90
2
 70
0
 10
845.5
 20
410.0
 10
845.5
 20
415.0
  0
LWPOLYLINE
  5
FD
330
1B
100
AcDbEntity
 67
1
  8
R-RAMKA
370
35
100
AcDbPolyline
 90
2
 70
0
 10
20.0
 20
60.0
 10
15.0
 20
60.0
  0
LWPOLYLINE
  5
FE
330
1B
100
AcDbEntity
 67
1
  8
R-RAMKA
370
35
100
AcDbPolyline
 90
2
 70
0
 10
881.0
 20
60.0
 10
886.0
 20
60.0
  0
LWPOLYLINE
  5
FF
330
1B
100
AcDbEntity
 67
1
  8
R-RAMKA
370
35
100
AcDbPolyline
 90
2
 70
0
 10
20.0
 20
110.0
 10
15.0
 20
110.0
  0
LWPOLYLINE
  5
100
330
1B
100
AcDbEntity
 67
1
  8
R-RAMKA
370
35
100
AcDbPolyline
 90
2
 70
0
 10
881.0
 20
110.0
 10
886.0
 20
110.0
  0
LWPOLYLINE
  5
101
330
1B
100
AcDbEntity
 67
1
  8
R-RAMKA
370
35
100
AcDbPolyline
 90
2
 70
0
 10
20.0
 20
160.0
 10
15.0
 20
160.0
  0
LWPOLYLINE
  5
102
330
1B
100
AcDbEntity
 67
1
  8
R-RAMKA
370
35
100
AcDbPolyline
 90
2
 70
0
 10
881.0
 20
160.0
 10
886.0
 20
160.0
  0
LWPOLYLINE
  5
103
330
1B
100
AcDbEntity
 67
1
  8
R-RAMKA
370
35
100
AcDbPolyline
 90
2
 70
0
 10
20.0
 20
210.0
 10
15.0
 20
210.0
  0
LWPOLYLINE
  5
104
330
1B
100
AcDbEntity
 67
1
  8
R-RAMKA
370
35
100
AcDbPolyline
 90
2
 70
0
 10
881.0
 20
210.0
 10
886.0
 20
210.0
  0
LWPOLYLINE
  5
105
330
1B
100
AcDbEntity
 67
1
  8
R-RAMKA
370
35
100
AcDbPolyline
 90
2
 70
0
 10
20.0
 20
260.0
 10
15.0
 20
260.0
  0
LWPOLYLINE
  5
106
330
1B
100
AcDbEntity
 67
1
  8
R-RAMKA
370
35
100
AcDbPolyline
 90
2
 70
0
 10
881.0
 20
260.0
 10
886.0
 20
260.0
  0
LWPOLYLINE
  5
107
330
1B
100
AcDbEntity
 67
1
  8
R-RAMKA
370
35
100
AcDbPolyline
 90
2
 70
0
 10
20.0
 20
310.0
 10
15.0
 20
310.0
  0
LWPOLYLINE
  5
108
330
1B
100
AcDbEntity
 67
1
  8
R-RAMKA
370
35
100
AcDbPolyline
 90
2
 70
0
 10
881.0
 20
310.0
 10
886.0
 20
310.0
  0
LWPOLYLINE
  5
109
330
1B
100
AcDbEntity
 67
1
  8
R-RAMKA
370
35
100
AcDbPolyline
 90
2
 70
0
 10
20.0
 20
360.0
 10
15.0
 20
360.0
  0
LWPOLYLINE
  5
10A
330
1B
100
AcDbEntity
 67
1
  8
R-RAMKA
370
35
100
AcDbPolyline
 90
2
 70
0
 10
881.0
 20
360.0
 10
886.0
 20
360.0
  0
LWPOLYLINE
  5
10B
330
1B
100
AcDbEntity
 67
1
  8
R-TABLICZKA
370
25
100
AcDbPolyline
 90
2
 70
0
 10
811.0
 20
91.0
 10
811.0
 20
103.0
  0
LWPOLYLINE
  5
10C
330
1B
100
AcDbEntity
 67
1
  8
R-TABLICZKA
370
25
100
AcDbPolyline
 90
2
 70
0
 10
836.0
 20
91.0
 10
836.0
 20
103.0
  0
LWPOLYLINE
  5
10D
330
1B
100
AcDbEntity
 67
1
  8
R-TABLICZKA
370
25
100
AcDbPolyline
 90
2
 70
0
 10
701.0
 20
91.0
 10
881.0
 20
91.0
  0
LWPOLYLINE
  5
10E
330
1B
100
AcDbEntity
 67
1
  8
R-TABLICZKA
370
18
100
AcDbPolyline
 90
2
 70
0
 10
701.0
 20
83.0
 10
881.0
 20
83.0
  0
LWPOLYLINE
  5
10F
330
1B
100
AcDbEntity
 67
1
  8
R-TABLICZKA
370
18
100
AcDbPolyline
 90
2
 70
0
 10
701.0
 20
72.5
 10
881.0
 20
72.5
  0
LWPOLYLINE
  5
110
330
1B
100
AcDbEntity
 67
1
  8
R-TABLICZKA
370
18
100
AcDbPolyline
 90
2
 70
0
 10
851.0
 20
63.5
 10
851.0
 20
72.5
  0
LWPOLYLINE
  5
111
330
1B
100
AcDbEntity
 67
1
  8
R-TABLICZKA
370
25
100
AcDbPolyline
 90
2
 70
0
 10
701.0
 20
63.5
 10
881.0
 20
63.5
  0
LWPOLYLINE
  5
112
330
1B
100
AcDbEntity
 67
1
  8
R-TABLICZKA
370
18
100
AcDbPolyline
 90
2
 70
0
 10
701.0
 20
59.0
 10
881.0
 20
59.0
  0
LWPOLYLINE
  5
113
330
1B
100
AcDbEntity
 67
1
  8
R-TABLICZKA
370
18
100
AcDbPolyline
 90
2
 70
0
 10
701.0
 20
52.0
 10
881.0
 20
52.0
  0
LWPOLYLINE
  5
114
330
1B
100
AcDbEntity
 67
1
  8
R-TABLICZKA
370
18
100
AcDbPolyline
 90
2
 70
0
 10
701.0
 20
45.0
 10
881.0
 20
45.0
  0
LWPOLYLINE
  5
115
330
1B
100
AcDbEntity
 67
1
  8
R-TABLICZKA
370
18
100
AcDbPolyline
 90
2
 70
0
 10
701.0
 20
38.0
 10
881.0
 20
38.0
  0
LWPOLYLINE
  5
116
330
1B
100
AcDbEntity
 67
1
  8
R-TABLICZKA
370
18
100
AcDbPolyline
 90
2
 70
0
 10
701.0
 20
31.0
 10
881.0
 20
31.0
  0
LWPOLYLINE
  5
117
330
1B
100
AcDbEntity
 67
1
  8
R-TABLICZKA
370
18
100
AcDbPolyline
 90
2
 70
0
 10
728.0
 20
31.0
 10
728.0
 20
63.5
  0
LWPOLYLINE
  5
118
330
1B
100
AcDbEntity
 67
1
  8
R-TABLICZKA
370
18
100
AcDbPolyline
 90
2
 70
0
 10
771.0
 20
31.0
 10
771.0
 20
63.5
  0
LWPOLYLINE
  5
119
330
1B
100
AcDbEntity
 67
1
  8
R-TABLICZKA
370
18
100
AcDbPolyline
 90
2
 70
0
 10
826.0
 20
31.0
 10
826.0
 20
63.5
  0
LWPOLYLINE
  5
11A
330
1B
100
AcDbEntity
 67
1
  8
R-TABLICZKA
370
18
100
AcDbPolyline
 90
2
 70
0
 10
846.0
 20
31.0
 10
846.0
 20
63.5
  0
LWPOLYLINE
  5
11B
330
1B
100
AcDbEntity
 67
1
  8
R-TABLICZKA
370
25
100
AcDbPolyline
 90
2
 70
0
 10
701.0
 20
31.0
 10
881.0
 20
31.0
  0
LWPOLYLINE
  5
11C
330
1B
100
AcDbEntity
 67
1
  8
R-TABLICZKA
370
25
100
AcDbPolyline
 90
2
 70
0
 10
701.0
 20
19.0
 10
881.0
 20
19.0
  0
LWPOLYLINE
  5
11D
330
1B
100
AcDbEntity
 67
1
  8
R-TABLICZKA
370
25
100
AcDbPolyline
 90
2
 70
0
 10
725.0
 20
10.0
 10
725.0
 20
19.0
  0
LWPOLYLINE
  5
11E
330
1B
100
AcDbEntity
 67
1
  8
R-TABLICZKA
370
25
100
AcDbPolyline
 90
2
 70
0
 10
741.0
 20
10.0
 10
741.0
 20
19.0
  0
LWPOLYLINE
  5
11F
330
1B
100
AcDbEntity
 67
1
  8
R-TABLICZKA
370
25
100
AcDbPolyline
 90
2
 70
0
 10
765.0
 20
10.0
 10
765.0
 20
19.0
  0
LWPOLYLINE
  5
120
330
1B
100
AcDbEntity
 67
1
  8
R-TABLICZKA
370
25
100
AcDbPolyline
 90
2
 70
0
 10
793.0
 20
10.0
 10
793.0
 20
19.0
  0
LWPOLYLINE
  5
121
330
1B
100
AcDbEntity
 67
1
  8
R-TABLICZKA
370
25
100
AcDbPolyline
 90
2
 70
0
 10
845.0
 20
10.0
 10
845.0
 20
19.0
  0
LWPOLYLINE
  5
122
330
1B
100
AcDbEntity
 67
1
  8
R-TABLICZKA
370
25
100
AcDbPolyline
 90
2
 70
0
 10
863.0
 20
10.0
 10
863.0
 20
19.0
  0
LWPOLYLINE
  5
123
330
1B
100
AcDbEntity
 67
1
  8
R-TABLICZKA
370
50
100
AcDbPolyline
 90
4
 70
1
 10
701.0
 20
10.0
 10
881.0
 20
10.0
 10
881.0
 20
103.0
 10
701.0
 20
103.0
  0
LWPOLYLINE
  5
124
330
1B
100
AcDbEntity
 67
1
  8
R-TABLICZKA
370
18
100
AcDbPolyline
 90
2
 70
0
 10
701.0
 20
108.0
 10
881.0
 20
108.0
  0
LWPOLYLINE
  5
125
330
1B
100
AcDbEntity
 67
1
  8
R-TABLICZKA
370
18
100
AcDbPolyline
 90
2
 70
0
 10
701.0
 20
113.0
 10
881.0
 20
113.0
  0
LWPOLYLINE
  5
126
330
1B
100
AcDbEntity
 67
1
  8
R-TABLICZKA
370
18
100
AcDbPolyline
 90
2
 70
0
 10
719.0
 20
103.0
 10
719.0
 20
113.0
  0
LWPOLYLINE
  5
127
330
1B
100
AcDbEntity
 67
1
  8
R-TABLICZKA
370
18
100
AcDbPolyline
 90
2
 70
0
 10
841.0
 20
103.0
 10
841.0
 20
113.0
  0
LWPOLYLINE
  5
128
330
1B
100
AcDbEntity
 67
1
  8
R-TABLICZKA
370
25
100
AcDbPolyline
 90
4
 70
1
 10
701.0
 20
103.0
 10
881.0
 20
103.0
 10
881.0
 20
113.0
 10
701.0
 20
113.0
  0
TEXT
  5
129
330
1B
100
AcDbEntity
 67
1
  8
R-OPISY
100
AcDbText
 10
110.01050987962756
 20
88.00589850944901
 30
0.0
 40
5.0
  1
ROZWINIĘCIE KANALIZACJI SANITARNEJ (PIONY)
  7
PL_ARIAL_B
 11
110.01050987962756
 21
88.00589850944901
 31
0.0
100
AcDbText
  0
TEXT
  5
12A
330
1B
100
AcDbEntity
 67
1
  8
R-LEGENDA
100
AcDbText
 10
701.0
 20
403.5
 30
0.0
 40
3.5
  1
OZNACZENIA — LEGENDA SYMBOLI
  7
PL_ARIAL_B
 11
701.0
 21
403.5
 31
0.0
100
AcDbText
  0
TEXT
  5
12B
330
1B
100
AcDbEntity
 67
1
  8
R-LEGENDA
100
AcDbText
 10
719.0
 20
396.3
 30
0.0
 40
1.8
  1
Ks — pion / podejście PP-HT (PN-EN 1451-1)
  7
PL_ARIAL
 11
719.0
 21
396.3
 31
0.0
100
AcDbText
  0
TEXT
  5
12C
330
1B
100
AcDbEntity
 67
1
  8
R-LEGENDA
100
AcDbText
 10
719.0
 20
391.1
 30
0.0
 40
1.8
  1
przewód pod płytą / przykanalik PVC-U SN8 (PN-EN 1401-1)
  7
PL_ARIAL
 11
719.0
 21
391.1
 31
0.0
100
AcDbText
  0
TEXT
  5
12D
330
1B
100
AcDbEntity
 67
1
  8
R-LEGENDA
100
AcDbText
 10
809.0
 20
396.3
 30
0.0
 40
1.8
  1
czyszczak na pionie (1,0 m nad posadzką)
  7
PL_ARIAL
 11
809.0
 21
396.3
 31
0.0
100
AcDbText
  0
TEXT
  5
12E
330
1B
100
AcDbEntity
 67
1
  8
R-LEGENDA
100
AcDbText
 10
809.0
 20
391.1
 30
0.0
 40
1.8
  1
zawór napowietrzający pionu
  7
PL_ARIAL
 11
809.0
 21
391.1
 31
0.0
100
AcDbText
  0
TEXT
  5
12F
330
1B
100
AcDbEntity
 67
1
  8
R-OPISY
100
AcDbText
 10
701.0
 20
377.6
 30
0.0
 40
3.5
  1
PIONY I PRZEWODY ODPŁYWOWE (obliczenia PN-EN 12056-2)
  7
PL_ARIAL_B
 11
701.0
 21
377.6
 31
0.0
100
AcDbText
  0
TEXT
  5
130
330
1B
100
AcDbEntity
 67
1
  8
R-OPISY
100
AcDbText
 10
712.7135419032478
 20
371.70000000000005
 30
0.0
 40
1.8
  1
Odcinek
  7
PL_ARIAL_B
 11
712.7135419032478
 21
371.70000000000005
 31
0.0
100
AcDbText
  0
TEXT
  5
131
330
1B
100
AcDbEntity
 67
1
  8
R-OPISY
100
AcDbText
 10
751.5559235180559
 20
371.70000000000005
 30
0.0
 40
1.8
  1
Rodzaj
  7
PL_ARIAL_B
 11
751.5559235180559
 21
371.70000000000005
 31
0.0
100
AcDbText
  0
TEXT
  5
132
330
1B
100
AcDbEntity
 67
1
  8
R-OPISY
100
AcDbText
 10
787.7042201339996
 20
371.70000000000005
 30
0.0
 40
1.8
  1
DN
  7
PL_ARIAL_B
 11
787.7042201339996
 21
371.70000000000005
 31
0.0
100
AcDbText
  0
TEXT
  5
133
330
1B
100
AcDbEntity
 67
1
  8
R-OPISY
100
AcDbText
 10
812.2315963547582
 20
371.70000000000005
 30
0.0
 40
1.8
  1
ΣDU
  7
PL_ARIAL_B
 11
812.2315963547582
 21
371.70000000000005
 31
0.0
100
AcDbText
  0
TEXT
  5
134
330
1B
100
AcDbEntity
 67
1
  8
R-OPISY
100
AcDbText
 10
837.9185044287985
 20
371.70000000000005
 30
0.0
 40
1.8
  1
Q [l/s]
  7
PL_ARIAL_B
 11
837.9185044287985
 21
371.70000000000005
 31
0.0
100
AcDbText
  0
TEXT
  5
135
330
1B
100
AcDbEntity
 67
1
  8
R-OPISY
100
AcDbText
 10
865.1705499091529
 20
371.70000000000005
 30
0.0
 40
1.8
  1
L [m]
  7
PL_ARIAL_B
 11
865.1705499091529
 21
371.70000000000005
 31
0.0
100
AcDbText
  0
TEXT
  5
136
330
1B
100
AcDbEntity
 67
1
  8
R-OPISY
100
AcDbText
 10
702.0
 20
366.6
 30
0.0
 40
1.8
  1
PION_K1
  7
PL_ARIAL
 11
702.0
 21
366.6
 31
0.0
100
AcDbText
  0
TEXT
  5
137
330
1B
100
AcDbEntity
 67
1
  8
R-OPISY
100
AcDbText
 10
735.75
 20
366.6
 30
0.0
 40
1.8
  1
pion
  7
PL_ARIAL
 11
735.75
 21
366.6
 31
0.0
100
AcDbText
  0
TEXT
  5
138
330
1B
100
AcDbEntity
 67
1
  8
R-OPISY
100
AcDbText
 10
786.4908656029979
 20
366.6
 30
0.0
 40
1.8
  1
Ø110
  7
PL_ARIAL
 11
786.4908656029979
 21
366.6
 31
0.0
100
AcDbText
  0
TEXT
  5
139
330
1B
100
AcDbEntity
 67
1
  8
R-OPISY
100
AcDbText
 10
822.9257069043833
 20
366.6
 30
0.0
 40
1.8
  1
9,5
  7
PL_ARIAL
 11
822.9257069043833
 21
366.6
 31
0.0
100
AcDbText
  0
TEXT
  5
13A
330
1B
100
AcDbEntity
 67
1
  8
R-OPISY
100
AcDbText
 10
849.5957443788326
 20
366.6
 30
0.0
 40
1.8
  1
2,00
  7
PL_ARIAL
 11
849.5957443788326
 21
366.6
 31
0.0
100
AcDbText
  0
TEXT
  5
13B
330
1B
100
AcDbEntity
 67
1
  8
R-OPISY
100
AcDbText
 10
874.9082443788326
 20
366.6
 30
0.0
 40
1.8
  1
7,90
  7
PL_ARIAL
 11
874.9082443788326
 21
366.6
 31
0.0
100
AcDbText
  0
TEXT
  5
13C
330
1B
100
AcDbEntity
 67
1
  8
R-OPISY
100
AcDbText
 10
702.0
 20
362.40000000000003
 30
0.0
 40
1.8
  1
PION_K2
  7
PL_ARIAL
 11
702.0
 21
362.40000000000003
 31
0.0
100
AcDbText
  0
TEXT
  5
13D
330
1B
100
AcDbEntity
 67
1
  8
R-OPISY
100
AcDbText
 10
735.75
 20
362.40000000000003
 30
0.0
 40
1.8
  1
pion
  7
PL_ARIAL
 11
735.75
 21
362.40000000000003
 31
0.0
100
AcDbText
  0
TEXT
  5
13E
330
1B
100
AcDbEntity
 67
1
  8
R-OPISY
100
AcDbText
 10
786.4908656029979
 20
362.40000000000003
 30
0.0
 40
1.8
  1
Ø110
  7
PL_ARIAL
 11
786.4908656029979
 21
362.40000000000003
 31
0.0
100
AcDbText
  0
TEXT
  5
13F
330
1B
100
AcDbEntity
 67
1
  8
R-OPISY
100
AcDbText
 10
822.9257069043833
 20
362.40000000000003
 30
0.0
 40
1.8
  1
9,5
  7
PL_ARIAL
 11
822.9257069043833
 21
362.40000000000003
 31
0.0
100
AcDbText
  0
TEXT
  5
140
330
1B
100
AcDbEntity
 67
1
  8
R-OPISY
100
AcDbText
 10
849.5957443788326
 20
362.40000000000003
 30
0.0
 40
1.8
  1
2,00
  7
PL_ARIAL
 11
849.5957443788326
 21
362.40000000000003
 31
0.0
100
AcDbText
  0
TEXT
  5
141
330
1B
100
AcDbEntity
 67
1
  8
R-OPISY
100
AcDbText
 10
874.9082443788326
 20
362.40000000000003
 30
0.0
 40
1.8
  1
4,75
  7
PL_ARIAL
 11
874.9082443788326
 21
362.40000000000003
 31
0.0
100
AcDbText
  0
TEXT
  5
142
330
1B
100
AcDbEntity
 67
1
  8
R-OPISY
100
AcDbText
 10
702.0
 20
358.20000000000005
 30
0.0
 40
1.8
  1
PION_P3
  7
PL_ARIAL
 11
702.0
 21
358.20000000000005
 31
0.0
100
AcDbText
  0
TEXT
  5
143
330
1B
100
AcDbEntity
 67
1
  8
R-OPISY
100
AcDbText
 10
735.75
 20
358.20000000000005
 30
0.0
 40
1.8
  1
pion
  7
PL_ARIAL
 11
735.75
 21
358.20000000000005
 31
0.0
100
AcDbText
  0
TEXT
  5
144
330
1B
100
AcDbEntity
 67
1
  8
R-OPISY
100
AcDbText
 10
787.1212539745628
 20
358.20000000000005
 30
0.0
 40
1.8
  1
Ø75
  7
PL_ARIAL
 11
787.1212539745628
 21
358.20000000000005
 31
0.0
100
AcDbText
  0
TEXT
  5
145
330
1B
100
AcDbEntity
 67
1
  8
R-OPISY
100
AcDbText
 10
822.9257069043833
 20
358.20000000000005
 30
0.0
 40
1.8
  1
1,6
  7
PL_ARIAL
 11
822.9257069043833
 21
358.20000000000005
 31
0.0
100
AcDbText
  0
TEXT
  5
146
330
1B
100
AcDbEntity
 67
1
  8
R-OPISY
100
AcDbText
 10
849.5957443788326
 20
358.20000000000005
 30
0.0
 40
1.8
  1
0,80
  7
PL_ARIAL
 11
849.5957443788326
 21
358.20000000000005
 31
0.0
100
AcDbText
  0
TEXT
  5
147
330
1B
100
AcDbEntity
 67
1
  8
R-OPISY
100
AcDbText
 10
874.9082443788326
 20
358.20000000000005
 30
0.0
 40
1.8
  1
1,60
  7
PL_ARIAL
 11
874.9082443788326
 21
358.20000000000005
 31
0.0
100
AcDbText
  0
TEXT
  5
148
330
1B
100
AcDbEntity
 67
1
  8
R-OPISY
100
AcDbText
 10
702.0
 20
354.00000000000006
 30
0.0
 40
1.8
  1
KOL1
  7
PL_ARIAL
 11
702.0
 21
354.00000000000006
 31
0.0
100
AcDbText
  0
TEXT
  5
149
330
1B
100
AcDbEntity
 67
1
  8
R-OPISY
100
AcDbText
 10
735.75
 20
354.00000000000006
 30
0.0
 40
1.8
  1
poziom
  7
PL_ARIAL
 11
735.75
 21
354.00000000000006
 31
0.0
100
AcDbText
  0
TEXT
  5
14A
330
1B
100
AcDbEntity
 67
1
  8
R-OPISY
100
AcDbText
 10
786.4908656029979
 20
354.00000000000006
 30
0.0
 40
1.8
  1
Ø110
  7
PL_ARIAL
 11
786.4908656029979
 21
354.00000000000006
 31
0.0
100
AcDbText
  0
TEXT
  5
14B
330
1B
100
AcDbEntity
 67
1
  8
R-OPISY
100
AcDbText
 10
822.9257069043833
 20
354.00000000000006
 30
0.0
 40
1.8
  1
1,6
  7
PL_ARIAL
 11
822.9257069043833
 21
354.00000000000006
 31
0.0
100
AcDbText
  0
TEXT
  5
14C
330
1B
100
AcDbEntity
 67
1
  8
R-OPISY
100
AcDbText
 10
849.5957443788326
 20
354.00000000000006
 30
0.0
 40
1.8
  1
0,80
  7
PL_ARIAL
 11
849.5957443788326
 21
354.00000000000006
 31
0.0
100
AcDbText
  0
TEXT
  5
14D
330
1B
100
AcDbEntity
 67
1
  8
R-OPISY
100
AcDbText
 10
873.4532818532819
 20
354.00000000000006
 30
0.0
 40
1.8
  1
14,05
  7
PL_ARIAL
 11
873.4532818532819
 21
354.00000000000006
 31
0.0
100
AcDbText
  0
TEXT
  5
14E
330
1B
100
AcDbEntity
 67
1
  8
R-OPISY
100
AcDbText
 10
702.0
 20
349.80000000000007
 30
0.0
 40
1.8
  1
KOL2
  7
PL_ARIAL
 11
702.0
 21
349.80000000000007
 31
0.0
100
AcDbText
  0
TEXT
  5
14F
330
1B
100
AcDbEntity
 67
1
  8
R-OPISY
100
AcDbText
 10
735.75
 20
349.80000000000007
 30
0.0
 40
1.8
  1
poziom
  7
PL_ARIAL
 11
735.75
 21
349.80000000000007
 31
0.0
100
AcDbText
  0
TEXT
  5
150
330
1B
100
AcDbEntity
 67
1
  8
R-OPISY
100
AcDbText
 10
786.4908656029979
 20
349.80000000000007
 30
0.0
 40
1.8
  1
Ø110
  7
PL_ARIAL
 11
786.4908656029979
 21
349.80000000000007
 31
0.0
100
AcDbText
  0
TEXT
  5
151
330
1B
100
AcDbEntity
 67
1
  8
R-OPISY
100
AcDbText
 10
821.6649301612537
 20
349.80000000000007
 30
0.0
 40
1.8
  1
11,1
  7
PL_ARIAL
 11
821.6649301612537
 21
349.80000000000007
 31
0.0
100
AcDbText
  0
TEXT
  5
152
330
1B
100
AcDbEntity
 67
1
  8
R-OPISY
100
AcDbText
 10
849.5957443788326
 20
349.80000000000007
 30
0.0
 40
1.8
  1
2,00
  7
PL_ARIAL
 11
849.5957443788326
 21
349.80000000000007
 31
0.0
100
AcDbText
  0
TEXT
  5
153
330
1B
100
AcDbEntity
 67
1
  8
R-OPISY
100
AcDbText
 10
874.9082443788326
 20
349.80000000000007
 30
0.0
 40
1.8
  1
6,45
  7
PL_ARIAL
 11
874.9082443788326
 21
349.80000000000007
 31
0.0
100
AcDbText
  0
TEXT
  5
154
330
1B
100
AcDbEntity
 67
1
  8
R-OPISY
100
AcDbText
 10
702.0
 20
345.6000000000001
 30
0.0
 40
1.8
  1
KOL3
  7
PL_ARIAL
 11
702.0
 21
345.6000000000001
 31
0.0
100
AcDbText
  0
TEXT
  5
155
330
1B
100
AcDbEntity
 67
1
  8
R-OPISY
100
AcDbText
 10
735.75
 20
345.6000000000001
 30
0.0
 40
1.8
  1
poziom
  7
PL_ARIAL
 11
735.75
 21
345.6000000000001
 31
0.0
100
AcDbText
  0
TEXT
  5
156
330
1B
100
AcDbEntity
 67
1
  8
R-OPISY
100
AcDbText
 10
786.4908656029979
 20
345.6000000000001
 30
0.0
 40
1.8
  1
Ø110
  7
PL_ARIAL
 11
786.4908656029979
 21
345.6000000000001
 31
0.0
100
AcDbText
  0
TEXT
  5
157
330
1B
100
AcDbEntity
 67
1
  8
R-OPISY
100
AcDbText
 10
821.4707443788326
 20
345.6000000000001
 30
0.0
 40
1.8
  1
20,6
  7
PL_ARIAL
 11
821.4707443788326
 21
345.6000000000001
 31
0.0
100
AcDbText
  0
TEXT
  5
158
330
1B
100
AcDbEntity
 67
1
  8
R-OPISY
100
AcDbText
 10
849.5957443788326
 20
345.6000000000001
 30
0.0
 40
1.8
  1
2,27
  7
PL_ARIAL
 11
849.5957443788326
 21
345.6000000000001
 31
0.0
100
AcDbText
  0
TEXT
  5
159
330
1B
100
AcDbEntity
 67
1
  8
R-OPISY
100
AcDbText
 10
874.9082443788326
 20
345.6000000000001
 30
0.0
 40
1.8
  1
3,02
  7
PL_ARIAL
 11
874.9082443788326
 21
345.6000000000001
 31
0.0
100
AcDbText
  0
TEXT
  5
15A
330
1B
100
AcDbEntity
 67
1
  8
R-OPISY
100
AcDbText
 10
702.0
 20
341.4000000000001
 30
0.0
 40
1.8
  1
PRZ
  7
PL_ARIAL
 11
702.0
 21
341.4000000000001
 31
0.0
100
AcDbText
  0
TEXT
  5
15B
330
1B
100
AcDbEntity
 67
1
  8
R-OPISY
100
AcDbText
 10
735.75
 20
341.4000000000001
 30
0.0
 40
1.8
  1
przykanalik
  7
PL_ARIAL
 11
735.75
 21
341.4000000000001
 31
0.0
100
AcDbText
  0
TEXT
  5
15C
330
1B
100
AcDbEntity
 67
1
  8
R-OPISY
100
AcDbText
 10
786.3937727117874
 20
341.4000000000001
 30
0.0
 40
1.8
  1
Ø160
  7
PL_ARIAL
 11
786.3937727117874
 21
341.4000000000001
 31
0.0
100
AcDbText
  0
TEXT
  5
15D
330
1B
100
AcDbEntity
 67
1
  8
R-OPISY
100
AcDbText
 10
821.4707443788326
 20
341.4000000000001
 30
0.0
 40
1.8
  1
20,6
  7
PL_ARIAL
 11
821.4707443788326
 21
341.4000000000001
 31
0.0
100
AcDbText
  0
TEXT
  5
15E
330
1B
100
AcDbEntity
 67
1
  8
R-OPISY
100
AcDbText
 10
849.5957443788326
 20
341.4000000000001
 30
0.0
 40
1.8
  1
2,27
  7
PL_ARIAL
 11
849.5957443788326
 21
341.4000000000001
 31
0.0
100
AcDbText
  0
TEXT
  5
15F
330
1B
100
AcDbEntity
 67
1
  8
R-OPISY
100
AcDbText
 10
874.9082443788326
 20
341.4000000000001
 30
0.0
 40
1.8
  1
3,05
  7
PL_ARIAL
 11
874.9082443788326
 21
341.4000000000001
 31
0.0
100
AcDbText
  0
TEXT
  5
160
330
1B
100
AcDbEntity
 67
1
  8
R-OPISY
100
AcDbText
 10
703.0
 20
329.7000000000001
 30
0.0
 40
3.5
  1
OBJAŚNIENIA I UWAGI
  7
PL_ARIAL_B
 11
703.0
 21
329.7000000000001
 31
0.0
100
AcDbText
  0
TEXT
  5
161
330
1B
100
AcDbEntity
 67
1
  8
R-OPISY
100
AcDbText
 10
703.0
 20
323.4000000000001
 30
0.0
 40
1.8
  1
1. 
  7
PL_ARIAL
 11
703.0
 21
323.4000000000001
 31
0.0
100
AcDbText
  0
TEXT
  5
162
330
1B
100
AcDbEntity
 67
1
  8
R-OPISY
100
AcDbText
 10
705.908698614581
 20
323.4000000000001
 30
0.0
 40
1.8
  1
Schemat bez skali; rzędne w m względem ±0,000 (posadzka parteru), średnice w mm.
  7
PL_ARIAL
 11
705.908698614581
 21
323.4000000000001
 31
0.0
100
AcDbText
  0
TEXT
  5
163
330
1B
100
AcDbEntity
 67
1
  8
R-OPISY
100
AcDbText
 10
703.0
 20
319.9800000000001
 30
0.0
 40
1.8
  1
2. 
  7
PL_ARIAL
 11
703.0
 21
319.9800000000001
 31
0.0
100
AcDbText
  0
TEXT
  5
164
330
1B
100
AcDbEntity
 67
1
  8
R-OPISY
100
AcDbText
 10
705.908698614581
 20
319.9800000000001
 30
0.0
 40
1.8
  1
Rysunki instalacji na podkładzie rzutów architektury (PB-AR); podkład — linie cienkie szare (warstwy I-PODKLAD*).
  7
PL_ARIAL
 11
705.908698614581
 21
319.9800000000001
 31
0.0
100
AcDbText
  0
TEXT
  5
165
330
1B
100
AcDbEntity
 67
1
  8
R-OPISY
100
AcDbText
 10
703.0
 20
316.56000000000006
 30
0.0
 40
1.8
  1
3. 
  7
PL_ARIAL
 11
703.0
 21
316.56000000000006
 31
0.0
100
AcDbText
  0
TEXT
  5
166
330
1B
100
AcDbEntity
 67
1
  8
R-OPISY
100
AcDbText
 10
705.908698614581
 20
316.56000000000006
 30
0.0
 40
1.8
  1
Rozwinięcie kanalizacji: oś pionowa w skali rzędnych (1:50), oś pozioma umowna. Podejścia pokazano schematycznie (kolejność przyborów wg
  7
PL_ARIAL
 11
705.908698614581
 21
316.56000000000006
 31
0.0
100
AcDbText
  0
TEXT
  5
167
330
1B
100
AcDbEntity
 67
1
  8
R-OPISY
100
AcDbText
 10
705.908698614581
 20
313.68000000000006
 30
0.0
 40
1.8
  1
średnic), rzędne dna przewodów pod płytą z obliczeń (lamela.obliczenia.sanitarne.kanalizacja).
  7
PL_ARIAL
 11
705.908698614581
 21
313.68000000000006
 31
0.0
100
AcDbText
  0
TEXT
  5
168
330
1B
100
AcDbEntity
 67
1
  8
R-OPISY
100
AcDbText
 10
703.0
 20
310.26000000000005
 30
0.0
 40
1.8
  1
4. 
  7
PL_ARIAL
 11
703.0
 21
310.26000000000005
 31
0.0
100
AcDbText
  0
TEXT
  5
169
330
1B
100
AcDbEntity
 67
1
  8
R-OPISY
100
AcDbText
 10
705.908698614581
 20
310.26000000000005
 30
0.0
 40
1.8
  1
Wentylacja pionów: K1 — wywiewka ponad dach; K2 — zawór napowietrzający PN-EN 12380 (dozwolony); P3 — wywiewka ponad dach.
  7
PL_ARIAL
 11
705.908698614581
 21
310.26000000000005
 31
0.0
100
AcDbText
  0
TEXT
  5
16A
330
1B
100
AcDbEntity
 67
1
  8
R-OPISY
100
AcDbText
 10
703.0
 20
306.84000000000003
 30
0.0
 40
1.8
  1
5. 
  7
PL_ARIAL
 11
703.0
 21
306.84000000000003
 31
0.0
100
AcDbText
  0
TEXT
  5
16B
330
1B
100
AcDbEntity
 67
1
  8
R-OPISY
100
AcDbText
 10
705.908698614581
 20
306.84000000000003
 30
0.0
 40
1.8
  1
Rysunek wygenerowany automatycznie z modelu /home/user/aihouse/model/budynek.yaml (wersja 1.0, 2026-09-25) — generatory lamela.views.
  7
PL_ARIAL
 11
705.908698614581
 21
306.84000000000003
 31
0.0
100
AcDbText
  0
TEXT
  5
16C
330
1B
100
AcDbEntity
 67
1
  8
R-OPISY
100
AcDbText
 10
12.8
 20
119.5
 30
0.0
 40
1.8
  1
odcinek kontrolny 100 mm (wydruk 1:1)
 50
90.0
  7
PL_ARIAL
 11
12.8
 21
119.5
 31
0.0
100
AcDbText
  0
TEXT
  5
16D
330
1B
100
AcDbEntity
 67
1
  8
R-RAMKA
100
AcDbText
 10
31.335453100158983
 20
413.25
 30
0.0
 40
3.5
  1
1
  7
PL_ARIAL
 11
31.335453100158983
 21
413.25
 31
0.0
100
AcDbText
  0
TEXT
  5
16E
330
1B
100
AcDbEntity
 67
1
  8
R-RAMKA
100
AcDbText
 10
31.335453100158983
 20
3.25
 30
0.0
 40
3.5
  1
1
  7
PL_ARIAL
 11
31.335453100158983
 21
3.25
 31
0.0
100
AcDbText
  0
TEXT
  5
16F
330
1B
100
AcDbEntity
 67
1
  8
R-RAMKA
100
AcDbText
 10
69.08545310015899
 20
413.25
 30
0.0
 40
3.5
  1
2
  7
PL_ARIAL
 11
69.08545310015899
 21
413.25
 31
0.0
100
AcDbText
  0
TEXT
  5
170
330
1B
100
AcDbEntity
 67
1
  8
R-RAMKA
100
AcDbText
 10
69.08545310015899
 20
3.25
 30
0.0
 40
3.5
  1
2
  7
PL_ARIAL
 11
69.08545310015899
 21
3.25
 31
0.0
100
AcDbText
  0
TEXT
  5
171
330
1B
100
AcDbEntity
 67
1
  8
R-RAMKA
100
AcDbText
 10
119.08545310015899
 20
413.25
 30
0.0
 40
3.5
  1
3
  7
PL_ARIAL
 11
119.08545310015899
 21
413.25
 31
0.0
100
AcDbText
  0
TEXT
  5
172
330
1B
100
AcDbEntity
 67
1
  8
R-RAMKA
100
AcDbText
 10
119.08545310015899
 20
3.25
 30
0.0
 40
3.5
  1
3
  7
PL_ARIAL
 11
119.08545310015899
 21
3.25
 31
0.0
100
AcDbText
  0
TEXT
  5
173
330
1B
100
AcDbEntity
 67
1
  8
R-RAMKA
100
AcDbText
 10
169.085453100159
 20
413.25
 30
0.0
 40
3.5
  1
4
  7
PL_ARIAL
 11
169.085453100159
 21
413.25
 31
0.0
100
AcDbText
  0
TEXT
  5
174
330
1B
100
AcDbEntity
 67
1
  8
R-RAMKA
100
AcDbText
 10
169.085453100159
 20
3.25
 30
0.0
 40
3.5
  1
4
  7
PL_ARIAL
 11
169.085453100159
 21
3.25
 31
0.0
100
AcDbText
  0
TEXT
  5
175
330
1B
100
AcDbEntity
 67
1
  8
R-RAMKA
100
AcDbText
 10
219.085453100159
 20
413.25
 30
0.0
 40
3.5
  1
5
  7
PL_ARIAL
 11
219.085453100159
 21
413.25
 31
0.0
100
AcDbText
  0
TEXT
  5
176
330
1B
100
AcDbEntity
 67
1
  8
R-RAMKA
100
AcDbText
 10
219.085453100159
 20
3.25
 30
0.0
 40
3.5
  1
5
  7
PL_ARIAL
 11
219.085453100159
 21
3.25
 31
0.0
100
AcDbText
  0
TEXT
  5
177
330
1B
100
AcDbEntity
 67
1
  8
R-RAMKA
100
AcDbText
 10
269.085453100159
 20
413.25
 30
0.0
 40
3.5
  1
6
  7
PL_ARIAL
 11
269.085453100159
 21
413.25
 31
0.0
100
AcDbText
  0
TEXT
  5
178
330
1B
100
AcDbEntity
 67
1
  8
R-RAMKA
100
AcDbText
 10
269.085453100159
 20
3.25
 30
0.0
 40
3.5
  1
6
  7
PL_ARIAL
 11
269.085453100159
 21
3.25
 31
0.0
100
AcDbText
  0
TEXT
  5
179
330
1B
100
AcDbEntity
 67
1
  8
R-RAMKA
100
AcDbText
 10
319.085453100159
 20
413.25
 30
0.0
 40
3.5
  1
7
  7
PL_ARIAL
 11
319.085453100159
 21
413.25
 31
0.0
100
AcDbText
  0
TEXT
  5
17A
330
1B
100
AcDbEntity
 67
1
  8
R-RAMKA
100
AcDbText
 10
319.085453100159
 20
3.25
 30
0.0
 40
3.5
  1
7
  7
PL_ARIAL
 11
319.085453100159
 21
3.25
 31
0.0
100
AcDbText
  0
TEXT
  5
17B
330
1B
100
AcDbEntity
 67
1
  8
R-RAMKA
100
AcDbText
 10
369.085453100159
 20
413.25
 30
0.0
 40
3.5
  1
8
  7
PL_ARIAL
 11
369.085453100159
 21
413.25
 31
0.0
100
AcDbText
  0
TEXT
  5
17C
330
1B
100
AcDbEntity
 67
1
  8
R-RAMKA
100
AcDbText
 10
369.085453100159
 20
3.25
 30
0.0
 40
3.5
  1
8
  7
PL_ARIAL
 11
369.085453100159
 21
3.25
 31
0.0
100
AcDbText
  0
TEXT
  5
17D
330
1B
100
AcDbEntity
 67
1
  8
R-RAMKA
100
AcDbText
 10
419.085453100159
 20
413.25
 30
0.0
 40
3.5
  1
9
  7
PL_ARIAL
 11
419.085453100159
 21
413.25
 31
0.0
100
AcDbText
  0
TEXT
  5
17E
330
1B
100
AcDbEntity
 67
1
  8
R-RAMKA
100
AcDbText
 10
419.085453100159
 20
3.25
 30
0.0
 40
3.5
  1
9
  7
PL_ARIAL
 11
419.085453100159
 21
3.25
 31
0.0
100
AcDbText
  0
TEXT
  5
17F
330
1B
100
AcDbEntity
 67
1
  8
R-RAMKA
100
AcDbText
 10
467.670906200318
 20
413.25
 30
0.0
 40
3.5
  1
10
  7
PL_ARIAL
 11
467.670906200318
 21
413.25
 31
0.0
100
AcDbText
  0
TEXT
  5
180
330
1B
100
AcDbEntity
 67
1
  8
R-RAMKA
100
AcDbText
 10
467.670906200318
 20
3.25
 30
0.0
 40
3.5
  1
10
  7
PL_ARIAL
 11
467.670906200318
 21
3.25
 31
0.0
100
AcDbText
  0
TEXT
  5
181
330
1B
100
AcDbEntity
 67
1
  8
R-RAMKA
100
AcDbText
 10
517.8596979332274
 20
413.25
 30
0.0
 40
3.5
  1
11
  7
PL_ARIAL
 11
517.8596979332274
 21
413.25
 31
0.0
100
AcDbText
  0
TEXT
  5
182
330
1B
100
AcDbEntity
 67
1
  8
R-RAMKA
100
AcDbText
 10
517.8596979332274
 20
3.25
 30
0.0
 40
3.5
  1
11
  7
PL_ARIAL
 11
517.8596979332274
 21
3.25
 31
0.0
100
AcDbText
  0
TEXT
  5
183
330
1B
100
AcDbEntity
 67
1
  8
R-RAMKA
100
AcDbText
 10
567.670906200318
 20
413.25
 30
0.0
 40
3.5
  1
12
  7
PL_ARIAL
 11
567.670906200318
 21
413.25
 31
0.0
100
AcDbText
  0
TEXT
  5
184
330
1B
100
AcDbEntity
 67
1
  8
R-RAMKA
100
AcDbText
 10
567.670906200318
 20
3.25
 30
0.0
 40
3.5
  1
12
  7
PL_ARIAL
 11
567.670906200318
 21
3.25
 31
0.0
100
AcDbText
  0
TEXT
  5
185
330
1B
100
AcDbEntity
 67
1
  8
R-RAMKA
100
AcDbText
 10
617.670906200318
 20
413.25
 30
0.0
 40
3.5
  1
13
  7
PL_ARIAL
 11
617.670906200318
 21
413.25
 31
0.0
100
AcDbText
  0
TEXT
  5
186
330
1B
100
AcDbEntity
 67
1
  8
R-RAMKA
100
AcDbText
 10
617.670906200318
 20
3.25
 30
0.0
 40
3.5
  1
13
  7
PL_ARIAL
 11
617.670906200318
 21
3.25
 31
0.0
100
AcDbText
  0
TEXT
  5
187
330
1B
100
AcDbEntity
 67
1
  8
R-RAMKA
100
AcDbText
 10
667.670906200318
 20
413.25
 30
0.0
 40
3.5
  1
14
  7
PL_ARIAL
 11
667.670906200318
 21
413.25
 31
0.0
100
AcDbText
  0
TEXT
  5
188
330
1B
100
AcDbEntity
 67
1
  8
R-RAMKA
100
AcDbText
 10
667.670906200318
 20
3.25
 30
0.0
 40
3.5
  1
14
  7
PL_ARIAL
 11
667.670906200318
 21
3.25
 31
0.0
100
AcDbText
  0
TEXT
  5
189
330
1B
100
AcDbEntity
 67
1
  8
R-RAMKA
100
AcDbText
 10
717.670906200318
 20
413.25
 30
0.0
 40
3.5
  1
15
  7
PL_ARIAL
 11
717.670906200318
 21
413.25
 31
0.0
100
AcDbText
  0
TEXT
  5
18A
330
1B
100
AcDbEntity
 67
1
  8
R-RAMKA
100
AcDbText
 10
717.670906200318
 20
3.25
 30
0.0
 40
3.5
  1
15
  7
PL_ARIAL
 11
717.670906200318
 21
3.25
 31
0.0
100
AcDbText
  0
TEXT
  5
18B
330
1B
100
AcDbEntity
 67
1
  8
R-RAMKA
100
AcDbText
 10
767.670906200318
 20
413.25
 30
0.0
 40
3.5
  1
16
  7
PL_ARIAL
 11
767.670906200318
 21
413.25
 31
0.0
100
AcDbText
  0
TEXT
  5
18C
330
1B
100
AcDbEntity
 67
1
  8
R-RAMKA
100
AcDbText
 10
767.670906200318
 20
3.25
 30
0.0
 40
3.5
  1
16
  7
PL_ARIAL
 11
767.670906200318
 21
3.25
 31
0.0
100
AcDbText
  0
TEXT
  5
18D
330
1B
100
AcDbEntity
 67
1
  8
R-RAMKA
100
AcDbText
 10
817.670906200318
 20
413.25
 30
0.0
 40
3.5
  1
17
  7
PL_ARIAL
 11
817.670906200318
 21
413.25
 31
0.0
100
AcDbText
  0
TEXT
  5
18E
330
1B
100
AcDbEntity
 67
1
  8
R-RAMKA
100
AcDbText
 10
817.670906200318
 20
3.25
 30
0.0
 40
3.5
  1
17
  7
PL_ARIAL
 11
817.670906200318
 21
3.25
 31
0.0
100
AcDbText
  0
TEXT
  5
18F
330
1B
100
AcDbEntity
 67
1
  8
R-RAMKA
100
AcDbText
 10
860.420906200318
 20
413.25
 30
0.0
 40
3.5
  1
18
  7
PL_ARIAL
 11
860.420906200318
 21
413.25
 31
0.0
100
AcDbText
  0
TEXT
  5
190
330
1B
100
AcDbEntity
 67
1
  8
R-RAMKA
100
AcDbText
 10
860.420906200318
 20
3.25
 30
0.0
 40
3.5
  1
18
  7
PL_ARIAL
 11
860.420906200318
 21
3.25
 31
0.0
100
AcDbText
  0
TEXT
  5
191
330
1B
100
AcDbEntity
 67
1
  8
R-RAMKA
100
AcDbText
 10
884.3032591414944
 20
383.25
 30
0.0
 40
3.5
  1
A
  7
PL_ARIAL
 11
884.3032591414944
 21
383.25
 31
0.0
100
AcDbText
  0
TEXT
  5
192
330
1B
100
AcDbEntity
 67
1
  8
R-RAMKA
100
AcDbText
 10
13.303259141494436
 20
383.25
 30
0.0
 40
3.5
  1
A
  7
PL_ARIAL
 11
13.303259141494436
 21
383.25
 31
0.0
100
AcDbText
  0
TEXT
  5
193
330
1B
100
AcDbEntity
 67
1
  8
R-RAMKA
100
AcDbText
 10
884.3032591414944
 20
333.25
 30
0.0
 40
3.5
  1
B
  7
PL_ARIAL
 11
884.3032591414944
 21
333.25
 31
0.0
100
AcDbText
  0
TEXT
  5
194
330
1B
100
AcDbEntity
 67
1
  8
R-RAMKA
100
AcDbText
 10
13.303259141494436
 20
333.25
 30
0.0
 40
3.5
  1
B
  7
PL_ARIAL
 11
13.303259141494436
 21
333.25
 31
0.0
100
AcDbText
  0
TEXT
  5
195
330
1B
100
AcDbEntity
 67
1
  8
R-RAMKA
100
AcDbText
 10
884.1629570747218
 20
283.25
 30
0.0
 40
3.5
  1
C
  7
PL_ARIAL
 11
884.1629570747218
 21
283.25
 31
0.0
100
AcDbText
  0
TEXT
  5
196
330
1B
100
AcDbEntity
 67
1
  8
R-RAMKA
100
AcDbText
 10
13.162957074721781
 20
283.25
 30
0.0
 40
3.5
  1
C
  7
PL_ARIAL
 11
13.162957074721781
 21
283.25
 31
0.0
100
AcDbText
  0
TEXT
  5
197
330
1B
100
AcDbEntity
 67
1
  8
R-RAMKA
100
AcDbText
 10
884.1629570747218
 20
233.25
 30
0.0
 40
3.5
  1
D
  7
PL_ARIAL
 11
884.1629570747218
 21
233.25
 31
0.0
100
AcDbText
  0
TEXT
  5
198
330
1B
100
AcDbEntity
 67
1
  8
R-RAMKA
100
AcDbText
 10
13.162957074721781
 20
233.25
 30
0.0
 40
3.5
  1
D
  7
PL_ARIAL
 11
13.162957074721781
 21
233.25
 31
0.0
100
AcDbText
  0
TEXT
  5
199
330
1B
100
AcDbEntity
 67
1
  8
R-RAMKA
100
AcDbText
 10
884.3032591414944
 20
183.25
 30
0.0
 40
3.5
  1
E
  7
PL_ARIAL
 11
884.3032591414944
 21
183.25
 31
0.0
100
AcDbText
  0
TEXT
  5
19A
330
1B
100
AcDbEntity
 67
1
  8
R-RAMKA
100
AcDbText
 10
13.303259141494436
 20
183.25
 30
0.0
 40
3.5
  1
E
  7
PL_ARIAL
 11
13.303259141494436
 21
183.25
 31
0.0
100
AcDbText
  0
TEXT
  5
19B
330
1B
100
AcDbEntity
 67
1
  8
R-RAMKA
100
AcDbText
 10
884.4463434022258
 20
133.25
 30
0.0
 40
3.5
  1
F
  7
PL_ARIAL
 11
884.4463434022258
 21
133.25
 31
0.0
100
AcDbText
  0
TEXT
  5
19C
330
1B
100
AcDbEntity
 67
1
  8
R-RAMKA
100
AcDbText
 10
13.446343402225756
 20
133.25
 30
0.0
 40
3.5
  1
F
  7
PL_ARIAL
 11
13.446343402225756
 21
133.25
 31
0.0
100
AcDbText
  0
TEXT
  5
19D
330
1B
100
AcDbEntity
 67
1
  8
R-RAMKA
100
AcDbText
 10
884.0214626391097
 20
83.25
 30
0.0
 40
3.5
  1
G
  7
PL_ARIAL
 11
884.0214626391097
 21
83.25
 31
0.0
100
AcDbText
  0
TEXT
  5
19E
330
1B
100
AcDbEntity
 67
1
  8
R-RAMKA
100
AcDbText
 10
13.021462639109698
 20
83.25
 30
0.0
 40
3.5
  1
G
  7
PL_ARIAL
 11
13.021462639109698
 21
83.25
 31
0.0
100
AcDbText
  0
TEXT
  5
19F
330
1B
100
AcDbEntity
 67
1
  8
R-RAMKA
100
AcDbText
 10
884.1629570747218
 20
33.25
 30
0.0
 40
3.5
  1
H
  7
PL_ARIAL
 11
884.1629570747218
 21
33.25
 31
0.0
100
AcDbText
  0
TEXT
  5
1A0
330
1B
100
AcDbEntity
 67
1
  8
R-RAMKA
100
AcDbText
 10
13.162957074721781
 20
33.25
 30
0.0
 40
3.5
  1
H
  7
PL_ARIAL
 11
13.162957074721781
 21
33.25
 31
0.0
100
AcDbText
  0
TEXT
  5
1A1
330
1B
100
AcDbEntity
 67
1
  8
R-RAMKA
100
AcDbText
 10
862.0895752895752
 20
4.1
 30
0.0
 40
1.8
  1
A3×3 (891×420)
  7
PL_ARIAL
 11
862.0895752895752
 21
4.1
 31
0.0
100
AcDbText
  0
TEXT
  5
1A2
330
1B
100
AcDbEntity
 67
1
  8
R-TABLICZKA
100
AcDbText
 10
702.2
 20
100.0
 30
0.0
 40
1.8
  1
PRACOWNIA PROJEKTOWA
  7
PL_ARIAL
 11
702.2
 21
100.0
 31
0.0
100
AcDbText
  0
TEXT
  5
1A3
330
1B
100
AcDbEntity
 67
1
  8
R-TABLICZKA
100
AcDbText
 10
702.2
 20
96.1
 30
0.0
 40
2.5
  1
PRACOWNIA PROJEKTOWA — nazwa do uzupełnienia
  7
PL_ARIAL_B
 11
702.2
 21
96.1
 31
0.0
100
AcDbText
  0
TEXT
  5
1A4
330
1B
100
AcDbEntity
 67
1
  8
R-TABLICZKA
100
AcDbText
 10
702.2
 20
92.4
 30
0.0
 40
1.8
  1
adres pracowni do uzupełnienia
  7
PL_ARIAL
 11
702.2
 21
92.4
 31
0.0
100
AcDbText
  0
TEXT
  5
1A5
330
1B
100
AcDbEntity
 67
1
  8
R-TABLICZKA
100
AcDbText
 10
812.2
 20
100.0
 30
0.0
 40
1.8
  1
STADIUM
  7
PL_ARIAL
 11
812.2
 21
100.0
 31
0.0
100
AcDbText
  0
TEXT
  5
1A6
330
1B
100
AcDbEntity
 67
1
  8
R-TABLICZKA
100
AcDbText
 10
818.8565750624574
 20
93.5
 30
0.0
 40
5.0
  1
PT
  7
PL_ARIAL_B
 11
818.8565750624574
 21
93.5
 31
0.0
100
AcDbText
  0
TEXT
  5
1A7
330
1B
100
AcDbEntity
 67
1
  8
R-TABLICZKA
100
AcDbText
 10
837.2
 20
100.0
 30
0.0
 40
1.8
  1
BRANŻA
  7
PL_ARIAL
 11
837.2
 21
100.0
 31
0.0
100
AcDbText
  0
TEXT
  5
1A8
330
1B
100
AcDbEntity
 67
1
  8
R-TABLICZKA
100
AcDbText
 10
837.2
 20
96.26249999999999
 30
0.0
 40
2.5
  1
INSTALACJE
  7
PL_ARIAL_B
 11
837.2
 21
96.26249999999999
 31
0.0
100
AcDbText
  0
TEXT
  5
1A9
330
1B
100
AcDbEntity
 67
1
  8
R-TABLICZKA
100
AcDbText
 10
837.2
 20
92.63749999999999
 30
0.0
 40
2.5
  1
SANITARNE (IS)
  7
PL_ARIAL_B
 11
837.2
 21
92.63749999999999
 31
0.0
100
AcDbText
  0
TEXT
  5
1AA
330
1B
100
AcDbEntity
 67
1
  8
R-TABLICZKA
100
AcDbText
 10
702.2
 20
88.0
 30
0.0
 40
1.8
  1
INWESTOR
  7
PL_ARIAL
 11
702.2
 21
88.0
 31
0.0
100
AcDbText
  0
TEXT
  5
1AB
330
1B
100
AcDbEntity
 67
1
  8
R-TABLICZKA
100
AcDbText
 10
702.2
 20
84.44999999999999
 30
0.0
 40
2.5
  1
(do uzupełnienia)
  7
PL_ARIAL
 11
702.2
 21
84.44999999999999
 31
0.0
100
AcDbText
  0
TEXT
  5
1AC
330
1B
100
AcDbEntity
 67
1
  8
R-TABLICZKA
100
AcDbText
 10
702.2
 20
80.0
 30
0.0
 40
1.8
  1
OBIEKT / NAZWA ZAMIERZENIA BUDOWLANEGO
  7
PL_ARIAL
 11
702.2
 21
80.0
 31
0.0
100
AcDbText
  0
TEXT
  5
1AD
330
1B
100
AcDbEntity
 67
1
  8
R-TABLICZKA
100
AcDbText
 10
702.2
 20
75.19999999999999
 30
0.0
 40
2.5
  1
Budynek mieszkalny jednorodzinny wolnostojący „Dom LAMELA”
  7
PL_ARIAL_B
 11
702.2
 21
75.19999999999999
 31
0.0
100
AcDbText
  0
TEXT
  5
1AE
330
1B
100
AcDbEntity
 67
1
  8
R-TABLICZKA
100
AcDbText
 10
702.2
 20
69.5
 30
0.0
 40
1.8
  1
ADRES / LOKALIZACJA (NR DZIAŁKI, OBRĘB, JEDN. EWIDENCYJNA)
  7
PL_ARIAL
 11
702.2
 21
69.5
 31
0.0
100
AcDbText
  0
TEXT
  5
1AF
330
1B
100
AcDbEntity
 67
1
  8
R-TABLICZKA
100
AcDbText
 10
702.2
 20
65.716
 30
0.0
 40
1.8
  1
ul. Lipowa (fikcyjna), dz. nr ewid. 123/4, obręb 0005 Przykładowo, gm. Przykładowo (fikcyjna)
  7
PL_ARIAL
 11
702.2
 21
65.716
 31
0.0
100
AcDbText
  0
TEXT
  5
1B0
330
1B
100
AcDbEntity
 67
1
  8
R-TABLICZKA
100
AcDbText
 10
852.2
 20
69.5
 30
0.0
 40
1.8
  1
KAT. OBIEKTU
  7
PL_ARIAL
 11
852.2
 21
69.5
 31
0.0
100
AcDbText
  0
TEXT
  5
1B1
330
1B
100
AcDbEntity
 67
1
  8
R-TABLICZKA
100
AcDbText
 10
865.2933227344992
 20
65.07
 30
0.0
 40
3.5
  1
I
  7
PL_ARIAL_B
 11
865.2933227344992
 21
65.07
 31
0.0
100
AcDbText
  0
TEXT
  5
1B2
330
1B
100
AcDbEntity
 67
1
  8
R-TABLICZKA
100
AcDbText
 10
708.4673631614808
 20
60.35
 30
0.0
 40
1.8
  1
FUNKCJA
  7
PL_ARIAL
 11
708.4673631614808
 21
60.35
 31
0.0
100
AcDbText
  0
TEXT
  5
1B3
330
1B
100
AcDbEntity
 67
1
  8
R-TABLICZKA
100
AcDbText
 10
738.7431296843062
 20
60.35
 30
0.0
 40
1.8
  1
IMIĘ I NAZWISKO
  7
PL_ARIAL
 11
738.7431296843062
 21
60.35
 31
0.0
100
AcDbText
  0
TEXT
  5
1B4
330
1B
100
AcDbEntity
 67
1
  8
R-TABLICZKA
100
AcDbText
 10
777.9770156711334
 20
60.35
 30
0.0
 40
1.8
  1
SPECJALNOŚĆ, NR UPRAWNIEŃ
  7
PL_ARIAL
 11
777.9770156711334
 21
60.35
 31
0.0
100
AcDbText
  0
TEXT
  5
1B5
330
1B
100
AcDbEntity
 67
1
  8
R-TABLICZKA
100
AcDbText
 10
832.7051782875312
 20
60.35
 30
0.0
 40
1.8
  1
DATA
  7
PL_ARIAL
 11
832.7051782875312
 21
60.35
 31
0.0
100
AcDbText
  0
TEXT
  5
1B6
330
1B
100
AcDbEntity
 67
1
  8
R-TABLICZKA
100
AcDbText
 10
858.556438791733
 20
60.35
 30
0.0
 40
1.8
  1
PODPIS
  7
PL_ARIAL
 11
858.556438791733
 21
60.35
 31
0.0
100
AcDbText
  0
TEXT
  5
1B7
330
1B
100
AcDbEntity
 67
1
  8
R-TABLICZKA
100
AcDbText
 10
702.2
 20
54.6
 30
0.0
 40
1.8
  1
Projektant
  7
PL_ARIAL
 11
702.2
 21
54.6
 31
0.0
100
AcDbText
  0
TEXT
  5
1B8
330
1B
100
AcDbEntity
 67
1
  8
R-TABLICZKA
100
AcDbText
 10
702.2
 20
47.6
 30
0.0
 40
1.8
  1
Projektant (wsp.)
  7
PL_ARIAL
 11
702.2
 21
47.6
 31
0.0
100
AcDbText
  0
TEXT
  5
1B9
330
1B
100
AcDbEntity
 67
1
  8
R-TABLICZKA
100
AcDbText
 10
702.2
 20
40.6
 30
0.0
 40
1.8
  1
Sprawdzający
  7
PL_ARIAL
 11
702.2
 21
40.6
 31
0.0
100
AcDbText
  0
TEXT
  5
1BA
330
1B
100
AcDbEntity
 67
1
  8
R-TABLICZKA
100
AcDbText
 10
702.2
 20
33.6
 30
0.0
 40
1.8
  1
Opracował
  7
PL_ARIAL
 11
702.2
 21
33.6
 31
0.0
100
AcDbText
  0
TEXT
  5
1BB
330
1B
100
AcDbEntity
 67
1
  8
R-TABLICZKA
100
AcDbText
 10
702.2
 20
28.0
 30
0.0
 40
1.8
  1
TYTUŁ RYSUNKU
  7
PL_ARIAL
 11
702.2
 21
28.0
 31
0.0
100
AcDbText
  0
TEXT
  5
1BC
330
1B
100
AcDbEntity
 67
1
  8
R-TABLICZKA
100
AcDbText
 10
702.2
 20
22.07
 30
0.0
 40
3.5
  1
KANALIZACJA SANITARNA — ROZWINIĘCIE PIONÓW
  7
PL_ARIAL_B
 11
702.2
 21
22.07
 31
0.0
100
AcDbText
  0
TEXT
  5
1BD
330
1B
100
AcDbEntity
 67
1
  8
R-TABLICZKA
100
AcDbText
 10
702.2
 20
16.0
 30
0.0
 40
1.8
  1
SKALA
  7
PL_ARIAL
 11
702.2
 21
16.0
 31
0.0
100
AcDbText
  0
TEXT
  5
1BE
330
1B
100
AcDbEntity
 67
1
  8
R-TABLICZKA
100
AcDbText
 10
710.456279809221
 20
11.57
 30
0.0
 40
3.5
  1
—
  7
PL_ARIAL_B
 11
710.456279809221
 21
11.57
 31
0.0
100
AcDbText
  0
TEXT
  5
1BF
330
1B
100
AcDbEntity
 67
1
  8
R-TABLICZKA
100
AcDbText
 10
726.2
 20
16.0
 30
0.0
 40
1.8
  1
FORMAT
  7
PL_ARIAL
 11
726.2
 21
16.0
 31
0.0
100
AcDbText
  0
TEXT
  5
1C0
330
1B
100
AcDbEntity
 67
1
  8
R-TABLICZKA
100
AcDbText
 10
728.7060526913468
 20
11.95
 30
0.0
 40
2.5
  1
A3×3
  7
PL_ARIAL
 11
728.7060526913468
 21
11.95
 31
0.0
100
AcDbText
  0
TEXT
  5
1C1
330
1B
100
AcDbEntity
 67
1
  8
R-TABLICZKA
100
AcDbText
 10
742.2
 20
16.0
 30
0.0
 40
1.8
  1
DATA WYDANIA
  7
PL_ARIAL
 11
742.2
 21
16.0
 31
0.0
100
AcDbText
  0
TEXT
  5
1C2
330
1B
100
AcDbEntity
 67
1
  8
R-TABLICZKA
100
AcDbText
 10
743.706904383375
 20
11.95
 30
0.0
 40
2.5
  1
2026-09-25
  7
PL_ARIAL
 11
743.706904383375
 21
11.95
 31
0.0
100
AcDbText
  0
TEXT
  5
1C3
330
1B
100
AcDbEntity
 67
1
  8
R-TABLICZKA
100
AcDbText
 10
766.2
 20
16.0
 30
0.0
 40
1.8
  1
RODZAJ DOK.
  7
PL_ARIAL
 11
766.2
 21
16.0
 31
0.0
100
AcDbText
  0
TEXT
  5
1C4
330
1B
100
AcDbEntity
 67
1
  8
R-TABLICZKA
100
AcDbText
 10
768.6760617760618
 20
12.216000000000001
 30
0.0
 40
1.8
  1
schemat instalacji
  7
PL_ARIAL
 11
768.6760617760618
 21
12.216000000000001
 31
0.0
100
AcDbText
  0
TEXT
  5
1C5
330
1B
100
AcDbEntity
 67
1
  8
R-TABLICZKA
100
AcDbText
 10
794.2
 20
16.0
 30
0.0
 40
1.8
  1
NR RYSUNKU
  7
PL_ARIAL
 11
794.2
 21
16.0
 31
0.0
100
AcDbText
  0
TEXT
  5
1C6
330
1B
100
AcDbEntity
 67
1
  8
R-TABLICZKA
100
AcDbText
 10
808.9634340222575
 20
11.57
 30
0.0
 40
3.5
  1
PT-IS-15
  7
PL_ARIAL_B
 11
808.9634340222575
 21
11.57
 31
0.0
100
AcDbText
  0
TEXT
  5
1C7
330
1B
100
AcDbEntity
 67
1
  8
R-TABLICZKA
100
AcDbText
 10
846.2
 20
16.0
 30
0.0
 40
1.8
  1
ARKUSZ
  7
PL_ARIAL
 11
846.2
 21
16.0
 31
0.0
100
AcDbText
  0
TEXT
  5
1C8
330
1B
100
AcDbEntity
 67
1
  8
R-TABLICZKA
100
AcDbText
 10
849.453667953668
 20
11.95
 30
0.0
 40
2.5
  1
15/17
  7
PL_ARIAL
 11
849.453667953668
 21
11.95
 31
0.0
100
AcDbText
  0
TEXT
  5
1C9
330
1B
100
AcDbEntity
 67
1
  8
R-TABLICZKA
100
AcDbText
 10
864.2
 20
16.0
 30
0.0
 40
1.8
  1
REW.
  7
PL_ARIAL
 11
864.2
 21
16.0
 31
0.0
100
AcDbText
  0
TEXT
  5
1CA
330
1B
100
AcDbEntity
 67
1
  8
R-TABLICZKA
100
AcDbText
 10
870.5854531001589
 20
11.57
 30
0.0
 40
3.5
  1
0
  7
PL_ARIAL_B
 11
870.5854531001589
 21
11.57
 31
0.0
100
AcDbText
  0
TEXT
  5
1CB
330
1B
100
AcDbEntity
 67
1
  8
R-TABLICZKA
100
AcDbText
 10
702.2
 20
104.25
 30
0.0
 40
2.5
  1
0
  7
PL_ARIAL
 11
702.2
 21
104.25
 31
0.0
100
AcDbText
  0
TEXT
  5
1CC
330
1B
100
AcDbEntity
 67
1
  8
R-TABLICZKA
100
AcDbText
 10
720.2
 20
104.25
 30
0.0
 40
2.5
  1
Wydanie — rysunek wygenerowany z modelu
  7
PL_ARIAL
 11
720.2
 21
104.25
 31
0.0
100
AcDbText
  0
TEXT
  5
1CD
330
1B
100
AcDbEntity
 67
1
  8
R-TABLICZKA
100
AcDbText
 10
842.2
 20
104.25
 30
0.0
 40
2.5
  1
2026-09-25
  7
PL_ARIAL
 11
842.2
 21
104.25
 31
0.0
100
AcDbText
  0
TEXT
  5
1CE
330
1B
100
AcDbEntity
 67
1
  8
R-TABLICZKA
100
AcDbText
 10
702.2
 20
109.6
 30
0.0
 40
1.8
  1
REW.
  7
PL_ARIAL
 11
702.2
 21
109.6
 31
0.0
100
AcDbText
  0
TEXT
  5
1CF
330
1B
100
AcDbEntity
 67
1
  8
R-TABLICZKA
100
AcDbText
 10
720.2
 20
109.6
 30
0.0
 40
1.8
  1
OPIS ZMIANY
  7
PL_ARIAL
 11
720.2
 21
109.6
 31
0.0
100
AcDbText
  0
TEXT
  5
1D0
330
1B
100
AcDbEntity
 67
1
  8
R-TABLICZKA
100
AcDbText
 10
842.2
 20
109.6
 30
0.0
 40
1.8
  1
DATA
  7
PL_ARIAL
 11
842.2
 21
109.6
 31
0.0
100
AcDbText
  0
VIEWPORT
  5
27E
330
1B
100
AcDbEntity
 67
1
  8
R-RZUTNIA
100
AcDbViewport
 10
359.5
 20
217.0
 30
0.0
 40
502.97898024074493
 41
243.98820298110195
 68
2
 69
3
 12
12.424474506018623
 22
4.145544925472452
 13
0.0
 23
0.0
 14
10.0
 24
10.0
 15
10.0
 25
10.0
 16
0.0
 26
0.0
 36
1.0
 17
0.0
 27
0.0
 37
0.0
 42
50.0
 43
0.0
 44
0.0
 45
12.199410149055097
 50
0.0
 51
0.0
 72
100
 90
16384
  1

281
0
 71
0
 74
0
110
0.0
120
0.0
130
0.0
111
1.0
121
0.0
131
0.0
112
0.0
122
1.0
132
0.0
 79
0
146
0.0
282
0
  0
ENDSEC
  0
SECTION
  2
OBJECTS
  0
DICTIONARY
  5
A
330
0
100
AcDbDictionary
281
1
  3
ACAD_COLOR
350
B
  3
ACAD_GROUP
350
C
  3
ACAD_LAYOUT
350
D
  3
ACAD_MATERIAL
350
E
  3
ACAD_MLEADERSTYLE
350
F
  3
ACAD_MLINESTYLE
350
10
  3
ACAD_PLOTSETTINGS
350
11
  3
ACAD_PLOTSTYLENAME
350
12
  3
ACAD_SCALELIST
350
14
  3
ACAD_TABLESTYLE
350
15
  3
ACAD_VISUALSTYLE
350
16
  3
EZDXF_META
350
2D
  0
DICTIONARY
  5
B
330
A
100
AcDbDictionary
281
1
  0
DICTIONARY
  5
C
330
A
100
AcDbDictionary
281
1
  0
DICTIONARY
  5
D
330
A
100
AcDbDictionary
281
1
  3
Model
350
1A
  3
Arkusz PT-IS-15
350
1E
  0
DICTIONARY
  5
E
330
A
100
AcDbDictionary
281
1
  3
ByBlock
350
1F
  3
ByLayer
350
20
  3
Global
350
21
  0
DICTIONARY
  5
F
330
A
100
AcDbDictionary
281
1
  3
Standard
350
2C
  0
DICTIONARY
  5
10
330
A
100
AcDbDictionary
281
1
  3
Standard
350
22
  0
DICTIONARY
  5
11
330
A
100
AcDbDictionary
281
1
  0
ACDBDICTIONARYWDFLT
  5
12
330
A
100
AcDbDictionary
281
1
  3
Normal
350
13
100
AcDbDictionaryWithDefault
340
13
  0
ACDBPLACEHOLDER
  5
13
330
12
  0
DICTIONARY
  5
14
330
A
100
AcDbDictionary
281
1
  0
DICTIONARY
  5
15
330
A
100
AcDbDictionary
281
1
  0
DICTIONARY
  5
16
330
A
100
AcDbDictionary
281
1
  0
LAYOUT
  5
1A
330
D
100
AcDbPlotSettings
  1

  4
A3
  6

 40
7.5
 41
20.0
 42
7.5
 43
20.0
 44
420.0
 45
297.0
 46
0.0
 47
0.0
 48
0.0
 49
0.0
140
0.0
141
0.0
142
1.0
143
1.0
 70
1024
 72
1
 73
0
 74
5
  7

 75
16
 76
0
 77
2
 78
300
147
1.0
148
0.0
149
0.0
100
AcDbLayout
  1
Model
 70
1
 71
0
 10
0.0
 20
0.0
 11
420.0
 21
297.0
 12
0.0
 22
0.0
 32
0.0
 14
1e+20
 24
1e+20
 34
1e+20
 15
-1e+20
 25
-1e+20
 35
-1e+20
146
0.0
 13
0.0
 23
0.0
 33
0.0
 16
1.0
 26
0.0
 36
0.0
 17
0.0
 27
1.0
 37
0.0
 76
1
330
17
  0
LAYOUT
  5
1E
330
D
100
AcDbPlotSettings
  1

  2
DWG to PDF.pc3
  4
LAMELA_(891.00_x_420.00_MM)
  6

 40
0.0
 41
0.0
 42
0.0
 43
0.0
 44
891.0
 45
420.0
 46
0.0
 47
0.0
 48
0.0
 49
0.0
140
0.0
141
0.0
142
1.0
143
1.0
 70
672
 72
1
 73
0
 74
5
  7

 75
16
 76
0
 77
2
 78
300
147
1.0
148
0.0
149
0.0
100
AcDbLayout
  1
Arkusz PT-IS-15
 70
1
 71
1
 10
-0.0
 20
-0.0
 11
891.0
 21
420.0
 12
0.0
 22
0.0
 32
0.0
 14
1e+20
 24
1e+20
 34
1e+20
 15
-1e+20
 25
-1e+20
 35
-1e+20
146
0.0
 13
0.0
 23
0.0
 33
0.0
 16
1.0
 26
0.0
 36
0.0
 17
0.0
 27
1.0
 37
0.0
 76
1
330
1B
331
A4
  0
MATERIAL
  5
1F
102
{ACAD_REACTORS
330
E
102
}
330
E
100
AcDbMaterial
  1
ByBlock
  2

 70
0
 40
1.0
 71
1
 41
1.0
 91
-1023410177
 42
1.0
 72
1
  3

 73
1
 74
1
 75
1
 44
0.5
 73
0
 45
1.0
 46
1.0
 77
1
  4

 78
1
 79
1
170
1
 48
1.0
171
1
  6

172
1
173
1
174
1
140
1.0
141
1.0
175
1
  7

176
1
177
1
178
1
143
1.0
179
1
  8

270
1
271
1
272
1
145
1.0
146
1.0
273
1
  9

274
1
275
1
276
1
 42
1.0
 72
1
  3

 73
1
 74
1
 75
1
 94
63
  0
MATERIAL
  5
20
102
{ACAD_REACTORS
330
E
102
}
330
E
100
AcDbMaterial
  1
ByLayer
  2

 70
0
 40
1.0
 71
1
 41
1.0
 91
-1023410177
 42
1.0
 72
1
  3

 73
1
 74
1
 75
1
 44
0.5
 73
0
 45
1.0
 46
1.0
 77
1
  4

 78
1
 79
1
170
1
 48
1.0
171
1
  6

172
1
173
1
174
1
140
1.0
141
1.0
175
1
  7

176
1
177
1
178
1
143
1.0
179
1
  8

270
1
271
1
272
1
145
1.0
146
1.0
273
1
  9

274
1
275
1
276
1
 42
1.0
 72
1
  3

 73
1
 74
1
 75
1
 94
63
  0
MATERIAL
  5
21
102
{ACAD_REACTORS
330
E
102
}
330
E
100
AcDbMaterial
  1
Global
  2

 70
0
 40
1.0
 71
1
 41
1.0
 91
-1023410177
 42
1.0
 72
1
  3

 73
1
 74
1
 75
1
 44
0.5
 73
0
 45
1.0
 46
1.0
 77
1
  4

 78
1
 79
1
170
1
 48
1.0
171
1
  6

172
1
173
1
174
1
140
1.0
141
1.0
175
1
  7

176
1
177
1
178
1
143
1.0
179
1
  8

270
1
271
1
272
1
145
1.0
146
1.0
273
1
  9

274
1
275
1
276
1
 42
1.0
 72
1
  3

 73
1
 74
1
 75
1
 94
63
  0
MLINESTYLE
  5
22
102
{ACAD_REACTORS
330
10
102
}
330
10
100
AcDbMlineStyle
  2
Standard
 70
0
  3

 62
256
 51
90.0
 52
90.0
 71
2
 49
0.5
 62
256
  6
BYLAYER
 49
-0.5
 62
256
  6
BYLAYER
  0
MLEADERSTYLE
  5
2C
102
{ACAD_REACTORS
330
F
102
}
330
F
100
AcDbMLeaderStyle
179
2
170
2
171
1
172
0
 90
2
 40
0.0
 41
0.0
173
1
 91
-1056964608
 92
-2
290
1
 42
2.0
291
1
 43
8.0
  3
Standard
 44
4.0
300

342
29
174
1
175
1
176
0
178
1
 93
-1056964608
 45
4.0
292
0
297
0
 46
4.0
 94
-1056964608
 47
1.0
 49
1.0
140
1.0
294
1
141
0.0
177
0
142
1.0
295
0
296
0
143
3.75
271
0
272
9
273
9
  0
DICTIONARY
  5
2D
330
A
100
AcDbDictionary
280
1
281
1
  3
CREATED_BY_EZDXF
350
2E
  3
WRITTEN_BY_EZDXF
350
281
  0
DICTIONARYVAR
  5
2E
330
2D
100
DictionaryVariables
280
0
  1
1.4.4 @ 2026-09-25T05:17:26.745315+00:00
  0
DICTIONARYVAR
  5
281
330
2D
100
DictionaryVariables
280
0
  1
1.4.4 @ 2026-09-25T05:17:26.791108+00:00
  0
ENDSEC
  0
EOF
