  0
SECTION
  2
HEADER
  9
$ACADVER
  1
AC1032
  9
$ACADMAINTVER
 90
4
  9
$DWGCODEPAGE
  3
ANSI_1252
  9
$LASTSAVEDBY
  1
ezdxf
  9
$REQUIREDVERSIONS
160
0
  9
$INSBASE
 10
0.0
 20
0.0
 30
0.0
  9
$EXTMIN
 10
1e+20
 20
1e+20
 30
1e+20
  9
$EXTMAX
 10
-1e+20
 20
-1e+20
 30
-1e+20
  9
$LIMMIN
 10
0.0
 20
0.0
  9
$LIMMAX
 10
420.0
 20
297.0
  9
$ORTHOMODE
 70
0
  9
$REGENMODE
 70
1
  9
$FILLMODE
 70
1
  9
$QTEXTMODE
 70
0
  9
$MIRRTEXT
 70
1
  9
$LTSCALE
 40
1.0
  9
$ATTMODE
 70
1
  9
$TEXTSIZE
 40
2.5
  9
$TRACEWID
 40
1.0
  9
$TEXTSTYLE
  7
Standard
  9
$CLAYER
  8
0
  9
$CELTYPE
  6
ByLayer
  9
$CECOLOR
 62
256
  9
$CELTSCALE
 40
1.0
  9
$DISPSILH
 70
0
  9
$DIMSCALE
 40
1.0
  9
$DIMASZ
 40
2.5
  9
$DIMEXO
 40
0.625
  9
$DIMDLI
 40
3.75
  9
$DIMRND
 40
0.0
  9
$DIMDLE
 40
0.0
  9
$DIMEXE
 40
1.25
  9
$DIMTP
 40
0.0
  9
$DIMTM
 40
0.0
  9
$DIMTXT
 40
2.5
  9
$DIMCEN
 40
2.5
  9
$DIMTSZ
 40
0.0
  9
$DIMTOL
 70
0
  9
$DIMLIM
 70
0
  9
$DIMTIH
 70
0
  9
$DIMTOH
 70
0
  9
$DIMSE1
 70
0
  9
$DIMSE2
 70
0
  9
$DIMTAD
 70
1
  9
$DIMZIN
 70
8
  9
$DIMBLK
  1

  9
$DIMASO
 70
1
  9
$DIMSHO
 70
1
  9
$DIMPOST
  1

  9
$DIMAPOST
  1

  9
$DIMALT
 70
0
  9
$DIMALTD
 70
3
  9
$DIMALTF
 40
0.03937007874
  9
$DIMLFAC
 40
1.0
  9
$DIMTOFL
 70
1
  9
$DIMTVP
 40
0.0
  9
$DIMTIX
 70
0
  9
$DIMSOXD
 70
0
  9
$DIMSAH
 70
0
  9
$DIMBLK1
  1

  9
$DIMBLK2
  1

  9
$DIMSTYLE
  2
ISO-25
  9
$DIMCLRD
 70
0
  9
$DIMCLRE
 70
0
  9
$DIMCLRT
 70
0
  9
$DIMTFAC
 40
1.0
  9
$DIMGAP
 40
0.625
  9
$DIMJUST
 70
0
  9
$DIMSD1
 70
0
  9
$DIMSD2
 70
0
  9
$DIMTOLJ
 70
0
  9
$DIMTZIN
 70
8
  9
$DIMALTZ
 70
0
  9
$DIMALTTZ
 70
0
  9
$DIMUPT
 70
0
  9
$DIMDEC
 70
2
  9
$DIMTDEC
 70
2
  9
$DIMALTU
 70
2
  9
$DIMALTTD
 70
3
  9
$DIMTXSTY
  7
Standard
  9
$DIMAUNIT
 70
0
  9
$DIMADEC
 70
0
  9
$DIMALTRND
 40
0.0
  9
$DIMAZIN
 70
0
  9
$DIMDSEP
 70
44
  9
$DIMATFIT
 70
3
  9
$DIMFRAC
 70
0
  9
$DIMLDRBLK
  1

  9
$DIMLUNIT
 70
2
  9
$DIMLWD
 70
-2
  9
$DIMLWE
 70
-2
  9
$DIMTMOVE
 70
0
  9
$DIMFXL
 40
1.0
  9
$DIMFXLON
 70
0
  9
$DIMJOGANG
 40
0.785398163397
  9
$DIMTFILL
 70
0
  9
$DIMTFILLCLR
 70
0
  9
$DIMARCSYM
 70
0
  9
$DIMLTYPE
  6

  9
$DIMLTEX1
  6

  9
$DIMLTEX2
  6

  9
$DIMTXTDIRECTION
 70
0
  9
$LUNITS
 70
2
  9
$LUPREC
 70
4
  9
$SKETCHINC
 40
1.0
  9
$FILLETRAD
 40
10.0
  9
$AUNITS
 70
0
  9
$AUPREC
 70
2
  9
$MENU
  1
.
  9
$ELEVATION
 40
0.0
  9
$PELEVATION
 40
0.0
  9
$THICKNESS
 40
0.0
  9
$LIMCHECK
 70
0
  9
$CHAMFERA
 40
0.0
  9
$CHAMFERB
 40
0.0
  9
$CHAMFERC
 40
0.0
  9
$CHAMFERD
 40
0.0
  9
$SKPOLY
 70
0
  9
$TDCREATE
 40
2461309.220486111
  9
$TDUCREATE
 40
2458532.153996898
  9
$TDUPDATE
 40
2461309.220486111
  9
$TDUUPDATE
 40
2458532.1544311
  9
$TDINDWG
 40
0.0
  9
$TDUSRTIMER
 40
0.0
  9
$USRTIMER
 70
1
  9
$ANGBASE
 50
0.0
  9
$ANGDIR
 70
0
  9
$PDMODE
 70
0
  9
$PDSIZE
 40
0.0
  9
$PLINEWID
 40
0.0
  9
$SPLFRAME
 70
0
  9
$SPLINETYPE
 70
6
  9
$SPLINESEGS
 70
8
  9
$HANDSEED
  5
22B
  9
$SURFTAB1
 70
6
  9
$SURFTAB2
 70
6
  9
$SURFTYPE
 70
6
  9
$SURFU
 70
6
  9
$SURFV
 70
6
  9
$UCSBASE
  2

  9
$UCSNAME
  2

  9
$UCSORG
 10
0.0
 20
0.0
 30
0.0
  9
$UCSXDIR
 10
1.0
 20
0.0
 30
0.0
  9
$UCSYDIR
 10
0.0
 20
1.0
 30
0.0
  9
$UCSORTHOREF
  2

  9
$UCSORTHOVIEW
 70
0
  9
$UCSORGTOP
 10
0.0
 20
0.0
 30
0.0
  9
$UCSORGBOTTOM
 10
0.0
 20
0.0
 30
0.0
  9
$UCSORGLEFT
 10
0.0
 20
0.0
 30
0.0
  9
$UCSORGRIGHT
 10
0.0
 20
0.0
 30
0.0
  9
$UCSORGFRONT
 10
0.0
 20
0.0
 30
0.0
  9
$UCSORGBACK
 10
0.0
 20
0.0
 30
0.0
  9
$PUCSBASE
  2

  9
$PUCSNAME
  2

  9
$PUCSORG
 10
0.0
 20
0.0
 30
0.0
  9
$PUCSXDIR
 10
1.0
 20
0.0
 30
0.0
  9
$PUCSYDIR
 10
0.0
 20
1.0
 30
0.0
  9
$PUCSORTHOREF
  2

  9
$PUCSORTHOVIEW
 70
0
  9
$PUCSORGTOP
 10
0.0
 20
0.0
 30
0.0
  9
$PUCSORGBOTTOM
 10
0.0
 20
0.0
 30
0.0
  9
$PUCSORGLEFT
 10
0.0
 20
0.0
 30
0.0
  9
$PUCSORGRIGHT
 10
0.0
 20
0.0
 30
0.0
  9
$PUCSORGFRONT
 10
0.0
 20
0.0
 30
0.0
  9
$PUCSORGBACK
 10
0.0
 20
0.0
 30
0.0
  9
$USERI1
 70
0
  9
$USERI2
 70
0
  9
$USERI3
 70
0
  9
$USERI4
 70
0
  9
$USERI5
 70
0
  9
$USERR1
 40
0.0
  9
$USERR2
 40
0.0
  9
$USERR3
 40
0.0
  9
$USERR4
 40
0.0
  9
$USERR5
 40
0.0
  9
$WORLDVIEW
 70
1
  9
$SHADEDGE
 70
3
  9
$SHADEDIF
 70
70
  9
$TILEMODE
 70
1
  9
$MAXACTVP
 70
64
  9
$PINSBASE
 10
0.0
 20
0.0
 30
0.0
  9
$PLIMCHECK
 70
0
  9
$PEXTMIN
 10
1e+20
 20
1e+20
 30
1e+20
  9
$PEXTMAX
 10
-1e+20
 20
-1e+20
 30
-1e+20
  9
$PLIMMIN
 10
-0.0
 20
-0.0
  9
$PLIMMAX
 10
891.0
 20
420.0
  9
$UNITMODE
 70
0
  9
$VISRETAIN
 70
1
  9
$PLINEGEN
 70
0
  9
$PSLTSCALE
 70
0
  9
$TREEDEPTH
 70
3020
  9
$CMLSTYLE
  2
Standard
  9
$CMLJUST
 70
0
  9
$CMLSCALE
 40
20.0
  9
$PROXYGRAPHICS
 70
1
  9
$MEASUREMENT
 70
1
  9
$CELWEIGHT
370
-1
  9
$ENDCAPS
280
0
  9
$JOINSTYLE
280
0
  9
$LWDISPLAY
290
1
  9
$INSUNITS
 70
6
  9
$HYPERLINKBASE
  1

  9
$STYLESHEET
  1

  9
$XEDIT
290
1
  9
$CEPSNTYPE
380
0
  9
$PSTYLEMODE
290
1
  9
$FINGERPRINTGUID
  2
{B537F2DA-6503-46A0-90DD-619AA37B659E}
  9
$VERSIONGUID
  2
{6DE773FD-817B-4B6A-9444-3A71F57B94D3}
  9
$EXTNAMES
290
1
  9
$PSVPSCALE
 40
0.0
  9
$OLESTARTUP
290
0
  9
$SORTENTS
280
127
  9
$INDEXCTL
280
0
  9
$HIDETEXT
280
1
  9
$XCLIPFRAME
280
1
  9
$HALOGAP
280
0
  9
$OBSCOLOR
 70
257
  9
$OBSLTYPE
280
0
  9
$INTERSECTIONDISPLAY
280
0
  9
$INTERSECTIONCOLOR
 70
257
  9
$DIMASSOC
280
2
  9
$PROJECTNAME
  1

  9
$CAMERADISPLAY
290
0
  9
$LENSLENGTH
 40
50.0
  9
$CAMERAHEIGHT
 40
0.0
  9
$STEPSPERSEC
 40
24.0
  9
$STEPSIZE
 40
100.0
  9
$3DDWFPREC
 40
2.0
  9
$PSOLWIDTH
 40
0.005
  9
$PSOLHEIGHT
 40
0.08
  9
$LOFTANG1
 40
1.570796326795
  9
$LOFTANG2
 40
1.570796326795
  9
$LOFTMAG1
 40
0.0
  9
$LOFTMAG2
 40
0.0
  9
$LOFTPARAM
 70
7
  9
$LOFTNORMALS
280
1
  9
$LATITUDE
 40
37.795
  9
$LONGITUDE
 40
-122.394
  9
$NORTHDIRECTION
 40
0.0
  9
$TIMEZONE
 70
-8000
  9
$LIGHTGLYPHDISPLAY
280
1
  9
$TILEMODELIGHTSYNCH
280
1
  9
$CMATERIAL
347
20
  9
$SOLIDHIST
280
0
  9
$SHOWHIST
280
1
  9
$DWFFRAME
280
2
  9
$DGNFRAME
280
2
  9
$REALWORLDSCALE
290
1
  9
$INTERFERECOLOR
 62
256
  9
$CSHADOW
280
0
  9
$SHADOWPLANELOCATION
 40
0.0
  0
ENDSEC
  0
SECTION
  2
CLASSES
  0
CLASS
  1
ACDBDICTIONARYWDFLT
  2
AcDbDictionaryWithDefault
  3
ObjectDBX Classes
 90
0
 91
0
280
0
281
0
  0
CLASS
  1
SUN
  2
AcDbSun
  3
SCENEOE
 90
1153
 91
0
280
0
281
0
  0
CLASS
  1
VISUALSTYLE
  2
AcDbVisualStyle
  3
ObjectDBX Classes
 90
4095
 91
0
280
0
281
0
  0
CLASS
  1
MATERIAL
  2
AcDbMaterial
  3
ObjectDBX Classes
 90
1153
 91
0
280
0
281
0
  0
CLASS
  1
SCALE
  2
AcDbScale
  3
ObjectDBX Classes
 90
1153
 91
0
280
0
281
0
  0
CLASS
  1
TABLESTYLE
  2
AcDbTableStyle
  3
ObjectDBX Classes
 90
4095
 91
0
280
0
281
0
  0
CLASS
  1
MLEADERSTYLE
  2
AcDbMLeaderStyle
  3
ACDB_MLEADERSTYLE_CLASS
 90
4095
 91
0
280
0
281
0
  0
CLASS
  1
DICTIONARYVAR
  2
AcDbDictionaryVar
  3
ObjectDBX Classes
 90
0
 91
0
280
0
281
0
  0
CLASS
  1
CELLSTYLEMAP
  2
AcDbCellStyleMap
  3
ObjectDBX Classes
 90
1152
 91
0
280
0
281
0
  0
CLASS
  1
MENTALRAYRENDERSETTINGS
  2
AcDbMentalRayRenderSettings
  3
SCENEOE
 90
1024
 91
0
280
0
281
0
  0
CLASS
  1
ACDBDETAILVIEWSTYLE
  2
AcDbDetailViewStyle
  3
ObjectDBX Classes
 90
1025
 91
0
280
0
281
0
  0
CLASS
  1
ACDBSECTIONVIEWSTYLE
  2
AcDbSectionViewStyle
  3
ObjectDBX Classes
 90
1025
 91
0
280
0
281
0
  0
CLASS
  1
RASTERVARIABLES
  2
AcDbRasterVariables
  3
ISM
 90
0
 91
0
280
0
281
0
  0
CLASS
  1
ACDBPLACEHOLDER
  2
AcDbPlaceHolder
  3
ObjectDBX Classes
 90
0
 91
0
280
0
281
0
  0
CLASS
  1
LAYOUT
  2
AcDbLayout
  3
ObjectDBX Classes
 90
0
 91
0
280
0
281
0
  0
ENDSEC
  0
SECTION
  2
TABLES
  0
TABLE
  2
VPORT
  5
8
330
0
100
AcDbSymbolTable
 70
1
  0
VPORT
  5
23
330
8
100
AcDbSymbolTableRecord
100
AcDbViewportTableRecord
  2
*Active
 70
0
 10
0.0
 20
0.0
 11
1.0
 21
1.0
 12
0.0
 22
0.0
 13
0.0
 23
0.0
 14
0.5
 24
0.5
 15
0.5
 25
0.5
 16
0.0
 26
0.0
 36
1.0
 17
0.0
 27
0.0
 37
0.0
 40
1000.0
 41
1.34
 42
50.0
 43
0.0
 44
0.0
 50
0.0
 51
0.0
 71
0
 72
1000
 73
1
 74
3
 75
0
 76
0
 77
0
 78
0
281
0
 65
0
146
0.0
  0
ENDTAB
  0
TABLE
  2
LTYPE
  5
2
330
0
100
AcDbSymbolTable
 70
14
  0
LTYPE
  5
24
330
2
100
AcDbSymbolTableRecord
100
AcDbLinetypeTableRecord
  2
ByBlock
 70
0
  3

 72
65
 73
0
 40
0.0
  0
LTYPE
  5
25
330
2
100
AcDbSymbolTableRecord
100
AcDbLinetypeTableRecord
  2
ByLayer
 70
0
  3

 72
65
 73
0
 40
0.0
  0
LTYPE
  5
26
330
2
100
AcDbSymbolTableRecord
100
AcDbLinetypeTableRecord
  2
Continuous
 70
0
  3

 72
65
 73
0
 40
0.0
  0
LTYPE
  5
2F
330
2
100
AcDbSymbolTableRecord
100
AcDbLinetypeTableRecord
  2
KRESKOWA
 70
0
  3
Linia kreskowa (02): krawędzie niewidoczne, elementy pod/nad płaszczyzną cięcia
 72
65
 73
2
 40
5.249999999999999
 49
4.199999999999999
 74
0
 49
-1.0499999999999998
 74
0
  0
LTYPE
  5
30
330
2
100
AcDbSymbolTableRecord
100
AcDbLinetypeTableRecord
  2
KRESKOWA_DROBNA
 70
0
  3
Linia kreskowa drobna (kreska krótka 6d)
 72
65
 73
2
 40
3.1499999999999995
 49
2.0999999999999996
 74
0
 49
-1.0499999999999998
 74
0
  0
LTYPE
  5
31
330
2
100
AcDbSymbolTableRecord
100
AcDbLinetypeTableRecord
  2
PUNKTOWA
 70
0
  3
Linia punktowa (04): osie, płaszczyzny przekroju
 72
65
 73
4
 40
10.5
 49
8.399999999999999
 74
0
 49
-1.0499999999999998
 74
0
 49
0.0
 74
0
 49
-1.0499999999999998
 74
0
  0
LTYPE
  5
32
330
2
100
AcDbSymbolTableRecord
100
AcDbLinetypeTableRecord
  2
PUNKTOWA_KROTKA
 70
0
  3
Linia punktowa z kreską zwykłą (końce przekrojów, gaz)
 72
65
 73
4
 40
6.299999999999999
 49
4.199999999999999
 74
0
 49
-1.0499999999999998
 74
0
 49
0.0
 74
0
 49
-1.0499999999999998
 74
0
  0
LTYPE
  5
33
330
2
100
AcDbSymbolTableRecord
100
AcDbLinetypeTableRecord
  2
DWUPUNKTOWA
 70
0
  3
Linia dwupunktowa (05): położenia skrajne, części przyległe
 72
65
 73
6
 40
11.55
 49
8.399999999999999
 74
0
 49
-1.0499999999999998
 74
0
 49
0.0
 74
0
 49
-1.0499999999999998
 74
0
 49
0.0
 74
0
 49
-1.0499999999999998
 74
0
  0
LTYPE
  5
34
330
2
100
AcDbSymbolTableRecord
100
AcDbLinetypeTableRecord
  2
KROPKOWA
 70
0
  3
Linia kropkowa (07): elementy nieobjęte projektem
 72
65
 73
2
 40
1.0499999999999998
 49
0.0
 74
0
 49
-1.0499999999999998
 74
0
  0
LTYPE
  5
35
330
2
100
AcDbSymbolTableRecord
100
AcDbLinetypeTableRecord
  2
KRESKA_DLUGA
 70
0
  3
Linia kreskowa długa (instalacje)
 72
65
 73
2
 40
9.45
 49
8.399999999999999
 74
0
 49
-1.0499999999999998
 74
0
  0
LTYPE
  5
36
330
2
100
AcDbSymbolTableRecord
100
AcDbLinetypeTableRecord
  2
KRESKOWA_3_1
 70
0
  3
Linia kreskowa 3/1 mm (paroizolacja, R4 pkt 3.8)
 72
65
 73
2
 40
4.0
 49
3.0
 74
0
 49
-1.0
 74
0
  0
LTYPE
  5
37
330
2
100
AcDbSymbolTableRecord
100
AcDbLinetypeTableRecord
  2
HYDRO_OKNA
 70
0
  3
Białe okna pasa izolacji przeciwwodnej (czarny 3 / biały 1,5 mm)
 72
65
 73
2
 40
4.5
 49
1.5
 74
0
 49
-3.0
 74
0
  0
LTYPE
  5
38
330
2
100
AcDbSymbolTableRecord
100
AcDbLinetypeTableRecord
  2
WIELOPUNKTOWA
 70
0
  3
Linia wielopunktowa (telekomunikacja, PN-B-01027)
 72
65
 73
8
 40
13.399999999999999
 49
9.0
 74
0
 49
-1.2
 74
0
 49
0.0
 74
0
 49
-1.0
 74
0
 49
0.0
 74
0
 49
-1.0
 74
0
 49
0.0
 74
0
 49
-1.2
 74
0
  0
LTYPE
  5
39
330
2
100
AcDbSymbolTableRecord
100
AcDbLinetypeTableRecord
  2
KABEL_E
 70
0
  3
Kabel elektroenergetyczny (PN-B-01027: kreskowa 2·9·2)
 72
65
 73
2
 40
11.0
 49
9.0
 74
0
 49
-2.0
 74
0
  0
ENDTAB
  0
TABLE
  2
LAYER
  5
1
330
0
100
AcDbSymbolTable
 70
103
  0
LAYER
  5
27
330
1
100
AcDbSymbolTableRecord
100
AcDbLayerTableRecord
  2
0
 70
0
 62
7
  6
Continuous
370
-3
390
13
347
21
  0
LAYER
  5
28
330
1
100
AcDbSymbolTableRecord
100
AcDbLayerTableRecord
  2
Defpoints
 70
0
 62
7
  6
Continuous
290
0
370
-3
390
13
347
21
  0
LAYER
  5
3E
330
1
100
AcDbSymbolTableRecord
100
AcDbLayerTableRecord
  2
R-RAMKA
 70
0
 62
7
  6
Continuous
370
50
390
13
347
21
1001
AcAecLayerStandard
1000

1000
Ramka arkusza, znaki składania i centrowania
  0
LAYER
  5
40
330
1
100
AcDbSymbolTableRecord
100
AcDbLayerTableRecord
  2
R-TABLICZKA
 70
0
 62
7
  6
Continuous
370
25
390
13
347
21
1001
AcAecLayerStandard
1000

1000
Tabliczka rysunkowa (PN-EN ISO 7200)
  0
LAYER
  5
41
330
1
100
AcDbSymbolTableRecord
100
AcDbLayerTableRecord
  2
R-OPISY
 70
0
 62
7
  6
Continuous
370
25
390
13
347
21
1001
AcAecLayerStandard
1000

1000
Opisy arkusza: tytuły rzutni, uwagi, legendy
  0
LAYER
  5
42
330
1
100
AcDbSymbolTableRecord
100
AcDbLayerTableRecord
  2
R-LEGENDA
 70
0
 62
7
  6
Continuous
370
25
390
13
347
21
1001
AcAecLayerStandard
1000

1000
Legenda oznaczeń
  0
LAYER
  5
43
330
1
100
AcDbSymbolTableRecord
100
AcDbLayerTableRecord
  2
R-RZUTNIA
 70
0
 62
8
  6
Continuous
290
0
370
18
390
13
347
21
1001
AcAecLayerStandard
1000

1000
Obrys rzutni (nie drukowany)
  0
LAYER
  5
44
330
1
100
AcDbSymbolTableRecord
100
AcDbLayerTableRecord
  2
A-SCIANY-KONSTR
 70
0
 62
7
  6
Continuous
370
50
390
13
347
21
1001
AcAecLayerStandard
1000

1000
Ściany i słupy konstrukcyjne w przekroju — kontur
  0
LAYER
  5
45
330
1
100
AcDbSymbolTableRecord
100
AcDbLayerTableRecord
  2
A-SCIANY-DZIAL
 70
0
 62
7
  6
Continuous
370
35
390
13
347
21
1001
AcAecLayerStandard
1000

1000
Ścianki działowe w przekroju — kontur
  0
LAYER
  5
46
330
1
100
AcDbSymbolTableRecord
100
AcDbLayerTableRecord
  2
A-SCIANY-IZOL
 70
0
 62
4
  6
Continuous
370
35
390
13
347
21
1001
AcAecLayerStandard
1000

1000
Warstwy izolacji termicznej ścian — kontur
  0
LAYER
  5
47
330
1
100
AcDbSymbolTableRecord
100
AcDbLayerTableRecord
  2
A-SCIANY-WYK
 70
0
 62
8
  6
Continuous
370
18
390
13
347
21
1001
AcAecLayerStandard
1000

1000
Tynki, okładziny, warstwy wykończeniowe — kontur
  0
LAYER
  5
48
330
1
100
AcDbSymbolTableRecord
100
AcDbLayerTableRecord
  2
A-STROPY
 70
0
 62
7
  6
Continuous
370
50
390
13
347
21
1001
AcAecLayerStandard
1000

1000
Stropy, płyty, stropodachy w przekroju — kontur
  0
LAYER
  5
49
330
1
100
AcDbSymbolTableRecord
100
AcDbLayerTableRecord
  2
A-WARSTWY
 70
0
 62
8
  6
Continuous
370
25
390
13
347
21
1001
AcAecLayerStandard
1000

1000
Warstwy przegród poziomych (podłogi, dachy) — kontur
  0
LAYER
  5
4A
330
1
100
AcDbSymbolTableRecord
100
AcDbLayerTableRecord
  2
A-IZOL-WODNA
 70
0
 62
5
  6
Continuous
370
100
390
13
347
21
1001
AcAecLayerStandard
1000

1000
Izolacje przeciwwodne/przeciwwilgociowe/paroizolacje
  0
LAYER
  5
4B
330
1
100
AcDbSymbolTableRecord
100
AcDbLayerTableRecord
  2
A-FUNDAMENTY
 70
0
 62
7
  6
Continuous
370
50
390
13
347
21
1001
AcAecLayerStandard
1000

1000
Fundamenty w przekroju — kontur
  0
LAYER
  5
4C
330
1
100
AcDbSymbolTableRecord
100
AcDbLayerTableRecord
  2
A-KRESKOWANIE
 70
0
 62
8
  6
Continuous
370
18
390
13
347
21
1001
AcAecLayerStandard
1000

1000
Kreskowanie materiałów (PN-B-01030)
  0
LAYER
  5
4D
330
1
100
AcDbSymbolTableRecord
100
AcDbLayerTableRecord
  2
A-WYPELNIENIA
 70
0
 62
9
  6
Continuous
370
18
390
13
347
21
1001
AcAecLayerStandard
1000

1000
Wypełnienia (zaczernienia, tła)
  0
LAYER
  5
4E
330
1
100
AcDbSymbolTableRecord
100
AcDbLayerTableRecord
  2
A-WIDOK
 70
0
 62
7
  6
Continuous
370
25
390
13
347
21
1001
AcAecLayerStandard
1000

1000
Krawędzie widoczne (poza płaszczyzną cięcia)
  0
LAYER
  5
4F
330
1
100
AcDbSymbolTableRecord
100
AcDbLayerTableRecord
  2
A-NIEWIDOCZNE
 70
0
 62
8
  6
KRESKOWA
370
25
390
13
347
21
1001
AcAecLayerStandard
1000

1000
Krawędzie niewidoczne
  0
LAYER
  5
50
330
1
100
AcDbSymbolTableRecord
100
AcDbLayerTableRecord
  2
A-NAD-CIECIEM
 70
0
 62
8
  6
KRESKOWA
370
25
390
13
347
21
1001
AcAecLayerStandard
1000

1000
Elementy nad płaszczyzną cięcia (belki, nadproża, okapy)
  0
LAYER
  5
51
330
1
100
AcDbSymbolTableRecord
100
AcDbLayerTableRecord
  2
A-OKNA
 70
0
 62
3
  6
Continuous
370
35
390
13
347
21
1001
AcAecLayerStandard
1000

1000
Stolarka okienna
  0
LAYER
  5
52
330
1
100
AcDbSymbolTableRecord
100
AcDbLayerTableRecord
  2
A-DRZWI
 70
0
 62
3
  6
Continuous
370
35
390
13
347
21
1001
AcAecLayerStandard
1000

1000
Stolarka drzwiowa
  0
LAYER
  5
53
330
1
100
AcDbSymbolTableRecord
100
AcDbLayerTableRecord
  2
A-SCHODY
 70
0
 62
6
  6
Continuous
370
25
390
13
347
21
1001
AcAecLayerStandard
1000

1000
Schody, pochylnie, balustrady
  0
LAYER
  5
54
330
1
100
AcDbSymbolTableRecord
100
AcDbLayerTableRecord
  2
A-MEBLE
 70
0
 62
8
  6
Continuous
370
18
390
13
347
21
1001
AcAecLayerStandard
1000

1000
Meble i wyposażenie ruchome
  0
LAYER
  5
55
330
1
100
AcDbSymbolTableRecord
100
AcDbLayerTableRecord
  2
A-SANITARNE
 70
0
 62
6
  6
Continuous
370
25
390
13
347
21
1001
AcAecLayerStandard
1000

1000
Wyposażenie sanitarne i kuchenne
  0
LAYER
  5
56
330
1
100
AcDbSymbolTableRecord
100
AcDbLayerTableRecord
  2
A-WYMIARY
 70
0
 62
1
  6
Continuous
370
25
390
13
347
21
1001
AcAecLayerStandard
1000

1000
Wymiarowanie (PN-B-01029)
  0
LAYER
  5
57
330
1
100
AcDbSymbolTableRecord
100
AcDbLayerTableRecord
  2
A-OPISY
 70
0
 62
2
  6
Continuous
370
25
390
13
347
21
1001
AcAecLayerStandard
1000

1000
Opisy, odnośniki, opisy warstw
  0
LAYER
  5
58
330
1
100
AcDbSymbolTableRecord
100
AcDbLayerTableRecord
  2
A-POMIESZCZENIA
 70
0
 62
2
  6
Continuous
370
25
390
13
347
21
1001
AcAecLayerStandard
1000

1000
Oznaczenia pomieszczeń (PN-EN ISO 4157)
  0
LAYER
  5
59
330
1
100
AcDbSymbolTableRecord
100
AcDbLayerTableRecord
  2
A-OSIE
 70
0
 62
1
  6
PUNKTOWA
370
25
390
13
347
21
1001
AcAecLayerStandard
1000

1000
Osie konstrukcyjne
  0
LAYER
  5
5A
330
1
100
AcDbSymbolTableRecord
100
AcDbLayerTableRecord
  2
A-RZEDNE
 70
0
 62
1
  6
Continuous
370
25
390
13
347
21
1001
AcAecLayerStandard
1000

1000
Rzędne wysokościowe
  0
LAYER
  5
5B
330
1
100
AcDbSymbolTableRecord
100
AcDbLayerTableRecord
  2
A-PRZEKROJE
 70
0
 62
1
  6
PUNKTOWA_KROTKA
370
50
390
13
347
21
1001
AcAecLayerStandard
1000

1000
Oznaczenia przekrojów i widoków
  0
LAYER
  5
5C
330
1
100
AcDbSymbolTableRecord
100
AcDbLayerTableRecord
  2
A-SYMBOLE
 70
0
 62
2
  6
Continuous
370
25
390
13
347
21
1001
AcAecLayerStandard
1000

1000
Symbole ogólne (północ, spadki, odnośniki)
  0
LAYER
  5
5D
330
1
100
AcDbSymbolTableRecord
100
AcDbLayerTableRecord
  2
A-TEREN
 70
0
 62
32
  6
Continuous
370
50
390
13
347
21
1001
AcAecLayerStandard
1000

1000
Linia terenu, grunt
  0
LAYER
  5
5E
330
1
100
AcDbSymbolTableRecord
100
AcDbLayerTableRecord
  2
A-ELEWACJE
 70
0
 62
7
  6
Continuous
370
35
390
13
347
21
1001
AcAecLayerStandard
1000

1000
Elewacje — krawędzie
  0
LAYER
  5
5F
330
1
100
AcDbSymbolTableRecord
100
AcDbLayerTableRecord
  2
A-MASKA
 70
0
 62
7
  6
Continuous
370
18
390
13
347
21
1001
AcAecLayerStandard
1000

1000
Maski (tło napisów)
  0
LAYER
  5
60
330
1
100
AcDbSymbolTableRecord
100
AcDbLayerTableRecord
  2
K-KONSTR
 70
0
 62
7
  6
Continuous
370
50
390
13
347
21
1001
AcAecLayerStandard
1000

1000
Konstrukcja — kontury elementów
  0
LAYER
  5
61
330
1
100
AcDbSymbolTableRecord
100
AcDbLayerTableRecord
  2
K-ZBROJENIE
 70
0
 62
1
  6
Continuous
370
100
390
13
347
21
1001
AcAecLayerStandard
1000

1000
Zbrojenie — pręty (PN-EN ISO 3766)
  0
LAYER
  5
62
330
1
100
AcDbSymbolTableRecord
100
AcDbLayerTableRecord
  2
K-ZBROJENIE-OPIS
 70
0
 62
2
  6
Continuous
370
25
390
13
347
21
1001
AcAecLayerStandard
1000

1000
Zbrojenie — opisy pozycji
  0
LAYER
  5
63
330
1
100
AcDbSymbolTableRecord
100
AcDbLayerTableRecord
  2
K-WYMIARY
 70
0
 62
1
  6
Continuous
370
25
390
13
347
21
1001
AcAecLayerStandard
1000

1000
Konstrukcja — wymiary
  0
LAYER
  5
64
330
1
100
AcDbSymbolTableRecord
100
AcDbLayerTableRecord
  2
K-OSIE
 70
0
 62
1
  6
PUNKTOWA
370
25
390
13
347
21
1001
AcAecLayerStandard
1000

1000
Konstrukcja — osie
  0
LAYER
  5
65
330
1
100
AcDbSymbolTableRecord
100
AcDbLayerTableRecord
  2
S-WODA
 70
0
 62
5
420
20680
  6
Continuous
370
35
390
13
347
21
1001
AcAecLayerStandard
1000

1000
Instalacja wody zimnej
  0
LAYER
  5
66
330
1
100
AcDbSymbolTableRecord
100
AcDbLayerTableRecord
  2
S-CWU
 70
0
 62
1
420
13631488
  6
KRESKOWA
370
35
390
13
347
21
1001
AcAecLayerStandard
1000

1000
Instalacja ciepłej wody użytkowej
  0
LAYER
  5
67
330
1
100
AcDbSymbolTableRecord
100
AcDbLayerTableRecord
  2
S-CYRK
 70
0
 62
6
420
11534512
  6
PUNKTOWA_KROTKA
370
25
390
13
347
21
1001
AcAecLayerStandard
1000

1000
Instalacja cyrkulacji CWU
  0
LAYER
  5
68
330
1
100
AcDbSymbolTableRecord
100
AcDbLayerTableRecord
  2
S-KANAL
 70
0
 62
34
420
8013056
  6
Continuous
370
50
390
13
347
21
1001
AcAecLayerStandard
1000

1000
Kanalizacja sanitarna
  0
LAYER
  5
69
330
1
100
AcDbSymbolTableRecord
100
AcDbLayerTableRecord
  2
S-DESZCZ
 70
0
 62
150
420
32906
  6
KRESKA_DLUGA
370
35
390
13
347
21
1001
AcAecLayerStandard
1000

1000
Kanalizacja deszczowa / odwodnienie
  0
LAYER
  5
6A
330
1
100
AcDbSymbolTableRecord
100
AcDbLayerTableRecord
  2
S-OGRZ
 70
0
 62
1
420
14700544
  6
Continuous
370
25
390
13
347
21
1001
AcAecLayerStandard
1000

1000
Ogrzewanie (zasilanie/powrót, pętle podłogowe)
  0
LAYER
  5
6B
330
1
100
AcDbSymbolTableRecord
100
AcDbLayerTableRecord
  2
S-WENT
 70
0
 62
3
420
35328
  6
Continuous
370
35
390
13
347
21
1001
AcAecLayerStandard
1000

1000
Wentylacja mechaniczna
  0
LAYER
  5
6C
330
1
100
AcDbSymbolTableRecord
100
AcDbLayerTableRecord
  2
S-URZADZENIA
 70
0
 62
2
420
3158064
  6
Continuous
370
35
390
13
347
21
1001
AcAecLayerStandard
1000

1000
Urządzenia i armatura instalacji sanitarnych
  0
LAYER
  5
6D
330
1
100
AcDbSymbolTableRecord
100
AcDbLayerTableRecord
  2
S-OPISY
 70
0
 62
2
  6
Continuous
370
25
390
13
347
21
1001
AcAecLayerStandard
1000

1000
Instalacje sanitarne — opisy
  0
LAYER
  5
6E
330
1
100
AcDbSymbolTableRecord
100
AcDbLayerTableRecord
  2
E-GNIAZDA
 70
0
 62
1
420
12582912
  6
Continuous
370
35
390
13
347
21
1001
AcAecLayerStandard
1000

1000
Gniazda wtyczkowe (PN-EN 60617)
  0
LAYER
  5
6F
330
1
100
AcDbSymbolTableRecord
100
AcDbLayerTableRecord
  2
E-OSWIETLENIE
 70
0
 62
30
420
13656064
  6
Continuous
370
35
390
13
347
21
1001
AcAecLayerStandard
1000

1000
Oprawy oświetleniowe
  0
LAYER
  5
70
330
1
100
AcDbSymbolTableRecord
100
AcDbLayerTableRecord
  2
E-LACZNIKI
 70
0
 62
30
420
13656064
  6
Continuous
370
35
390
13
347
21
1001
AcAecLayerStandard
1000

1000
Łączniki, czujniki
  0
LAYER
  5
71
330
1
100
AcDbSymbolTableRecord
100
AcDbLayerTableRecord
  2
E-TRASY
 70
0
 62
8
420
6316128
  6
Continuous
370
25
390
13
347
21
1001
AcAecLayerStandard
1000

1000
Trasy przewodów
  0
LAYER
  5
72
330
1
100
AcDbSymbolTableRecord
100
AcDbLayerTableRecord
  2
E-ROZDZIELNICE
 70
0
 62
1
420
12582912
  6
Continuous
370
35
390
13
347
21
1001
AcAecLayerStandard
1000

1000
Rozdzielnice, złącza, puszki
  0
LAYER
  5
73
330
1
100
AcDbSymbolTableRecord
100
AcDbLayerTableRecord
  2
E-TELETECH
 70
0
 62
5
420
20680
  6
Continuous
370
35
390
13
347
21
1001
AcAecLayerStandard
1000

1000
Instalacje teletechniczne (LAN, TV, domofon)
  0
LAYER
  5
74
330
1
100
AcDbSymbolTableRecord
100
AcDbLayerTableRecord
  2
E-ODGROM
 70
0
 62
3
420
35328
  6
Continuous
370
35
390
13
347
21
1001
AcAecLayerStandard
1000

1000
Uziemienia, połączenia wyrównawcze, ochrona odgromowa
  0
LAYER
  5
75
330
1
100
AcDbSymbolTableRecord
100
AcDbLayerTableRecord
  2
E-OPISY
 70
0
 62
2
  6
Continuous
370
25
390
13
347
21
1001
AcAecLayerStandard
1000

1000
Instalacje elektryczne — opisy
  0
LAYER
  5
76
330
1
100
AcDbSymbolTableRecord
100
AcDbLayerTableRecord
  2
Z-GRANICE
 70
0
 62
1
  6
DWUPUNKTOWA
370
50
390
13
347
21
1001
AcAecLayerStandard
1000

1000
Granice działki, punkty graniczne
  0
LAYER
  5
77
330
1
100
AcDbSymbolTableRecord
100
AcDbLayerTableRecord
  2
Z-ZABUDOWA
 70
0
 62
7
  6
Continuous
370
50
390
13
347
21
1001
AcAecLayerStandard
1000

1000
Budynki projektowane i istniejące
  0
LAYER
  5
78
330
1
100
AcDbSymbolTableRecord
100
AcDbLayerTableRecord
  2
Z-LINIE-ZABUDOWY
 70
0
 62
1
420
12582912
  6
PUNKTOWA
370
35
390
13
347
21
1001
AcAecLayerStandard
1000

1000
Linie zabudowy (MPZP)
  0
LAYER
  5
79
330
1
100
AcDbSymbolTableRecord
100
AcDbLayerTableRecord
  2
Z-UTWARDZENIA
 70
0
 62
8
  6
Continuous
370
25
390
13
347
21
1001
AcAecLayerStandard
1000

1000
Nawierzchnie utwardzone
  0
LAYER
  5
7A
330
1
100
AcDbSymbolTableRecord
100
AcDbLayerTableRecord
  2
Z-ZIELEN
 70
0
 62
3
420
1997342
  6
Continuous
370
25
390
13
347
21
1001
AcAecLayerStandard
1000

1000
Zieleń: drzewa, krzewy, trawniki
  0
LAYER
  5
7B
330
1
100
AcDbSymbolTableRecord
100
AcDbLayerTableRecord
  2
Z-UZBROJENIE
 70
0
 62
5
  6
Continuous
370
35
390
13
347
21
1001
AcAecLayerStandard
1000

1000
Uzbrojenie terenu, sieci i przyłącza
  0
LAYER
  5
7C
330
1
100
AcDbSymbolTableRecord
100
AcDbLayerTableRecord
  2
Z-WARSTWICE
 70
0
 62
32
420
9067050
  6
Continuous
370
18
390
13
347
21
1001
AcAecLayerStandard
1000

1000
Warstwice i punkty wysokościowe
  0
LAYER
  5
7D
330
1
100
AcDbSymbolTableRecord
100
AcDbLayerTableRecord
  2
Z-OGRODZENIE
 70
0
 62
7
  6
Continuous
370
35
390
13
347
21
1001
AcAecLayerStandard
1000

1000
Ogrodzenie, bramy, furtki
  0
LAYER
  5
7E
330
1
100
AcDbSymbolTableRecord
100
AcDbLayerTableRecord
  2
Z-OPISY
 70
0
 62
2
  6
Continuous
370
25
390
13
347
21
1001
AcAecLayerStandard
1000

1000
Opisy zagospodarowania
  0
LAYER
  5
7F
330
1
100
AcDbSymbolTableRecord
100
AcDbLayerTableRecord
  2
Z-MAPA
 70
0
 62
8
420
5921370
  6
Continuous
370
18
390
13
347
21
1001
AcAecLayerStandard
1000

1000
Podkład: mapa do celów projektowych (przykładowa, fikcyjna)
  0
LAYER
  5
80
330
1
100
AcDbSymbolTableRecord
100
AcDbLayerTableRecord
  2
Z-MAPA-OPISY
 70
0
 62
8
420
5921370
  6
Continuous
370
25
390
13
347
21
1001
AcAecLayerStandard
1000

1000
Podkład: opisy mapy (numery działek, budynki, sieci)
  0
LAYER
  5
81
330
1
100
AcDbSymbolTableRecord
100
AcDbLayerTableRecord
  2
Z-MAPA-RAMKA
 70
0
 62
7
  6
Continuous
370
35
390
13
347
21
1001
AcAecLayerStandard
1000

1000
Ramka i opis podkładu mapowego
  0
LAYER
  5
82
330
1
100
AcDbSymbolTableRecord
100
AcDbLayerTableRecord
  2
Z-DZIALKA
 70
0
 62
1
  6
Continuous
370
35
390
13
347
21
1001
AcAecLayerStandard
1000

1000
Granica działki budowlanej (PN-B-01027 poz. 2.7)
  0
LAYER
  5
83
330
1
100
AcDbSymbolTableRecord
100
AcDbLayerTableRecord
  2
Z-LZ
 70
0
 62
1
420
12582912
  6
Continuous
370
35
390
13
347
21
1001
AcAecLayerStandard
1000

1000
Nieprzekraczalna linia zabudowy (MPZP, PN-B-01027 poz. 2.2)
  0
LAYER
  5
84
330
1
100
AcDbSymbolTableRecord
100
AcDbLayerTableRecord
  2
Z-DROGA
 70
0
 62
8
420
4210752
  6
Continuous
370
35
390
13
347
21
1001
AcAecLayerStandard
1000

1000
Droga publiczna: linie rozgraniczające, jezdnia
  0
LAYER
  5
85
330
1
100
AcDbSymbolTableRecord
100
AcDbLayerTableRecord
  2
Z-BUDYNEK
 70
0
 62
7
  6
Continuous
370
100
390
13
347
21
1001
AcAecLayerStandard
1000

1000
Budynek projektowany — obrys przyziemia 1,0 m nad terenem (PN-B-01027 poz. 1.1)
  0
LAYER
  5
86
330
1
100
AcDbSymbolTableRecord
100
AcDbLayerTableRecord
  2
Z-BUDYNEK-NAD
 70
0
 62
7
  6
KRESKOWA
370
50
390
13
347
21
1001
AcAecLayerStandard
1000

1000
Obrys wyższych kondygnacji, płyt i okapów (PN-B-01027 poz. 1.6)
  0
LAYER
  5
87
330
1
100
AcDbSymbolTableRecord
100
AcDbLayerTableRecord
  2
Z-WYMIARY
 70
0
 62
1
  6
Continuous
370
18
390
13
347
21
1001
AcAecLayerStandard
1000

1000
Wymiarowanie PZT — linie 0,18 (PN-B-01027 poz. 4)
  0
LAYER
  5
88
330
1
100
AcDbSymbolTableRecord
100
AcDbLayerTableRecord
  2
Z-RZEDNE
 70
0
 62
32
420
7029795
  6
Continuous
370
18
390
13
347
21
1001
AcAecLayerStandard
1000

1000
Rzędne terenu istniejącego i projektowanego (PN-B-01025)
  0
LAYER
  5
89
330
1
100
AcDbSymbolTableRecord
100
AcDbLayerTableRecord
  2
Z-RZEDNE-PROJ
 70
0
 62
1
  6
Continuous
370
18
390
13
347
21
1001
AcAecLayerStandard
1000

1000
Rzędne terenu projektowanego
  0
LAYER
  5
8A
330
1
100
AcDbSymbolTableRecord
100
AcDbLayerTableRecord
  2
Z-ODWODNIENIE
 70
0
 62
150
420
32906
  6
Continuous
370
25
390
13
347
21
1001
AcAecLayerStandard
1000

1000
Odwodnienie terenu, spadki, kierunki spływu
  0
LAYER
  5
8B
330
1
100
AcDbSymbolTableRecord
100
AcDbLayerTableRecord
  2
Z-SIECI-IST
 70
0
 62
5
  6
Continuous
370
25
390
13
347
21
1001
AcAecLayerStandard
1000

1000
Uzbrojenie istniejące (wg mapy)
  0
LAYER
  5
8C
330
1
100
AcDbSymbolTableRecord
100
AcDbLayerTableRecord
  2
Z-SIECI-PROJ
 70
0
 62
5
  6
Continuous
370
50
390
13
347
21
1001
AcAecLayerStandard
1000

1000
Uzbrojenie projektowane (przyłącza, kolektory)
  0
LAYER
  5
8D
330
1
100
AcDbSymbolTableRecord
100
AcDbLayerTableRecord
  2
Z-KOLIZJE
 70
0
 62
6
420
12583104
  6
Continuous
370
35
390
13
347
21
1001
AcAecLayerStandard
1000

1000
Kolizje, zbliżenia i skrzyżowania sieci
  0
LAYER
  5
8E
330
1
100
AcDbSymbolTableRecord
100
AcDbLayerTableRecord
  2
Z-TYCZENIE
 70
0
 62
1
  6
Continuous
370
25
390
13
347
21
1001
AcAecLayerStandard
1000

1000
Punkty tyczenia budynku
  0
LAYER
  5
8F
330
1
100
AcDbSymbolTableRecord
100
AcDbLayerTableRecord
  2
Z-STREFY
 70
0
 62
6
420
11534512
  6
Continuous
370
25
390
13
347
21
1001
AcAecLayerStandard
1000

1000
Strefy (R290 pompy ciepła)
  0
LAYER
  5
90
330
1
100
AcDbSymbolTableRecord
100
AcDbLayerTableRecord
  2
Z-TLO
 70
0
 62
7
  6
Continuous
370
18
390
13
347
21
1001
AcAecLayerStandard
1000

1000
Tło (maski wypełnień)
  0
LAYER
  5
91
330
1
100
AcDbSymbolTableRecord
100
AcDbLayerTableRecord
  2
I-PODKLAD
 70
0
 62
8
420
10132122
  6
Continuous
370
18
390
13
347
21
1001
AcAecLayerStandard
1000

1000
Podkład architektoniczny — rzut AR (szary, cienki)
  0
LAYER
  5
92
330
1
100
AcDbSymbolTableRecord
100
AcDbLayerTableRecord
  2
I-PODKLAD-SCIANY
 70
0
 62
8
420
7237230
  6
Continuous
370
25
390
13
347
21
1001
AcAecLayerStandard
1000

1000
Podkład architektoniczny — kontury ścian przeciętych
  0
LAYER
  5
93
330
1
100
AcDbSymbolTableRecord
100
AcDbLayerTableRecord
  2
I-PODKLAD-WYPELN
 70
0
 62
254
420
15132390
  6
Continuous
370
18
390
13
347
21
1001
AcAecLayerStandard
1000

1000
Podkład architektoniczny — wypełnienie ścian przeciętych
  0
LAYER
  5
94
330
1
100
AcDbSymbolTableRecord
100
AcDbLayerTableRecord
  2
I-POMIESZCZENIA
 70
0
 62
8
420
4868682
  6
Continuous
370
25
390
13
347
21
1001
AcAecLayerStandard
1000

1000
Podkład — numery i nazwy pomieszczeń
  0
LAYER
  5
95
330
1
100
AcDbSymbolTableRecord
100
AcDbLayerTableRecord
  2
I-OSIE
 70
0
 62
8
420
8026746
  6
PUNKTOWA
370
18
390
13
347
21
1001
AcAecLayerStandard
1000

1000
Podkład — osie konstrukcyjne
  0
LAYER
  5
96
330
1
100
AcDbSymbolTableRecord
100
AcDbLayerTableRecord
  2
I-BRAKI
 70
0
 62
6
420
11534474
  6
KRESKOWA
370
25
390
13
347
21
1001
AcAecLayerStandard
1000

1000
Elementy do uzupełnienia w modelu [DO UZUPEŁNIENIA] / proponowane
  0
LAYER
  5
97
330
1
100
AcDbSymbolTableRecord
100
AcDbLayerTableRecord
  2
E-PV
 70
0
 62
200
420
5975171
  6
Continuous
370
35
390
13
347
21
1001
AcAecLayerStandard
1000

1000
Instalacja fotowoltaiczna: moduły, trasy DC
  0
LAYER
  5
98
330
1
100
AcDbSymbolTableRecord
100
AcDbLayerTableRecord
  2
E-ALARM
 70
0
 62
5
420
2056104
  6
Continuous
370
35
390
13
347
21
1001
AcAecLayerStandard
1000

1000
Sygnalizacja włamania i napadu (SSWiN), czujki
  0
LAYER
  5
99
330
1
100
AcDbSymbolTableRecord
100
AcDbLayerTableRecord
  2
S-PC
 70
0
 62
1
420
12597547
  6
Continuous
370
35
390
13
347
21
1001
AcAecLayerStandard
1000

1000
Pompa ciepła — przewody czynnika grzewczego (zasilanie/powrót)
  0
LAYER
  5
9A
330
1
100
AcDbSymbolTableRecord
100
AcDbLayerTableRecord
  2
A-DET-HYDRO
 70
0
 62
5
420
1402304
  6
Continuous
370
50
390
13
347
21
1001
AcAecLayerStandard
1000

1000
Detal — hydroizolacja / ochrona przed wodą (linia niebieska)
  0
LAYER
  5
9B
330
1
100
AcDbSymbolTableRecord
100
AcDbLayerTableRecord
  2
A-DET-SZCZEL
 70
0
 62
1
420
13840175
  6
KRESKOWA
370
35
390
13
347
21
1001
AcAecLayerStandard
1000

1000
Detal — szczelność powietrzna (czerwona przerywana)
  0
LAYER
  5
9C
330
1
100
AcDbSymbolTableRecord
100
AcDbLayerTableRecord
  2
A-DET-PARO
 70
0
 62
6
420
8069026
  6
Continuous
370
35
390
13
347
21
1001
AcAecLayerStandard
1000

1000
Detal — paroizolacja / kontrola pary (fioletowa)
  0
LAYER
  5
9D
330
1
100
AcDbSymbolTableRecord
100
AcDbLayerTableRecord
  2
A-DET-IZOL
 70
0
 62
30
420
15690752
  6
Continuous
370
35
390
13
347
21
1001
AcAecLayerStandard
1000

1000
Detal — obrys izolacji cieplnej (pomarańczowy)
  0
LAYER
  5
9E
330
1
100
AcDbSymbolTableRecord
100
AcDbLayerTableRecord
  2
A-DET-TASMA
 70
0
 62
6
  6
Continuous
370
50
390
13
347
21
1001
AcAecLayerStandard
1000

1000
Detal — taśmy uszczelniające (paroszczelne / paroprzepuszczalne)
  0
LAYER
  5
9F
330
1
100
AcDbSymbolTableRecord
100
AcDbLayerTableRecord
  2
A-DET-MEMBRANY
 70
0
 62
8
420
4545124
  6
PUNKTOWA_KROTKA
370
25
390
13
347
21
1001
AcAecLayerStandard
1000

1000
Detal — membrany wiatroizolacyjne, włókniny, bariery
  0
LAYER
  5
A0
330
1
100
AcDbSymbolTableRecord
100
AcDbLayerTableRecord
  2
A-DET-OBROBKI
 70
0
 62
7
  6
Continuous
370
35
390
13
347
21
1001
AcAecLayerStandard
1000

1000
Detal — obróbki blacharskie, okapniki, rynny
  0
LAYER
  5
A1
330
1
100
AcDbSymbolTableRecord
100
AcDbLayerTableRecord
  2
A-DET-PRZERWA
 70
0
 62
8
  6
Continuous
370
25
390
13
347
21
1001
AcAecLayerStandard
1000

1000
Detal — linie przerwania
  0
LAYER
  5
A2
330
1
100
AcDbSymbolTableRecord
100
AcDbLayerTableRecord
  2
A-DET-OPIS
 70
0
 62
2
  6
Continuous
370
25
390
13
347
21
1001
AcAecLayerStandard
1000

1000
Detal — pole opisu (wyniki mostków, ocena 4 linii)
  0
LAYER
  5
A3
330
1
100
AcDbSymbolTableRecord
100
AcDbLayerTableRecord
  2
I-SCHEMAT
 70
0
 62
7
  6
Continuous
370
25
390
13
347
21
1001
AcAecLayerStandard
1000

1000
Schematy instalacji (odtworzone z bibliotek obliczeniowych)
  0
ENDTAB
  0
TABLE
  2
STYLE
  5
5
330
0
100
AcDbSymbolTable
 70
5
  0
STYLE
  5
29
330
5
100
AcDbSymbolTableRecord
100
AcDbTextStyleTableRecord
  2
Standard
 70
0
 40
0.0
 41
1.0
 50
0.0
 71
0
 42
2.5
  3
txt
  4

  0
STYLE
  5
3A
330
5
100
AcDbSymbolTableRecord
100
AcDbTextStyleTableRecord
  2
PL_ARIAL
 70
0
 40
0.0
 41
1.0
 50
0.0
 71
0
 42
2.5
  3
arial.ttf
  4

  0
STYLE
  5
3B
330
5
100
AcDbSymbolTableRecord
100
AcDbTextStyleTableRecord
  2
PL_ARIAL_B
 70
0
 40
0.0
 41
1.0
 50
0.0
 71
0
 42
2.5
  3
arialbd.ttf
  4

  0
STYLE
  5
3C
330
5
100
AcDbSymbolTableRecord
100
AcDbTextStyleTableRecord
  2
PL_ARIAL_I
 70
0
 40
0.0
 41
1.0
 50
0.0
 71
0
 42
2.5
  3
ariali.ttf
  4

  0
STYLE
  5
3D
330
5
100
AcDbSymbolTableRecord
100
AcDbTextStyleTableRecord
  2
PL_ARIAL_BI
 70
0
 40
0.0
 41
1.0
 50
0.0
 71
0
 42
2.5
  3
arialbi.ttf
  4

  0
ENDTAB
  0
TABLE
  2
VIEW
  5
7
330
0
100
AcDbSymbolTable
 70
0
  0
ENDTAB
  0
TABLE
  2
UCS
  5
6
330
0
100
AcDbSymbolTable
 70
0
  0
ENDTAB
  0
TABLE
  2
APPID
  5
3
330
0
100
AcDbSymbolTable
 70
4
  0
APPID
  5
2A
330
3
100
AcDbSymbolTableRecord
100
AcDbRegAppTableRecord
  2
ACAD
 70
0
  0
APPID
  5
3F
330
3
100
AcDbSymbolTableRecord
100
AcDbRegAppTableRecord
  2
AcAecLayerStandard
 70
0
  0
APPID
  5
228
330
3
100
AcDbSymbolTableRecord
100
AcDbRegAppTableRecord
  2
HATCHBACKGROUNDCOLOR
 70
0
  0
APPID
  5
229
330
3
100
AcDbSymbolTableRecord
100
AcDbRegAppTableRecord
  2
EZDXF
 70
0
  0
ENDTAB
  0
TABLE
  2
DIMSTYLE
  5
4
330
0
100
AcDbSymbolTable
 70
1
100
AcDbDimStyleTable
  0
DIMSTYLE
105
2B
330
4
100
AcDbSymbolTableRecord
100
AcDbDimStyleTableRecord
  2
Standard
 70
0
 40
1.0
 41
2.5
 42
0.625
 43
3.75
 44
1.25
 45
0.0
 46
0.0
 47
0.0
 48
0.0
 49
2.5
140
2.5
141
2.5
142
0.0
143
0.03937007874
144
1.0
145
0.0
146
1.0
147
0.625
148
0.0
 69
0
 70
0
 71
0
 72
0
 73
0
 74
0
 75
0
 76
0
 77
1
 78
8
 79
3
170
0
171
3
172
1
173
0
174
0
175
0
176
0
177
0
178
0
179
2
271
2
272
2
273
2
274
3
275
0
276
0
277
2
278
44
279
0
280
0
281
0
282
0
283
0
284
8
285
0
286
0
288
0
289
3
290
0
371
-2
372
-2
  0
ENDTAB
  0
TABLE
  2
BLOCK_RECORD
  5
9
330
0
100
AcDbSymbolTable
 70
2
  0
BLOCK_RECORD
  5
17
330
9
100
AcDbSymbolTableRecord
100
AcDbBlockTableRecord
  2
*Model_Space
340
1A
 70
0
280
1
281
0
  0
BLOCK_RECORD
  5
1B
330
9
100
AcDbSymbolTableRecord
100
AcDbBlockTableRecord
  2
*Paper_Space
340
1E
 70
0
280
1
281
0
  0
ENDTAB
  0
ENDSEC
  0
SECTION
  2
BLOCKS
  0
BLOCK
  5
18
330
17
100
AcDbEntity
  8
0
100
AcDbBlockBegin
  2
*Model_Space
 70
0
 10
0.0
 20
0.0
 30
0.0
  3
*Model_Space
  1

  0
ENDBLK
  5
19
330
17
100
AcDbEntity
  8
0
100
AcDbBlockEnd
  0
BLOCK
  5
1C
330
1B
100
AcDbEntity
  8
0
100
AcDbBlockBegin
  2
*Paper_Space
 70
0
 10
0.0
 20
0.0
 30
0.0
  3
*Paper_Space
  1

  0
ENDBLK
  5
1D
330
1B
100
AcDbEntity
  8
0
100
AcDbBlockEnd
  0
ENDSEC
  0
SECTION
  2
ENTITIES
  0
HATCH
  5
18B
330
17
100
AcDbEntity
  8
I-SCHEMAT
 62
7
420
15658734
100
AcDbHatch
 10
0.0
 20
0.0
 30
0.0
210
0.0
220
0.0
230
1.0
  2
SOLID
 70
1
 71
0
 91
1
 92
3
 72
0
 73
1
 93
4
 10
0.36629570747217804
 20
9.157392686804451
 10
2.7472178060413355
 20
9.157392686804451
 10
2.7472178060413355
 20
12.270906200317965
 10
0.36629570747217804
 20
12.270906200317965
 97
0
 75
0
 76
1
 98
0
  0
HATCH
  5
18C
330
17
100
AcDbEntity
  8
I-SCHEMAT
 62
7
420
16777215
100
AcDbHatch
 10
0.0
 20
0.0
 30
0.0
210
0.0
220
0.0
230
1.0
  2
SOLID
 70
1
 71
0
 91
1
 92
3
 72
0
 73
1
 93
4
 10
3.6812718600953898
 20
11.556629570747218
 10
3.6812718600953898
 20
11.88629570747218
 10
4.010937996820349
 20
11.556629570747218
 10
4.010937996820349
 20
11.88629570747218
 97
0
 75
0
 76
1
 98
0
  0
HATCH
  5
18D
330
17
100
AcDbEntity
  8
I-SCHEMAT
 62
7
420
16777215
100
AcDbHatch
 10
0.0
 20
0.0
 30
0.0
210
0.0
220
0.0
230
1.0
  2
SOLID
 70
1
 71
0
 91
1
 92
3
 72
0
 73
1
 93
4
 10
3.6812718600953898
 20
9.725151033386327
 10
3.6812718600953898
 20
10.054817170111287
 10
4.010937996820349
 20
9.725151033386327
 10
4.010937996820349
 20
10.054817170111287
 97
0
 75
0
 76
1
 98
0
  0
HATCH
  5
18E
330
17
100
AcDbEntity
  8
I-SCHEMAT
 62
7
420
16777215
100
AcDbHatch
 10
0.0
 20
0.0
 30
0.0
210
0.0
220
0.0
230
1.0
  2
SOLID
 70
1
 71
0
 91
1
 92
3
 72
0
 73
1
 93
3
 10
4.990779014308426
 20
11.721462639109697
 10
5.265500794912559
 20
11.721462639109697
 10
5.128139904610492
 20
11.95039745627981
 97
0
 75
0
 76
1
 98
0
  0
HATCH
  5
18F
330
17
100
AcDbEntity
  8
I-SCHEMAT
 62
7
420
16777215
100
AcDbHatch
 10
0.0
 20
0.0
 30
0.0
210
0.0
220
0.0
230
1.0
  2
SOLID
 70
1
 71
0
 91
1
 92
3
 72
0
 73
1
 93
3
 10
6.776470588235294
 20
11.538314785373608
 10
6.776470588235294
 20
11.904610492845787
 10
6.959618441971383
 20
11.721462639109697
 97
0
 75
0
 76
1
 98
0
  0
HATCH
  5
190
330
17
100
AcDbEntity
  8
I-SCHEMAT
 62
7
420
16777215
100
AcDbHatch
 10
0.0
 20
0.0
 30
0.0
210
0.0
220
0.0
230
1.0
  2
SOLID
 70
1
 71
0
 91
1
 92
3
 72
0
 73
1
 93
3
 10
7.142766295707472
 20
11.538314785373608
 10
7.142766295707472
 20
11.904610492845787
 10
6.959618441971383
 20
11.721462639109697
 97
0
 75
0
 76
1
 98
0
  0
HATCH
  5
191
330
17
100
AcDbEntity
  8
I-SCHEMAT
 62
7
420
0
100
AcDbHatch
 10
0.0
 20
0.0
 30
0.0
210
0.0
220
0.0
230
1.0
  2
SOLID
 70
1
 71
0
 91
1
 92
3
 72
0
 73
1
 93
3
 10
6.776470588235294
 20
11.35516693163752
 10
7.142766295707472
 20
11.35516693163752
 10
6.959618441971383
 20
11.721462639109697
 97
0
 75
0
 76
1
 98
0
  0
HATCH
  5
192
330
17
100
AcDbEntity
  8
I-SCHEMAT
 62
7
420
16777215
100
AcDbHatch
 10
0.0
 20
0.0
 30
0.0
210
0.0
220
0.0
230
1.0
  2
SOLID
 70
1
 71
0
 91
1
 92
3
 72
0
 73
1
 93
24
 10
8.92845786963434
 20
1.2362480127186009
 10
10.302066772655008
 20
1.2362480127186009
 10
10.430842607313195
 20
1.24483306836248
 10
10.636883942766294
 20
1.3135135135135134
 10
10.774244833068362
 20
1.4508744038155803
 10
10.842925278219395
 20
1.6569157392686804
 10
10.851510333863274
 20
1.785691573926868
 10
10.851510333863274
 20
6.272813990461049
 10
10.842925278219395
 20
6.4015898251192365
 10
10.774244833068362
 20
6.607631160572336
 10
10.636883942766294
 20
6.744992050874403
 10
10.430842607313195
 20
6.813672496025437
 10
10.302066772655008
 20
6.822257551669316
 10
8.92845786963434
 20
6.822257551669316
 10
8.799682034976152
 20
6.813672496025437
 10
8.593640699523052
 20
6.744992050874403
 10
8.456279809220986
 20
6.607631160572336
 10
8.387599364069953
 20
6.4015898251192365
 10
8.379014308426072
 20
6.272813990461049
 10
8.379014308426072
 20
1.785691573926868
 10
8.387599364069953
 20
1.6569157392686804
 10
8.456279809220986
 20
1.4508744038155803
 10
8.593640699523052
 20
1.3135135135135134
 10
8.799682034976152
 20
1.24483306836248
 97
0
 75
0
 76
1
 98
0
  0
HATCH
  5
193
330
17
100
AcDbEntity
  8
I-SCHEMAT
 62
7
420
16777215
100
AcDbHatch
 10
0.0
 20
0.0
 30
0.0
210
0.0
220
0.0
230
1.0
  2
SOLID
 70
1
 71
0
 91
1
 92
3
 72
0
 73
1
 93
4
 10
11.263593004769476
 20
1.8314785373608902
 10
11.721462639109697
 20
1.8314785373608902
 10
11.721462639109697
 20
2.1977742448330684
 10
11.263593004769476
 20
2.1977742448330684
 97
0
 75
0
 76
1
 98
0
  0
HATCH
  5
194
330
17
100
AcDbEntity
  8
I-SCHEMAT
 62
7
420
16777215
100
AcDbHatch
 10
0.0
 20
0.0
 30
0.0
210
0.0
220
0.0
230
1.0
  2
SOLID
 70
1
 71
0
 91
1
 92
3
 72
0
 73
1
 93
24
 10
5.091510333863275
 20
8.754467408585056
 10
5.3479173290938
 20
8.754467408585056
 10
5.433767885532592
 20
8.760190779014307
 10
5.571128775834659
 20
8.805977742448329
 10
5.662702702702703
 20
8.897551669316375
 10
5.7084896661367255
 20
9.03491255961844
 10
5.714213036565978
 20
9.120763116057233
 10
5.714213036565978
 20
10.65920508744038
 10
5.7084896661367255
 20
10.745055643879173
 10
5.662702702702703
 20
10.882416534181239
 10
5.571128775834659
 20
10.973990461049283
 10
5.433767885532592
 20
11.019777424483305
 10
5.3479173290938
 20
11.025500794912558
 10
5.091510333863275
 20
11.025500794912558
 10
5.0056597774244835
 20
11.019777424483305
 10
4.868298887122417
 20
10.973990461049283
 10
4.776724960254372
 20
10.882416534181239
 10
4.73093799682035
 20
10.745055643879173
 10
4.725214626391097
 20
10.65920508744038
 10
4.725214626391097
 20
9.120763116057233
 10
4.73093799682035
 20
9.03491255961844
 10
4.776724960254372
 20
8.897551669316375
 10
4.868298887122417
 20
8.805977742448329
 10
5.0056597774244835
 20
8.760190779014307
 97
0
 75
0
 76
1
 98
0
  0
HATCH
  5
195
330
17
100
AcDbEntity
  8
I-SCHEMAT
 62
7
420
16777215
100
AcDbHatch
 10
0.0
 20
0.0
 30
0.0
210
0.0
220
0.0
230
1.0
  2
SOLID
 70
1
 71
0
 91
1
 92
3
 72
0
 73
1
 93
16
 10
4.212400635930048
 20
9.688521462639109
 10
4.29145286014138
 20
9.699135149922048
 10
4.354856234200253
 20
9.747528503478602
 10
4.4032495877568065
 20
9.810931877537474
 10
4.413863275039746
 20
9.889984101748807
 10
4.4032495877568065
 20
9.969036325960142
 10
4.354856234200253
 20
10.032439700019014
 10
4.29145286014138
 20
10.080833053575565
 10
4.212400635930048
 20
10.091446740858505
 10
4.133348411718715
 20
10.080833053575565
 10
4.069945037659842
 20
10.032439700019014
 10
4.021551684103289
 20
9.969036325960142
 10
4.010937996820349
 20
9.889984101748807
 10
4.021551684103289
 20
9.810931877537474
 10
4.069945037659842
 20
9.747528503478602
 10
4.133348411718715
 20
9.699135149922048
 97
0
 75
0
 76
1
 98
0
  0
HATCH
  5
196
330
17
100
AcDbEntity
  8
I-SCHEMAT
 62
7
420
0
100
AcDbHatch
 10
0.0
 20
0.0
 30
0.0
210
0.0
220
0.0
230
1.0
  2
SOLID
 70
1
 71
0
 91
1
 92
3
 72
0
 73
1
 93
3
 10
4.333278219395866
 20
10.010861685214625
 10
4.333278219395866
 20
9.769106518282989
 10
4.051230524642289
 20
9.889984101748807
 97
0
 75
0
 76
1
 98
0
  0
HATCH
  5
197
330
17
100
AcDbEntity
  8
I-SCHEMAT
 62
7
420
15921906
100
AcDbHatch
 10
0.0
 20
0.0
 30
0.0
210
0.0
220
0.0
230
1.0
  2
SOLID
 70
1
 71
0
 91
1
 92
3
 72
0
 73
1
 93
16
 10
4.313131955484897
 20
8.021875993640698
 10
4.477965023847377
 20
8.021875993640698
 10
4.5781240063593005
 20
8.03618441971383
 10
4.6925914149443555
 20
8.150651828298887
 10
4.706899841017488
 20
8.25081081081081
 10
4.706899841017488
 20
8.59879173290938
 10
4.6925914149443555
 20
8.698950715421303
 10
4.5781240063593005
 20
8.813418124006358
 10
4.477965023847377
 20
8.82772655007949
 10
4.313131955484897
 20
8.82772655007949
 10
4.212972972972973
 20
8.813418124006358
 10
4.098505564387917
 20
8.698950715421303
 10
4.084197138314785
 20
8.59879173290938
 10
4.084197138314785
 20
8.25081081081081
 10
4.098505564387917
 20
8.150651828298887
 10
4.212972972972973
 20
8.03618441971383
 97
0
 75
0
 76
1
 98
0
  0
HATCH
  5
198
330
17
100
AcDbEntity
  8
I-SCHEMAT
 62
7
420
15516863
100
AcDbHatch
 10
0.0
 20
0.0
 30
0.0
210
0.0
220
0.0
230
1.0
  2
SOLID
 70
1
 71
0
 91
1
 92
3
 72
0
 73
1
 93
4
 10
13.736089030206676
 20
12.270906200317965
 10
17.765341812400635
 20
12.270906200317965
 10
17.765341812400635
 20
12.59141494435612
 10
13.736089030206676
 20
12.59141494435612
 97
0
 75
0
 76
1
 98
0
  0
HATCH
  5
199
330
17
100
AcDbEntity
  8
I-SCHEMAT
 62
7
420
12637160
100
AcDbHatch
 10
0.0
 20
0.0
 30
0.0
210
0.0
220
0.0
230
1.0
  2
SOLID
 70
1
 71
0
 91
1
 92
3
 72
0
 73
1
 93
4
 10
13.736089030206676
 20
12.82034976152623
 10
17.765341812400635
 20
12.82034976152623
 10
17.765341812400635
 20
13.140858505564387
 10
13.736089030206676
 20
13.140858505564387
 97
0
 75
0
 76
1
 98
0
  0
HATCH
  5
19A
330
17
100
AcDbEntity
  8
I-SCHEMAT
 62
7
420
15516863
100
AcDbHatch
 10
0.0
 20
0.0
 30
0.0
210
0.0
220
0.0
230
1.0
  2
SOLID
 70
1
 71
0
 91
1
 92
3
 72
0
 73
1
 93
4
 10
19.047376788553258
 20
12.270906200317965
 10
23.076629570747215
 20
12.270906200317965
 10
23.076629570747215
 20
12.59141494435612
 10
19.047376788553258
 20
12.59141494435612
 97
0
 75
0
 76
1
 98
0
  0
HATCH
  5
19B
330
17
100
AcDbEntity
  8
I-SCHEMAT
 62
7
420
12637160
100
AcDbHatch
 10
0.0
 20
0.0
 30
0.0
210
0.0
220
0.0
230
1.0
  2
SOLID
 70
1
 71
0
 91
1
 92
3
 72
0
 73
1
 93
4
 10
19.047376788553258
 20
12.82034976152623
 10
23.076629570747215
 20
12.82034976152623
 10
23.076629570747215
 20
13.140858505564387
 10
19.047376788553258
 20
13.140858505564387
 97
0
 75
0
 76
1
 98
0
  0
HATCH
  5
19C
330
17
100
AcDbEntity
  8
I-SCHEMAT
 62
7
420
16777215
100
AcDbHatch
 10
0.0
 20
0.0
 30
0.0
210
0.0
220
0.0
230
1.0
  2
SOLID
 70
1
 71
0
 91
1
 92
3
 72
0
 73
1
 93
4
 10
0.9157392686804451
 20
0.27472178060413355
 10
1.5567567567567566
 20
0.27472178060413355
 10
1.5567567567567566
 20
0.8241653418124006
 10
0.9157392686804451
 20
0.8241653418124006
 97
0
 75
0
 76
1
 98
0
  0
HATCH
  5
19D
330
17
100
AcDbEntity
  8
I-SCHEMAT
 62
7
420
16777215
100
AcDbHatch
 10
0.0
 20
0.0
 30
0.0
210
0.0
220
0.0
230
1.0
  2
SOLID
 70
1
 71
0
 91
1
 92
3
 72
0
 73
1
 93
4
 10
2.655643879173291
 20
0.27472178060413355
 10
3.2966613672496026
 20
0.27472178060413355
 10
3.2966613672496026
 20
0.8241653418124006
 10
2.655643879173291
 20
0.8241653418124006
 97
0
 75
0
 76
1
 98
0
  0
HATCH
  5
19E
330
17
100
AcDbEntity
  8
I-SCHEMAT
 62
7
420
16777215
100
AcDbHatch
 10
0.0
 20
0.0
 30
0.0
210
0.0
220
0.0
230
1.0
  2
SOLID
 70
1
 71
0
 91
1
 92
3
 72
0
 73
1
 93
4
 10
3.6629570747217803
 20
0.27472178060413355
 10
4.303974562798092
 20
0.27472178060413355
 10
4.303974562798092
 20
0.8241653418124006
 10
3.6629570747217803
 20
0.8241653418124006
 97
0
 75
0
 76
1
 98
0
  0
HATCH
  5
19F
330
17
100
AcDbEntity
  8
I-SCHEMAT
 62
7
420
16777215
100
AcDbHatch
 10
0.0
 20
0.0
 30
0.0
210
0.0
220
0.0
230
1.0
  2
SOLID
 70
1
 71
0
 91
1
 92
3
 72
0
 73
1
 93
4
 10
1.9413672496025436
 20
0.38461049284578697
 10
1.9413672496025436
 20
0.7142766295707472
 10
2.271033386327504
 20
0.38461049284578697
 10
2.271033386327504
 20
0.7142766295707472
 97
0
 75
0
 76
1
 98
0
  0
HATCH
  5
1A0
330
17
100
AcDbEntity
  8
I-SCHEMAT
 62
7
420
16777215
100
AcDbHatch
 10
0.0
 20
0.0
 30
0.0
210
0.0
220
0.0
230
1.0
  2
SOLID
 70
1
 71
0
 91
1
 92
3
 72
0
 73
1
 93
4
 10
7.692209856915739
 20
0.7325914149443561
 10
8.241653418124006
 20
0.7325914149443561
 10
8.241653418124006
 20
1.1904610492845786
 10
7.692209856915739
 20
1.1904610492845786
 97
0
 75
0
 76
1
 98
0
  0
HATCH
  5
1A1
330
17
100
AcDbEntity
  8
I-SCHEMAT
 62
7
420
15921906
100
AcDbHatch
 10
0.0
 20
0.0
 30
0.0
210
0.0
220
0.0
230
1.0
  2
SOLID
 70
1
 71
0
 91
1
 92
3
 72
0
 73
1
 93
16
 10
6.327758346581875
 20
0.8791096979332272
 10
6.492591414944355
 20
0.8791096979332272
 10
6.592750397456279
 20
0.8934181240063592
 10
6.707217806041334
 20
1.007885532591415
 10
6.721526232114466
 20
1.1080445151033385
 10
6.721526232114466
 20
1.4560254372019077
 10
6.707217806041334
 20
1.5561844197138313
 10
6.592750397456279
 20
1.670651828298887
 10
6.492591414944355
 20
1.6849602543720188
 10
6.327758346581875
 20
1.6849602543720188
 10
6.227599364069952
 20
1.670651828298887
 10
6.113131955484896
 20
1.5561844197138313
 10
6.098823529411764
 20
1.4560254372019077
 10
6.098823529411764
 20
1.1080445151033385
 10
6.113131955484896
 20
1.007885532591415
 10
6.227599364069952
 20
0.8934181240063592
 97
0
 75
0
 76
1
 98
0
  0
HATCH
  5
1A2
330
17
100
AcDbEntity
  8
I-SCHEMAT
 62
7
420
16777215
100
AcDbHatch
 10
0.0
 20
0.0
 30
0.0
210
0.0
220
0.0
230
1.0
  2
SOLID
 70
1
 71
0
 91
1
 92
3
 72
0
 73
1
 93
3
 10
12.087758346581875
 20
7.417488076311606
 10
12.087758346581875
 20
7.966931637519872
 10
12.637201907790143
 20
7.692209856915739
 97
0
 75
0
 76
1
 98
0
  0
HATCH
  5
1A3
330
17
100
AcDbEntity
  8
I-SCHEMAT
 62
7
420
16777215
100
AcDbHatch
 10
0.0
 20
0.0
 30
0.0
210
0.0
220
0.0
230
1.0
  2
SOLID
 70
1
 71
0
 91
1
 92
3
 72
0
 73
1
 93
3
 10
13.18664546899841
 20
7.417488076311606
 10
13.18664546899841
 20
7.966931637519872
 10
12.637201907790143
 20
7.692209856915739
 97
0
 75
0
 76
1
 98
0
  0
HATCH
  5
1A4
330
17
100
AcDbEntity
  8
I-SCHEMAT
 62
7
420
16777215
100
AcDbHatch
 10
0.0
 20
0.0
 30
0.0
210
0.0
220
0.0
230
1.0
  2
SOLID
 70
1
 71
0
 91
1
 92
3
 72
0
 73
1
 93
16
 10
11.35516693163752
 20
5.146454689984102
 10
11.419846024174065
 20
5.15513861594287
 10
11.471721512040416
 20
5.194733177943687
 10
11.51131607404123
 20
5.246608665810037
 10
11.52
 20
5.311287758346582
 10
11.51131607404123
 20
5.375966850883127
 10
11.471721512040416
 20
5.4278423387494765
 10
11.419846024174065
 20
5.467436900750293
 10
11.35516693163752
 20
5.476120826709061
 10
11.290487839100974
 20
5.467436900750293
 10
11.238612351234623
 20
5.4278423387494765
 10
11.199017789233809
 20
5.375966850883127
 10
11.19033386327504
 20
5.311287758346582
 10
11.199017789233809
 20
5.246608665810037
 10
11.238612351234623
 20
5.194733177943687
 10
11.290487839100974
 20
5.15513861594287
 97
0
 75
0
 76
1
 98
0
  0
HATCH
  5
1A5
330
17
100
AcDbEntity
  8
I-SCHEMAT
 62
7
420
0
100
AcDbHatch
 10
0.0
 20
0.0
 30
0.0
210
0.0
220
0.0
230
1.0
  2
SOLID
 70
1
 71
0
 91
1
 92
3
 72
0
 73
1
 93
3
 10
11.256267090620032
 20
5.410187599364069
 10
11.256267090620032
 20
5.212387917329094
 10
11.487033386327504
 20
5.311287758346582
 97
0
 75
0
 76
1
 98
0
  0
LWPOLYLINE
  5
1A6
330
17
100
AcDbEntity
  8
I-SCHEMAT
  6
Continuous
370
35
 48
0.05
420
0
100
AcDbPolyline
 90
4
 70
129
 10
0.36629570747217804
 20
9.157392686804451
 10
2.7472178060413355
 20
9.157392686804451
 10
2.7472178060413355
 20
12.270906200317965
 10
0.36629570747217804
 20
12.270906200317965
  0
LWPOLYLINE
  5
1A7
330
17
100
AcDbEntity
  8
I-SCHEMAT
  6
Continuous
370
25
 48
0.05
420
0
100
AcDbPolyline
 90
24
 70
129
 10
1.5567567567567566
 20
10.16470588235294
 10
1.7195698237628911
 20
10.175560789801402
 10
2.0167278563594575
 20
10.298647677071006
 10
2.139529658771234
 20
10.406098322150864
 10
2.2469803038510925
 20
10.52890012456264
 10
2.3700671911206963
 20
10.826058157159206
 10
2.3809220985691573
 20
10.988871224165342
 10
2.3700671911206963
 20
11.151684291171478
 10
2.2469803038510925
 20
11.448842323768043
 10
2.139529658771234
 20
11.571644126179818
 10
2.0167278563594575
 20
11.679094771259676
 10
1.7195698237628911
 20
11.802181658529282
 10
1.5567567567567566
 20
11.813036565977741
 10
1.3939436897506223
 20
11.802181658529282
 10
1.096785657154056
 20
11.679094771259676
 10
0.9739838547422792
 20
11.571644126179818
 10
0.8665332096624211
 20
11.448842323768043
 10
0.743446322392817
 20
11.151684291171478
 10
0.7325914149443561
 20
10.988871224165342
 10
0.743446322392817
 20
10.826058157159206
 10
0.8665332096624211
 20
10.52890012456264
 10
0.9739838547422792
 20
10.406098322150864
 10
1.096785657154056
 20
10.298647677071006
 10
1.3939436897506223
 20
10.175560789801402
  0
LWPOLYLINE
  5
1A8
330
17
100
AcDbEntity
  8
I-SCHEMAT
  6
Continuous
370
25
 48
0.05
420
12597547
100
AcDbPolyline
 90
4
 70
129
 10
3.6812718600953898
 20
11.556629570747218
 10
3.6812718600953898
 20
11.88629570747218
 10
4.010937996820349
 20
11.556629570747218
 10
4.010937996820349
 20
11.88629570747218
  0
LWPOLYLINE
  5
1A9
330
17
100
AcDbEntity
  8
I-SCHEMAT
  6
Continuous
370
25
 48
0.05
420
3042740
100
AcDbPolyline
 90
4
 70
129
 10
3.6812718600953898
 20
9.725151033386327
 10
3.6812718600953898
 20
10.054817170111287
 10
4.010937996820349
 20
9.725151033386327
 10
4.010937996820349
 20
10.054817170111287
  0
LWPOLYLINE
  5
1AA
330
17
100
AcDbEntity
  8
I-SCHEMAT
  6
Continuous
370
25
 48
0.05
420
0
100
AcDbPolyline
 90
3
 70
129
 10
4.990779014308426
 20
11.721462639109697
 10
5.265500794912559
 20
11.721462639109697
 10
5.128139904610492
 20
11.95039745627981
  0
LWPOLYLINE
  5
1AB
330
17
100
AcDbEntity
  8
I-SCHEMAT
  6
Continuous
370
25
 48
0.05
420
0
100
AcDbPolyline
 90
3
 70
129
 10
6.776470588235294
 20
11.538314785373608
 10
6.776470588235294
 20
11.904610492845787
 10
6.959618441971383
 20
11.721462639109697
  0
LWPOLYLINE
  5
1AC
330
17
100
AcDbEntity
  8
I-SCHEMAT
  6
Continuous
370
25
 48
0.05
420
0
100
AcDbPolyline
 90
3
 70
129
 10
7.142766295707472
 20
11.538314785373608
 10
7.142766295707472
 20
11.904610492845787
 10
6.959618441971383
 20
11.721462639109697
  0
LWPOLYLINE
  5
1AD
330
17
100
AcDbEntity
  8
I-SCHEMAT
  6
Continuous
370
25
 48
0.05
420
0
100
AcDbPolyline
 90
3
 70
129
 10
6.776470588235294
 20
11.35516693163752
 10
7.142766295707472
 20
11.35516693163752
 10
6.959618441971383
 20
11.721462639109697
  0
LWPOLYLINE
  5
1AE
330
17
100
AcDbEntity
  8
I-SCHEMAT
  6
Continuous
370
35
 48
0.05
420
0
100
AcDbPolyline
 90
24
 70
129
 10
8.92845786963434
 20
1.2362480127186009
 10
10.302066772655008
 20
1.2362480127186009
 10
10.430842607313195
 20
1.24483306836248
 10
10.636883942766294
 20
1.3135135135135134
 10
10.774244833068362
 20
1.4508744038155803
 10
10.842925278219395
 20
1.6569157392686804
 10
10.851510333863274
 20
1.785691573926868
 10
10.851510333863274
 20
6.272813990461049
 10
10.842925278219395
 20
6.4015898251192365
 10
10.774244833068362
 20
6.607631160572336
 10
10.636883942766294
 20
6.744992050874403
 10
10.430842607313195
 20
6.813672496025437
 10
10.302066772655008
 20
6.822257551669316
 10
8.92845786963434
 20
6.822257551669316
 10
8.799682034976152
 20
6.813672496025437
 10
8.593640699523052
 20
6.744992050874403
 10
8.456279809220986
 20
6.607631160572336
 10
8.387599364069953
 20
6.4015898251192365
 10
8.379014308426072
 20
6.272813990461049
 10
8.379014308426072
 20
1.785691573926868
 10
8.387599364069953
 20
1.6569157392686804
 10
8.456279809220986
 20
1.4508744038155803
 10
8.593640699523052
 20
1.3135135135135134
 10
8.799682034976152
 20
1.24483306836248
  0
LWPOLYLINE
  5
1AF
330
17
100
AcDbEntity
  8
I-SCHEMAT
  6
Continuous
370
25
 48
0.05
420
0
100
AcDbPolyline
 90
4
 70
129
 10
11.263593004769476
 20
1.8314785373608902
 10
11.721462639109697
 20
1.8314785373608902
 10
11.721462639109697
 20
2.1977742448330684
 10
11.263593004769476
 20
2.1977742448330684
  0
LWPOLYLINE
  5
1B0
330
17
100
AcDbEntity
  8
I-SCHEMAT
  6
Continuous
370
25
 48
0.05
420
0
100
AcDbPolyline
 90
24
 70
129
 10
5.091510333863275
 20
8.754467408585056
 10
5.3479173290938
 20
8.754467408585056
 10
5.433767885532592
 20
8.760190779014307
 10
5.571128775834659
 20
8.805977742448329
 10
5.662702702702703
 20
8.897551669316375
 10
5.7084896661367255
 20
9.03491255961844
 10
5.714213036565978
 20
9.120763116057233
 10
5.714213036565978
 20
10.65920508744038
 10
5.7084896661367255
 20
10.745055643879173
 10
5.662702702702703
 20
10.882416534181239
 10
5.571128775834659
 20
10.973990461049283
 10
5.433767885532592
 20
11.019777424483305
 10
5.3479173290938
 20
11.025500794912558
 10
5.091510333863275
 20
11.025500794912558
 10
5.0056597774244835
 20
11.019777424483305
 10
4.868298887122417
 20
10.973990461049283
 10
4.776724960254372
 20
10.882416534181239
 10
4.73093799682035
 20
10.745055643879173
 10
4.725214626391097
 20
10.65920508744038
 10
4.725214626391097
 20
9.120763116057233
 10
4.73093799682035
 20
9.03491255961844
 10
4.776724960254372
 20
8.897551669316375
 10
4.868298887122417
 20
8.805977742448329
 10
5.0056597774244835
 20
8.760190779014307
  0
LWPOLYLINE
  5
1B1
330
17
100
AcDbEntity
  8
I-SCHEMAT
  6
Continuous
370
25
 48
0.05
420
0
100
AcDbPolyline
 90
16
 70
129
 10
4.212400635930048
 20
9.688521462639109
 10
4.29145286014138
 20
9.699135149922048
 10
4.354856234200253
 20
9.747528503478602
 10
4.4032495877568065
 20
9.810931877537474
 10
4.413863275039746
 20
9.889984101748807
 10
4.4032495877568065
 20
9.969036325960142
 10
4.354856234200253
 20
10.032439700019014
 10
4.29145286014138
 20
10.080833053575565
 10
4.212400635930048
 20
10.091446740858505
 10
4.133348411718715
 20
10.080833053575565
 10
4.069945037659842
 20
10.032439700019014
 10
4.021551684103289
 20
9.969036325960142
 10
4.010937996820349
 20
9.889984101748807
 10
4.021551684103289
 20
9.810931877537474
 10
4.069945037659842
 20
9.747528503478602
 10
4.133348411718715
 20
9.699135149922048
  0
LWPOLYLINE
  5
1B2
330
17
100
AcDbEntity
  8
I-SCHEMAT
  6
Continuous
370
25
 48
0.05
420
0
100
AcDbPolyline
 90
16
 70
129
 10
4.313131955484897
 20
8.021875993640698
 10
4.477965023847377
 20
8.021875993640698
 10
4.5781240063593005
 20
8.03618441971383
 10
4.6925914149443555
 20
8.150651828298887
 10
4.706899841017488
 20
8.25081081081081
 10
4.706899841017488
 20
8.59879173290938
 10
4.6925914149443555
 20
8.698950715421303
 10
4.5781240063593005
 20
8.813418124006358
 10
4.477965023847377
 20
8.82772655007949
 10
4.313131955484897
 20
8.82772655007949
 10
4.212972972972973
 20
8.813418124006358
 10
4.098505564387917
 20
8.698950715421303
 10
4.084197138314785
 20
8.59879173290938
 10
4.084197138314785
 20
8.25081081081081
 10
4.098505564387917
 20
8.150651828298887
 10
4.212972972972973
 20
8.03618441971383
  0
LWPOLYLINE
  5
1B3
330
17
100
AcDbEntity
  8
I-SCHEMAT
  6
Continuous
370
25
 48
0.05
420
0
100
AcDbPolyline
 90
4
 70
129
 10
13.736089030206676
 20
12.270906200317965
 10
17.765341812400635
 20
12.270906200317965
 10
17.765341812400635
 20
12.59141494435612
 10
13.736089030206676
 20
12.59141494435612
  0
LWPOLYLINE
  5
1B4
330
17
100
AcDbEntity
  8
I-SCHEMAT
  6
Continuous
370
25
 48
0.05
420
0
100
AcDbPolyline
 90
4
 70
129
 10
13.736089030206676
 20
12.82034976152623
 10
17.765341812400635
 20
12.82034976152623
 10
17.765341812400635
 20
13.140858505564387
 10
13.736089030206676
 20
13.140858505564387
  0
LWPOLYLINE
  5
1B5
330
17
100
AcDbEntity
  8
I-SCHEMAT
  6
Continuous
370
25
 48
0.05
420
0
100
AcDbPolyline
 90
4
 70
129
 10
19.047376788553258
 20
12.270906200317965
 10
23.076629570747215
 20
12.270906200317965
 10
23.076629570747215
 20
12.59141494435612
 10
19.047376788553258
 20
12.59141494435612
  0
LWPOLYLINE
  5
1B6
330
17
100
AcDbEntity
  8
I-SCHEMAT
  6
Continuous
370
25
 48
0.05
420
0
100
AcDbPolyline
 90
4
 70
129
 10
19.047376788553258
 20
12.82034976152623
 10
23.076629570747215
 20
12.82034976152623
 10
23.076629570747215
 20
13.140858505564387
 10
19.047376788553258
 20
13.140858505564387
  0
LWPOLYLINE
  5
1B7
330
17
100
AcDbEntity
  8
I-SCHEMAT
  6
Continuous
370
25
 48
0.05
420
0
100
AcDbPolyline
 90
4
 70
129
 10
0.9157392686804451
 20
0.27472178060413355
 10
1.5567567567567566
 20
0.27472178060413355
 10
1.5567567567567566
 20
0.8241653418124006
 10
0.9157392686804451
 20
0.8241653418124006
  0
LWPOLYLINE
  5
1B8
330
17
100
AcDbEntity
  8
I-SCHEMAT
  6
Continuous
370
25
 48
0.05
420
0
100
AcDbPolyline
 90
4
 70
129
 10
2.655643879173291
 20
0.27472178060413355
 10
3.2966613672496026
 20
0.27472178060413355
 10
3.2966613672496026
 20
0.8241653418124006
 10
2.655643879173291
 20
0.8241653418124006
  0
LWPOLYLINE
  5
1B9
330
17
100
AcDbEntity
  8
I-SCHEMAT
  6
Continuous
370
25
 48
0.05
420
0
100
AcDbPolyline
 90
4
 70
129
 10
3.6629570747217803
 20
0.27472178060413355
 10
4.303974562798092
 20
0.27472178060413355
 10
4.303974562798092
 20
0.8241653418124006
 10
3.6629570747217803
 20
0.8241653418124006
  0
LWPOLYLINE
  5
1BA
330
17
100
AcDbEntity
  8
I-SCHEMAT
  6
Continuous
370
25
 48
0.05
420
3050327
100
AcDbPolyline
 90
4
 70
129
 10
1.9413672496025436
 20
0.38461049284578697
 10
1.9413672496025436
 20
0.7142766295707472
 10
2.271033386327504
 20
0.38461049284578697
 10
2.271033386327504
 20
0.7142766295707472
  0
LWPOLYLINE
  5
1BB
330
17
100
AcDbEntity
  8
I-SCHEMAT
  6
Continuous
370
25
 48
0.05
420
0
100
AcDbPolyline
 90
4
 70
129
 10
7.692209856915739
 20
0.7325914149443561
 10
8.241653418124006
 20
0.7325914149443561
 10
8.241653418124006
 20
1.1904610492845786
 10
7.692209856915739
 20
1.1904610492845786
  0
LWPOLYLINE
  5
1BC
330
17
100
AcDbEntity
  8
I-SCHEMAT
  6
Continuous
370
25
 48
0.05
420
0
100
AcDbPolyline
 90
16
 70
129
 10
6.327758346581875
 20
0.8791096979332272
 10
6.492591414944355
 20
0.8791096979332272
 10
6.592750397456279
 20
0.8934181240063592
 10
6.707217806041334
 20
1.007885532591415
 10
6.721526232114466
 20
1.1080445151033385
 10
6.721526232114466
 20
1.4560254372019077
 10
6.707217806041334
 20
1.5561844197138313
 10
6.592750397456279
 20
1.670651828298887
 10
6.492591414944355
 20
1.6849602543720188
 10
6.327758346581875
 20
1.6849602543720188
 10
6.227599364069952
 20
1.670651828298887
 10
6.113131955484896
 20
1.5561844197138313
 10
6.098823529411764
 20
1.4560254372019077
 10
6.098823529411764
 20
1.1080445151033385
 10
6.113131955484896
 20
1.007885532591415
 10
6.227599364069952
 20
0.8934181240063592
  0
LWPOLYLINE
  5
1BD
330
17
100
AcDbEntity
  8
I-SCHEMAT
  6
Continuous
370
25
 48
0.05
420
0
100
AcDbPolyline
 90
3
 70
129
 10
12.087758346581875
 20
7.417488076311606
 10
12.087758346581875
 20
7.966931637519872
 10
12.637201907790143
 20
7.692209856915739
  0
LWPOLYLINE
  5
1BE
330
17
100
AcDbEntity
  8
I-SCHEMAT
  6
Continuous
370
25
 48
0.05
420
0
100
AcDbPolyline
 90
3
 70
129
 10
13.18664546899841
 20
7.417488076311606
 10
13.18664546899841
 20
7.966931637519872
 10
12.637201907790143
 20
7.692209856915739
  0
LWPOLYLINE
  5
1BF
330
17
100
AcDbEntity
  8
I-SCHEMAT
  6
Continuous
370
25
 48
0.05
420
0
100
AcDbPolyline
 90
16
 70
129
 10
11.35516693163752
 20
5.146454689984102
 10
11.419846024174065
 20
5.15513861594287
 10
11.471721512040416
 20
5.194733177943687
 10
11.51131607404123
 20
5.246608665810037
 10
11.52
 20
5.311287758346582
 10
11.51131607404123
 20
5.375966850883127
 10
11.471721512040416
 20
5.4278423387494765
 10
11.419846024174065
 20
5.467436900750293
 10
11.35516693163752
 20
5.476120826709061
 10
11.290487839100974
 20
5.467436900750293
 10
11.238612351234623
 20
5.4278423387494765
 10
11.199017789233809
 20
5.375966850883127
 10
11.19033386327504
 20
5.311287758346582
 10
11.199017789233809
 20
5.246608665810037
 10
11.238612351234623
 20
5.194733177943687
 10
11.290487839100974
 20
5.15513861594287
  0
LWPOLYLINE
  5
1C0
330
17
100
AcDbEntity
  8
I-SCHEMAT
  6
Continuous
370
18
 48
0.05
420
0
100
AcDbPolyline
 90
2
 70
128
 10
1.5567567567567566
 20
10.16470588235294
 10
1.5567567567567566
 20
11.813036565977741
  0
LWPOLYLINE
  5
1C1
330
17
100
AcDbEntity
  8
I-SCHEMAT
  6
Continuous
370
18
 48
0.05
420
0
100
AcDbPolyline
 90
2
 70
128
 10
0.7325914149443561
 20
10.988871224165342
 10
2.3809220985691573
 20
10.988871224165342
  0
LWPOLYLINE
  5
1C2
330
17
100
AcDbEntity
  8
I-SCHEMAT
  6
KRESKOWA_DROBNA
370
25
 48
0.05
420
0
100
AcDbPolyline
 90
2
 70
128
 10
3.2966613672496026
 20
8.424801271860096
 10
3.2966613672496026
 20
13.736089030206676
  0
LWPOLYLINE
  5
1C3
330
17
100
AcDbEntity
  8
I-SCHEMAT
  6
Continuous
370
50
 48
0.05
420
12597547
100
AcDbPolyline
 90
2
 70
128
 10
2.7472178060413355
 20
11.721462639109697
 10
6.593322734499205
 20
11.721462639109697
  0
LWPOLYLINE
  5
1C4
330
17
100
AcDbEntity
  8
I-SCHEMAT
  6
Continuous
370
50
 48
0.05
420
3042740
100
AcDbPolyline
 90
2
 70
128
 10
2.7472178060413355
 20
9.889984101748807
 10
6.410174880763115
 20
9.889984101748807
  0
LWPOLYLINE
  5
1C5
330
17
100
AcDbEntity
  8
I-SCHEMAT
  6
Continuous
370
25
 48
0.05
420
0
100
AcDbPolyline
 90
2
 70
128
 10
5.128139904610492
 20
11.95039745627981
 10
5.311287758346582
 20
12.133545310015897
  0
LWPOLYLINE
  5
1C6
330
17
100
AcDbEntity
  8
I-SCHEMAT
  6
Continuous
370
50
 48
0.05
420
12597547
100
AcDbPolyline
 90
2
 70
128
 10
6.593322734499205
 20
11.721462639109697
 10
6.776470588235294
 20
11.721462639109697
  0
LWPOLYLINE
  5
1C7
330
17
100
AcDbEntity
  8
I-SCHEMAT
  6
Continuous
370
50
 48
0.05
420
12597547
100
AcDbPolyline
 90
3
 70
128
 10
6.959618441971383
 20
11.35516693163752
 10
6.959618441971383
 20
4.578696343402226
 10
8.791096979332274
 20
4.578696343402226
  0
LWPOLYLINE
  5
1C8
330
17
100
AcDbEntity
  8
I-SCHEMAT
  6
Continuous
370
25
 48
0.05
420
12597547
100
AcDbPolyline
 90
8
 70
128
 10
8.791096979332274
 20
4.578696343402226
 10
10.439427662957074
 20
4.303974562798092
 10
8.791096979332274
 20
4.029252782193958
 10
10.439427662957074
 20
3.754531001589825
 10
8.791096979332274
 20
3.4798092209856915
 10
10.439427662957074
 20
3.2050874403815577
 10
8.791096979332274
 20
2.9303656597774244
 10
10.439427662957074
 20
2.655643879173291
  0
LWPOLYLINE
  5
1C9
330
17
100
AcDbEntity
  8
I-SCHEMAT
  6
Continuous
370
50
 48
0.05
420
3042740
100
AcDbPolyline
 90
6
 70
128
 10
10.439427662957074
 20
2.655643879173291
 10
8.791096979332274
 20
2.655643879173291
 10
7.692209856915739
 20
2.655643879173291
 10
7.692209856915739
 20
9.157392686804451
 10
6.043879173290938
 20
9.157392686804451
 10
6.043879173290938
 20
9.889984101748807
  0
LWPOLYLINE
  5
1CA
330
17
100
AcDbEntity
  8
I-SCHEMAT
  6
Continuous
370
35
 48
0.05
420
0
100
AcDbPolyline
 90
2
 70
128
 10
10.805723370429252
 20
2.014626391096979
 10
11.263593004769476
 20
2.014626391096979
  0
LWPOLYLINE
  5
1CB
330
17
100
AcDbEntity
  8
I-SCHEMAT
  6
Continuous
370
25
 48
0.05
420
0
100
AcDbPolyline
 90
2
 70
128
 10
4.395548489666137
 20
9.889984101748807
 10
4.395548489666137
 20
8.791096979332274
  0
LWPOLYLINE
  5
1CC
330
17
100
AcDbEntity
  8
I-SCHEMAT
  6
Continuous
370
50
 48
0.05
420
12597547
100
AcDbPolyline
 90
2
 70
128
 10
7.325914149443561
 20
11.721462639109697
 10
13.736089030206676
 20
11.721462639109697
  0
LWPOLYLINE
  5
1CD
330
17
100
AcDbEntity
  8
I-SCHEMAT
  6
Continuous
370
50
 48
0.05
420
3042740
100
AcDbPolyline
 90
2
 70
128
 10
13.736089030206676
 20
9.889984101748807
 10
6.410174880763115
 20
9.889984101748807
  0
LWPOLYLINE
  5
1CE
330
17
100
AcDbEntity
  8
I-SCHEMAT
  6
Continuous
370
35
 48
0.05
420
12597547
100
AcDbPolyline
 90
3
 70
128
 10
13.736089030206676
 20
11.721462639109697
 10
13.827662957074722
 20
11.721462639109697
 10
13.827662957074722
 20
12.270906200317965
  0
LWPOLYLINE
  5
1CF
330
17
100
AcDbEntity
  8
I-SCHEMAT
  6
Continuous
370
35
 48
0.05
420
3042740
100
AcDbPolyline
 90
4
 70
128
 10
17.67376788553259
 20
12.82034976152623
 10
17.948489666136723
 20
12.82034976152623
 10
17.948489666136723
 20
9.889984101748807
 10
13.736089030206676
 20
9.889984101748807
  0
LWPOLYLINE
  5
1D0
330
17
100
AcDbEntity
  8
I-SCHEMAT
  6
Continuous
370
18
 48
0.05
420
8359053
100
AcDbPolyline
 90
4
 70
128
 10
14.01081081081081
 20
12.59141494435612
 10
14.01081081081081
 20
14.651828298887121
 10
14.212273449920508
 20
14.651828298887121
 10
14.212273449920508
 20
13.140858505564387
  0
LWPOLYLINE
  5
1D1
330
17
100
AcDbEntity
  8
I-SCHEMAT
  6
Continuous
370
18
 48
0.05
420
8359053
100
AcDbPolyline
 90
4
 70
128
 10
14.432050874403814
 20
12.59141494435612
 10
14.432050874403814
 20
14.651828298887121
 10
14.633513513513511
 20
14.651828298887121
 10
14.633513513513511
 20
13.140858505564387
  0
LWPOLYLINE
  5
1D2
330
17
100
AcDbEntity
  8
I-SCHEMAT
  6
Continuous
370
18
 48
0.05
420
8359053
100
AcDbPolyline
 90
4
 70
128
 10
14.85329093799682
 20
12.59141494435612
 10
14.85329093799682
 20
14.651828298887121
 10
15.054753577106515
 20
14.651828298887121
 10
15.054753577106515
 20
13.140858505564387
  0
LWPOLYLINE
  5
1D3
330
17
100
AcDbEntity
  8
I-SCHEMAT
  6
Continuous
370
18
 48
0.05
420
8359053
100
AcDbPolyline
 90
4
 70
128
 10
15.274531001589825
 20
12.59141494435612
 10
15.274531001589825
 20
14.651828298887121
 10
15.475993640699523
 20
14.651828298887121
 10
15.475993640699523
 20
13.140858505564387
  0
LWPOLYLINE
  5
1D4
330
17
100
AcDbEntity
  8
I-SCHEMAT
  6
Continuous
370
18
 48
0.05
420
8359053
100
AcDbPolyline
 90
4
 70
128
 10
15.69577106518283
 20
12.59141494435612
 10
15.69577106518283
 20
14.651828298887121
 10
15.897233704292526
 20
14.651828298887121
 10
15.897233704292526
 20
13.140858505564387
  0
LWPOLYLINE
  5
1D5
330
17
100
AcDbEntity
  8
I-SCHEMAT
  6
Continuous
370
18
 48
0.05
420
8359053
100
AcDbPolyline
 90
4
 70
128
 10
16.117011128775832
 20
12.59141494435612
 10
16.117011128775832
 20
14.651828298887121
 10
16.318473767885532
 20
14.651828298887121
 10
16.318473767885532
 20
13.140858505564387
  0
LWPOLYLINE
  5
1D6
330
17
100
AcDbEntity
  8
I-SCHEMAT
  6
Continuous
370
18
 48
0.05
420
8359053
100
AcDbPolyline
 90
4
 70
128
 10
16.53825119236884
 20
12.59141494435612
 10
16.53825119236884
 20
14.651828298887121
 10
16.739713831478536
 20
14.651828298887121
 10
16.739713831478536
 20
13.140858505564387
  0
LWPOLYLINE
  5
1D7
330
17
100
AcDbEntity
  8
I-SCHEMAT
  6
Continuous
370
18
 48
0.05
420
8359053
100
AcDbPolyline
 90
4
 70
128
 10
16.959491255961844
 20
12.59141494435612
 10
16.959491255961844
 20
14.651828298887121
 10
17.16095389507154
 20
14.651828298887121
 10
17.16095389507154
 20
13.140858505564387
  0
LWPOLYLINE
  5
1D8
330
17
100
AcDbEntity
  8
I-SCHEMAT
  6
Continuous
370
18
 48
0.05
420
8359053
100
AcDbPolyline
 90
4
 70
128
 10
17.38073131955485
 20
12.59141494435612
 10
17.38073131955485
 20
14.651828298887121
 10
17.582193958664547
 20
14.651828298887121
 10
17.582193958664547
 20
13.140858505564387
  0
LWPOLYLINE
  5
1D9
330
17
100
AcDbEntity
  8
I-SCHEMAT
  6
Continuous
370
35
 48
0.05
420
12597547
100
AcDbPolyline
 90
3
 70
128
 10
13.736089030206676
 20
11.721462639109697
 10
19.138950715421302
 20
11.721462639109697
 10
19.138950715421302
 20
12.270906200317965
  0
LWPOLYLINE
  5
1DA
330
17
100
AcDbEntity
  8
I-SCHEMAT
  6
Continuous
370
35
 48
0.05
420
3042740
100
AcDbPolyline
 90
4
 70
128
 10
22.98505564387917
 20
12.82034976152623
 10
23.259777424483307
 20
12.82034976152623
 10
23.259777424483307
 20
9.889984101748807
 10
13.736089030206676
 20
9.889984101748807
  0
LWPOLYLINE
  5
1DB
330
17
100
AcDbEntity
  8
I-SCHEMAT
  6
Continuous
370
18
 48
0.05
420
8359053
100
AcDbPolyline
 90
4
 70
128
 10
19.32209856915739
 20
12.59141494435612
 10
19.32209856915739
 20
14.651828298887121
 10
19.52356120826709
 20
14.651828298887121
 10
19.52356120826709
 20
13.140858505564387
  0
LWPOLYLINE
  5
1DC
330
17
100
AcDbEntity
  8
I-SCHEMAT
  6
Continuous
370
18
 48
0.05
420
8359053
100
AcDbPolyline
 90
4
 70
128
 10
19.743338632750397
 20
12.59141494435612
 10
19.743338632750397
 20
14.651828298887121
 10
19.944801271860094
 20
14.651828298887121
 10
19.944801271860094
 20
13.140858505564387
  0
LWPOLYLINE
  5
1DD
330
17
100
AcDbEntity
  8
I-SCHEMAT
  6
Continuous
370
18
 48
0.05
420
8359053
100
AcDbPolyline
 90
4
 70
128
 10
20.1645786963434
 20
12.59141494435612
 10
20.1645786963434
 20
14.651828298887121
 10
20.366041335453097
 20
14.651828298887121
 10
20.366041335453097
 20
13.140858505564387
  0
LWPOLYLINE
  5
1DE
330
17
100
AcDbEntity
  8
I-SCHEMAT
  6
Continuous
370
18
 48
0.05
420
8359053
100
AcDbPolyline
 90
4
 70
128
 10
20.58581875993641
 20
12.59141494435612
 10
20.58581875993641
 20
14.651828298887121
 10
20.787281399046105
 20
14.651828298887121
 10
20.787281399046105
 20
13.140858505564387
  0
LWPOLYLINE
  5
1DF
330
17
100
AcDbEntity
  8
I-SCHEMAT
  6
Continuous
370
18
 48
0.05
420
8359053
100
AcDbPolyline
 90
4
 70
128
 10
21.007058823529412
 20
12.59141494435612
 10
21.007058823529412
 20
14.651828298887121
 10
21.20852146263911
 20
14.651828298887121
 10
21.20852146263911
 20
13.140858505564387
  0
LWPOLYLINE
  5
1E0
330
17
100
AcDbEntity
  8
I-SCHEMAT
  6
Continuous
370
18
 48
0.05
420
8359053
100
AcDbPolyline
 90
4
 70
128
 10
21.428298887122416
 20
12.59141494435612
 10
21.428298887122416
 20
14.651828298887121
 10
21.629761526232112
 20
14.651828298887121
 10
21.629761526232112
 20
13.140858505564387
  0
LWPOLYLINE
  5
1E1
330
17
100
AcDbEntity
  8
I-SCHEMAT
  6
Continuous
370
18
 48
0.05
420
8359053
100
AcDbPolyline
 90
4
 70
128
 10
21.84953895071542
 20
12.59141494435612
 10
21.84953895071542
 20
14.651828298887121
 10
22.051001589825116
 20
14.651828298887121
 10
22.051001589825116
 20
13.140858505564387
  0
LWPOLYLINE
  5
1E2
330
17
100
AcDbEntity
  8
I-SCHEMAT
  6
Continuous
370
18
 48
0.05
420
8359053
100
AcDbPolyline
 90
4
 70
128
 10
22.270779014308424
 20
12.59141494435612
 10
22.270779014308424
 20
14.651828298887121
 10
22.47224165341812
 20
14.651828298887121
 10
22.47224165341812
 20
13.140858505564387
  0
LWPOLYLINE
  5
1E3
330
17
100
AcDbEntity
  8
I-SCHEMAT
  6
Continuous
370
18
 48
0.05
420
8359053
100
AcDbPolyline
 90
4
 70
128
 10
22.69201907790143
 20
12.59141494435612
 10
22.69201907790143
 20
14.651828298887121
 10
22.893481717011127
 20
14.651828298887121
 10
22.893481717011127
 20
13.140858505564387
  0
LWPOLYLINE
  5
1E4
330
17
100
AcDbEntity
  8
I-SCHEMAT
  6
Continuous
370
50
 48
0.05
420
3050327
100
AcDbPolyline
 90
2
 70
128
 10
0.36629570747217804
 20
0.5494435612082671
 10
12.82034976152623
 20
0.5494435612082671
  0
LWPOLYLINE
  5
1E5
330
17
100
AcDbEntity
  8
I-SCHEMAT
  6
Continuous
370
50
 48
0.05
420
3050327
100
AcDbPolyline
 90
2
 70
128
 10
8.974244833068362
 20
0.5494435612082671
 10
8.974244833068362
 20
1.282034976152623
  0
LWPOLYLINE
  5
1E6
330
17
100
AcDbEntity
  8
I-SCHEMAT
  6
Continuous
370
25
 48
0.05
420
0
100
AcDbPolyline
 90
2
 70
128
 10
6.410174880763115
 20
0.5494435612082671
 10
6.410174880763115
 20
0.9157392686804451
  0
LWPOLYLINE
  5
1E7
330
17
100
AcDbEntity
  8
I-SCHEMAT
  6
Continuous
370
50
 48
0.05
420
13849600
100
AcDbPolyline
 90
3
 70
128
 10
10.256279809220985
 20
6.776470588235294
 10
10.256279809220985
 20
7.692209856915739
 10
12.087758346581875
 20
7.692209856915739
  0
LWPOLYLINE
  5
1E8
330
17
100
AcDbEntity
  8
I-SCHEMAT
  6
Continuous
370
25
 48
0.05
420
3050327
100
AcDbPolyline
 90
4
 70
128
 10
12.82034976152623
 20
0.5494435612082671
 10
12.82034976152623
 20
5.494435612082671
 10
12.637201907790143
 20
5.494435612082671
 10
12.637201907790143
 20
7.417488076311606
  0
LWPOLYLINE
  5
1E9
330
17
100
AcDbEntity
  8
I-SCHEMAT
  6
Continuous
370
50
 48
0.05
420
13849600
100
AcDbPolyline
 90
2
 70
128
 10
13.18664546899841
 20
7.692209856915739
 10
16.941176470588236
 20
7.692209856915739
  0
LWPOLYLINE
  5
1EA
330
17
100
AcDbEntity
  8
I-SCHEMAT
  6
KRESKOWA_DROBNA
370
25
 48
0.05
420
9323693
100
AcDbPolyline
 90
4
 70
128
 10
16.941176470588236
 20
6.959618441971383
 10
11.35516693163752
 20
6.959618441971383
 10
11.35516693163752
 20
3.6629570747217803
 10
10.851510333863274
 20
3.6629570747217803
  0
LWPOLYLINE
  5
1EB
330
17
100
AcDbEntity
  8
I-SCHEMAT
  6
Continuous
370
50
 48
0.05
420
12597547
100
AcDbPolyline
 90
2
 70
128
 10
18.314785373608903
 20
5.402861685214626
 10
19.047376788553258
 20
5.402861685214626
  0
LWPOLYLINE
  5
1EC
330
17
100
AcDbEntity
  8
I-SCHEMAT
  6
Continuous
370
50
 48
0.05
420
3042740
100
AcDbPolyline
 90
2
 70
128
 10
18.314785373608903
 20
5.036565977742448
 10
19.047376788553258
 20
5.036565977742448
  0
LWPOLYLINE
  5
1ED
330
17
100
AcDbEntity
  8
I-SCHEMAT
  6
Continuous
370
50
 48
0.05
420
3050327
100
AcDbPolyline
 90
2
 70
128
 10
18.314785373608903
 20
4.67027027027027
 10
19.047376788553258
 20
4.67027027027027
  0
LWPOLYLINE
  5
1EE
330
17
100
AcDbEntity
  8
I-SCHEMAT
  6
Continuous
370
50
 48
0.05
420
13849600
100
AcDbPolyline
 90
2
 70
128
 10
18.314785373608903
 20
4.303974562798092
 10
19.047376788553258
 20
4.303974562798092
  0
LWPOLYLINE
  5
1EF
330
17
100
AcDbEntity
  8
I-SCHEMAT
  6
KRESKOWA_DROBNA
370
50
 48
0.05
420
9323693
100
AcDbPolyline
 90
2
 70
128
 10
18.314785373608903
 20
3.937678855325914
 10
19.047376788553258
 20
3.937678855325914
  0
TEXT
  5
1F0
330
17
100
AcDbEntity
  8
I-SCHEMAT
420
0
100
AcDbText
 10
0.9060095389507151
 20
9.432114467408585
 30
0.0
 40
0.09000000000000001
  1
PC R290 — monoblok
  7
PL_ARIAL
 11
0.9060095389507151
 21
9.432114467408585
 31
0.0
100
AcDbText
  0
TEXT
  5
1F1
330
17
100
AcDbEntity
  8
I-SCHEMAT
420
0
100
AcDbText
 10
0.36629570747217804
 20
12.943347036111742
 30
0.0
 40
0.09000000000000001
  1
PC-R290-12 (przykład)
  7
PL_ARIAL
 11
0.36629570747217804
 21
12.943347036111742
 31
0.0
100
AcDbText
  0
TEXT
  5
1F2
330
17
100
AcDbEntity
  8
I-SCHEMAT
420
0
100
AcDbText
 10
0.36629570747217804
 20
12.803847036111742
 30
0.0
 40
0.09000000000000001
  1
P(A−7/W35) = 10,2 kW; SCOP 4,5
  7
PL_ARIAL
 11
0.36629570747217804
 21
12.803847036111742
 31
0.0
100
AcDbText
  0
TEXT
  5
1F3
330
17
100
AcDbEntity
  8
I-SCHEMAT
420
0
100
AcDbText
 10
0.36629570747217804
 20
12.664347036111742
 30
0.0
 40
0.09000000000000001
  1
L_WA 60 dB(A); θ_biv = −10,7 °C
  7
PL_ARIAL
 11
0.36629570747217804
 21
12.664347036111742
 31
0.0
100
AcDbText
  0
TEXT
  5
1F4
330
17
100
AcDbEntity
  8
I-SCHEMAT
420
0
100
AcDbText
 10
3.5134885305473533
 20
12.39649330002271
 30
0.0
 40
0.09000000000000001
  1
ściana zewnętrzna
 50
90.0
  7
PL_ARIAL
 11
3.5134885305473533
 21
12.39649330002271
 31
0.0
100
AcDbText
  0
TEXT
  5
1F5
330
17
100
AcDbEntity
  8
I-SCHEMAT
420
0
100
AcDbText
 10
3.4798092209856915
 20
11.17201907790143
 30
0.0
 40
0.09000000000000001
  1
PE-RT/Al/PE-RT 40×3,5; na zewnątrz izolacja ≥ 60 mm
  7
PL_ARIAL
 11
3.4798092209856915
 21
11.17201907790143
 31
0.0
100
AcDbText
  0
TEXT
  5
1F6
330
17
100
AcDbEntity
  8
I-SCHEMAT
420
0
100
AcDbText
 10
3.638929139223257
 20
9.415611741994095
 30
0.0
 40
0.09000000000000001
  1
zawory
  7
PL_ARIAL
 11
3.638929139223257
 21
9.415611741994095
 31
0.0
100
AcDbText
  0
TEXT
  5
1F7
330
17
100
AcDbEntity
  8
I-SCHEMAT
420
0
100
AcDbText
 10
3.489886441062912
 20
9.276111741994095
 30
0.0
 40
0.09000000000000001
  1
antyzamarz.
  7
PL_ARIAL
 11
3.489886441062912
 21
9.276111741994095
 31
0.0
100
AcDbText
  0
TEXT
  5
1F8
330
17
100
AcDbEntity
  8
I-SCHEMAT
420
0
100
AcDbText
 10
5.357074721780604
 20
12.133545310015897
 30
0.0
 40
0.09000000000000001
  1
ZB 3,0 bar
  7
PL_ARIAL
 11
5.357074721780604
 21
12.133545310015897
 31
0.0
100
AcDbText
  0
TEXT
  5
1F9
330
17
100
AcDbEntity
  8
I-SCHEMAT
420
0
100
AcDbText
 10
7.325914149443561
 20
11.996184419713831
 30
0.0
 40
0.09000000000000001
  1
ZP3D c.o./c.w.u.
  7
PL_ARIAL
 11
7.325914149443561
 21
11.996184419713831
 31
0.0
100
AcDbText
  0
TEXT
  5
1FA
330
17
100
AcDbEntity
  8
I-SCHEMAT
420
0
100
AcDbText
 10
9.137943447649329
 20
6.211096638655461
 30
0.0
 40
0.09000000000000001
  1
zasobnik c.w.u.
  7
PL_ARIAL_B
 11
9.137943447649329
 21
6.211096638655461
 31
0.0
100
AcDbText
  0
TEXT
  5
1FB
330
17
100
AcDbEntity
  8
I-SCHEMAT
420
0
100
AcDbText
 10
9.36807404042698
 20
6.071596638655461
 30
0.0
 40
0.09000000000000001
  1
400 dm³
  7
PL_ARIAL_B
 11
9.36807404042698
 21
6.071596638655461
 31
0.0
100
AcDbText
  0
TEXT
  5
1FC
330
17
100
AcDbEntity
  8
I-SCHEMAT
420
0
100
AcDbText
 10
9.037743583920053
 20
5.128139904610492
 30
0.0
 40
0.09000000000000001
  1
wężownica ≥ 3,0 m²
  7
PL_ARIAL
 11
9.037743583920053
 21
5.128139904610492
 31
0.0
100
AcDbText
  0
TEXT
  5
1FD
330
17
100
AcDbEntity
  8
I-SCHEMAT
420
0
100
AcDbText
 10
11.813036565977741
 20
2.039376391096979
 30
0.0
 40
0.09000000000000001
  1
grzałka el. — dezynfekcja 75 °C
  7
PL_ARIAL
 11
11.813036565977741
 21
2.039376391096979
 31
0.0
100
AcDbText
  0
TEXT
  5
1FE
330
17
100
AcDbEntity
  8
I-SCHEMAT
420
0
100
AcDbText
 10
11.813036565977741
 20
1.8998763910969791
 30
0.0
 40
0.09000000000000001
  1
(WT §120 ust. 2a)
  7
PL_ARIAL
 11
11.813036565977741
 21
1.8998763910969791
 31
0.0
100
AcDbText
  0
TEXT
  5
1FF
330
17
100
AcDbEntity
  8
I-SCHEMAT
420
0
100
AcDbText
 10
5.070640472405178
 20
9.984484101748807
 30
0.0
 40
0.09000000000000001
  1
bufor
  7
PL_ARIAL
 11
5.070640472405178
 21
9.984484101748807
 31
0.0
100
AcDbText
  0
TEXT
  5
200
330
17
100
AcDbEntity
  8
I-SCHEMAT
420
0
100
AcDbText
 10
5.11059164206223
 20
9.844984101748807
 30
0.0
 40
0.09000000000000001
  1
100
  7
PL_ARIAL
 11
5.11059164206223
 21
9.844984101748807
 31
0.0
100
AcDbText
  0
TEXT
  5
201
330
17
100
AcDbEntity
  8
I-SCHEMAT
420
0
100
AcDbText
 10
5.107075857369975
 20
9.705484101748807
 30
0.0
 40
0.09000000000000001
  1
dm³
  7
PL_ARIAL
 11
5.107075857369975
 21
9.705484101748807
 31
0.0
100
AcDbText
  0
TEXT
  5
202
330
17
100
AcDbEntity
  8
I-SCHEMAT
420
0
100
AcDbText
 10
4.012419940949353
 20
10.33135101067454
 30
0.0
 40
0.09000000000000001
  1
pompa
  7
PL_ARIAL
 11
4.012419940949353
 21
10.33135101067454
 31
0.0
100
AcDbText
  0
TEXT
  5
203
330
17
100
AcDbEntity
  8
I-SCHEMAT
420
0
100
AcDbText
 10
3.8892857142857142
 20
10.19185101067454
 30
0.0
 40
0.09000000000000001
  1
H ≈ 54 kPa
  7
PL_ARIAL
 11
3.8892857142857142
 21
10.19185101067454
 31
0.0
100
AcDbText
  0
TEXT
  5
204
330
17
100
AcDbEntity
  8
I-SCHEMAT
420
0
100
AcDbText
 10
4.286569384510561
 20
8.379801271860096
 30
0.0
 40
0.09000000000000001
  1
NW
  7
PL_ARIAL
 11
4.286569384510561
 21
8.379801271860096
 31
0.0
100
AcDbText
  0
TEXT
  5
205
330
17
100
AcDbEntity
  8
I-SCHEMAT
420
0
100
AcDbText
 10
4.7618441971383145
 20
8.379801271860096
 30
0.0
 40
0.09000000000000001
  1
NW c.o. 25 dm³, p₀ = 0,8 bar
  7
PL_ARIAL
 11
4.7618441971383145
 21
8.379801271860096
 31
0.0
100
AcDbText
  0
TEXT
  5
206
330
17
100
AcDbEntity
  8
I-SCHEMAT
420
0
100
AcDbText
 10
14.62140245287304
 20
14.926550079491255
 30
0.0
 40
0.09000000000000001
  1
rozdzielacz P0: 18 pętli, Σṁ = 966 kg/h
  7
PL_ARIAL
 11
14.62140245287304
 21
14.926550079491255
 31
0.0
100
AcDbText
  0
TEXT
  5
207
330
17
100
AcDbEntity
  8
I-SCHEMAT
420
0
100
AcDbText
 10
19.937544855780146
 20
14.926550079491255
 30
0.0
 40
0.09000000000000001
  1
rozdzielacz P1: 11 pętli, Σṁ = 712 kg/h
  7
PL_ARIAL
 11
19.937544855780146
 21
14.926550079491255
 31
0.0
100
AcDbText
  0
TEXT
  5
208
330
17
100
AcDbEntity
  8
I-SCHEMAT
420
0
100
AcDbText
 10
13.736089030206676
 20
10.972368498750852
 30
0.0
 40
0.09000000000000001
  1
Ogrzewanie podłogowe (PN-EN 1264): θ_V,des = 35,0 °C, PE-X 16×2,
  7
PL_ARIAL
 11
13.736089030206676
 21
10.972368498750852
 31
0.0
100
AcDbText
  0
TEXT
  5
209
330
17
100
AcDbEntity
  8
I-SCHEMAT
420
0
100
AcDbText
 10
13.736089030206676
 20
10.832868498750852
 30
0.0
 40
0.09000000000000001
  1
pętle ≤ 100 m; siłowniki + termostaty pokojowe (WT §135 ust. 7)
  7
PL_ARIAL
 11
13.736089030206676
 21
10.832868498750852
 31
0.0
100
AcDbText
  0
TEXT
  5
20A
330
17
100
AcDbEntity
  8
I-SCHEMAT
420
0
100
AcDbText
 10
1.1200227117874175
 20
0.504443561208267
 30
0.0
 40
0.09000000000000001
  1
WM
  7
PL_ARIAL
 11
1.1200227117874175
 21
0.504443561208267
 31
0.0
100
AcDbText
  0
TEXT
  5
20B
330
17
100
AcDbEntity
  8
I-SCHEMAT
420
0
100
AcDbText
 10
2.8888916647740177
 20
0.504443561208267
 30
0.0
 40
0.09000000000000001
  1
EA
  7
PL_ARIAL
 11
2.8888916647740177
 21
0.504443561208267
 31
0.0
100
AcDbText
  0
TEXT
  5
20C
330
17
100
AcDbEntity
  8
I-SCHEMAT
420
0
100
AcDbText
 10
3.845358846241199
 20
0.504443561208267
 30
0.0
 40
0.09000000000000001
  1
RED
  7
PL_ARIAL
 11
3.845358846241199
 21
0.504443561208267
 31
0.0
100
AcDbText
  0
TEXT
  5
20D
330
17
100
AcDbEntity
  8
I-SCHEMAT
420
0
100
AcDbText
 10
2.066249148307972
 20
0.8241653418124006
 30
0.0
 40
0.09000000000000001
  1
F
  7
PL_ARIAL
 11
2.066249148307972
 21
0.8241653418124006
 31
0.0
100
AcDbText
  0
TEXT
  5
20E
330
17
100
AcDbEntity
  8
I-SCHEMAT
420
0
100
AcDbText
 10
0.36629570747217804
 20
1.5567567567567566
 30
0.0
 40
0.09000000000000001
  1
woda zimna z przyłącza: wodomierz DN25 Q3=6.3, filtr, EA (PN-EN 1717), reduktor
  7
PL_ARIAL
 11
0.36629570747217804
 21
1.5567567567567566
 31
0.0
100
AcDbText
  0
TEXT
  5
20F
330
17
100
AcDbEntity
  8
I-SCHEMAT
420
0
100
AcDbText
 10
7.872424483306836
 20
0.9165262321144674
 30
0.0
 40
0.09000000000000001
  1
GB
  7
PL_ARIAL
 11
7.872424483306836
 21
0.9165262321144674
 31
0.0
100
AcDbText
  0
TEXT
  5
210
330
17
100
AcDbEntity
  8
I-SCHEMAT
420
0
100
AcDbText
 10
7.001317283670225
 20
1.5402540313422666
 30
0.0
 40
0.09000000000000001
  1
grupa bezp.
  7
PL_ARIAL
 11
7.001317283670225
 21
1.5402540313422666
 31
0.0
100
AcDbText
  0
TEXT
  5
211
330
17
100
AcDbEntity
  8
I-SCHEMAT
420
0
100
AcDbText
 10
7.070447422212128
 20
1.4007540313422666
 30
0.0
 40
0.09000000000000001
  1
6 bar + EA
  7
PL_ARIAL
 11
7.070447422212128
 21
1.4007540313422666
 31
0.0
100
AcDbText
  0
TEXT
  5
212
330
17
100
AcDbEntity
  8
I-SCHEMAT
420
0
100
AcDbText
 10
6.30119577560754
 20
1.2370349761526231
 30
0.0
 40
0.09000000000000001
  1
NW
  7
PL_ARIAL
 11
6.30119577560754
 21
1.2370349761526231
 31
0.0
100
AcDbText
  0
TEXT
  5
213
330
17
100
AcDbEntity
  8
I-SCHEMAT
420
0
100
AcDbText
 10
5.4551283215989095
 20
1.3067849761526231
 30
0.0
 40
0.09000000000000001
  1
NW c.w.u.
  7
PL_ARIAL
 11
5.4551283215989095
 21
1.3067849761526231
 31
0.0
100
AcDbText
  0
TEXT
  5
214
330
17
100
AcDbEntity
  8
I-SCHEMAT
420
0
100
AcDbText
 10
5.636763570292982
 20
1.1672849761526232
 30
0.0
 40
0.09000000000000001
  1
50 dm³
  7
PL_ARIAL
 11
5.636763570292982
 21
1.1672849761526232
 31
0.0
100
AcDbText
  0
TEXT
  5
215
330
17
100
AcDbEntity
  8
I-SCHEMAT
420
0
100
AcDbText
 10
12.50281512605042
 20
8.150079491255962
 30
0.0
 40
0.09000000000000001
  1
TZM
  7
PL_ARIAL
 11
12.50281512605042
 21
8.150079491255962
 31
0.0
100
AcDbText
  0
TEXT
  5
216
330
17
100
AcDbEntity
  8
I-SCHEMAT
420
0
100
AcDbText
 10
13.736089030206676
 20
7.875357710651828
 30
0.0
 40
0.09000000000000001
  1
c.w.u. do punktów 55–60 °C (WT §120 ust. 2); V_d = 368 dm³/d
  7
PL_ARIAL
 11
13.736089030206676
 21
7.875357710651828
 31
0.0
100
AcDbText
  0
TEXT
  5
217
330
17
100
AcDbEntity
  8
I-SCHEMAT
420
0
100
AcDbText
 10
11.629888712241653
 20
5.336037758346582
 30
0.0
 40
0.09000000000000001
  1
cyrkulacja czasowa 134 dm³/h, 6 h/d;
  7
PL_ARIAL
 11
11.629888712241653
 21
5.336037758346582
 31
0.0
100
AcDbText
  0
TEXT
  5
218
330
17
100
AcDbEntity
  8
I-SCHEMAT
420
0
100
AcDbText
 10
11.629888712241653
 20
5.196537758346582
 30
0.0
 40
0.09000000000000001
  1
η_W,d = 0,80 (metodologia EP)
  7
PL_ARIAL
 11
11.629888712241653
 21
5.196537758346582
 31
0.0
100
AcDbText
  0
TEXT
  5
219
330
17
100
AcDbEntity
  8
I-SCHEMAT
420
0
100
AcDbText
 10
18.314785373608903
 20
5.860731319554849
 30
0.0
 40
0.09000000000000001
  1
Legenda:
  7
PL_ARIAL_B
 11
18.314785373608903
 21
5.860731319554849
 31
0.0
100
AcDbText
  0
TEXT
  5
21A
330
17
100
AcDbEntity
  8
I-SCHEMAT
420
0
100
AcDbText
 10
19.230524642289346
 20
5.357861685214626
 30
0.0
 40
0.09000000000000001
  1
zasilanie c.o. / wężownicy
  7
PL_ARIAL
 11
19.230524642289346
 21
5.357861685214626
 31
0.0
100
AcDbText
  0
TEXT
  5
21B
330
17
100
AcDbEntity
  8
I-SCHEMAT
420
0
100
AcDbText
 10
19.230524642289346
 20
4.991565977742448
 30
0.0
 40
0.09000000000000001
  1
powrót c.o.
  7
PL_ARIAL
 11
19.230524642289346
 21
4.991565977742448
 31
0.0
100
AcDbText
  0
TEXT
  5
21C
330
17
100
AcDbEntity
  8
I-SCHEMAT
420
0
100
AcDbText
 10
19.230524642289346
 20
4.62527027027027
 30
0.0
 40
0.09000000000000001
  1
woda zimna
  7
PL_ARIAL
 11
19.230524642289346
 21
4.62527027027027
 31
0.0
100
AcDbText
  0
TEXT
  5
21D
330
17
100
AcDbEntity
  8
I-SCHEMAT
420
0
100
AcDbText
 10
19.230524642289346
 20
4.258974562798092
 30
0.0
 40
0.09000000000000001
  1
c.w.u.
  7
PL_ARIAL
 11
19.230524642289346
 21
4.258974562798092
 31
0.0
100
AcDbText
  0
TEXT
  5
21E
330
17
100
AcDbEntity
  8
I-SCHEMAT
420
0
100
AcDbText
 10
19.230524642289346
 20
3.892678855325914
 30
0.0
 40
0.09000000000000001
  1
cyrkulacja
  7
PL_ARIAL
 11
19.230524642289346
 21
3.892678855325914
 31
0.0
100
AcDbText
  0
TEXT
  5
21F
330
17
100
AcDbEntity
  8
I-SCHEMAT
420
0
100
AcDbText
 10
18.314785373608903
 20
3.388235294117647
 30
0.0
 40
0.09000000000000001
  1
koło z trójkątem — pompa
  7
PL_ARIAL
 11
18.314785373608903
 21
3.388235294117647
 31
0.0
100
AcDbText
  0
TEXT
  5
220
330
17
100
AcDbEntity
  8
I-SCHEMAT
420
0
100
AcDbText
 10
18.314785373608903
 20
3.0585691573926868
 30
0.0
 40
0.09000000000000001
  1
kokarda — zawór odcinający / antyzamarzaniowy
  7
PL_ARIAL
 11
18.314785373608903
 21
3.0585691573926868
 31
0.0
100
AcDbText
  0
TEXT
  5
221
330
17
100
AcDbEntity
  8
I-SCHEMAT
420
0
100
AcDbText
 10
18.314785373608903
 20
2.7289030206677265
 30
0.0
 40
0.09000000000000001
  1
ZP3D — zawór przełączający 3-drogowy
  7
PL_ARIAL
 11
18.314785373608903
 21
2.7289030206677265
 31
0.0
100
AcDbText
  0
TEXT
  5
222
330
17
100
AcDbEntity
  8
I-SCHEMAT
420
0
100
AcDbText
 10
18.314785373608903
 20
2.3992368839427662
 30
0.0
 40
0.09000000000000001
  1
NW — naczynie wzbiorcze przeponowe
  7
PL_ARIAL
 11
18.314785373608903
 21
2.3992368839427662
 31
0.0
100
AcDbText
  0
TEXT
  5
223
330
17
100
AcDbEntity
  8
I-SCHEMAT
420
0
100
AcDbText
 10
18.314785373608903
 20
2.069570747217806
 30
0.0
 40
0.09000000000000001
  1
ZB — zawór bezpieczeństwa; GB — grupa bezpieczeństwa
  7
PL_ARIAL
 11
18.314785373608903
 21
2.069570747217806
 31
0.0
100
AcDbText
  0
TEXT
  5
224
330
17
100
AcDbEntity
  8
I-SCHEMAT
420
0
100
AcDbText
 10
18.314785373608903
 20
1.7399046104928457
 30
0.0
 40
0.09000000000000001
  1
TZM — termostatyczny zawór mieszający
  7
PL_ARIAL
 11
18.314785373608903
 21
1.7399046104928457
 31
0.0
100
AcDbText
  0
TEXT
  5
225
330
17
100
AcDbEntity
  8
I-SCHEMAT
420
0
100
AcDbText
 10
18.314785373608903
 20
1.4102384737678852
 30
0.0
 40
0.09000000000000001
  1
WM — wodomierz; F — filtr; EA — zawór antyskażeniowy; RED — reduktor
  7
PL_ARIAL
 11
18.314785373608903
 21
1.4102384737678852
 31
0.0
100
AcDbText
  0
TEXT
  5
226
330
17
100
AcDbEntity
  8
I-SCHEMAT
420
0
100
AcDbText
 10
0.18314785373608902
 20
-0.36629570747217804
 30
0.0
 40
0.09000000000000001
  1
Schemat ideowy PC / c.w.u. — dane przykładowe [ZAŁ]; wartości z modułów lamela.obliczenia.sanitarne (ogrzewanie, woda).
  7
PL_ARIAL
 11
0.18314785373608902
 21
-0.36629570747217804
 31
0.0
100
AcDbText
  0
VIEWPORT
  5
A4
330
1B
100
AcDbEntity
 67
1
  8
VIEWPORTS
100
AcDbViewport
 10
445.5
 20
210.0
 30
0.0
 40
891.0
 41
420.0
 68
1
 69
1
 12
445.5
 22
210.0
 13
0.0
 23
0.0
 14
10.0
 24
10.0
 15
10.0
 25
10.0
 16
0.0
 26
0.0
 36
1.0
 17
0.0
 27
0.0
 37
0.0
 42
50.0
 43
0.0
 44
0.0
 45
462.00000000000006
 50
0.0
 51
0.0
 72
100
 90
557088
  1

281
0
 71
0
 74
0
110
0.0
120
0.0
130
0.0
111
1.0
121
0.0
131
0.0
112
0.0
122
1.0
132
0.0
 79
0
146
0.0
282
0
  0
LWPOLYLINE
  5
A5
330
1B
100
AcDbEntity
 67
1
  8
R-OPISY
370
50
100
AcDbPolyline
 90
2
 70
0
 10
127.73370429252785
 20
51.47354213036567
 10
299.349647967295
 20
51.47354213036567
  0
LWPOLYLINE
  5
A6
330
1B
100
AcDbEntity
 67
1
  8
I-SCHEMAT
370
35
100
AcDbPolyline
 90
2
 70
0
 10
702.0
 20
392.8
 10
716.0
 20
392.8
  0
LWPOLYLINE
  5
A7
330
1B
100
AcDbEntity
 67
1
  8
R-OPISY
370
25
100
AcDbPolyline
 90
4
 70
1
 10
701.0
 20
346.13999999999993
 10
881.0
 20
346.13999999999993
 10
881.0
 20
383.6
 10
701.0
 20
383.6
  0
LWPOLYLINE
  5
A8
330
1B
100
AcDbEntity
 67
1
  8
R-OPISY
370
35
100
AcDbPolyline
 90
2
 70
0
 10
11.0
 20
18.0
 10
11.0
 20
118.0
  0
LWPOLYLINE
  5
A9
330
1B
100
AcDbEntity
 67
1
  8
R-OPISY
370
18
100
AcDbPolyline
 90
2
 70
0
 10
11.0
 20
18.0
 10
9.4
 20
18.0
  0
LWPOLYLINE
  5
AA
330
1B
100
AcDbEntity
 67
1
  8
R-OPISY
370
18
100
AcDbPolyline
 90
2
 70
0
 10
11.0
 20
28.0
 10
10.1
 20
28.0
  0
LWPOLYLINE
  5
AB
330
1B
100
AcDbEntity
 67
1
  8
R-OPISY
370
18
100
AcDbPolyline
 90
2
 70
0
 10
11.0
 20
38.0
 10
10.1
 20
38.0
  0
LWPOLYLINE
  5
AC
330
1B
100
AcDbEntity
 67
1
  8
R-OPISY
370
18
100
AcDbPolyline
 90
2
 70
0
 10
11.0
 20
48.0
 10
10.1
 20
48.0
  0
LWPOLYLINE
  5
AD
330
1B
100
AcDbEntity
 67
1
  8
R-OPISY
370
18
100
AcDbPolyline
 90
2
 70
0
 10
11.0
 20
58.0
 10
10.1
 20
58.0
  0
LWPOLYLINE
  5
AE
330
1B
100
AcDbEntity
 67
1
  8
R-OPISY
370
18
100
AcDbPolyline
 90
2
 70
0
 10
11.0
 20
68.0
 10
9.4
 20
68.0
  0
LWPOLYLINE
  5
AF
330
1B
100
AcDbEntity
 67
1
  8
R-OPISY
370
18
100
AcDbPolyline
 90
2
 70
0
 10
11.0
 20
78.0
 10
10.1
 20
78.0
  0
LWPOLYLINE
  5
B0
330
1B
100
AcDbEntity
 67
1
  8
R-OPISY
370
18
100
AcDbPolyline
 90
2
 70
0
 10
11.0
 20
88.0
 10
10.1
 20
88.0
  0
LWPOLYLINE
  5
B1
330
1B
100
AcDbEntity
 67
1
  8
R-OPISY
370
18
100
AcDbPolyline
 90
2
 70
0
 10
11.0
 20
98.0
 10
10.1
 20
98.0
  0
LWPOLYLINE
  5
B2
330
1B
100
AcDbEntity
 67
1
  8
R-OPISY
370
18
100
AcDbPolyline
 90
2
 70
0
 10
11.0
 20
108.0
 10
10.1
 20
108.0
  0
LWPOLYLINE
  5
B3
330
1B
100
AcDbEntity
 67
1
  8
R-OPISY
370
18
100
AcDbPolyline
 90
2
 70
0
 10
11.0
 20
118.0
 10
9.4
 20
118.0
  0
HATCH
  5
B4
330
1B
100
AcDbEntity
 67
1
  8
R-TABLICZKA
 62
7
420
16777215
100
AcDbHatch
 10
0.0
 20
0.0
 30
0.0
210
0.0
220
0.0
230
1.0
  2
SOLID
 70
1
 71
0
 91
1
 92
3
 72
0
 73
1
 93
4
 10
701.0
 20
10.0
 10
881.0
 20
10.0
 10
881.0
 20
103.0
 10
701.0
 20
103.0
 97
0
 75
0
 76
1
 98
0
  0
HATCH
  5
B5
330
1B
100
AcDbEntity
 67
1
  8
R-TABLICZKA
 62
7
420
16777215
100
AcDbHatch
 10
0.0
 20
0.0
 30
0.0
210
0.0
220
0.0
230
1.0
  2
SOLID
 70
1
 71
0
 91
1
 92
3
 72
0
 73
1
 93
4
 10
701.0
 20
103.0
 10
881.0
 20
103.0
 10
881.0
 20
113.0
 10
701.0
 20
113.0
 97
0
 75
0
 76
1
 98
0
  0
LWPOLYLINE
  5
B6
330
1B
100
AcDbEntity
 67
1
  8
R-RAMKA
370
70
100
AcDbPolyline
 90
4
 70
1
 10
20.0
 20
10.0
 10
881.0
 20
10.0
 10
881.0
 20
410.0
 10
20.0
 20
410.0
  0
LWPOLYLINE
  5
B7
330
1B
100
AcDbEntity
 67
1
  8
R-RAMKA
370
70
100
AcDbPolyline
 90
2
 70
0
 10
445.5
 20
0.0
 10
445.5
 20
20.0
  0
LWPOLYLINE
  5
B8
330
1B
100
AcDbEntity
 67
1
  8
R-RAMKA
370
70
100
AcDbPolyline
 90
2
 70
0
 10
445.5
 20
420.0
 10
445.5
 20
400.0
  0
LWPOLYLINE
  5
B9
330
1B
100
AcDbEntity
 67
1
  8
R-RAMKA
370
70
100
AcDbPolyline
 90
2
 70
0
 10
0.0
 20
210.0
 10
30.0
 20
210.0
  0
LWPOLYLINE
  5
BA
330
1B
100
AcDbEntity
 67
1
  8
R-RAMKA
370
70
100
AcDbPolyline
 90
2
 70
0
 10
891.0
 20
210.0
 10
871.0
 20
210.0
  0
LWPOLYLINE
  5
BB
330
1B
100
AcDbEntity
 67
1
  8
R-RAMKA
370
35
100
AcDbPolyline
 90
2
 70
0
 10
210.0
 20
0.0
 10
210.0
 20
5.0
  0
LWPOLYLINE
  5
BC
330
1B
100
AcDbEntity
 67
1
  8
R-RAMKA
370
35
100
AcDbPolyline
 90
2
 70
0
 10
210.0
 20
420.0
 10
210.0
 20
415.0
  0
LWPOLYLINE
  5
BD
330
1B
100
AcDbEntity
 67
1
  8
R-RAMKA
370
35
100
AcDbPolyline
 90
2
 70
0
 10
360.5
 20
0.0
 10
360.5
 20
5.0
  0
LWPOLYLINE
  5
BE
330
1B
100
AcDbEntity
 67
1
  8
R-RAMKA
370
35
100
AcDbPolyline
 90
2
 70
0
 10
360.5
 20
420.0
 10
360.5
 20
415.0
  0
LWPOLYLINE
  5
BF
330
1B
100
AcDbEntity
 67
1
  8
R-RAMKA
370
35
100
AcDbPolyline
 90
2
 70
0
 10
511.0
 20
0.0
 10
511.0
 20
5.0
  0
LWPOLYLINE
  5
C0
330
1B
100
AcDbEntity
 67
1
  8
R-RAMKA
370
35
100
AcDbPolyline
 90
2
 70
0
 10
511.0
 20
420.0
 10
511.0
 20
415.0
  0
LWPOLYLINE
  5
C1
330
1B
100
AcDbEntity
 67
1
  8
R-RAMKA
370
35
100
AcDbPolyline
 90
2
 70
0
 10
701.0
 20
0.0
 10
701.0
 20
5.0
  0
LWPOLYLINE
  5
C2
330
1B
100
AcDbEntity
 67
1
  8
R-RAMKA
370
35
100
AcDbPolyline
 90
2
 70
0
 10
701.0
 20
420.0
 10
701.0
 20
415.0
  0
LWPOLYLINE
  5
C3
330
1B
100
AcDbEntity
 67
1
  8
R-RAMKA
370
35
100
AcDbPolyline
 90
2
 70
0
 10
0.0
 20
297.0
 10
5.0
 20
297.0
  0
LWPOLYLINE
  5
C4
330
1B
100
AcDbEntity
 67
1
  8
R-RAMKA
370
35
100
AcDbPolyline
 90
2
 70
0
 10
891.0
 20
297.0
 10
886.0
 20
297.0
  0
LWPOLYLINE
  5
C5
330
1B
100
AcDbEntity
 67
1
  8
R-RAMKA
370
35
100
AcDbPolyline
 90
2
 70
0
 10
45.5
 20
10.0
 10
45.5
 20
5.0
  0
LWPOLYLINE
  5
C6
330
1B
100
AcDbEntity
 67
1
  8
R-RAMKA
370
35
100
AcDbPolyline
 90
2
 70
0
 10
45.5
 20
410.0
 10
45.5
 20
415.0
  0
LWPOLYLINE
  5
C7
330
1B
100
AcDbEntity
 67
1
  8
R-RAMKA
370
35
100
AcDbPolyline
 90
2
 70
0
 10
95.5
 20
10.0
 10
95.5
 20
5.0
  0
LWPOLYLINE
  5
C8
330
1B
100
AcDbEntity
 67
1
  8
R-RAMKA
370
35
100
AcDbPolyline
 90
2
 70
0
 10
95.5
 20
410.0
 10
95.5
 20
415.0
  0
LWPOLYLINE
  5
C9
330
1B
100
AcDbEntity
 67
1
  8
R-RAMKA
370
35
100
AcDbPolyline
 90
2
 70
0
 10
145.5
 20
10.0
 10
145.5
 20
5.0
  0
LWPOLYLINE
  5
CA
330
1B
100
AcDbEntity
 67
1
  8
R-RAMKA
370
35
100
AcDbPolyline
 90
2
 70
0
 10
145.5
 20
410.0
 10
145.5
 20
415.0
  0
LWPOLYLINE
  5
CB
330
1B
100
AcDbEntity
 67
1
  8
R-RAMKA
370
35
100
AcDbPolyline
 90
2
 70
0
 10
195.5
 20
10.0
 10
195.5
 20
5.0
  0
LWPOLYLINE
  5
CC
330
1B
100
AcDbEntity
 67
1
  8
R-RAMKA
370
35
100
AcDbPolyline
 90
2
 70
0
 10
195.5
 20
410.0
 10
195.5
 20
415.0
  0
LWPOLYLINE
  5
CD
330
1B
100
AcDbEntity
 67
1
  8
R-RAMKA
370
35
100
AcDbPolyline
 90
2
 70
0
 10
245.5
 20
10.0
 10
245.5
 20
5.0
  0
LWPOLYLINE
  5
CE
330
1B
100
AcDbEntity
 67
1
  8
R-RAMKA
370
35
100
AcDbPolyline
 90
2
 70
0
 10
245.5
 20
410.0
 10
245.5
 20
415.0
  0
LWPOLYLINE
  5
CF
330
1B
100
AcDbEntity
 67
1
  8
R-RAMKA
370
35
100
AcDbPolyline
 90
2
 70
0
 10
295.5
 20
10.0
 10
295.5
 20
5.0
  0
LWPOLYLINE
  5
D0
330
1B
100
AcDbEntity
 67
1
  8
R-RAMKA
370
35
100
AcDbPolyline
 90
2
 70
0
 10
295.5
 20
410.0
 10
295.5
 20
415.0
  0
LWPOLYLINE
  5
D1
330
1B
100
AcDbEntity
 67
1
  8
R-RAMKA
370
35
100
AcDbPolyline
 90
2
 70
0
 10
345.5
 20
10.0
 10
345.5
 20
5.0
  0
LWPOLYLINE
  5
D2
330
1B
100
AcDbEntity
 67
1
  8
R-RAMKA
370
35
100
AcDbPolyline
 90
2
 70
0
 10
345.5
 20
410.0
 10
345.5
 20
415.0
  0
LWPOLYLINE
  5
D3
330
1B
100
AcDbEntity
 67
1
  8
R-RAMKA
370
35
100
AcDbPolyline
 90
2
 70
0
 10
395.5
 20
10.0
 10
395.5
 20
5.0
  0
LWPOLYLINE
  5
D4
330
1B
100
AcDbEntity
 67
1
  8
R-RAMKA
370
35
100
AcDbPolyline
 90
2
 70
0
 10
395.5
 20
410.0
 10
395.5
 20
415.0
  0
LWPOLYLINE
  5
D5
330
1B
100
AcDbEntity
 67
1
  8
R-RAMKA
370
35
100
AcDbPolyline
 90
2
 70
0
 10
445.5
 20
10.0
 10
445.5
 20
5.0
  0
LWPOLYLINE
  5
D6
330
1B
100
AcDbEntity
 67
1
  8
R-RAMKA
370
35
100
AcDbPolyline
 90
2
 70
0
 10
445.5
 20
410.0
 10
445.5
 20
415.0
  0
LWPOLYLINE
  5
D7
330
1B
100
AcDbEntity
 67
1
  8
R-RAMKA
370
35
100
AcDbPolyline
 90
2
 70
0
 10
495.5
 20
10.0
 10
495.5
 20
5.0
  0
LWPOLYLINE
  5
D8
330
1B
100
AcDbEntity
 67
1
  8
R-RAMKA
370
35
100
AcDbPolyline
 90
2
 70
0
 10
495.5
 20
410.0
 10
495.5
 20
415.0
  0
LWPOLYLINE
  5
D9
330
1B
100
AcDbEntity
 67
1
  8
R-RAMKA
370
35
100
AcDbPolyline
 90
2
 70
0
 10
545.5
 20
10.0
 10
545.5
 20
5.0
  0
LWPOLYLINE
  5
DA
330
1B
100
AcDbEntity
 67
1
  8
R-RAMKA
370
35
100
AcDbPolyline
 90
2
 70
0
 10
545.5
 20
410.0
 10
545.5
 20
415.0
  0
LWPOLYLINE
  5
DB
330
1B
100
AcDbEntity
 67
1
  8
R-RAMKA
370
35
100
AcDbPolyline
 90
2
 70
0
 10
595.5
 20
10.0
 10
595.5
 20
5.0
  0
LWPOLYLINE
  5
DC
330
1B
100
AcDbEntity
 67
1
  8
R-RAMKA
370
35
100
AcDbPolyline
 90
2
 70
0
 10
595.5
 20
410.0
 10
595.5
 20
415.0
  0
LWPOLYLINE
  5
DD
330
1B
100
AcDbEntity
 67
1
  8
R-RAMKA
370
35
100
AcDbPolyline
 90
2
 70
0
 10
645.5
 20
10.0
 10
645.5
 20
5.0
  0
LWPOLYLINE
  5
DE
330
1B
100
AcDbEntity
 67
1
  8
R-RAMKA
370
35
100
AcDbPolyline
 90
2
 70
0
 10
645.5
 20
410.0
 10
645.5
 20
415.0
  0
LWPOLYLINE
  5
DF
330
1B
100
AcDbEntity
 67
1
  8
R-RAMKA
370
35
100
AcDbPolyline
 90
2
 70
0
 10
695.5
 20
10.0
 10
695.5
 20
5.0
  0
LWPOLYLINE
  5
E0
330
1B
100
AcDbEntity
 67
1
  8
R-RAMKA
370
35
100
AcDbPolyline
 90
2
 70
0
 10
695.5
 20
410.0
 10
695.5
 20
415.0
  0
LWPOLYLINE
  5
E1
330
1B
100
AcDbEntity
 67
1
  8
R-RAMKA
370
35
100
AcDbPolyline
 90
2
 70
0
 10
745.5
 20
10.0
 10
745.5
 20
5.0
  0
LWPOLYLINE
  5
E2
330
1B
100
AcDbEntity
 67
1
  8
R-RAMKA
370
35
100
AcDbPolyline
 90
2
 70
0
 10
745.5
 20
410.0
 10
745.5
 20
415.0
  0
LWPOLYLINE
  5
E3
330
1B
100
AcDbEntity
 67
1
  8
R-RAMKA
370
35
100
AcDbPolyline
 90
2
 70
0
 10
795.5
 20
10.0
 10
795.5
 20
5.0
  0
LWPOLYLINE
  5
E4
330
1B
100
AcDbEntity
 67
1
  8
R-RAMKA
370
35
100
AcDbPolyline
 90
2
 70
0
 10
795.5
 20
410.0
 10
795.5
 20
415.0
  0
LWPOLYLINE
  5
E5
330
1B
100
AcDbEntity
 67
1
  8
R-RAMKA
370
35
100
AcDbPolyline
 90
2
 70
0
 10
845.5
 20
10.0
 10
845.5
 20
5.0
  0
LWPOLYLINE
  5
E6
330
1B
100
AcDbEntity
 67
1
  8
R-RAMKA
370
35
100
AcDbPolyline
 90
2
 70
0
 10
845.5
 20
410.0
 10
845.5
 20
415.0
  0
LWPOLYLINE
  5
E7
330
1B
100
AcDbEntity
 67
1
  8
R-RAMKA
370
35
100
AcDbPolyline
 90
2
 70
0
 10
20.0
 20
60.0
 10
15.0
 20
60.0
  0
LWPOLYLINE
  5
E8
330
1B
100
AcDbEntity
 67
1
  8
R-RAMKA
370
35
100
AcDbPolyline
 90
2
 70
0
 10
881.0
 20
60.0
 10
886.0
 20
60.0
  0
LWPOLYLINE
  5
E9
330
1B
100
AcDbEntity
 67
1
  8
R-RAMKA
370
35
100
AcDbPolyline
 90
2
 70
0
 10
20.0
 20
110.0
 10
15.0
 20
110.0
  0
LWPOLYLINE
  5
EA
330
1B
100
AcDbEntity
 67
1
  8
R-RAMKA
370
35
100
AcDbPolyline
 90
2
 70
0
 10
881.0
 20
110.0
 10
886.0
 20
110.0
  0
LWPOLYLINE
  5
EB
330
1B
100
AcDbEntity
 67
1
  8
R-RAMKA
370
35
100
AcDbPolyline
 90
2
 70
0
 10
20.0
 20
160.0
 10
15.0
 20
160.0
  0
LWPOLYLINE
  5
EC
330
1B
100
AcDbEntity
 67
1
  8
R-RAMKA
370
35
100
AcDbPolyline
 90
2
 70
0
 10
881.0
 20
160.0
 10
886.0
 20
160.0
  0
LWPOLYLINE
  5
ED
330
1B
100
AcDbEntity
 67
1
  8
R-RAMKA
370
35
100
AcDbPolyline
 90
2
 70
0
 10
20.0
 20
210.0
 10
15.0
 20
210.0
  0
LWPOLYLINE
  5
EE
330
1B
100
AcDbEntity
 67
1
  8
R-RAMKA
370
35
100
AcDbPolyline
 90
2
 70
0
 10
881.0
 20
210.0
 10
886.0
 20
210.0
  0
LWPOLYLINE
  5
EF
330
1B
100
AcDbEntity
 67
1
  8
R-RAMKA
370
35
100
AcDbPolyline
 90
2
 70
0
 10
20.0
 20
260.0
 10
15.0
 20
260.0
  0
LWPOLYLINE
  5
F0
330
1B
100
AcDbEntity
 67
1
  8
R-RAMKA
370
35
100
AcDbPolyline
 90
2
 70
0
 10
881.0
 20
260.0
 10
886.0
 20
260.0
  0
LWPOLYLINE
  5
F1
330
1B
100
AcDbEntity
 67
1
  8
R-RAMKA
370
35
100
AcDbPolyline
 90
2
 70
0
 10
20.0
 20
310.0
 10
15.0
 20
310.0
  0
LWPOLYLINE
  5
F2
330
1B
100
AcDbEntity
 67
1
  8
R-RAMKA
370
35
100
AcDbPolyline
 90
2
 70
0
 10
881.0
 20
310.0
 10
886.0
 20
310.0
  0
LWPOLYLINE
  5
F3
330
1B
100
AcDbEntity
 67
1
  8
R-RAMKA
370
35
100
AcDbPolyline
 90
2
 70
0
 10
20.0
 20
360.0
 10
15.0
 20
360.0
  0
LWPOLYLINE
  5
F4
330
1B
100
AcDbEntity
 67
1
  8
R-RAMKA
370
35
100
AcDbPolyline
 90
2
 70
0
 10
881.0
 20
360.0
 10
886.0
 20
360.0
  0
LWPOLYLINE
  5
F5
330
1B
100
AcDbEntity
 67
1
  8
R-TABLICZKA
370
25
100
AcDbPolyline
 90
2
 70
0
 10
811.0
 20
91.0
 10
811.0
 20
103.0
  0
LWPOLYLINE
  5
F6
330
1B
100
AcDbEntity
 67
1
  8
R-TABLICZKA
370
25
100
AcDbPolyline
 90
2
 70
0
 10
836.0
 20
91.0
 10
836.0
 20
103.0
  0
LWPOLYLINE
  5
F7
330
1B
100
AcDbEntity
 67
1
  8
R-TABLICZKA
370
25
100
AcDbPolyline
 90
2
 70
0
 10
701.0
 20
91.0
 10
881.0
 20
91.0
  0
LWPOLYLINE
  5
F8
330
1B
100
AcDbEntity
 67
1
  8
R-TABLICZKA
370
18
100
AcDbPolyline
 90
2
 70
0
 10
701.0
 20
83.0
 10
881.0
 20
83.0
  0
LWPOLYLINE
  5
F9
330
1B
100
AcDbEntity
 67
1
  8
R-TABLICZKA
370
18
100
AcDbPolyline
 90
2
 70
0
 10
701.0
 20
72.5
 10
881.0
 20
72.5
  0
LWPOLYLINE
  5
FA
330
1B
100
AcDbEntity
 67
1
  8
R-TABLICZKA
370
18
100
AcDbPolyline
 90
2
 70
0
 10
851.0
 20
63.5
 10
851.0
 20
72.5
  0
LWPOLYLINE
  5
FB
330
1B
100
AcDbEntity
 67
1
  8
R-TABLICZKA
370
25
100
AcDbPolyline
 90
2
 70
0
 10
701.0
 20
63.5
 10
881.0
 20
63.5
  0
LWPOLYLINE
  5
FC
330
1B
100
AcDbEntity
 67
1
  8
R-TABLICZKA
370
18
100
AcDbPolyline
 90
2
 70
0
 10
701.0
 20
59.0
 10
881.0
 20
59.0
  0
LWPOLYLINE
  5
FD
330
1B
100
AcDbEntity
 67
1
  8
R-TABLICZKA
370
18
100
AcDbPolyline
 90
2
 70
0
 10
701.0
 20
52.0
 10
881.0
 20
52.0
  0
LWPOLYLINE
  5
FE
330
1B
100
AcDbEntity
 67
1
  8
R-TABLICZKA
370
18
100
AcDbPolyline
 90
2
 70
0
 10
701.0
 20
45.0
 10
881.0
 20
45.0
  0
LWPOLYLINE
  5
FF
330
1B
100
AcDbEntity
 67
1
  8
R-TABLICZKA
370
18
100
AcDbPolyline
 90
2
 70
0
 10
701.0
 20
38.0
 10
881.0
 20
38.0
  0
LWPOLYLINE
  5
100
330
1B
100
AcDbEntity
 67
1
  8
R-TABLICZKA
370
18
100
AcDbPolyline
 90
2
 70
0
 10
701.0
 20
31.0
 10
881.0
 20
31.0
  0
LWPOLYLINE
  5
101
330
1B
100
AcDbEntity
 67
1
  8
R-TABLICZKA
370
18
100
AcDbPolyline
 90
2
 70
0
 10
728.0
 20
31.0
 10
728.0
 20
63.5
  0
LWPOLYLINE
  5
102
330
1B
100
AcDbEntity
 67
1
  8
R-TABLICZKA
370
18
100
AcDbPolyline
 90
2
 70
0
 10
771.0
 20
31.0
 10
771.0
 20
63.5
  0
LWPOLYLINE
  5
103
330
1B
100
AcDbEntity
 67
1
  8
R-TABLICZKA
370
18
100
AcDbPolyline
 90
2
 70
0
 10
826.0
 20
31.0
 10
826.0
 20
63.5
  0
LWPOLYLINE
  5
104
330
1B
100
AcDbEntity
 67
1
  8
R-TABLICZKA
370
18
100
AcDbPolyline
 90
2
 70
0
 10
846.0
 20
31.0
 10
846.0
 20
63.5
  0
LWPOLYLINE
  5
105
330
1B
100
AcDbEntity
 67
1
  8
R-TABLICZKA
370
25
100
AcDbPolyline
 90
2
 70
0
 10
701.0
 20
31.0
 10
881.0
 20
31.0
  0
LWPOLYLINE
  5
106
330
1B
100
AcDbEntity
 67
1
  8
R-TABLICZKA
370
25
100
AcDbPolyline
 90
2
 70
0
 10
701.0
 20
19.0
 10
881.0
 20
19.0
  0
LWPOLYLINE
  5
107
330
1B
100
AcDbEntity
 67
1
  8
R-TABLICZKA
370
25
100
AcDbPolyline
 90
2
 70
0
 10
725.0
 20
10.0
 10
725.0
 20
19.0
  0
LWPOLYLINE
  5
108
330
1B
100
AcDbEntity
 67
1
  8
R-TABLICZKA
370
25
100
AcDbPolyline
 90
2
 70
0
 10
741.0
 20
10.0
 10
741.0
 20
19.0
  0
LWPOLYLINE
  5
109
330
1B
100
AcDbEntity
 67
1
  8
R-TABLICZKA
370
25
100
AcDbPolyline
 90
2
 70
0
 10
765.0
 20
10.0
 10
765.0
 20
19.0
  0
LWPOLYLINE
  5
10A
330
1B
100
AcDbEntity
 67
1
  8
R-TABLICZKA
370
25
100
AcDbPolyline
 90
2
 70
0
 10
793.0
 20
10.0
 10
793.0
 20
19.0
  0
LWPOLYLINE
  5
10B
330
1B
100
AcDbEntity
 67
1
  8
R-TABLICZKA
370
25
100
AcDbPolyline
 90
2
 70
0
 10
845.0
 20
10.0
 10
845.0
 20
19.0
  0
LWPOLYLINE
  5
10C
330
1B
100
AcDbEntity
 67
1
  8
R-TABLICZKA
370
25
100
AcDbPolyline
 90
2
 70
0
 10
863.0
 20
10.0
 10
863.0
 20
19.0
  0
LWPOLYLINE
  5
10D
330
1B
100
AcDbEntity
 67
1
  8
R-TABLICZKA
370
50
100
AcDbPolyline
 90
4
 70
1
 10
701.0
 20
10.0
 10
881.0
 20
10.0
 10
881.0
 20
103.0
 10
701.0
 20
103.0
  0
LWPOLYLINE
  5
10E
330
1B
100
AcDbEntity
 67
1
  8
R-TABLICZKA
370
18
100
AcDbPolyline
 90
2
 70
0
 10
701.0
 20
108.0
 10
881.0
 20
108.0
  0
LWPOLYLINE
  5
10F
330
1B
100
AcDbEntity
 67
1
  8
R-TABLICZKA
370
18
100
AcDbPolyline
 90
2
 70
0
 10
701.0
 20
113.0
 10
881.0
 20
113.0
  0
LWPOLYLINE
  5
110
330
1B
100
AcDbEntity
 67
1
  8
R-TABLICZKA
370
18
100
AcDbPolyline
 90
2
 70
0
 10
719.0
 20
103.0
 10
719.0
 20
113.0
  0
LWPOLYLINE
  5
111
330
1B
100
AcDbEntity
 67
1
  8
R-TABLICZKA
370
18
100
AcDbPolyline
 90
2
 70
0
 10
841.0
 20
103.0
 10
841.0
 20
113.0
  0
LWPOLYLINE
  5
112
330
1B
100
AcDbEntity
 67
1
  8
R-TABLICZKA
370
25
100
AcDbPolyline
 90
4
 70
1
 10
701.0
 20
103.0
 10
881.0
 20
103.0
 10
881.0
 20
113.0
 10
701.0
 20
113.0
  0
TEXT
  5
113
330
1B
100
AcDbEntity
 67
1
  8
R-OPISY
100
AcDbText
 10
127.73370429252785
 20
52.97354213036567
 30
0.0
 40
5.0
  1
SCHEMAT IDEOWY POMPY CIEPŁA, C.O. I C.W.U.
  7
PL_ARIAL_B
 11
127.73370429252785
 21
52.97354213036567
 31
0.0
100
AcDbText
  0
TEXT
  5
114
330
1B
100
AcDbEntity
 67
1
  8
R-LEGENDA
100
AcDbText
 10
701.0
 20
403.5
 30
0.0
 40
3.5
  1
OZNACZENIA
  7
PL_ARIAL_B
 11
701.0
 21
403.5
 31
0.0
100
AcDbText
  0
TEXT
  5
115
330
1B
100
AcDbEntity
 67
1
  8
R-LEGENDA
100
AcDbText
 10
701.0
 20
398.5
 30
0.0
 40
1.8
  1
Legenda symboli — na schemacie (PN-EN 60617 / PN-EN ISO 14617 w uproszczeniu; oznaczenia instalacji sanitarnych — praktyka branżowa).
  7
PL_ARIAL_I
 11
701.0
 21
398.5
 31
0.0
100
AcDbText
  0
TEXT
  5
116
330
1B
100
AcDbEntity
 67
1
  8
R-LEGENDA
100
AcDbText
 10
719.0
 20
392.6
 30
0.0
 40
1.8
  1
linie schematu — wg legendy na rysunku
  7
PL_ARIAL
 11
719.0
 21
392.6
 31
0.0
100
AcDbText
  0
TEXT
  5
117
330
1B
100
AcDbEntity
 67
1
  8
R-OPISY
100
AcDbText
 10
703.0
 20
378.1
 30
0.0
 40
3.5
  1
OBJAŚNIENIA I UWAGI
  7
PL_ARIAL_B
 11
703.0
 21
378.1
 31
0.0
100
AcDbText
  0
TEXT
  5
118
330
1B
100
AcDbEntity
 67
1
  8
R-OPISY
100
AcDbText
 10
703.0
 20
371.8
 30
0.0
 40
1.8
  1
1. 
  7
PL_ARIAL
 11
703.0
 21
371.8
 31
0.0
100
AcDbText
  0
TEXT
  5
119
330
1B
100
AcDbEntity
 67
1
  8
R-OPISY
100
AcDbText
 10
705.908698614581
 20
371.8
 30
0.0
 40
1.8
  1
Schemat bez skali; rzędne w m względem ±0,000 (posadzka parteru), średnice w mm.
  7
PL_ARIAL
 11
705.908698614581
 21
371.8
 31
0.0
100
AcDbText
  0
TEXT
  5
11A
330
1B
100
AcDbEntity
 67
1
  8
R-OPISY
100
AcDbText
 10
703.0
 20
368.38
 30
0.0
 40
1.8
  1
2. 
  7
PL_ARIAL
 11
703.0
 21
368.38
 31
0.0
100
AcDbText
  0
TEXT
  5
11B
330
1B
100
AcDbEntity
 67
1
  8
R-OPISY
100
AcDbText
 10
705.908698614581
 20
368.38
 30
0.0
 40
1.8
  1
Rysunki instalacji na podkładzie rzutów architektury (PB-AR); podkład — linie cienkie szare (warstwy I-PODKLAD*).
  7
PL_ARIAL
 11
705.908698614581
 21
368.38
 31
0.0
100
AcDbText
  0
TEXT
  5
11C
330
1B
100
AcDbEntity
 67
1
  8
R-OPISY
100
AcDbText
 10
703.0
 20
364.96
 30
0.0
 40
1.8
  1
3. 
  7
PL_ARIAL
 11
703.0
 21
364.96
 31
0.0
100
AcDbText
  0
TEXT
  5
11D
330
1B
100
AcDbEntity
 67
1
  8
R-OPISY
100
AcDbText
 10
705.908698614581
 20
364.96
 30
0.0
 40
1.8
  1
Schemat odtworzony wektorowo z funkcji lamela.obliczenia.sanitarne.schemat_pc (dane: ogrzewanie, woda) — treść i wartości z obliczeń na
  7
PL_ARIAL
 11
705.908698614581
 21
364.96
 31
0.0
100
AcDbText
  0
TEXT
  5
11E
330
1B
100
AcDbEntity
 67
1
  8
R-OPISY
100
AcDbText
 10
705.908698614581
 20
362.08
 30
0.0
 40
1.8
  1
aktualnym modelu; skala rysunkowa 1.83 mm/jedn. (pismo ≥ 1,8 mm), przesunięto 0 napisów kolidujących.
  7
PL_ARIAL
 11
705.908698614581
 21
362.08
 31
0.0
100
AcDbText
  0
TEXT
  5
11F
330
1B
100
AcDbEntity
 67
1
  8
R-OPISY
100
AcDbText
 10
703.0
 20
358.65999999999997
 30
0.0
 40
1.8
  1
4. 
  7
PL_ARIAL
 11
703.0
 21
358.65999999999997
 31
0.0
100
AcDbText
  0
TEXT
  5
120
330
1B
100
AcDbEntity
 67
1
  8
R-OPISY
100
AcDbText
 10
705.908698614581
 20
358.65999999999997
 30
0.0
 40
1.8
  1
Dane urządzeń przykładowe (bez nazw handlowych) — do zastąpienia DTR wybranych wyrobów (lub równoważnych).
  7
PL_ARIAL
 11
705.908698614581
 21
358.65999999999997
 31
0.0
100
AcDbText
  0
TEXT
  5
121
330
1B
100
AcDbEntity
 67
1
  8
R-OPISY
100
AcDbText
 10
703.0
 20
355.23999999999995
 30
0.0
 40
1.8
  1
5. 
  7
PL_ARIAL
 11
703.0
 21
355.23999999999995
 31
0.0
100
AcDbText
  0
TEXT
  5
122
330
1B
100
AcDbEntity
 67
1
  8
R-OPISY
100
AcDbText
 10
705.908698614581
 20
355.23999999999995
 30
0.0
 40
1.8
  1
Ogrzewanie wg PN-EN 1264, PN-EN 12828 (zabezpieczenie instalacji wodnych), c.w.u. wg PN-EN 806 i WT § 120; naczynia wzbiorcze i zawory
  7
PL_ARIAL
 11
705.908698614581
 21
355.23999999999995
 31
0.0
100
AcDbText
  0
TEXT
  5
123
330
1B
100
AcDbEntity
 67
1
  8
R-OPISY
100
AcDbText
 10
705.908698614581
 20
352.35999999999996
 30
0.0
 40
1.8
  1
bezpieczeństwa z obliczeń.
  7
PL_ARIAL
 11
705.908698614581
 21
352.35999999999996
 31
0.0
100
AcDbText
  0
TEXT
  5
124
330
1B
100
AcDbEntity
 67
1
  8
R-OPISY
100
AcDbText
 10
703.0
 20
348.93999999999994
 30
0.0
 40
1.8
  1
6. 
  7
PL_ARIAL
 11
703.0
 21
348.93999999999994
 31
0.0
100
AcDbText
  0
TEXT
  5
125
330
1B
100
AcDbEntity
 67
1
  8
R-OPISY
100
AcDbText
 10
705.908698614581
 20
348.93999999999994
 30
0.0
 40
1.8
  1
Rysunek wygenerowany automatycznie z modelu /home/user/aihouse/model/budynek.yaml (wersja 1.0, 2026-09-25) — generatory lamela.views.
  7
PL_ARIAL
 11
705.908698614581
 21
348.93999999999994
 31
0.0
100
AcDbText
  0
TEXT
  5
126
330
1B
100
AcDbEntity
 67
1
  8
R-OPISY
100
AcDbText
 10
12.8
 20
119.5
 30
0.0
 40
1.8
  1
odcinek kontrolny 100 mm (wydruk 1:1)
 50
90.0
  7
PL_ARIAL
 11
12.8
 21
119.5
 31
0.0
100
AcDbText
  0
TEXT
  5
127
330
1B
100
AcDbEntity
 67
1
  8
R-RAMKA
100
AcDbText
 10
31.335453100158983
 20
413.25
 30
0.0
 40
3.5
  1
1
  7
PL_ARIAL
 11
31.335453100158983
 21
413.25
 31
0.0
100
AcDbText
  0
TEXT
  5
128
330
1B
100
AcDbEntity
 67
1
  8
R-RAMKA
100
AcDbText
 10
31.335453100158983
 20
3.25
 30
0.0
 40
3.5
  1
1
  7
PL_ARIAL
 11
31.335453100158983
 21
3.25
 31
0.0
100
AcDbText
  0
TEXT
  5
129
330
1B
100
AcDbEntity
 67
1
  8
R-RAMKA
100
AcDbText
 10
69.08545310015899
 20
413.25
 30
0.0
 40
3.5
  1
2
  7
PL_ARIAL
 11
69.08545310015899
 21
413.25
 31
0.0
100
AcDbText
  0
TEXT
  5
12A
330
1B
100
AcDbEntity
 67
1
  8
R-RAMKA
100
AcDbText
 10
69.08545310015899
 20
3.25
 30
0.0
 40
3.5
  1
2
  7
PL_ARIAL
 11
69.08545310015899
 21
3.25
 31
0.0
100
AcDbText
  0
TEXT
  5
12B
330
1B
100
AcDbEntity
 67
1
  8
R-RAMKA
100
AcDbText
 10
119.08545310015899
 20
413.25
 30
0.0
 40
3.5
  1
3
  7
PL_ARIAL
 11
119.08545310015899
 21
413.25
 31
0.0
100
AcDbText
  0
TEXT
  5
12C
330
1B
100
AcDbEntity
 67
1
  8
R-RAMKA
100
AcDbText
 10
119.08545310015899
 20
3.25
 30
0.0
 40
3.5
  1
3
  7
PL_ARIAL
 11
119.08545310015899
 21
3.25
 31
0.0
100
AcDbText
  0
TEXT
  5
12D
330
1B
100
AcDbEntity
 67
1
  8
R-RAMKA
100
AcDbText
 10
169.085453100159
 20
413.25
 30
0.0
 40
3.5
  1
4
  7
PL_ARIAL
 11
169.085453100159
 21
413.25
 31
0.0
100
AcDbText
  0
TEXT
  5
12E
330
1B
100
AcDbEntity
 67
1
  8
R-RAMKA
100
AcDbText
 10
169.085453100159
 20
3.25
 30
0.0
 40
3.5
  1
4
  7
PL_ARIAL
 11
169.085453100159
 21
3.25
 31
0.0
100
AcDbText
  0
TEXT
  5
12F
330
1B
100
AcDbEntity
 67
1
  8
R-RAMKA
100
AcDbText
 10
219.085453100159
 20
413.25
 30
0.0
 40
3.5
  1
5
  7
PL_ARIAL
 11
219.085453100159
 21
413.25
 31
0.0
100
AcDbText
  0
TEXT
  5
130
330
1B
100
AcDbEntity
 67
1
  8
R-RAMKA
100
AcDbText
 10
219.085453100159
 20
3.25
 30
0.0
 40
3.5
  1
5
  7
PL_ARIAL
 11
219.085453100159
 21
3.25
 31
0.0
100
AcDbText
  0
TEXT
  5
131
330
1B
100
AcDbEntity
 67
1
  8
R-RAMKA
100
AcDbText
 10
269.085453100159
 20
413.25
 30
0.0
 40
3.5
  1
6
  7
PL_ARIAL
 11
269.085453100159
 21
413.25
 31
0.0
100
AcDbText
  0
TEXT
  5
132
330
1B
100
AcDbEntity
 67
1
  8
R-RAMKA
100
AcDbText
 10
269.085453100159
 20
3.25
 30
0.0
 40
3.5
  1
6
  7
PL_ARIAL
 11
269.085453100159
 21
3.25
 31
0.0
100
AcDbText
  0
TEXT
  5
133
330
1B
100
AcDbEntity
 67
1
  8
R-RAMKA
100
AcDbText
 10
319.085453100159
 20
413.25
 30
0.0
 40
3.5
  1
7
  7
PL_ARIAL
 11
319.085453100159
 21
413.25
 31
0.0
100
AcDbText
  0
TEXT
  5
134
330
1B
100
AcDbEntity
 67
1
  8
R-RAMKA
100
AcDbText
 10
319.085453100159
 20
3.25
 30
0.0
 40
3.5
  1
7
  7
PL_ARIAL
 11
319.085453100159
 21
3.25
 31
0.0
100
AcDbText
  0
TEXT
  5
135
330
1B
100
AcDbEntity
 67
1
  8
R-RAMKA
100
AcDbText
 10
369.085453100159
 20
413.25
 30
0.0
 40
3.5
  1
8
  7
PL_ARIAL
 11
369.085453100159
 21
413.25
 31
0.0
100
AcDbText
  0
TEXT
  5
136
330
1B
100
AcDbEntity
 67
1
  8
R-RAMKA
100
AcDbText
 10
369.085453100159
 20
3.25
 30
0.0
 40
3.5
  1
8
  7
PL_ARIAL
 11
369.085453100159
 21
3.25
 31
0.0
100
AcDbText
  0
TEXT
  5
137
330
1B
100
AcDbEntity
 67
1
  8
R-RAMKA
100
AcDbText
 10
419.085453100159
 20
413.25
 30
0.0
 40
3.5
  1
9
  7
PL_ARIAL
 11
419.085453100159
 21
413.25
 31
0.0
100
AcDbText
  0
TEXT
  5
138
330
1B
100
AcDbEntity
 67
1
  8
R-RAMKA
100
AcDbText
 10
419.085453100159
 20
3.25
 30
0.0
 40
3.5
  1
9
  7
PL_ARIAL
 11
419.085453100159
 21
3.25
 31
0.0
100
AcDbText
  0
TEXT
  5
139
330
1B
100
AcDbEntity
 67
1
  8
R-RAMKA
100
AcDbText
 10
467.670906200318
 20
413.25
 30
0.0
 40
3.5
  1
10
  7
PL_ARIAL
 11
467.670906200318
 21
413.25
 31
0.0
100
AcDbText
  0
TEXT
  5
13A
330
1B
100
AcDbEntity
 67
1
  8
R-RAMKA
100
AcDbText
 10
467.670906200318
 20
3.25
 30
0.0
 40
3.5
  1
10
  7
PL_ARIAL
 11
467.670906200318
 21
3.25
 31
0.0
100
AcDbText
  0
TEXT
  5
13B
330
1B
100
AcDbEntity
 67
1
  8
R-RAMKA
100
AcDbText
 10
517.8596979332274
 20
413.25
 30
0.0
 40
3.5
  1
11
  7
PL_ARIAL
 11
517.8596979332274
 21
413.25
 31
0.0
100
AcDbText
  0
TEXT
  5
13C
330
1B
100
AcDbEntity
 67
1
  8
R-RAMKA
100
AcDbText
 10
517.8596979332274
 20
3.25
 30
0.0
 40
3.5
  1
11
  7
PL_ARIAL
 11
517.8596979332274
 21
3.25
 31
0.0
100
AcDbText
  0
TEXT
  5
13D
330
1B
100
AcDbEntity
 67
1
  8
R-RAMKA
100
AcDbText
 10
567.670906200318
 20
413.25
 30
0.0
 40
3.5
  1
12
  7
PL_ARIAL
 11
567.670906200318
 21
413.25
 31
0.0
100
AcDbText
  0
TEXT
  5
13E
330
1B
100
AcDbEntity
 67
1
  8
R-RAMKA
100
AcDbText
 10
567.670906200318
 20
3.25
 30
0.0
 40
3.5
  1
12
  7
PL_ARIAL
 11
567.670906200318
 21
3.25
 31
0.0
100
AcDbText
  0
TEXT
  5
13F
330
1B
100
AcDbEntity
 67
1
  8
R-RAMKA
100
AcDbText
 10
617.670906200318
 20
413.25
 30
0.0
 40
3.5
  1
13
  7
PL_ARIAL
 11
617.670906200318
 21
413.25
 31
0.0
100
AcDbText
  0
TEXT
  5
140
330
1B
100
AcDbEntity
 67
1
  8
R-RAMKA
100
AcDbText
 10
617.670906200318
 20
3.25
 30
0.0
 40
3.5
  1
13
  7
PL_ARIAL
 11
617.670906200318
 21
3.25
 31
0.0
100
AcDbText
  0
TEXT
  5
141
330
1B
100
AcDbEntity
 67
1
  8
R-RAMKA
100
AcDbText
 10
667.670906200318
 20
413.25
 30
0.0
 40
3.5
  1
14
  7
PL_ARIAL
 11
667.670906200318
 21
413.25
 31
0.0
100
AcDbText
  0
TEXT
  5
142
330
1B
100
AcDbEntity
 67
1
  8
R-RAMKA
100
AcDbText
 10
667.670906200318
 20
3.25
 30
0.0
 40
3.5
  1
14
  7
PL_ARIAL
 11
667.670906200318
 21
3.25
 31
0.0
100
AcDbText
  0
TEXT
  5
143
330
1B
100
AcDbEntity
 67
1
  8
R-RAMKA
100
AcDbText
 10
717.670906200318
 20
413.25
 30
0.0
 40
3.5
  1
15
  7
PL_ARIAL
 11
717.670906200318
 21
413.25
 31
0.0
100
AcDbText
  0
TEXT
  5
144
330
1B
100
AcDbEntity
 67
1
  8
R-RAMKA
100
AcDbText
 10
717.670906200318
 20
3.25
 30
0.0
 40
3.5
  1
15
  7
PL_ARIAL
 11
717.670906200318
 21
3.25
 31
0.0
100
AcDbText
  0
TEXT
  5
145
330
1B
100
AcDbEntity
 67
1
  8
R-RAMKA
100
AcDbText
 10
767.670906200318
 20
413.25
 30
0.0
 40
3.5
  1
16
  7
PL_ARIAL
 11
767.670906200318
 21
413.25
 31
0.0
100
AcDbText
  0
TEXT
  5
146
330
1B
100
AcDbEntity
 67
1
  8
R-RAMKA
100
AcDbText
 10
767.670906200318
 20
3.25
 30
0.0
 40
3.5
  1
16
  7
PL_ARIAL
 11
767.670906200318
 21
3.25
 31
0.0
100
AcDbText
  0
TEXT
  5
147
330
1B
100
AcDbEntity
 67
1
  8
R-RAMKA
100
AcDbText
 10
817.670906200318
 20
413.25
 30
0.0
 40
3.5
  1
17
  7
PL_ARIAL
 11
817.670906200318
 21
413.25
 31
0.0
100
AcDbText
  0
TEXT
  5
148
330
1B
100
AcDbEntity
 67
1
  8
R-RAMKA
100
AcDbText
 10
817.670906200318
 20
3.25
 30
0.0
 40
3.5
  1
17
  7
PL_ARIAL
 11
817.670906200318
 21
3.25
 31
0.0
100
AcDbText
  0
TEXT
  5
149
330
1B
100
AcDbEntity
 67
1
  8
R-RAMKA
100
AcDbText
 10
860.420906200318
 20
413.25
 30
0.0
 40
3.5
  1
18
  7
PL_ARIAL
 11
860.420906200318
 21
413.25
 31
0.0
100
AcDbText
  0
TEXT
  5
14A
330
1B
100
AcDbEntity
 67
1
  8
R-RAMKA
100
AcDbText
 10
860.420906200318
 20
3.25
 30
0.0
 40
3.5
  1
18
  7
PL_ARIAL
 11
860.420906200318
 21
3.25
 31
0.0
100
AcDbText
  0
TEXT
  5
14B
330
1B
100
AcDbEntity
 67
1
  8
R-RAMKA
100
AcDbText
 10
884.3032591414944
 20
383.25
 30
0.0
 40
3.5
  1
A
  7
PL_ARIAL
 11
884.3032591414944
 21
383.25
 31
0.0
100
AcDbText
  0
TEXT
  5
14C
330
1B
100
AcDbEntity
 67
1
  8
R-RAMKA
100
AcDbText
 10
13.303259141494436
 20
383.25
 30
0.0
 40
3.5
  1
A
  7
PL_ARIAL
 11
13.303259141494436
 21
383.25
 31
0.0
100
AcDbText
  0
TEXT
  5
14D
330
1B
100
AcDbEntity
 67
1
  8
R-RAMKA
100
AcDbText
 10
884.3032591414944
 20
333.25
 30
0.0
 40
3.5
  1
B
  7
PL_ARIAL
 11
884.3032591414944
 21
333.25
 31
0.0
100
AcDbText
  0
TEXT
  5
14E
330
1B
100
AcDbEntity
 67
1
  8
R-RAMKA
100
AcDbText
 10
13.303259141494436
 20
333.25
 30
0.0
 40
3.5
  1
B
  7
PL_ARIAL
 11
13.303259141494436
 21
333.25
 31
0.0
100
AcDbText
  0
TEXT
  5
14F
330
1B
100
AcDbEntity
 67
1
  8
R-RAMKA
100
AcDbText
 10
884.1629570747218
 20
283.25
 30
0.0
 40
3.5
  1
C
  7
PL_ARIAL
 11
884.1629570747218
 21
283.25
 31
0.0
100
AcDbText
  0
TEXT
  5
150
330
1B
100
AcDbEntity
 67
1
  8
R-RAMKA
100
AcDbText
 10
13.162957074721781
 20
283.25
 30
0.0
 40
3.5
  1
C
  7
PL_ARIAL
 11
13.162957074721781
 21
283.25
 31
0.0
100
AcDbText
  0
TEXT
  5
151
330
1B
100
AcDbEntity
 67
1
  8
R-RAMKA
100
AcDbText
 10
884.1629570747218
 20
233.25
 30
0.0
 40
3.5
  1
D
  7
PL_ARIAL
 11
884.1629570747218
 21
233.25
 31
0.0
100
AcDbText
  0
TEXT
  5
152
330
1B
100
AcDbEntity
 67
1
  8
R-RAMKA
100
AcDbText
 10
13.162957074721781
 20
233.25
 30
0.0
 40
3.5
  1
D
  7
PL_ARIAL
 11
13.162957074721781
 21
233.25
 31
0.0
100
AcDbText
  0
TEXT
  5
153
330
1B
100
AcDbEntity
 67
1
  8
R-RAMKA
100
AcDbText
 10
884.3032591414944
 20
183.25
 30
0.0
 40
3.5
  1
E
  7
PL_ARIAL
 11
884.3032591414944
 21
183.25
 31
0.0
100
AcDbText
  0
TEXT
  5
154
330
1B
100
AcDbEntity
 67
1
  8
R-RAMKA
100
AcDbText
 10
13.303259141494436
 20
183.25
 30
0.0
 40
3.5
  1
E
  7
PL_ARIAL
 11
13.303259141494436
 21
183.25
 31
0.0
100
AcDbText
  0
TEXT
  5
155
330
1B
100
AcDbEntity
 67
1
  8
R-RAMKA
100
AcDbText
 10
884.4463434022258
 20
133.25
 30
0.0
 40
3.5
  1
F
  7
PL_ARIAL
 11
884.4463434022258
 21
133.25
 31
0.0
100
AcDbText
  0
TEXT
  5
156
330
1B
100
AcDbEntity
 67
1
  8
R-RAMKA
100
AcDbText
 10
13.446343402225756
 20
133.25
 30
0.0
 40
3.5
  1
F
  7
PL_ARIAL
 11
13.446343402225756
 21
133.25
 31
0.0
100
AcDbText
  0
TEXT
  5
157
330
1B
100
AcDbEntity
 67
1
  8
R-RAMKA
100
AcDbText
 10
884.0214626391097
 20
83.25
 30
0.0
 40
3.5
  1
G
  7
PL_ARIAL
 11
884.0214626391097
 21
83.25
 31
0.0
100
AcDbText
  0
TEXT
  5
158
330
1B
100
AcDbEntity
 67
1
  8
R-RAMKA
100
AcDbText
 10
13.021462639109698
 20
83.25
 30
0.0
 40
3.5
  1
G
  7
PL_ARIAL
 11
13.021462639109698
 21
83.25
 31
0.0
100
AcDbText
  0
TEXT
  5
159
330
1B
100
AcDbEntity
 67
1
  8
R-RAMKA
100
AcDbText
 10
884.1629570747218
 20
33.25
 30
0.0
 40
3.5
  1
H
  7
PL_ARIAL
 11
884.1629570747218
 21
33.25
 31
0.0
100
AcDbText
  0
TEXT
  5
15A
330
1B
100
AcDbEntity
 67
1
  8
R-RAMKA
100
AcDbText
 10
13.162957074721781
 20
33.25
 30
0.0
 40
3.5
  1
H
  7
PL_ARIAL
 11
13.162957074721781
 21
33.25
 31
0.0
100
AcDbText
  0
TEXT
  5
15B
330
1B
100
AcDbEntity
 67
1
  8
R-RAMKA
100
AcDbText
 10
862.0895752895752
 20
4.1
 30
0.0
 40
1.8
  1
A3×3 (891×420)
  7
PL_ARIAL
 11
862.0895752895752
 21
4.1
 31
0.0
100
AcDbText
  0
TEXT
  5
15C
330
1B
100
AcDbEntity
 67
1
  8
R-TABLICZKA
100
AcDbText
 10
702.2
 20
100.0
 30
0.0
 40
1.8
  1
PRACOWNIA PROJEKTOWA
  7
PL_ARIAL
 11
702.2
 21
100.0
 31
0.0
100
AcDbText
  0
TEXT
  5
15D
330
1B
100
AcDbEntity
 67
1
  8
R-TABLICZKA
100
AcDbText
 10
702.2
 20
96.1
 30
0.0
 40
2.5
  1
PRACOWNIA PROJEKTOWA — nazwa do uzupełnienia
  7
PL_ARIAL_B
 11
702.2
 21
96.1
 31
0.0
100
AcDbText
  0
TEXT
  5
15E
330
1B
100
AcDbEntity
 67
1
  8
R-TABLICZKA
100
AcDbText
 10
702.2
 20
92.4
 30
0.0
 40
1.8
  1
adres pracowni do uzupełnienia
  7
PL_ARIAL
 11
702.2
 21
92.4
 31
0.0
100
AcDbText
  0
TEXT
  5
15F
330
1B
100
AcDbEntity
 67
1
  8
R-TABLICZKA
100
AcDbText
 10
812.2
 20
100.0
 30
0.0
 40
1.8
  1
STADIUM
  7
PL_ARIAL
 11
812.2
 21
100.0
 31
0.0
100
AcDbText
  0
TEXT
  5
160
330
1B
100
AcDbEntity
 67
1
  8
R-TABLICZKA
100
AcDbText
 10
818.8565750624574
 20
93.5
 30
0.0
 40
5.0
  1
PT
  7
PL_ARIAL_B
 11
818.8565750624574
 21
93.5
 31
0.0
100
AcDbText
  0
TEXT
  5
161
330
1B
100
AcDbEntity
 67
1
  8
R-TABLICZKA
100
AcDbText
 10
837.2
 20
100.0
 30
0.0
 40
1.8
  1
BRANŻA
  7
PL_ARIAL
 11
837.2
 21
100.0
 31
0.0
100
AcDbText
  0
TEXT
  5
162
330
1B
100
AcDbEntity
 67
1
  8
R-TABLICZKA
100
AcDbText
 10
837.2
 20
96.26249999999999
 30
0.0
 40
2.5
  1
INSTALACJE
  7
PL_ARIAL_B
 11
837.2
 21
96.26249999999999
 31
0.0
100
AcDbText
  0
TEXT
  5
163
330
1B
100
AcDbEntity
 67
1
  8
R-TABLICZKA
100
AcDbText
 10
837.2
 20
92.63749999999999
 30
0.0
 40
2.5
  1
SANITARNE (IS)
  7
PL_ARIAL_B
 11
837.2
 21
92.63749999999999
 31
0.0
100
AcDbText
  0
TEXT
  5
164
330
1B
100
AcDbEntity
 67
1
  8
R-TABLICZKA
100
AcDbText
 10
702.2
 20
88.0
 30
0.0
 40
1.8
  1
INWESTOR
  7
PL_ARIAL
 11
702.2
 21
88.0
 31
0.0
100
AcDbText
  0
TEXT
  5
165
330
1B
100
AcDbEntity
 67
1
  8
R-TABLICZKA
100
AcDbText
 10
702.2
 20
84.44999999999999
 30
0.0
 40
2.5
  1
(do uzupełnienia)
  7
PL_ARIAL
 11
702.2
 21
84.44999999999999
 31
0.0
100
AcDbText
  0
TEXT
  5
166
330
1B
100
AcDbEntity
 67
1
  8
R-TABLICZKA
100
AcDbText
 10
702.2
 20
80.0
 30
0.0
 40
1.8
  1
OBIEKT / NAZWA ZAMIERZENIA BUDOWLANEGO
  7
PL_ARIAL
 11
702.2
 21
80.0
 31
0.0
100
AcDbText
  0
TEXT
  5
167
330
1B
100
AcDbEntity
 67
1
  8
R-TABLICZKA
100
AcDbText
 10
702.2
 20
75.19999999999999
 30
0.0
 40
2.5
  1
Budynek mieszkalny jednorodzinny wolnostojący „Dom LAMELA”
  7
PL_ARIAL_B
 11
702.2
 21
75.19999999999999
 31
0.0
100
AcDbText
  0
TEXT
  5
168
330
1B
100
AcDbEntity
 67
1
  8
R-TABLICZKA
100
AcDbText
 10
702.2
 20
69.5
 30
0.0
 40
1.8
  1
ADRES / LOKALIZACJA (NR DZIAŁKI, OBRĘB, JEDN. EWIDENCYJNA)
  7
PL_ARIAL
 11
702.2
 21
69.5
 31
0.0
100
AcDbText
  0
TEXT
  5
169
330
1B
100
AcDbEntity
 67
1
  8
R-TABLICZKA
100
AcDbText
 10
702.2
 20
65.716
 30
0.0
 40
1.8
  1
ul. Lipowa (fikcyjna), dz. nr ewid. 123/4, obręb 0005 Przykładowo, gm. Przykładowo (fikcyjna)
  7
PL_ARIAL
 11
702.2
 21
65.716
 31
0.0
100
AcDbText
  0
TEXT
  5
16A
330
1B
100
AcDbEntity
 67
1
  8
R-TABLICZKA
100
AcDbText
 10
852.2
 20
69.5
 30
0.0
 40
1.8
  1
KAT. OBIEKTU
  7
PL_ARIAL
 11
852.2
 21
69.5
 31
0.0
100
AcDbText
  0
TEXT
  5
16B
330
1B
100
AcDbEntity
 67
1
  8
R-TABLICZKA
100
AcDbText
 10
865.2933227344992
 20
65.07
 30
0.0
 40
3.5
  1
I
  7
PL_ARIAL_B
 11
865.2933227344992
 21
65.07
 31
0.0
100
AcDbText
  0
TEXT
  5
16C
330
1B
100
AcDbEntity
 67
1
  8
R-TABLICZKA
100
AcDbText
 10
708.4673631614808
 20
60.35
 30
0.0
 40
1.8
  1
FUNKCJA
  7
PL_ARIAL
 11
708.4673631614808
 21
60.35
 31
0.0
100
AcDbText
  0
TEXT
  5
16D
330
1B
100
AcDbEntity
 67
1
  8
R-TABLICZKA
100
AcDbText
 10
738.7431296843062
 20
60.35
 30
0.0
 40
1.8
  1
IMIĘ I NAZWISKO
  7
PL_ARIAL
 11
738.7431296843062
 21
60.35
 31
0.0
100
AcDbText
  0
TEXT
  5
16E
330
1B
100
AcDbEntity
 67
1
  8
R-TABLICZKA
100
AcDbText
 10
777.9770156711334
 20
60.35
 30
0.0
 40
1.8
  1
SPECJALNOŚĆ, NR UPRAWNIEŃ
  7
PL_ARIAL
 11
777.9770156711334
 21
60.35
 31
0.0
100
AcDbText
  0
TEXT
  5
16F
330
1B
100
AcDbEntity
 67
1
  8
R-TABLICZKA
100
AcDbText
 10
832.7051782875312
 20
60.35
 30
0.0
 40
1.8
  1
DATA
  7
PL_ARIAL
 11
832.7051782875312
 21
60.35
 31
0.0
100
AcDbText
  0
TEXT
  5
170
330
1B
100
AcDbEntity
 67
1
  8
R-TABLICZKA
100
AcDbText
 10
858.556438791733
 20
60.35
 30
0.0
 40
1.8
  1
PODPIS
  7
PL_ARIAL
 11
858.556438791733
 21
60.35
 31
0.0
100
AcDbText
  0
TEXT
  5
171
330
1B
100
AcDbEntity
 67
1
  8
R-TABLICZKA
100
AcDbText
 10
702.2
 20
54.6
 30
0.0
 40
1.8
  1
Projektant
  7
PL_ARIAL
 11
702.2
 21
54.6
 31
0.0
100
AcDbText
  0
TEXT
  5
172
330
1B
100
AcDbEntity
 67
1
  8
R-TABLICZKA
100
AcDbText
 10
702.2
 20
47.6
 30
0.0
 40
1.8
  1
Projektant (wsp.)
  7
PL_ARIAL
 11
702.2
 21
47.6
 31
0.0
100
AcDbText
  0
TEXT
  5
173
330
1B
100
AcDbEntity
 67
1
  8
R-TABLICZKA
100
AcDbText
 10
702.2
 20
40.6
 30
0.0
 40
1.8
  1
Sprawdzający
  7
PL_ARIAL
 11
702.2
 21
40.6
 31
0.0
100
AcDbText
  0
TEXT
  5
174
330
1B
100
AcDbEntity
 67
1
  8
R-TABLICZKA
100
AcDbText
 10
702.2
 20
33.6
 30
0.0
 40
1.8
  1
Opracował
  7
PL_ARIAL
 11
702.2
 21
33.6
 31
0.0
100
AcDbText
  0
TEXT
  5
175
330
1B
100
AcDbEntity
 67
1
  8
R-TABLICZKA
100
AcDbText
 10
702.2
 20
28.0
 30
0.0
 40
1.8
  1
TYTUŁ RYSUNKU
  7
PL_ARIAL
 11
702.2
 21
28.0
 31
0.0
100
AcDbText
  0
TEXT
  5
176
330
1B
100
AcDbEntity
 67
1
  8
R-TABLICZKA
100
AcDbText
 10
702.2
 20
21.5
 30
0.0
 40
5.0
  1
SCHEMAT POMPY CIEPŁA, C.O. I C.W.U.
  7
PL_ARIAL_B
 11
702.2
 21
21.5
 31
0.0
100
AcDbText
  0
TEXT
  5
177
330
1B
100
AcDbEntity
 67
1
  8
R-TABLICZKA
100
AcDbText
 10
702.2
 20
16.0
 30
0.0
 40
1.8
  1
SKALA
  7
PL_ARIAL
 11
702.2
 21
16.0
 31
0.0
100
AcDbText
  0
TEXT
  5
178
330
1B
100
AcDbEntity
 67
1
  8
R-TABLICZKA
100
AcDbText
 10
710.456279809221
 20
11.57
 30
0.0
 40
3.5
  1
—
  7
PL_ARIAL_B
 11
710.456279809221
 21
11.57
 31
0.0
100
AcDbText
  0
TEXT
  5
179
330
1B
100
AcDbEntity
 67
1
  8
R-TABLICZKA
100
AcDbText
 10
726.2
 20
16.0
 30
0.0
 40
1.8
  1
FORMAT
  7
PL_ARIAL
 11
726.2
 21
16.0
 31
0.0
100
AcDbText
  0
TEXT
  5
17A
330
1B
100
AcDbEntity
 67
1
  8
R-TABLICZKA
100
AcDbText
 10
728.7060526913468
 20
11.95
 30
0.0
 40
2.5
  1
A3×3
  7
PL_ARIAL
 11
728.7060526913468
 21
11.95
 31
0.0
100
AcDbText
  0
TEXT
  5
17B
330
1B
100
AcDbEntity
 67
1
  8
R-TABLICZKA
100
AcDbText
 10
742.2
 20
16.0
 30
0.0
 40
1.8
  1
DATA WYDANIA
  7
PL_ARIAL
 11
742.2
 21
16.0
 31
0.0
100
AcDbText
  0
TEXT
  5
17C
330
1B
100
AcDbEntity
 67
1
  8
R-TABLICZKA
100
AcDbText
 10
743.706904383375
 20
11.95
 30
0.0
 40
2.5
  1
2026-09-25
  7
PL_ARIAL
 11
743.706904383375
 21
11.95
 31
0.0
100
AcDbText
  0
TEXT
  5
17D
330
1B
100
AcDbEntity
 67
1
  8
R-TABLICZKA
100
AcDbText
 10
766.2
 20
16.0
 30
0.0
 40
1.8
  1
RODZAJ DOK.
  7
PL_ARIAL
 11
766.2
 21
16.0
 31
0.0
100
AcDbText
  0
TEXT
  5
17E
330
1B
100
AcDbEntity
 67
1
  8
R-TABLICZKA
100
AcDbText
 10
768.6760617760618
 20
12.216000000000001
 30
0.0
 40
1.8
  1
schemat instalacji
  7
PL_ARIAL
 11
768.6760617760618
 21
12.216000000000001
 31
0.0
100
AcDbText
  0
TEXT
  5
17F
330
1B
100
AcDbEntity
 67
1
  8
R-TABLICZKA
100
AcDbText
 10
794.2
 20
16.0
 30
0.0
 40
1.8
  1
NR RYSUNKU
  7
PL_ARIAL
 11
794.2
 21
16.0
 31
0.0
100
AcDbText
  0
TEXT
  5
180
330
1B
100
AcDbEntity
 67
1
  8
R-TABLICZKA
100
AcDbText
 10
808.9634340222575
 20
11.57
 30
0.0
 40
3.5
  1
PT-IS-17
  7
PL_ARIAL_B
 11
808.9634340222575
 21
11.57
 31
0.0
100
AcDbText
  0
TEXT
  5
181
330
1B
100
AcDbEntity
 67
1
  8
R-TABLICZKA
100
AcDbText
 10
846.2
 20
16.0
 30
0.0
 40
1.8
  1
ARKUSZ
  7
PL_ARIAL
 11
846.2
 21
16.0
 31
0.0
100
AcDbText
  0
TEXT
  5
182
330
1B
100
AcDbEntity
 67
1
  8
R-TABLICZKA
100
AcDbText
 10
849.453667953668
 20
11.95
 30
0.0
 40
2.5
  1
17/17
  7
PL_ARIAL
 11
849.453667953668
 21
11.95
 31
0.0
100
AcDbText
  0
TEXT
  5
183
330
1B
100
AcDbEntity
 67
1
  8
R-TABLICZKA
100
AcDbText
 10
864.2
 20
16.0
 30
0.0
 40
1.8
  1
REW.
  7
PL_ARIAL
 11
864.2
 21
16.0
 31
0.0
100
AcDbText
  0
TEXT
  5
184
330
1B
100
AcDbEntity
 67
1
  8
R-TABLICZKA
100
AcDbText
 10
870.5854531001589
 20
11.57
 30
0.0
 40
3.5
  1
0
  7
PL_ARIAL_B
 11
870.5854531001589
 21
11.57
 31
0.0
100
AcDbText
  0
TEXT
  5
185
330
1B
100
AcDbEntity
 67
1
  8
R-TABLICZKA
100
AcDbText
 10
702.2
 20
104.25
 30
0.0
 40
2.5
  1
0
  7
PL_ARIAL
 11
702.2
 21
104.25
 31
0.0
100
AcDbText
  0
TEXT
  5
186
330
1B
100
AcDbEntity
 67
1
  8
R-TABLICZKA
100
AcDbText
 10
720.2
 20
104.25
 30
0.0
 40
2.5
  1
Wydanie — rysunek wygenerowany z modelu
  7
PL_ARIAL
 11
720.2
 21
104.25
 31
0.0
100
AcDbText
  0
TEXT
  5
187
330
1B
100
AcDbEntity
 67
1
  8
R-TABLICZKA
100
AcDbText
 10
842.2
 20
104.25
 30
0.0
 40
2.5
  1
2026-09-25
  7
PL_ARIAL
 11
842.2
 21
104.25
 31
0.0
100
AcDbText
  0
TEXT
  5
188
330
1B
100
AcDbEntity
 67
1
  8
R-TABLICZKA
100
AcDbText
 10
702.2
 20
109.6
 30
0.0
 40
1.8
  1
REW.
  7
PL_ARIAL
 11
702.2
 21
109.6
 31
0.0
100
AcDbText
  0
TEXT
  5
189
330
1B
100
AcDbEntity
 67
1
  8
R-TABLICZKA
100
AcDbText
 10
720.2
 20
109.6
 30
0.0
 40
1.8
  1
OPIS ZMIANY
  7
PL_ARIAL
 11
720.2
 21
109.6
 31
0.0
100
AcDbText
  0
TEXT
  5
18A
330
1B
100
AcDbEntity
 67
1
  8
R-TABLICZKA
100
AcDbText
 10
842.2
 20
109.6
 30
0.0
 40
1.8
  1
DATA
  7
PL_ARIAL
 11
842.2
 21
109.6
 31
0.0
100
AcDbText
  0
VIEWPORT
  5
227
330
1B
100
AcDbEntity
 67
1
  8
R-RZUTNIA
100
AcDbViewport
 10
359.5
 20
217.0
 30
0.0
 40
467.53259141494436
 41
314.05291573926866
 68
2
 69
3
 12
11.721462639109697
 22
7.315227186009539
 13
0.0
 23
0.0
 14
10.0
 24
10.0
 15
10.0
 25
10.0
 16
0.0
 26
0.0
 36
1.0
 17
0.0
 27
0.0
 37
0.0
 42
50.0
 43
0.0
 44
0.0
 45
15.702645786963433
 50
0.0
 51
0.0
 72
100
 90
16384
  1

281
0
 71
0
 74
0
110
0.0
120
0.0
130
0.0
111
1.0
121
0.0
131
0.0
112
0.0
122
1.0
132
0.0
 79
0
146
0.0
282
0
  0
ENDSEC
  0
SECTION
  2
OBJECTS
  0
DICTIONARY
  5
A
330
0
100
AcDbDictionary
281
1
  3
ACAD_COLOR
350
B
  3
ACAD_GROUP
350
C
  3
ACAD_LAYOUT
350
D
  3
ACAD_MATERIAL
350
E
  3
ACAD_MLEADERSTYLE
350
F
  3
ACAD_MLINESTYLE
350
10
  3
ACAD_PLOTSETTINGS
350
11
  3
ACAD_PLOTSTYLENAME
350
12
  3
ACAD_SCALELIST
350
14
  3
ACAD_TABLESTYLE
350
15
  3
ACAD_VISUALSTYLE
350
16
  3
EZDXF_META
350
2D
  0
DICTIONARY
  5
B
330
A
100
AcDbDictionary
281
1
  0
DICTIONARY
  5
C
330
A
100
AcDbDictionary
281
1
  0
DICTIONARY
  5
D
330
A
100
AcDbDictionary
281
1
  3
Model
350
1A
  3
Arkusz PT-IS-17
350
1E
  0
DICTIONARY
  5
E
330
A
100
AcDbDictionary
281
1
  3
ByBlock
350
1F
  3
ByLayer
350
20
  3
Global
350
21
  0
DICTIONARY
  5
F
330
A
100
AcDbDictionary
281
1
  3
Standard
350
2C
  0
DICTIONARY
  5
10
330
A
100
AcDbDictionary
281
1
  3
Standard
350
22
  0
DICTIONARY
  5
11
330
A
100
AcDbDictionary
281
1
  0
ACDBDICTIONARYWDFLT
  5
12
330
A
100
AcDbDictionary
281
1
  3
Normal
350
13
100
AcDbDictionaryWithDefault
340
13
  0
ACDBPLACEHOLDER
  5
13
330
12
  0
DICTIONARY
  5
14
330
A
100
AcDbDictionary
281
1
  0
DICTIONARY
  5
15
330
A
100
AcDbDictionary
281
1
  0
DICTIONARY
  5
16
330
A
100
AcDbDictionary
281
1
  0
LAYOUT
  5
1A
330
D
100
AcDbPlotSettings
  1

  4
A3
  6

 40
7.5
 41
20.0
 42
7.5
 43
20.0
 44
420.0
 45
297.0
 46
0.0
 47
0.0
 48
0.0
 49
0.0
140
0.0
141
0.0
142
1.0
143
1.0
 70
1024
 72
1
 73
0
 74
5
  7

 75
16
 76
0
 77
2
 78
300
147
1.0
148
0.0
149
0.0
100
AcDbLayout
  1
Model
 70
1
 71
0
 10
0.0
 20
0.0
 11
420.0
 21
297.0
 12
0.0
 22
0.0
 32
0.0
 14
1e+20
 24
1e+20
 34
1e+20
 15
-1e+20
 25
-1e+20
 35
-1e+20
146
0.0
 13
0.0
 23
0.0
 33
0.0
 16
1.0
 26
0.0
 36
0.0
 17
0.0
 27
1.0
 37
0.0
 76
1
330
17
  0
LAYOUT
  5
1E
330
D
100
AcDbPlotSettings
  1

  2
DWG to PDF.pc3
  4
LAMELA_(891.00_x_420.00_MM)
  6

 40
0.0
 41
0.0
 42
0.0
 43
0.0
 44
891.0
 45
420.0
 46
0.0
 47
0.0
 48
0.0
 49
0.0
140
0.0
141
0.0
142
1.0
143
1.0
 70
672
 72
1
 73
0
 74
5
  7

 75
16
 76
0
 77
2
 78
300
147
1.0
148
0.0
149
0.0
100
AcDbLayout
  1
Arkusz PT-IS-17
 70
1
 71
1
 10
-0.0
 20
-0.0
 11
891.0
 21
420.0
 12
0.0
 22
0.0
 32
0.0
 14
1e+20
 24
1e+20
 34
1e+20
 15
-1e+20
 25
-1e+20
 35
-1e+20
146
0.0
 13
0.0
 23
0.0
 33
0.0
 16
1.0
 26
0.0
 36
0.0
 17
0.0
 27
1.0
 37
0.0
 76
1
330
1B
331
A4
  0
MATERIAL
  5
1F
102
{ACAD_REACTORS
330
E
102
}
330
E
100
AcDbMaterial
  1
ByBlock
  2

 70
0
 40
1.0
 71
1
 41
1.0
 91
-1023410177
 42
1.0
 72
1
  3

 73
1
 74
1
 75
1
 44
0.5
 73
0
 45
1.0
 46
1.0
 77
1
  4

 78
1
 79
1
170
1
 48
1.0
171
1
  6

172
1
173
1
174
1
140
1.0
141
1.0
175
1
  7

176
1
177
1
178
1
143
1.0
179
1
  8

270
1
271
1
272
1
145
1.0
146
1.0
273
1
  9

274
1
275
1
276
1
 42
1.0
 72
1
  3

 73
1
 74
1
 75
1
 94
63
  0
MATERIAL
  5
20
102
{ACAD_REACTORS
330
E
102
}
330
E
100
AcDbMaterial
  1
ByLayer
  2

 70
0
 40
1.0
 71
1
 41
1.0
 91
-1023410177
 42
1.0
 72
1
  3

 73
1
 74
1
 75
1
 44
0.5
 73
0
 45
1.0
 46
1.0
 77
1
  4

 78
1
 79
1
170
1
 48
1.0
171
1
  6

172
1
173
1
174
1
140
1.0
141
1.0
175
1
  7

176
1
177
1
178
1
143
1.0
179
1
  8

270
1
271
1
272
1
145
1.0
146
1.0
273
1
  9

274
1
275
1
276
1
 42
1.0
 72
1
  3

 73
1
 74
1
 75
1
 94
63
  0
MATERIAL
  5
21
102
{ACAD_REACTORS
330
E
102
}
330
E
100
AcDbMaterial
  1
Global
  2

 70
0
 40
1.0
 71
1
 41
1.0
 91
-1023410177
 42
1.0
 72
1
  3

 73
1
 74
1
 75
1
 44
0.5
 73
0
 45
1.0
 46
1.0
 77
1
  4

 78
1
 79
1
170
1
 48
1.0
171
1
  6

172
1
173
1
174
1
140
1.0
141
1.0
175
1
  7

176
1
177
1
178
1
143
1.0
179
1
  8

270
1
271
1
272
1
145
1.0
146
1.0
273
1
  9

274
1
275
1
276
1
 42
1.0
 72
1
  3

 73
1
 74
1
 75
1
 94
63
  0
MLINESTYLE
  5
22
102
{ACAD_REACTORS
330
10
102
}
330
10
100
AcDbMlineStyle
  2
Standard
 70
0
  3

 62
256
 51
90.0
 52
90.0
 71
2
 49
0.5
 62
256
  6
BYLAYER
 49
-0.5
 62
256
  6
BYLAYER
  0
MLEADERSTYLE
  5
2C
102
{ACAD_REACTORS
330
F
102
}
330
F
100
AcDbMLeaderStyle
179
2
170
2
171
1
172
0
 90
2
 40
0.0
 41
0.0
173
1
 91
-1056964608
 92
-2
290
1
 42
2.0
291
1
 43
8.0
  3
Standard
 44
4.0
300

342
29
174
1
175
1
176
0
178
1
 93
-1056964608
 45
4.0
292
0
297
0
 46
4.0
 94
-1056964608
 47
1.0
 49
1.0
140
1.0
294
1
141
0.0
177
0
142
1.0
295
0
296
0
143
3.75
271
0
272
9
273
9
  0
DICTIONARY
  5
2D
330
A
100
AcDbDictionary
280
1
281
1
  3
CREATED_BY_EZDXF
350
2E
  3
WRITTEN_BY_EZDXF
350
22A
  0
DICTIONARYVAR
  5
2E
330
2D
100
DictionaryVariables
280
0
  1
1.4.4 @ 2026-09-25T05:17:30.811041+00:00
  0
DICTIONARYVAR
  5
22A
330
2D
100
DictionaryVariables
280
0
  1
1.4.4 @ 2026-09-25T05:17:30.847041+00:00
  0
ENDSEC
  0
EOF
